<svg xmlns="http://www.w3.org/2000/svg" xmlns:xlink="http://www.w3.org/1999/xlink" xmlns:lucid="lucid" width="820" height="480"><g transform="translate(99.99999999999994 20)" lucid:page-tab-id="6eZYBOGttJBG"><path d="M460 221.65c0 11.05-26.86 20-60 20s-60-8.95-60-20 26.86-20 60-20 60 8.95 60 20z" stroke="#000" stroke-width="2" fill="#fff"/><use xlink:href="#a" transform="matrix(1,0,0,1,344.99999999999994,206.65) translate(13.254999999999997 18.15)"/><path d="M700 220c0 10.13-22.4 18.35-50 18.35s-50-8.22-50-18.35 22.4-18.35 50-18.35 50 8.22 50 18.35z" stroke="#000" stroke-width="2" fill="#fff"/><use xlink:href="#b" transform="matrix(1,0,0,1,605,206.65) translate(16.529999999999994 14.4)"/><path d="M500 160h80v40h-80z" stroke="#000" stroke-width="2" fill="#fff"/><use xlink:href="#c" transform="matrix(1,0,0,1,505,165) translate(7.574999999999999 18.15)"/><path d="M616.33 204.42l-1.95-4.84-2.67-4.62-2.95-3.78-3.27-3.14-3.63-2.62-2.93-1.54" stroke="#000" stroke-width="2" fill="none"/><path d="M617.65 205.03l-1.9.63-.36-.9 1.85-.74z"/><path d="M584.16 180.68l14.93-1.5-1.97 9.05z" stroke="#000" stroke-width="2"/><path d="M498 180.05l-4.83.26-4.93.83-4.37 1.23-4.04 1.64-3.88 2.1-3.9 2.72-4.12 3.6-3.64 4" stroke="#000" stroke-width="2" fill="none"/><path d="M499 181l-.97.05-.1-2L499 179z"/><path d="M455.54 208.88l4.4-14.34 7.58 5.33z" stroke="#000" stroke-width="2"/><path d="M300 340c0 11.05-26.86 20-60 20s-60-8.95-60-20 26.86-20 60-20 60 8.95 60 20z" stroke="#000" stroke-width="2" fill="#fff"/><use xlink:href="#d" transform="matrix(1,0,0,1,184.99999999999994,325) translate(34.055 18.275)"/><path d="M220 260h100v26.6H220z" stroke="#000" stroke-width="2" fill="#fff"/><use xlink:href="#e" transform="matrix(1,0,0,1,225,265) translate(9.024999999999999 14.4)"/><use xlink:href="#f" transform="matrix(1,0,0,1,225,265) translate(43.025 14.4)"/><path d="M338 221.68l-14.02.48-10.77 1.16-8.02 1.46-6.2 1.6-4.88 1.64-3.94 1.65-3.24 1.65-2.7 1.63-2.3 1.63-1.97 1.6-1.7 1.63-1.48 1.63-1.3 1.65-.3.46" stroke="#000" stroke-width="2" fill="none"/><path d="M339.03 221l-.03.65.02.56.05.45-1.06.03-.06-2 1.13-.03z"/><path d="M270.92 255.9l-.4-15 8.9 2.63z" stroke="#000" stroke-width="2"/><path d="M269.92 288.6l-.06.83-.4 1.65-.68 1.6-1.03 1.64-1.6 1.84-2.9 2.37-11.85 7.28" stroke="#000" stroke-width="2" fill="none"/><path d="M270.92 288.7l-2-.15.08-.95h2z"/><path d="M242.12 316.55l5.82-13.82 7 6.06z" stroke="#000" stroke-width="2"/><path d="M240 150c0 16.57-31.34 30-70 30s-70-13.43-70-30 31.34-30 70-30 70 13.43 70 30z" stroke="#000" stroke-width="2" fill="#fff"/><use xlink:href="#g" transform="matrix(1,0,0,1,105,124.99999999999999) translate(32.05499999999999 14.4)"/><use xlink:href="#h" transform="matrix(1,0,0,1,105,124.99999999999999) translate(25.529999999999994 36)"/><path d="M280 100h200v40H280z" stroke="#000" stroke-width="2" fill="#fff"/><use xlink:href="#e" transform="matrix(1,0,0,1,285,105) translate(7.074999999999989 18.15)"/><use xlink:href="#i" transform="matrix(1,0,0,1,285,105) translate(41.07499999999999 18.15)"/><use xlink:href="#h" transform="matrix(1,0,0,1,285,105) translate(104.975 18.15)"/><path d="M399.96 199.65l-.16-4-.52-4.1-.75-3.57-1-3.25-1.25-3.2-1.72-3.45-3.58-5.8-5.54-8.7-1.72-3.47-.4-1.02" stroke="#000" stroke-width="2" fill="none"/><path d="M401 200.7l-1-.05-1 .03-.04-1.02 2-.08z"/><path d="M380.58 144.18l7.13 13.2-9.1 1.67z" stroke="#000" stroke-width="2"/><path d="M278 120.06l-1.2.08-1.97.4-1.84.62-1.82.9-1.88 1.27-2.12 1.88-2.76 3.23-8.58 12.1" stroke="#000" stroke-width="2" fill="none"/><path d="M279 121l-.96.06-.13-2 1.1-.06z"/><path d="M243.73 148.26l9.53-11.58 5 7.8z" stroke="#000" stroke-width="2"/><path d="M210 0l30 30-30 30-30-30z" stroke="#000" stroke-width="2" fill="#fff"/><use xlink:href="#j" transform="matrix(1,0,0,1,184.99999999999994,5) translate(5.08 28.41)"/><path d="M183.43 95.4h1.85l-6.17 4.85-2.12 2.33-1.47-1.34 2.25-2.46 5.68-4.46zm27.53-32.94l-.07 1.6-.32 2.38-.5 2.22-.65 2.12-.85 2.04-.5 1h-2.26l.94-1.84.78-1.9.6-1.93.46-2.05.3-2.22.06-1.5z"/><path d="M210.96 62.48l-2-.08.08-1.95.96.96 1.05-1.03zM180.34 104.14l-9.23 11.82.53-15z"/><path d="M181.98 103.67L170 119l.68-19.44zm-9.77 9.25l6.5-8.3-6.12-2.24z"/><use xlink:href="#k" transform="matrix(1,0,0,1,183.427675001105,73.80634643147337) translate(0 14.4)"/><use xlink:href="#l" transform="matrix(1,0,0,1,183.427675001105,73.80634643147337) translate(17.95 14.4)"/><path d="M100 0l40 30-40 30-40-30z" stroke="#000" stroke-width="2" fill="#fff"/><use xlink:href="#m" transform="matrix(1,0,0,1,65,5) translate(5.725000000000001 28.6)"/><path d="M154.1 97.67l4.16 2.45 2.84 1.97.76.6-1.25 1.56-.7-.57-2.72-1.9-4-2.34-22.2-9.83v-2.2zm-53.06-35.25l.12 1.12.2 1.07.26 1.06.35 1.04.43 1.04.53 1.06.65 1.1.8 1.12.14.2h-1.48v1.34l-.27-.34-.87-1.25-.72-1.2-.6-1.2-.48-1.17-.4-1.18-.3-1.18-.22-1.22-.13-1.26v-.27l1.98-.1z"/><path d="M100 61.25l.97-.73.07 1.72-2 .07-.07-1.82zM168.4 116.18l-11.04-10.14 8.07-4.56z"/><path d="M170 119l-14.33-13.16 10.47-5.9zm-10.95-12.77l7.77 7.13-2.1-10.33z"/><use xlink:href="#k" transform="matrix(1,0,0,1,103.03790555404218,71.2136077486666) translate(0 14.4)"/><use xlink:href="#l" transform="matrix(1,0,0,1,103.03790555404218,71.2136077486666) translate(17.95 14.4)"/><path d="M10 20l70 50-70 50-70-50z" stroke="#000" stroke-width="2" fill="#fff"/><use xlink:href="#n" transform="matrix(1,0,0,1,-55,24.999999999999986) translate(26.529999999999998 36.9)"/><use xlink:href="#o" transform="matrix(1,0,0,1,-55,24.999999999999986) translate(74.53 36.9)"/><use xlink:href="#l" transform="matrix(1,0,0,1,-55,24.999999999999986) translate(93.48 36.9)"/><use xlink:href="#p" transform="matrix(1,0,0,1,-55,24.999999999999986) translate(23.054999999999996 58.5)"/><use xlink:href="#q" transform="matrix(1,0,0,1,-55,24.999999999999986) translate(62.005 58.5)"/><path d="M107.28 107.1l3.14.95 2.44.92 2.03.94 1.05.58-.96 1.76-1-.55-1.9-.88-2.32-.87-2.95-.9-9.34-1.48v-2.03zM56.53 90.6l1.37 1.55 1.45 1.42 1.54 1.33 1.67 1.24 1.84 1.18 2.08 1.13 2.37 1.1.7.25v2.14l-1.47-.56-2.5-1.14-2.18-1.2-1.97-1.25-1.78-1.34-1.66-1.4-1.55-1.53L55 91.88l-.76-.98 1.58-1.22z"/><path d="M55.84 89.7l-1.6 1.22-.64-.84 1.63-1.16zM124.75 122.9l-12.56-8.22 7.2-5.8z"/><path d="M126.78 125.4l-16.28-10.63 9.36-7.54zm-12.9-10.8l8.84 5.77-3.75-9.86z"/><use xlink:href="#k" transform="matrix(1,0,0,1,69.5406690417193,93.5193565783575) translate(0 14.4)"/><use xlink:href="#r" transform="matrix(1,0,0,1,69.5406690417193,93.5193565783575) translate(17.95 14.4)"/><path d="M370 380l50 30-50 30-50-30z" stroke="#000" stroke-width="2" fill="#fff"/><use xlink:href="#s" transform="matrix(1,0,0,1,325,385) translate(9.549999999999997 28.6)"/><path d="M369.97 377.83l-.43-14.82-.67-6.37-.67-3.72-.65-2.5-.62-1.84-.6-1.43-.58-1.15-.58-.96-.58-.82-.6-.72-.6-.64-.64-.57-.67-.53-.74-.5-.8-.44-.87-.42-1.03-.4-1.2-.38-1.5-.35-1.96-.3-2.85-.24-5.36-.03-26.3.78" stroke="#000" stroke-width="2" fill="none"/><path d="M371.02 379.44l-1.02-.6-.98.58-.05-1.58 2-.06z"/><path d="M304.24 339.9l14.12-5.05.27 9.26z" stroke="#000" stroke-width="2"/><use xlink:href="#k" transform="matrix(1,0,0,1,336.9186572231281,342.70553633274267) translate(0 14.4)"/><use xlink:href="#r" transform="matrix(1,0,0,1,336.9186572231281,342.70553633274267) translate(17.95 14.4)"/><path d="M470 286.6l50 30-50 30-50-30z" stroke="#000" stroke-width="2" fill="#fff"/><use xlink:href="#t" transform="matrix(1,0,0,1,425,291.59999999999997) translate(20.054999999999993 26.9)"/><path d="M451.28 268.3l5.93 2.43 3.53 1.75 2.4 1.4 1.73 1.2 1.3 1.07 1.04.95.82.88.67.83.53.8.45.74.37.73.3.72.23.7.18.72.13.72.04.4-2 .2-.03-.32-.1-.58-.14-.57-.2-.58-.23-.6-.3-.6-.38-.63-.46-.66-.6-.7-.7-.78-.94-.86-1.2-.97-1.62-1.12-2.27-1.34-3.4-1.7-5.8-2.36-9.84-3.34v-2.12zm-38.5-13.2v2.25l-1.52-.75.9-1.8z"/><path d="M471.02 286.05l-1.02-.62-.98.6-.06-1.6 2-.06zM412.78 251.2v3.5l-4.54 4.07-6.08-13.7z"/><path d="M413.1 250.24h-.32v2.13l-8.46-4.9 4.28 9.64 4.18-3.74v2.68l-4.9 4.4-7.88-17.8z"/><use xlink:href="#k" transform="matrix(1,0,0,1,412.77871031933995,250.23908316883416) translate(0 14.4)"/><use xlink:href="#r" transform="matrix(1,0,0,1,412.77871031933995,250.23908316883416) translate(17.95 14.4)"/><path d="M440.05 392.02l-.35 3.03-.4 2.24-.44 1.76-.46 1.46-.48 1.2-1.86-.72.45-1.15.43-1.33.4-1.65.4-2.1.32-2.85-.3-21.22h2zm5-58.1l-.55 1-.96 2.02-.88 2.27-.83 2.6-.74 3-.67 3.6-.08.7h-2l.1-1 .68-3.73.78-3.13.87-2.7.94-2.4 1-2.14.6-1.05z"/><path d="M445.5 333.07l-.47.87-1.75-.97.5-.93zM439.44 405.33l-14.7 3.06 10.1-11.12z"/><path d="M441 406.03L421.93 410l13.08-14.4zm-13.44.76l10.32-2.17-3.23-5.66z"/><use xlink:href="#e" transform="matrix(1,0,0,1,402.64220135382163,349.10249994986907) translate(0 14.4)"/><use xlink:href="#f" transform="matrix(1,0,0,1,402.64220135382163,349.10249994986907) translate(34 14.4)"/><path d="M650 300l50 30-50 30-50-30z" stroke="#000" stroke-width="2" fill="#fff"/><use xlink:href="#u" transform="matrix(1,0,0,1,605,305) translate(32.53 30.025)"/><path d="M651 297.83h-2v-11.5h2zm0-33.1h-2v-6.88h2z"/><path d="M651 299.43l-1-.6-1 .6v-1.62h2zM654.64 256.85h-9.28L650 242.6z"/><path d="M656 257.85h-12l6-18.5zm-9.26-2h6.52L650 245.82z"/><use xlink:href="#k" transform="matrix(1,0,0,1,636.0250000000001,264.7328756837886) translate(0 14.4)"/><use xlink:href="#r" transform="matrix(1,0,0,1,636.0250000000001,264.7328756837886) translate(17.95 14.4)"/><path d="M616.74 342.4l-.47.75-.96 1.36-.9 1.17-.87 1-.84.85-.82.75-.8.66-.77.58-.76.52-.76.45-.77.4-.75.34-.78.32-.8.26-.8.22-.82.18-.86.14-.9.1-.95.05h-1l-1.06-.05-1.16-.12-1.26-.2-1.4-.3-1.57-.4-1.8-.6-2.16-.83-2.67-1.2-.64-.33h4.9l1.23.47 1.72.57 1.47.4 1.3.27 1.15.18 1.04.1.96.06h.9l.83-.05.8-.1.74-.1.73-.17.7-.2.7-.22.67-.27.67-.3.66-.35.68-.4.68-.45.7-.52.7-.6.74-.66.76-.8.8-.9.85-1.08.9-1.28.45-.7zm-74.6-22.32l4.17 1.87 5.2 2.65 3.56 2.24h-3.76l-.8-.5-5.06-2.6-4.07-1.8-1.77-.7.72-1.86z"/><path d="M617.3 341.54l-.57.88-1.7-1.06.54-.85zM538.15 324.67l-13.04-7.42 14.92-1.66z"/><path d="M538.85 326.22l-16.9-9.62 19.33-2.15zm-10.57-8.3l9.17 5.2 1.3-6.38z"/><use xlink:href="#c" transform="matrix(1,0,0,1,542.9569858353796,326.84327230398696) translate(0 14.4)"/><path d="M80 241.65C80 251.78 57.6 260 30 260s-50-8.22-50-18.35S2.4 223.3 30 223.3s50 8.22 50 18.35z" stroke="#000" stroke-width="2" fill="#fff"/><use xlink:href="#v" transform="matrix(1,0,0,1,-15,228.3) translate(24.03 17.775)"/><path d="M120 326.7c0 10.13-17.9 18.35-40 18.35s-40-8.22-40-18.35 17.9-18.35 40-18.35 40 8.22 40 18.35z" stroke="#000" stroke-width="2" fill="#fff"/><use xlink:href="#w" transform="matrix(1,0,0,1,44.99999999999994,313.35) translate(16.53 17.775)"/><path d="M79.95 306.35l-.1-1.73-.38-2.46-.6-2.3-.86-2.23-1.14-2.25-1.57-2.42-2.33-2.86-4.63-4.58-6.18-5.74" stroke="#000" stroke-width="2" fill="none"/><path d="M81 307.4l-1-.05-1 .03-.05-1 2-.1z"/><path d="M50.7 261.14l22.1 11.66-21.68 13.33zM20 326.7c0 10.13-22.4 18.35-50 18.35s-50-8.22-50-18.35 22.4-18.35 50-18.35 50 8.22 50 18.35z" stroke="#000" stroke-width="2" fill="#fff"/><g><use xlink:href="#x" transform="matrix(1,0,0,1,-74.99999999999994,313.35) translate(23.53 17.775)"/></g><path d="M-18.6 306.9l.22-2.2.6-2.93.87-2.76 1.2-2.74 1.64-2.93 2.5-3.53 8.26-9.73" stroke="#000" stroke-width="2" fill="none"/><path d="M-17.6 306.98l-.1.97-2-.1.1-1.07z"/><path d="M7.5 260.84l.56 25-22.2-12.48zM140 200h100v40H140z" stroke="#000" stroke-width="2" fill="#fff"/><g><use xlink:href="#e" transform="matrix(1,0,0,1,144.99999999999994,205) translate(10.5 18.15)"/><use xlink:href="#y" transform="matrix(1,0,0,1,144.99999999999994,205) translate(44.5 18.15)"/></g><path d="M357.75 205.37l-.25-.82-.55-1.55-.54-1.36-.53-1.2-.54-1.06-.53-.96-.53-.87-.53-.78-.53-.7-.52-.67-.53-.6-.53-.55-.54-.52-.54-.47-.55-.45-.57-.4-.58-.38-.58-.36-.6-.33-.63-.3-.64-.3-.67-.27-.7-.24-.73-.22-.78-.2-.82-.17-.88-.15-.94-.1-1.02-.1-1.1-.03h-1.22l-1.35.07-1.53.14-1.72.24-2 .35-2.36.53-2.9.78-3.68 1.17-5.13 1.87-9.2 3.82-31.7 13.83-7.15 2.6-5.54 1.75-4.02 1.08" stroke="#000" stroke-width="2" fill="none"/><path d="M359 206.06l-1.67.47-.25.1-.3-1 1.92-.57z"/><path d="M244.2 219.56l13.5-6.54 1.27 9.2z" stroke="#000" stroke-width="2"/><path d="M138 220.04l-3.52.15-3.78.48-3.3.72-3.02.94-2.94 1.2-3.1 1.6-3.94 2.48-12.75 8.9-2.7 1.4" stroke="#000" stroke-width="2" fill="none"/><path d="M139 221l-.98.04-.1-2L139 219z"/><path d="M84.17 241l13.02-7.46 1.88 9.08z" stroke="#000" stroke-width="2"/><defs><path d="M266 0h-40l-56-210L115 0H75L2-248h35L96-30l15-64 43-154h32l59 218 59-218h35" id="z"/><path d="M100-194c63 0 86 42 84 106H49c0 40 14 67 53 68 26 1 43-12 49-29l28 8c-11 28-37 45-77 45C44 4 14-33 15-96c1-61 26-98 85-98zm52 81c6-60-76-77-97-28-3 7-6 17-6 28h103" id="A"/><path d="M115-194c53 0 69 39 70 98 0 66-23 100-70 100C84 3 66-7 56-30L54 0H23l1-261h32v101c10-23 28-34 59-34zm-8 174c40 0 45-34 45-75 0-40-5-75-45-74-42 0-51 32-51 76 0 43 10 73 51 73" id="B"/><path d="M96-169c-40 0-48 33-48 73s9 75 48 75c24 0 41-14 43-38l32 2c-6 37-31 61-74 61-59 0-76-41-82-99-10-93 101-131 147-64 4 7 5 14 7 22l-32 3c-4-21-16-35-41-35" id="C"/><path d="M100-194c62-1 85 37 85 99 1 63-27 99-86 99S16-35 15-95c0-66 28-99 85-99zM99-20c44 1 53-31 53-75 0-43-8-75-51-75s-53 32-53 75 10 74 51 75" id="D"/><path d="M210-169c-67 3-38 105-44 169h-31v-121c0-29-5-50-35-48C34-165 62-65 56 0H25l-1-190h30c1 10-1 24 2 32 10-44 99-50 107 0 11-21 27-35 58-36 85-2 47 119 55 194h-31v-121c0-29-5-49-35-48" id="E"/><path d="M24-231v-30h32v30H24zM24 0v-190h32V0H24" id="F"/><g id="a"><use transform="matrix(0.05,0,0,0.05,0,0)" xlink:href="#z"/><use transform="matrix(0.05,0,0,0.05,16.599999999999998,0)" xlink:href="#A"/><use transform="matrix(0.05,0,0,0.05,26.599999999999994,0)" xlink:href="#B"/><use transform="matrix(0.05,0,0,0.05,36.599999999999994,0)" xlink:href="#C"/><use transform="matrix(0.05,0,0,0.05,45.599999999999994,0)" xlink:href="#D"/><use transform="matrix(0.05,0,0,0.05,55.599999999999994,0)" xlink:href="#E"/><use transform="matrix(0.05,0,0,0.05,70.55,0)" xlink:href="#F"/><use transform="matrix(0.05,0,0,0.05,74.5,0)" xlink:href="#C"/></g><path d="M30-248c87 1 191-15 191 75 0 78-77 80-158 76V0H30v-248zm33 125c57 0 124 11 124-50 0-59-68-47-124-48v98" id="G"/><path d="M114-163C36-179 61-72 57 0H25l-1-190h30c1 12-1 29 2 39 6-27 23-49 58-41v29" id="H"/><path d="M135-143c-3-34-86-38-87 0 15 53 115 12 119 90S17 21 10-45l28-5c4 36 97 45 98 0-10-56-113-15-118-90-4-57 82-63 122-42 12 7 21 19 24 35" id="I"/><path d="M117-194c89-4 53 116 60 194h-32v-121c0-31-8-49-39-48C34-167 62-67 57 0H25l-1-190h30c1 10-1 24 2 32 11-22 29-35 61-36" id="J"/><g id="b"><use transform="matrix(0.05,0,0,0.05,0,0)" xlink:href="#G"/><use transform="matrix(0.05,0,0,0.05,12,0)" xlink:href="#A"/><use transform="matrix(0.05,0,0,0.05,22,0)" xlink:href="#H"/><use transform="matrix(0.05,0,0,0.05,27.950000000000003,0)" xlink:href="#I"/><use transform="matrix(0.05,0,0,0.05,36.95,0)" xlink:href="#D"/><use transform="matrix(0.05,0,0,0.05,46.95,0)" xlink:href="#J"/></g><path d="M101-234c-31-9-42 10-38 44h38v23H63V0H32v-167H5v-23h27c-7-52 17-82 69-68v24" id="K"/><path d="M24 0v-261h32V0H24" id="L"/><path d="M206 0h-36l-40-164L89 0H53L-1-190h32L70-26l43-164h34l41 164 42-164h31" id="M"/><g id="c"><use transform="matrix(0.05,0,0,0.05,0,0)" xlink:href="#K"/><use transform="matrix(0.05,0,0,0.05,5,0)" xlink:href="#D"/><use transform="matrix(0.05,0,0,0.05,15,0)" xlink:href="#L"/><use transform="matrix(0.05,0,0,0.05,18.95,0)" xlink:href="#L"/><use transform="matrix(0.05,0,0,0.05,22.9,0)" xlink:href="#D"/><use transform="matrix(0.05,0,0,0.05,32.9,0)" xlink:href="#M"/><use transform="matrix(0.05,0,0,0.05,45.85,0)" xlink:href="#I"/></g><path d="M127-220V0H93v-220H8v-28h204v28h-85" id="N"/><path d="M115-194c55 1 70 41 70 98S169 2 115 4C84 4 66-9 55-30l1 105H24l-1-265h31l2 30c10-21 28-34 59-34zm-8 174c40 0 45-34 45-75s-6-73-45-74c-42 0-51 32-51 76 0 43 10 73 51 73" id="O"/><g id="d"><use transform="matrix(0.05,0,0,0.05,0,0)" xlink:href="#N"/><use transform="matrix(0.05,0,0,0.05,8.950000000000001,0)" xlink:href="#D"/><use transform="matrix(0.05,0,0,0.05,18.950000000000003,0)" xlink:href="#O"/><use transform="matrix(0.05,0,0,0.05,28.950000000000003,0)" xlink:href="#F"/><use transform="matrix(0.05,0,0,0.05,32.900000000000006,0)" xlink:href="#C"/></g><path d="M106-169C34-169 62-67 57 0H25v-261h32l-1 103c12-21 28-36 61-36 89 0 53 116 60 194h-32v-121c2-32-8-49-39-48" id="P"/><path d="M141-36C126-15 110 5 73 4 37 3 15-17 15-53c-1-64 63-63 125-63 3-35-9-54-41-54-24 1-41 7-42 31l-33-3c5-37 33-52 76-52 45 0 72 20 72 64v82c-1 20 7 32 28 27v20c-31 9-61-2-59-35zM48-53c0 20 12 33 32 33 41-3 63-29 60-74-43 2-92-5-92 41" id="Q"/><g id="e"><use transform="matrix(0.05,0,0,0.05,0,0)" xlink:href="#P"/><use transform="matrix(0.05,0,0,0.05,10,0)" xlink:href="#Q"/><use transform="matrix(0.05,0,0,0.05,20,0)" xlink:href="#I"/></g><path d="M59-47c-2 24 18 29 38 22v24C64 9 27 4 27-40v-127H5v-23h24l9-43h21v43h35v23H59v120" id="R"/><g id="f"><use transform="matrix(0.05,0,0,0.05,0,0)" xlink:href="#R"/><use transform="matrix(0.05,0,0,0.05,5,0)" xlink:href="#D"/><use transform="matrix(0.05,0,0,0.05,15,0)" xlink:href="#O"/><use transform="matrix(0.05,0,0,0.05,25,0)" xlink:href="#F"/><use transform="matrix(0.05,0,0,0.05,28.950000000000003,0)" xlink:href="#C"/></g><path d="M233-177c-1 41-23 64-60 70L243 0h-38l-65-103H63V0H30v-248c88 3 205-21 203 71zM63-129c60-2 137 13 137-47 0-61-80-42-137-45v92" id="S"/><g id="g"><use transform="matrix(0.05,0,0,0.05,0,0)" xlink:href="#S"/><use transform="matrix(0.05,0,0,0.05,12.950000000000001,0)" xlink:href="#A"/><use transform="matrix(0.05,0,0,0.05,22.950000000000003,0)" xlink:href="#L"/><use transform="matrix(0.05,0,0,0.05,26.900000000000002,0)" xlink:href="#A"/><use transform="matrix(0.05,0,0,0.05,36.900000000000006,0)" xlink:href="#Q"/><use transform="matrix(0.05,0,0,0.05,46.900000000000006,0)" xlink:href="#I"/><use transform="matrix(0.05,0,0,0.05,55.900000000000006,0)" xlink:href="#A"/></g><path d="M145-31C134-9 116 4 85 4 32 4 16-35 15-94c0-59 17-99 70-100 32-1 48 14 60 33 0-11-1-24 2-32h30l-1 268h-32zM93-21c41 0 51-33 51-76s-8-73-50-73c-40 0-46 35-46 75s5 74 45 74" id="T"/><path d="M84 4C-5 8 30-112 23-190h32v120c0 31 7 50 39 49 72-2 45-101 50-169h31l1 190h-30c-1-10 1-25-2-33-11 22-28 36-60 37" id="U"/><path d="M179-190L93 31C79 59 56 82 12 73V49c39 6 53-20 64-50L1-190h34L92-34l54-156h33" id="V"/><g id="h"><use transform="matrix(0.05,0,0,0.05,0,0)" xlink:href="#K"/><use transform="matrix(0.05,0,0,0.05,5,0)" xlink:href="#H"/><use transform="matrix(0.05,0,0,0.05,10.95,0)" xlink:href="#A"/><use transform="matrix(0.05,0,0,0.05,20.95,0)" xlink:href="#T"/><use transform="matrix(0.05,0,0,0.05,30.950000000000003,0)" xlink:href="#U"/><use transform="matrix(0.05,0,0,0.05,40.95,0)" xlink:href="#A"/><use transform="matrix(0.05,0,0,0.05,50.95,0)" xlink:href="#J"/><use transform="matrix(0.05,0,0,0.05,60.95,0)" xlink:href="#C"/><use transform="matrix(0.05,0,0,0.05,69.95,0)" xlink:href="#V"/></g><g id="i"><use transform="matrix(0.05,0,0,0.05,0,0)" xlink:href="#H"/><use transform="matrix(0.05,0,0,0.05,5.95,0)" xlink:href="#A"/><use transform="matrix(0.05,0,0,0.05,15.949999999999998,0)" xlink:href="#L"/><use transform="matrix(0.05,0,0,0.05,19.9,0)" xlink:href="#A"/><use transform="matrix(0.05,0,0,0.05,29.899999999999995,0)" xlink:href="#Q"/><use transform="matrix(0.05,0,0,0.05,39.9,0)" xlink:href="#I"/><use transform="matrix(0.05,0,0,0.05,48.9,0)" xlink:href="#A"/></g><path d="M30-248c118-7 216 8 213 122C240-48 200 0 122 0H30v-248zM63-27c89 8 146-16 146-99s-60-101-146-95v194" id="W"/><g id="j"><use transform="matrix(0.05,0,0,0.05,0,0)" xlink:href="#W"/><use transform="matrix(0.05,0,0,0.05,12.950000000000001,0)" xlink:href="#Q"/><use transform="matrix(0.05,0,0,0.05,22.950000000000003,0)" xlink:href="#F"/><use transform="matrix(0.05,0,0,0.05,26.900000000000002,0)" xlink:href="#L"/><use transform="matrix(0.05,0,0,0.05,30.85,0)" xlink:href="#V"/></g><g id="k"><use transform="matrix(0.05,0,0,0.05,0,0)" xlink:href="#F"/><use transform="matrix(0.05,0,0,0.05,3.95,0)" xlink:href="#I"/></g><use transform="matrix(0.05,0,0,0.05,0,0)" xlink:href="#Q" id="l"/><path d="M143 0L79-87 56-68V0H24v-261h32v163l83-92h37l-77 82L181 0h-38" id="X"/><g id="m"><use transform="matrix(0.05,0,0,0.05,0,0)" xlink:href="#z"/><use transform="matrix(0.05,0,0,0.05,16.599999999999998,0)" xlink:href="#A"/><use transform="matrix(0.05,0,0,0.05,26.599999999999994,0)" xlink:href="#A"/><use transform="matrix(0.05,0,0,0.05,36.599999999999994,0)" xlink:href="#X"/><use transform="matrix(0.05,0,0,0.05,45.599999999999994,0)" xlink:href="#L"/><use transform="matrix(0.05,0,0,0.05,49.55,0)" xlink:href="#V"/></g><path d="M140-251c81 0 123 46 123 126C263-46 219 4 140 4 59 4 17-45 17-125s42-126 123-126zm0 227c63 0 89-41 89-101s-29-99-89-99c-61 0-89 39-89 99S79-25 140-24" id="Y"/><g id="n"><use transform="matrix(0.05,0,0,0.05,0,0)" xlink:href="#Y"/><use transform="matrix(0.05,0,0,0.05,14,0)" xlink:href="#J"/><use transform="matrix(0.05,0,0,0.05,24,0)" xlink:href="#C"/><use transform="matrix(0.05,0,0,0.05,33,0)" xlink:href="#A"/></g><g id="o"><use transform="matrix(0.05,0,0,0.05,0,0)" xlink:href="#F"/><use transform="matrix(0.05,0,0,0.05,3.95,0)" xlink:href="#J"/></g><g id="p"><use transform="matrix(0.05,0,0,0.05,0,0)" xlink:href="#B"/><use transform="matrix(0.05,0,0,0.05,10,0)" xlink:href="#L"/><use transform="matrix(0.05,0,0,0.05,13.949999999999998,0)" xlink:href="#U"/><use transform="matrix(0.05,0,0,0.05,23.95,0)" xlink:href="#A"/></g><g id="q"><use transform="matrix(0.05,0,0,0.05,0,0)" xlink:href="#E"/><use transform="matrix(0.05,0,0,0.05,14.950000000000001,0)" xlink:href="#D"/><use transform="matrix(0.05,0,0,0.05,24.950000000000003,0)" xlink:href="#D"/><use transform="matrix(0.05,0,0,0.05,34.95,0)" xlink:href="#J"/></g><use transform="matrix(0.05,0,0,0.05,0,0)" xlink:href="#Q" id="r"/><path d="M185-189c-5-48-123-54-124 2 14 75 158 14 163 119 3 78-121 87-175 55-17-10-28-26-33-46l33-7c5 56 141 63 141-1 0-78-155-14-162-118-5-82 145-84 179-34 5 7 8 16 11 25" id="Z"/><g id="s"><use transform="matrix(0.05,0,0,0.05,0,0)" xlink:href="#Z"/><use transform="matrix(0.05,0,0,0.05,12,0)" xlink:href="#Q"/><use transform="matrix(0.05,0,0,0.05,22,0)" xlink:href="#H"/><use transform="matrix(0.05,0,0,0.05,27.950000000000003,0)" xlink:href="#C"/><use transform="matrix(0.05,0,0,0.05,36.95,0)" xlink:href="#Q"/><use transform="matrix(0.05,0,0,0.05,46.95,0)" xlink:href="#I"/><use transform="matrix(0.05,0,0,0.05,55.95,0)" xlink:href="#E"/></g><path d="M195 0l-74-108L45 0H8l94-129-87-119h37l69 98 67-98h37l-84 118L233 0h-38" id="aa"/><path d="M194 0L95-120 63-95V0H30v-248h33v124l119-124h40L117-140 236 0h-42" id="ab"/><path d="M212-179c-10-28-35-45-73-45-59 0-87 40-87 99 0 60 29 101 89 101 43 0 62-24 78-52l27 14C228-24 195 4 139 4 59 4 22-46 18-125c-6-104 99-153 187-111 19 9 31 26 39 46" id="ac"/><g id="t"><use transform="matrix(0.05,0,0,0.05,0,0)" xlink:href="#aa"/><use transform="matrix(0.05,0,0,0.05,12,0)" xlink:href="#ab"/><use transform="matrix(0.05,0,0,0.05,24,0)" xlink:href="#ac"/><use transform="matrix(0.05,0,0,0.05,36.95,0)" xlink:href="#W"/></g><g id="u"><use transform="matrix(0.05,0,0,0.05,0,0)" xlink:href="#E"/><use transform="matrix(0.05,0,0,0.05,14.950000000000001,0)" xlink:href="#A"/></g><path d="M63-220v92h138v28H63V0H30v-248h175v28H63" id="ad"/><path d="M85-194c31 0 48 13 60 33l-1-100h32l1 261h-30c-2-10 0-23-3-31C134-8 116 4 85 4 32 4 16-35 15-94c0-66 23-100 70-100zm9 24c-40 0-46 34-46 75 0 40 6 74 45 74 42 0 51-32 51-76 0-42-9-74-50-73" id="ae"/><g id="v"><use transform="matrix(0.05,0,0,0.05,0,0)" xlink:href="#ad"/><use transform="matrix(0.05,0,0,0.05,10.950000000000001,0)" xlink:href="#A"/><use transform="matrix(0.05,0,0,0.05,20.950000000000003,0)" xlink:href="#A"/><use transform="matrix(0.05,0,0,0.05,30.950000000000003,0)" xlink:href="#ae"/></g><g id="w"><use transform="matrix(0.05,0,0,0.05,0,0)" xlink:href="#S"/><use transform="matrix(0.05,0,0,0.05,12.950000000000001,0)" xlink:href="#Z"/><use transform="matrix(0.05,0,0,0.05,24.950000000000003,0)" xlink:href="#Z"/></g><path d="M205 0l-28-72H64L36 0H1l101-248h38L239 0h-34zm-38-99l-47-123c-12 45-31 82-46 123h93" id="af"/><g id="x"><use transform="matrix(0.05,0,0,0.05,0,0)" xlink:href="#af"/><use transform="matrix(0.05,0,0,0.05,12,0)" xlink:href="#R"/><use transform="matrix(0.05,0,0,0.05,17,0)" xlink:href="#D"/><use transform="matrix(0.05,0,0,0.05,27,0)" xlink:href="#E"/></g><g id="y"><use transform="matrix(0.05,0,0,0.05,0,0)" xlink:href="#K"/><use transform="matrix(0.05,0,0,0.05,5,0)" xlink:href="#A"/><use transform="matrix(0.05,0,0,0.05,15,0)" xlink:href="#A"/><use transform="matrix(0.05,0,0,0.05,25,0)" xlink:href="#ae"/></g></defs></g></svg>