<?xml version="1.0" encoding="UTF-8"?>
<svg width="38px" height="34px" viewBox="0 0 38 34" version="1.1" xmlns="http://www.w3.org/2000/svg" xmlns:xlink="http://www.w3.org/1999/xlink">
    <!-- Generator: Sketch 55.2 (78181) - https://sketchapp.com -->
    <title>chat</title>
    <desc>Created with Sketch.</desc>
    <g id="Page-1" stroke="none" stroke-width="1" fill="none" fill-rule="evenodd">
        <g id="chat" fill="#FFFFFF" fill-rule="nonzero">
            <path d="M27.8437874,0 L2.1562874,0 C0.967266653,0 0,1.06397338 0,2.37178942 L0,19.3236257 C0,20.6314417 0.967266653,21.6954974 2.1562874,21.6954974 L3.82194854,21.6954974 L3.82194854,28.0062836 C3.82194854,28.408081 4.04198245,28.770472 4.37958716,28.9243133 C4.49132429,28.9753196 4.60874551,29 4.72511966,29 C4.96026127,29 5.1912146,28.8989748 5.36405564,28.7089355 L11.7400279,21.6955796 L13.0192461,21.6955796 C13.5181741,21.6955796 13.9225668,21.250756 13.9225668,20.7019455 C13.9225668,20.1530527 13.5180245,19.7082291 13.0192461,19.7082291 C13.0192461,19.7082291 11.3222477,19.7095454 11.3045223,19.7115198 C11.0942112,19.727233 10.8877892,19.8224995 10.7269894,19.9992936 L5.62858995,25.607428 C5.62858995,25.607428 5.62701935,20.6390927 5.62410251,20.6133428 C5.58334164,20.1060776 5.19652473,19.7082291 4.7248205,19.7082291 L2.1562874,19.7082291 C1.96347726,19.7082291 1.80671619,19.5357129 1.80671619,19.323708 L1.80671619,2.37178942 C1.80671619,2.15970225 1.96355205,1.9872683 2.1562874,1.9872683 L27.8437874,1.9872683 C28.0365975,1.9872683 28.1933586,2.15978451 28.1933586,2.37178942 L28.1933586,8.87549432 C28.1933586,9.42430483 28.5979009,9.86912847 29.0966793,9.86912847 C29.5954577,9.86912847 30,9.42430483 30,8.87549432 L30,2.37178942 C30,1.06397338 29.0327333,0 27.8437874,0 Z" id="Path"></path>
            <path d="M35.8721534,12 L18.1279204,12 C16.9546156,12 16,13.0828773 16,14.4140133 L16,26.1839087 C16,27.514961 16.9545418,28.597922 18.1279204,28.597922 L29.2368591,28.597922 L33.7375904,33.703764 C33.9081577,33.8972636 34.1361465,34 34.3681209,34 C34.4829641,34 34.5988406,33.9747973 34.7091077,33.9229686 C35.0421235,33.7663939 35.2594104,33.3977317 35.2594104,32.988628 L35.2594104,28.5978382 L35.8720796,28.5978382 C37.0453844,28.5978382 38,27.514961 38,26.1838249 L38,14.4139296 C38,13.0828773 37.045532,12 35.8721534,12 Z M36.2171996,26.1839087 C36.2171996,26.3996803 36.062427,26.5752617 35.8722272,26.5752617 L34.3683423,26.5752617 C33.899227,26.5752617 33.5155799,26.9865423 33.4803741,27.5085975 C33.4780861,27.5307022 33.47661,30.5471513 33.47661,30.5471513 L30.2398918,26.8751817 C30.2364967,26.8713302 30.232954,26.8677298 30.2295589,26.8638782 C30.2168642,26.8498116 30.2048337,26.8375871 30.1934674,26.8266185 C30.0365544,26.6705461 29.8315933,26.5751779 29.6066305,26.5751779 L18.1279204,26.5751779 C17.9376468,26.5751779 17.782948,26.3995966 17.782948,26.1838249 L17.782948,14.4139296 C17.782948,14.1980742 17.9377206,14.0225766 18.1279204,14.0225766 L35.8722272,14.0225766 C36.062427,14.0225766 36.2171996,14.1981579 36.2171996,14.4139296 L36.2171996,26.1839087 L36.2171996,26.1839087 Z" id="Shape"></path>
            <path d="M27,19 C26.4480046,19 26,19.4480046 26,20 C26,20.5519954 26.4480046,21 27,21 C27.5520782,21 28,20.5519954 28,20 C28,19.4480046 27.5519954,19 27,19 Z" id="Path"></path>
            <path d="M22.1089197,7 C22.1089197,7 5.89108034,7 5.89108034,7 C5.39898679,7 5,7.44767346 5,8 C5,8.55232654 5.39906057,9 5.89108034,9 L22.1089197,9 C22.6010132,9 23,8.55232654 23,8 C23,7.44767346 22.6010132,7 22.1089197,7 Z" id="Path"></path>
            <path d="M13.1018488,13 L6.89815116,13 C6.4021528,13 6,13.4476735 6,14 C6,14.5523265 6.40222716,15 6.89815116,15 L13.1018488,15 C13.5979216,15 14,14.5523265 14,14 C14,13.4476735 13.5978472,13 13.1018488,13 Z" id="Path"></path>
            <path d="M23,19 C22.4480874,19 22,19.4480046 22,20 C22,20.5519954 22.4480874,21 23,21 C23.5520782,21 24,20.5519954 24,20 C24,19.4480046 23.5520782,19 23,19 Z" id="Path"></path>
            <path d="M31,19 C30.4480046,19 30,19.4480046 30,20 C30,20.5519954 30.4480046,21 31,21 C31.5520782,21 32,20.5519954 32,20 C32,19.4480046 31.5519954,19 31,19 Z" id="Path"></path>
        </g>
    </g>
</svg>