<?xml version="1.0" encoding="UTF-8"?>
<svg width="34px" height="34px" viewBox="0 0 34 34" version="1.1" xmlns="http://www.w3.org/2000/svg" xmlns:xlink="http://www.w3.org/1999/xlink">
    <!-- Generator: Sketch 55.2 (78181) - https://sketchapp.com -->
    <title>github</title>
    <desc>Created with Sketch.</desc>
    <g id="Page-1" stroke="none" stroke-width="1" fill="none" fill-rule="evenodd">
        <g id="github" fill="#FFFFFF" fill-rule="nonzero">
            <path d="M11.34082,27.541051 C11.34082,27.677769 11.18354,27.787117 10.985339,27.787117 C10.759767,27.807611 10.602487,27.698263 10.602487,27.541051 C10.602487,27.404332 10.759767,27.294917 10.957968,27.294917 C11.163046,27.274423 11.34082,27.383771 11.34082,27.541051 Z M9.214808,27.233434 C9.262673,27.096716 9.460942,27.028356 9.638649,27.076155 C9.843727,27.137705 9.973636,27.294917 9.93258,27.431636 C9.891591,27.568354 9.686514,27.636713 9.50874,27.568354 C9.303662,27.527365 9.166944,27.370153 9.214808,27.233434 Z M12.236299,27.11721 C12.434567,27.096716 12.619084,27.185569 12.639645,27.315412 C12.660139,27.45213 12.523421,27.582039 12.325153,27.629904 C12.120075,27.677769 11.942368,27.588849 11.921873,27.45213 C11.901312,27.294917 12.038031,27.165075 12.236299,27.11721 Z M16.734322,0.921947 C26.215758,0.921947 33.906169,8.120158 33.906169,17.601594 C33.906169,25.182658 29.271428,31.669907 22.435507,33.939446 C21.567331,34.096659 21.252906,33.556661 21.252906,33.112326 C21.252906,32.551767 21.2734,29.701175 21.2734,27.397456 C21.2734,25.791015 20.740212,24.765627 20.111294,24.225629 C23.932533,23.794912 27.958918,23.2686 27.958918,16.671936 C27.958918,14.798867 27.289011,13.855523 26.195263,12.645552 C26.372971,12.201217 26.954024,10.376012 26.017489,8.003934 C24.588822,7.55279 21.300704,9.849633 21.300704,9.849633 C19.93352,9.466848 18.463796,9.26858 17.007759,9.26858 C15.551721,9.26858 14.081998,9.466848 12.714813,9.849633 C12.714813,9.849633 9.426762,7.559599 7.998028,8.003934 C7.061493,10.369203 7.642547,12.201217 7.820321,12.645552 C6.726573,13.848647 6.207003,14.792058 6.207003,16.671936 C6.207003,23.248039 10.062489,23.801788 13.883729,24.225629 C13.391596,24.676773 12.947261,25.435533 12.789982,26.529281 C11.812458,26.980492 9.303662,27.739252 7.806635,25.100613 C6.870101,23.473677 5.16793,23.336959 5.16793,23.336959 C3.493129,23.316398 5.058582,24.389651 5.058582,24.389651 C6.179699,24.902345 6.958954,26.891638 6.958954,26.891638 C7.963848,29.954117 12.748993,28.928729 12.748993,28.928729 C12.748993,30.364273 12.769487,32.702171 12.769487,33.125945 C12.769487,33.57028 12.461871,34.110344 11.586886,33.953131 C4.77146,31.669907 0,25.182658 0,17.601594 C0,8.120158 7.252886,0.921947 16.734322,0.921947 Z M6.644529,24.499066 C6.733382,24.410145 6.890595,24.45801 7.00001,24.567425 C7.116167,24.697267 7.136728,24.85448 7.047808,24.922839 C6.958954,25.01176 6.801742,24.963895 6.692394,24.85448 C6.57617,24.724638 6.555675,24.567425 6.644529,24.499066 Z M5.906263,23.945316 C5.954061,23.876957 6.063475,23.856462 6.200194,23.897451 C6.336912,23.96581 6.405272,24.075225 6.357407,24.164079 C6.309542,24.259808 6.172823,24.280303 6.063475,24.211944 C5.926757,24.143584 5.858398,24.03417 5.906263,23.945316 Z M8.121061,26.378944 C8.209915,26.269529 8.414992,26.290024 8.565396,26.447303 C8.702114,26.577146 8.74317,26.782223 8.65425,26.871077 C8.565396,26.980492 8.367194,26.959997 8.209915,26.802718 C8.052702,26.672875 8.011713,26.467798 8.121061,26.378944 Z M7.341806,25.37405 C7.451154,25.285197 7.628861,25.353556 7.724591,25.510769 C7.833939,25.667981 7.833939,25.845689 7.724591,25.934609 C7.635737,26.002968 7.451154,25.934609 7.341806,25.777329 C7.232391,25.620117 7.232391,25.442409 7.341806,25.37405 Z" id="g"></path>
        </g>
    </g>
</svg>