<?xml version="1.0" encoding="UTF-8"?>
<svg width="34px" height="34px" viewBox="0 0 34 34" version="1.1" xmlns="http://www.w3.org/2000/svg" xmlns:xlink="http://www.w3.org/1999/xlink">
    <!-- Generator: Sketch 55.2 (78181) - https://sketchapp.com -->
    <title>g</title>
    <desc>Created with Sketch.</desc>
    <g id="Solid-2.0" stroke="none" stroke-width="1" fill="none" fill-rule="evenodd">
        <g id="Splash-Page---Light" transform="translate(-590.000000, -616.000000)" fill="#FFFFFF" fill-rule="nonzero">
            <path d="M601.34082,643.541051 C601.34082,643.677769 601.18354,643.787117 600.985339,643.787117 C600.759767,643.807611 600.602487,643.698263 600.602487,643.541051 C600.602487,643.404332 600.759767,643.294917 600.957968,643.294917 C601.163046,643.274423 601.34082,643.383771 601.34082,643.541051 Z M599.214808,643.233434 C599.262673,643.096716 599.460942,643.028356 599.638649,643.076155 C599.843727,643.137705 599.973636,643.294917 599.93258,643.431636 C599.891591,643.568354 599.686514,643.636713 599.50874,643.568354 C599.303662,643.527365 599.166944,643.370153 599.214808,643.233434 Z M602.236299,643.11721 C602.434567,643.096716 602.619084,643.185569 602.639645,643.315412 C602.660139,643.45213 602.523421,643.582039 602.325153,643.629904 C602.120075,643.677769 601.942368,643.588849 601.921873,643.45213 C601.901312,643.294917 602.038031,643.165075 602.236299,643.11721 Z M606.734322,616.921947 C616.215758,616.921947 623.906169,624.120158 623.906169,633.601594 C623.906169,641.182658 619.271428,647.669907 612.435507,649.939446 C611.567331,650.096659 611.252906,649.556661 611.252906,649.112326 C611.252906,648.551767 611.2734,645.701175 611.2734,643.397456 C611.2734,641.791015 610.740212,640.765627 610.111294,640.225629 C613.932533,639.794912 617.958918,639.2686 617.958918,632.671936 C617.958918,630.798867 617.289011,629.855523 616.195263,628.645552 C616.372971,628.201217 616.954024,626.376012 616.017489,624.003934 C614.588822,623.55279 611.300704,625.849633 611.300704,625.849633 C609.93352,625.466848 608.463796,625.26858 607.007759,625.26858 C605.551721,625.26858 604.081998,625.466848 602.714813,625.849633 C602.714813,625.849633 599.426762,623.559599 597.998028,624.003934 C597.061493,626.369203 597.642547,628.201217 597.820321,628.645552 C596.726573,629.848647 596.207003,630.792058 596.207003,632.671936 C596.207003,639.248039 600.062489,639.801788 603.883729,640.225629 C603.391596,640.676773 602.947261,641.435533 602.789982,642.529281 C601.812458,642.980492 599.303662,643.739252 597.806635,641.100613 C596.870101,639.473677 595.16793,639.336959 595.16793,639.336959 C593.493129,639.316398 595.058582,640.389651 595.058582,640.389651 C596.179699,640.902345 596.958954,642.891638 596.958954,642.891638 C597.963848,645.954117 602.748993,644.928729 602.748993,644.928729 C602.748993,646.364273 602.769487,648.702171 602.769487,649.125945 C602.769487,649.57028 602.461871,650.110344 601.586886,649.953131 C594.77146,647.669907 590,641.182658 590,633.601594 C590,624.120158 597.252886,616.921947 606.734322,616.921947 Z M596.644529,640.499066 C596.733382,640.410145 596.890595,640.45801 597.00001,640.567425 C597.116167,640.697267 597.136728,640.85448 597.047808,640.922839 C596.958954,641.01176 596.801742,640.963895 596.692394,640.85448 C596.57617,640.724638 596.555675,640.567425 596.644529,640.499066 Z M595.906263,639.945316 C595.954061,639.876957 596.063475,639.856462 596.200194,639.897451 C596.336912,639.96581 596.405272,640.075225 596.357407,640.164079 C596.309542,640.259808 596.172823,640.280303 596.063475,640.211944 C595.926757,640.143584 595.858398,640.03417 595.906263,639.945316 Z M598.121061,642.378944 C598.209915,642.269529 598.414992,642.290024 598.565396,642.447303 C598.702114,642.577146 598.74317,642.782223 598.65425,642.871077 C598.565396,642.980492 598.367194,642.959997 598.209915,642.802718 C598.052702,642.672875 598.011713,642.467798 598.121061,642.378944 Z M597.341806,641.37405 C597.451154,641.285197 597.628861,641.353556 597.724591,641.510769 C597.833939,641.667981 597.833939,641.845689 597.724591,641.934609 C597.635737,642.002968 597.451154,641.934609 597.341806,641.777329 C597.232391,641.620117 597.232391,641.442409 597.341806,641.37405 Z" id="g"></path>
        </g>
    </g>
</svg>