<?xml version="1.0" encoding="UTF-8"?>
<svg width="43px" height="38px" viewBox="0 0 43 38" version="1.1" xmlns="http://www.w3.org/2000/svg" xmlns:xlink="http://www.w3.org/1999/xlink">
    <!-- Generator: Sketch 55.2 (78181) - https://sketchapp.com -->
    <title>Group</title>
    <desc>Created with Sketch.</desc>
    <g id="Page-1" stroke="none" stroke-width="1" fill="none" fill-rule="evenodd">
        <g id="Group" transform="translate(1.008054, 1.019454)" fill-rule="nonzero" stroke="#FFFFFF">
            <polygon id="Polygon-Copy" stroke-width="1.97599998" stroke-linecap="round" stroke-linejoin="round" points="30.7777945 0 41 17.4693755 30.7230213 34.9679865 10.2222055 35 -5.689893e-16 17.5306245 10.2769787 0.0320134669"></polygon>
            <g id="profile" transform="translate(11.000000, 7.000000)" fill="#FFFFFF" stroke-width="0.949999988">
                <path d="M8.9919464,9.98054631 C11.7527005,9.98054631 13.9919464,7.73783186 13.9919464,4.97287556 C13.9919464,2.20791927 11.7526673,-0.0194536869 8.9919464,-0.0194536869 C6.23122546,-0.0194536869 3.9919464,2.22326077 3.9919464,4.97287556 C3.9919464,7.72249036 6.2311923,9.98054631 8.9919464,9.98054631 Z M8.9919464,1.28623396 C11.0164751,1.28623396 12.6729408,2.94520773 12.6729408,4.97287556 C12.6729408,7.00054339 11.0164751,8.65948397 8.9919464,8.65948397 C6.96741771,8.65948397 5.31095199,7.00051019 5.31095199,4.97284236 C5.31095199,2.94517453 6.96738455,1.28623396 8.9919464,1.28623396 Z" id="Shape"></path>
                <path d="M0.662711176,18.9805463 L18.3211816,18.9805463 C18.6955635,18.9805463 18.9919464,18.6863032 18.9919464,18.3146242 C18.9919464,14.830108 16.1372759,11.9805463 12.6118069,11.9805463 L6.3720859,11.9805463 C2.86223019,11.9805463 -0.00805360461,14.8146074 -0.00805360461,18.3146242 C-0.00805360461,18.6863032 0.288329265,18.9805463 0.662711176,18.9805463 Z M6.3720859,13.3123907 L12.6118069,13.3123907 C15.1700945,13.3123907 17.2760011,15.201787 17.6036107,17.6486686 L1.38028213,17.6486686 C1.70785787,15.2172876 3.81379826,13.3123907 6.3720859,13.3123907 Z" id="Shape"></path>
            </g>
        </g>
    </g>
</svg>