<?xml version="1.0" encoding="UTF-8"?>
<svg width="25px" height="34px" viewBox="0 0 25 34" version="1.1" xmlns="http://www.w3.org/2000/svg" xmlns:xlink="http://www.w3.org/1999/xlink">
    <!-- Generator: Sketch 55.2 (78181) - https://sketchapp.com -->
    <title>tutorial</title>
    <desc>Created with Sketch.</desc>
    <g id="Page-1" stroke="none" stroke-width="1" fill="none" fill-rule="evenodd">
        <g id="tutorial" fill="#FFFFFF" fill-rule="nonzero">
            <path d="M8.21615854,19.018776 C8.07940164,19.1582032 7.85808562,19.1582032 7.73436227,19.018776 L5.31902312,16.5351562 C5.18226622,16.3957291 5.18226622,16.169922 5.31902312,16.0304947 L6.14585875,15.1937371 C6.28255207,15.0543099 6.50393167,15.0543099 6.64062498,15.1937371 L7.98174539,16.5816536 L11.0807419,13.4472656 C11.2174352,13.3078385 11.4388148,13.3078385 11.5755081,13.4472656 L12.3958587,14.290638 C12.5325521,14.4300652 12.5325521,14.6558724 12.3958587,14.7952996 L8.21615854,19.018776 Z M21.8749999,4.25000001 C23.6002604,4.25000001 25,5.67773439 25,7.43750002 L25,30.8125 C25,32.5722657 23.6002604,34 21.8749999,34 L3.125,34 C1.39973959,34 0,32.5722657 0,30.8125 L0,7.43750002 C0,5.67773439 1.39973959,4.25000001 3.125,4.25000001 L8.33333331,4.25000001 C8.33333331,1.90587235 10.2018356,0 12.5,0 C14.7981643,0 16.6666666,1.90587235 16.6666666,4.25000001 L21.8749999,4.25000001 Z M12.5,3.1875 C11.927096,3.1875 11.4583333,3.66563798 11.4583333,4.25000001 C11.4583333,4.83436203 11.927096,5.31250001 12.5,5.31250001 C13.0729039,5.31250001 13.5416666,4.83436203 13.5416666,4.25000001 C13.5416666,3.66563798 13.0729039,3.1875 12.5,3.1875 Z M21.8749999,30.28125 L21.8749999,7.96875001 C21.8749999,7.67653658 21.6406503,7.43750002 21.3541666,7.43750002 L18.7499999,7.43750002 L18.7499999,9.56250002 C18.7499999,10.1468621 18.2812372,10.625 17.7083333,10.625 L7.29166665,10.625 C6.7187627,10.625 6.24999998,10.1468621 6.24999998,9.56250002 L6.24999998,7.43750002 L3.64583333,7.43750002 C3.35934957,7.43750002 3.125,7.67653658 3.125,7.96875001 L3.125,30.28125 C3.125,30.5734635 3.35934957,30.8125 3.64583333,30.8125 L21.3541666,30.8125 C21.6406503,30.8125 21.8749999,30.5734635 21.8749999,30.28125 Z M7.29166665,21.78125 C8.15753936,21.78125 8.85416665,22.4918099 8.85416665,23.375 C8.85416665,24.2581902 8.15753936,24.9687501 7.29166665,24.9687501 C6.42579395,24.9687501 5.72916666,24.2581902 5.72916666,23.375 C5.72916666,22.4918099 6.42579395,21.78125 7.29166665,21.78125 Z M18.2291666,15.9375 C18.5156504,15.9375 18.7499999,16.1765366 18.7499999,16.4687501 L18.7499999,17.53125 C18.7499999,17.8234635 18.5156504,18.0625 18.2291666,18.0625 L12.1224085,18.0625 L13.8671875,16.3027343 C13.9713287,16.1965103 14.0234629,16.0570183 14.1080856,15.9375 L18.2291666,15.9375 Z M18.2291666,22.3125 C18.5156504,22.3125 18.7499999,22.5515365 18.7499999,22.84375 L18.7499999,23.90625 C18.7499999,24.1984634 18.5156504,24.4375001 18.2291666,24.4375001 L10.9375,24.4375001 C10.6510162,24.4375001 10.4166666,24.1984634 10.4166666,23.90625 L10.4166666,22.84375 C10.4166666,22.5515365 10.6510162,22.3125 10.9375,22.3125 L18.2291666,22.3125 Z" id="c"></path>
        </g>
    </g>
</svg>