<svg xmlns="http://www.w3.org/2000/svg" xmlns:xlink="http://www.w3.org/1999/xlink" xmlns:lucid="lucid" width="1686" height="601.89"><g transform="translate(-20 -360)" lucid:page-tab-id="9BLXd..bGnp9"><path d="M319.75 399.75c0 10.9-8.84 19.75-19.75 19.75-10.9 0-19.75-8.84-19.75-19.75 0-10.9 8.84-19.75 19.75-19.75 10.9 0 19.75 8.84 19.75 19.75z" stroke="#000" stroke-width="2" fill="#fff"/><path d="M300 419.5v55.3l40 63.2m-40-63.2L260 538m0-98.75h80" stroke="#000" stroke-width="2" fill="none"/><path d="M260 380h80v180h-80z" fill="none"/><use xlink:href="#a" transform="matrix(1,0,0,1,180,538) translate(50.75 14.4)"/><use xlink:href="#b" transform="matrix(1,0,0,1,180,538) translate(134.3 14.4)"/><use xlink:href="#c" transform="matrix(1,0,0,1,180,538) translate(99.55 36)"/><path d="M302 470h58.5M302.03 470H298" stroke="#000" stroke-width="2" fill="none"/><path d="M375.76 470l-14.26 4.64v-9.28z" stroke="#000" stroke-width="2"/><path d="M1606 620.34l80 79.1-80 79.1-80-79.1z" stroke="#000" stroke-width="2" fill="#fff"/><use xlink:href="#d" transform="matrix(1,0,0,1,1531,625.3405783338497) translate(72.505 14.4)"/><use xlink:href="#e" transform="matrix(1,0,0,1,1531,625.3405783338497) translate(56.029999999999994 36)"/><use xlink:href="#f" transform="matrix(1,0,0,1,1531,625.3405783338497) translate(27.529999999999998 57.6)"/><use xlink:href="#g" transform="matrix(1,0,0,1,1531,625.3405783338497) translate(82.48 57.6)"/><use xlink:href="#h" transform="matrix(1,0,0,1,1531,625.3405783338497) translate(102.48 57.6)"/><use xlink:href="#i" transform="matrix(1,0,0,1,1531,625.3405783338497) translate(8.579999999999993 79.20000000000002)"/><use xlink:href="#g" transform="matrix(1,0,0,1,1531,625.3405783338497) translate(47.529999999999994 79.20000000000002)"/><use xlink:href="#j" transform="matrix(1,0,0,1,1531,625.3405783338497) translate(67.53 79.20000000000002)"/><use xlink:href="#k" transform="matrix(1,0,0,1,1531,625.3405783338497) translate(117.48 79.20000000000002)"/><use xlink:href="#l" transform="matrix(1,0,0,1,1531,625.3405783338497) translate(31.554999999999996 100.80000000000001)"/><path d="M1606 520.2v80.23M1606 520.23v-1.03" stroke="#000" stroke-width="2" fill="none"/><path d="M1606 615.7l-4.64-14.27h9.28z" stroke="#000" stroke-width="2"/><path d="M600 618.8h460v262.3H600z" stroke="#000" stroke-width="2" fill="#fff"/><path d="M700 618.8h240v40H700z" stroke="#000" stroke-opacity="0" stroke-width="2" fill="#fff" fill-opacity="0"/><use xlink:href="#m" transform="matrix(1,0,0,1,705,623.7874377784663) translate(63.075 18.15)"/><use xlink:href="#n" transform="matrix(1,0,0,1,705,623.7874377784663) translate(107.975 18.15)"/><use xlink:href="#o" transform="matrix(1,0,0,1,705,623.7874377784663) translate(136.925 18.15)"/><path d="M640 658.8h120v96.4H640z" stroke="#000" stroke-width="2" fill="#fff"/><use xlink:href="#p" transform="matrix(1,0,0,1,645,663.7874377784663) translate(8.149999999999999 36.15)"/><use xlink:href="#q" transform="matrix(1,0,0,1,645,663.7874377784663) translate(64.95 36.15)"/><use xlink:href="#r" transform="matrix(1,0,0,1,645,663.7874377784663) translate(23.574999999999996 57.75)"/><g transform="matrix(1,0,0,1,645,663.7874377784663)"><a xlink:href="https://solidproject.org/Build-on-Solid/vocabularies" target="_blank"><path class="lucid-link lucid-hotspot lucid-overlay-hotspot" fill-opacity="0" d="M8.15 21.75h56.8v21.6H8.15z"/></a><a xlink:href="https://solidproject.org/Build-on-Solid/vocabularies" target="_blank"><path class="lucid-link lucid-hotspot lucid-overlay-hotspot" fill-opacity="0" d="M64.95 21.75h41.9v21.6h-41.9z"/></a><a xlink:href="https://solidproject.org/Build-on-Solid/vocabularies" target="_blank"><path class="lucid-link lucid-hotspot lucid-overlay-hotspot" fill-opacity="0" d="M23.57 43.35h39.9v21.6h-39.9z"/></a><a xlink:href="https://solidproject.org/Build-on-Solid/vocabularies" target="_blank"><path class="lucid-link lucid-hotspot lucid-overlay-hotspot" fill-opacity="0" d="M63.48 43.35h22.95v21.6H63.48z"/></a></g><a xlink:href="https://www.lucidchart.com" target="_blank"><path d="M875.2 658.8h140v96.4h-140z" stroke="#000" stroke-width="2" fill="#fff"/><use xlink:href="#s" transform="matrix(1,0,0,1,880.1999999999998,663.7874377784661) translate(21.574999999999996 25.275)"/><use xlink:href="#t" transform="matrix(1,0,0,1,880.1999999999998,663.7874377784661) translate(58.525 25.275)"/><use xlink:href="#u" transform="matrix(1,0,0,1,880.1999999999998,663.7874377784661) translate(16.125 46.875)"/><use xlink:href="#v" transform="matrix(1,0,0,1,880.1999999999998,663.7874377784661) translate(83.875 46.875)"/><use xlink:href="#w" transform="matrix(1,0,0,1,880.1999999999998,663.7874377784661) translate(46.025 68.47500000000001)"/><path class="lucid-link lucid-hotspot lucid-overlay-hotspot" d="M875.2 658.8h140v96.4h-140z" fill="none"/></a><g transform="matrix(1,0,0,1,880.1999999999998,663.7874377784661)"><a xlink:href="https://solidproject.org/Build-on-Solid/vocabularies" target="_blank"><path class="lucid-link lucid-hotspot lucid-overlay-hotspot" fill-opacity="0" d="M21.57 10.88h21.95v21.6H21.57z"/></a><a xlink:href="https://solidproject.org/Build-on-Solid/vocabularies" target="_blank"><path class="lucid-link lucid-hotspot lucid-overlay-hotspot" fill-opacity="0" d="M43.52 10.88h10v21.6h-10z"/></a><a xlink:href="https://solidproject.org/Build-on-Solid/vocabularies" target="_blank"><path class="lucid-link lucid-hotspot lucid-overlay-hotspot" fill-opacity="0" d="M53.52 10.88h5v21.6h-5z"/></a><a xlink:href="https://solidproject.org/Build-on-Solid/vocabularies" target="_blank"><path class="lucid-link lucid-hotspot lucid-overlay-hotspot" fill-opacity="0" d="M58.52 10.88h54.9v21.6h-54.9z"/></a><a xlink:href="https://solidproject.org/Build-on-Solid/vocabularies" target="_blank"><path class="lucid-link lucid-hotspot lucid-overlay-hotspot" fill-opacity="0" d="M16.13 32.48h33.85v21.6H16.13z"/></a><a xlink:href="https://solidproject.org/Build-on-Solid/vocabularies" target="_blank"><path class="lucid-link lucid-hotspot lucid-overlay-hotspot" fill-opacity="0" d="M49.97 32.48h33.9v21.6h-33.9z"/></a><a xlink:href="https://solidproject.org/Build-on-Solid/vocabularies" target="_blank"><path class="lucid-link lucid-hotspot lucid-overlay-hotspot" fill-opacity="0" d="M83.88 32.48h35v21.6h-35z"/></a><a xlink:href="https://solidproject.org/Build-on-Solid/vocabularies" target="_blank"><path class="lucid-link lucid-hotspot lucid-overlay-hotspot" fill-opacity="0" d="M46.02 54.08h25v21.6h-25z"/></a><a xlink:href="https://solidproject.org/Build-on-Solid/vocabularies" target="_blank"><path class="lucid-link lucid-hotspot lucid-overlay-hotspot" fill-opacity="0" d="M71.03 54.08h12.95v21.6H71.03z"/></a></g><path d="M320 590.6h160V687H320z" stroke="#000" stroke-width="2" fill="#fff"/><use xlink:href="#x" transform="matrix(1,0,0,1,325,595.5874377784662) translate(27.049999999999997 47.025)"/><use xlink:href="#y" transform="matrix(1,0,0,1,325,595.5874377784662) translate(64 47.025)"/><use xlink:href="#z" transform="matrix(1,0,0,1,325,595.5874377784662) translate(92.95 47.025)"/><g transform="matrix(1,0,0,1,325,595.5874377784662)"><a xlink:href="https://solidproject.org/Build/apps" target="_blank"><path class="lucid-link lucid-hotspot lucid-overlay-hotspot" fill-opacity="0" d="M27.05 32.63H59v21.6H27.05z"/></a><a xlink:href="https://solidproject.org/Build/apps" target="_blank"><path class="lucid-link lucid-hotspot lucid-overlay-hotspot" fill-opacity="0" d="M59 32.63h5v21.6h-5z"/></a><a xlink:href="https://solidproject.org/Build/apps" target="_blank"><path class="lucid-link lucid-hotspot lucid-overlay-hotspot" fill-opacity="0" d="M64 32.63h28.95v21.6H64z"/></a><a xlink:href="https://solidproject.org/Build/apps" target="_blank"><path class="lucid-link lucid-hotspot lucid-overlay-hotspot" fill-opacity="0" d="M92.95 32.63h30v21.6h-30z"/></a></g><path d="M598 749.94h-58V638.8h-40.5" stroke="#000" stroke-width="2" fill="none"/><path d="M599 750.94h-1.03v-2H599z"/><path d="M484.24 638.8l14.26-4.65v9.27z" stroke="#000" stroke-width="2"/><path d="M760 772.9h120v96.4H760z" stroke="#000" stroke-width="2" fill="#fff"/><use xlink:href="#A" transform="matrix(1,0,0,1,765,777.8874377784663) translate(21.025 47.025)"/><use xlink:href="#B" transform="matrix(1,0,0,1,765,777.8874377784663) translate(55.025 47.025)"/><g transform="matrix(1,0,0,1,765,777.8874377784663)"><a xlink:href="https://solidproject.org/Build-on-Solid/vocabularies" target="_blank"><path class="lucid-link lucid-hotspot lucid-overlay-hotspot" fill-opacity="0" d="M21.02 32.63h34v21.6h-34z"/></a><a xlink:href="https://solidproject.org/Build-on-Solid/vocabularies" target="_blank"><path class="lucid-link lucid-hotspot lucid-overlay-hotspot" fill-opacity="0" d="M55.02 32.63h20v21.6h-20z"/></a><a xlink:href="https://solidproject.org/Build-on-Solid/vocabularies" target="_blank"><path class="lucid-link lucid-hotspot lucid-overlay-hotspot" fill-opacity="0" d="M75.03 32.63h13.95v21.6H75.03z"/></a></g><path d="M1523.58 699.44H1379.5" stroke="#000" stroke-width="2" fill="none"/><path d="M1524.58 699.44l1 1h-2.03v-2h2.04z"/><path d="M1364.24 699.44l14.27-4.63v9.28z" stroke="#000" stroke-width="2"/><use xlink:href="#C" transform="matrix(1,0,0,1,1503.0276695792077,673.8405783338499) translate(0 14.4)"/><path d="M99.75 599.75c0 10.9-8.84 19.75-19.75 19.75-10.9 0-19.75-8.84-19.75-19.75C60.25 588.85 69.1 580 80 580c10.9 0 19.75 8.84 19.75 19.75z" stroke="#000" stroke-width="2" fill="#fff"/><path d="M80 619.5v55.3l40 63.2m-40-63.2L40 738m0-98.75h80" stroke="#000" stroke-width="2" fill="none"/><path d="M40 580h80v180H40z" fill="none"/><path d="M318 638.8H200V470h80.5" stroke="#000" stroke-width="2" fill="none"/><path d="M319 639.8h-1.03v-2H319z"/><path d="M295.76 470l-14.26 4.64v-9.28z" stroke="#000" stroke-width="2"/><path d="M320 761.1h160v120H320z" stroke="#000" stroke-width="2" fill="#fff"/><use xlink:href="#D" transform="matrix(1,0,0,1,325,766.0937188892332) translate(13.574999999999996 59.0875)"/><use xlink:href="#n" transform="matrix(1,0,0,1,325,766.0937188892332) translate(77.475 59.0875)"/><use xlink:href="#o" transform="matrix(1,0,0,1,325,766.0937188892332) translate(106.42500000000001 59.0875)"/><path d="M762 707h93.7" stroke="#000" stroke-width="2" fill="none"/><path d="M762.03 708H761v-2h1.03z"/><path d="M870.96 707l-14.26 4.62v-9.27z" stroke="#000" stroke-width="2"/><path d="M945.2 757.2v63.9h-45.7" stroke="#000" stroke-width="2" fill="none"/><path d="M946.2 757.2h-2v-1h2z"/><path d="M884.24 821.1l14.26-4.65v9.27z" stroke="#000" stroke-width="2"/><path d="M758 821.1h-58v-46.4" stroke="#000" stroke-width="2" fill="none"/><path d="M759 822.1h-1.03v-2H759z"/><path d="M700 759.42l4.64 14.27h-9.28z" stroke="#000" stroke-width="2"/><path d="M598 749.94h-58v71.15h-40.5" stroke="#000" stroke-width="2" fill="none"/><path d="M599 750.94h-1.03v-2H599z"/><path d="M484.24 821.1l14.26-4.64v9.27z" stroke="#000" stroke-width="2"/><path d="M318 821.1h-98V717.7h-80.5" stroke="#000" stroke-width="2" fill="none"/><path d="M319 822.1h-1.03v-2H319z"/><path d="M124.24 717.7l14.26-4.64v9.27z" stroke="#000" stroke-width="2"/><path d="M119.75 627.44c0 10.9-8.84 19.75-19.75 19.75-10.9 0-19.75-8.85-19.75-19.76 0-10.9 8.84-19.75 19.75-19.75 10.9 0 19.75 8.84 19.75 19.74z" stroke="#000" stroke-width="2" fill="#fff"/><path d="M100 647.2v55.3l40 63.2m-40-63.2l-40 63.2m0-98.76h80" stroke="#000" stroke-width="2" fill="none"/><path d="M60 607.7h80v180H60z" fill="none"/><path d="M139.75 647.44c0 10.9-8.84 19.75-19.75 19.75-10.9 0-19.75-8.85-19.75-19.76 0-10.9 8.84-19.75 19.75-19.75 10.9 0 19.75 8.84 19.75 19.74z" stroke="#000" stroke-width="2" fill="#fff"/><path d="M120 667.2v55.3l40 63.2m-40-63.2l-40 63.2m0-98.76h80" stroke="#000" stroke-width="2" fill="none"/><path d="M80 627.7h80v180H80z" fill="none"/><use xlink:href="#a" transform="matrix(1,0,0,1,0,785.6937188892331) translate(50.75 14.4)"/><use xlink:href="#b" transform="matrix(1,0,0,1,0,785.6937188892331) translate(134.3 14.4)"/><use xlink:href="#E" transform="matrix(1,0,0,1,0,785.6937188892331) translate(84.55 36)"/><path d="M1606 780.95v81.84h-40.5" stroke="#000" stroke-width="2" fill="none"/><path d="M1606 779.95l1-1v2.02h-2v-2z"/><path d="M1550.24 862.8l14.26-4.64v9.27z" stroke="#000" stroke-width="2"/><use xlink:href="#F" transform="matrix(1,0,0,1,1613.9999999999998,784.7370890428742) translate(0 14.4)"/><a xlink:href="https://www.lucidchart.com" target="_blank"><path d="M1200 783.7h346v158.2h-346z" stroke="#000" stroke-width="2" fill="#fff"/><path class="lucid-link lucid-hotspot lucid-overlay-hotspot" d="M1200 783.7h346v158.2h-346z" fill="none"/></a><path d="M1340 781.7v-41.1" stroke="#000" stroke-width="2" fill="none"/><path d="M1341 782.7h-2v-1.03h2z"/><path d="M1340 725.33l4.64 14.27h-9.28z" stroke="#000" stroke-width="2"/><path d="M1360 699.44c0 11.96-8.95 21.65-20 21.65s-20-9.7-20-21.66 8.95-21.65 20-21.65 20 9.68 20 21.64z" stroke="#000" stroke-width="2" fill="#fff"/><path d="M1339 551.5v62.14h1v44.64" stroke="#000" stroke-width="2" fill="none"/><path d="M1339 550.5l1-.98v2h-2v-2z"/><path d="M1340 673.55l-4.64-14.27h9.28z" stroke="#000" stroke-width="2"/><use xlink:href="#F" transform="matrix(1,0,0,1,1347,568.059952863488) translate(0 14.4)"/><path d="M1318 699.44h-238.5" stroke="#000" stroke-width="2" fill="none"/><path d="M1319 699.43l.1 1h-1.13v-2h1.14z"/><path d="M1064.24 699.44l14.26-4.63v9.28z" stroke="#000" stroke-width="2"/><path d="M380 421.8h160v96.4H380z" stroke="#000" stroke-width="2" fill="#fff"/><use xlink:href="#G" transform="matrix(1,0,0,1,385,426.79999999999995) translate(4.549999999999997 47.025)"/><use xlink:href="#H" transform="matrix(1,0,0,1,385,426.79999999999995) translate(51.5 47.025)"/><use xlink:href="#I" transform="matrix(1,0,0,1,385,426.79999999999995) translate(76.5 47.025)"/><use xlink:href="#J" transform="matrix(1,0,0,1,385,426.79999999999995) translate(111.5 47.025)"/><g transform="matrix(1,0,0,1,385,426.79999999999995)"><a xlink:href="https://forum.solidproject.org/t/what-app-would-you-love-to-see-on-solid/525/39" target="_blank"><path class="lucid-link lucid-hotspot lucid-overlay-hotspot" fill-opacity="0" d="M76.5 32.63h35v21.6h-35z"/></a><a xlink:href="https://forum.solidproject.org/t/what-app-would-you-love-to-see-on-solid/525/39" target="_blank"><path class="lucid-link lucid-hotspot lucid-overlay-hotspot" fill-opacity="0" d="M111.5 32.63h33.95v21.6H111.5z"/></a></g><path d="M542 470h38.5" stroke="#000" stroke-width="2" fill="none"/><path d="M542.03 471H541v-2h1.03z"/><path d="M595.76 470l-14.26 4.64v-9.28z" stroke="#000" stroke-width="2"/><path d="M600 421.8h160v96.4H600z" stroke="#000" stroke-width="2" fill="#fff"/><use xlink:href="#K" transform="matrix(1,0,0,1,605,426.79999999999995) translate(11.124999999999993 25.275)"/><use xlink:href="#L" transform="matrix(1,0,0,1,605,426.79999999999995) translate(106.975 25.275)"/><use xlink:href="#M" transform="matrix(1,0,0,1,605,426.79999999999995) translate(28.049999999999997 46.875)"/><use xlink:href="#N" transform="matrix(1,0,0,1,605,426.79999999999995) translate(58.05 46.875)"/><use xlink:href="#O" transform="matrix(1,0,0,1,605,426.79999999999995) translate(91.94999999999999 46.875)"/><use xlink:href="#P" transform="matrix(1,0,0,1,605,426.79999999999995) translate(48.074999999999996 68.47500000000001)"/><g transform="matrix(1,0,0,1,605,426.79999999999995)"><a xlink:href="https://solidproject.org/implement/apps/first-app" target="_blank"><path class="lucid-link lucid-hotspot lucid-overlay-hotspot" fill-opacity="0" d="M58.05 32.48h33.9v21.6h-33.9z"/></a><a xlink:href="https://solidproject.org/implement/apps/first-app" target="_blank"><path class="lucid-link lucid-hotspot lucid-overlay-hotspot" fill-opacity="0" d="M91.95 32.48h35v21.6h-35z"/></a><a xlink:href="https://solidproject.org/implement/apps/first-app" target="_blank"><path class="lucid-link lucid-hotspot lucid-overlay-hotspot" fill-opacity="0" d="M48.07 54.08h53.85v21.6H48.07z"/></a></g><path d="M1253 769.3h240v60h-240z" stroke="#000" stroke-opacity="0" stroke-width="2" fill="#fff" fill-opacity="0"/><use xlink:href="#Q" transform="matrix(1,0,0,1,1258,774.2937188892332) translate(18.299999999999983 30.025)"/><use xlink:href="#R" transform="matrix(1,0,0,1,1258,774.2937188892332) translate(82.19999999999999 30.025)"/><use xlink:href="#S" transform="matrix(1,0,0,1,1258,774.2937188892332) translate(111.14999999999999 30.025)"/><g transform="matrix(1,0,0,1,1258,774.2937188892332)"><a xlink:href="https://solidproject.org/implement/apps/vocabularies/4-publish" target="_blank"><path class="lucid-link lucid-hotspot lucid-overlay-hotspot" fill-opacity="0" d="M18.3 15.63h58.9v21.6H18.3z"/></a><a xlink:href="https://solidproject.org/implement/apps/vocabularies/4-publish" target="_blank"><path class="lucid-link lucid-hotspot lucid-overlay-hotspot" fill-opacity="0" d="M77.2 15.63h5v21.6h-5z"/></a><a xlink:href="https://solidproject.org/implement/apps/vocabularies/4-publish" target="_blank"><path class="lucid-link lucid-hotspot lucid-overlay-hotspot" fill-opacity="0" d="M82.2 15.63h28.95v21.6H82.2z"/></a><a xlink:href="https://solidproject.org/implement/apps/vocabularies/4-publish" target="_blank"><path class="lucid-link lucid-hotspot lucid-overlay-hotspot" fill-opacity="0" d="M111.15 15.63H211.7v21.6H111.15z"/></a></g><path d="M1219 821.6h120V918h-120z" stroke="#000" stroke-width="2" fill="#fff"/><use xlink:href="#T" transform="matrix(1,0,0,1,1224,826.6000000000001) translate(23.575 47.025)"/><use xlink:href="#U" transform="matrix(1,0,0,1,1224,826.6000000000001) translate(49.575 47.025)"/><g transform="matrix(1,0,0,1,1224,826.6000000000001)"><a xlink:href="https://solidproject.org/implement/apps/vocabularies/4.1-publish-rdf" target="_blank"><path class="lucid-link lucid-hotspot lucid-overlay-hotspot" fill-opacity="0" d="M23.57 32.63h26v21.6h-26z"/></a><a xlink:href="https://solidproject.org/implement/apps/vocabularies/4.1-publish-rdf" target="_blank"><path class="lucid-link lucid-hotspot lucid-overlay-hotspot" fill-opacity="0" d="M49.58 32.63h36.85v21.6H49.58z"/></a></g><path d="M1400 821.6h120V918h-120z" stroke="#000" stroke-width="2" fill="#fff"/><g><use xlink:href="#V" transform="matrix(1,0,0,1,1405,826.6000000000001) translate(22.5 36.15)"/><use xlink:href="#W" transform="matrix(1,0,0,1,1405,826.6000000000001) translate(48.5 36.15)"/><use xlink:href="#X" transform="matrix(1,0,0,1,1405,826.6000000000001) translate(23.55 57.75)"/></g><g transform="matrix(1,0,0,1,1405,826.6000000000001)"><a xlink:href="https://solidproject.org/Build-on-Solid/vocabularies" target="_blank"><path class="lucid-link lucid-hotspot lucid-overlay-hotspot" fill-opacity="0" d="M22.5 21.75h26v21.6h-26z"/></a><a xlink:href="https://solidproject.org/build/apps/vocabularies/4-2-publish-artifacts" target="_blank"><path class="lucid-link lucid-hotspot lucid-overlay-hotspot" fill-opacity="0" d="M48.5 21.75h44v21.6h-44z"/></a><a xlink:href="https://solidproject.org/build/apps/vocabularies/4-2-publish-artifacts" target="_blank"><path class="lucid-link lucid-hotspot lucid-overlay-hotspot" fill-opacity="0" d="M23.55 43.35h62.9v21.6h-62.9z"/></a></g><path d="M799 380h420v150H799z" stroke="#000" stroke-width="2" fill="#fff"/><path d="M839 421.8h120v96.4H839z" stroke="#000" stroke-width="2" fill="#fff"/><g><use xlink:href="#Y" transform="matrix(1,0,0,1,844,426.8) translate(2.5749999999999957 14.4)"/><use xlink:href="#Z" transform="matrix(1,0,0,1,844,426.8) translate(82.42500000000001 14.4)"/><use xlink:href="#aa" transform="matrix(1,0,0,1,844,426.8) translate(10.624999999999993 36)"/><use xlink:href="#ab" transform="matrix(1,0,0,1,844,426.8) translate(4.574999999999996 57.6)"/><use xlink:href="#ac" transform="matrix(1,0,0,1,844,426.8) translate(22.075000000000003 79.20000000000002)"/><use xlink:href="#ad" transform="matrix(1,0,0,1,844,426.8) translate(48.025000000000006 79.20000000000002)"/></g><g transform="matrix(1,0,0,1,844,426.8)"><a xlink:href="https://solidproject.org/implement/apps/vocabularies/1-well-known" target="_blank"><path class="lucid-link lucid-hotspot lucid-overlay-hotspot" fill-opacity="0" d="M10.62 21.6h93.75v21.6H10.62z"/></a><a xlink:href="https://solidproject.org/implement/apps/vocabularies/1-well-known" target="_blank"><path class="lucid-link lucid-hotspot lucid-overlay-hotspot" fill-opacity="0" d="M4.57 43.2h100.85v21.6H4.57z"/></a></g><path d="M1079 421.8h120v96.4h-120z" stroke="#000" stroke-width="2" fill="#fff"/><g><use xlink:href="#ae" transform="matrix(1,0,0,1,1084,426.8) translate(8.099999999999994 25.275)"/><use xlink:href="#af" transform="matrix(1,0,0,1,1084,426.8) translate(38.525 46.875)"/><use xlink:href="#ag" transform="matrix(1,0,0,1,1084,426.8) translate(4.574999999999996 68.47500000000001)"/></g><g transform="matrix(1,0,0,1,1084,426.8)"><a xlink:href="https://solidproject.org/implement/apps/vocabularies/2-discover" target="_blank"><path class="lucid-link lucid-hotspot lucid-overlay-hotspot" fill-opacity="0" d="M8.1 10.88h93.8v21.6H8.1z"/></a></g><path d="M899 380h240v60H899z" stroke="#000" stroke-opacity="0" stroke-width="2" fill="#fff" fill-opacity="0"/><g><use xlink:href="#ah" transform="matrix(1,0,0,1,904,385) translate(9.599999999999994 17.525)"/><use xlink:href="#ai" transform="matrix(1,0,0,1,904,385) translate(43.599999999999994 17.525)"/><use xlink:href="#aj" transform="matrix(1,0,0,1,904,385) translate(73.6 17.525)"/><use xlink:href="#ak" transform="matrix(1,0,0,1,904,385) translate(113.5 17.525)"/><use xlink:href="#al" transform="matrix(1,0,0,1,904,385) translate(205.4 17.525)"/><use xlink:href="#am" transform="matrix(1,0,0,1,904,385) translate(61.05 39.125)"/><use xlink:href="#an" transform="matrix(1,0,0,1,904,385) translate(133.95 39.125)"/></g><g transform="matrix(1,0,0,1,904,385)"><a xlink:href="https://solidproject.org/implement/apps/vocabularies" target="_blank"><path class="lucid-link lucid-hotspot lucid-overlay-hotspot" fill-opacity="0" d="M9.6 3.13h34v21.6h-34z"/></a><a xlink:href="https://solidproject.org/implement/apps/vocabularies" target="_blank"><path class="lucid-link lucid-hotspot lucid-overlay-hotspot" fill-opacity="0" d="M43.6 3.13h30v21.6h-30z"/></a><a xlink:href="https://solidproject.org/implement/apps/vocabularies" target="_blank"><path class="lucid-link lucid-hotspot lucid-overlay-hotspot" fill-opacity="0" d="M73.6 3.13h39.9v21.6H73.6z"/></a><a xlink:href="https://solidproject.org/implement/apps/vocabularies" target="_blank"><path class="lucid-link lucid-hotspot lucid-overlay-hotspot" fill-opacity="0" d="M113.5 3.13h86.9v21.6h-86.9z"/></a></g><path d="M961 470h98.5" stroke="#000" stroke-width="2" fill="none"/><path d="M961.03 471H960v-2h1.03z"/><path d="M1074.76 470l-14.26 4.64v-9.28z" stroke="#000" stroke-width="2"/><path d="M1339 390.9l80 79.1-80 79.1-80-79.1z" stroke="#000" stroke-width="2" fill="#fff"/><g><use xlink:href="#ao" transform="matrix(1,0,0,1,1264,395.9) translate(59.529999999999994 33.025)"/><use xlink:href="#ap" transform="matrix(1,0,0,1,1264,395.9) translate(24.579999999999995 58.41)"/><use xlink:href="#aq" transform="matrix(1,0,0,1,1264,395.9) translate(8.555000000000001 80.01)"/><use xlink:href="#ar" transform="matrix(1,0,0,1,1264,395.9) translate(18.555 80.01)"/><use xlink:href="#as" transform="matrix(1,0,0,1,1264,395.9) translate(68.55499999999999 80.01)"/><use xlink:href="#k" transform="matrix(1,0,0,1,1264,395.9) translate(117.505 80.01)"/><use xlink:href="#at" transform="matrix(1,0,0,1,1264,395.9) translate(34.504999999999995 101.61000000000001)"/><use xlink:href="#au" transform="matrix(1,0,0,1,1264,395.9) translate(68.505 101.61000000000001)"/></g><path d="M1201 470h28.3v-1h10.8" stroke="#000" stroke-width="2" fill="none"/><path d="M1201.03 471H1200v-2h1.03z"/><path d="M1255.35 469l-14.26 4.64v-9.28z" stroke="#000" stroke-width="2"/><path d="M1470.74 471h-49.32v-2h49.32zm54.76 0h-31.8v-2h31.8z"/><path d="M1421.45 471h-2.04l1.02-1-1-1h2.03zM1540.76 470l-14.26 4.64v-9.28z"/><path d="M1544 470l-18.5 6v-12zm-16.5 3.26l10.03-3.26-10.03-3.26z"/><g><use xlink:href="#C" transform="matrix(1,0,0,1,1470.7361408904005,459.2) translate(0 14.4)"/></g><path d="M1545 421.8h140v96.4h-140z" stroke="#000" stroke-width="2" fill="#fff"/><g><use xlink:href="#av" transform="matrix(1,0,0,1,1550,426.79999999999995) translate(4.599999999999994 36.15)"/><use xlink:href="#aw" transform="matrix(1,0,0,1,1550,426.79999999999995) translate(63.5 36.15)"/><use xlink:href="#ax" transform="matrix(1,0,0,1,1550,426.79999999999995) translate(92.45 36.15)"/><use xlink:href="#ay" transform="matrix(1,0,0,1,1550,426.79999999999995) translate(21.549999999999997 57.75)"/></g><g transform="matrix(1,0,0,1,1550,426.79999999999995)"><a xlink:href="https://solidproject.org/implement/apps/vocabularies/3-build" target="_blank"><path class="lucid-link lucid-hotspot lucid-overlay-hotspot" fill-opacity="0" d="M4.6 21.75h58.9v21.6H4.6z"/></a><a xlink:href="https://solidproject.org/implement/apps/vocabularies/3-build" target="_blank"><path class="lucid-link lucid-hotspot lucid-overlay-hotspot" fill-opacity="0" d="M63.5 21.75h28.95v21.6H63.5z"/></a><a xlink:href="https://solidproject.org/implement/apps/vocabularies/3-build" target="_blank"><path class="lucid-link lucid-hotspot lucid-overlay-hotspot" fill-opacity="0" d="M92.45 21.75h37.95v21.6H92.45z"/></a><a xlink:href="https://solidproject.org/implement/apps/vocabularies/3-build" target="_blank"><path class="lucid-link lucid-hotspot lucid-overlay-hotspot" fill-opacity="0" d="M21.55 43.35h86.9v21.6h-86.9z"/></a></g><path d="M761 470h58.5M761.03 470H760" stroke="#000" stroke-width="2" fill="none"/><path d="M834.76 470l-14.26 4.64v-9.28z" stroke="#000" stroke-width="2"/><defs><path d="M205 0l-28-72H64L36 0H1l101-248h38L239 0h-34zm-38-99l-47-123c-12 45-31 82-46 123h93" id="az"/><path d="M206 0h-36l-40-164L89 0H53L-1-190h32L70-26l43-164h34l41 164 42-164h31" id="aA"/><path d="M100-194c63 0 86 42 84 106H49c0 40 14 67 53 68 26 1 43-12 49-29l28 8c-11 28-37 45-77 45C44 4 14-33 15-96c1-61 26-98 85-98zm52 81c6-60-76-77-97-28-3 7-6 17-6 28h103" id="aB"/><path d="M135-143c-3-34-86-38-87 0 15 53 115 12 119 90S17 21 10-45l28-5c4 36 97 45 98 0-10-56-113-15-118-90-4-57 82-63 122-42 12 7 21 19 24 35" id="aC"/><path d="M100-194c62-1 85 37 85 99 1 63-27 99-86 99S16-35 15-95c0-66 28-99 85-99zM99-20c44 1 53-31 53-75 0-43-8-75-51-75s-53 32-53 75 10 74 51 75" id="aD"/><path d="M210-169c-67 3-38 105-44 169h-31v-121c0-29-5-50-35-48C34-165 62-65 56 0H25l-1-190h30c1 10-1 24 2 32 10-44 99-50 107 0 11-21 27-35 58-36 85-2 47 119 55 194h-31v-121c0-29-5-49-35-48" id="aE"/><g id="a"><use transform="matrix(0.05,0,0,0.05,0,0)" xlink:href="#az"/><use transform="matrix(0.05,0,0,0.05,11.65,0)" xlink:href="#aA"/><use transform="matrix(0.05,0,0,0.05,24.6,0)" xlink:href="#aB"/><use transform="matrix(0.05,0,0,0.05,34.6,0)" xlink:href="#aC"/><use transform="matrix(0.05,0,0,0.05,43.6,0)" xlink:href="#aD"/><use transform="matrix(0.05,0,0,0.05,53.6,0)" xlink:href="#aE"/><use transform="matrix(0.05,0,0,0.05,68.55,0)" xlink:href="#aB"/></g><path d="M115-194c55 1 70 41 70 98S169 2 115 4C84 4 66-9 55-30l1 105H24l-1-265h31l2 30c10-21 28-34 59-34zm-8 174c40 0 45-34 45-75s-6-73-45-74c-42 0-51 32-51 76 0 43 10 73 51 73" id="aF"/><path d="M114-163C36-179 61-72 57 0H25l-1-190h30c1 12-1 29 2 39 6-27 23-49 58-41v29" id="aG"/><path d="M117-194c89-4 53 116 60 194h-32v-121c0-31-8-49-39-48C34-167 62-67 57 0H25l-1-190h30c1 10-1 24 2 32 11-22 29-35 61-36" id="aH"/><g id="b"><use transform="matrix(0.05,0,0,0.05,0,0)" xlink:href="#aF"/><use transform="matrix(0.05,0,0,0.05,10,0)" xlink:href="#aB"/><use transform="matrix(0.05,0,0,0.05,20,0)" xlink:href="#aG"/><use transform="matrix(0.05,0,0,0.05,25.950000000000003,0)" xlink:href="#aC"/><use transform="matrix(0.05,0,0,0.05,34.95,0)" xlink:href="#aD"/><use transform="matrix(0.05,0,0,0.05,44.95,0)" xlink:href="#aH"/></g><path d="M87 75C49 33 22-17 22-94c0-76 28-126 65-167h31c-38 41-64 92-64 168S80 34 118 75H87" id="aI"/><path d="M179-190L93 31C79 59 56 82 12 73V49c39 6 53-20 64-50L1-190h34L92-34l54-156h33" id="aJ"/><path d="M84 4C-5 8 30-112 23-190h32v120c0 31 7 50 39 49 72-2 45-101 50-169h31l1 190h-30c-1-10 1-25-2-33-11 22-28 36-60 37" id="aK"/><path d="M33-261c38 41 65 92 65 168S71 34 33 75H2C39 34 66-17 66-93S39-220 2-261h31" id="aL"/><g id="c"><use transform="matrix(0.05,0,0,0.05,0,0)" xlink:href="#aI"/><use transform="matrix(0.05,0,0,0.05,5.95,0)" xlink:href="#aJ"/><use transform="matrix(0.05,0,0,0.05,14.949999999999998,0)" xlink:href="#aD"/><use transform="matrix(0.05,0,0,0.05,24.95,0)" xlink:href="#aK"/><use transform="matrix(0.05,0,0,0.05,34.95,0)" xlink:href="#aL"/></g><path d="M33 0v-248h34V0H33" id="aM"/><use transform="matrix(0.05,0,0,0.05,0,0)" xlink:href="#aM" id="d"/><path d="M141-36C126-15 110 5 73 4 37 3 15-17 15-53c-1-64 63-63 125-63 3-35-9-54-41-54-24 1-41 7-42 31l-33-3c5-37 33-52 76-52 45 0 72 20 72 64v82c-1 20 7 32 28 27v20c-31 9-61-2-59-35zM48-53c0 20 12 33 32 33 41-3 63-29 60-74-43 2-92-5-92 41" id="aN"/><path d="M59-47c-2 24 18 29 38 22v24C64 9 27 4 27-40v-127H5v-23h24l9-43h21v43h35v23H59v120" id="aO"/><g id="e"><use transform="matrix(0.05,0,0,0.05,0,0)" xlink:href="#aA"/><use transform="matrix(0.05,0,0,0.05,12.950000000000001,0)" xlink:href="#aN"/><use transform="matrix(0.05,0,0,0.05,22.950000000000003,0)" xlink:href="#aH"/><use transform="matrix(0.05,0,0,0.05,32.95,0)" xlink:href="#aO"/></g><path d="M106-169C34-169 62-67 57 0H25v-261h32l-1 103c12-21 28-36 61-36 89 0 53 116 60 194h-32v-121c2-32-8-49-39-48" id="aP"/><g id="f"><use transform="matrix(0.05,0,0,0.05,0,0)" xlink:href="#aD"/><use transform="matrix(0.05,0,0,0.05,10,0)" xlink:href="#aO"/><use transform="matrix(0.05,0,0,0.05,15,0)" xlink:href="#aP"/><use transform="matrix(0.05,0,0,0.05,25,0)" xlink:href="#aB"/><use transform="matrix(0.05,0,0,0.05,35,0)" xlink:href="#aG"/><use transform="matrix(0.05,0,0,0.05,40.95,0)" xlink:href="#aC"/></g><g id="g"><use transform="matrix(0.05,0,0,0.05,0,0)" xlink:href="#aO"/><use transform="matrix(0.05,0,0,0.05,5,0)" xlink:href="#aD"/></g><path d="M115-194c53 0 69 39 70 98 0 66-23 100-70 100C84 3 66-7 56-30L54 0H23l1-261h32v101c10-23 28-34 59-34zm-8 174c40 0 45-34 45-75 0-40-5-75-45-74-42 0-51 32-51 76 0 43 10 73 51 73" id="aQ"/><g id="h"><use transform="matrix(0.05,0,0,0.05,0,0)" xlink:href="#aQ"/><use transform="matrix(0.05,0,0,0.05,10,0)" xlink:href="#aB"/></g><path d="M24 0v-261h32V0H24" id="aR"/><g id="i"><use transform="matrix(0.05,0,0,0.05,0,0)" xlink:href="#aN"/><use transform="matrix(0.05,0,0,0.05,10,0)" xlink:href="#aQ"/><use transform="matrix(0.05,0,0,0.05,20,0)" xlink:href="#aR"/><use transform="matrix(0.05,0,0,0.05,23.95,0)" xlink:href="#aB"/></g><g id="j"><use transform="matrix(0.05,0,0,0.05,0,0)" xlink:href="#aG"/><use transform="matrix(0.05,0,0,0.05,5.95,0)" xlink:href="#aB"/><use transform="matrix(0.05,0,0,0.05,15.949999999999998,0)" xlink:href="#aK"/><use transform="matrix(0.05,0,0,0.05,25.950000000000003,0)" xlink:href="#aC"/><use transform="matrix(0.05,0,0,0.05,34.95,0)" xlink:href="#aB"/></g><g id="k"><use transform="matrix(0.05,0,0,0.05,0,0)" xlink:href="#aE"/><use transform="matrix(0.05,0,0,0.05,14.950000000000001,0)" xlink:href="#aJ"/></g><path d="M108 0H70L1-190h34L89-25l56-165h34" id="aS"/><path d="M96-169c-40 0-48 33-48 73s9 75 48 75c24 0 41-14 43-38l32 2c-6 37-31 61-74 61-59 0-76-41-82-99-10-93 101-131 147-64 4 7 5 14 7 22l-32 3c-4-21-16-35-41-35" id="aT"/><g id="l"><use transform="matrix(0.05,0,0,0.05,0,0)" xlink:href="#aS"/><use transform="matrix(0.05,0,0,0.05,9,0)" xlink:href="#aD"/><use transform="matrix(0.05,0,0,0.05,19,0)" xlink:href="#aT"/><use transform="matrix(0.05,0,0,0.05,28,0)" xlink:href="#aN"/><use transform="matrix(0.05,0,0,0.05,38,0)" xlink:href="#aQ"/><use transform="matrix(0.05,0,0,0.05,48,0)" xlink:href="#aK"/><use transform="matrix(0.05,0,0,0.05,58,0)" xlink:href="#aR"/><use transform="matrix(0.05,0,0,0.05,61.95,0)" xlink:href="#aN"/><use transform="matrix(0.05,0,0,0.05,71.95,0)" xlink:href="#aG"/><use transform="matrix(0.05,0,0,0.05,77.9,0)" xlink:href="#aJ"/></g><path d="M160-131c35 5 61 23 61 61C221 17 115-2 30 0v-248c76 3 177-17 177 60 0 33-19 50-47 57zm-97-11c50-1 110 9 110-42 0-47-63-36-110-37v79zm0 115c55-2 124 14 124-45 0-56-70-42-124-44v89" id="aU"/><path d="M24-231v-30h32v30H24zM24 0v-190h32V0H24" id="aV"/><path d="M85-194c31 0 48 13 60 33l-1-100h32l1 261h-30c-2-10 0-23-3-31C134-8 116 4 85 4 32 4 16-35 15-94c0-66 23-100 70-100zm9 24c-40 0-46 34-46 75 0 40 6 74 45 74 42 0 51-32 51-76 0-42-9-74-50-73" id="aW"/><g id="m"><use transform="matrix(0.05,0,0,0.05,0,0)" xlink:href="#aU"/><use transform="matrix(0.05,0,0,0.05,12,0)" xlink:href="#aK"/><use transform="matrix(0.05,0,0,0.05,22,0)" xlink:href="#aV"/><use transform="matrix(0.05,0,0,0.05,25.950000000000003,0)" xlink:href="#aR"/><use transform="matrix(0.05,0,0,0.05,29.899999999999995,0)" xlink:href="#aW"/></g><g id="n"><use transform="matrix(0.05,0,0,0.05,0,0)" xlink:href="#aE"/><use transform="matrix(0.05,0,0,0.05,14.950000000000001,0)" xlink:href="#aJ"/></g><g id="o"><use transform="matrix(0.05,0,0,0.05,0,0)" xlink:href="#aN"/><use transform="matrix(0.05,0,0,0.05,10,0)" xlink:href="#aF"/><use transform="matrix(0.05,0,0,0.05,20,0)" xlink:href="#aF"/></g><path d="M63-220v92h138v28H63V0H30v-248h175v28H63" id="aX"/><g id="p"><use transform="matrix(0.05,0,0,0.05,0,0)" xlink:href="#aX"/><use transform="matrix(0.05,0,0,0.05,10.950000000000001,0)" xlink:href="#aD"/><use transform="matrix(0.05,0,0,0.05,20.950000000000003,0)" xlink:href="#aR"/><use transform="matrix(0.05,0,0,0.05,24.900000000000002,0)" xlink:href="#aR"/><use transform="matrix(0.05,0,0,0.05,28.85,0)" xlink:href="#aD"/><use transform="matrix(0.05,0,0,0.05,38.85,0)" xlink:href="#aA"/><path fill="#8080ff" d="M-.9 1.25h58.6v1.32H-.9z"/></g><g id="q"><use transform="matrix(0.05,0,0,0.05,0,0)" xlink:href="#aC"/><use transform="matrix(0.05,0,0,0.05,9,0)" xlink:href="#aD"/><use transform="matrix(0.05,0,0,0.05,19,0)" xlink:href="#aR"/><use transform="matrix(0.05,0,0,0.05,22.95,0)" xlink:href="#aV"/><use transform="matrix(0.05,0,0,0.05,26.899999999999995,0)" xlink:href="#aW"/><path fill="#8080ff" d="M-.9 1.25h38.7v1.32H-.9z"/></g><g id="r"><use transform="matrix(0.05,0,0,0.05,0,0)" xlink:href="#aO"/><use transform="matrix(0.05,0,0,0.05,5,0)" xlink:href="#aK"/><use transform="matrix(0.05,0,0,0.05,15,0)" xlink:href="#aO"/><use transform="matrix(0.05,0,0,0.05,20,0)" xlink:href="#aD"/><use transform="matrix(0.05,0,0,0.05,30,0)" xlink:href="#aG"/><use transform="matrix(0.05,0,0,0.05,35.95,0)" xlink:href="#aV"/><path fill="#8080ff" d="M-.9 1.25h41.7v1.32H-.9z"/><use transform="matrix(0.05,0,0,0.05,39.900000000000006,0)" xlink:href="#aN"/><use transform="matrix(0.05,0,0,0.05,49.900000000000006,0)" xlink:href="#aR"/><use transform="matrix(0.05,0,0,0.05,53.85,0)" xlink:href="#aC"/><path fill="#8080ff" d="M39 1.25h24.75v1.32H39z"/></g><path d="M232-93c-1 65-40 97-104 97C67 4 28-28 28-90v-158h33c8 89-33 224 67 224 102 0 64-133 71-224h33v155" id="aY"/><g id="s"><use transform="matrix(0.05,0,0,0.05,0,0)" xlink:href="#aY"/><use transform="matrix(0.05,0,0,0.05,12.950000000000001,0)" xlink:href="#aC"/><path fill="#8080ff" d="M-.9 1.25h23.75v1.32H-.9z"/><use transform="matrix(0.05,0,0,0.05,21.950000000000003,0)" xlink:href="#aB"/><path fill="#8080ff" d="M21.05 1.25h11.8v1.32h-11.8z"/><path fill="#8080ff" d="M31.05 1.25h6.8v1.32h-6.8z"/></g><g id="t"><use transform="matrix(0.05,0,0,0.05,0,0)" xlink:href="#aP"/><use transform="matrix(0.05,0,0,0.05,10,0)" xlink:href="#aB"/><use transform="matrix(0.05,0,0,0.05,20,0)" xlink:href="#aR"/><use transform="matrix(0.05,0,0,0.05,23.95,0)" xlink:href="#aF"/><use transform="matrix(0.05,0,0,0.05,33.95,0)" xlink:href="#aB"/><use transform="matrix(0.05,0,0,0.05,43.95,0)" xlink:href="#aG"/><path fill="#8080ff" d="M-.9 1.25h51.7v1.32H-.9z"/></g><g id="u"><use transform="matrix(0.05,0,0,0.05,0,0)" xlink:href="#aR"/><use transform="matrix(0.05,0,0,0.05,3.95,0)" xlink:href="#aV"/><use transform="matrix(0.05,0,0,0.05,7.9,0)" xlink:href="#aQ"/><use transform="matrix(0.05,0,0,0.05,17.9,0)" xlink:href="#aG"/><use transform="matrix(0.05,0,0,0.05,23.849999999999998,0)" xlink:href="#aN"/><path fill="#8080ff" d="M-.9 1.25h35.65v1.32H-.9z"/><use transform="matrix(0.05,0,0,0.05,33.849999999999994,0)" xlink:href="#aG"/><use transform="matrix(0.05,0,0,0.05,39.8,0)" xlink:href="#aV"/><use transform="matrix(0.05,0,0,0.05,43.75,0)" xlink:href="#aB"/><use transform="matrix(0.05,0,0,0.05,53.75,0)" xlink:href="#aC"/><path fill="#8080ff" d="M32.95 1.25h35.7v1.32h-35.7z"/></g><g id="v"><use transform="matrix(0.05,0,0,0.05,0,0)" xlink:href="#aN"/><use transform="matrix(0.05,0,0,0.05,10,0)" xlink:href="#aH"/><use transform="matrix(0.05,0,0,0.05,20,0)" xlink:href="#aW"/><path fill="#8080ff" d="M-.9 1.25h31.8v1.32H-.9z"/></g><g id="w"><use transform="matrix(0.05,0,0,0.05,0,0)" xlink:href="#aO"/><use transform="matrix(0.05,0,0,0.05,5,0)" xlink:href="#aD"/><use transform="matrix(0.05,0,0,0.05,15,0)" xlink:href="#aD"/><path fill="#8080ff" d="M-.9 1.25h26.8v1.32H-.9z"/><use transform="matrix(0.05,0,0,0.05,25,0)" xlink:href="#aR"/><use transform="matrix(0.05,0,0,0.05,28.950000000000003,0)" xlink:href="#aC"/><path fill="#8080ff" d="M24.1 1.25h14.75v1.32H24.1z"/></g><g id="x"><use transform="matrix(0.05,0,0,0.05,0,0)" xlink:href="#aY"/><use transform="matrix(0.05,0,0,0.05,12.950000000000001,0)" xlink:href="#aC"/><use transform="matrix(0.05,0,0,0.05,21.950000000000003,0)" xlink:href="#aB"/><path fill="#8080ff" d="M-.9 1.25h33.75v1.32H-.9z"/><path fill="#8080ff" d="M31.05 1.25h6.8v1.32h-6.8z"/></g><g id="y"><use transform="matrix(0.05,0,0,0.05,0,0)" xlink:href="#aE"/><use transform="matrix(0.05,0,0,0.05,14.950000000000001,0)" xlink:href="#aJ"/><path fill="#8080ff" d="M-.9 1.25h30.75v1.32H-.9z"/></g><g id="z"><use transform="matrix(0.05,0,0,0.05,0,0)" xlink:href="#aN"/><use transform="matrix(0.05,0,0,0.05,10,0)" xlink:href="#aF"/><use transform="matrix(0.05,0,0,0.05,20,0)" xlink:href="#aF"/><path fill="#8080ff" d="M-.9 1.25h31.8v1.32H-.9z"/></g><path d="M143 4C61 4 22-44 18-125c-5-107 100-154 193-111 17 8 29 25 37 43l-32 9c-13-25-37-40-76-40-61 0-88 39-88 99 0 61 29 100 91 101 35 0 62-11 79-27v-45h-74v-28h105v86C228-13 192 4 143 4" id="aZ"/><g id="A"><use transform="matrix(0.05,0,0,0.05,0,0)" xlink:href="#aZ"/><use transform="matrix(0.05,0,0,0.05,14,0)" xlink:href="#aB"/><use transform="matrix(0.05,0,0,0.05,24,0)" xlink:href="#aO"/><path fill="#8080ff" d="M-.9 1.25h35.8v1.32H-.9z"/></g><g id="B"><use transform="matrix(0.05,0,0,0.05,0,0)" xlink:href="#aP"/><use transform="matrix(0.05,0,0,0.05,10,0)" xlink:href="#aB"/><path fill="#8080ff" d="M-.9 1.25h21.8v1.32H-.9z"/><use transform="matrix(0.05,0,0,0.05,20,0)" xlink:href="#aR"/><use transform="matrix(0.05,0,0,0.05,23.95,0)" xlink:href="#aF"/><path fill="#8080ff" d="M19.1 1.25h15.75v1.32H19.1z"/></g><path d="M190 0L58-211 59 0H30v-248h39L202-35l-2-213h31V0h-41" id="ba"/><g id="C"><use transform="matrix(0.05,0,0,0.05,0,0)" xlink:href="#ba"/><use transform="matrix(0.05,0,0,0.05,12.950000000000001,0)" xlink:href="#aD"/></g><path d="M30-248c87 1 191-15 191 75 0 78-77 80-158 76V0H30v-248zm33 125c57 0 124 11 124-50 0-59-68-47-124-48v98" id="bb"/><g id="D"><use transform="matrix(0.05,0,0,0.05,0,0)" xlink:href="#bb"/><use transform="matrix(0.05,0,0,0.05,12,0)" xlink:href="#aK"/><use transform="matrix(0.05,0,0,0.05,22,0)" xlink:href="#aQ"/><use transform="matrix(0.05,0,0,0.05,32,0)" xlink:href="#aR"/><use transform="matrix(0.05,0,0,0.05,35.95,0)" xlink:href="#aV"/><use transform="matrix(0.05,0,0,0.05,39.900000000000006,0)" xlink:href="#aC"/><use transform="matrix(0.05,0,0,0.05,48.900000000000006,0)" xlink:href="#aP"/></g><g id="E"><use transform="matrix(0.05,0,0,0.05,0,0)" xlink:href="#aI"/><use transform="matrix(0.05,0,0,0.05,5.95,0)" xlink:href="#aN"/><use transform="matrix(0.05,0,0,0.05,15.949999999999998,0)" xlink:href="#aH"/><use transform="matrix(0.05,0,0,0.05,25.950000000000003,0)" xlink:href="#aJ"/><use transform="matrix(0.05,0,0,0.05,34.95,0)" xlink:href="#aD"/><use transform="matrix(0.05,0,0,0.05,44.95,0)" xlink:href="#aH"/><use transform="matrix(0.05,0,0,0.05,54.95,0)" xlink:href="#aB"/><use transform="matrix(0.05,0,0,0.05,64.95,0)" xlink:href="#aL"/></g><path d="M137-103V0h-34v-103L8-248h37l75 118 75-118h37" id="bc"/><g id="F"><use transform="matrix(0.05,0,0,0.05,0,0)" xlink:href="#bc"/><use transform="matrix(0.05,0,0,0.05,10.35,0)" xlink:href="#aB"/><use transform="matrix(0.05,0,0,0.05,20.35,0)" xlink:href="#aC"/></g><path d="M197 0v-115H63V0H30v-248h33v105h134v-105h34V0h-34" id="bd"/><g id="G"><use transform="matrix(0.05,0,0,0.05,0,0)" xlink:href="#bd"/><use transform="matrix(0.05,0,0,0.05,12.950000000000001,0)" xlink:href="#aN"/><use transform="matrix(0.05,0,0,0.05,22.950000000000003,0)" xlink:href="#aS"/><use transform="matrix(0.05,0,0,0.05,31.950000000000003,0)" xlink:href="#aB"/></g><g id="H"><use transform="matrix(0.05,0,0,0.05,0,0)" xlink:href="#aN"/><use transform="matrix(0.05,0,0,0.05,10,0)" xlink:href="#aH"/></g><g id="I"><use transform="matrix(0.05,0,0,0.05,0,0)" xlink:href="#aN"/><use transform="matrix(0.05,0,0,0.05,10,0)" xlink:href="#aF"/><use transform="matrix(0.05,0,0,0.05,20,0)" xlink:href="#aF"/><path fill="#8080ff" d="M-.9 1.25h36.8v1.32H-.9z"/></g><g id="J"><use transform="matrix(0.05,0,0,0.05,0,0)" xlink:href="#aV"/><use transform="matrix(0.05,0,0,0.05,3.95,0)" xlink:href="#aW"/><use transform="matrix(0.05,0,0,0.05,13.949999999999998,0)" xlink:href="#aB"/><use transform="matrix(0.05,0,0,0.05,23.95,0)" xlink:href="#aN"/><path fill="#8080ff" d="M-.9 1.25h35.75v1.32H-.9z"/></g><path d="M30 0v-248h187v28H63v79h144v27H63v87h162V0H30" id="be"/><path d="M141 0L90-78 38 0H4l68-98-65-92h35l48 74 47-74h35l-64 92 68 98h-35" id="bf"/><g id="K"><use transform="matrix(0.05,0,0,0.05,0,0)" xlink:href="#be"/><use transform="matrix(0.05,0,0,0.05,12,0)" xlink:href="#bf"/><use transform="matrix(0.05,0,0,0.05,21,0)" xlink:href="#aF"/><use transform="matrix(0.05,0,0,0.05,31,0)" xlink:href="#aB"/><use transform="matrix(0.05,0,0,0.05,41,0)" xlink:href="#aG"/><use transform="matrix(0.05,0,0,0.05,46.95,0)" xlink:href="#aV"/><use transform="matrix(0.05,0,0,0.05,50.900000000000006,0)" xlink:href="#aE"/><use transform="matrix(0.05,0,0,0.05,65.85000000000001,0)" xlink:href="#aB"/><use transform="matrix(0.05,0,0,0.05,75.85000000000001,0)" xlink:href="#aH"/><use transform="matrix(0.05,0,0,0.05,85.85000000000001,0)" xlink:href="#aO"/></g><g id="L"><use transform="matrix(0.05,0,0,0.05,0,0)" xlink:href="#aA"/><use transform="matrix(0.05,0,0,0.05,12.950000000000001,0)" xlink:href="#aV"/><use transform="matrix(0.05,0,0,0.05,16.900000000000002,0)" xlink:href="#aO"/><use transform="matrix(0.05,0,0,0.05,21.900000000000002,0)" xlink:href="#aP"/></g><g id="M"><use transform="matrix(0.05,0,0,0.05,0,0)" xlink:href="#aO"/><use transform="matrix(0.05,0,0,0.05,5,0)" xlink:href="#aP"/><use transform="matrix(0.05,0,0,0.05,15,0)" xlink:href="#aB"/></g><path d="M101-234c-31-9-42 10-38 44h38v23H63V0H32v-167H5v-23h27c-7-52 17-82 69-68v24" id="bg"/><g id="N"><use transform="matrix(0.05,0,0,0.05,0,0)" xlink:href="#bg"/><use transform="matrix(0.05,0,0,0.05,5,0)" xlink:href="#aV"/><use transform="matrix(0.05,0,0,0.05,8.95,0)" xlink:href="#aG"/><use transform="matrix(0.05,0,0,0.05,14.899999999999999,0)" xlink:href="#aC"/><use transform="matrix(0.05,0,0,0.05,23.9,0)" xlink:href="#aO"/><path fill="#8080ff" d="M-.9 1.25h35.7v1.32H-.9z"/></g><g id="O"><use transform="matrix(0.05,0,0,0.05,0,0)" xlink:href="#aN"/><use transform="matrix(0.05,0,0,0.05,10,0)" xlink:href="#aF"/><use transform="matrix(0.05,0,0,0.05,20,0)" xlink:href="#aF"/><path fill="#8080ff" d="M-.9 1.25h31.8v1.32H-.9z"/></g><g id="P"><use transform="matrix(0.05,0,0,0.05,0,0)" xlink:href="#aO"/><use transform="matrix(0.05,0,0,0.05,5,0)" xlink:href="#aK"/><use transform="matrix(0.05,0,0,0.05,15,0)" xlink:href="#aO"/><use transform="matrix(0.05,0,0,0.05,20,0)" xlink:href="#aD"/><use transform="matrix(0.05,0,0,0.05,30,0)" xlink:href="#aG"/><use transform="matrix(0.05,0,0,0.05,35.95,0)" xlink:href="#aV"/><use transform="matrix(0.05,0,0,0.05,39.900000000000006,0)" xlink:href="#aN"/><use transform="matrix(0.05,0,0,0.05,49.900000000000006,0)" xlink:href="#aR"/><path fill="#8080ff" d="M-.9 1.25h55.65v1.32H-.9z"/></g><g id="Q"><use transform="matrix(0.05,0,0,0.05,0,0)" xlink:href="#bb"/><use transform="matrix(0.05,0,0,0.05,12,0)" xlink:href="#aK"/><use transform="matrix(0.05,0,0,0.05,22,0)" xlink:href="#aQ"/><use transform="matrix(0.05,0,0,0.05,32,0)" xlink:href="#aR"/><use transform="matrix(0.05,0,0,0.05,35.95,0)" xlink:href="#aV"/><use transform="matrix(0.05,0,0,0.05,39.900000000000006,0)" xlink:href="#aC"/><use transform="matrix(0.05,0,0,0.05,48.900000000000006,0)" xlink:href="#aP"/><path fill="#8080ff" d="M-.9 1.25h60.7v1.32H-.9z"/><path fill="#8080ff" d="M58 1.25h6.8v1.32H58z"/></g><g id="R"><use transform="matrix(0.05,0,0,0.05,0,0)" xlink:href="#aE"/><use transform="matrix(0.05,0,0,0.05,14.950000000000001,0)" xlink:href="#aJ"/><path fill="#8080ff" d="M-.9 1.25h30.75v1.32H-.9z"/></g><path d="M33 0v-38h34V0H33" id="bh"/><g id="S"><use transform="matrix(0.05,0,0,0.05,0,0)" xlink:href="#aS"/><use transform="matrix(0.05,0,0,0.05,9,0)" xlink:href="#aD"/><use transform="matrix(0.05,0,0,0.05,19,0)" xlink:href="#aT"/><use transform="matrix(0.05,0,0,0.05,28,0)" xlink:href="#aN"/><use transform="matrix(0.05,0,0,0.05,38,0)" xlink:href="#aQ"/><use transform="matrix(0.05,0,0,0.05,48,0)" xlink:href="#aK"/><use transform="matrix(0.05,0,0,0.05,58,0)" xlink:href="#aR"/><use transform="matrix(0.05,0,0,0.05,61.95,0)" xlink:href="#aN"/><use transform="matrix(0.05,0,0,0.05,71.95,0)" xlink:href="#aG"/><use transform="matrix(0.05,0,0,0.05,77.9,0)" xlink:href="#aJ"/><use transform="matrix(0.05,0,0,0.05,85.55000000000001,0)" xlink:href="#bh"/><use transform="matrix(0.05,0,0,0.05,90.55000000000001,0)" xlink:href="#bh"/><use transform="matrix(0.05,0,0,0.05,95.55000000000001,0)" xlink:href="#bh"/><path fill="#8080ff" d="M-.9 1.25h102.35v1.32H-.9z"/></g><g id="T"><use transform="matrix(0.05,0,0,0.05,0,0)" xlink:href="#az"/><use transform="matrix(0.05,0,0,0.05,12,0)" xlink:href="#aC"/><path fill="#8080ff" d="M-.9 1.25h27.8v1.32H-.9z"/></g><path d="M233-177c-1 41-23 64-60 70L243 0h-38l-65-103H63V0H30v-248c88 3 205-21 203 71zM63-129c60-2 137 13 137-47 0-61-80-42-137-45v92" id="bi"/><path d="M30-248c118-7 216 8 213 122C240-48 200 0 122 0H30v-248zM63-27c89 8 146-16 146-99s-60-101-146-95v194" id="bj"/><g id="U"><use transform="matrix(0.05,0,0,0.05,0,0)" xlink:href="#bi"/><use transform="matrix(0.05,0,0,0.05,12.950000000000001,0)" xlink:href="#bj"/><use transform="matrix(0.05,0,0,0.05,25.900000000000002,0)" xlink:href="#aX"/><path fill="#8080ff" d="M-.9 1.25h38.65v1.32H-.9z"/></g><g id="V"><use transform="matrix(0.05,0,0,0.05,0,0)" xlink:href="#az"/><use transform="matrix(0.05,0,0,0.05,12,0)" xlink:href="#aC"/><path fill="#8080ff" d="M-.9 1.25h27.8v1.32H-.9z"/></g><g id="W"><use transform="matrix(0.05,0,0,0.05,0,0)" xlink:href="#aT"/><use transform="matrix(0.05,0,0,0.05,9,0)" xlink:href="#aD"/><use transform="matrix(0.05,0,0,0.05,19,0)" xlink:href="#aW"/><use transform="matrix(0.05,0,0,0.05,29,0)" xlink:href="#aB"/><path fill="#8080ff" d="M-.9 1.25h40.8v1.32H-.9z"/></g><g id="X"><use transform="matrix(0.05,0,0,0.05,0,0)" xlink:href="#aN"/><use transform="matrix(0.05,0,0,0.05,10,0)" xlink:href="#aG"/><use transform="matrix(0.05,0,0,0.05,15.949999999999998,0)" xlink:href="#aO"/><use transform="matrix(0.05,0,0,0.05,20.95,0)" xlink:href="#aV"/><use transform="matrix(0.05,0,0,0.05,24.9,0)" xlink:href="#bg"/><use transform="matrix(0.05,0,0,0.05,29.899999999999995,0)" xlink:href="#aN"/><use transform="matrix(0.05,0,0,0.05,39.9,0)" xlink:href="#aT"/><use transform="matrix(0.05,0,0,0.05,48.9,0)" xlink:href="#aO"/><use transform="matrix(0.05,0,0,0.05,53.900000000000006,0)" xlink:href="#aC"/><path fill="#8080ff" d="M-.9 1.25h64.7v1.32H-.9z"/></g><path d="M177-190C167-65 218 103 67 71c-23-6-38-20-44-43l32-5c15 47 100 32 89-28v-30C133-14 115 1 83 1 29 1 15-40 15-95c0-56 16-97 71-98 29-1 48 16 59 35 1-10 0-23 2-32h30zM94-22c36 0 50-32 50-73 0-42-14-75-50-75-39 0-46 34-46 75s6 73 46 73" id="bk"/><g id="Y"><use transform="matrix(0.05,0,0,0.05,0,0)" xlink:href="#be"/><use transform="matrix(0.05,0,0,0.05,12,0)" xlink:href="#bf"/><use transform="matrix(0.05,0,0,0.05,21,0)" xlink:href="#aF"/><use transform="matrix(0.05,0,0,0.05,31,0)" xlink:href="#aR"/><use transform="matrix(0.05,0,0,0.05,34.95,0)" xlink:href="#aD"/><use transform="matrix(0.05,0,0,0.05,44.95,0)" xlink:href="#aG"/><use transform="matrix(0.05,0,0,0.05,50.900000000000006,0)" xlink:href="#aV"/><use transform="matrix(0.05,0,0,0.05,54.85,0)" xlink:href="#aH"/><use transform="matrix(0.05,0,0,0.05,64.85000000000001,0)" xlink:href="#bk"/></g><g id="Z"><use transform="matrix(0.05,0,0,0.05,0,0)" xlink:href="#aO"/><use transform="matrix(0.05,0,0,0.05,5,0)" xlink:href="#aP"/><use transform="matrix(0.05,0,0,0.05,15,0)" xlink:href="#aB"/></g><path d="M16-82v-28h88v28H16" id="bl"/><path d="M143 0L79-87 56-68V0H24v-261h32v163l83-92h37l-77 82L181 0h-38" id="bm"/><g id="aa"><use transform="matrix(0.05,0,0,0.05,0,0)" xlink:href="#aA"/><use transform="matrix(0.05,0,0,0.05,12.950000000000001,0)" xlink:href="#aB"/><use transform="matrix(0.05,0,0,0.05,22.950000000000003,0)" xlink:href="#aR"/><use transform="matrix(0.05,0,0,0.05,26.900000000000002,0)" xlink:href="#aR"/><use transform="matrix(0.05,0,0,0.05,30.85,0)" xlink:href="#bl"/><use transform="matrix(0.05,0,0,0.05,36.800000000000004,0)" xlink:href="#bm"/><use transform="matrix(0.05,0,0,0.05,45.800000000000004,0)" xlink:href="#aH"/><use transform="matrix(0.05,0,0,0.05,55.800000000000004,0)" xlink:href="#aD"/><use transform="matrix(0.05,0,0,0.05,65.80000000000001,0)" xlink:href="#aA"/><use transform="matrix(0.05,0,0,0.05,78.75000000000001,0)" xlink:href="#aH"/><path fill="#8080ff" d="M-.9 1.25h90.55v1.32H-.9z"/></g><g id="ab"><use transform="matrix(0.05,0,0,0.05,0,0)" xlink:href="#aS"/><use transform="matrix(0.05,0,0,0.05,9,0)" xlink:href="#aD"/><use transform="matrix(0.05,0,0,0.05,19,0)" xlink:href="#aT"/><use transform="matrix(0.05,0,0,0.05,28,0)" xlink:href="#aN"/><use transform="matrix(0.05,0,0,0.05,38,0)" xlink:href="#aQ"/><use transform="matrix(0.05,0,0,0.05,48,0)" xlink:href="#aK"/><use transform="matrix(0.05,0,0,0.05,58,0)" xlink:href="#aR"/><use transform="matrix(0.05,0,0,0.05,61.95,0)" xlink:href="#aN"/><use transform="matrix(0.05,0,0,0.05,71.95,0)" xlink:href="#aG"/><use transform="matrix(0.05,0,0,0.05,77.9,0)" xlink:href="#aV"/><use transform="matrix(0.05,0,0,0.05,81.85000000000001,0)" xlink:href="#aB"/><use transform="matrix(0.05,0,0,0.05,91.85000000000001,0)" xlink:href="#aC"/><path fill="#8080ff" d="M-.9 1.25h102.65v1.32H-.9z"/></g><g id="ac"><use transform="matrix(0.05,0,0,0.05,0,0)" xlink:href="#bg"/><use transform="matrix(0.05,0,0,0.05,5,0)" xlink:href="#aD"/><use transform="matrix(0.05,0,0,0.05,15,0)" xlink:href="#aG"/></g><path d="M185-189c-5-48-123-54-124 2 14 75 158 14 163 119 3 78-121 87-175 55-17-10-28-26-33-46l33-7c5 56 141 63 141-1 0-78-155-14-162-118-5-82 145-84 179-34 5 7 8 16 11 25" id="bn"/><g id="ad"><use transform="matrix(0.05,0,0,0.05,0,0)" xlink:href="#bn"/><use transform="matrix(0.05,0,0,0.05,12,0)" xlink:href="#aD"/><use transform="matrix(0.05,0,0,0.05,22,0)" xlink:href="#aR"/><use transform="matrix(0.05,0,0,0.05,25.950000000000003,0)" xlink:href="#aV"/><use transform="matrix(0.05,0,0,0.05,29.899999999999995,0)" xlink:href="#aW"/></g><g id="ae"><use transform="matrix(0.05,0,0,0.05,0,0)" xlink:href="#bj"/><use transform="matrix(0.05,0,0,0.05,12.950000000000001,0)" xlink:href="#aV"/><use transform="matrix(0.05,0,0,0.05,16.900000000000002,0)" xlink:href="#aC"/><use transform="matrix(0.05,0,0,0.05,25.900000000000002,0)" xlink:href="#aT"/><use transform="matrix(0.05,0,0,0.05,34.900000000000006,0)" xlink:href="#aD"/><use transform="matrix(0.05,0,0,0.05,44.900000000000006,0)" xlink:href="#aS"/><use transform="matrix(0.05,0,0,0.05,53.900000000000006,0)" xlink:href="#aB"/><use transform="matrix(0.05,0,0,0.05,63.900000000000006,0)" xlink:href="#aG"/><use transform="matrix(0.05,0,0,0.05,69.85000000000001,0)" xlink:href="#aV"/><use transform="matrix(0.05,0,0,0.05,73.80000000000001,0)" xlink:href="#aH"/><use transform="matrix(0.05,0,0,0.05,83.80000000000001,0)" xlink:href="#bk"/><path fill="#8080ff" d="M-.9 1.25h95.6v1.32H-.9z"/></g><g id="af"><use transform="matrix(0.05,0,0,0.05,0,0)" xlink:href="#aH"/><use transform="matrix(0.05,0,0,0.05,10,0)" xlink:href="#aB"/><use transform="matrix(0.05,0,0,0.05,20,0)" xlink:href="#aA"/></g><g id="ag"><use transform="matrix(0.05,0,0,0.05,0,0)" xlink:href="#aS"/><use transform="matrix(0.05,0,0,0.05,9,0)" xlink:href="#aD"/><use transform="matrix(0.05,0,0,0.05,19,0)" xlink:href="#aT"/><use transform="matrix(0.05,0,0,0.05,28,0)" xlink:href="#aN"/><use transform="matrix(0.05,0,0,0.05,38,0)" xlink:href="#aQ"/><use transform="matrix(0.05,0,0,0.05,48,0)" xlink:href="#aK"/><use transform="matrix(0.05,0,0,0.05,58,0)" xlink:href="#aR"/><use transform="matrix(0.05,0,0,0.05,61.95,0)" xlink:href="#aN"/><use transform="matrix(0.05,0,0,0.05,71.95,0)" xlink:href="#aG"/><use transform="matrix(0.05,0,0,0.05,77.9,0)" xlink:href="#aV"/><use transform="matrix(0.05,0,0,0.05,81.85000000000001,0)" xlink:href="#aB"/><use transform="matrix(0.05,0,0,0.05,91.85000000000001,0)" xlink:href="#aC"/></g><g id="ah"><use transform="matrix(0.05,0,0,0.05,0,0)" xlink:href="#aZ"/><use transform="matrix(0.05,0,0,0.05,14,0)" xlink:href="#aB"/><use transform="matrix(0.05,0,0,0.05,24,0)" xlink:href="#aO"/><path fill="#8080ff" d="M-.9 1.25h35.8v1.32H-.9z"/></g><g id="ai"><use transform="matrix(0.05,0,0,0.05,0,0)" xlink:href="#aO"/><use transform="matrix(0.05,0,0,0.05,5,0)" xlink:href="#aP"/><use transform="matrix(0.05,0,0,0.05,15,0)" xlink:href="#aB"/><path fill="#8080ff" d="M-.9 1.25h31.8v1.32H-.9z"/></g><g id="aj"><use transform="matrix(0.05,0,0,0.05,0,0)" xlink:href="#aG"/><use transform="matrix(0.05,0,0,0.05,5.95,0)" xlink:href="#aV"/><use transform="matrix(0.05,0,0,0.05,9.9,0)" xlink:href="#bk"/><use transform="matrix(0.05,0,0,0.05,19.9,0)" xlink:href="#aP"/><use transform="matrix(0.05,0,0,0.05,29.899999999999995,0)" xlink:href="#aO"/><path fill="#8080ff" d="M-.9 1.25h41.7v1.32H-.9z"/></g><g id="ak"><use transform="matrix(0.05,0,0,0.05,0,0)" xlink:href="#aS"/><use transform="matrix(0.05,0,0,0.05,9,0)" xlink:href="#aD"/><use transform="matrix(0.05,0,0,0.05,19,0)" xlink:href="#aT"/><use transform="matrix(0.05,0,0,0.05,28,0)" xlink:href="#aN"/><use transform="matrix(0.05,0,0,0.05,38,0)" xlink:href="#aQ"/><use transform="matrix(0.05,0,0,0.05,48,0)" xlink:href="#aK"/><use transform="matrix(0.05,0,0,0.05,58,0)" xlink:href="#aR"/><use transform="matrix(0.05,0,0,0.05,61.95,0)" xlink:href="#aN"/><use transform="matrix(0.05,0,0,0.05,71.95,0)" xlink:href="#aG"/><use transform="matrix(0.05,0,0,0.05,77.9,0)" xlink:href="#aJ"/><path fill="#8080ff" d="M-.9 1.25h88.7v1.32H-.9z"/></g><g id="al"><use transform="matrix(0.05,0,0,0.05,0,0)" xlink:href="#aO"/><use transform="matrix(0.05,0,0,0.05,5,0)" xlink:href="#aD"/></g><g id="am"><use transform="matrix(0.05,0,0,0.05,0,0)" xlink:href="#aW"/><use transform="matrix(0.05,0,0,0.05,10,0)" xlink:href="#aB"/><use transform="matrix(0.05,0,0,0.05,20,0)" xlink:href="#aC"/><use transform="matrix(0.05,0,0,0.05,29,0)" xlink:href="#aT"/><use transform="matrix(0.05,0,0,0.05,38,0)" xlink:href="#aG"/><use transform="matrix(0.05,0,0,0.05,43.95,0)" xlink:href="#aV"/><use transform="matrix(0.05,0,0,0.05,47.900000000000006,0)" xlink:href="#aQ"/><use transform="matrix(0.05,0,0,0.05,57.900000000000006,0)" xlink:href="#aB"/></g><g id="an"><use transform="matrix(0.05,0,0,0.05,0,0)" xlink:href="#aW"/><use transform="matrix(0.05,0,0,0.05,10,0)" xlink:href="#aN"/><use transform="matrix(0.05,0,0,0.05,20,0)" xlink:href="#aO"/><use transform="matrix(0.05,0,0,0.05,25,0)" xlink:href="#aN"/></g><path d="M127-220V0H93v-220H8v-28h204v28h-85" id="bo"/><g id="ao"><use transform="matrix(0.05,0,0,0.05,0,0)" xlink:href="#bo"/><use transform="matrix(0.05,0,0,0.05,10.950000000000001,0)" xlink:href="#aP"/><use transform="matrix(0.05,0,0,0.05,20.950000000000003,0)" xlink:href="#aB"/></g><g id="ap"><use transform="matrix(0.05,0,0,0.05,0,0)" xlink:href="#aS"/><use transform="matrix(0.05,0,0,0.05,9,0)" xlink:href="#aD"/><use transform="matrix(0.05,0,0,0.05,19,0)" xlink:href="#aT"/><use transform="matrix(0.05,0,0,0.05,28,0)" xlink:href="#aN"/><use transform="matrix(0.05,0,0,0.05,38,0)" xlink:href="#aQ"/><use transform="matrix(0.05,0,0,0.05,48,0)" xlink:href="#aK"/><use transform="matrix(0.05,0,0,0.05,58,0)" xlink:href="#aR"/><use transform="matrix(0.05,0,0,0.05,61.95,0)" xlink:href="#aN"/><use transform="matrix(0.05,0,0,0.05,71.95,0)" xlink:href="#aG"/><use transform="matrix(0.05,0,0,0.05,77.9,0)" xlink:href="#aV"/><use transform="matrix(0.05,0,0,0.05,81.85000000000001,0)" xlink:href="#aB"/><use transform="matrix(0.05,0,0,0.05,91.85000000000001,0)" xlink:href="#aC"/></g><use transform="matrix(0.05,0,0,0.05,0,0)" xlink:href="#aM" id="aq"/><g id="ar"><use transform="matrix(0.05,0,0,0.05,0,0)" xlink:href="#bg"/><use transform="matrix(0.05,0,0,0.05,5,0)" xlink:href="#aD"/><use transform="matrix(0.05,0,0,0.05,15,0)" xlink:href="#aK"/><use transform="matrix(0.05,0,0,0.05,25,0)" xlink:href="#aH"/><use transform="matrix(0.05,0,0,0.05,35,0)" xlink:href="#aW"/></g><g id="as"><use transform="matrix(0.05,0,0,0.05,0,0)" xlink:href="#aT"/><use transform="matrix(0.05,0,0,0.05,9,0)" xlink:href="#aD"/><use transform="matrix(0.05,0,0,0.05,19,0)" xlink:href="#aS"/><use transform="matrix(0.05,0,0,0.05,28,0)" xlink:href="#aB"/><use transform="matrix(0.05,0,0,0.05,38,0)" xlink:href="#aG"/></g><g id="at"><use transform="matrix(0.05,0,0,0.05,0,0)" xlink:href="#aK"/><use transform="matrix(0.05,0,0,0.05,10,0)" xlink:href="#aC"/><use transform="matrix(0.05,0,0,0.05,19,0)" xlink:href="#aB"/></g><g id="au"><use transform="matrix(0.05,0,0,0.05,0,0)" xlink:href="#aT"/><use transform="matrix(0.05,0,0,0.05,9,0)" xlink:href="#aN"/><use transform="matrix(0.05,0,0,0.05,19,0)" xlink:href="#aC"/><use transform="matrix(0.05,0,0,0.05,28,0)" xlink:href="#aB"/><use transform="matrix(0.05,0,0,0.05,38,0)" xlink:href="#aC"/></g><path d="M212-179c-10-28-35-45-73-45-59 0-87 40-87 99 0 60 29 101 89 101 43 0 62-24 78-52l27 14C228-24 195 4 139 4 59 4 22-46 18-125c-6-104 99-153 187-111 19 9 31 26 39 46" id="bp"/><g id="av"><use transform="matrix(0.05,0,0,0.05,0,0)" xlink:href="#bp"/><use transform="matrix(0.05,0,0,0.05,12.950000000000001,0)" xlink:href="#aG"/><use transform="matrix(0.05,0,0,0.05,18.900000000000002,0)" xlink:href="#aB"/><use transform="matrix(0.05,0,0,0.05,28.900000000000002,0)" xlink:href="#aN"/><use transform="matrix(0.05,0,0,0.05,38.900000000000006,0)" xlink:href="#aO"/><use transform="matrix(0.05,0,0,0.05,43.900000000000006,0)" xlink:href="#aB"/><path fill="#8080ff" d="M-.9 1.25h60.7v1.32H-.9z"/></g><g id="aw"><use transform="matrix(0.05,0,0,0.05,0,0)" xlink:href="#aE"/><use transform="matrix(0.05,0,0,0.05,14.950000000000001,0)" xlink:href="#aJ"/><path fill="#8080ff" d="M-.9 1.25h30.75v1.32H-.9z"/></g><g id="ax"><use transform="matrix(0.05,0,0,0.05,0,0)" xlink:href="#aD"/><use transform="matrix(0.05,0,0,0.05,10,0)" xlink:href="#aA"/><use transform="matrix(0.05,0,0,0.05,22.950000000000003,0)" xlink:href="#aH"/><path fill="#8080ff" d="M-.9 1.25h34.75v1.32H-.9z"/></g><g id="ay"><use transform="matrix(0.05,0,0,0.05,0,0)" xlink:href="#aS"/><use transform="matrix(0.05,0,0,0.05,9,0)" xlink:href="#aD"/><use transform="matrix(0.05,0,0,0.05,19,0)" xlink:href="#aT"/><use transform="matrix(0.05,0,0,0.05,28,0)" xlink:href="#aN"/><use transform="matrix(0.05,0,0,0.05,38,0)" xlink:href="#aQ"/><use transform="matrix(0.05,0,0,0.05,48,0)" xlink:href="#aK"/><use transform="matrix(0.05,0,0,0.05,58,0)" xlink:href="#aR"/><use transform="matrix(0.05,0,0,0.05,61.95,0)" xlink:href="#aN"/><use transform="matrix(0.05,0,0,0.05,71.95,0)" xlink:href="#aG"/><use transform="matrix(0.05,0,0,0.05,77.9,0)" xlink:href="#aJ"/><path fill="#8080ff" d="M-.9 1.25h88.7v1.32H-.9z"/></g></defs></g></svg>