<?xml version="1.0" encoding="UTF-8" standalone="no"?>
<svg
   xmlns:dc="http://purl.org/dc/elements/1.1/"
   xmlns:cc="http://creativecommons.org/ns#"
   xmlns:rdf="http://www.w3.org/1999/02/22-rdf-syntax-ns#"
   xmlns:svg="http://www.w3.org/2000/svg"
   xmlns="http://www.w3.org/2000/svg"
   id="svg9"
   version="1.1"
   viewBox="0 0 3762.2563 4598.4722"
   height="4598.4722"
   width="3762.2563">
  <metadata
     id="metadata15">
    <rdf:RDF>
      <cc:Work
         rdf:about="">
        <dc:format>image/svg+xml</dc:format>
        <dc:type
           rdf:resource="http://purl.org/dc/dcmitype/StillImage" />
        <dc:title>Fill 2</dc:title>
      </cc:Work>
    </rdf:RDF>
  </metadata>
  <defs
     id="defs13" />
  <!-- Generator: Sketch 61 (89581) - https://sketch.com -->
  <title
     id="title2">Fill 2</title>
  <desc
     id="desc4">Created with Sketch.</desc>
  <g
     transform="translate(633.3138,97.304659)"
     style="fill:none;fill-opacity:0.2;fill-rule:evenodd;stroke:none;stroke-width:1"
     id="Solid-2.0">
    <g
       style="fill:#000000"
       transform="translate(0,-203)"
       id="Homepage---Light">
      <path
         transform="rotate(150,1134.5,697)"
         id="Fill-2"
         d="M -589.25359,-88.697807 -651.93943,-127 -715,-88.457002 v 77.071831 l 0.18736,0.11332 62.87321,38.429677 62.68584,-38.302192 62.28435,38.061387 v 76.604389 l 0.18736,0.12748 62.8732,38.41551 62.69923,-38.30219 62.29774,38.07555 v 76.60439 l 0.18736,0.11332 62.48509,38.18887 v 76.60439 l 0.20075,0.11332 62.8732,38.42967 62.68585,-38.30219 62.284349,38.06139 v 76.16527 l -62.284349,38.04722 -62.68585,-38.28803 -63.07395,38.51467 v 77.10016 l 63.07395,38.51467 62.68585,-38.27386 62.672455,38.27386 63.060565,-38.51467 v -76.60438 l 62.311119,-38.08972 62.685841,38.30219 63.06057,-38.54299 v -76.60439 l 62.29773,-38.06139 62.29774,38.06139 v 76.13694 l -62.67246,38.30219 v 77.10016 l 63.04718,38.51467 63.07395,-38.51467 v -76.60438 l 62.29773,-38.08972 62.29774,38.08972 v 76.59022 l 62.68584,38.30219 v 76.13694 l -62.68584,38.30219 v 77.086 l 63.07395,38.52883 63.06056,-38.52883 v -76.60439 l 62.68585,-38.31635 v -76.60439 l 62.67246,-38.30219 v -76.59022 l 62.29773,-38.08972 62.29774,38.08972 v 76.59022 l 62.67246,38.30219 v 76.60439 l 62.68584,38.31635 v 76.60439 l 63.07391,38.52883 62.6993,-38.30219 62.2977,38.07555 v 76.13694 l -62.2977,38.07555 -62.6993,-38.30219 -63.07391,38.543 v 76.60434 l -62.67246,38.3022 v 77.086 l 63.06056,38.5289 63.06061,-38.5289 v -76.6185 l 62.3245,-38.0614 62.6724,38.3022 63.0606,-38.543 v -76.60439 l 62.2977,-38.06139 62.6725,38.28802 63.0873,-38.54299 v -76.60439 l 62.2844,-38.07555 62.2977,38.07555 v 76.13694 l -62.6858,38.31636 v 77.07184 l 63.0605,38.543 63.074,-38.543 v -76.60439 l 62.2843,-38.06139 62.3245,38.06139 v 76.60439 l 62.6725,38.3022 v 76.1369 l -62.6725,38.3022 v 77.0719 l 63.0472,38.5429 63.074,-38.5429 v -76.6044 l 62.6858,-38.2881 v -76.6185 l 62.6725,-38.3022 v -76.60439 l 62.3111,-38.06139 62.2843,38.06139 v 76.60439 l 62.6859,38.3022 v 76.1369 l -62.6859,38.3022 v 77.0719 l 63.074,38.5429 62.6858,-38.288 62.2978,38.0756 v 76.5902 l 62.6724,38.3022 v 76.6327 L 2419.4527,1521 h 0.04 l 63.0605,-38.5005 v -76.6327 l 62.6725,-38.3022 v -77.086 l -63.074,-38.5288 -62.6858,38.3022 -62.2844,-38.0756 v -76.6044 l -62.6992,-38.3022 v -76.1369 l 62.6992,-38.3022 v -76.60439 l 62.2844,-38.06139 62.3111,38.06139 v 76.60439 l 63.0606,38.543 62.6858,-38.3022 62.3111,38.0614 v 76.6185 l 63.0472,38.5289 62.6992,-38.3022 62.6591,38.3022 63.0873,-38.5289 v -76.6185 L 2984,1022.8307 v -77.07184 l -63.0606,-38.543 -63.0605,38.543 v 76.60434 l -62.2978,38.0473 -62.3111,-38.0473 v -76.60434 l -63.0606,-38.543 -62.6858,38.30219 -62.2977,-38.08971 v -76.59022 l -62.6725,-38.28803 v -76.63272 l -63.0873,-38.52883 -63.0606,38.52883 v 76.63272 l -62.6724,38.28803 v 76.60438 l -62.2978,38.07555 -62.2977,-38.07555 v -76.60438 l -62.6859,-38.28803 v -76.63272 l -63.0605,-38.52883 -63.074,38.52883 v 76.63272 l -62.6724,38.28803 v 76.60438 l -62.3111,38.07555 -62.2978,-38.08971 v -76.12278 l 62.6859,-38.30219 v -77.086 l -63.074,-38.52883 -63.0472,38.52883 v 76.63272 l -62.3245,38.06139 -62.2843,-38.06139 v -76.63272 l -62.6725,-38.28802 v -76.15111 l 62.6725,-38.30219 v -77.086 l -0.174,-0.11332 -62.9,-38.41551 -63.0605,38.52883 v 76.61855 l -62.6725,38.31636 v 76.60439 l -62.6992,38.28802 v 76.63272 l -62.2844,38.06139 -62.2977,-38.06139 v -76.63272 l -63.0606,-38.52883 -62.6724,38.30219 -62.3245,-38.07555 v -76.13694 l 62.6992,-38.30219 v -76.59022 l 62.2977,-38.08972 62.6725,38.30219 63.0739,-38.54299 v -76.60439 l 62.6725,-38.30219 V 256.2769 l -0.2008,-0.12749 -62.8598,-38.41551 -63.0739,38.543 v 76.60438 l -62.2844,38.07555 -62.6724,-38.31635 -63.0874,38.54299 v 76.60439 l -62.29771,38.07555 -62.29773,-38.07555 v -76.60439 l -0.17398,-0.11332 -62.51186,-38.18887 V 256.2769 l -0.17398,-0.12749 -62.88659,-38.41551 -63.06056,38.543 v 76.60438 l -62.68585,38.30219 v 76.60439 l -62.29773,38.07555 -62.29774,-38.07555 v -76.13694 l 62.68584,-38.30219 V 256.2769 l -0.20074,-0.11332 -62.85982,-38.42968 -63.07395,38.543 v 76.60438 l -62.29774,38.07555 -62.29773,-38.07555 V 256.2769 l -0.21413,-0.11332 -62.47171,-38.18888 v -76.13694 l 62.68584,-38.31635 V 26.449576 l -0.21413,-0.11332 -62.85982,-38.429678 -63.06056,38.542998 v 76.604384 l -62.68585,38.30219 v 76.61855 l -62.672455,38.3022 v 76.60438 L 37.564679,370.95683 -24.74644,332.88128 V 256.2769 l -0.187362,-0.11332 -62.485097,-38.18888 V 141.83776 L -24.74644,103.52141 V 26.449576 l -0.187362,-0.11332 -62.873203,-38.429678 -63.073945,38.542998 v 76.604384 l -62.28436,38.07555 -62.29773,-38.07555 V 26.449576 l -0.20075,-0.11332 -62.8732,-38.429678 -62.67246,38.316358 -62.31112,-38.075553 v -76.604385 l -0.18736,-0.127485 L -526.58113,-127 Z m 0.37472,76.84519 v -76.13694 l 62.29774,-38.075553 62.29773,38.075553 v 76.13694 l -37.47232,22.904825 -24.82541,15.170728 z m -125.3583,0 v -76.13694 l 62.29774,-38.075553 62.28435,38.075553 v 76.13694 l -62.28435,38.075553 z M 276.78531,134.0895 225.99693,103.05396 V 26.917021 l 62.28435,-38.061387 62.29774,38.061387 v 76.136939 l -62.29774,38.07555 z M -150.09136,103.05396 V 26.917021 l 62.284355,-38.061387 62.297736,38.061387 v 76.136939 l -62.297736,38.07555 z m -250.74337,0 V 26.917021 l 62.29774,-38.061387 62.29773,38.061387 v 76.136939 l -31.14217,19.05194 -31.15556,19.02361 z m -125.3583,0 V 26.917021 l 41.75488,-25.5253515 20.52947,-12.5360355 62.31112,38.061387 v 76.136939 l -62.31112,38.07555 z M 163.31109,217.9747 v -76.13694 l 62.29773,-38.07555 42.1296,25.73783 20.16814,12.33772 v 76.13694 l -54.02706,33.00448 -8.27068,5.05691 z m -376.10167,0 v -76.13694 l 62.31112,-38.07555 62.284349,38.07555 v 76.13694 l -46.171259,28.21671 -16.11309,9.84468 z m -125.3583,0 v -76.13694 l 31.14217,-19.05194 31.15556,-19.02361 62.31112,38.07555 v 76.13694 l -31.16894,19.00945 -31.14218,19.05194 z M 1228.9035,332.88128 v -76.13694 l 62.2977,-38.07555 62.2844,38.07555 v 76.13694 l -62.2844,38.07555 z m -501.45998,0 v -76.13694 l 62.29773,-38.07555 62.29774,38.07555 v 76.13694 l -50.68132,30.96472 -11.61642,7.11083 z m -250.72999,0 v -76.13694 l 62.31112,-38.07555 62.28435,38.07555 v 76.13694 l -62.28435,38.07555 z m -250.7166,0 v -76.13694 l 62.29773,-38.07555 62.28436,38.07555 v 76.13694 l -31.14218,19.02361 -31.14218,19.05194 z m -125.37169,0 v -76.13694 l 62.29774,-38.07555 62.31112,38.07555 v 76.13694 l -62.31112,38.07555 z m -250.7166,0 v -76.13694 l 62.284355,-38.07555 62.297736,38.07555 v 76.13694 l -31.142177,19.02361 -31.155559,19.05194 z m -125.37168,0 v -76.13694 l 31.14217,-19.05194 31.15556,-19.02361 62.28436,38.07555 v 76.13694 l -62.28436,38.07555 z M 1166.2176,447.78786 v -76.13694 l 62.2978,-38.06139 62.2977,38.06139 v 76.13694 l -62.2977,38.07555 z m -125.3716,0 v -76.13694 l 62.3245,-38.06139 62.2843,38.06139 v 76.13694 l -62.2843,38.07555 z m -250.71664,0 v -76.13694 l 62.29773,-38.06139 62.28436,38.06139 v 76.13694 l -31.14218,19.03778 -31.14218,19.03777 z m -125.3583,0 v -76.13694 l 62.28435,-38.06139 62.29774,38.06139 v 76.13694 l -62.29774,38.07555 z m -250.74337,0 v -76.13694 l 62.29773,-38.06139 62.31112,38.06139 v 76.13694 l -51.59136,31.53132 -10.71976,6.54423 z m -125.3583,0 v -76.13694 l 31.15556,-19.05194 31.14217,-19.00945 62.29774,38.06139 v 76.13694 l -62.29774,38.07555 z m -250.729988,0 v -76.13694 l 62.311118,-38.06139 62.28435,38.06139 v 76.13694 l -62.28435,38.07555 z m -125.358301,0 v -76.13694 l 31.155559,-19.05194 31.128794,-19.00945 62.311119,38.06139 v 76.13694 l -62.311119,38.07555 z M 1479.6335,562.69444 v -76.12278 l 62.2843,-38.07555 62.3111,38.07555 v 76.12278 l -62.3111,38.07555 z m -488.86662,7.71993 -12.59338,-7.70577 v -76.12277 l 62.2977,-38.08972 62.2978,38.08972 v 76.12277 l -62.2978,38.06139 z M 852.80182,562.7086 v -76.12277 l 31.15556,-19.05194 31.14217,-19.03778 62.29774,38.08972 v 76.12277 l -31.12879,19.02361 -31.16895,19.03778 z m -250.71661,0 v -76.12277 l 62.29774,-38.08972 62.29774,38.08972 v 76.12277 l -62.29774,38.06139 z m -125.37168,0 v -76.12277 l 62.31112,-38.08972 62.28435,38.08972 v 76.12277 l -31.15556,19.02361 -31.12879,19.03778 z m -250.7166,0 v -76.12277 l 62.28435,-38.07555 62.29774,38.07555 v 76.12277 l -62.29774,38.06139 z m -376.08829,0 v -76.12277 l 62.284355,-38.07555 62.297736,38.07555 v 76.12277 l -62.297736,38.06139 z m -125.37168,0 v -76.12277 l 62.29773,-38.07555 62.28436,38.07555 v 76.12277 l -62.28436,38.06139 z M 1448.1032,696.66712 1416.961,677.62935 v -76.15111 l 62.2844,-38.06139 55.807,34.09519 6.4907,3.9662 v 76.15111 l -62.2977,38.06138 z M 915.48766,677.61518 v -76.13694 l 31.15556,-19.02361 31.14217,-19.03778 62.29771,38.06139 v 76.13694 l -62.29771,38.07555 z m -376.08829,0 v -76.13694 l 31.14218,-19.02361 31.15556,-19.03778 7.78889,4.74528 54.52223,33.31611 v 76.13694 l -62.31112,38.07555 z M 2388.3239,811.5312 2357.1817,792.55009 v -76.15111 l 62.2844,-38.07555 62.2977,38.07555 v 76.15111 l -62.2977,38.06139 z m -407.2438,-18.98111 v -76.15111 l 62.3111,-38.07555 62.2843,38.07555 v 76.15111 l -31.1555,18.98111 -31.1288,19.08028 z m -238.2571,7.59244 -12.4595,-7.59244 v -76.15111 l 62.2843,-38.07555 62.3111,38.07555 v 76.15111 l -62.3111,38.06139 z m -263.1895,-7.59244 v -76.15111 l 12.5934,-7.71993 49.6909,-30.35562 62.3245,38.07555 v 76.15111 l -31.1689,18.98111 -31.1556,19.08028 z m -94.2295,18.98111 -31.1288,-18.98111 v -76.15111 l 62.2843,-38.07555 31.1556,19.02361 31.1422,19.05194 v 76.15111 l -62.2978,38.06139 z m -281.8588,-18.98111 v -76.15111 l 62.2977,-38.07555 62.2844,38.07555 v 76.15111 l -31.1422,18.98111 -31.1422,19.08028 z m -125.3717,0 v -76.15111 l 12.59338,-7.71993 49.70432,-30.35562 62.2978,38.07555 v 76.15111 l -62.2978,38.06139 z m -501.45997,0 v -76.15111 l 62.31112,-38.07555 54.50885,33.30194 7.7755,4.77361 v 76.15111 l -62.28435,38.06139 z M 2419.8676,907.4425 v -76.13694 l 5.5673,-3.41377 56.717,-34.66178 62.3111,38.07555 v 76.13694 l -9.7294,5.93514 -52.5817,32.14041 z m -94.2162,19.02361 -31.1421,-19.02361 v -76.13694 l 62.2843,-38.07555 31.1556,19.03778 31.1422,19.03777 v 76.13694 l -62.2978,38.07555 z M 2043.7793,907.4425 v -76.13694 l 31.1422,-19.03777 31.1421,-19.03778 62.2978,38.07555 v 76.13694 l -31.1422,19.02361 -31.1556,19.05194 z m -94.2161,19.02361 -31.1556,-19.02361 v -76.13694 l 62.2844,-38.07555 49.8515,30.45478 12.4596,7.62077 v 76.13694 l -62.3111,38.07555 z M 1667.6776,907.4425 v -76.13694 l 62.2978,-38.07555 62.2977,38.07555 v 76.13694 l -62.2977,38.07555 z m -125.3583,0 v -76.13694 l 31.1422,-19.03777 31.1422,-19.03778 62.2977,38.07555 v 76.13694 l -62.2977,38.07555 z m -250.73,0 v -76.13694 l 62.2844,-38.07555 31.1689,19.03778 31.1422,19.03777 v 76.13694 l -62.3111,38.07555 z m -94.2295,19.02361 -31.1422,-19.02361 v -76.13694 l 31.1422,-19.03777 31.1556,-19.03778 62.2977,38.07555 v 76.13694 l -62.2977,38.07555 z m 1692.4375,114.92079 -31.169,-19.0237 v -76.13689 l 62.3111,-38.06139 62.2844,38.06139 v 76.13689 l -62.2844,38.0473 z m -281.8856,-19.0237 v -76.13689 l 62.2977,-38.06139 62.2978,38.06139 v 76.13689 l -31.1556,19.0237 -31.1422,19.0236 z m -125.3583,0 v -76.13689 l 22.0819,-13.51343 40.2025,-24.54796 62.3111,38.06139 v 76.13689 l -62.3111,38.0473 z m -242.7671,4.8586 -7.9629,-4.8586 v -76.13689 l 62.2844,-38.06139 31.1555,19.00944 31.1422,19.05195 v 76.13689 l -62.2977,38.0614 z m -133.3346,-4.8586 v -76.13689 l 31.1556,-19.05195 31.1422,-19.00944 62.2977,38.06139 v 76.13689 l -31.1555,19.0237 -31.1422,19.0377 z m -250.7299,0 v -76.13689 l 62.3111,-38.06139 31.1288,19.00944 31.1555,19.05195 v 76.13689 l -62.2843,38.0614 z m -125.3583,0 v -76.13689 l 12.4595,-7.62078 49.8248,-30.44061 62.3111,38.06139 v 76.13689 l -31.1555,19.0237 -31.1556,19.0377 z m -250.73,0 v -76.13689 l 62.2843,-38.06139 53.5453,32.69284 8.7792,5.36855 v 76.13689 l -62.3245,38.0614 z m -376.0883,0 v -76.13689 l 62.2977,-38.06139 31.1422,19.00944 31.1422,19.05195 v 76.13689 l -62.2844,38.0614 z m -94.2161,19.0237 -31.1556,-19.0237 v -76.13689 l 62.2977,-38.06139 62.2978,38.06139 v 76.13689 l -62.2978,38.0614 z m 1786.6268,95.8829 v -76.1369 l 62.2843,-38.0614 31.1556,19.0094 31.1422,19.052 v 76.1369 l -62.2978,38.0756 z m -125.3717,0 v -76.1369 l 31.1689,-19.052 31.1288,-19.0094 62.3111,38.0614 v 76.1369 l -62.3111,38.0756 z m -444.7162,34.6618 -56.7304,-34.6618 v -76.1369 l 31.1422,-19.052 31.1555,-19.0094 62.2844,38.0614 v 76.1369 l -62.2844,38.0756 z m -401.6631,-15.6382 -31.169,-19.0236 v -76.1369 l 31.169,-19.052 31.1288,-19.0094 12.8208,7.8049 49.4903,30.2565 v 76.1369 l -62.3111,38.0756 z m -908.71724,-19.0236 v -76.1369 l 62.29773,-38.0614 31.15561,19.0094 31.1421,19.052 v 76.1369 l -62.29771,38.0756 z m 1316.33574,114.9066 v -76.1369 l 7.7889,-4.7453 54.4955,-33.3161 62.2977,38.0614 v 76.1369 l -62.2977,38.0756 z m -125.3717,0 v -76.1369 l 62.2978,-38.0614 62.2977,38.0614 v 76.1369 l -62.2977,38.0756 z m -376.0882,0 v -76.1369 l 62.2843,-38.0614 31.1556,19.0236 31.1555,19.0378 v 76.1369 l -62.3111,38.0756 z m 697.293,119.666 -7.7889,-4.7594 v -76.1086 l 62.2843,-38.0756 62.3111,38.0756 v 76.1086 l -62.3111,38.0755 z m -8.1904,-4.0512 62.3111,38.0756 v 76.1369 l -62.3111,38.0897 -62.2844,-38.0897 v -76.1369 l 31.1556,-19.0378 z m -62.6725,-114.8924 62.2978,38.0756 v 76.1086 l -31.1422,19.0378 -31.1556,19.0377 -62.2843,-38.0755 v -76.1086 l 12.2052,-7.4933 z" />
    </g>
  </g>
  <g
     transform="translate(4e-5,1302.4721)"
     style="fill:none;fill-opacity:0.2;fill-rule:evenodd;stroke:none;stroke-width:1"
     id="Solid-2.0-5">
    <g
       style="fill:#000000"
       id="Homepage---Light-3"
       transform="translate(-333,-1533)">
      <path
         d="M 458.74641,1571.3022 396.06056,1533 333,1571.543 v 77.0718 l 0.18736,0.1134 62.8732,38.4296 62.68585,-38.3022 62.28435,38.0614 v 76.6044 l 0.18736,0.1275 62.8732,38.4155 62.69923,-38.3022 62.29774,38.0756 v 76.6044 l 0.18736,0.1133 62.4851,38.1888 v 76.6044 l 0.20074,0.1134 62.8732,38.4296 62.68585,-38.3022 62.28435,38.0614 v 76.1653 l -62.28435,38.0472 -62.68585,-38.288 -63.07394,38.5146 v 77.1002 l 63.07394,38.5147 62.68585,-38.2739 62.67245,38.2739 63.06061,-38.5147 v -76.6044 l 62.3111,-38.0897 62.6858,38.3022 63.0606,-38.543 v -76.6044 l 62.2977,-38.0614 62.2978,38.0614 v 76.137 l -62.6725,38.3021 v 77.1002 l 63.0472,38.5147 63.0739,-38.5147 v -76.6044 l 62.2978,-38.0897 62.2977,38.0897 v 76.5903 l 62.6858,38.3021 v 76.137 l -62.6858,38.3022 v 77.086 l 63.074,38.5288 63.0605,-38.5288 v -76.6044 l 62.6859,-38.3164 v -76.6044 l 62.6724,-38.3021 v -76.5903 l 62.2978,-38.0897 62.2977,38.0897 v 76.5903 l 62.6725,38.3021 v 76.6044 l 62.6858,38.3164 v 76.6044 l 63.0739,38.5288 62.6993,-38.3022 62.2977,38.0756 v 76.1369 l -62.2977,38.0756 -62.6993,-38.3022 -63.0739,38.543 v 76.6043 l -62.6725,38.3022 v 77.086 l 63.0606,38.5289 63.0606,-38.5289 v -76.6185 l 62.3245,-38.0614 62.6724,38.3022 63.0606,-38.543 v -76.6044 l 62.2977,-38.0614 62.6725,38.288 63.0873,-38.5429 v -76.6044 l 62.2844,-38.0756 62.2977,38.0756 v 76.1369 l -62.6858,38.3164 v 77.0718 l 63.0605,38.543 63.074,-38.543 v -76.6044 l 62.2843,-38.0614 62.3245,38.0614 v 76.6044 l 62.6725,38.3022 v 76.1369 l -62.6725,38.3022 v 77.0719 l 63.0472,38.5429 63.074,-38.5429 v -76.6044 l 62.6858,-38.2881 v -76.6185 l 62.6725,-38.3022 v -76.6044 l 62.3111,-38.0614 62.2843,38.0614 v 76.6044 l 62.6859,38.3022 v 76.1369 l -62.6859,38.3022 v 77.0719 l 63.074,38.5429 62.6858,-38.288 62.2978,38.0756 v 76.5902 l 62.6724,38.3022 v 76.6327 L 3467.4527,3181 h 0.04 l 63.0605,-38.5005 v -76.6327 l 62.6725,-38.3022 v -77.086 l -63.074,-38.5288 -62.6858,38.3021 -62.2844,-38.0755 v -76.6044 l -62.6992,-38.3022 v -76.1369 l 62.6992,-38.3022 v -76.6044 l 62.2844,-38.0614 62.3111,38.0614 v 76.6044 l 63.0606,38.543 62.6858,-38.3022 62.3111,38.0614 v 76.6185 l 63.0472,38.5289 62.6992,-38.3022 62.6591,38.3022 63.0873,-38.5289 v -76.6185 L 4032,2682.8307 v -77.0718 l -63.0606,-38.543 -63.0605,38.543 v 76.6043 l -62.2978,38.0473 -62.3111,-38.0473 v -76.6043 l -63.0606,-38.543 -62.6858,38.3022 -62.2977,-38.0898 v -76.5902 l -62.6725,-38.288 v -76.6327 l -63.0873,-38.5289 -63.0606,38.5289 v 76.6327 l -62.6724,38.288 v 76.6044 l -62.2978,38.0756 -62.2977,-38.0756 v -76.6044 l -62.6859,-38.288 v -76.6327 l -63.0605,-38.5289 -63.074,38.5289 v 76.6327 l -62.6724,38.288 v 76.6044 l -62.3111,38.0756 -62.2978,-38.0898 v -76.1227 l 62.6859,-38.3022 v -77.086 l -63.074,-38.5289 -63.0472,38.5289 v 76.6327 l -62.3245,38.0614 -62.2843,-38.0614 v -76.6327 l -62.6725,-38.288 v -76.1512 l 62.6725,-38.3021 V 2146.09 l -0.174,-0.1133 -62.9,-38.4155 -63.0605,38.5288 v 76.6186 l -62.6725,38.3164 v 76.6044 l -62.6992,38.288 v 76.6327 l -62.2844,38.0614 -62.2977,-38.0614 v -76.6327 l -63.0606,-38.5289 -62.6724,38.3022 -62.3245,-38.0755 v -76.137 l 62.6992,-38.3021 v -76.5903 l 62.2977,-38.0897 62.6725,38.3022 63.0739,-38.543 v -76.6044 l 62.6725,-38.3022 v -77.0718 l -0.2008,-0.1275 -62.8598,-38.4155 -63.0739,38.543 v 76.6044 l -62.2844,38.0755 -62.6724,-38.3163 -63.0874,38.543 v 76.6044 l -62.2977,38.0755 -62.2977,-38.0755 v -76.6044 l -0.174,-0.1133 -62.5119,-38.1889 v -76.6044 l -0.174,-0.1275 -62.8865,-38.4155 -63.0606,38.543 v 76.6044 l -62.6859,38.3022 v 76.6044 l -62.2977,38.0755 -62.2977,-38.0755 v -76.137 l 62.6858,-38.3022 v -77.0718 l -0.2007,-0.1133 -62.8598,-38.4297 -63.074,38.543 v 76.6044 l -62.2977,38.0755 -62.2978,-38.0755 v -76.6044 l -0.2141,-0.1133 -62.4717,-38.1889 v -76.1369 l 62.6858,-38.3164 v -77.0718 l -0.2141,-0.1133 -62.8598,-38.4297 -63.0606,38.543 v 76.6044 l -62.6858,38.3022 v 76.6185 l -62.6725,38.3022 v 76.6044 l -62.2977,38.0755 -62.3111,-38.0755 v -76.6044 l -0.1874,-0.1133 -62.4851,-38.1889 v -76.1369 l 62.6725,-38.3164 v -77.0718 l -0.1874,-0.1133 -62.87321,-38.4297 -63.07394,38.543 v 76.6044 l -62.28436,38.0755 -62.29773,-38.0755 v -76.6044 l -0.20075,-0.1133 -62.8732,-38.4297 -62.67246,38.3163 -62.31112,-38.0755 v -76.6044 l -0.18736,-0.1275 L 521.41887,1533 Z m 0.37472,76.8452 v -76.137 l 62.29774,-38.0755 62.29773,38.0755 v 76.137 l -37.47232,22.9048 -24.82541,15.1707 z m -125.3583,0 v -76.137 l 62.29773,-38.0755 62.28436,38.0755 v 76.137 l -62.28436,38.0755 z m 991.02247,145.9421 -50.7884,-31.0355 v -76.137 l 62.2844,-38.0614 62.2977,38.0614 v 76.137 l -62.2977,38.0755 z M 897.90864,1763.054 v -76.137 l 62.28435,-38.0614 62.29771,38.0614 v 76.137 l -62.29771,38.0755 z m -250.74337,0 v -76.137 l 62.29774,-38.0614 62.29774,38.0614 v 76.137 l -31.14218,19.0519 -31.15556,19.0236 z m -125.3583,0 v -76.137 l 41.75488,-25.5253 20.52947,-12.5361 62.31112,38.0614 v 76.137 l -62.31112,38.0755 z m 689.50413,114.9207 v -76.1369 l 62.2977,-38.0756 42.1296,25.7378 20.1682,12.3378 v 76.1369 l -54.0271,33.0045 -8.2707,5.0569 z m -376.10168,0 v -76.1369 l 62.31112,-38.0756 62.28435,38.0756 v 76.1369 l -46.17126,28.2167 -16.11309,9.8447 z m -125.3583,0 v -76.1369 l 31.14217,-19.052 31.15556,-19.0236 62.31112,38.0756 v 76.1369 l -31.16894,19.0095 -31.14218,19.0519 z m 1567.05238,114.9066 v -76.137 l 62.2977,-38.0755 62.2844,38.0755 v 76.137 l -62.2844,38.0755 z m -501.46,0 v -76.137 l 62.2978,-38.0755 62.2977,38.0755 v 76.137 l -50.6813,30.9647 -11.6164,7.1108 z m -250.73,0 v -76.137 l 62.3112,-38.0755 62.2843,38.0755 v 76.137 l -62.2843,38.0755 z m -250.7166,0 v -76.137 l 62.2978,-38.0755 62.2843,38.0755 v 76.137 l -31.1422,19.0236 -31.1421,19.0519 z m -125.3717,0 v -76.137 l 62.2978,-38.0755 62.3111,38.0755 v 76.137 l -62.3111,38.0755 z m -250.71656,0 v -76.137 l 62.28435,-38.0755 62.29771,38.0755 v 76.137 l -31.14215,19.0236 -31.15556,19.0519 z m -125.37168,0 v -76.137 l 31.14217,-19.0519 31.15556,-19.0236 62.28436,38.0755 v 76.137 l -62.28436,38.0755 z m 1441.68064,114.9066 v -76.137 l 62.2978,-38.0614 62.2977,38.0614 v 76.137 l -62.2977,38.0755 z m -125.3716,0 v -76.137 l 62.3245,-38.0614 62.2843,38.0614 v 76.137 l -62.2843,38.0755 z m -250.7166,0 v -76.137 l 62.2977,-38.0614 62.2844,38.0614 v 76.137 l -31.1422,19.0377 -31.1422,19.0378 z m -125.3583,0 v -76.137 l 62.2843,-38.0614 62.2978,38.0614 v 76.137 l -62.2978,38.0755 z m -250.7434,0 v -76.137 l 62.2977,-38.0614 62.3111,38.0614 v 76.137 l -51.5913,31.5313 -10.7198,6.5442 z m -125.3583,0 v -76.137 l 31.1556,-19.0519 31.1421,-19.0095 62.2978,38.0614 v 76.137 l -62.2978,38.0755 z m -250.73,0 v -76.137 l 62.3111,-38.0614 62.2844,38.0614 v 76.137 l -62.2844,38.0755 z m -125.3583,0 v -76.137 l 31.15556,-19.0519 31.12874,-19.0095 62.3112,38.0614 v 76.137 l -62.3112,38.0755 z m 1567.0524,114.9065 v -76.1227 l 62.2843,-38.0756 62.3111,38.0756 v 76.1227 l -62.3111,38.0756 z m -488.8666,7.72 -12.5934,-7.7058 v -76.1228 l 62.2977,-38.0897 62.2978,38.0897 v 76.1228 l -62.2978,38.0614 z m -137.9651,-7.7058 v -76.1228 l 31.1556,-19.0519 31.1422,-19.0378 62.2977,38.0897 v 76.1228 l -31.1288,19.0236 -31.1689,19.0378 z m -250.7166,0 v -76.1228 l 62.2978,-38.0897 62.2977,38.0897 v 76.1228 l -62.2977,38.0614 z m -125.3717,0 v -76.1228 l 62.3112,-38.0897 62.2843,38.0897 v 76.1228 l -31.1556,19.0236 -31.1287,19.0378 z m -250.7166,0 v -76.1228 l 62.2844,-38.0755 62.2977,38.0755 v 76.1228 l -62.2977,38.0614 z m -376.08826,0 v -76.1228 l 62.28435,-38.0755 62.29771,38.0755 v 76.1228 l -62.29771,38.0614 z m -125.37168,0 v -76.1228 l 62.29773,-38.0755 62.28436,38.0755 v 76.1228 l -62.28436,38.0614 z m 1723.56624,133.9585 -31.1422,-19.0377 v -76.1512 l 62.2844,-38.0613 55.807,34.0951 6.4907,3.9662 v 76.1512 l -62.2977,38.0613 z m -532.6155,-19.0519 v -76.137 l 31.1555,-19.0236 31.1422,-19.0377 62.2977,38.0613 v 76.137 l -62.2977,38.0755 z m -376.0883,0 v -76.137 l 31.1422,-19.0236 31.1555,-19.0377 7.7889,4.7452 54.5222,33.3161 v 76.137 l -62.3111,38.0755 z m 1848.9245,133.916 -31.1422,-18.9811 v -76.1511 l 62.2844,-38.0756 62.2977,38.0756 v 76.1511 l -62.2977,38.0614 z m -407.2438,-18.9811 v -76.1511 l 62.3111,-38.0756 62.2843,38.0756 v 76.1511 l -31.1555,18.9811 -31.1288,19.0803 z m -238.2571,7.5924 -12.4595,-7.5924 v -76.1511 l 62.2843,-38.0756 62.3111,38.0756 v 76.1511 l -62.3111,38.0614 z m -263.1895,-7.5924 v -76.1511 l 12.5934,-7.7199 49.6909,-30.3557 62.3245,38.0756 v 76.1511 l -31.1689,18.9811 -31.1556,19.0803 z m -94.2295,18.9811 -31.1288,-18.9811 v -76.1511 l 62.2843,-38.0756 31.1556,19.0236 31.1422,19.052 v 76.1511 l -62.2978,38.0614 z m -281.8588,-18.9811 v -76.1511 l 62.2977,-38.0756 62.2844,38.0756 v 76.1511 l -31.1422,18.9811 -31.1422,19.0803 z m -125.3717,0 v -76.1511 l 12.5934,-7.7199 49.7043,-30.3557 62.2978,38.0756 v 76.1511 l -62.2978,38.0614 z m -501.46,0 v -76.1511 l 62.3112,-38.0756 54.5088,33.302 7.7755,4.7736 v 76.1511 l -62.2843,38.0614 z m 1943.1541,114.8924 v -76.1369 l 5.5673,-3.4138 56.717,-34.6618 62.3111,38.0756 v 76.1369 l -9.7294,5.9351 -52.5817,32.1405 z m -94.2162,19.0236 -31.1421,-19.0236 v -76.1369 l 62.2843,-38.0756 31.1556,19.0378 31.1422,19.0378 v 76.1369 l -62.2978,38.0756 z m -281.8721,-19.0236 v -76.1369 l 31.1422,-19.0378 31.1421,-19.0378 62.2978,38.0756 v 76.1369 l -31.1422,19.0236 -31.1556,19.052 z m -94.2161,19.0236 -31.1556,-19.0236 v -76.1369 l 62.2844,-38.0756 49.8515,30.4548 12.4596,7.6208 v 76.1369 l -62.3111,38.0756 z m -281.8856,-19.0236 v -76.1369 l 62.2978,-38.0756 62.2977,38.0756 v 76.1369 l -62.2977,38.0756 z m -125.3583,0 v -76.1369 l 31.1422,-19.0378 31.1422,-19.0378 62.2977,38.0756 v 76.1369 l -62.2977,38.0756 z m -250.73,0 v -76.1369 l 62.2844,-38.0756 31.1689,19.0378 31.1422,19.0378 v 76.1369 l -62.3111,38.0756 z m -94.2295,19.0236 -31.1422,-19.0236 v -76.1369 l 31.1422,-19.0378 31.1556,-19.0378 62.2977,38.0756 v 76.1369 l -62.2977,38.0756 z m 1692.4375,114.9208 -31.169,-19.0237 v -76.1369 l 62.3111,-38.0614 62.2844,38.0614 v 76.1369 l -62.2844,38.0473 z m -281.8856,-19.0237 v -76.1369 l 62.2977,-38.0614 62.2978,38.0614 v 76.1369 l -31.1556,19.0237 -31.1422,19.0236 z m -125.3583,0 v -76.1369 l 22.0819,-13.5134 40.2025,-24.548 62.3111,38.0614 v 76.1369 l -62.3111,38.0473 z m -242.7671,4.8586 -7.9629,-4.8586 v -76.1369 l 62.2844,-38.0614 31.1555,19.0095 31.1422,19.0519 v 76.1369 l -62.2977,38.0614 z m -133.3346,-4.8586 v -76.1369 l 31.1556,-19.0519 31.1422,-19.0095 62.2977,38.0614 v 76.1369 l -31.1555,19.0237 -31.1422,19.0377 z m -250.7299,0 v -76.1369 l 62.3111,-38.0614 31.1288,19.0095 31.1555,19.0519 v 76.1369 l -62.2843,38.0614 z m -125.3583,0 v -76.1369 l 12.4595,-7.6208 49.8248,-30.4406 62.3111,38.0614 v 76.1369 l -31.1555,19.0237 -31.1556,19.0377 z m -250.73,0 v -76.1369 l 62.2843,-38.0614 53.5453,32.6929 8.7792,5.3685 v 76.1369 l -62.3245,38.0614 z m -376.0883,0 v -76.1369 l 62.2977,-38.0614 31.1422,19.0095 31.1422,19.0519 v 76.1369 l -62.2844,38.0614 z m -94.2161,19.0237 -31.1556,-19.0237 v -76.1369 l 62.2977,-38.0614 62.2978,38.0614 v 76.1369 l -62.2978,38.0614 z m 1786.6268,95.8829 v -76.1369 l 62.2843,-38.0614 31.1556,19.0094 31.1422,19.052 v 76.1369 l -62.2978,38.0756 z m -125.3717,0 v -76.1369 l 31.1689,-19.052 31.1288,-19.0094 62.3111,38.0614 v 76.1369 l -62.3111,38.0756 z m -444.7162,34.6618 -56.7304,-34.6618 v -76.1369 l 31.1422,-19.052 31.1555,-19.0094 62.2844,38.0614 v 76.1369 l -62.2844,38.0756 z m -401.6631,-15.6382 -31.169,-19.0236 v -76.1369 l 31.169,-19.052 31.1288,-19.0094 12.8208,7.8049 49.4903,30.2565 v 76.1369 l -62.3111,38.0756 z m -908.7172,-19.0236 v -76.1369 l 62.2977,-38.0614 31.1556,19.0094 31.1421,19.052 v 76.1369 l -62.2977,38.0756 z m 1316.3357,114.9066 v -76.1369 l 7.7889,-4.7453 54.4955,-33.3161 62.2977,38.0614 v 76.1369 l -62.2977,38.0755 z m -125.3717,0 v -76.1369 l 62.2978,-38.0614 62.2977,38.0614 v 76.1369 l -62.2977,38.0755 z m -376.0882,0 v -76.1369 l 62.2843,-38.0614 31.1556,19.0236 31.1555,19.0378 v 76.1369 l -62.3111,38.0755 z m 697.293,119.666 -7.7889,-4.7594 v -76.1086 l 62.2843,-38.0756 62.3111,38.0756 v 76.1086 l -62.3111,38.0755 z m -8.1904,-4.0512 62.3111,38.0756 v 76.1369 l -62.3111,38.0897 -62.2844,-38.0897 v -76.1369 l 31.1556,-19.0378 z m -62.6725,-114.8924 62.2978,38.0756 v 76.1086 l -31.1422,19.0378 -31.1556,19.0377 -62.2843,-38.0755 v -76.1086 l 12.2052,-7.4933 z"
         id="Fill-2-5" />
    </g>
  </g>
  <g
     transform="translate(2161,3524.4721)"
     style="fill:none;fill-opacity:0.2;fill-rule:evenodd;stroke:none;stroke-width:1"
     id="Solid-2.0-6">
    <g
       style="fill:#000000"
       id="Homepage---Light-2"
       transform="translate(0,-2612)">
      <path
         d="M -2035.2536,2076.3022 -2097.9394,2038 -2161,2076.543 v 77.0718 l 0.1874,0.1134 62.8732,38.4296 62.6858,-38.3022 62.2844,38.0614 v 76.6044 l 0.1873,0.1275 62.8732,38.4155 62.6992,-38.3022 62.2978,38.0756 v 76.6043 l 0.1873,0.1134 62.4851,38.1888 v 76.6044 l 0.2008,0.1134 62.8732,38.4296 62.6858,-38.3022 62.2844,38.0614 v 76.1653 l -62.2844,38.0472 -62.6858,-38.288 -63.074,38.5146 v 77.1002 l 63.074,38.5147 62.6858,-38.2739 62.6725,38.2739 63.0606,-38.5147 v -76.6044 l 62.3111,-38.0897 62.6858,38.3022 63.0606,-38.543 v -76.6044 l 62.2977,-38.0614 62.2978,38.0614 v 76.137 l -62.6725,38.3021 v 77.1002 l 63.0472,38.5147 63.0739,-38.5147 v -76.6044 l 62.2978,-38.0897 62.2977,38.0897 v 76.5903 l 62.68584,38.3021 v 76.137 l -62.68584,38.3022 v 77.086 l 63.07395,38.5288 63.06056,-38.5288 v -76.6044 l 62.68585,-38.3164 v -76.6044 l 62.67246,-38.3021 v -76.5903 l 62.29773,-38.0897 62.29774,38.0897 v 76.5903 l 62.67246,38.3021 v 76.6044 l 62.68584,38.3164 v 76.6044 l 63.07395,38.5288 62.69922,-38.3022 62.29774,38.0756 v 76.1369 l -62.29774,38.0756 -62.69922,-38.3022 -63.07395,38.543 v 76.6043 l -62.67246,38.3022 v 77.086 l 63.06057,38.5289 63.06056,-38.5289 v -76.6185 l 62.3245,-38.0614 62.67246,38.3022 63.06057,-38.543 v -76.6044 l 62.29773,-38.0614 62.672461,38.288 63.087332,-38.5429 v -76.6044 l 62.284352,-38.0756 62.297736,38.0756 v 76.1369 l -62.685842,38.3164 v 77.0718 l 63.060565,38.543 63.073946,-38.543 v -76.6044 l 62.28436,-38.0614 62.3245,38.0614 v 76.6044 l 62.67246,38.3022 v 76.1369 l -62.67246,38.3022 v 77.0719 l 63.04718,38.5429 63.07395,-38.5429 v -76.6044 l 62.68584,-38.2881 v -76.6185 l 62.67246,-38.3022 v -76.6044 l 62.31112,-38.0614 62.28435,38.0614 v 76.6044 l 62.68584,38.3022 v 76.1369 l -62.68584,38.3022 v 77.0719 l 63.07395,38.5429 62.68584,-38.288 62.29774,38.0756 v 76.5902 l 62.67246,38.3022 v 76.6327 L 973.4527,3686 h 0.0401 l 63.0606,-38.5005 v -76.6327 l 62.6725,-38.3022 v -77.086 l -63.074,-38.5288 -62.68587,38.3021 -62.28435,-38.0755 v -76.6044 l -62.69923,-38.3022 v -76.1369 l 62.69923,-38.3022 v -76.6044 l 62.28435,-38.0614 62.31107,38.0614 v 76.6044 l 63.0607,38.543 62.6857,-38.3022 62.3111,38.0614 v 76.6185 l 63.0472,38.5289 62.6992,-38.3022 62.6591,38.3022 63.0873,-38.5289 v -76.6185 L 1538,3187.8307 v -77.0718 l -63.0606,-38.543 -63.0605,38.543 v 76.6043 l -62.2978,38.0473 -62.3111,-38.0473 v -76.6043 l -63.0605,-38.543 -62.6859,38.3022 -62.2977,-38.0898 v -76.5902 l -62.6725,-38.288 v -76.6327 l -63.08732,-38.5289 -63.06056,38.5289 v 76.6327 l -62.67246,38.288 v 76.6044 l -62.29774,38.0756 -62.29774,-38.0756 v -76.6044 l -62.68584,-38.288 v -76.6327 l -63.06056,-38.5289 -63.07395,38.5289 v 76.6327 l -62.67246,38.288 v 76.6044 l -62.31112,38.0756 -62.29773,-38.0898 v -76.1227 l 62.68584,-38.3022 v -77.086 l -63.07395,-38.5289 -63.04718,38.5289 v 76.6327 l -62.3245,38.0614 -62.28436,-38.0614 v -76.6327 l -62.672456,-38.288 v -76.1512 l 62.672456,-38.3021 V 2651.09 l -0.17398,-0.1133 -62.899966,-38.4155 -63.060565,38.5288 v 76.6186 L -29.8152,2766.025 v 76.6044 l -62.699225,38.288 v 76.6327 l -62.284355,38.0614 -62.29773,-38.0614 v -76.6327 l -63.06057,-38.5289 -62.67246,38.3022 -62.3245,-38.0755 v -76.137 l 62.69923,-38.3021 v -76.5903 l 62.29773,-38.0897 62.67246,38.3022 63.07395,-38.543 v -76.6044 l 62.672457,-38.3022 v -77.0718 l -0.200744,-0.1275 -62.859823,-38.4155 -63.07395,38.543 v 76.6044 l -62.28435,38.0755 -62.67246,-38.3163 -63.08733,38.543 v 76.6044 l -62.29773,38.0755 -62.29774,-38.0755 v -76.6044 l -0.17398,-0.1133 -62.51186,-38.1889 v -76.6044 l -0.17398,-0.1275 -62.88659,-38.4155 -63.06056,38.543 v 76.6044 l -62.68585,38.3022 v 76.6044 l -62.29773,38.0755 -62.29774,-38.0755 v -76.137 l 62.68584,-38.3022 v -77.0718 l -0.20074,-0.1133 -62.85982,-38.4297 -63.07395,38.543 v 76.6044 l -62.2977,38.0755 -62.2978,-38.0755 v -76.6044 l -0.2141,-0.1133 -62.4717,-38.1889 v -76.1369 l 62.6858,-38.3164 v -77.0718 l -0.2141,-0.1133 -62.8598,-38.4297 -63.0606,38.543 v 76.6044 l -62.6858,38.3022 v 76.6185 l -62.6725,38.3022 v 76.6044 l -62.2977,38.0755 -62.3111,-38.0755 v -76.6044 l -0.1874,-0.1133 -62.4851,-38.1889 v -76.1369 l 62.6725,-38.3164 v -77.0718 l -0.1874,-0.1133 -62.8732,-38.4297 -63.074,38.543 v 76.6044 l -62.2843,38.0755 -62.2977,-38.0755 v -76.6044 l -0.2008,-0.1133 -62.8732,-38.4297 -62.6725,38.3163 -62.3111,-38.0755 v -76.6044 l -0.1873,-0.1275 -62.8732,-38.4155 z m 0.3747,76.8452 v -76.137 l 62.2978,-38.0755 62.2977,38.0755 v 76.137 l -37.4723,22.9048 -24.8254,15.1707 z m -125.3583,0 v -76.137 l 62.2978,-38.0755 62.2843,38.0755 v 76.137 l -62.2843,38.0755 z m 991.0225,145.9421 -50.7884,-31.0355 v -76.137 l 62.2844,-38.0614 62.2977,38.0614 v 76.137 l -62.2977,38.0755 z m -426.8767,-31.0355 v -76.137 l 62.2844,-38.0614 62.2977,38.0614 v 76.137 l -62.2977,38.0755 z m -250.7433,0 v -76.137 l 62.2977,-38.0614 62.2977,38.0614 v 76.137 l -31.1421,19.0519 -31.1556,19.0236 z m -125.3583,0 v -76.137 l 41.7548,-25.5253 20.5295,-12.5361 62.3111,38.0614 v 76.137 l -62.3111,38.0755 z m 689.5041,114.9207 v -76.1369 l 62.2977,-38.0756 42.1296,25.7378 20.1682,12.3378 v 76.1369 l -54.0271,33.0045 -8.2707,5.0569 z m -376.1017,0 v -76.1369 l 62.3111,-38.0756 62.2844,38.0756 v 76.1369 l -46.1713,28.2167 -16.1131,9.8447 z m -125.3583,0 v -76.1369 l 31.1422,-19.052 31.1555,-19.0236 62.3112,38.0756 v 76.1369 l -31.169,19.0095 -31.1422,19.0519 z m 1567.05239,114.9066 v -76.137 l 62.29773,-38.0755 62.284355,38.0755 v 76.137 l -62.284355,38.0755 z m -501.45997,0 v -76.137 l 62.29773,-38.0755 62.29774,38.0755 v 76.137 l -50.68132,30.9647 -11.61642,7.1108 z m -250.72999,0 v -76.137 l 62.31112,-38.0755 62.28435,38.0755 v 76.137 l -62.28435,38.0755 z m -250.71663,0 v -76.137 l 62.2978,-38.0755 62.2843,38.0755 v 76.137 l -31.1422,19.0236 -31.1421,19.0519 z m -125.3717,0 v -76.137 l 62.2978,-38.0755 62.3111,38.0755 v 76.137 l -62.3111,38.0755 z m -250.7166,0 v -76.137 l 62.2844,-38.0755 62.2977,38.0755 v 76.137 l -31.1422,19.0236 -31.1555,19.0519 z m -125.3716,0 v -76.137 l 31.1421,-19.0519 31.1556,-19.0236 62.2843,38.0755 v 76.137 l -62.2843,38.0755 z m 1441.68064,114.9066 v -76.137 l 62.29774,-38.0614 62.29774,38.0614 v 76.137 l -62.29774,38.0755 z m -125.37168,0 v -76.137 l 62.3245,-38.0614 62.28436,38.0614 v 76.137 l -62.28436,38.0755 z m -250.7166,0 v -76.137 l 62.29773,-38.0614 62.28436,38.0614 v 76.137 l -31.14218,19.0377 -31.14218,19.0378 z m -125.3583,0 v -76.137 l 62.28435,-38.0614 62.29774,38.0614 v 76.137 l -62.29774,38.0755 z m -250.74336,0 v -76.137 l 62.29772,-38.0614 62.31112,38.0614 v 76.137 l -51.59136,31.5313 -10.71976,6.5442 z m -125.3583,0 v -76.137 l 31.1555,-19.0519 31.1422,-19.0095 62.2978,38.0614 v 76.137 l -62.2978,38.0755 z m -250.73,0 v -76.137 l 62.3111,-38.0614 62.2844,38.0614 v 76.137 l -62.2844,38.0755 z m -125.3583,0 v -76.137 l 31.1556,-19.0519 31.1287,-19.0095 62.3112,38.0614 v 76.137 l -62.3112,38.0755 z M 33.633471,2727.6944 v -76.1227 l 62.284353,-38.0756 62.311116,38.0756 v 76.1227 L 95.917824,2765.77 Z m -488.866591,7.72 -12.59338,-7.7058 v -76.1228 l 62.29774,-38.0897 62.29773,38.0897 v 76.1228 l -62.29773,38.0614 z m -137.96506,-7.7058 v -76.1228 l 31.15556,-19.0519 31.14217,-19.0378 62.29774,38.0897 v 76.1228 l -31.1288,19.0236 -31.16894,19.0378 z m -250.71661,0 v -76.1228 l 62.29774,-38.0897 62.29774,38.0897 v 76.1228 l -62.29774,38.0614 z m -125.37168,0 v -76.1228 l 62.31112,-38.0897 62.28435,38.0897 v 76.1228 l -31.15556,19.0236 -31.12879,19.0378 z m -250.71663,0 v -76.1228 l 62.2844,-38.0755 62.2977,38.0755 v 76.1228 l -62.2977,38.0614 z m -376.0883,0 v -76.1228 l 62.2844,-38.0755 62.2977,38.0755 v 76.1228 l -62.2977,38.0614 z m -125.3716,0 v -76.1228 l 62.2977,-38.0755 62.2843,38.0755 v 76.1228 l -62.2843,38.0614 z M 2.1031889,2861.6671 -29.038987,2842.6294 v -76.1512 l 62.284352,-38.0613 55.806995,34.0951 6.490741,3.9662 v 76.1512 l -62.297736,38.0613 z M -530.51234,2842.6152 v -76.137 l 31.15556,-19.0236 31.14218,-19.0377 62.29773,38.0613 v 76.137 l -62.29773,38.0755 z m -376.08829,0 v -76.137 l 31.14218,-19.0236 31.15556,-19.0377 7.78889,4.7452 54.52223,33.3161 v 76.137 l -62.31112,38.0755 z m 1848.92453,133.916 -31.14217,-18.9811 v -76.1511 l 62.28435,-38.0756 62.29772,38.0756 v 76.1511 l -62.29772,38.0614 z m -407.24384,-18.9811 v -76.1511 l 62.31112,-38.0756 62.28435,38.0756 v 76.1511 l -31.15556,18.9811 -31.12879,19.0803 z m -238.25706,7.5924 -12.45954,-7.5924 v -76.1511 l 62.28435,-38.0756 62.31112,38.0756 v 76.1511 l -62.31112,38.0614 z m -263.189529,-7.5924 v -76.1511 l 12.593377,-7.7199 49.690976,-30.3557 62.324506,38.0756 v 76.1511 l -31.16895,18.9811 -31.155556,19.0803 z m -94.229507,18.9811 -31.128794,-18.9811 v -76.1511 l 62.284353,-38.0756 31.1555597,19.0236 31.1421763,19.052 v 76.1511 l -62.297736,38.0614 z m -281.858774,-18.9811 v -76.1511 l 62.29773,-38.0756 62.28435,38.0756 v 76.1511 l -31.14217,18.9811 -31.14218,19.0803 z m -125.37169,0 v -76.1511 l 12.59338,-7.7199 49.70436,-30.3557 62.29773,38.0756 v 76.1511 l -62.29773,38.0614 z m -501.45997,0 v -76.1511 l 62.31112,-38.0756 54.50885,33.302 7.7755,4.7736 v 76.1511 l -62.28435,38.0614 z m 1943.15404,114.8924 v -76.1369 l 5.56732,-3.4138 56.71701,-34.6618 62.3111,38.0756 v 76.1369 l -9.7294,5.9351 -52.5817,32.1405 z m -94.21612,19.0236 -31.14218,-19.0236 v -76.1369 l 62.28435,-38.0756 31.15556,19.0378 31.14218,19.0378 v 76.1369 l -62.29774,38.0756 z m -281.87217,-19.0236 v -76.1369 l 31.14218,-19.0378 31.14218,-19.0378 62.29773,38.0756 v 76.1369 l -31.14217,19.0236 -31.15556,19.052 z m -94.21612,19.0236 -31.15556,-19.0236 v -76.1369 l 62.28435,-38.0756 49.85158,30.4548 12.45954,7.6208 v 76.1369 l -62.31112,38.0756 z m -281.88555,-19.0236 v -76.1369 l 62.29774,-38.0756 62.29774,38.0756 v 76.1369 l -62.29774,38.0756 z m -125.358296,0 v -76.1369 l 31.142176,-19.0378 31.14218,-19.0378 62.29773,38.0756 v 76.1369 l -62.29773,38.0756 z m -250.729984,0 v -76.1369 l 62.284351,-38.0756 31.168943,19.0378 31.142176,19.0378 v 76.1369 l -62.311119,38.0756 z m -94.22951,19.0236 -31.14218,-19.0236 v -76.1369 l 31.14218,-19.0378 31.15556,-19.0378 62.29774,38.0756 v 76.1369 l -62.29774,38.0756 z m 1692.43748,114.9208 -31.169,-19.0237 v -76.1369 l 62.3111,-38.0614 62.2844,38.0614 v 76.1369 l -62.2844,38.0473 z m -281.8856,-19.0237 v -76.1369 l 62.2978,-38.0614 62.2977,38.0614 v 76.1369 l -31.1556,19.0237 -31.1421,19.0236 z m -125.3583,0 v -76.1369 l 22.0819,-13.5134 40.2025,-24.548 62.3111,38.0614 v 76.1369 l -62.3111,38.0473 z m -242.7671,4.8586 -7.96287,-4.8586 v -76.1369 l 62.28435,-38.0614 31.15556,19.0095 31.14218,19.0519 v 76.1369 l -62.29774,38.0614 z m -133.33456,-4.8586 v -76.1369 l 31.15556,-19.0519 31.14218,-19.0095 62.29774,38.0614 v 76.1369 l -31.15556,19.0237 -31.14218,19.0377 z m -250.72998,0 v -76.1369 l 62.31112,-38.0614 31.12879,19.0095 31.15556,19.0519 v 76.1369 l -62.28435,38.0614 z m -125.3583,0 v -76.1369 l 12.45954,-7.6208 49.82481,-30.4406 62.31112,38.0614 v 76.1369 l -31.15556,19.0237 -31.15556,19.0377 z m -250.729989,0 v -76.1369 l 62.284353,-38.0614 53.545276,32.6929 8.77923,5.3685 v 76.1369 l -62.324506,38.0614 z m -376.088281,0 v -76.1369 l 62.29773,-38.0614 31.14218,19.0095 31.14217,19.0519 v 76.1369 l -62.28435,38.0614 z m -94.21613,19.0237 -31.15556,-19.0237 v -76.1369 l 62.29774,-38.0614 62.29773,38.0614 v 76.1369 l -62.29773,38.0614 z m 1786.62684,95.8829 v -76.1369 l 62.2843,-38.0614 31.1556,19.0094 31.1422,19.052 v 76.1369 l -62.2978,38.0756 z m -125.3717,0 v -76.1369 l 31.1689,-19.052 31.1288,-19.0094 62.3111,38.0614 v 76.1369 l -62.3111,38.0756 z m -444.71619,34.6618 -56.73043,-34.6618 v -76.1369 l 31.14218,-19.052 31.15556,-19.0094 62.28435,38.0614 v 76.1369 l -62.28435,38.0756 z m -401.66315,-15.6382 -31.16894,-19.0236 v -76.1369 l 31.16894,-19.052 31.12879,-19.0094 12.82089,7.8049 49.49023,30.2565 v 76.1369 l -62.31112,38.0756 z m -908.7172,-19.0236 v -76.1369 l 62.29774,-38.0614 31.15555,19.0094 31.14218,19.052 v 76.1369 l -62.29773,38.0756 z m 1316.33577,114.9066 v -76.1369 l 7.78889,-4.7453 54.49546,-33.3161 62.29774,38.0614 v 76.1369 l -62.29774,38.0755 z m -125.37169,0 v -76.1369 l 62.29774,-38.0614 62.29774,38.0614 v 76.1369 l -62.29774,38.0755 z m -376.08828,0 v -76.1369 l 62.28435,-38.0614 31.15556,19.0236 31.15556,19.0378 v 76.1369 l -62.31112,38.0755 z m 697.293,119.666 -7.78889,-4.7594 v -76.1086 l 62.28433,-38.0756 62.3111,38.0756 v 76.1086 l -62.3111,38.0755 z m -8.19038,-4.0512 62.31112,38.0756 v 76.1369 l -62.31112,38.0897 -62.28435,-38.0897 v -76.1369 l 31.15556,-19.0378 z m -62.67246,-114.8924 62.29774,38.0756 v 76.1086 l -31.14218,19.0378 -31.15556,19.0377 -62.28435,-38.0755 v -76.1086 l 12.20527,-7.4933 z"
         id="Fill-2-9" />
    </g>
  </g>
</svg>
