<svg width="401" height="459" xmlns="http://www.w3.org/2000/svg"><g fill="none" fill-rule="evenodd"><path d="M251.683 265.933h-7.693c-.81 0-1.466-.616-1.466-1.375s.657-1.374 1.466-1.374h7.693c.81 0 1.465.615 1.465 1.374 0 .76-.656 1.375-1.465 1.375M238.496 265.933h-81.969c-.788 0-1.427-.616-1.427-1.375s.639-1.374 1.427-1.374h81.969c.788 0 1.428.615 1.428 1.374 0 .76-.64 1.375-1.428 1.375M150.7 265.933h-7.228c-.813 0-1.472-.616-1.472-1.375s.659-1.374 1.472-1.374h7.227c.813 0 1.471.615 1.471 1.374 0 .76-.658 1.375-1.47 1.375" fill="#825CFC" opacity=".958"/><path d="M202.734 207.98c.47 0 .851.348.851.775 0 .37.328.668.733.668.405 0 .734-.299.734-.668 0-1.164-1.04-2.11-2.318-2.11-1.279 0-2.319.946-2.319 2.11 0 .37.329.668.734.668.405 0 .733-.299.733-.668 0-.427.382-.775.852-.775M205.052 211.276a.927.927 0 1 0-.002 1.853.927.927 0 0 0 .002-1.853M202.103 204.791h4.044c.42 0 .76-.414.76-.926s-.34-.926-.76-.926h-4.044c-.42 0-.76.414-.76.926s.34.926.76.926" fill="#7C55FB" opacity=".958"/><path d="M198.594 228.467a20.275 20.275 0 0 0 3.23-.261v3.452c0 1.773-1.456 3.215-3.247 3.215s-3.249-1.442-3.249-3.215v-3.463c1.074.18 2.165.272 3.266.272m-2.928-14.099h5.82a2.998 2.998 0 0 1-2.91 2.256 2.997 2.997 0 0 1-2.91-2.256m-1.113 1.138a4.446 4.446 0 0 0 4.024 2.542c2.446 0 4.436-1.97 4.436-4.392a.716.716 0 0 0-.72-.712h-6.167a31.168 31.168 0 0 0 3.86-13.754 14.584 14.584 0 0 0 8.154 2.498c2.557 0 5.002-.649 7.176-1.886.433 1.517.653 3.088.653 4.689v3.909c0 9.315-7.651 17.038-17.056 17.214-3.79.072-7.445-1.12-10.494-3.378a32.399 32.399 0 0 0 6.134-6.73m33.16 23.887a1.447 1.447 0 0 0-1.991-.411 1.415 1.415 0 0 0-.415 1.972c1.85 2.8 2.83 6.056 2.83 9.418v12.711h-10.311v-8.369c0-.787-.645-1.424-1.439-1.424-.795 0-1.44.637-1.44 1.424v8.37H182.14v-8.37c0-.787-.644-1.424-1.439-1.424-.794 0-1.439.637-1.439 1.424v8.37H168.06v-12.712c0-9.494 7.802-17.218 17.392-17.218h7.189c.675 2.622 3.08 4.568 5.937 4.568 2.856 0 5.261-1.946 5.936-4.568h6.23c4.404 0 8.605 1.633 11.83 4.595.276.255.628.38.978.38.386 0 .77-.152 1.055-.455a1.415 1.415 0 0 0-.076-2.013 20.318 20.318 0 0 0-13.787-5.356h-6.04v-1.286h6.756c6.137 0 11.129-4.942 11.129-11.017V201.7c0-6.545-2.767-12.867-7.592-17.345-4.892-4.54-11.287-6.81-18.011-6.375-7.9.505-15.047 4.889-19.118 11.725a1.417 1.417 0 0 0 .51 1.951c.684.4 1.567.175 1.97-.504 3.586-6.023 9.875-9.884 16.823-10.329 5.915-.38 11.55 1.614 15.856 5.61 4.31 4 6.684 9.421 6.684 15.267v16.303c0 4.504-3.701 8.168-8.25 8.168h-3.515c6.463-3.375 10.902-10.11 10.902-17.77v-3.91c0-2.563-.481-5.061-1.433-7.425l-.023-.05c-.01-.021-.019-.043-.03-.064-.012-.025-.026-.048-.04-.072a1.057 1.057 0 0 0-.086-.13l-.019-.028-.007-.008a1.417 1.417 0 0 0-.066-.076l-.03-.033-.06-.058-.047-.042-.046-.036c-.023-.017-.045-.035-.068-.05l-.028-.018a1.42 1.42 0 0 0-.217-.117l-.005-.001a1.316 1.316 0 0 0-.124-.046l-.01-.003a1.525 1.525 0 0 0-.123-.033l-.018-.003a2.068 2.068 0 0 0-.118-.02l-.02-.001a1.733 1.733 0 0 0-.12-.009h-.012a1.443 1.443 0 0 0-.806.232l-.022.015c-.024.016-.048.031-.071.049a11.54 11.54 0 0 1-7.058 2.376 11.652 11.652 0 0 1-8.53-3.717 1.44 1.44 0 0 0-1.175-.49c-.497.03-.92.306-1.155.702l-.007.013c-.021.036-.04.072-.058.11-.006.011-.01.024-.015.036-.013.03-.026.06-.037.091-.006.016-.01.032-.015.049-.009.028-.018.055-.025.083-.008.034-.014.069-.02.103l-.006.032a1.417 1.417 0 0 0-.012.29c.034.572.053 1.155.053 1.735 0 13.98-10.263 25.817-23.717 28.382 3.555-3.553 5.636-8.402 5.636-13.526 0-1.779-.246-3.542-.732-5.242a1.425 1.425 0 0 0-.163-.363 20.78 20.78 0 0 1-.69-6.568c.09-1.679.388-3.345.887-4.95a1.422 1.422 0 0 0-.953-1.78 1.44 1.44 0 0 0-1.798.943 23.174 23.174 0 0 0-1.009 5.637 23.539 23.539 0 0 0 1.202 8.836c.25 1.14.378 2.31.378 3.487 0 5.845-3.179 11.272-8.3 14.187a1.42 1.42 0 0 0-.678 1.852c.005.013.013.025.019.038.014.028.027.057.043.083l.005.01c.006.013.015.023.022.035a1.498 1.498 0 0 0 .117.164l.034.037c.277.312.672.486 1.079.486.044 0 .087-.005.131-.009a31.98 31.98 0 0 0 17.4-5.595 20.211 20.211 0 0 0 6.4 3.47v2.815h-7c-11.177 0-20.27 9.002-20.27 20.067v15.56h65.833v-15.56c0-3.917-1.141-7.714-3.3-10.979M240.054 203.556a2.323 2.323 0 0 1-3.167-.85 2.318 2.318 0 0 1 2.049-3.472.414.414 0 1 1-.015.827 1.488 1.488 0 1 0 1.265.745.414.414 0 1 1 .718-.414 2.317 2.317 0 0 1-.85 3.164M231.142 218.815c.17-.17.447-.17.617 0l2.836 2.833a.436.436 0 1 1-.617.616l-2.836-2.832a.436.436 0 0 1 0-.617" fill="#7C55FB" opacity=".958"/><path d="M231.142 221.648l2.836-2.833a.436.436 0 0 1 .617.617l-2.835 2.833a.437.437 0 0 1-.618-.617M223.842 182.177a.74.74 0 0 1-.246-.545c0-.426.376-.772.84-.772h1.95c.462 0 .839.346.839.772 0 .426-.376.771-.84.772h-1.95a.876.876 0 0 1-.593-.227M229.486 182.177a.741.741 0 0 1-.246-.545c0-.426.376-.772.84-.772h1.95c.463 0 .839.346.839.772 0 .426-.376.771-.84.772h-1.95a.877.877 0 0 1-.593-.227M227.689 180.533a.77.77 0 0 1-.241-.556v-1.825c0-.435.368-.786.821-.786.453 0 .82.351.821.786v1.825c0 .435-.368.786-.82.786a.838.838 0 0 1-.581-.23M227.461 186.028a.802.802 0 0 1-.236-.568v-1.867a.805.805 0 0 1 1.612 0v1.867a.805.805 0 0 1-1.376.568M167.035 181.7c-.985 0-1.787.8-1.787 1.785 0 .984.802 1.785 1.787 1.785.985 0 1.787-.801 1.787-1.785 0-.985-.802-1.786-1.787-1.786m0 4.565a2.784 2.784 0 0 1-2.781-2.78 2.784 2.784 0 0 1 2.781-2.778 2.784 2.784 0 0 1 2.782 2.779 2.784 2.784 0 0 1-2.782 2.779M160.963 222.393a.51.51 0 0 1-.36-.15l-.836-.835a.507.507 0 1 1 .719-.72l.836.837a.507.507 0 0 1-.36.868" fill="#7C55FB" opacity=".958"/><path d="M161.043 220.54h-.997c-.237 0-.429-.207-.429-.463s.192-.464.43-.464h.996c.236 0 .429.208.429.464s-.193.463-.43.463" fill="#7C55FB" opacity=".958"/><path d="M160.127 220.54a.509.509 0 0 1-.36-.868l.836-.836a.51.51 0 0 1 .72.72l-.837.835a.508.508 0 0 1-.36.149M159.154 219.613c-.256 0-.464-.191-.464-.428v-.996c0-.237.208-.428.464-.428.255 0 .463.191.463.428v.996c0 .237-.208.428-.463.428M158.18 220.54c-.13 0-.26-.05-.36-.149l-.835-.836a.509.509 0 1 1 .72-.719l.836.835a.508.508 0 0 1-.36.869" fill="#7C55FB" opacity=".958"/><path d="M157.334 220.54h-.997c-.236 0-.429-.207-.429-.463s.193-.464.43-.464h.996c.237 0 .429.208.429.464s-.192.463-.43.463M157.345 222.393a.508.508 0 0 1-.36-.87l.836-.834a.509.509 0 0 1 .72.72l-.836.835a.51.51 0 0 1-.36.149" fill="#7C55FB" opacity=".958"/><path d="M159.153 222.393c-.255 0-.463-.192-.463-.429v-.996c0-.236.208-.428.463-.428.256 0 .464.192.464.428v.996c0 .237-.208.429-.464.429" fill="#7C55FB" opacity=".958"/><path d="M160.963 222.393a.51.51 0 0 1-.36-.15l-.836-.835a.507.507 0 1 1 .719-.72l.836.837a.507.507 0 0 1-.36.868" fill="#7C55FB" opacity=".958"/><path d="M161.043 220.54h-.997c-.237 0-.429-.207-.429-.463s.192-.464.43-.464h.996c.236 0 .429.208.429.464s-.193.463-.43.463" fill="#7C55FB" opacity=".958"/><path d="M160.127 220.54a.509.509 0 0 1-.36-.868l.836-.836a.51.51 0 0 1 .72.72l-.837.835a.508.508 0 0 1-.36.149M159.154 219.613c-.256 0-.464-.191-.464-.428v-.996c0-.237.208-.428.464-.428.255 0 .463.191.463.428v.996c0 .237-.208.428-.463.428M157.763 199.233a.926.926 0 1 1-1.853 0 .926.926 0 0 1 1.853 0" fill="#7C55FB" opacity=".958"/><g stroke-linecap="round" stroke-linejoin="round"><path stroke-opacity=".6" stroke="#7C55FB" stroke-width="2" opacity=".33" d="M200 48.007l156.191 90.125v180.25L200 408.507 43.809 318.382v-180.25z"/><path d="M199.4 1.269l42.05 24.234v48.474L199.4 98.211l-42.053-24.234V25.503L199.4 1.27z" stroke="#18A9E6" stroke-width="3" fill="#FFF"/><path d="M356.4 90.269l42.05 24.234v48.474l-42.05 24.234-42.053-24.234v-48.474L356.4 90.27z" stroke="#01E19A" stroke-width="3" fill="#FFF"/><path d="M199.11 123.43V95.005" stroke="#5880B8" stroke-width="2" opacity=".255" stroke-dasharray="2,7"/><path d="M290.168 175.273l25.343-13.378" opacity=".255" stroke="#01E19A" stroke-dasharray="2,7" stroke-width="2"/><g stroke="#FDAB00"><path d="M43.979 90.198L2.172 114.46v48.51L43.98 187.23l41.807-24.261v-48.51L43.979 90.198z" stroke-width="3" fill="#FFF"/><path d="M109 176l-23.51-14.105" stroke-width="2" opacity=".255" stroke-dasharray="2,7"/></g><path d="M199.11 457.731l42.05-24.234v-48.474l-42.05-24.234-42.053 24.234v48.474l42.052 24.234z" stroke="#18A9E6" stroke-width="3" fill="#FFF"/><path d="M199.11 335.57V359" stroke="#5880B8" stroke-width="2" opacity=".255" stroke-dasharray="2,7"/><g stroke="#FDAB00"><path d="M357.021 365.096l41.807-24.261v-48.51l-41.807-24.262-41.807 24.262v48.51l41.807 24.261z" stroke-width="3" fill="#FFF"/><path d="M291.095 280.947l24.416 12.452" stroke-width="2" opacity=".255" stroke-dasharray="2,7"/></g><g stroke="#01E19A"><path d="M43.979 365.096L2.172 340.835v-48.51l41.807-24.262 41.807 24.262v48.51l-41.807 24.261z" stroke-width="3" fill="#FFF"/><path d="M108 280l-22.51 13.4" stroke-width="2" opacity=".255" stroke-dasharray="2,7"/></g><path stroke="#5E04C0" stroke-width="4" d="M199.543 123l91.542 52.804V281.41l-91.542 52.804L108 281.41V175.804l71.663-41.337z"/></g><path d="M356.5 112c4.593 0 8.843 1.148 12.75 3.445 3.907 2.296 7.01 5.398 9.305 9.305 2.297 3.907 3.445 8.157 3.445 12.75s-1.148 8.843-3.445 12.75c-2.296 3.907-5.398 7.01-9.305 9.305-3.907 2.297-8.157 3.445-12.75 3.445s-8.843-1.148-12.75-3.445c-3.907-2.296-7.01-5.398-9.305-9.305-2.297-3.907-3.445-8.157-3.445-12.75s1.148-8.843 3.445-12.75c2.296-3.907 5.398-7.01 9.305-9.305 3.907-2.297 8.157-3.445 12.75-3.445zm19.845 15.629a21.89 21.89 0 0 0-5.296-6.94c-2.227-1.954-4.78-3.376-7.66-4.268 2.057 2.81 3.565 6.547 4.524 11.208h8.432zm-10.797 9.871c0-2.194-.137-4.387-.41-6.58h-17.275a53.005 53.005 0 0 0 0 13.16h17.274c.274-2.193.411-4.386.411-6.58zm-9.048-22.21c-1.44 0-2.913 1.097-4.421 3.29-1.577 2.263-2.777 5.279-3.6 9.049h16.041c-.822-3.77-2.022-6.786-3.599-9.048-1.508-2.194-2.981-3.29-4.421-3.29zm-6.89 1.131c-2.878.892-5.432 2.314-7.66 4.268a21.89 21.89 0 0 0-5.295 6.94h8.432c.96-4.593 2.467-8.329 4.524-11.208zM334.29 137.5c0 2.262.343 4.456 1.029 6.58h9.254a52.597 52.597 0 0 1-.412-6.529c0-2.159.137-4.37.412-6.632h-9.254a21.303 21.303 0 0 0-1.029 6.581zm2.365 9.871a21.89 21.89 0 0 0 5.296 6.94c2.227 1.954 4.78 3.376 7.66 4.268-2.057-2.81-3.565-6.547-4.524-11.208h-8.432zM356.5 159.71c1.44 0 2.913-1.097 4.421-3.29 1.577-2.263 2.777-5.279 3.6-9.049H348.48c.822 3.77 2.022 6.786 3.599 9.048 1.508 2.194 2.981 3.29 4.421 3.29zm6.992-1.131a20.949 20.949 0 0 0 7.557-4.268 21.89 21.89 0 0 0 5.296-6.94h-8.432c-.96 4.593-2.433 8.329-4.421 11.208zm4.935-14.498h9.254a21.303 21.303 0 0 0 1.029-6.581c0-2.262-.343-4.456-1.029-6.58h-9.254c.275 2.193.412 4.37.412 6.529a55.1 55.1 0 0 1-.412 6.632z" stroke="#FFF" fill="#01E19A"/><path d="M62.42 120c.587 2.742.587 4.881.58 7.025 0 8.672-4.652 13.936-10.758 17.865v8.527c0 1.373-.998 2.986-2.226 3.6l-8.29 4.148a2.392 2.392 0 0 1-.898.211 2.016 2.016 0 0 1-2.016-2.015v-7.784l-1.793.888c-.237.117-1.772.79-3.078-.516l-4.515-4.511c-.438-.432-.792-1.282-.792-1.896 0-.344.123-.873.275-1.18l.89-1.8H22.02a2.016 2.016 0 0 1-2.015-2.015c0-.262.095-.665.212-.9l4.15-8.297c.615-1.227 2.228-2.224 3.6-2.225h8.517c3.924-6.122 9.168-10.75 17.88-10.75 2.135 0 4.279 0 7.018.588.471.1.936.565 1.038 1.036zm-12.306 21.47c6.202-4.004 8.855-8.333 8.853-14.445.006-1.458.01-2.85-.189-4.422-1.535-.197-2.902-.197-4.414-.197-6.145 0-10.48 2.648-14.461 8.847-1.55 3.1-5.049 10.18-6.946 14.017l3.15 3.149a4924.752 4924.752 0 0 0 14.007-6.948zm.792-14.36a3.36 3.36 0 0 1 0 6.718 3.36 3.36 0 0 1 0-6.719z" fill="#FDAB00" fill-rule="nonzero"/><path d="M60.004 315.28a16.596 16.596 0 0 1 0 3.19l2.674 1.545a2.019 2.019 0 0 1 .94 2.272 20.792 20.792 0 0 1-5.38 9.305 2.016 2.016 0 0 1-2.435.32l-2.67-1.542c-.72.515-1.957 1.23-2.763 1.597v3.087c0 .914-.615 1.714-1.498 1.949a20.962 20.962 0 0 1-10.744 0c-.827-.22-1.499-1.093-1.499-1.949v-3.087a19.843 19.843 0 0 1-2.763-1.597l-2.67 1.542c-.79.456-1.788.325-2.433-.32a20.792 20.792 0 0 1-5.38-9.305 2.019 2.019 0 0 1 .938-2.273l2.675-1.543a20.007 20.007 0 0 1-.077-1.596c0-.441.034-1.156.077-1.596l-2.675-1.544a2.019 2.019 0 0 1-.938-2.272 20.792 20.792 0 0 1 5.38-9.305 2.016 2.016 0 0 1 2.434-.32l2.67 1.542c.72-.515 1.957-1.23 2.762-1.598v-3.086c0-.914.616-1.714 1.499-1.95a20.962 20.962 0 0 1 10.744.001c.827.22 1.498 1.093 1.498 1.949v3.087a19.844 19.844 0 0 1 2.764 1.597l2.669-1.542a2.016 2.016 0 0 1 2.434.32 20.792 20.792 0 0 1 5.38 9.305 2.019 2.019 0 0 1-.939 2.273l-2.674 1.543zm-4.424 5.292c.641-3.47.64-3.925 0-7.394l3.68-2.124c-.552-1.49-1.826-3.693-2.843-4.915l-3.68 2.125c-2.686-2.3-3.08-2.526-6.398-3.697v-4.25c-.778-.133-2.05-.24-2.84-.24-.788 0-2.06.107-2.838.24v4.25c-3.319 1.171-3.711 1.396-6.397 3.697l-3.681-2.125a16.812 16.812 0 0 0-2.843 4.915l3.68 2.124c-.641 3.47-.64 3.925 0 7.394l-3.68 2.124c.552 1.49 1.826 3.693 2.843 4.915l3.68-2.125c2.686 2.3 3.08 2.526 6.398 3.697v4.25c.778.133 2.05.24 2.839.24.79 0 2.061-.107 2.84-.24v-4.25c3.318-1.171 3.71-1.396 6.396-3.697l3.681 2.125c1.017-1.222 2.29-3.424 2.843-4.915l-3.68-2.124zm-12.08-11.76c4.446 0 8.062 3.617 8.062 8.063 0 4.446-3.616 8.063-8.062 8.063s-8.063-3.617-8.063-8.063c0-4.446 3.617-8.062 8.063-8.062zm0 12.094a4.036 4.036 0 0 0 4.031-4.031 4.036 4.036 0 0 0-4.031-4.031 4.036 4.036 0 0 0-4.031 4.031 4.036 4.036 0 0 0 4.03 4.031z" fill="#01E19A" fill-rule="nonzero"/><path d="M216.969 391.063a4.032 4.032 0 0 1 4.03 4.03v29.563a4.032 4.032 0 0 1-4.03 4.031H182.03a4.032 4.032 0 0 1-4.031-4.03v-29.563a4.032 4.032 0 0 1 4.031-4.031h34.938zm-17.47 6.718a2.685 2.685 0 0 0 2.688 2.688 2.685 2.685 0 0 0 2.688-2.688 2.685 2.685 0 0 0-2.688-2.687 2.685 2.685 0 0 0-2.687 2.687zm-8.062 0a2.685 2.685 0 0 0 2.688 2.688 2.685 2.685 0 0 0 2.687-2.688 2.685 2.685 0 0 0-2.687-2.687 2.685 2.685 0 0 0-2.688 2.687zm-8.062 0a2.685 2.685 0 0 0 2.687 2.688 2.685 2.685 0 0 0 2.688-2.688 2.685 2.685 0 0 0-2.688-2.687 2.685 2.685 0 0 0-2.687 2.687zm33.594 26.371V404.5H182.03v19.652c0 .277.227.504.504.504h33.93a.505.505 0 0 0 .504-.504z" fill="#18A9E6" fill-rule="nonzero"/><g fill="#FDAB00"><path d="M357.812 301.406c-8.16 0-14.78 2.329-14.78 5.183v.384c0 2.855 6.62 5.183 14.78 5.183s14.782-2.328 14.782-5.183v-.384c0-2.854-6.621-5.183-14.782-5.183zm14.782 11.34c-3.176 2.348-8.988 3.442-14.782 3.442-5.793 0-11.605-1.094-14.78-3.442v2.217c0 2.855 6.62 5.183 14.78 5.183s14.782-2.328 14.782-5.183v-2.217zm0 8.062c-3.176 2.349-8.988 3.442-14.782 3.442-5.793 0-11.605-1.093-14.78-3.442v2.254c0 2.854 6.62 5.183 14.78 5.183s14.782-2.328 14.782-5.183v-2.254zm0 8.063c-3.176 2.348-8.988 3.442-14.782 3.442-5.793 0-11.605-1.094-14.78-3.442v2.29c0 2.854 6.62 5.183 14.78 5.183s14.782-2.329 14.782-5.183v-2.29zm-14.782-31.496c7.305 0 18.813 1.952 18.813 9.214v24.572c0 7.26-11.51 9.214-18.813 9.214-7.304 0-18.812-1.952-18.812-9.214v-24.572c0-7.26 11.51-9.214 18.812-9.214z" fill-rule="nonzero"/><path d="M381.547 326.345c.446.076.849.285 1.18.616.425.425.648.967.648 1.57v4.875c0 .603-.223 1.146-.648 1.57a2.174 2.174 0 0 1-1.57.649h-8.938a2.174 2.174 0 0 1-1.57-.648 2.174 2.174 0 0 1-.649-1.57v-4.876c0-.603.223-1.145.648-1.57.331-.331.734-.54 1.18-.616v-.86c0-.872.22-1.69.658-2.436a4.879 4.879 0 0 1 1.766-1.766 4.751 4.751 0 0 1 2.435-.658c.872 0 1.69.22 2.436.658a4.879 4.879 0 0 1 1.766 1.766c.437.746.658 1.564.658 2.435v.861zm-4.031-.032v-.829a.766.766 0 0 0-.24-.587.766.766 0 0 0-.589-.24.766.766 0 0 0-.587.24.766.766 0 0 0-.24.587v.829h1.656z" stroke="#FFF" stroke-width="2"/></g><path d="M196.723 69.808v-16.82m4.454 16.82V42.875c0-1.196-.999-2.168-2.226-2.168-1.229 0-2.228.972-2.228 2.168v3.03m-4.455 23.903v-5.312m6.683-28.216a6.705 6.705 0 0 0-5.484 2.83 6.503 6.503 0 0 0-1.199 3.765v16.31m13.364-4.87v-11.44c0-1.398-.443-2.769-1.199-3.837m1.199 21.474v9.296m-17.818 0v-13.28m2.443-20.533a10.895 10.895 0 0 0-2.443 6.88v6.57m22.272 20.363V42.875c0-6.077-4.996-11.022-11.135-11.022-1.963 0-3.808.505-5.411 1.39m-10.18 36.565V42.806m13.385-15.225a15.642 15.642 0 0 0-12.197 9.387m29.838 3.738c-.936-6.558-6.057-11.806-12.568-13.016m12.722 19.1v12.394m0 5.312v5.312M179 70V57.856m5.015-28.107a19.767 19.767 0 0 0-4.845 10.54c-.112.847-.17 1.71-.17 2.586v7.955m31.14-24.438A19.943 19.943 0 0 0 199 23c-3.554 0-6.9.934-9.8 2.567M219 50.2v-7.325c0-4.713-1.673-9.057-4.46-12.474M219 56.528V70" stroke="#18A9E6" stroke-width="2" stroke-linecap="round" stroke-linejoin="round"/></g></svg>