<?xml version="1.0" encoding="UTF-8"?>
<svg width="401px" height="459px" viewBox="0 0 401 459" version="1.1" xmlns="http://www.w3.org/2000/svg" xmlns:xlink="http://www.w3.org/1999/xlink">
    <!-- Generator: Sketch 57.1 (83088) - https://sketch.com -->
    <title>Group 14 Copy 7</title>
    <desc>Created with Sketch.</desc>
    <g id="Solid-2.0" stroke="none" stroke-width="1" fill="none" fill-rule="evenodd">
        <g id="Group-14-Copy-7" transform="translate(3.000000, 3.000000)">
            <g id="Group-14-Copy-4">
                <g id="Group-4">
                    <g id="Group-13">
                        <g id="Group-12">
                            <g id="Group-62-Copy" transform="translate(139.000000, 174.000000)">
                                <g id="Group-3" transform="translate(100.140845, 86.153374)" fill="#825CFC" opacity="0.958258929">
                                    <path d="M9.54226148,2.77918648 L1.84931598,2.77918648 C1.03996509,2.77918648 0.383486222,2.16391867 0.383486222,1.40481613 C0.383486222,0.645713585 1.03996509,0.0304457744 1.84931598,0.0304457744 L9.54226148,0.0304457744 C10.3516124,0.0304457744 11.0076075,0.645713585 11.0076075,1.40481613 C11.0076075,2.16391867 10.3516124,2.77918648 9.54226148,2.77918648" id="Fill-1"></path>
                                </g>
                                <g id="Group-6" transform="translate(12.981221, 86.153374)" fill="#825CFC" opacity="0.958258929">
                                    <path d="M83.5147927,2.77918648 L1.5459558,2.77918648 C0.757472155,2.77918648 0.118390372,2.16391867 0.118390372,1.40481613 C0.118390372,0.645713585 0.757472155,0.0304457744 1.5459558,0.0304457744 L83.5147927,0.0304457744 C84.3032764,0.0304457744 84.9423582,0.645713585 84.9423582,1.40481613 C84.9423582,2.16391867 84.3032764,2.77918648 83.5147927,2.77918648" id="Fill-4"></path>
                                </g>
                                <g id="Group-9" transform="translate(0.000000, 86.153374)" fill="#825CFC" opacity="0.958258929">
                                    <path d="M8.69908244,2.77918648 L1.47150084,2.77918648 C0.658938241,2.77918648 -0.000145707579,2.16391867 -0.000145707579,1.40481613 C-0.000145707579,0.645713585 0.658938241,0.0304457744 1.47150084,0.0304457744 L8.69908244,0.0304457744 C9.51164504,0.0304457744 10.1702433,0.645713585 10.1702433,1.40481613 C10.1702433,2.16391867 9.51164504,2.77918648 8.69908244,2.77918648" id="Fill-7"></path>
                                </g>
                                <path d="M60.7335681,30.9797292 C61.2031865,30.9797292 61.585175,31.3276179 61.585175,31.7553137 C61.585175,32.1243667 61.9129396,32.4233129 62.318167,32.4233129 C62.7233945,32.4233129 63.0516432,32.1243667 63.0516432,31.7553137 C63.0516432,30.5912756 62.0117047,29.6441718 60.7335681,29.6441718 C59.4554314,29.6441718 58.415493,30.5912756 58.415493,31.7553137 C58.415493,32.1243667 58.7437417,32.4233129 59.1489691,32.4233129 C59.5541965,32.4233129 59.8824453,32.1243667 59.8824453,31.7553137 C59.8824453,31.3276179 60.2639497,30.9797292 60.7335681,30.9797292" id="Fill-10" fill="#7C55FB" opacity="0.958258929"></path>
                                <path d="M63.0516432,34.2760736 C62.5393506,34.2760736 62.1244131,34.6906308 62.1244131,35.202454 C62.1244131,35.713885 62.5393506,36.1288344 63.0516432,36.1288344 C63.5635433,36.1288344 63.9788732,35.713885 63.9788732,35.202454 C63.9788732,34.6906308 63.5635433,34.2760736 63.0516432,34.2760736" id="Fill-12" fill="#7C55FB" opacity="0.958258929"></path>
                                <path d="M60.1027339,27.791411 L64.146594,27.791411 C64.5664812,27.791411 64.9061033,27.376696 64.9061033,26.8647248 C64.9061033,26.3533653 64.5664812,25.9386503 64.146594,25.9386503 L60.1027339,25.9386503 C59.6828467,25.9386503 59.342723,26.3533653 59.342723,26.8647248 C59.342723,27.376696 59.6828467,27.791411 60.1027339,27.791411" id="Fill-14" fill="#7C55FB" opacity="0.958258929"></path>
                                <g id="Group-18" transform="translate(23.180751, 0.926380)" fill="#7C55FB" opacity="0.958258929">
                                    <path d="M33.4133562,50.5403694 C33.5378255,50.5403694 33.6627699,50.5389586 33.7872392,50.5370774 C34.7568645,50.518736 35.7103374,50.4303212 36.643382,50.2793577 L36.643382,53.7312967 C36.643382,55.5042953 35.1868062,56.9462088 33.3957785,56.9462088 C31.6047507,56.9462088 30.1476998,55.5042953 30.1476998,53.7312967 L30.1476998,50.2690113 C31.2208912,50.4481923 32.3126105,50.5403694 33.4133562,50.5403694 M30.4850021,36.4419734 L36.3060797,36.4419734 C35.9830296,37.7357451 34.8000962,38.697491 33.3957785,38.697491 C31.9905106,38.697491 30.8080522,37.7357451 30.4850021,36.4419734 M29.3723796,37.579138 C30.0788141,39.0788974 31.6161525,40.1220037 33.3957785,40.1220037 C35.8424078,40.1220037 37.8324914,38.1514827 37.8324914,35.7299522 C37.8324914,35.3367886 37.5103915,35.017931 37.1127548,35.017931 L30.9448734,35.017931 C33.2219015,30.8845398 34.5967647,26.2103134 34.804847,21.263318 C37.1878165,22.8740661 40.0316074,23.7619763 42.9594864,23.7619763 C45.5158578,23.7619763 47.9615371,23.1129741 50.1349991,21.8751671 C50.5682663,23.3927975 50.7887005,24.9635709 50.7887005,26.5644428 L50.7887005,30.4735051 C50.7887005,39.7890374 43.137164,47.5116927 33.7321306,47.688052 C29.9429431,47.7595363 26.2867761,46.5682881 23.2377533,44.3099488 C25.5884178,42.3662344 27.6573636,40.0984892 29.3723796,37.579138 M62.5329966,61.4666499 C62.0978291,60.8091825 61.2061158,60.6234174 60.5410127,61.0556152 C59.8763846,61.4859318 59.6901558,62.3686688 60.1257983,63.0275471 C61.9766853,65.8271919 62.9553371,69.0839599 62.9553371,72.4460732 L62.9553371,85.1571096 L52.6448133,85.1571096 L52.6448133,76.7878036 C52.6448133,76.001006 52.0006134,75.3632909 51.2062902,75.3632909 C50.411492,75.3632909 49.766817,76.001006 49.766817,76.7878036 L49.766817,85.1571096 L16.9587047,85.1571096 L16.9587047,76.7878036 C16.9587047,76.001006 16.3145048,75.3632909 15.5197065,75.3632909 C14.7249083,75.3632909 14.0807084,76.001006 14.0807084,76.7878036 L14.0807084,85.1571096 L2.87799627,85.1571096 L2.87799627,72.4460732 C2.87799627,62.9518302 10.6801311,55.227764 20.2704432,55.227764 L27.4587828,55.227764 C28.1338625,57.8501089 30.5396356,59.7952342 33.3957785,59.7952342 C36.2519213,59.7952342 38.6572193,57.8501089 39.332299,55.227764 L45.5624151,55.227764 C49.9658729,55.227764 54.1669493,56.8601455 57.3917494,59.8229814 C57.6682422,60.077409 58.0197967,60.2034471 58.3704011,60.2034471 C58.7561609,60.2034471 59.1409706,60.0506024 59.4250646,59.7477347 C59.9652234,59.1711575 59.9314932,58.2705494 59.3490529,57.7348875 C55.5907451,54.2815376 50.6941608,52.3787386 45.5624151,52.3787386 L39.5213783,52.3787386 L39.5213783,51.0924916 L46.2783511,51.0924916 C52.4148776,51.0924916 57.4069517,46.1506694 57.4069517,40.0759152 L57.4069517,23.7723227 C57.4069517,17.2272771 54.6401227,10.9056199 49.8147994,6.42750504 C44.9229659,1.88731173 38.5279993,-0.382314641 31.8042817,0.0527049172 C23.9038066,0.557797896 16.7567984,4.94138417 12.6863672,11.7780105 C12.2830296,12.4561707 12.5105899,13.3290315 13.1956462,13.7287793 C13.8802273,14.128527 14.7629142,13.9032574 15.1662517,13.2250971 C18.7521078,7.20160471 25.041133,3.3405122 31.9895604,2.89561652 C37.9042276,2.51562106 43.5400265,4.50965665 47.8456191,8.50619309 C52.1554874,12.5055513 54.5289554,17.9270707 54.5289554,23.7723227 L54.5289554,40.0759152 C54.5289554,44.5794258 50.8281316,48.2434662 46.2783511,48.2434662 L42.7637561,48.2434662 C49.2276084,44.8681847 53.6666967,38.1336116 53.6666967,30.4735051 L53.6666967,26.5644428 C53.6666967,24.0008843 53.184972,21.502226 52.2333995,19.1385414 C52.2267485,19.1216109 52.2181971,19.105621 52.2105959,19.0891608 C52.2006194,19.0675274 52.191593,19.045894 52.1806663,19.0247309 C52.1683144,18.9998054 52.1540622,18.9762909 52.140285,18.9527763 C52.1307836,18.9358458 52.1212821,18.9193856 52.1108305,18.9029254 C52.0932528,18.8751782 52.0737747,18.8483716 52.0542967,18.8225056 C52.0476457,18.81357 52.0419448,18.8036939 52.0352938,18.7947584 C52.0329184,18.7919366 52.030543,18.7895852 52.0281677,18.7867634 C52.0072644,18.7604271 51.985411,18.7359719 51.9626075,18.7110465 C51.9526309,18.6997595 51.9426544,18.6880022 51.9317277,18.6771855 C51.9122497,18.656963 51.8918215,18.6386216 51.8713933,18.61981 C51.856191,18.6057012 51.8409886,18.5911222 51.8253112,18.577954 C51.8105839,18.5652562 51.7944314,18.5539692 51.7792291,18.5417416 C51.7564255,18.5243408 51.7340971,18.50694 51.7108184,18.4914204 C51.7017921,18.4848363 51.6922906,18.4796631 51.6832642,18.4735493 C51.6528595,18.4537971 51.6224547,18.4349854 51.5906248,18.4175847 C51.5868242,18.4157035 51.5830236,18.4138223 51.579223,18.4119412 C51.5421673,18.3921889 51.5046365,18.3738476 51.4661555,18.3569171 C51.4642552,18.3564468 51.46283,18.3559765 51.4614048,18.3555062 C51.4205484,18.3381054 51.379217,18.3225858 51.3369355,18.3094176 C51.334085,18.308477 51.3307595,18.3075365 51.327434,18.3065959 C51.2870527,18.293898 51.2461964,18.2830813 51.2043899,18.2736755 C51.198214,18.2727349 51.192038,18.2717943 51.1863371,18.2703834 C51.146906,18.2628588 51.1074749,18.2558044 51.0680438,18.2506312 C51.0613927,18.2501609 51.0547417,18.2501609 51.0485658,18.2492203 C51.0081845,18.2449877 50.9682783,18.242166 50.927897,18.2407551 C50.9240965,18.2407551 50.9202959,18.2412254 50.9164953,18.2412254 C50.6381021,18.2369928 50.3573336,18.3127097 50.1102953,18.4721385 C50.1026941,18.4773117 50.095568,18.4824849 50.0879668,18.4876581 C50.0642131,18.503648 50.0404594,18.5186973 50.0171808,18.5365684 C47.9795899,20.0908815 45.5391364,20.9129509 42.9594864,20.9129509 C39.7232846,20.9129509 36.6163028,19.5580413 34.4285886,17.1952973 C34.1463949,16.8722071 33.721679,16.6770361 33.2546816,16.7047833 C32.7568044,16.734882 32.3335137,17.0118836 32.0988273,17.407869 C32.096452,17.4121016 32.0945517,17.4163342 32.0921763,17.4205669 C32.0712731,17.456309 32.0517951,17.4925214 32.0342173,17.5301448 C32.0285164,17.541902 32.0247159,17.5541296 32.01949,17.5663572 C32.006188,17.5964558 31.9928859,17.6265545 31.9819592,17.658064 C31.9762583,17.6740539 31.9724578,17.6900438 31.9672319,17.706504 C31.9586806,17.7342512 31.9491791,17.7615281 31.9425281,17.7897456 C31.9339768,17.8240769 31.9282759,17.8584082 31.9220999,17.8927394 C31.9206747,17.9035561 31.9178243,17.9139025 31.9163991,17.9247193 C31.9021469,18.021129 31.8988213,18.1184793 31.9045222,18.2153593 C31.9387275,18.7862931 31.9567803,19.3699248 31.9567803,19.9497941 C31.9567803,33.930147 21.6947141,45.7669116 8.24015275,48.3318809 C11.7956041,44.7788293 13.8759517,39.9291842 13.8759517,34.8058296 C13.8759517,33.0267172 13.6298635,31.2631244 13.1438631,29.5639615 C13.1063323,29.4327502 13.0502736,29.311415 12.9809129,29.2004262 C12.4046485,27.074709 12.1723375,24.8713937 12.292056,22.6328066 C12.381845,20.9538663 12.6797162,19.2880941 13.1780684,17.6829895 C13.4113296,16.9305232 12.9847135,16.1338495 12.2250707,15.9029365 C11.4640026,15.6706125 10.660178,16.0943451 10.4273919,16.8458707 C9.85967887,18.6743638 9.5200012,20.5705787 9.41833544,22.4823133 C9.25633532,25.5086386 9.66062301,28.4813506 10.6197967,31.3186187 C10.8696855,32.4595457 10.9979554,33.6282199 10.9979554,34.8058296 C10.9979554,40.650141 7.81971255,46.0777742 2.69841843,48.9921701 C2.21526851,49.2287267 1.88651753,49.7248841 1.89744422,50.2934664 C1.90076974,50.4900483 1.94447652,50.6758134 2.02001323,50.844648 C2.02571411,50.8573458 2.03284022,50.8700437 2.03901618,50.8827416 C2.05279331,50.9109591 2.06609538,50.9391766 2.08177281,50.9659832 C2.0836731,50.9697455 2.08509832,50.9730375 2.08699862,50.9763296 C2.09364965,50.9885571 2.10220097,50.9984333 2.10932708,51.0101906 C2.1288051,51.0417001 2.14923327,51.0727393 2.17108666,51.102838 C2.18913946,51.1272931 2.20719225,51.151278 2.22667027,51.1743223 C2.2371219,51.1870201 2.24852366,51.1992477 2.25992543,51.2119456 C2.53689338,51.5237488 2.93215467,51.6972863 3.3392928,51.6972863 C3.38299958,51.6972863 3.42670636,51.6930537 3.47041313,51.6888211 C9.9043358,51.5505554 15.8893138,49.4986739 20.8699862,46.0932938 C22.8016357,47.6447852 24.9689218,48.8143999 27.2697035,49.5635742 L27.2697035,52.3787386 L20.2704432,52.3787386 C9.09338505,52.3787386 0,61.3810568 0,72.4460732 L0,88.006135 L65.8333333,88.006135 L65.8333333,72.4460732 C65.8333333,68.5285457 64.6922064,64.7318832 62.5329966,61.4666499" id="Fill-16"></path>
                                </g>
                                <path d="M98.053912,26.555989 C96.9463734,27.1936066 95.5258127,26.8127648 94.8870439,25.7063405 C94.2482751,24.5999162 94.6300095,23.1807847 95.737548,22.5426586 C96.1024861,22.3326617 96.5162861,22.2258836 96.9356849,22.2335106 C97.1647255,22.2375783 97.34694,22.4257111 97.3428682,22.6545213 C97.3387963,22.8833315 97.1499651,23.0653627 96.9209245,23.061295 C96.6521835,23.0562103 96.3859874,23.1253618 96.151857,23.260614 C95.4403042,23.66993 95.1949763,24.5821199 95.6052135,25.2924484 C96.0154506,26.0037938 96.9285592,26.2483664 97.640112,25.838542 C98.3511558,25.4287175 98.5964837,24.5170361 98.1862466,23.8061992 C98.0717263,23.607897 98.1399295,23.3546804 98.3384313,23.2402754 C98.5364242,23.1263787 98.7898958,23.1945133 98.9039071,23.392307 C99.5426759,24.4987313 99.1614506,25.9178628 98.053912,26.555989" id="Fill-19" fill="#7C55FB" opacity="0.958258929"></path>
                                <path d="M89.1418138,41.8147289 C89.3125849,41.6445791 89.5885175,41.6445791 89.7592886,41.8147289 L92.5949264,44.648233 C92.7656975,44.8183827 92.7656975,45.0945274 92.5949264,45.2646771 C92.4246206,45.4352917 92.1482227,45.4352917 91.9779169,45.2646771 L89.1418138,42.4316378 C88.9715081,42.2610232 88.9715081,41.9853435 89.1418138,41.8147289" id="Fill-21" fill="#7C55FB" opacity="0.958258929"></path>
                                <path d="M89.1421628,44.6481168 L91.9778006,41.8150775 C92.1481064,41.6444629 92.4249696,41.6444629 92.5952754,41.8150775 C92.7655811,41.9852272 92.7655811,42.2613719 92.5952754,42.4315216 L89.7596376,45.2650257 C89.5888665,45.4351755 89.3124686,45.4351755 89.1421628,45.2650257 C88.9713917,45.0944111 88.9713917,44.8182665 89.1421628,44.6481168" id="Fill-23" fill="#7C55FB" opacity="0.958258929"></path>
                                <g id="Group-8" transform="translate(81.596244, 0.000000)">
                                    <path d="M0.245767543,5.17743063 C0.093772941,5.03767293 0,4.84485468 0,4.63166496 C0,4.20575929 0.375607,3.8599182 0.839319346,3.8599182 L2.78897214,3.8599182 C3.25216925,3.8599182 3.62829149,4.20575929 3.62829149,4.63166496 C3.62829149,5.05804439 3.25268449,5.40341173 2.78897214,5.40388548 L0.839319346,5.40388548 C0.607463173,5.40341173 0.39724691,5.31718833 0.245767543,5.17743063" id="Fill-25" fill="#7C55FB" opacity="0.958258929"></path>
                                    <path d="M5.88977652,5.17743063 C5.73829716,5.03767293 5.64400898,4.84485468 5.64400898,4.63166496 C5.64400898,4.20575929 6.01961598,3.8599182 6.48332833,3.8599182 L8.43298112,3.8599182 C8.89669347,3.86039196 9.27230047,4.20575929 9.27230047,4.63166496 C9.27230047,5.05804439 8.89669347,5.40341173 8.43298112,5.40388548 L6.48332833,5.40388548 C6.25147215,5.40341173 6.04177113,5.31718833 5.88977652,5.17743063" id="Fill-27" fill="#7C55FB" opacity="0.958258929"></path>
                                    <g id="Group-31" transform="translate(3.628291, 0.000000)"></g>
                                    <path d="M4.09236005,3.53317612 C3.94370088,3.39084164 3.85198574,3.1944683 3.85148181,2.9773479 L3.85148181,1.1516066 C3.85198574,0.717365798 4.21935025,0.365630752 4.67288669,0.365630752 C5.12591919,0.365630752 5.49328371,0.717365798 5.49378764,1.1516066 L5.49378764,2.9773479 C5.49378764,3.4115887 5.12591919,3.76332375 4.67288669,3.76332375 C4.44611847,3.76332375 4.24051528,3.67502812 4.09236005,3.53317612" id="Fill-29" fill="#7C55FB" opacity="0.958258929"></path>
                                    <path d="M3.86480894,9.02849228 C3.71884106,8.88296427 3.62878629,8.68218494 3.62829149,8.46019305 L3.62829149,6.59348793 C3.62878629,6.14950416 3.98950015,5.7898773 4.43482589,5.7898773 C4.87965682,5.7898773 5.24037068,6.14950416 5.24086548,6.59348793 L5.24086548,8.46019305 C5.24086548,8.90417682 4.87965682,9.26380368 4.43482589,9.26380368 C4.21216302,9.26380368 4.01028201,9.17352698 3.86480894,9.02849228" id="Fill-32" fill="#7C55FB" opacity="0.958258929"></path>
                                </g>
                                <path d="M25.0349596,4.69943644 C24.0496047,4.69943644 23.2479345,5.50029965 23.2479345,6.48466258 C23.2479345,7.46902551 24.0496047,8.27039145 25.0349596,8.27039145 C26.0203146,8.27039145 26.8224881,7.46902551 26.8224881,6.48466258 C26.8224881,5.50029965 26.0203146,4.69943644 25.0349596,4.69943644 M25.0349596,9.26380368 C23.5015703,9.26380368 22.2535211,8.017011 22.2535211,6.48466258 C22.2535211,4.95231415 23.5015703,3.70552147 25.0349596,3.70552147 C26.5688523,3.70552147 27.8169014,4.95231415 27.8169014,6.48466258 C27.8169014,8.017011 26.5688523,9.26380368 25.0349596,9.26380368" id="Fill-34" fill="#7C55FB" opacity="0.958258929"></path>
                                <path d="M18.9627635,45.392638 C18.8321298,45.392638 18.7021694,45.3428408 18.6025107,45.2439192 L17.766859,44.4081328 C17.5675415,44.2096167 17.5675415,43.8879534 17.766859,43.6887644 C17.965503,43.4902483 18.2880471,43.4902483 18.4860178,43.6887644 L19.3223429,44.5245507 C19.5216603,44.7230668 19.5216603,45.0447302 19.3223429,45.2439192 C19.2233576,45.3428408 19.0927239,45.392638 18.9627635,45.392638" id="Fill-36" fill="#7C55FB" opacity="0.958258929"></path>
                                <path d="M19.042831,43.5398773 L18.0463708,43.5398773 C17.8091725,43.5398773 17.6173709,43.3327896 17.6173709,43.0766871 C17.6173709,42.8211973 17.8091725,42.6134969 18.0463708,42.6134969 L19.042831,42.6134969 C19.279462,42.6134969 19.471831,42.8211973 19.471831,43.0766871 C19.471831,43.3327896 19.279462,43.5398773 19.042831,43.5398773" id="Fill-38" fill="#7C55FB" opacity="0.958258929"></path>
                                <path d="M18.1266992,43.5398773 C17.9967152,43.5398773 17.8660578,43.49008 17.766381,43.3911585 C17.5677009,43.1919694 17.5677009,42.8703061 17.766381,42.67179 L18.602858,41.8360036 C18.8015381,41.6374875 19.1241408,41.6374875 19.3228209,41.8360036 C19.521501,42.0345197 19.521501,42.356856 19.3228209,42.5553721 L18.4863439,43.3911585 C18.3873406,43.49008 18.2566831,43.5398773 18.1266992,43.5398773" id="Fill-40" fill="#7C55FB" opacity="0.958258929"></path>
                                <path d="M17.1537559,42.6134969 C16.8980317,42.6134969 16.6901408,42.4218711 16.6901408,42.1848901 L16.6901408,41.189343 C16.6901408,40.952362 16.8980317,40.7607362 17.1537559,40.7607362 C17.40948,40.7607362 17.6173709,40.952362 17.6173709,41.189343 L17.6173709,42.1848901 C17.6173709,42.4218711 17.40948,42.6134969 17.1537559,42.6134969" id="Fill-42" fill="#7C55FB" opacity="0.958258929"></path>
                                <path d="M16.1809347,43.5398773 C16.0509389,43.5398773 15.9202696,43.49008 15.8205838,43.3911585 L14.9847044,42.5553721 C14.7860062,42.356856 14.7860062,42.0345197 14.9847044,41.8360036 C15.1834025,41.6374875 15.5060345,41.6374875 15.7040591,41.8360036 L16.5406121,42.6711171 C16.7399838,42.8703061 16.7399838,43.1919694 16.5406121,43.3911585 C16.4415997,43.49008 16.3109304,43.5398773 16.1809347,43.5398773" id="Fill-44" fill="#7C55FB" opacity="0.958258929"></path>
                                <path d="M15.3339108,43.5398773 L14.3374507,43.5398773 C14.1008197,43.5398773 13.9084507,43.3327896 13.9084507,43.0766871 C13.9084507,42.8211973 14.1008197,42.6134969 14.3374507,42.6134969 L15.3339108,42.6134969 C15.5705418,42.6134969 15.7629108,42.8211973 15.7629108,43.0766871 C15.7629108,43.3327896 15.5705418,43.5398773 15.3339108,43.5398773" id="Fill-46" fill="#7C55FB" opacity="0.958258929"></path>
                                <path d="M15.3447482,45.392638 C15.2147879,45.392638 15.0841542,45.3428408 14.9851688,45.2439192 C14.7858514,45.0447302 14.7858514,44.7230668 14.9851688,44.5238778 L15.821494,43.6887644 C16.020138,43.4902483 16.3420087,43.4902483 16.5406528,43.6887644 C16.7399702,43.8872805 16.7399702,44.2096167 16.5406528,44.4081328 L15.705001,45.2439192 C15.6053423,45.3428408 15.4753819,45.392638 15.3447482,45.392638" id="Fill-48" fill="#7C55FB" opacity="0.958258929"></path>
                                <path d="M17.153449,45.392638 C16.8975556,45.392638 16.6901408,45.2010122 16.6901408,44.9640312 L16.6901408,43.9684841 C16.6901408,43.73207 16.8975556,43.5398773 17.153449,43.5398773 C17.4093424,43.5398773 17.6173709,43.73207 17.6173709,43.9684841 L17.6173709,44.9640312 C17.6173709,45.2010122 17.4093424,45.392638 17.153449,45.392638" id="Fill-50" fill="#7C55FB" opacity="0.958258929"></path>
                                <path d="M18.9627635,45.392638 C18.8321298,45.392638 18.7021694,45.3428408 18.6025107,45.2439192 L17.766859,44.4081328 C17.5675415,44.2096167 17.5675415,43.8879534 17.766859,43.6887644 C17.965503,43.4902483 18.2880471,43.4902483 18.4860178,43.6887644 L19.3223429,44.5245507 C19.5216603,44.7230668 19.5216603,45.0447302 19.3223429,45.2439192 C19.2233576,45.3428408 19.0927239,45.392638 18.9627635,45.392638" id="Fill-52" fill="#7C55FB" opacity="0.958258929"></path>
                                <path d="M19.042831,43.5398773 L18.0463708,43.5398773 C17.8091725,43.5398773 17.6173709,43.3327896 17.6173709,43.0766871 C17.6173709,42.8211973 17.8091725,42.6134969 18.0463708,42.6134969 L19.042831,42.6134969 C19.279462,42.6134969 19.471831,42.8211973 19.471831,43.0766871 C19.471831,43.3327896 19.279462,43.5398773 19.042831,43.5398773" id="Fill-54" fill="#7C55FB" opacity="0.958258929"></path>
                                <path d="M18.1266992,43.5398773 C17.9967152,43.5398773 17.8660578,43.49008 17.766381,43.3911585 C17.5677009,43.1919694 17.5677009,42.8703061 17.766381,42.67179 L18.602858,41.8360036 C18.8015381,41.6374875 19.1241408,41.6374875 19.3228209,41.8360036 C19.521501,42.0345197 19.521501,42.356856 19.3228209,42.5553721 L18.4863439,43.3911585 C18.3873406,43.49008 18.2566831,43.5398773 18.1266992,43.5398773" id="Fill-56" fill="#7C55FB" opacity="0.958258929"></path>
                                <path d="M17.1537559,42.6134969 C16.8980317,42.6134969 16.6901408,42.4218711 16.6901408,42.1848901 L16.6901408,41.189343 C16.6901408,40.952362 16.8980317,40.7607362 17.1537559,40.7607362 C17.40948,40.7607362 17.6173709,40.952362 17.6173709,41.189343 L17.6173709,42.1848901 C17.6173709,42.4218711 17.40948,42.6134969 17.1537559,42.6134969" id="Fill-58" fill="#7C55FB" opacity="0.958258929"></path>
                                <path d="M15.7629108,22.2334455 C15.7629108,22.7452509 15.3476385,23.1595092 14.8359978,23.1595092 C14.323089,23.1595092 13.9084507,22.7452509 13.9084507,22.2334455 C13.9084507,21.7216402 14.323089,21.3067485 14.8359978,21.3067485 C15.3476385,21.3067485 15.7629108,21.7216402 15.7629108,22.2334455" id="Fill-60" fill="#7C55FB" opacity="0.958258929"></path>
                            </g>
                            <g id="Group-11" stroke-linecap="round" stroke-linejoin="round">
                                <polygon id="Polygon-2" stroke-opacity="0.6" stroke="#7C55FB" stroke-width="2" opacity="0.329575893" transform="translate(197.000000, 225.256842) rotate(-360.000000) translate(-197.000000, -225.256842) " points="197 45.0068423 353.191285 135.131842 353.191285 315.381842 197 405.506842 40.8087157 315.381842 40.8087157 135.131842"></polygon>
                                <g id="Group-10" transform="translate(155.847418, 0.000000)">
                                    <path d="M40.5517412,-1.73126515 L82.6034824,22.5032381 L82.6034824,70.9769627 L40.5517412,95.2114659 L-1.5,70.9769627 L-1.5,22.5032381 L40.5517412,-1.73126515 Z" id="Polygon-Copy" stroke="#18A9E6" stroke-width="3" fill="#FFFFFF"></path>
                                    <path d="M197.551741,87.2687348 L239.603482,111.503238 L239.603482,159.976963 L197.551741,184.211466 L155.5,159.976963 L155.5,111.503238 L197.551741,87.2687348 Z" id="Polygon-Copy-3" stroke="#01E19A" stroke-width="3" fill="#FFFFFF"></path>
                                    <path d="M40.2617371,120.429448 L40.2617371,92.0064138" id="Line-2-Copy-2" stroke="#5880B8" stroke-width="2" opacity="0.254575893" stroke-dasharray="2,7" transform="translate(40.261737, 106.112660) scale(-1, 1) translate(-40.261737, -106.112660) "></path>
                                </g>
                                <g id="Group-10-Copy" transform="translate(286.514085, 157.932515)" opacity="0.254575893" stroke="#01E19A" stroke-dasharray="2,7" stroke-width="2">
                                    <path d="M25.9965307,14.3409168 L0.653790723,0.962582214" id="Line-2-Copy-2" transform="translate(13.325161, 7.651750) scale(-1, 1) translate(-13.325161, -7.651750) "></path>
                                </g>
                                <g id="Group-10-Copy" transform="translate(53.985915, 135.932515) scale(-1, 1) translate(-53.985915, -135.932515) translate(0.485915, 88.932515)" stroke="#FDAB00">
                                    <path d="M66.5071199,-1.7342883 L108.313827,22.5273078 L108.313827,71.0371094 L66.5071199,95.2987055 L24.7004133,71.0371094 L24.7004133,22.5273078 L66.5071199,-1.7342883 Z" id="Polygon-Copy" stroke-width="3" fill="#FFFFFF"></path>
                                    <path d="M24.5071458,84.0674847 L0.996530655,69.9625822" id="Line-2-Copy-2" stroke-width="2" opacity="0.254575893" stroke-dasharray="2,7" transform="translate(12.996531, 77.462582) scale(-1, 1) translate(-12.996531, -77.462582) "></path>
                                </g>
                                <g id="Group-10" transform="translate(195.847418, 392.500000) scale(1, -1) translate(-195.847418, -392.500000) translate(154.847418, 332.000000)">
                                    <path d="M41.2617371,-1.73126515 L83.3134783,22.5032381 L83.3134783,70.9769627 L41.2617371,95.2114659 L-0.790004089,70.9769627 L-0.790004089,22.5032381 L41.2617371,-1.73126515 Z" id="Polygon-Copy" stroke="#18A9E6" stroke-width="3" fill="#FFFFFF"></path>
                                    <path d="M40.7928245,120.429448 L40.7928245,97" id="Line-2-Copy-2" stroke="#5880B8" stroke-width="2" opacity="0.254575893" stroke-dasharray="2,7" transform="translate(41.027281, 108.795873) scale(-1, 1) translate(-41.027281, -108.795873) "></path>
                                </g>
                                <g id="Group-10-Copy" transform="translate(340.941315, 313.361963) scale(1, -1) translate(-340.941315, -313.361963) translate(287.441315, 266.361963)" stroke="#FDAB00">
                                    <path d="M66.5798899,-1.7342883 L108.386597,22.5273078 L108.386597,71.0371094 L66.5798899,95.2987055 L24.7731832,71.0371094 L24.7731832,22.5273078 L66.5798899,-1.7342883 Z" id="Polygon-Copy" stroke-width="3" fill="#FFFFFF"></path>
                                    <path d="M25.0693006,82.4145365 L0.653790723,69.9625822" id="Line-2-Copy-2" stroke-width="2" opacity="0.254575893" stroke-dasharray="2,7" transform="translate(12.861546, 76.188559) scale(-1, 1) translate(-12.861546, -76.188559) "></path>
                                </g>
                                <g id="Group-10-Copy" transform="translate(53.485915, 313.361963) scale(-1, -1) translate(-53.485915, -313.361963) translate(0.485915, 266.361963)" stroke="#01E19A">
                                    <path d="M65.5071199,-1.7342883 L107.313827,22.5273078 L107.313827,71.0371094 L65.5071199,95.2987055 L23.7004133,71.0371094 L23.7004133,22.5273078 L65.5071199,-1.7342883 Z" id="Polygon-Copy" stroke-width="3" fill="#FFFFFF"></path>
                                    <path d="M23.5071458,83.3619632 L0.996530655,69.9625822" id="Line-2-Copy-2" stroke-width="2" opacity="0.254575893" stroke-dasharray="2,7" transform="translate(12.496531, 76.962582) scale(-1, 1) translate(-12.496531, -76.962582) "></path>
                                </g>
                                <polygon id="Polygon-2" stroke="#5E04C0" stroke-width="4" points="196.542544 120 288.085089 172.803681 288.085089 278.411043 196.542544 331.214724 105 278.411043 105 172.803681 176.662689 131.467122"></polygon>
                            </g>
                        </g>
                    </g>
                    <path d="M353.5,109 C358.092742,109 362.342742,110.148186 366.25,112.444556 C370.157258,114.740927 373.259073,117.842742 375.555444,121.75 C377.851814,125.657258 379,129.907258 379,134.5 C379,139.092742 377.851814,143.342742 375.555444,147.25 C373.259073,151.157258 370.157258,154.259073 366.25,156.555444 C362.342742,158.851814 358.092742,160 353.5,160 C348.907258,160 344.657258,158.851814 340.75,156.555444 C336.842742,154.259073 333.740927,151.157258 331.444556,147.25 C329.148186,143.342742 328,139.092742 328,134.5 C328,129.907258 329.148186,125.657258 331.444556,121.75 C333.740927,117.842742 336.842742,114.740927 340.75,112.444556 C344.657258,110.148186 348.907258,109 353.5,109 Z M373.344758,124.629032 C372.042338,121.955645 370.277218,119.642137 368.049395,117.688508 C365.821572,115.734879 363.268145,114.312501 360.389113,113.421371 C362.445565,116.231854 363.95363,119.967742 364.913306,124.629032 L373.344758,124.629032 Z M362.548387,134.5 C362.548387,132.306452 362.411291,130.112903 362.137097,127.919355 L344.862903,127.919355 C344.588709,130.112903 344.451613,132.306452 344.451613,134.5 C344.451613,136.693548 344.588709,138.887097 344.862903,141.080645 L362.137097,141.080645 C362.411291,138.887097 362.548387,136.693548 362.548387,134.5 Z M353.5,112.290323 C352.060484,112.290323 350.586694,113.387097 349.078629,115.580645 C347.502017,117.842742 346.302419,120.85887 345.479839,124.629032 L361.520161,124.629032 C360.697581,120.85887 359.497983,117.842742 357.921371,115.580645 C356.413306,113.387097 354.939516,112.290323 353.5,112.290323 Z M346.610887,113.421371 C343.731855,114.312501 341.178428,115.734879 338.950605,117.688508 C336.722782,119.642137 334.957662,121.955645 333.655242,124.629032 L342.086694,124.629032 C343.04637,120.03629 344.554435,116.300403 346.610887,113.421371 Z M331.290323,134.5 C331.290323,136.762097 331.633064,138.955645 332.318548,141.080645 L341.572581,141.080645 C341.298387,138.887097 341.16129,136.710685 341.16129,134.551411 C341.16129,132.392137 341.298387,130.181452 341.572581,127.919355 L332.318548,127.919355 C331.633064,130.044355 331.290323,132.237903 331.290323,134.5 Z M333.655242,144.370968 C334.957662,147.044355 336.722782,149.357863 338.950605,151.311492 C341.178428,153.265121 343.731855,154.687499 346.610887,155.578629 C344.554435,152.768146 343.04637,149.032258 342.086694,144.370968 L333.655242,144.370968 Z M353.5,156.709677 C354.939516,156.709677 356.413306,155.612903 357.921371,153.419355 C359.497983,151.157258 360.697581,148.14113 361.520161,144.370968 L345.479839,144.370968 C346.302419,148.14113 347.502017,151.157258 349.078629,153.419355 C350.586694,155.612903 352.060484,156.709677 353.5,156.709677 Z M360.491935,155.578629 C363.302419,154.687499 365.821572,153.265121 368.049395,151.311492 C370.277218,149.357863 372.042338,147.044355 373.344758,144.370968 L364.913306,144.370968 C363.95363,148.96371 362.479838,152.699597 360.491935,155.578629 Z M365.427419,141.080645 L374.681452,141.080645 C375.366936,138.955645 375.709677,136.762097 375.709677,134.5 C375.709677,132.237903 375.366936,130.044355 374.681452,127.919355 L365.427419,127.919355 C365.701613,130.112903 365.83871,132.289315 365.83871,134.448589 C365.83871,136.607863 365.701613,138.818548 365.427419,141.080645 Z" id="globe-copy" stroke="#FFFFFF" fill="#01E19A"></path>
                    <path d="M59.4195537,116.999331 C60.0066228,119.742267 60.0066228,121.881321 59.9998975,124.02546 C59.9998975,132.696826 55.3480436,137.960928 49.2415575,141.88973 L49.2415575,150.416666 C49.2415575,151.789939 48.2444915,153.402534 47.0159769,154.016176 L38.7267224,158.165027 C38.4924033,158.281735 38.0897877,158.376463 37.8280753,158.376463 C36.7154491,158.376463 35.8124551,157.47347 35.8124551,156.360843 L35.8124551,148.57656 L34.0185236,149.465119 C33.781744,149.581828 32.2473105,150.254521 30.941373,148.949404 L26.4255833,144.437797 C25.9884391,144.005738 25.6337208,143.156136 25.6337208,142.54151 C25.6337208,142.19811 25.7570726,141.669436 25.9090478,141.361466 L26.7984271,139.562532 L19.0204591,139.562532 C17.9078328,139.562532 17.0048389,138.659538 17.0048389,137.546912 C17.0048389,137.284871 17.0997312,136.881928 17.2166857,136.647445 L21.3671771,128.349825 C21.9822135,127.122868 23.5951362,126.126212 24.9675885,126.125064 L33.4844368,126.125064 C37.4081545,120.002585 42.6521624,115.37509 51.3637982,115.37509 C53.4994895,115.37509 55.6428083,115.37509 58.3815618,115.962979 C58.8529886,116.063694 59.3181002,116.527986 59.4195537,116.999331 Z M47.1142318,138.470738 C53.3164303,134.466399 55.9686571,130.136949 55.9670168,124.02464 C55.9728399,122.566645 55.9779249,121.175903 55.7780524,119.60284 C54.2427987,119.40633 52.8755134,119.40633 51.3637982,119.40633 C45.2186827,119.40633 40.8834098,122.054374 36.9026091,128.25321 C35.3530847,131.352259 31.8542908,138.432928 29.9571014,142.270202 L33.106508,145.418788 C36.9420587,143.521517 44.0118203,140.022805 47.1142318,138.470738 Z M47.9061763,124.109444 C49.7605535,124.109444 51.2655433,125.614434 51.2655433,127.468811 C51.2655433,129.323188 49.7605535,130.828178 47.9061763,130.828178 C46.0517992,130.828178 44.5468093,129.323188 44.5468093,127.468811 C44.5468093,125.614434 46.0517992,124.109444 47.9061763,124.109444 Z" id="r" fill="#FDAB00" fill-rule="nonzero"></path>
                    <path d="M57.0040693,312.279339 C57.1065891,313.341772 57.1065891,314.408305 57.0040693,315.470738 L59.6784404,317.014521 C60.4700568,317.471513 60.8538088,318.403787 60.6171112,319.286605 C59.6593307,322.858557 57.7749358,326.05135 55.237203,328.591871 C54.5922308,329.237499 53.5932784,329.368314 52.8029742,328.911896 L50.1335241,327.370081 C49.4138355,327.885141 48.1759711,328.600729 47.370494,328.967421 L47.370494,332.054086 C47.370494,332.968234 46.7553755,333.768052 45.8719013,334.003027 C42.360313,334.937023 38.6350736,334.935711 35.1278321,334.002945 C34.3007848,333.782897 33.6294855,332.909838 33.6294035,332.054004 L33.6294035,328.967339 C32.8239264,328.600646 31.586062,327.885059 30.8663734,327.369999 L28.1969233,328.911814 C27.4066191,329.368232 26.4076667,329.237417 25.7626944,328.591789 C23.2249617,326.051268 21.3405668,322.858475 20.3827863,319.286523 C20.1460887,318.403705 20.5298406,317.471431 21.3214571,317.014439 L23.9958282,315.470656 C23.953344,315.031297 23.9189794,314.316447 23.9189794,313.874956 C23.9189794,313.433547 23.953344,312.718698 23.9958282,312.279339 L21.3214571,310.735474 C20.5298406,310.278482 20.1460887,309.346208 20.3827863,308.46339 C21.3405668,304.891356 23.2249617,301.698645 25.7626944,299.158124 C26.4076667,298.512496 27.4066191,298.381599 28.1969233,298.838098 L30.8663734,300.379913 C31.586062,299.864854 32.8239264,299.149184 33.6294035,298.782492 L33.6294035,295.695827 C33.6294035,294.781679 34.244522,293.981861 35.1279961,293.746886 C38.6395844,292.812972 42.3648239,292.81412 45.8720654,293.746968 C46.6991127,293.967016 47.3704119,294.840074 47.370494,295.695909 L47.370494,298.782574 C48.1759711,299.149266 49.4138355,299.864936 50.1335241,300.379995 L52.8029742,298.83818 C53.5932784,298.381763 54.5922308,298.512578 55.237203,299.158206 C57.7749358,301.698727 59.6593307,304.89152 60.6171112,308.463472 C60.8538088,309.34629 60.4700568,310.278564 59.6784404,310.735556 L57.0040693,312.279339 Z M52.5798913,317.5719 C53.2210087,314.101812 53.2207627,313.646788 52.5798913,310.178258 L56.260022,308.054377 C55.7078917,306.563166 54.4343504,304.361042 53.4171905,303.138843 L49.7362396,305.264364 C47.0511245,302.964313 46.6571206,302.738196 43.3393356,301.566682 L43.3393356,297.317116 C42.5613337,297.184332 41.2892688,297.076563 40.4999487,297.076563 C39.7106287,297.076563 38.4385637,297.184332 37.6605619,297.317116 L37.6605619,301.5666 C34.3424488,302.738196 33.9497572,302.963411 31.2636579,305.264282 L27.582707,303.138761 C26.3616558,304.606761 25.3992004,306.271354 24.7398755,308.054295 L28.4200062,310.178176 C27.7788888,313.648265 27.7792168,314.103452 28.4200062,317.5719 L24.7398755,319.695781 C25.2920058,321.186911 26.5656291,323.389035 27.582707,324.611234 L31.2636579,322.485713 C33.948773,324.785764 34.3427769,325.011881 37.6605619,326.183395 L37.6605619,330.432961 C38.4385637,330.565745 39.7106287,330.673514 40.4999487,330.673514 C41.2892688,330.673514 42.5613337,330.565745 43.3393356,330.432961 L43.3393356,326.183395 C46.6575306,325.011635 47.0501403,324.786584 49.7362396,322.485713 L53.4171905,324.611234 C54.4343504,323.389035 55.7078917,321.186911 56.260022,319.695781 L52.5798913,317.5719 Z M40.4999487,305.812558 C44.9456149,305.812558 48.5624295,309.429372 48.5624295,313.875038 C48.5624295,318.320705 44.9456149,321.937519 40.4999487,321.937519 C36.0542825,321.937519 32.437468,318.320705 32.437468,313.875038 C32.437468,309.429372 36.0542825,305.812558 40.4999487,305.812558 Z M40.4999487,317.906279 C42.7228229,317.906279 44.5311891,316.097913 44.5311891,313.875038 C44.5311891,311.652246 42.7228229,309.843798 40.4999487,309.843798 C38.2770746,309.843798 36.4687084,311.652246 36.4687084,313.875038 C36.4687084,316.097913 38.2770746,317.906279 40.4999487,317.906279 Z" id="c" fill="#01E19A" fill-rule="nonzero"></path>
                    <path d="M213.968657,388.062583 C216.194238,388.062583 217.999897,389.868243 217.999897,392.093824 L217.999897,421.656253 C217.999897,423.881834 216.194238,425.687494 213.968657,425.687494 L179.03124,425.687494 C176.80566,425.687494 175,423.881834 175,421.656253 L175,392.093824 C175,389.868243 176.80566,388.062583 179.03124,388.062583 L213.968657,388.062583 Z M196.499949,394.781317 C196.499949,396.267854 197.700906,397.468811 199.187442,397.468811 C200.673979,397.468811 201.874936,396.267854 201.874936,394.781317 C201.874936,393.294781 200.673979,392.093824 199.187442,392.093824 C197.700906,392.093824 196.499949,393.294781 196.499949,394.781317 Z M188.437468,394.781317 C188.437468,396.267854 189.638425,397.468811 191.124962,397.468811 C192.611498,397.468811 193.812455,396.267854 193.812455,394.781317 C193.812455,393.294781 192.611498,392.093824 191.124962,392.093824 C189.638425,392.093824 188.437468,393.294781 188.437468,394.781317 Z M180.374987,394.781317 C180.374987,396.267854 181.575944,397.468811 183.062481,397.468811 C184.549017,397.468811 185.749974,396.267854 185.749974,394.781317 C185.749974,393.294781 184.549017,392.093824 183.062481,392.093824 C181.575944,392.093824 180.374987,393.294781 180.374987,394.781317 Z M213.968657,421.152348 L213.968657,401.500051 L179.03124,401.500051 L179.03124,421.152348 C179.03124,421.42948 179.258014,421.656253 179.535145,421.656253 L213.464752,421.656253 C213.741883,421.656253 213.968657,421.42948 213.968657,421.152348 Z" id="w" fill="#18A9E6" fill-rule="nonzero"></path>
                    <g id="Group-14-Copy" transform="translate(336.000000, 294.000000)" fill="#FDAB00">
                        <path d="M18.8124551,4.40633009 C10.6519655,4.40633009 4.03124039,6.7345945 4.03124039,9.58940032 L4.03124039,9.97331626 C4.03124039,12.8280401 10.6519655,15.1563045 18.8124551,15.1563045 C26.9729448,15.1563045 33.5936699,12.8280401 33.5936699,9.97323424 L33.5936699,9.5893183 C33.5936699,6.7345945 26.9729448,4.40633009 18.8124551,4.40633009 Z M33.5936699,15.74567 C30.4179363,18.0942743 24.6055589,19.1875449 18.8124551,19.1875449 C13.0193514,19.1875449 7.20697401,18.0942743 4.03124039,15.74567 L4.03124039,17.962803 C4.03124039,20.8175268 10.6519655,23.1457912 18.8124551,23.1457912 C26.9729448,23.1457912 33.5936699,20.8175268 33.5936699,17.962803 L33.5936699,15.74567 Z M33.5936699,23.8081507 C30.4179363,26.1567551 24.6055589,27.2500256 18.8124551,27.2500256 C13.0193514,27.2500256 7.20697401,26.1567551 4.03124039,23.8080687 L4.03124039,26.0616988 C4.03124039,28.9164226 10.6519655,31.244851 18.8124551,31.244851 C26.9729448,31.244851 33.5936699,28.9165046 33.5936699,26.0617808 L33.5936699,23.8081507 Z M33.5936699,31.8706315 C30.4179363,34.2192359 24.6055589,35.3125064 18.8124551,35.3125064 C13.0193514,35.3125064 7.20697401,34.2192359 4.03124039,31.8706315 L4.03124039,34.1607586 C4.03124039,37.0154824 10.6519655,39.3437468 18.8124551,39.3437468 C26.9729448,39.3437468 33.5936699,37.0154824 33.5936699,34.1607586 L33.5936699,31.8706315 Z M18.8124551,0.375089705 C26.1165359,0.375089705 37.6249103,2.32706564 37.6249103,9.5893183 L37.6249103,34.1607586 C37.6249103,41.421535 26.1147315,43.3749872 18.8124551,43.3749872 C11.5083744,43.3749872 0,41.4230112 0,34.1606766 L0,9.5893183 C0,2.32854193 11.5101788,0.375089705 18.8124551,0.375089705 Z" id="d" fill-rule="nonzero"></path>
                        <path d="M42.5468522,29.3450578 C42.9934156,29.4211743 43.3955806,29.6298435 43.7266118,29.9608747 C44.1516614,30.3859244 44.3749729,30.9282521 44.3749729,31.5312607 L44.3749729,36.406249 C44.3749729,37.0092576 44.1516614,37.5515853 43.7266118,37.976635 C43.3015621,38.4016847 42.7592343,38.6249961 42.1562258,38.6249961 L33.2187471,38.6249961 C32.6157386,38.6249961 32.0734108,38.4016847 31.6483611,37.976635 C31.2233115,37.5515853 31,37.0092576 31,36.406249 L31,31.5312607 C31,30.9282521 31.2233115,30.3859244 31.6483611,29.9608747 C31.9793923,29.6298435 32.3815572,29.4211743 32.8281206,29.3450578 L32.8281206,28.4843929 C32.8281206,27.6132279 33.0486956,26.7954865 33.485744,26.0493067 C33.9193236,25.3090492 34.5121427,24.7162301 35.2524002,24.2826505 C35.99858,23.845602 36.8163214,23.6250271 37.6874864,23.6250271 C38.5586515,23.6250271 39.3763929,23.845602 40.1225727,24.2826505 C40.8628302,24.7162301 41.4556492,25.3090492 41.8892289,26.0493067 C42.3262773,26.7954865 42.5468522,27.6132279 42.5468522,28.4843929 L42.5468522,29.3450578 Z M38.5156071,29.3125136 L38.5156071,28.4843929 C38.5156071,28.2410494 38.4426952,28.0639776 38.2752984,27.8965809 C38.1079017,27.7291842 37.9308299,27.6562723 37.6874864,27.6562723 C37.444143,27.6562723 37.2670711,27.7291842 37.0996744,27.8965809 C36.9322777,28.0639776 36.8593658,28.2410494 36.8593658,28.4843929 L36.8593658,29.3125136 L38.5156071,29.3125136 Z" id="Lock" stroke="#FFFFFF" stroke-width="2"></path>
                    </g>
                    <path d="M193.722958,66.8079979 L193.722958,49.9875466 M198.17743,66.8079979 L198.17743,39.875212 C198.17743,38.6793509 197.177965,37.7067172 195.950528,37.7067172 C194.722423,37.7067172 193.722958,38.6793509 193.722958,39.875212 L193.722958,42.9047269 M189.268485,66.8079979 L189.268485,61.4963813 M195.950528,33.2800379 C193.682177,33.2800379 191.675224,34.4008255 190.466506,36.1102426 C189.711726,37.1785452 189.268485,38.4767189 189.268485,39.875212 L189.268485,56.1841004 M202.631903,51.3149525 L202.631903,39.875212 C202.631903,38.4767189 202.188662,37.1061291 201.433213,36.0384909 M202.631903,57.5121706 L202.631903,66.8079979 M184.814013,66.8079979 L184.814013,53.5286243 M187.256853,32.9950243 C185.728573,34.8818274 184.814013,37.2748784 184.814013,39.875212 L184.814013,46.4458046 M207.085707,66.8079979 L207.085707,39.875212 C207.085707,33.79758 202.090386,28.8533586 195.950528,28.8533586 C193.987699,28.8533586 192.142532,29.3582777 190.540045,30.2438793 M180.360209,66.8079979 L180.360209,39.8061178 M193.745019,24.5814769 C188.234256,25.3614441 183.627357,29.0194504 181.548202,33.9683224 M211.386415,37.7060528 C210.449793,31.1480832 205.329456,25.8995816 198.81789,24.6897687 M211.540179,43.7903285 L211.540179,56.1841004 M211.540179,61.4963813 L211.540179,66.8079979 M176,67 L176,54.8560302 M181.014708,26.748643 C178.442171,29.6439557 176.69996,33.2833597 176.170477,37.2888301 C176.058163,38.1358985 176,38.9995759 176,39.875212 L176,47.830346 M207.140527,23.391595 C203.951598,21.2523324 200.116192,20 196,20 C192.446049,20 189.100682,20.9341004 186.200562,22.5671152 M216,47.1998615 L216,39.875212 C216,35.1615261 214.326648,30.8178927 211.540848,27.4010517 M216,53.52796 L216,67" id="Stroke-1-Copy" stroke="#18A9E6" stroke-width="2" stroke-linecap="round" stroke-linejoin="round"></path>
                </g>
            </g>
        </g>
    </g>
</svg>