<svg width="632" height="120" fill="none" xmlns="http://www.w3.org/2000/svg"><path d="M14.832 44.117c2.047-4.177 4.511-7.456 7.393-9.837 2.883-2.38 6.35-3.571 10.401-3.571 1.379 0 2.673.167 3.885.501 1.253.293 2.339.752 3.258 1.379l-.815 9.21c-.292 1.127-.981 1.691-2.067 1.691-.585 0-1.462-.104-2.632-.313a17.916 17.916 0 00-3.76-.376c-1.962 0-3.696.293-5.2.877a11.825 11.825 0 00-4.072 2.507c-1.17 1.086-2.214 2.443-3.133 4.072-.919 1.587-1.775 3.404-2.569 5.451v39.849H3.304V31.899h7.017c1.337 0 2.235.25 2.694.752.501.46.856 1.295 1.065 2.506l.752 8.96zM89.035 56.648c0-2.423-.355-4.657-1.065-6.704-.668-2.047-1.67-3.822-3.007-5.326-1.337-1.504-2.966-2.673-4.887-3.508-1.922-.836-4.136-1.254-6.642-1.254-5.138 0-9.19 1.483-12.155 4.449-2.924 2.966-4.783 7.08-5.576 12.343h33.332zm10.088 29.824a24.777 24.777 0 01-5.2 4.574 31.132 31.132 0 01-6.266 3.07 37.883 37.883 0 01-6.892 1.754c-2.34.376-4.658.564-6.955.564-4.386 0-8.459-.731-12.218-2.193-3.717-1.504-6.954-3.676-9.711-6.516-2.715-2.882-4.846-6.433-6.391-10.651-1.504-4.261-2.256-9.148-2.256-14.662 0-4.427.69-8.542 2.068-12.343 1.378-3.843 3.342-7.184 5.89-10.025 2.59-2.84 5.743-5.075 9.46-6.704 3.718-1.629 7.895-2.443 12.531-2.443 3.885 0 7.456.647 10.714 1.942 3.3 1.253 6.14 3.091 8.521 5.514 2.381 2.422 4.24 5.409 5.577 8.96 1.378 3.55 2.067 7.601 2.067 12.154 0 1.88-.209 3.154-.626 3.822-.418.627-1.19.94-2.318.94H55.389c.126 3.801.669 7.122 1.63 9.962.96 2.799 2.276 5.138 3.947 7.018a16.078 16.078 0 006.077 4.198c2.34.919 4.95 1.378 7.832 1.378 2.715 0 5.054-.313 7.017-.94 2.005-.626 3.718-1.295 5.138-2.005 1.462-.752 2.673-1.44 3.634-2.067 1.003-.627 1.88-.94 2.632-.94 1.002 0 1.775.376 2.318 1.128l3.508 4.51zM154.233 47.312c-2.005-2.631-4.177-4.469-6.516-5.513-2.297-1.044-4.887-1.567-7.769-1.567-5.597 0-9.941 2.026-13.032 6.078-3.049 4.01-4.574 9.878-4.574 17.606 0 4.052.334 7.519 1.003 10.4.71 2.841 1.712 5.18 3.007 7.018 1.337 1.796 2.966 3.133 4.887 4.01 1.921.835 4.093 1.253 6.516 1.253 3.551 0 6.621-.794 9.21-2.38 2.59-1.588 5.013-3.823 7.268-6.705v-30.2zm12.281-44.234v92.479h-7.394c-1.712 0-2.777-.815-3.195-2.444l-1.065-7.33c-2.715 3.216-5.806 5.805-9.273 7.769-3.425 1.921-7.393 2.882-11.904 2.882-3.634 0-6.934-.71-9.9-2.13-2.924-1.42-5.43-3.488-7.518-6.203-2.089-2.757-3.697-6.161-4.825-10.213-1.128-4.052-1.692-8.709-1.692-13.972 0-4.72.627-9.106 1.88-13.158 1.253-4.051 3.07-7.56 5.451-10.526a25.377 25.377 0 018.646-6.954c3.384-1.713 7.206-2.57 11.466-2.57 3.843 0 7.101.627 9.774 1.88 2.715 1.254 5.138 3.029 7.268 5.326V3.078h12.281zM195.777 79.893c2.004 2.631 4.156 4.47 6.453 5.514 2.339 1.044 4.95 1.566 7.832 1.566 5.597 0 9.92-2.005 12.969-6.015 3.091-4.052 4.637-9.941 4.637-17.669 0-4.051-.355-7.497-1.065-10.338-.669-2.882-1.671-5.22-3.008-7.017-1.295-1.838-2.903-3.174-4.824-4.01-1.922-.877-4.094-1.316-6.516-1.316-3.551 0-6.642.794-9.273 2.381-2.59 1.588-4.992 3.843-7.205 6.767v30.137zm-.627-38.47a38.025 38.025 0 014.26-4.323 26.01 26.01 0 014.95-3.384 23.84 23.84 0 015.577-2.193c2.004-.543 4.135-.814 6.39-.814 3.634 0 6.913.71 9.837 2.13 2.966 1.42 5.493 3.509 7.581 6.266 2.089 2.756 3.697 6.16 4.825 10.212 1.169 4.052 1.754 8.71 1.754 13.972 0 4.72-.647 9.106-1.942 13.158-1.253 4.01-3.07 7.498-5.451 10.463-2.339 2.966-5.221 5.305-8.647 7.018-3.383 1.67-7.205 2.506-11.465 2.506-3.801 0-7.059-.627-9.775-1.88-2.715-1.253-5.137-3.007-7.267-5.263v27.631h-12.218V31.899h7.33c1.713 0 2.778.815 3.196 2.444l1.065 7.08zM296.212 56.648c0-2.423-.355-4.657-1.065-6.704-.668-2.047-1.671-3.822-3.007-5.326-1.337-1.504-2.966-2.673-4.887-3.508-1.922-.836-4.136-1.254-6.642-1.254-5.137 0-9.189 1.483-12.155 4.449-2.924 2.966-4.782 7.08-5.576 12.343h33.332zM306.3 86.472a24.768 24.768 0 01-5.201 4.574 31.117 31.117 0 01-6.265 3.07 37.884 37.884 0 01-6.892 1.754 43.76 43.76 0 01-6.955.564c-4.386 0-8.458-.731-12.218-2.193-3.717-1.504-6.954-3.676-9.711-6.516-2.715-2.882-4.845-6.433-6.391-10.651-1.504-4.261-2.255-9.148-2.255-14.662 0-4.427.689-8.542 2.067-12.343 1.379-3.843 3.342-7.184 5.89-10.025 2.589-2.84 5.743-5.075 9.461-6.704 3.717-1.629 7.894-2.443 12.531-2.443 3.884 0 7.456.647 10.714 1.942 3.299 1.253 6.14 3.091 8.521 5.514 2.381 2.422 4.239 5.409 5.576 8.96 1.378 3.55 2.068 7.601 2.068 12.154 0 1.88-.209 3.154-.627 3.822-.418.627-1.19.94-2.318.94h-41.728c.125 3.801.668 7.122 1.629 9.962.96 2.799 2.276 5.138 3.947 7.018a16.072 16.072 0 006.077 4.198c2.34.919 4.95 1.378 7.832 1.378 2.715 0 5.054-.313 7.018-.94 2.005-.626 3.717-1.295 5.137-2.005 1.462-.752 2.674-1.44 3.634-2.067 1.003-.627 1.88-.94 2.632-.94 1.002 0 1.775.376 2.318 1.128l3.509 4.51zM331.838 40.734a43.062 43.062 0 014.323-4.01 26.396 26.396 0 014.761-3.07 24.329 24.329 0 015.451-2.005c1.964-.502 4.052-.752 6.266-.752 3.509 0 6.579.585 9.21 1.754 2.673 1.17 4.908 2.82 6.704 4.95 1.796 2.088 3.154 4.616 4.073 7.581.919 2.966 1.378 6.245 1.378 9.837v40.538h-12.28V55.019c0-4.553-1.044-8.082-3.133-10.589-2.088-2.548-5.284-3.822-9.586-3.822-3.133 0-6.078.752-8.834 2.256-2.715 1.462-5.243 3.467-7.582 6.015v46.678h-12.217V31.899h7.33c1.713 0 2.778.815 3.196 2.444l.94 6.39zM435.102 43.804c-.376.46-.752.835-1.128 1.127-.334.251-.836.376-1.504.376s-1.378-.25-2.13-.751c-.71-.543-1.629-1.107-2.757-1.692-1.086-.627-2.423-1.19-4.01-1.692-1.545-.543-3.467-.814-5.764-.814-3.008 0-5.66.543-7.957 1.629a15.587 15.587 0 00-5.765 4.636c-1.503 2.005-2.652 4.449-3.446 7.33-.793 2.883-1.19 6.12-1.19 9.712 0 3.718.418 7.039 1.253 9.962.835 2.883 2.026 5.326 3.571 7.331 1.546 1.963 3.425 3.467 5.639 4.511 2.214 1.003 4.679 1.504 7.394 1.504 2.631 0 4.803-.313 6.516-.94 1.712-.668 3.132-1.378 4.26-2.13 1.128-.752 2.068-1.441 2.82-2.068.752-.668 1.524-1.002 2.318-1.002 1.002 0 1.775.376 2.318 1.128l3.509 4.51a23.272 23.272 0 01-4.95 4.575 27.252 27.252 0 01-5.764 3.07 32.646 32.646 0 01-6.454 1.754 40.328 40.328 0 01-6.766.564c-3.968 0-7.686-.731-11.153-2.193-3.425-1.462-6.412-3.592-8.96-6.39-2.506-2.8-4.49-6.225-5.952-10.276-1.462-4.094-2.193-8.73-2.193-13.91 0-4.72.648-9.085 1.943-13.095 1.336-4.01 3.279-7.456 5.826-10.338 2.59-2.923 5.765-5.2 9.524-6.829 3.759-1.67 8.062-2.506 12.907-2.506 4.553 0 8.563.73 12.03 2.193a29.383 29.383 0 019.273 6.203l-3.258 4.51zM463.236 31.9v63.657h-12.218V31.899h12.218zm2.318-19.674c0 1.127-.23 2.213-.689 3.258a9.219 9.219 0 01-1.88 2.694 8.75 8.75 0 01-2.694 1.817 8.692 8.692 0 01-3.258.626 8.228 8.228 0 01-3.196-.626 9.881 9.881 0 01-2.694-1.817 9.877 9.877 0 01-1.817-2.694 8.707 8.707 0 01-.626-3.258c0-1.17.209-2.256.626-3.258a8.752 8.752 0 011.817-2.695 8.304 8.304 0 012.694-1.817 7.582 7.582 0 013.196-.689c1.128 0 2.214.23 3.258.69a7.5 7.5 0 012.694 1.816 8.236 8.236 0 011.88 2.695 7.732 7.732 0 01.689 3.258zM493.456 3.078v92.479h-12.281V3.078h12.281zM508.901 88.226a8.22 8.22 0 01.627-3.195 8.61 8.61 0 011.691-2.632 8.071 8.071 0 012.632-1.754c1.002-.46 2.088-.69 3.258-.69 1.128 0 2.193.23 3.195.69a8.071 8.071 0 014.386 4.386 7.571 7.571 0 01.689 3.195c0 1.17-.229 2.256-.689 3.258a8.059 8.059 0 01-4.386 4.386 8.22 8.22 0 01-3.195.626c-1.17 0-2.256-.208-3.258-.626a8.07 8.07 0 01-2.632-1.754 8.609 8.609 0 01-1.691-2.632c-.418-1.002-.627-2.088-.627-3.258zM553.302 31.9v63.657h-12.218V31.899h12.218zm2.318-19.674c0 1.127-.23 2.213-.689 3.258a9.2 9.2 0 01-1.88 2.694 8.739 8.739 0 01-2.694 1.817 8.692 8.692 0 01-3.258.626 8.22 8.22 0 01-3.195-.626 9.85 9.85 0 01-2.694-1.817 9.854 9.854 0 01-1.817-2.694 8.688 8.688 0 01-.627-3.258c0-1.17.209-2.256.627-3.258a8.735 8.735 0 011.817-2.695 8.283 8.283 0 012.694-1.817 7.575 7.575 0 013.195-.689c1.128 0 2.214.23 3.258.69a7.49 7.49 0 012.694 1.816 8.22 8.22 0 011.88 2.695 7.732 7.732 0 01.689 3.258zM598.121 30.897c4.678 0 8.897.773 12.656 2.318 3.801 1.504 7.017 3.697 9.649 6.579 2.673 2.84 4.72 6.286 6.14 10.338 1.42 4.01 2.13 8.52 2.13 13.533s-.71 9.545-2.13 13.596c-1.42 4.052-3.467 7.498-6.14 10.339-2.632 2.84-5.848 5.033-9.649 6.578-3.759 1.504-7.978 2.256-12.656 2.256-4.72 0-8.981-.752-12.782-2.256-3.759-1.545-6.975-3.738-9.649-6.578-2.673-2.84-4.741-6.287-6.202-10.339-1.421-4.051-2.131-8.583-2.131-13.596 0-5.012.71-9.523 2.131-13.533 1.461-4.052 3.529-7.498 6.202-10.338 2.674-2.882 5.89-5.075 9.649-6.579 3.801-1.545 8.062-2.318 12.782-2.318zm0 56.013c6.015 0 10.505-2.025 13.471-6.077 2.965-4.052 4.448-9.754 4.448-17.105 0-7.352-1.483-13.053-4.448-17.105-2.966-4.093-7.456-6.14-13.471-6.14-6.099 0-10.652 2.047-13.659 6.14-2.966 4.052-4.448 9.754-4.448 17.105 0 7.351 1.482 13.053 4.448 17.105 3.007 4.052 7.56 6.077 13.659 6.077z" fill="#000"/><path d="M14.832 44.117c2.047-4.177 4.511-7.456 7.393-9.837 2.883-2.38 6.35-3.571 10.401-3.571 1.379 0 2.673.167 3.885.501 1.253.293 2.339.752 3.258 1.379l-.815 9.21c-.292 1.127-.981 1.691-2.067 1.691-.585 0-1.462-.104-2.632-.313a17.916 17.916 0 00-3.76-.376c-1.962 0-3.696.293-5.2.877a11.825 11.825 0 00-4.072 2.507c-1.17 1.086-2.214 2.443-3.133 4.072-.919 1.587-1.775 3.404-2.569 5.451v39.849H3.304V31.899h7.017c1.337 0 2.235.25 2.694.752.501.46.856 1.295 1.065 2.506l.752 8.96zM89.035 56.648c0-2.423-.355-4.657-1.065-6.704-.668-2.047-1.67-3.822-3.007-5.326-1.337-1.504-2.966-2.673-4.887-3.508-1.922-.836-4.136-1.254-6.642-1.254-5.138 0-9.19 1.483-12.155 4.449-2.924 2.966-4.783 7.08-5.576 12.343h33.332zm10.088 29.824a24.777 24.777 0 01-5.2 4.574 31.132 31.132 0 01-6.266 3.07 37.883 37.883 0 01-6.892 1.754c-2.34.376-4.658.564-6.955.564-4.386 0-8.459-.731-12.218-2.193-3.717-1.504-6.954-3.676-9.711-6.516-2.715-2.882-4.846-6.433-6.391-10.651-1.504-4.261-2.256-9.148-2.256-14.662 0-4.427.69-8.542 2.068-12.343 1.378-3.843 3.342-7.184 5.89-10.025 2.59-2.84 5.743-5.075 9.46-6.704 3.718-1.629 7.895-2.443 12.531-2.443 3.885 0 7.456.647 10.714 1.942 3.3 1.253 6.14 3.091 8.521 5.514 2.381 2.422 4.24 5.409 5.577 8.96 1.378 3.55 2.067 7.601 2.067 12.154 0 1.88-.209 3.154-.626 3.822-.418.627-1.19.94-2.318.94H55.389c.126 3.801.669 7.122 1.63 9.962.96 2.799 2.276 5.138 3.947 7.018a16.078 16.078 0 006.077 4.198c2.34.919 4.95 1.378 7.832 1.378 2.715 0 5.054-.313 7.017-.94 2.005-.626 3.718-1.295 5.138-2.005 1.462-.752 2.673-1.44 3.634-2.067 1.003-.627 1.88-.94 2.632-.94 1.002 0 1.775.376 2.318 1.128l3.508 4.51zM154.233 47.312c-2.005-2.631-4.177-4.469-6.516-5.513-2.297-1.044-4.887-1.567-7.769-1.567-5.597 0-9.941 2.026-13.032 6.078-3.049 4.01-4.574 9.878-4.574 17.606 0 4.052.334 7.519 1.003 10.4.71 2.841 1.712 5.18 3.007 7.018 1.337 1.796 2.966 3.133 4.887 4.01 1.921.835 4.093 1.253 6.516 1.253 3.551 0 6.621-.794 9.21-2.38 2.59-1.588 5.013-3.823 7.268-6.705v-30.2zm12.281-44.234v92.479h-7.394c-1.712 0-2.777-.815-3.195-2.444l-1.065-7.33c-2.715 3.216-5.806 5.805-9.273 7.769-3.425 1.921-7.393 2.882-11.904 2.882-3.634 0-6.934-.71-9.9-2.13-2.924-1.42-5.43-3.488-7.518-6.203-2.089-2.757-3.697-6.161-4.825-10.213-1.128-4.052-1.692-8.709-1.692-13.972 0-4.72.627-9.106 1.88-13.158 1.253-4.051 3.07-7.56 5.451-10.526a25.377 25.377 0 018.646-6.954c3.384-1.713 7.206-2.57 11.466-2.57 3.843 0 7.101.627 9.774 1.88 2.715 1.254 5.138 3.029 7.268 5.326V3.078h12.281zM195.777 79.893c2.004 2.631 4.156 4.47 6.453 5.514 2.339 1.044 4.95 1.566 7.832 1.566 5.597 0 9.92-2.005 12.969-6.015 3.091-4.052 4.637-9.941 4.637-17.669 0-4.051-.355-7.497-1.065-10.338-.669-2.882-1.671-5.22-3.008-7.017-1.295-1.838-2.903-3.174-4.824-4.01-1.922-.877-4.094-1.316-6.516-1.316-3.551 0-6.642.794-9.273 2.381-2.59 1.588-4.992 3.843-7.205 6.767v30.137zm-.627-38.47a38.025 38.025 0 014.26-4.323 26.01 26.01 0 014.95-3.384 23.84 23.84 0 015.577-2.193c2.004-.543 4.135-.814 6.39-.814 3.634 0 6.913.71 9.837 2.13 2.966 1.42 5.493 3.509 7.581 6.266 2.089 2.756 3.697 6.16 4.825 10.212 1.169 4.052 1.754 8.71 1.754 13.972 0 4.72-.647 9.106-1.942 13.158-1.253 4.01-3.07 7.498-5.451 10.463-2.339 2.966-5.221 5.305-8.647 7.018-3.383 1.67-7.205 2.506-11.465 2.506-3.801 0-7.059-.627-9.775-1.88-2.715-1.253-5.137-3.007-7.267-5.263v27.631h-12.218V31.899h7.33c1.713 0 2.778.815 3.196 2.444l1.065 7.08zM296.212 56.648c0-2.423-.355-4.657-1.065-6.704-.668-2.047-1.671-3.822-3.007-5.326-1.337-1.504-2.966-2.673-4.887-3.508-1.922-.836-4.136-1.254-6.642-1.254-5.137 0-9.189 1.483-12.155 4.449-2.924 2.966-4.782 7.08-5.576 12.343h33.332zM306.3 86.472a24.768 24.768 0 01-5.201 4.574 31.117 31.117 0 01-6.265 3.07 37.884 37.884 0 01-6.892 1.754 43.76 43.76 0 01-6.955.564c-4.386 0-8.458-.731-12.218-2.193-3.717-1.504-6.954-3.676-9.711-6.516-2.715-2.882-4.845-6.433-6.391-10.651-1.504-4.261-2.255-9.148-2.255-14.662 0-4.427.689-8.542 2.067-12.343 1.379-3.843 3.342-7.184 5.89-10.025 2.589-2.84 5.743-5.075 9.461-6.704 3.717-1.629 7.894-2.443 12.531-2.443 3.884 0 7.456.647 10.714 1.942 3.299 1.253 6.14 3.091 8.521 5.514 2.381 2.422 4.239 5.409 5.576 8.96 1.378 3.55 2.068 7.601 2.068 12.154 0 1.88-.209 3.154-.627 3.822-.418.627-1.19.94-2.318.94h-41.728c.125 3.801.668 7.122 1.629 9.962.96 2.799 2.276 5.138 3.947 7.018a16.072 16.072 0 006.077 4.198c2.34.919 4.95 1.378 7.832 1.378 2.715 0 5.054-.313 7.018-.94 2.005-.626 3.717-1.295 5.137-2.005 1.462-.752 2.674-1.44 3.634-2.067 1.003-.627 1.88-.94 2.632-.94 1.002 0 1.775.376 2.318 1.128l3.509 4.51zM331.838 40.734a43.062 43.062 0 014.323-4.01 26.396 26.396 0 014.761-3.07 24.329 24.329 0 015.451-2.005c1.964-.502 4.052-.752 6.266-.752 3.509 0 6.579.585 9.21 1.754 2.673 1.17 4.908 2.82 6.704 4.95 1.796 2.088 3.154 4.616 4.073 7.581.919 2.966 1.378 6.245 1.378 9.837v40.538h-12.28V55.019c0-4.553-1.044-8.082-3.133-10.589-2.088-2.548-5.284-3.822-9.586-3.822-3.133 0-6.078.752-8.834 2.256-2.715 1.462-5.243 3.467-7.582 6.015v46.678h-12.217V31.899h7.33c1.713 0 2.778.815 3.196 2.444l.94 6.39zM435.102 43.804c-.376.46-.752.835-1.128 1.127-.334.251-.836.376-1.504.376s-1.378-.25-2.13-.751c-.71-.543-1.629-1.107-2.757-1.692-1.086-.627-2.423-1.19-4.01-1.692-1.545-.543-3.467-.814-5.764-.814-3.008 0-5.66.543-7.957 1.629a15.587 15.587 0 00-5.765 4.636c-1.503 2.005-2.652 4.449-3.446 7.33-.793 2.883-1.19 6.12-1.19 9.712 0 3.718.418 7.039 1.253 9.962.835 2.883 2.026 5.326 3.571 7.331 1.546 1.963 3.425 3.467 5.639 4.511 2.214 1.003 4.679 1.504 7.394 1.504 2.631 0 4.803-.313 6.516-.94 1.712-.668 3.132-1.378 4.26-2.13 1.128-.752 2.068-1.441 2.82-2.068.752-.668 1.524-1.002 2.318-1.002 1.002 0 1.775.376 2.318 1.128l3.509 4.51a23.272 23.272 0 01-4.95 4.575 27.252 27.252 0 01-5.764 3.07 32.646 32.646 0 01-6.454 1.754 40.328 40.328 0 01-6.766.564c-3.968 0-7.686-.731-11.153-2.193-3.425-1.462-6.412-3.592-8.96-6.39-2.506-2.8-4.49-6.225-5.952-10.276-1.462-4.094-2.193-8.73-2.193-13.91 0-4.72.648-9.085 1.943-13.095 1.336-4.01 3.279-7.456 5.826-10.338 2.59-2.923 5.765-5.2 9.524-6.829 3.759-1.67 8.062-2.506 12.907-2.506 4.553 0 8.563.73 12.03 2.193a29.383 29.383 0 019.273 6.203l-3.258 4.51zM463.236 31.9v63.657h-12.218V31.899h12.218zm2.318-19.674c0 1.127-.23 2.213-.689 3.258a9.219 9.219 0 01-1.88 2.694 8.75 8.75 0 01-2.694 1.817 8.692 8.692 0 01-3.258.626 8.228 8.228 0 01-3.196-.626 9.881 9.881 0 01-2.694-1.817 9.877 9.877 0 01-1.817-2.694 8.707 8.707 0 01-.626-3.258c0-1.17.209-2.256.626-3.258a8.752 8.752 0 011.817-2.695 8.304 8.304 0 012.694-1.817 7.582 7.582 0 013.196-.689c1.128 0 2.214.23 3.258.69a7.5 7.5 0 012.694 1.816 8.236 8.236 0 011.88 2.695 7.732 7.732 0 01.689 3.258zM493.456 3.078v92.479h-12.281V3.078h12.281zM508.901 88.226a8.22 8.22 0 01.627-3.195 8.61 8.61 0 011.691-2.632 8.071 8.071 0 012.632-1.754c1.002-.46 2.088-.69 3.258-.69 1.128 0 2.193.23 3.195.69a8.071 8.071 0 014.386 4.386 7.571 7.571 0 01.689 3.195c0 1.17-.229 2.256-.689 3.258a8.059 8.059 0 01-4.386 4.386 8.22 8.22 0 01-3.195.626c-1.17 0-2.256-.208-3.258-.626a8.07 8.07 0 01-2.632-1.754 8.609 8.609 0 01-1.691-2.632c-.418-1.002-.627-2.088-.627-3.258zM553.302 31.9v63.657h-12.218V31.899h12.218zm2.318-19.674c0 1.127-.23 2.213-.689 3.258a9.2 9.2 0 01-1.88 2.694 8.739 8.739 0 01-2.694 1.817 8.692 8.692 0 01-3.258.626 8.22 8.22 0 01-3.195-.626 9.85 9.85 0 01-2.694-1.817 9.854 9.854 0 01-1.817-2.694 8.688 8.688 0 01-.627-3.258c0-1.17.209-2.256.627-3.258a8.735 8.735 0 011.817-2.695 8.283 8.283 0 012.694-1.817 7.575 7.575 0 013.195-.689c1.128 0 2.214.23 3.258.69a7.49 7.49 0 012.694 1.816 8.22 8.22 0 011.88 2.695 7.732 7.732 0 01.689 3.258zM598.121 30.897c4.678 0 8.897.773 12.656 2.318 3.801 1.504 7.017 3.697 9.649 6.579 2.673 2.84 4.72 6.286 6.14 10.338 1.42 4.01 2.13 8.52 2.13 13.533s-.71 9.545-2.13 13.596c-1.42 4.052-3.467 7.498-6.14 10.339-2.632 2.84-5.848 5.033-9.649 6.578-3.759 1.504-7.978 2.256-12.656 2.256-4.72 0-8.981-.752-12.782-2.256-3.759-1.545-6.975-3.738-9.649-6.578-2.673-2.84-4.741-6.287-6.202-10.339-1.421-4.051-2.131-8.583-2.131-13.596 0-5.012.71-9.523 2.131-13.533 1.461-4.052 3.529-7.498 6.202-10.338 2.674-2.882 5.89-5.075 9.649-6.579 3.801-1.545 8.062-2.318 12.782-2.318zm0 56.013c6.015 0 10.505-2.025 13.471-6.077 2.965-4.052 4.448-9.754 4.448-17.105 0-7.352-1.483-13.053-4.448-17.105-2.966-4.093-7.456-6.14-13.471-6.14-6.099 0-10.652 2.047-13.659 6.14-2.966 4.052-4.448 9.754-4.448 17.105 0 7.351 1.482 13.053 4.448 17.105 3.007 4.052 7.56 6.077 13.659 6.077z" stroke="#000" stroke-width="2"/><ellipse cx="517.067" cy="88.219" rx="9.34" ry="9.364" fill="red"/></svg>
