<svg version="1.1" id="el_L5-HPWknh" xmlns="http://www.w3.org/2000/svg" xmlns:xlink="http://www.w3.org/1999/xlink" x="0px" y="0px" viewBox="0 0 1440 1037" style="enable-background:new 0 0 1440 1037;" xml:space="preserve"><style>@-webkit-keyframes kf_el_i4h_SP4PYk_an_1dgkZDHdY{0%{opacity: 0;}50%{opacity: 0.3;}100%{opacity: 0;}}@keyframes kf_el_i4h_SP4PYk_an_1dgkZDHdY{0%{opacity: 0;}50%{opacity: 0.3;}100%{opacity: 0;}}@-webkit-keyframes kf_el_vud3pQaaHq_an_L_ksevaBs{0%{opacity: 0.3;}50%{opacity: 1;}100%{opacity: 0.3;}}@keyframes kf_el_vud3pQaaHq_an_L_ksevaBs{0%{opacity: 0.3;}50%{opacity: 1;}100%{opacity: 0.3;}}@-webkit-keyframes kf_el_tVps2H541T_an_AeCNXFCJK{0%{opacity: 1;}50%{opacity: 0.1;}100%{opacity: 1;}}@keyframes kf_el_tVps2H541T_an_AeCNXFCJK{0%{opacity: 1;}50%{opacity: 0.1;}100%{opacity: 1;}}#el_L5-HPWknh *{-webkit-animation-duration: 3s;animation-duration: 3s;-webkit-animation-iteration-count: infinite;animation-iteration-count: infinite;-webkit-animation-timing-function: cubic-bezier(0, 0, 1, 1);animation-timing-function: cubic-bezier(0, 0, 1, 1);}#el_i4h_SP4PYk{fill-rule: evenodd;clip-rule: evenodd;fill: #E1D6FF;stroke: #E1D6FF;stroke-width: 0.75;stroke-linecap: round;stroke-linejoin: round;stroke-miterlimit: 10;-webkit-animation-fill-mode: forwards;animation-fill-mode: forwards;opacity: 0;-webkit-animation-name: kf_el_i4h_SP4PYk_an_1dgkZDHdY;animation-name: kf_el_i4h_SP4PYk_an_1dgkZDHdY;-webkit-animation-timing-function: cubic-bezier(0.42, 0, 0.58, 1);animation-timing-function: cubic-bezier(0.42, 0, 0.58, 1);}#el_vud3pQaaHq{fill-rule: evenodd;clip-rule: evenodd;fill: #E1D6FF;stroke: #E1D6FF;stroke-width: 0.75;stroke-linecap: round;stroke-linejoin: round;stroke-miterlimit: 10;-webkit-animation-fill-mode: forwards;animation-fill-mode: forwards;opacity: 0;-webkit-animation-name: kf_el_vud3pQaaHq_an_L_ksevaBs;animation-name: kf_el_vud3pQaaHq_an_L_ksevaBs;-webkit-animation-timing-function: cubic-bezier(0, 0, 1, 1);animation-timing-function: cubic-bezier(0, 0, 1, 1);}#el_tVps2H541T{fill-rule: evenodd;clip-rule: evenodd;fill: #E1D6FF;stroke: #E1D6FF;stroke-width: 0.75;stroke-linecap: round;stroke-linejoin: round;stroke-miterlimit: 10;-webkit-animation-fill-mode: forwards;animation-fill-mode: forwards;opacity: 0;-webkit-animation-name: kf_el_tVps2H541T_an_AeCNXFCJK;animation-name: kf_el_tVps2H541T_an_AeCNXFCJK;-webkit-animation-timing-function: cubic-bezier(0.42, 0, 0.58, 1);animation-timing-function: cubic-bezier(0.42, 0, 0.58, 1);}</style>

<path id="el_i4h_SP4PYk" d="M-212.3-5.9V42l-41.5,23.9v48.2l41.7,24.1l41.5-23.9l41.2,23.8v47.9l41.5,23.9v47.6l-41.5,23.9&#10;&#9;v47.9l-41.2,23.8l-41.2-23.8v-47.9l-41.7-24.1l-41.5,23.9l-41.2-23.8v-47.9l-41.7-24.1l-41.5,23.9l-41.5-23.9l-41.7,24.1v47.9&#10;&#9;l-41.5,23.9v48.2l41.7,24.1l41.7-24.1v-47.9l41.2-23.8l41.2,23.8v47.9l41.7,24.1l41.5-23.9l41.2,23.8v47.9l41.5,23.9v47.9l41.7,24.1&#10;&#9;l41.7-24.1v-47.9l41.5-23.9v-47.9l41.2-23.8l41.2,23.8v47.9l41.5,23.9v47.9l41.7,24.1l41.7-24.1v-47.9l41.5-23.9v-47.9l41.2-23.8&#10;&#9;l41.2,23.8v47.6L202.4,425v48.2l41.7,24.1l41.7-24.1v-47.9l41.2-23.8l41.2,23.8v47.9l41.5,23.9v47.6l-41.5,23.9v48.2l0.1,0.1&#10;&#9;l41.6,24l41.7-24.1v-47.9l41.5-23.9v-47.9l41.5-23.9v-47.9l41.2-23.8l41.2,23.8v47.9l41.7,24.1l41.5-23.9l41.2,23.8v47.6L700,568.6&#10;&#9;v47.9l-41.2,23.8l-41.5-23.9l-41.7,24.1v47.9l-41.5,23.9v48.2l0.1,0.1l41.6,24l41.7-24.1v-47.9l41.2-23.8l41.5,23.9l41.7-24.1v-47.9&#10;&#9;l41.2-23.8l41.2,23.8v47.9l0.1,0.1l41.3,23.9v47.9l0.1,0.1l41.6,24l41.7-24.1v-47.9l41.5-23.9v-47.9L1032,617l41.2,23.8v47.6&#10;&#9;l-41.5,23.9v48.2l0.1,0.1l41.6,24l41.7-24.1v-47.9l41.2-23.8l41.2,23.8v47.9l0.1,0.1l41.3,23.9V832l-41.5,23.9v48.2l0.1,0.1l41.6,24&#10;&#9;l41.7-24.1v-47.9l41.5-23.9v-47.9l41.5-24v-47.9l41.2-23.8l41.2,23.8v47.9l0.1,0.1l41.3,23.9V832l-41.5,23.9v48.2l0.1,0.1l41.6,24&#10;&#9;l41.7-24.1v-47.9l41.2-23.8l41.2,23.8v47.9l0.1,0.1l41.6,24l41.5-23.9l41.2,23.8v47.9l0.1,0.1l41.6,24l41.5-23.9l41.5,23.9&#10;&#9;l41.7-24.1v-48.2l-0.1-0.1l-41.6-24l-41.5,23.9l-41.2-23.8v-47.9l-0.1-0.1l-41.6-24l-41.5,23.9l-41.2-23.8v-47.9l-0.1-0.1&#10;&#9;l-41.3-23.9v-47.9l-0.1-0.1l-41.6-24l-41.5,23.9l-41.2-23.8v-47.6l41.2-23.8l41.5,23.9l41.7-24.1v-48.2l-41.7-24.1l-41.5,23.9&#10;&#9;l-41.5-23.9l-41.7,24.1v47.9l-41.2,23.8l-41.5-23.9l-41.7,24.1v47.9l-41.2,23.8l-41.2-23.8v-47.6l41.5-23.9v-48.2l-41.7-24.1&#10;&#9;l-41.7,24.1v47.9l-41.2,23.8l-41.2-23.8v-47.9l-41.5-23.9v-47.6l41.5-23.9V425l-41.7-24.1l-41.7,24.1v47.9l-41.5,23.9v47.9&#10;&#9;l-41.5,23.9v47.9l-41.2,23.8l-41.2-23.8v-47.9l-41.5-23.9v-47.9l-41.5-23.9V425l-41.7-24.1l-41.5,23.9L659,401.1v-47.6l41.2-23.8&#10;&#9;l41.5,23.9l41.7-24.1v-47.9l41.5-23.9v-48.2l-41.7-24.1l-41.7,24.1v47.9l-41.2,23.8l-41.5-23.9L617,281.4v47.9l-41.2,23.8l-41.5-24&#10;&#9;l-41.7,24.1v47.9l-41.2,23.8l-41.2-23.8v-47.6l41.5-23.9v-48.2L410,257.3l-41.7,24.1v47.9L327,353.1l-41.2-23.8v-47.9l-41.5-23.9&#10;&#9;v-47.6l41.5-23.9v-48.2l-41.7-24.1l-41.7,24.1v47.9l-41.5,23.9v47.9l-41.5,23.9v47.9l-41.2,23.8L37,329.2v-47.9l-41.5-23.9v-47.6&#10;&#9;L37,185.9v-48.2l-41.7-24.1l-41.5,23.9l-41.2-23.8V65.9L-128.8,42V-5.9L-170.6-30L-212.3-5.9z M-211.8,42V-5.6l41.2-23.8l41.2,23.8&#10;&#9;V42l-20.6,11.9l-20.6,11.9L-211.8,42z M-170.3,113.8V66.2l20.6-11.9l20.6-11.9l41.2,23.8v47.6l-8.1,4.7l-33.1,19.1L-170.3,113.8z&#10;&#9; M-253.2,113.8V66.2l41.2-23.8l36.1,20.8l5.2,3v47.6l-41.2,23.8L-253.2,113.8z M223.5,197.5l-20.6-11.9V138l41.2-23.8l41.2,23.8&#10;&#9;v47.6l-41.2,23.8L223.5,197.5z M-45.9,185.6V138l41.2-23.8L36.5,138v47.6l-41.2,23.8L-45.9,185.6z M-128.8,185.6V138l41.2-23.8&#10;&#9;l41.2,23.8v47.6l-5.2,3l-36.1,20.8L-128.8,185.6z M762.5,269.3L742,257.4v-47.6l41.2-23.8l41.2,23.8v47.6l-41.2,23.8L762.5,269.3z&#10;&#9; M194.1,276.3l-32.7-18.9v-47.6l41.2-23.8l20.6,11.9l20.6,11.9v47.6l-20.6,11.9l-20.6,11.9L194.1,276.3z M-87.4,257.4v-47.6&#10;&#9;l41.2-23.8l3.7,2.1l37.5,21.7v47.6l-20.6,11.9l-20.6,11.9L-87.4,257.4z M-419.1,257.4v-47.6l41.2-23.8l41.2,23.8v47.6l-20.6,11.9&#10;&#9;l-20.6,11.9L-419.1,257.4z M-481.4,269.3l-20.6-11.9v-47.6l41.2-23.8l41.2,23.8v47.6l-41.2,23.8L-481.4,269.3z M700.5,329.2v-47.6&#10;&#9;l41.2-23.8l20.6,11.9l20.6,11.9v47.6l-41.2,23.8L700.5,329.2z M638.2,341.2l-20.6-11.9v-47.6l41.2-23.8l41.2,23.8v47.6l-41.2,23.8&#10;&#9;L638.2,341.2z M374.6,332.6l-5.8-3.4v-47.6l41.2-23.8l41.2,23.8v47.6L410,353.1L374.6,332.6z M202.9,329.2v-47.6l20.6-11.9&#10;&#9;l20.6-11.9l41.2,23.8v47.6l-8.2,4.8l-33,19L202.9,329.2z M140.6,341.2L120,329.2v-47.6l41.2-23.8l41.2,23.8v47.6l-41.2,23.8&#10;&#9;L140.6,341.2z M-45.9,329.2v-47.6l20.6-11.9l20.6-11.9l41.2,23.8v47.6l-20.6,11.9l-20.6,11.9L-45.9,329.2z M-108.2,341.2l-20.6-11.9&#10;&#9;v-47.6l41.2-23.8l35.9,20.8l5.3,3v47.6l-41.2,23.8L-108.2,341.2z M-294.7,329.2v-47.6l41.2-23.8l41.2,23.8v47.6l-14.6,8.5&#10;&#9;l-26.6,15.4L-294.7,329.2z M-377.6,329.2v-47.6l20.6-11.9l20.6-11.9l41.2,23.8v47.6l-41.2,23.8L-377.6,329.2z M-543.5,329.2v-47.6&#10;&#9;l41.2-23.8l20.6,11.9l20.6,11.9v47.6l-41.2,23.8L-543.5,329.2z M576.1,401.1v-47.6l41.2-23.8l20.6,11.9l20.6,11.9v47.6L637.9,413&#10;&#9;l-20.6,11.9L576.1,401.1z M513.8,413l-20.6-11.9v-47.6l41.2-23.8l41.2,23.8v47.6l-41.2,23.8L513.8,413z M327.3,401.1v-47.6&#10;&#9;l41.2-23.8l41.2,23.8v47.6L389.1,413l-20.6,11.9L327.3,401.1z M244.4,401.1v-47.6l41.2-23.8l41.2,23.8v47.6l-41.2,23.8L244.4,401.1z&#10;&#9; M86.7,405.8l-8.2-4.8v-47.6l41.2-23.8l20.6,11.9l20.6,11.9v47.6l-41.2,23.8L86.7,405.8z M-4.4,401.1v-47.6l20.6-11.9l20.6-11.9&#10;&#9;L78,353.5v47.6L57.4,413l-20.6,11.9L-4.4,401.1z M-149.7,413l-20.6-11.9v-47.6l41.2-23.8l20.6,11.9l20.6,11.9v47.6l-41.2,23.8&#10;&#9;L-149.7,413z M-253.2,401.1v-47.6l6.4-3.7l34.8-20.1l41.2,23.8v47.6l-3.7,2.1l-37.5,21.7L-253.2,401.1z M1037.4,475.9l-5.2-3v-47.6&#10;&#9;l41.2-23.8l41.2,23.8v47.6l-41.2,23.8L1037.4,475.9z M700.5,472.9v-47.6l41.2-23.8l41.2,23.8v47.6l-8.3,4.8l-32.9,19L700.5,472.9z&#10;&#9; M617.5,472.9v-47.6l20.6-11.9l20.6-11.9l41.2,23.8v47.6l-41.2,23.8L617.5,472.9z M472.3,484.8l-20.6-11.9v-47.6l41.2-23.8&#10;&#9;l20.6,11.9l20.6,11.9v47.6l-41.2,23.8L472.3,484.8z M368.8,472.9v-47.6l20.6-11.9l20.6-11.9l41.2,23.8v47.6l-8.3,4.8l-32.9,19&#10;&#9;L368.8,472.9z M202.9,472.9v-47.6l41.2-23.8l33,19.1l8.2,4.8v47.6l-41.2,23.8L202.9,472.9z M37,472.9v-47.6l20.6-11.9l20.6-11.9&#10;&#9;l41.2,23.8v47.6l-41.2,23.8L37,472.9z M-211.8,472.9v-47.6l41.2-23.8l20.6,11.9l20.6,11.9v47.6l-41.2,23.8L-211.8,472.9z&#10;&#9; M1026.8,565.5l-36.1-20.8v-47.6l41.2-23.8l41.2,23.8v47.6l-20.6,11.9l-20.6,11.9L1026.8,565.5z M742,544.7v-47.6l41.2-23.8&#10;&#9;l41.2,23.8v47.6l-20.6,11.9l-20.6,11.9L742,544.7z M414.5,547.2l-4.3-2.5v-47.6l41.2-23.8l20.6,11.9l20.6,11.9v47.6l-41.2,23.8&#10;&#9;L414.5,547.2z M1529.8,616.5v-47.6l41.2-23.8l41.2,23.8v47.6l-41.2,23.8L1529.8,616.5z M1446.9,616.5v-47.6l41.2-23.8l41.2,23.8&#10;&#9;v47.6l-41.2,23.8L1446.9,616.5z M1198.1,616.5v-47.6l41.2-23.8l41.2,23.8v47.6l-41.2,23.8L1198.1,616.5z M1032.2,616.5v-47.6&#10;&#9;l20.6-11.9l20.6-11.9l41.2,23.8v47.6l-41.2,23.8L1032.2,616.5z M949.3,616.5v-47.6l41.2-23.8l41.2,23.8v47.6l-41.2,23.8L949.3,616.5&#10;&#9;z M783.4,616.5v-47.6L804,557l20.6-11.9l41.2,23.8v47.6l-20.6,11.9l-20.6,11.9L783.4,616.5z M700.5,616.5v-47.6l41.2-23.8l32.9,19&#10;&#9;l8.3,4.8v47.6l-41.2,23.8L700.5,616.5z M368.8,616.5v-47.6l41.2-23.8l41.2,23.8v47.6L410,640.3L368.8,616.5z M1405.4,688.3v-47.6&#10;&#9;l41.2-23.8l41.2,23.8v47.6l-20.6,11.9l-20.6,11.9L1405.4,688.3z M1322.5,688.3v-47.6l41.2-23.8l41.2,23.8v47.6l-41.2,23.8&#10;&#9;L1322.5,688.3z M1156.6,688.3v-47.6l41.2-23.8l41.2,23.8v47.6l-20.6,11.9l-20.6,11.9L1156.6,688.3z M1073.7,688.3v-47.6l34.1-19.7&#10;&#9;l7.1-4.1l41.2,23.8v47.6l-41.2,23.8L1073.7,688.3z M907.8,688.3v-47.6L949,617l41.2,23.8v47.6L949,712.1L907.8,688.3z M824.9,688.3&#10;&#9;v-47.6l20.6-11.9l20.6-11.9l41.2,23.8v47.6l-41.2,23.8L824.9,688.3z M659,688.3v-47.6l41.2-23.8l41.2,23.8v47.6l-41.2,23.8&#10;&#9;L659,688.3z M576.1,688.3v-47.6l41.2-23.8l41.2,23.8v47.6l-41.2,23.8L576.1,688.3z M1529.8,760.2v-47.6l41.2-23.8l41.2,23.8v47.6&#10;&#9;l-20.6,11.9L1571,784L1529.8,760.2z M1446.9,760.2v-47.6l20.6-11.9l20.6-11.9l41.2,23.8v47.6l-41.2,23.8L1446.9,760.2z M1281,760.2&#10;&#9;v-47.6l41.2-23.8l41.2,23.8v47.6l-41.2,23.8L1281,760.2z M1198.1,760.2v-47.6l20.6-11.9l20.6-11.9l41.2,23.8v47.6l-41.2,23.8&#10;&#9;L1198.1,760.2z M1032.2,760.2v-47.6l41.2-23.8l41.2,23.8v47.6l-41.2,23.8L1032.2,760.2z M866.4,760.2v-47.6l33.5-19.4l7.7-4.4&#10;&#9;l41.2,23.8v47.6L907.6,784L866.4,760.2z M534.6,760.2v-47.6l41.2-23.8l41.2,23.8v47.6L575.8,784L534.6,760.2z M1571.3,832v-47.6&#10;&#9;l20.6-11.9l20.6-11.9l41.2,23.8V832l-20.6,11.9l-20.6,11.9L1571.3,832z M1488.3,832v-47.6l30.5-17.7l10.7-6.1l41.2,23.8V832&#10;&#9;l-41.2,23.8L1488.3,832z M1252.9,839.7l-13.3-7.7v-47.6l35.7-20.6l5.5-3.2l41.2,23.8V832l-41.2,23.8L1252.9,839.7z M1695.7,903.8&#10;&#9;v-47.6l41.2-23.8l41.2,23.8v47.6l-27.6,15.9l-13.6,7.9L1695.7,903.8z M1612.7,903.8v-47.6l20.6-11.9l20.6-11.9l41.2,23.8v47.6&#10;&#9;l-41.2,23.8L1612.7,903.8z M1446.9,903.8v-47.6l41.2-23.8l41.2,23.8v47.6l-41.2,23.8L1446.9,903.8z M1198.1,903.8v-47.6l41.2-23.8&#10;&#9;l7.6,4.4l33.6,19.4v47.6l-41.2,23.8L1198.1,903.8z M1820.1,975.6V928l41.2-23.8l41.2,23.8v47.6l-41.2,23.8L1820.1,975.6z&#10;&#9; M1737.1,975.6V928l24.8-14.3l16.4-9.5l41.2,23.8v47.6l-41.2,23.8L1737.1,975.6z"/>
<path id="el_vud3pQaaHq" d="M-460.8,41.9L-502.3,18L-544,42.1v48.2l0.1,0.1l41.6,24l41.5-23.9l41.2,23.8v47.9l0.1,0.1l41.6,24&#10;&#9;l41.5-23.9l41.2,23.8v47.9l0.1,0.1l41.3,23.9v47.9l0.1,0.1l41.6,24l41.5-23.9l41.2,23.8v47.6l-41.2,23.8l-41.5-23.9l-41.7,24.1v48.2&#10;&#9;l41.7,24.1l41.5-23.9l41.5,23.9l41.7-24.1v-47.9l41.2-23.8l41.5,23.9L37,377.5v-47.9l41.2-23.8l41.2,23.8v47.6L78,401.2v48.2&#10;&#9;l41.7,24.1l41.7-24.1v-47.9l41.2-23.8l41.2,23.8v47.9l41.5,23.9v47.6l-41.5,23.9V593l41.7,24.1l41.7-24.1v-47.9l41.5-23.9v-47.9&#10;&#9;l41.5-23.9v-47.9l41.2-23.8l41.2,23.8v47.9l41.5,23.9v47.9l41.5,23.9V593l41.7,24.1l41.5-23.9l41.2,23.8v47.6l-41.2,23.8l-41.5-23.9&#10;&#9;l-41.7,24.1v47.9l-41.5,23.9v48.2l41.7,24.1l41.7-24.1v-47.9l41.2-23.8l41.5,23.9l41.7-24.1v-47.9l41.2-23.8l41.5,23.9l41.7-24.1&#10;&#9;v-47.9l41.2-23.8l41.2,23.8v47.6l-41.5,23.9v48.2l41.7,24.1l41.7-24.1v-47.9l41.2-23.8l41.2,23.8v47.9l41.5,23.9v47.6l-41.5,23.9&#10;&#9;v48.2l41.7,24.1l41.7-24.1v-47.9l41.5-23.9v-47.9l41.5-23.9v-47.9l41.2-23.8l41.2,23.8v47.9l41.5,23.9v47.6l-41.5,23.9v48.2&#10;&#9;l41.7,24.1l41.5-23.9l41.2,23.8v47.9l41.5,23.9v47.9l41.7,24.1h0l41.7-24.1V976l41.5-23.9v-48.2l-41.7-24.1l-41.5,23.9l-41.2-23.8&#10;&#9;v-47.9l-41.5-23.9v-47.6l41.5-23.9v-47.9l41.2-23.8l41.2,23.8v47.9l41.7,24.1l41.5-23.9l41.2,23.8v47.9l41.7,24.1l41.5-23.9&#10;&#9;l41.5,23.9l41.7-24.1v-47.9l41.5-23.9v-48.2l-41.7-24.1l-41.7,24.1v47.9l-41.2,23.8l-41.2-23.8v-47.9l-41.7-24.1l-41.5,23.9&#10;&#9;l-41.2-23.8v-47.9l-41.5-23.9v-47.9l-41.7-24.1l-41.7,24.1v47.9l-41.5,23.9v47.9l-41.2,23.8l-41.2-23.8v-47.9l-41.5-23.9v-47.9&#10;&#9;l-41.7-24.1l-41.7,24.1v47.9l-41.5,23.9v47.9l-41.2,23.8l-41.2-23.8v-47.6l41.5-23.9v-48.2l-41.7-24.1l-41.7,24.1v47.9l-41.2,23.8&#10;&#9;l-41.2-23.8v-47.9l-41.5-23.9v-47.6l41.5-23.9v-48.2l-0.1-0.1l-41.6-24l-41.7,24.1v47.9L865.8,473v47.9l-41.5,23.9v47.9l-41.2,23.8&#10;&#9;L742,592.7v-47.9l-41.7-24.1l-41.5,23.9l-41.2-23.8v-47.6l41.5-23.9v-47.9l41.2-23.8l41.5,23.9l41.7-24.1v-47.9l41.5-23.9v-48.2&#10;&#9;l-0.1-0.1l-41.6-24l-41.7,24.1v47.9l-41.2,23.8l-41.5-23.9L617,329.4v47.9L575.8,401l-41.2-23.8v-47.9l-0.1-0.1l-41.4-23.9v-47.9&#10;&#9;l-0.1-0.1l-41.6-24l-41.7,24.1v47.9l-41.5,23.9v47.9L327,401l-41.2-23.8v-47.6l41.5-23.9v-48.2l-0.1-0.1l-41.6-24l-41.7,24.1v47.9&#10;&#9;l-41.2,23.8l-41.2-23.8v-47.9l-0.1-0.1L120,233.6V186l41.5-23.9v-48.2l-0.1-0.1l-41.6-24L78,113.9v47.9l-41.5,23.9v47.9l-41.5,23.9&#10;&#9;v47.9l-41.2,23.8l-41.2-23.8v-47.9l-0.1-0.1l-41.3-23.9V186l41.5-23.9v-48.2l-0.1-0.1l-41.6-24l-41.7,24.1v47.9l-41.2,23.8&#10;&#9;l-41.2-23.8v-47.9l-0.1-0.1l-41.6-24l-41.5,23.9L-377.6,90V42.1l-0.1-0.1l-41.6-24L-460.8,41.9z M-460.6,90V42.4l41.2-23.8&#10;&#9;l41.2,23.8V90l-24.8,14.3l-16.4,9.5L-460.6,90z M-543.5,90V42.4l41.2-23.8l41.2,23.8V90l-41.2,23.8L-543.5,90z M112.1,181.2&#10;&#9;l-33.6-19.4v-47.6l41.2-23.8l41.2,23.8v47.6l-41.2,23.8L112.1,181.2z M-170.3,161.8v-47.6l41.2-23.8l41.2,23.8v47.6l-41.2,23.8&#10;&#9;L-170.3,161.8z M-336.2,161.8v-47.6l41.2-23.8l41.2,23.8v47.6l-20.6,11.9l-20.6,11.9L-336.2,161.8z M-419.1,161.8v-47.6l27.6-16&#10;&#9;l13.6-7.8l41.2,23.8v47.6l-41.2,23.8L-419.1,161.8z M37,233.6V186l41.2-23.8l27.9,16.1l13.3,7.7v47.6l-35.7,20.6l-5.5,3.2L37,233.6z&#10;&#9; M-211.8,233.6V186l41.2-23.8l41.2,23.8v47.6l-30.5,17.6l-10.7,6.2L-211.8,233.6z M-294.7,233.6V186l20.6-11.9l20.6-11.9l41.2,23.8&#10;&#9;v47.6l-20.6,11.9l-20.6,11.9L-294.7,233.6z M742,305.4v-47.6l41.2-23.8l41.2,23.8v47.6l-41.2,23.8L742,305.4z M410.2,305.4v-47.6&#10;&#9;l41.2-23.8l41.2,23.8v47.6l-33.5,19.4l-7.7,4.4L410.2,305.4z M244.4,305.4v-47.6l41.2-23.8l41.2,23.8v47.6l-41.2,23.8L244.4,305.4z&#10;&#9; M78.5,305.4v-47.6l41.2-23.8l41.2,23.8v47.6l-20.6,11.9l-20.6,11.9L78.5,305.4z M-4.4,305.4v-47.6L36.8,234L78,257.8v47.6&#10;&#9;l-41.2,23.8L-4.4,305.4z M-170.3,305.4v-47.6l41.2-23.8l41.2,23.8v47.6l-20.6,11.9l-20.6,11.9L-170.3,305.4z M-253.2,305.4v-47.6&#10;&#9;l20.6-11.9L-212,234l41.2,23.8v47.6l-41.2,23.8L-253.2,305.4z M700.5,377.2v-47.6l41.2-23.8l41.2,23.8v47.6L741.7,401L700.5,377.2z&#10;&#9; M617.5,377.2v-47.6l41.2-23.8l41.2,23.8v47.6L658.8,401L617.5,377.2z M451.7,377.2v-47.6l41.2-23.8l41.2,23.8v47.6l-20.6,11.9&#10;&#9;L492.9,401L451.7,377.2z M368.8,377.2v-47.6l41.2-23.8l41.2,23.8v47.6L410,401L368.8,377.2z M202.9,377.2v-47.6l41.2-23.8l41.2,23.8&#10;&#9;v47.6l-34.1,19.7l-7.1,4.1L202.9,377.2z M120,377.2v-47.6l20.6-11.9l20.6-11.9l41.2,23.8v47.6L161.2,401L120,377.2z M-45.9,377.2&#10;&#9;v-47.6l41.2-23.8l41.2,23.8v47.6L-4.7,401L-45.9,377.2z M-128.8,377.2v-47.6l20.6-11.9l20.6-11.9l41.2,23.8v47.6L-87.6,401&#10;&#9;L-128.8,377.2z M907.8,449.1v-47.6l41.2-23.8l41.2,23.8v47.6L949,472.9L907.8,449.1z M584.4,453.9l-8.3-4.8v-47.6l41.2-23.8&#10;&#9;l41.2,23.8v47.6l-41.2,23.8L584.4,453.9z M493.1,449.1v-47.6l20.6-11.9l20.6-11.9l41.2,23.8v47.6L555,461l-20.6,11.9L493.1,449.1z&#10;&#9; M327.3,449.1v-47.6l41.2-23.8l41.2,23.8v47.6l-41.2,23.8L327.3,449.1z M244.4,449.1v-47.6l41.2-23.8l41.2,23.8v47.6L306.2,461&#10;&#9;l-20.6,11.9L244.4,449.1z M78.5,449.1v-47.6l41.2-23.8l41.2,23.8v47.6l-41.2,23.8L78.5,449.1z M-170.3,449.1v-47.6l41.2-23.8&#10;&#9;l41.2,23.8v47.6l-41.2,23.8L-170.3,449.1z M-253.2,449.1v-47.6l41.2-23.8l41.2,23.8v47.6l-41.2,23.8L-253.2,449.1z M887,532.8&#10;&#9;l-20.6-11.9v-47.6l41.2-23.8l36.9,21.3l4.3,2.5v47.6l-41.2,23.8L887,532.8z M534.6,520.9v-47.6l20.6-11.9l20.6-11.9l41.2,23.8v47.6&#10;&#9;l-41.2,23.8L534.6,520.9z M285.8,520.9v-47.6l20.6-11.9l20.6-11.9l5.2,3l36.1,20.8v47.6L327,544.7L285.8,520.9z M1508.9,604.6&#10;&#9;l-20.6-11.9v-47.6l41.2-23.8l41.2,23.8v47.6l-41.2,23.8L1508.9,604.6z M1239.5,592.7v-47.6l41.2-23.8l41.2,23.8v47.6l-20.6,11.9&#10;&#9;l-20.6,11.9L1239.5,592.7z M1081.9,597.5l-8.2-4.7v-47.6l41.2-23.8l41.2,23.8v47.6l-41.2,23.8L1081.9,597.5z M907.8,592.7v-47.6&#10;&#9;l8.3-4.8l32.9-19l41.2,23.8v47.6l-20.6,11.9L949,616.5L907.8,592.7z M845.5,604.6l-20.6-11.9v-47.6l41.2-23.8l20.6,11.9l20.6,11.9&#10;&#9;v47.6l-41.2,23.8L845.5,604.6z M659,592.7v-47.6l41.2-23.8l41.2,23.8v47.6l-20.6,11.9l-20.6,11.9L659,592.7z M576.1,592.7v-47.6&#10;&#9;l8.3-4.8l32.9-19l41.2,23.8v47.6l-41.2,23.8L576.1,592.7z M244.4,592.7v-47.6l41.2-23.8l36.1,20.8l5.1,3v47.6l-41.2,23.8&#10;&#9;L244.4,592.7z M1529.8,664.5v-47.6l3.7-2.1l37.5-21.7l41.2,23.8v47.6l-6.4,3.7l-34.8,20.1L1529.8,664.5z M1467.5,676.4l-20.6-11.9&#10;&#9;v-47.6l41.2-23.8l20.6,11.9l20.6,11.9v47.6l-41.2,23.8L1467.5,676.4z M1281,664.5v-47.6l20.6-11.9l20.6-11.9l41.2,23.8v47.6&#10;&#9;l-20.6,11.9l-20.6,11.9L1281,664.5z M1218.7,676.4l-20.6-11.9v-47.6l41.2-23.8l33,19l8.2,4.8v47.6l-41.2,23.8L1218.7,676.4z&#10;&#9; M1032.2,664.5v-47.6l41.2-23.8l41.2,23.8v47.6l-41.2,23.8L1032.2,664.5z M949.3,664.5v-47.6l20.6-11.9l20.6-11.9l41.2,23.8v47.6&#10;&#9;l-41.2,23.8L949.3,664.5z M783.4,664.5v-47.6l41.2-23.8l20.6,11.9l20.6,11.9v47.6l-41.2,23.8L783.4,664.5z M721.1,676.4l-20.6-11.9&#10;&#9;v-47.6l20.6-11.9l20.6-11.9l41.2,23.8v47.6l-41.2,23.8L721.1,676.4z M1840.7,748.2l-20.6-11.9v-47.6l41.2-23.8l41.2,23.8v47.6&#10;&#9;l-41.2,23.8L1840.7,748.2z M1654.2,736.4v-47.6l41.2-23.8l41.2,23.8v47.6l-20.6,11.9l-20.6,11.9L1654.2,736.4z M1571.3,736.4v-47.6&#10;&#9;l14.6-8.4l26.6-15.3l41.2,23.8v47.6l-41.2,23.8L1571.3,736.4z M1410.7,739.4l-5.3-3v-47.6l41.2-23.8l20.6,11.9l20.6,11.9v47.6&#10;&#9;l-41.2,23.8L1410.7,739.4z M1322.5,736.4v-47.6l20.6-11.9l20.6-11.9l41.2,23.8v47.6l-20.6,11.9l-20.6,11.9L1322.5,736.4z&#10;&#9; M1156.6,736.4v-47.6l41.2-23.8l20.6,11.9l20.6,11.9v47.6l-41.2,23.8L1156.6,736.4z M1073.7,736.4v-47.6l8.2-4.8l33-19l41.2,23.8&#10;&#9;v47.6l-20.6,11.9l-20.6,11.9L1073.7,736.4z M907.8,736.4v-47.6L949,665l35.4,20.4l5.8,3.4v47.6L949,760.1L907.8,736.4z M659,736.4&#10;&#9;v-47.6l41.2-23.8l20.6,11.9l20.6,11.9v47.6l-41.2,23.8L659,736.4z M596.7,748.2l-20.6-11.9v-47.6l41.2-23.8l41.2,23.8v47.6&#10;&#9;l-41.2,23.8L596.7,748.2z M1778.6,808.2v-47.6l41.2-23.8l20.6,11.9l20.6,11.9v47.6l-41.2,23.8L1778.6,808.2z M1695.7,808.2v-47.6&#10;&#9;l20.6-11.9l20.6-11.9l41.2,23.8v47.6l-41.2,23.8L1695.7,808.2z M1401.5,829.8l-37.5-21.7v-47.6l20.6-11.9l20.6-11.9l41.2,23.8v47.6&#10;&#9;l-41.2,23.8L1401.5,829.8z M1135.8,820.1l-20.6-11.9v-47.6l20.6-11.9l20.6-11.9l8.5,4.9l32.7,18.9v47.6l-41.2,23.8L1135.8,820.1z&#10;&#9; M534.6,808.2v-47.6l41.2-23.8l20.6,11.9l20.6,11.9v47.6L575.8,832L534.6,808.2z M1405.4,880v-47.6l5.2-3l36.1-20.8l41.2,23.8V880&#10;&#9;l-41.2,23.8L1405.4,880z M1322.5,880v-47.6l41.2-23.8l41.2,23.8V880l-41.2,23.8L1322.5,880z M1073.7,880v-47.6l41.2-23.8l20.6,11.9&#10;&#9;l20.6,11.9V880l-41.2,23.8L1073.7,880z M1535,954.8l-5.2-3v-47.6l41.2-23.8l41.2,23.8v47.6l-41.2,23.8L1535,954.8z M1446.9,951.8&#10;&#9;v-47.6l8.1-4.7l33.1-19.1l41.2,23.8v47.6l-20.6,11.9l-20.6,11.9L1446.9,951.8z M1488.3,1023.6V976l20.6-11.9l20.6-11.9l41.2,23.8&#10;&#9;v47.6l-41.2,23.8L1488.3,1023.6z"/>
<path id="el_tVps2H541T" d="M-543.8,281.2v-44.9c1.5-0.1,2.6-1.4,2.6-2.9c0-0.4-0.1-0.8-0.3-1.2l38.9-22.4l38.8,22.4&#10;&#9;c-0.2,0.4-0.3,0.8-0.3,1.2c0,1.5,1.2,2.7,2.6,2.9v44.9l-38.9,22.4c-0.5-0.7-1.4-1.2-2.3-1.2c-1,0-1.8,0.5-2.4,1.2L-543.8,281.2z&#10;&#9; M-458.7,231.8c-0.5-0.7-1.4-1.2-2.4-1.2s-1.8,0.5-2.3,1.2l-38.9-22.4v-47.6l38.9-22.4c0.5,0.7,1.4,1.2,2.3,1.2s1.8-0.5,2.4-1.2&#10;&#9;l38.9,22.4v47.6L-458.7,231.8z M-375.6,282.5c0.2-0.4,0.3-0.8,0.3-1.2c0-1.5-1.2-2.7-2.6-2.9v-44.9l20.6-11.9l20.6-11.9l38.8,22.4&#10;&#9;c-0.2,0.4-0.3,0.8-0.3,1.2c0,1.5,1.2,2.7,2.6,2.9v44.9l-41.2,23.8L-375.6,282.5z M-256.1,303.6l-38.9-22.4v-44.9&#10;&#9;c1.5-0.1,2.6-1.4,2.6-2.9c0-0.4-0.1-0.8-0.3-1.2l38.8-22.4l38.9,22.5c-0.2,0.4-0.3,0.8-0.3,1.2c0,1.5,1.2,2.7,2.6,2.9v44.9&#10;&#9;l-13.2,7.6l-25.6,14.8c-0.5-0.7-1.4-1.2-2.4-1.2C-254.8,302.4-255.6,302.9-256.1,303.6L-256.1,303.6z M-253.5,353v-44.9&#10;&#9;c1.5-0.1,2.6-1.3,2.6-2.9c0-0.4-0.1-0.9-0.3-1.2l38.9-22.4l41.2,23.8V353l-38.8,22.4c-0.5-0.7-1.4-1.2-2.4-1.2c-1,0-1.8,0.5-2.4,1.2&#10;&#9;L-253.5,353z M-212.1,424.9V380c1.5-0.1,2.6-1.3,2.6-2.9c0-0.4-0.1-0.8-0.3-1.2l33.6-19.4l5.3-3l41.2,23.8v47.6l-38.9,22.4&#10;&#9;c-0.5-0.7-1.4-1.2-2.3-1.2c-1,0-1.8,0.5-2.4,1.2L-212.1,424.9z M-90.8,353.2c0,0.4,0.1,0.9,0.3,1.2l-38.9,22.4l-41.2-23.8v-47.6&#10;&#9;l38.9-22.4c0.5,0.7,1.4,1.2,2.4,1.2c1,0,1.8-0.5,2.4-1.2l38.8,22.4v44.9C-89.7,350.4-90.8,351.7-90.8,353.2L-90.8,353.2z&#10;&#9; M-46.7,281.2L-87.9,305l-38.9-22.5c0.2-0.4,0.3-0.8,0.3-1.2c0-1.5-1.2-2.7-2.6-2.9v-44.9l38.9-22.4c0.5,0.7,1.4,1.2,2.4,1.2&#10;&#9;c1,0,1.8-0.5,2.4-1.2l38.9,22.4V281.2z M-7.4,303.6l-38.8-22.4v-47.6l20.6-11.9l18.3-10.5c0.5,0.7,1.4,1.2,2.4,1.2s1.8-0.5,2.4-1.2&#10;&#9;l38.9,22.4v47.6l-20.6,11.9l-18.3,10.5c-0.5-0.7-1.4-1.2-2.4-1.2S-6.8,302.9-7.4,303.6L-7.4,303.6z M-4.8,353v-44.9&#10;&#9;c1.5-0.1,2.6-1.3,2.6-2.9c0-0.4-0.1-0.9-0.3-1.2l18.2-10.5l20.6-11.9l38.9,22.4c-0.2,0.4-0.3,0.8-0.3,1.2c0,1.5,1.2,2.7,2.6,2.9V353&#10;&#9;l-20.6,11.9l-18.3,10.5c-0.5-0.7-1.4-1.2-2.4-1.2c-1,0-1.8,0.5-2.3,1.2L-4.8,353z M36.7,424.9V380c1.5-0.1,2.6-1.3,2.6-2.9&#10;&#9;c0-0.4-0.1-0.9-0.3-1.2l18.3-10.5l20.6-11.9l41.2,23.8v44.9c-1.5,0.1-2.6,1.4-2.6,2.9c0,0.4,0.1,0.8,0.3,1.2l-38.9,22.4L36.7,424.9z&#10;&#9; M158,353.2c0,0.4,0.1,0.9,0.3,1.2l-38.8,22.4L78.2,353v-44.9c1.5-0.1,2.6-1.3,2.6-2.9c0-0.4-0.1-0.9-0.3-1.2l38.9-22.4l41.2,23.8&#10;&#9;v44.9C159.1,350.4,158,351.7,158,353.2L158,353.2z M202.1,281.2L160.8,305l-41.2-23.8v-47.6l41.2-23.8l25.4,14.7l13.4,7.7&#10;&#9;c-0.2,0.4-0.3,0.8-0.3,1.2c0,1.5,1.2,2.7,2.6,2.9V281.2z M241.4,303.6l-38.9-22.4v-44.9c1.5-0.1,2.6-1.4,2.6-2.9&#10;&#9;c0-0.4-0.1-0.8-0.3-1.2l18.3-10.5l20.6-11.9l38.9,22.4c-0.2,0.4-0.3,0.8-0.3,1.2c0,1.5,1.2,2.7,2.6,2.9v44.9l-38.8,22.4&#10;&#9;c-0.5-0.7-1.4-1.2-2.4-1.2C242.8,302.4,241.9,302.9,241.4,303.6L241.4,303.6z M202.6,377.3l41.2-23.8l38.9,22.4&#10;&#9;c-0.2,0.4-0.3,0.8-0.3,1.2c0,1.5,1.2,2.7,2.6,2.9v44.9l-41.2,23.8l-38.9-22.4c0.2-0.4,0.3-0.8,0.3-1.2c0-1.5-1.2-2.7-2.6-2.9V377.3z&#10;&#9; M287.6,375.5c-0.5-0.7-1.4-1.2-2.4-1.2s-1.8,0.5-2.4,1.2L244,353v-44.9c1.5-0.1,2.6-1.3,2.6-2.9c0-0.4-0.1-0.9-0.3-1.2l28.3-16.4&#10;&#9;l10.5-6.1l38.9,22.4c-0.2,0.4-0.3,0.8-0.3,1.2c0,1.5,1.2,2.7,2.6,2.9V353L287.6,375.5z M368.4,377.3l20.6-11.9l18.2-10.5&#10;&#9;c0.5,0.7,1.4,1.2,2.4,1.2c1,0,1.8-0.5,2.3-1.2l38.9,22.5v44.9c-1.5,0.1-2.6,1.3-2.6,2.9c0,0.4,0.1,0.8,0.3,1.2l-38.8,22.4&#10;&#9;l-41.2-23.8V377.3z M371,520.8c0-0.4-0.1-0.9-0.3-1.2l38.9-22.4l41.2,23.8v44.9c-1.5,0.1-2.6,1.3-2.6,2.9c0,0.4,0.1,0.9,0.3,1.2&#10;&#9;l-38.8,22.4l-41.2-23.8v-44.9C369.9,523.5,371,522.3,371,520.8L371,520.8z M489.7,496.9c0,0.4,0.1,0.8,0.3,1.2l-38.9,22.4&#10;&#9;l-31.4-18.1l-9.8-5.7v-47.6l23-13.3l15.9-9.2c0.5,0.7,1.4,1.2,2.4,1.2s1.8-0.5,2.3-1.2l11.4,6.6l27.5,15.9V494&#10;&#9;C490.8,494.2,489.7,495.4,489.7,496.9L489.7,496.9z M533.7,424.9l-41.2,23.8l-38.9-22.4c0.2-0.4,0.3-0.8,0.3-1.2&#10;&#9;c0-1.5-1.2-2.7-2.6-2.9v-44.9l41.2-23.8l38.9,22.4c-0.2,0.4-0.3,0.8-0.3,1.2c0,1.5,1.2,2.7,2.6,2.9V424.9z M536.4,375.5&#10;&#9;c-0.5-0.7-1.4-1.2-2.4-1.2c-1,0-1.8,0.5-2.4,1.2L492.8,353v-47.6l41.2-23.8l38.9,22.4c-0.2,0.4-0.3,0.8-0.3,1.2&#10;&#9;c0,1.5,1.2,2.7,2.6,2.9V353L536.4,375.5z M614.6,375.5L575.7,353v-44.9c1.5-0.1,2.6-1.3,2.6-2.9c0-0.4-0.1-0.9-0.3-1.2l38.9-22.4&#10;&#9;l38.9,22.4c-0.2,0.4-0.3,0.8-0.3,1.2c0,1.5,1.2,2.7,2.6,2.9V353l-20.6,11.9l-18.3,10.5c-0.5-0.7-1.4-1.2-2.3-1.2&#10;&#9;S615.1,374.7,614.6,375.5L614.6,375.5z M617.2,424.9V380c1.5-0.1,2.6-1.3,2.6-2.9c0-0.4-0.1-0.8-0.3-1.2l18.3-10.5l20.6-11.9&#10;&#9;l41.2,23.8v44.9c-1.5,0.1-2.6,1.4-2.6,2.9c0,0.4,0.1,0.8,0.3,1.2l-38.8,22.4L617.2,424.9z M702.4,426.2c0.2-0.4,0.3-0.8,0.3-1.2&#10;&#9;c0-1.5-1.2-2.7-2.6-2.9v-44.9l38.9-22.5c0.5,0.7,1.4,1.2,2.4,1.2c1,0,1.8-0.5,2.4-1.2l38.9,22.5v44.9c-1.5,0.1-2.6,1.4-2.6,2.9&#10;&#9;c0,0.4,0.1,0.8,0.3,1.2l-38.9,22.4L702.4,426.2z M702.7,520.8c0-0.4-0.1-0.9-0.3-1.2l38.9-22.4l32.9,19l8.3,4.8v47.6l-41.2,23.8&#10;&#9;l-20.6-11.9l-20.6-11.9v-44.9C701.6,523.5,702.7,522.3,702.7,520.8L702.7,520.8z M658.6,592.8l41.2-23.8l20.6,11.9l20.6,11.9v44.9&#10;&#9;c-1.5,0.1-2.6,1.3-2.6,2.9c0,0.4,0.1,0.8,0.3,1.2l-38.9,22.4L661,641.8c0.2-0.4,0.3-0.8,0.3-1.2c0-1.5-1.2-2.7-2.6-2.9V592.8z&#10;&#9; M619.3,570.4l38.9,22.5v44.9c-1.5,0.1-2.6,1.3-2.6,2.9c0,0.4,0.1,0.8,0.3,1.2l-38.9,22.4l-31.4-18.1l-9.9-5.7v-47.6l38.9-22.5&#10;&#9;c0.5,0.7,1.4,1.2,2.4,1.2S618.8,571.1,619.3,570.4L619.3,570.4z M536.9,664.5c0-0.4-0.1-0.8-0.3-1.2l38.9-22.4l41.2,23.8v44.9&#10;&#9;c-1.5,0.1-2.6,1.3-2.6,2.9c0,0.4,0.1,0.8,0.3,1.2l-38.9,22.4l-41.2-23.8v-44.9C535.7,667.3,536.9,666,536.9,664.5L536.9,664.5z&#10;&#9; M821.9,591L783,568.6V521l20.6-11.9l18.2-10.5c0.5,0.7,1.4,1.2,2.3,1.2c1,0,1.8-0.5,2.4-1.2l38.9,22.4v47.6l-20.6,11.9L826.6,591&#10;&#9;c-0.5-0.7-1.4-1.2-2.4-1.2C823.3,589.8,822.4,590.3,821.9,591L821.9,591z M824.5,640.4v-44.9c1.5-0.1,2.6-1.3,2.6-2.8&#10;&#9;c0-0.4-0.1-0.9-0.3-1.2l18.3-10.5l20.6-11.9l38.8,22.4c-0.2,0.4-0.3,0.8-0.3,1.2c0,1.5,1.2,2.7,2.6,2.8v44.9l-5.7,3.3L868,662.9&#10;&#9;c-0.5-0.7-1.4-1.2-2.4-1.2c-1,0-1.8,0.5-2.4,1.2L824.5,640.4z M865.9,712.3v-44.9c1.5-0.1,2.6-1.3,2.6-2.8c0-0.4-0.1-0.8-0.3-1.2&#10;&#9;l38.8-22.4l38.9,22.4c-0.2,0.4-0.3,0.8-0.3,1.2c0,1.5,1.2,2.7,2.6,2.8v44.9l-38.8,22.4c-0.5-0.7-1.4-1.2-2.4-1.2&#10;&#9;c-1,0-1.8,0.5-2.3,1.2L865.9,712.3z M951,662.9c-0.5-0.7-1.4-1.2-2.4-1.2c-1,0-1.8,0.5-2.4,1.2l-35.8-20.7l-3-1.8v-44.9&#10;&#9;c1.5-0.1,2.6-1.3,2.6-2.8c0-0.4-0.1-0.9-0.3-1.2l38.9-22.4l20.6,11.9l18.3,10.5c-0.2,0.4-0.3,0.8-0.3,1.2c0,1.5,1.2,2.7,2.6,2.8&#10;&#9;v44.9L951,662.9z M992.4,591c-0.5-0.7-1.4-1.2-2.3-1.2c-1,0-1.9,0.5-2.4,1.2l-18.3-10.5l-20.6-11.9v-44.9c1.5-0.1,2.6-1.3,2.6-2.8&#10;&#9;c0-0.4-0.1-0.9-0.3-1.2l38.9-22.4l38.8,22.4c-0.2,0.4-0.3,0.8-0.3,1.2c0,1.5,1.2,2.7,2.6,2.8v44.9L992.4,591z M1070.7,591&#10;&#9;l-38.9-22.4v-44.9c1.5-0.1,2.6-1.3,2.6-2.8c0-0.4-0.1-0.9-0.3-1.2l18.3-10.5l20.6-11.9l38.9,22.4c-0.2,0.4-0.3,0.8-0.3,1.2&#10;&#9;c0,1.5,1.2,2.7,2.6,2.8v44.9l-5,2.9l-33.8,19.5c-0.5-0.7-1.4-1.2-2.3-1.2C1072,589.8,1071.2,590.3,1070.7,591L1070.7,591z&#10;&#9; M1034.4,664.5c0-0.4-0.1-0.8-0.3-1.2l38.9-22.4l35.9,20.7l5.3,3.1v44.9c-1.5,0.1-2.6,1.3-2.6,2.9c0,0.4,0.1,0.8,0.3,1.2l-38.9,22.4&#10;&#9;l-41.2-23.8v-44.9C1033.3,667.3,1034.4,666,1034.4,664.5L1034.4,664.5z M1153,640.6c0,0.4,0.1,0.8,0.3,1.2l-38.9,22.4l-41.2-23.8&#10;&#9;v-44.9c1.5-0.1,2.6-1.3,2.6-2.8c0-0.4-0.1-0.9-0.3-1.2l38.9-22.4l41.2,23.8v44.9C1154.2,637.8,1153,639.1,1153,640.6L1153,640.6z&#10;&#9; M1158.5,641.8c0.2-0.4,0.3-0.8,0.3-1.2c0-1.5-1.2-2.7-2.6-2.9v-44.9l41.2-23.8l41.2,23.8v44.9c-1.5,0.1-2.6,1.3-2.6,2.9&#10;&#9;c0,0.4,0.1,0.8,0.3,1.2l-18.3,10.5l-20.6,11.9L1158.5,641.8z M1197.6,712.3v-47.6l20.6-11.9l18.2-10.5c0.5,0.7,1.4,1.2,2.4,1.2&#10;&#9;c1,0,1.8-0.5,2.4-1.2l38.8,22.4v47.6l-3.4,2l-35.4,20.5c-0.5-0.7-1.4-1.2-2.4-1.2c-1,0-1.8,0.5-2.4,1.2L1197.6,712.3z M1200.3,808.2&#10;&#9;c0-0.4-0.1-0.9-0.3-1.2l38.9-22.4l7.1,4.1l31.8,18.4c-0.2,0.4-0.3,0.8-0.3,1.2c0,1.5,1.2,2.7,2.6,2.8V856l-38.8,22.4&#10;&#9;c-0.5-0.7-1.4-1.2-2.4-1.2c-1,0-1.8,0.5-2.4,1.2l-38.8-22.4v-44.9C1199.1,810.9,1200.3,809.7,1200.3,808.2L1200.3,808.2z&#10;&#9; M1282.7,806.6c-0.5-0.7-1.4-1.2-2.3-1.2c-1,0-1.8,0.5-2.4,1.2l-38.9-22.4v-44.9c1.5-0.1,2.6-1.4,2.6-2.9c0-0.4-0.1-0.8-0.3-1.2&#10;&#9;l38.9-22.4l20.6,11.9l20.6,11.9v47.6L1282.7,806.6z M1360.4,712.4c0,0.4,0.1,0.8,0.3,1.2l-38.9,22.4l-20.6-11.9l-20.6-11.9v-47.6&#10;&#9;l38.9-22.4c0.5,0.7,1.4,1.2,2.3,1.2c1,0,1.8-0.5,2.4-1.2l18.2,10.5l20.6,11.9v44.9C1361.5,709.7,1360.4,710.9,1360.4,712.4&#10;&#9;L1360.4,712.4z M1404.4,640.4l-41.2,23.8l-20.6-11.9l-18.2-10.5c0.2-0.4,0.3-0.8,0.3-1.2c0-1.5-1.2-2.7-2.6-2.9v-44.9l41.2-23.8&#10;&#9;l38.9,22.4c-0.2,0.4-0.3,0.8-0.3,1.2c0,1.5,1.2,2.7,2.6,2.8V640.4z M1443.8,662.9l-38.8-22.4v-44.9c1.5-0.1,2.6-1.3,2.6-2.8&#10;&#9;c0-0.4-0.1-0.9-0.3-1.2l38.9-22.4l41.2,23.8v47.6l-20.6,11.9l-18.2,10.5c-0.5-0.7-1.4-1.2-2.4-1.2&#10;&#9;C1445.2,661.6,1444.3,662.1,1443.8,662.9L1443.8,662.9z M1446.4,712.3v-44.9c1.5-0.1,2.6-1.3,2.6-2.8c0-0.4-0.1-0.8-0.3-1.2&#10;&#9;l18.2-10.5l20.6-11.9l38.9,22.4c-0.2,0.4-0.3,0.8-0.3,1.2c0,1.5,1.2,2.7,2.6,2.8v44.9l-8,4.6l-30.8,17.8c-0.5-0.7-1.4-1.2-2.4-1.2&#10;&#9;c-1,0-1.8,0.5-2.4,1.2L1446.4,712.3z M1446.4,808.4l41.2-23.8l20.6,11.9l18.2,10.5c-0.2,0.4-0.3,0.8-0.3,1.2c0,1.5,1.2,2.7,2.6,2.8&#10;&#9;V856l-41.2,23.8l-38.9-22.4c0.2-0.4,0.3-0.8,0.3-1.2c0-1.5-1.2-2.7-2.6-2.9V808.4z M1531.4,806.6c-0.5-0.7-1.4-1.2-2.4-1.2&#10;&#9;c-1,0-1.8,0.5-2.3,1.2l-18.2-10.5l-20.6-11.9v-44.9c1.5-0.1,2.6-1.4,2.6-2.9c0-0.4-0.1-0.8-0.3-1.2l38.8-22.4l20.6,11.9l18.3,10.6&#10;&#9;c-0.2,0.4-0.3,0.8-0.3,1.2c0,1.5,1.2,2.7,2.6,2.9v44.9L1531.4,806.6z M1612.3,856v-47.6l20.6-11.9l18.2-10.5&#10;&#9;c0.5,0.7,1.4,1.2,2.4,1.2c1,0,1.8-0.5,2.4-1.2l38.9,22.4v44.9c-1.5,0.1-2.6,1.4-2.6,2.9c0,0.5,0.1,0.9,0.3,1.2l-38.9,22.4&#10;&#9;L1612.3,856z M1697.5,857.3c0.2-0.4,0.3-0.8,0.3-1.2c0-1.5-1.2-2.7-2.6-2.9v-44.9l41.2-23.8l38.9,22.4c-0.2,0.4-0.3,0.8-0.3,1.2&#10;&#9;c0,1.5,1.2,2.7,2.6,2.8V856l-14.7,8.5l-26.5,15.3L1697.5,857.3z M1739,929.2c0.2-0.4,0.3-0.8,0.3-1.2c0-1.5-1.2-2.7-2.6-2.8v-44.9&#10;&#9;l6.9-4l34.3-19.8l38.8,22.4c-0.2,0.4-0.3,0.8-0.3,1.2c0,1.5,1.2,2.7,2.6,2.9v44.9l-41.2,23.8L1739,929.2z M1858.4,950.3l-38.9-22.4&#10;&#9;v-44.9c1.5-0.1,2.6-1.3,2.6-2.9c0-0.4-0.1-0.9-0.3-1.2l38.9-22.4l41.2,23.8v47.6l-38.9,22.4c-0.5-0.7-1.4-1.2-2.4-1.2&#10;&#9;C1859.8,949,1858.9,949.5,1858.4,950.3L1858.4,950.3z M1653.2,736.5v44.9c-1.5,0.1-2.6,1.4-2.6,2.9c0,0.4,0.1,0.8,0.3,1.2&#10;&#9;l-18.2,10.6l-20.6,11.9l-41.2-23.8v-44.9c1.5-0.1,2.6-1.4,2.6-2.9c0-0.4-0.1-0.8-0.3-1.2l18.3-10.6l20.6-11.9L1653.2,736.5z&#10;&#9; M1609.4,663.3c-0.2,0.4-0.3,0.8-0.3,1.2c0,1.5,1.2,2.7,2.6,2.8v44.9l-20.6,11.9l-18.2,10.5c-0.5-0.7-1.4-1.2-2.4-1.2&#10;&#9;s-1.8,0.5-2.4,1.2l-18.2-10.5l-20.6-11.9v-44.9c1.5-0.1,2.6-1.3,2.6-2.8c0-0.4-0.1-0.8-0.3-1.2l38.9-22.4L1609.4,663.3z&#10;&#9; M1526.2,568.7c0,0.4,0.1,0.8,0.3,1.2l-38.9,22.4l-38.9-22.5l-2.3-1.3V521l38.9-22.4c0.5,0.7,1.4,1.2,2.4,1.2c1,0,1.8-0.5,2.3-1.2&#10;&#9;l38.9,22.4v44.9C1527.4,566,1526.2,567.2,1526.2,568.7L1526.2,568.7z M1531.7,569.9c0.2-0.4,0.3-0.8,0.3-1.2c0-1.5-1.1-2.7-2.6-2.9&#10;&#9;V521l41.2-23.8l38.9,22.4c-0.2,0.4-0.3,0.8-0.3,1.2c0,1.5,1.2,2.7,2.6,2.8v44.9l-41.2,23.8L1531.7,569.9z M1277.4,568.7&#10;&#9;c0,0.4,0.1,0.8,0.3,1.2l-38.9,22.4l-39.8-23l-1.4-0.8V521l38.8-22.4c0.5,0.7,1.4,1.2,2.4,1.2c1,0,1.8-0.5,2.4-1.2l38.8,22.4v44.9&#10;&#9;C1278.6,566,1277.4,567.2,1277.4,568.7L1277.4,568.7z M1075.4,447.3c-0.5-0.7-1.4-1.2-2.3-1.2c-1,0-1.8,0.5-2.4,1.2l-38.9-22.4&#10;&#9;v-47.6l38.9-22.5c0.5,0.7,1.4,1.2,2.4,1.2c1,0,1.8-0.5,2.3-1.2l38.9,22.5v47.6L1075.4,447.3z M993,449c0-0.4-0.1-0.8-0.3-1.2&#10;&#9;l38.8-22.5l38.9,22.5c-0.2,0.4-0.3,0.8-0.3,1.2c0,1.5,1.2,2.7,2.6,2.9v44.9l-20.6,11.9l-18.2,10.5c-0.5-0.7-1.4-1.2-2.4-1.2&#10;&#9;c-1,0-1.8,0.5-2.3,1.2l-2.8-1.6l-36.1-20.8v-44.9C991.8,451.7,993,450.5,993,449L993,449z M824,449.1V494c-1.5,0.1-2.6,1.4-2.6,2.9&#10;&#9;c0,0.4,0.1,0.8,0.3,1.2l-18.2,10.5l-20.6,11.9l-41.2-23.8v-47.6l23-13.3l15.9-9.2c0.5,0.7,1.4,1.2,2.4,1.2s1.8-0.5,2.4-1.2&#10;&#9;L824,449.1z M660.7,303.6c-0.5-0.7-1.4-1.2-2.4-1.2c-1,0-1.8,0.5-2.4,1.2l-38.9-22.4v-47.6l41.2-23.8l38.8,22.4&#10;&#9;c-0.2,0.4-0.3,0.8-0.3,1.2c0,1.5,1.2,2.7,2.6,2.9v44.9L660.7,303.6z M741.3,305l-41.2-23.8v-44.9c1.5-0.1,2.6-1.4,2.6-2.9&#10;&#9;c0-0.4-0.1-0.8-0.3-1.2l38.9-22.4l41.2,23.8v44.9c-1.5,0.1-2.6,1.3-2.6,2.9c0,0.4,0.1,0.8,0.3,1.2L741.3,305z M821.4,209.5&#10;&#9;c0,0.4,0.1,0.9,0.3,1.2l-38.8,22.4l-41.2-23.8v-44.9c1.5-0.1,2.6-1.4,2.6-2.9c0-0.4-0.1-0.9-0.3-1.2l38.9-22.4l41.2,23.8v44.9&#10;&#9;C822.5,206.8,821.4,208,821.4,209.5L821.4,209.5z M448.2,281.3c0,0.4,0.1,0.8,0.3,1.2L409.6,305l-41.2-23.8v-44.9&#10;&#9;c1.5-0.1,2.6-1.4,2.6-2.9c0-0.4-0.1-0.8-0.3-1.2l38.9-22.4l41.2,23.8v44.9C449.4,278.6,448.2,279.8,448.2,281.3L448.2,281.3z&#10;&#9; M329.6,305.3c0-0.4-0.1-0.9-0.3-1.2l38.9-22.4l41.2,23.8v44.9c-1.5,0.1-2.6,1.4-2.6,2.9c0,0.4,0.1,0.8,0.3,1.2l-18.3,10.5&#10;&#9;l-20.6,11.9L326.9,353v-44.9C328.4,308,329.6,306.8,329.6,305.3L329.6,305.3z M282.3,137.6c0,0.4,0.1,0.8,0.3,1.2l-38.9,22.4&#10;&#9;l-41.2-23.8V89.9l38.9-22.4c0.5,0.7,1.4,1.2,2.4,1.2c1,0,1.8-0.5,2.4-1.2L285,89.9v44.9C283.5,134.9,282.3,136.1,282.3,137.6&#10;&#9;L282.3,137.6z M163.7,161.6c0-0.4-0.1-0.9-0.3-1.2l38.9-22.4l41.2,23.8v47.6l-20.6,11.9l-18.2,10.5c-0.5-0.7-1.4-1.2-2.4-1.2&#10;&#9;c-1,0-1.8,0.5-2.4,1.2l-8.6-5l-30.3-17.5v-44.9C162.6,164.3,163.7,163.1,163.7,161.6L163.7,161.6z M33.6,137.6&#10;&#9;c0,0.4,0.1,0.9,0.3,1.2L-5,161.3l-34.8-20.1l-6.4-3.7V92.6c1.5-0.1,2.6-1.4,2.6-2.9c0-0.4-0.1-0.9-0.3-1.2L-5,66.1l41.2,23.8v44.9&#10;&#9;C34.7,134.9,33.6,136.1,33.6,137.6L33.6,137.6z M-49.1,88.5c-0.2,0.4-0.3,0.8-0.3,1.2c0,1.5,1.2,2.7,2.6,2.9v44.9l-41.2,23.8&#10;&#9;l-38.9-22.4c0.2-0.4,0.3-0.8,0.3-1.2c0-1.5-1.2-2.7-2.6-2.9V89.9l30.6-17.7l10.6-6.1L-49.1,88.5z M-90.5,16.7&#10;&#9;c-0.2,0.4-0.3,0.8-0.3,1.2c0,1.5,1.2,2.7,2.6,2.9v44.9l-41.2,23.8L-168.2,67c0.2-0.4,0.3-0.8,0.3-1.2c0-1.5-1.2-2.7-2.6-2.9V18&#10;&#9;L-150,6.1l20.6-11.9L-90.5,16.7z M-132-55.2c-0.2,0.4-0.3,0.8-0.3,1.2c0,1.5,1.2,2.7,2.6,2.9v44.9l-20.6,11.9l-20.6,11.9l-38.9-22.4&#10;&#9;c0.2-0.4,0.3-0.8,0.3-1.2c0-1.5-1.2-2.7-2.6-2.9v-44.9l41.2-23.8L-132-55.2z M-214.7-4.4c0.5,0.7,1.4,1.2,2.4,1.2&#10;&#9;c1,0,1.8-0.5,2.4-1.2l38.8,22.4v44.9c-1.5,0.1-2.6,1.3-2.6,2.9c0,0.4,0.1,0.8,0.3,1.2l-38.9,22.5L-251.2,67c0.2-0.4,0.3-0.8,0.3-1.2&#10;&#9;c0-1.5-1.2-2.7-2.6-2.9V18L-214.7-4.4z M-25.9,221.2l-20.6,11.9l-38.9-22.4c0.2-0.4,0.3-0.8,0.3-1.2c0-1.5-1.2-2.7-2.6-2.9v-44.9&#10;&#9;l34.2-19.7l7.1-4.1l2.5,1.5l38.7,22.3v44.9c-1.5,0.1-2.6,1.3-2.6,2.9c0,0.4,0.1,0.9,0.3,1.2L-25.9,221.2z M-339.3,160.4&#10;&#9;c-0.2,0.4-0.3,0.8-0.3,1.2c0,1.5,1.2,2.7,2.6,2.9v44.9l-20.6,11.9l-20.6,11.9l-41.2-23.8v-47.6l41.2-23.8L-339.3,160.4z&#10;&#9; M-544.3,236.3v45.2l0.1,0.1l39,22.5c-0.2,0.4-0.3,0.8-0.3,1.2c0,1.6,1.3,2.9,2.9,2.9c1.6,0,2.9-1.3,2.9-2.9c0-0.4-0.1-0.9-0.3-1.2&#10;&#9;l39.1-22.6v-45.2c1.5-0.1,2.6-1.4,2.6-2.9c0-0.4-0.1-0.8-0.3-1.2l38.8-22.4l41.2,23.8v44.9c-1.5,0.1-2.6,1.3-2.6,2.9&#10;&#9;c0,1.6,1.3,2.9,2.9,2.9c1,0,1.8-0.5,2.4-1.2l39.1,22.6l41.5-23.9l38.9,22.4c-0.2,0.4-0.3,0.8-0.3,1.2c0,1.5,1.2,2.7,2.6,2.9v45.2&#10;&#9;l0.1,0.1l39,22.5c-0.2,0.4-0.3,0.8-0.3,1.2c0,1.5,1.2,2.7,2.6,2.9v45.2l0.1,0.1l39,22.5c-0.2,0.4-0.3,0.8-0.3,1.2&#10;&#9;c0,1.6,1.3,2.9,2.9,2.9c1.6,0,2.9-1.3,2.9-2.9c0-0.4-0.1-0.8-0.3-1.2l39.1-22.6v-47.9l38.9-22.5c0.5,0.7,1.4,1.2,2.3,1.2&#10;&#9;c1.6,0,2.9-1.3,2.9-2.9c0-1.5-1.2-2.7-2.6-2.9v-44.9l41.2-23.8l38.8,22.4c-0.2,0.4-0.3,0.8-0.3,1.2c0,1.5,1.2,2.7,2.6,2.9v45.2&#10;&#9;l0.1,0.1l39,22.5c-0.2,0.4-0.3,0.8-0.3,1.2c0,1.5,1.2,2.7,2.6,2.9v45.2l0.1,0.1l41.6,24l39.1-22.6c0.5,0.7,1.4,1.2,2.4,1.2&#10;&#9;c1.6,0,2.9-1.3,2.9-2.9c0-1.5-1.2-2.7-2.6-2.9v-44.9l38.9-22.5c0.5,0.7,1.4,1.2,2.4,1.2c1.6,0,2.9-1.3,2.9-2.9&#10;&#9;c0-1.5-1.2-2.7-2.6-2.9v-44.9l41.2-23.8l38.9,22.4c-0.2,0.4-0.3,0.8-0.3,1.2c0,1.5,1.2,2.7,2.6,2.9V353L202.1,377v45.2&#10;&#9;c-1.5,0.1-2.6,1.3-2.6,2.9c0,1.6,1.3,2.9,2.9,2.9c1,0,1.8-0.5,2.4-1.2l39.1,22.6l41.7-24.1V380c1.5-0.1,2.6-1.3,2.6-2.9&#10;&#9;c0-0.4-0.1-0.9-0.3-1.2l38.9-22.4l41.2,23.8v47.9l0.1,0.1l41.3,23.9v47.6l-38.8,22.4c-0.5-0.7-1.4-1.2-2.4-1.2&#10;&#9;c-1.6,0-2.9,1.3-2.9,2.9c0,1.5,1.2,2.7,2.6,2.8v45.2l41.7,24.1l39.1-22.6c0.5,0.7,1.4,1.2,2.4,1.2c1.6,0,2.9-1.3,2.9-2.9&#10;&#9;c0-1.5-1.2-2.7-2.6-2.9V521l38.9-22.4c0.5,0.7,1.4,1.2,2.3,1.2c1.6,0,2.9-1.3,2.9-2.9c0-1.5-1.2-2.7-2.6-2.9v-44.9l41.5-23.9V380&#10;&#9;c1.5-0.1,2.6-1.3,2.6-2.9c0-0.4-0.1-0.9-0.3-1.2l38.9-22.4l38.9,22.4c-0.2,0.4-0.3,0.8-0.3,1.2c0,1.5,1.2,2.7,2.6,2.9v45.2l0.1,0.1&#10;&#9;l41.6,24l39.1-22.6c0.5,0.7,1.4,1.2,2.3,1.2c1,0,1.8-0.5,2.4-1.2l38.9,22.4v47.6l-38.9,22.4c-0.5-0.7-1.4-1.2-2.4-1.2&#10;&#9;c-1.6,0-2.9,1.3-2.9,2.9c0,1.5,1.2,2.7,2.6,2.8v44.9l-41.2,23.8l-38.9-22.4c0.2-0.4,0.3-0.8,0.3-1.2c0-1.6-1.3-2.9-2.9-2.9&#10;&#9;c-1.6,0-2.9,1.3-2.9,2.9c0,0.4,0.1,0.8,0.3,1.2l-39.1,22.6v47.9l-38.8,22.4c-0.5-0.7-1.4-1.2-2.4-1.2c-1.6,0-2.9,1.3-2.9,2.9&#10;&#9;c0,1.5,1.2,2.7,2.6,2.8v45.2l41.7,24.1l39.1-22.6c0.5,0.7,1.4,1.2,2.4,1.2c1.6,0,2.9-1.3,2.9-2.9c0-1.5-1.2-2.7-2.6-2.9v-44.9&#10;&#9;l38.9-22.4c0.5,0.7,1.4,1.2,2.4,1.2c1,0,1.8-0.5,2.4-1.2l39.1,22.6l39.1-22.6c0.5,0.7,1.4,1.2,2.4,1.2c1.6,0,2.9-1.3,2.9-2.9&#10;&#9;c0-1.5-1.2-2.7-2.6-2.9v-44.9l41.2-23.8l38.8,22.4c-0.2,0.4-0.3,0.8-0.3,1.2c0,1.5,1.2,2.7,2.6,2.8v45.2l39.1,22.6&#10;&#9;c-0.2,0.4-0.3,0.8-0.3,1.2c0,1.5,1.1,2.7,2.6,2.8v45.2l39.1,22.6c-0.2,0.4-0.3,0.8-0.3,1.2c0,1.6,1.3,2.9,2.9,2.9&#10;&#9;c1.6,0,2.9-1.3,2.9-2.9c0-0.4-0.1-0.8-0.3-1.2l39.1-22.6v-45.2c1.5-0.1,2.6-1.3,2.6-2.8c0-0.4-0.1-0.8-0.3-1.2l39.1-22.6v-45.2&#10;&#9;c1.5-0.1,2.6-1.3,2.6-2.8c0-0.4-0.1-0.9-0.3-1.2l38.8-22.4l38.9,22.4c-0.2,0.4-0.3,0.8-0.3,1.2c0,1.5,1.2,2.7,2.6,2.8v44.9&#10;&#9;l-38.8,22.4c-0.5-0.7-1.4-1.2-2.4-1.2c-1.6,0-2.9,1.3-2.9,2.9c0,1.5,1.2,2.7,2.6,2.8v45.2l41.7,24.1l39.1-22.6&#10;&#9;c0.5,0.7,1.4,1.2,2.4,1.2c1.6,0,2.9-1.3,2.9-2.9c0-1.5-1.2-2.7-2.6-2.9v-44.9l38.9-22.4c0.5,0.7,1.4,1.2,2.4,1.2&#10;&#9;c1,0,1.8-0.5,2.4-1.2l38.8,22.4v47.9l39.1,22.6c-0.2,0.4-0.3,0.8-0.3,1.2c0,1.5,1.2,2.7,2.6,2.9v44.9l-38.9,22.4&#10;&#9;c-0.5-0.7-1.4-1.2-2.4-1.2c-1.6,0-2.9,1.3-2.9,2.9c0,1.5,1.2,2.7,2.6,2.8v45.2l39.1,22.6c-0.2,0.4-0.3,0.8-0.3,1.2&#10;&#9;c0,1.6,1.3,2.9,2.9,2.9c1.6,0,2.9-1.3,2.9-2.9c0-0.4-0.1-0.9-0.3-1.2l39.1-22.6v-45.2c1.5-0.1,2.6-1.4,2.6-2.8&#10;&#9;c0-0.4-0.1-0.9-0.3-1.2l39.1-22.6v-47.9l38.8-22.4c0.5,0.7,1.4,1.2,2.4,1.2c1.6,0,2.9-1.3,2.9-2.9c0-1.5-1.2-2.7-2.6-2.9v-44.9&#10;&#9;l41.2-23.8l38.9,22.4c-0.2,0.4-0.3,0.8-0.3,1.2c0,1.5,1.1,2.7,2.6,2.8v45.2l39.1,22.6c-0.2,0.4-0.3,0.8-0.3,1.2&#10;&#9;c0,1.5,1.2,2.7,2.6,2.9v44.9l-41.5,23.9v45.2c-1.5,0.1-2.6,1.4-2.6,2.9c0,1.6,1.3,2.9,2.9,2.9c1,0,1.8-0.5,2.4-1.2l39.1,22.6&#10;&#9;l41.7-24.1v-45.2c1.5-0.1,2.6-1.4,2.6-2.8c0-0.4-0.1-0.9-0.3-1.2l38.9-22.4l41.2,23.8v47.9l41.7,24.1l39.1-22.6&#10;&#9;c0.5,0.7,1.4,1.2,2.4,1.2c1,0,1.8-0.5,2.3-1.2l38.9,22.4v44.9c-1.5,0.1-2.6,1.3-2.6,2.8c0,1.6,1.3,2.9,2.9,2.9c1,0,1.8-0.5,2.4-1.2&#10;&#9;l39.1,22.6l41.5-23.9l38.9,22.4c-0.2,0.4-0.3,0.8-0.3,1.2c0,1.6,1.3,2.9,2.9,2.9c1.6,0,2.9-1.3,2.9-2.9c0-0.4-0.1-0.8-0.3-1.2&#10;&#9;l39.1-22.6v-48.2l-41.7-24.1l-39.1,22.6c-0.5-0.7-1.4-1.2-2.4-1.2c-1,0-1.8,0.5-2.4,1.2l-38.9-22.4v-44.9c1.5-0.1,2.6-1.4,2.6-2.8&#10;&#9;c0-1.6-1.3-2.9-2.9-2.9c-1,0-1.8,0.5-2.4,1.2l-39.1-22.6l-41.5,23.9l-38.9-22.5c0.2-0.4,0.3-0.8,0.3-1.2c0-1.5-1.2-2.7-2.6-2.9&#10;&#9;v-45.2l-41.5-23.9v-44.9c1.5-0.1,2.6-1.3,2.6-2.8c0-1.6-1.3-2.9-2.9-2.9c-1,0-1.8,0.5-2.3,1.2l-39.1-22.6l-39.1,22.6&#10;&#9;c-0.5-0.7-1.4-1.2-2.4-1.2c-1,0-1.8,0.5-2.3,1.2l-38.9-22.4v-47.6l38.9-22.5c0.5,0.7,1.4,1.2,2.3,1.2c1,0,1.8-0.5,2.4-1.2l39.1,22.6&#10;&#9;l41.7-24.1v-45.2c1.5-0.1,2.6-1.3,2.6-2.8c0-1.6-1.3-2.9-2.9-2.9c-1,0-1.8,0.5-2.3,1.2l-39.1-22.6l-41.5,23.9l-38.8-22.4&#10;&#9;c0.2-0.4,0.3-0.8,0.3-1.2c0-1.6-1.3-2.9-2.9-2.9s-2.9,1.3-2.9,2.9c0,0.4,0.1,0.8,0.3,1.2l-39.1,22.6v47.9L1407,591&#10;&#9;c-0.5-0.7-1.4-1.2-2.4-1.2c-1,0-1.8,0.5-2.3,1.2l-39.1-22.6l-41.7,24.1v45.2c-1.5,0.1-2.6,1.3-2.6,2.9c0,0.4,0.1,0.8,0.3,1.2&#10;&#9;l-38.8,22.4l-38.9-22.4c0.2-0.4,0.3-0.8,0.3-1.2c0-1.5-1.2-2.7-2.6-2.9v-44.9l38.9-22.5c0.5,0.7,1.4,1.2,2.4,1.2&#10;&#9;c1.6,0,2.9-1.3,2.9-2.9c0-1.5-1.2-2.7-2.6-2.9v-45.2l-39.1-22.6c0.2-0.4,0.3-0.8,0.3-1.2c0-1.6-1.3-2.9-2.9-2.9&#10;&#9;c-1.6,0-2.9,1.3-2.9,2.9c0,0.4,0.1,0.8,0.3,1.2l-39.1,22.6v47.9l-41.2,23.8l-41.2-23.8v-44.9c1.5-0.1,2.6-1.3,2.6-2.8&#10;&#9;c0-1.6-1.3-2.9-2.9-2.9c-1,0-1.8,0.5-2.4,1.2l-38.9-22.4v-44.9c1.5-0.1,2.6-1.4,2.6-2.9c0-0.4-0.1-0.8-0.3-1.2l39.1-22.6V377&#10;&#9;l-0.1-0.1l-39-22.5c0.2-0.4,0.3-0.8,0.3-1.2c0-1.6-1.3-2.9-2.9-2.9c-1.6,0-2.9,1.3-2.9,2.9c0,0.4,0.1,0.9,0.3,1.2l-39.1,22.6v47.9&#10;&#9;l-38.9,22.4c-0.5-0.7-1.4-1.2-2.3-1.2c-1.6,0-2.9,1.3-2.9,2.9c0,1.5,1.2,2.7,2.6,2.9v44.9L951,519.2c-0.5-0.7-1.4-1.2-2.4-1.2&#10;&#9;c-1.6,0-2.9,1.3-2.9,2.9c0,1.5,1.2,2.7,2.6,2.8v44.9L909.5,591c-0.5-0.7-1.4-1.2-2.4-1.2c-1,0-1.8,0.5-2.3,1.2l-38.9-22.4v-47.9&#10;&#9;l-39.1-22.6c0.2-0.4,0.3-0.8,0.3-1.2c0-1.5-1.2-2.7-2.6-2.9v-45.2l-39.1-22.6c0.2-0.4,0.3-0.8,0.3-1.2c0-1.5-1.2-2.7-2.6-2.9V377&#10;&#9;l-0.1-0.1l-39-22.5c0.2-0.4,0.3-0.8,0.3-1.2c0-1.6-1.3-2.9-2.9-2.9c-1.6,0-2.9,1.3-2.9,2.9c0,0.4,0.1,0.9,0.3,1.2l-38.9,22.4&#10;&#9;L658.6,353v-44.9c1.5-0.1,2.6-1.3,2.6-2.9c0-0.4-0.1-0.9-0.3-1.2l38.9-22.4l41.5,23.9l39.1-22.6c0.5,0.7,1.4,1.2,2.4,1.2&#10;&#9;c1.6,0,2.9-1.3,2.9-2.9c0-1.5-1.2-2.7-2.6-2.9v-44.9l38.9-22.4c0.5,0.7,1.4,1.2,2.3,1.2c1.6,0,2.9-1.3,2.9-2.9&#10;&#9;c0-1.5-1.2-2.7-2.6-2.9v-45.2l-0.1-0.1l-41.6-24l-39.1,22.6c-0.5-0.7-1.4-1.2-2.4-1.2c-1.6,0-2.9,1.3-2.9,2.9c0,1.5,1.2,2.7,2.6,2.9&#10;&#9;v44.9l-38.9,22.4c-0.5-0.7-1.4-1.2-2.4-1.2c-1,0-1.8,0.5-2.3,1.2l-39.1-22.6l-41.7,24.1v47.9l-38.8,22.4c-0.5-0.7-1.4-1.2-2.4-1.2&#10;&#9;s-1.8,0.5-2.4,1.2L534,281l-41.7,24.1V353l-41.2,23.8l-38.9-22.4c0.2-0.4,0.3-0.8,0.3-1.2c0-1.5-1.2-2.7-2.6-2.9v-44.9l38.9-22.4&#10;&#9;c0.5,0.7,1.4,1.2,2.4,1.2c1.6,0,2.9-1.3,2.9-2.9c0-1.5-1.2-2.7-2.6-2.9v-45.2l-0.1-0.1l-41.6-24l-39.1,22.6&#10;&#9;c-0.5-0.7-1.4-1.2-2.4-1.2c-1.6,0-2.9,1.3-2.9,2.9c0,1.5,1.2,2.7,2.6,2.9v44.9L329,303.6c-0.5-0.7-1.4-1.2-2.4-1.2s-1.8,0.5-2.4,1.2&#10;&#9;l-38.9-22.4v-44.9c1.5-0.1,2.6-1.4,2.6-2.9c0-1.6-1.3-2.9-2.9-2.9c-1,0-1.8,0.5-2.4,1.2L244,209.3v-47.6l38.9-22.4&#10;&#9;c0.5,0.7,1.4,1.2,2.4,1.2c1.6,0,2.9-1.3,2.9-2.9c0-1.5-1.2-2.7-2.6-2.9V89.6l-0.1-0.1l-39-22.5c0.2-0.4,0.3-0.8,0.3-1.2&#10;&#9;c0-1.6-1.3-2.9-2.9-2.9s-2.9,1.3-2.9,2.9c0,0.4,0.1,0.8,0.3,1.2l-39.1,22.6v47.9l-38.9,22.4c-0.5-0.7-1.4-1.2-2.3-1.2&#10;&#9;c-1.6,0-2.9,1.3-2.9,2.9c0,1.5,1.2,2.7,2.6,2.9v44.9l-41.5,23.9v47.9l-38.8,22.4c-0.5-0.7-1.4-1.2-2.4-1.2c-1,0-1.8,0.5-2.4,1.2&#10;&#9;l-38.9-22.4v-47.9l-0.1-0.1l-39-22.5c0.2-0.4,0.3-0.8,0.3-1.2c0-1.5-1.2-2.7-2.6-2.9v-44.9l38.9-22.4c0.5,0.7,1.4,1.2,2.3,1.2&#10;&#9;c1.6,0,2.9-1.3,2.9-2.9c0-1.5-1.2-2.7-2.6-2.9V89.6l-0.1-0.1L-5,65.5l-39.1,22.6c-0.5-0.7-1.4-1.2-2.3-1.2c-1,0-1.8,0.5-2.4,1.2&#10;&#9;l-38.9-22.4V20.7c1.5-0.1,2.6-1.3,2.6-2.9c0-1.6-1.3-2.9-2.9-2.9c-1,0-1.8,0.5-2.3,1.2l-38.9-22.4v-44.9c1.5-0.1,2.6-1.3,2.6-2.9&#10;&#9;c0-1.6-1.3-2.9-2.9-2.9c-1,0-1.8,0.5-2.4,1.2l-39.1-22.6l-41.7,24.1v45.2c-1.5,0.1-2.6,1.3-2.6,2.9c0,0.4,0.1,0.8,0.3,1.2L-254,17.7&#10;&#9;v45.2c-1.5,0.1-2.6,1.3-2.6,2.9c0,1.6,1.3,2.9,2.9,2.9c1,0,1.8-0.5,2.4-1.2l39.1,22.6l39.1-22.6c0.5,0.7,1.4,1.2,2.4,1.2&#10;&#9;c1,0,1.8-0.5,2.3-1.2l38.9,22.4v44.9c-1.5,0.1-2.6,1.3-2.6,2.9c0,1.6,1.3,2.9,2.9,2.9c1,0,1.8-0.5,2.4-1.2l38.9,22.4v44.9&#10;&#9;c-1.5,0.1-2.6,1.3-2.6,2.9c0,0.4,0.1,0.9,0.3,1.2l-39.1,22.6v45.2c-1.5,0.1-2.6,1.3-2.6,2.9c0,0.4,0.1,0.8,0.3,1.2l-38.8,22.5&#10;&#9;l-41.2-23.8v-44.9c1.5-0.1,2.6-1.4,2.6-2.9c0-1.6-1.3-2.9-2.9-2.9c-1,0-1.8,0.5-2.4,1.2l-39.1-22.6l-39.1,22.6&#10;&#9;c-0.5-0.7-1.4-1.2-2.4-1.2c-1,0-1.8,0.5-2.4,1.2l-38.9-22.4v-44.9c1.5-0.1,2.6-1.4,2.6-2.9c0-1.6-1.3-2.9-2.9-2.9&#10;&#9;c-1,0-1.8,0.5-2.4,1.2l-39.1-22.6l-41.5,23.9l-38.8-22.4c0.2-0.4,0.3-0.8,0.3-1.2c0-1.6-1.3-2.9-2.9-2.9s-2.9,1.3-2.9,2.9&#10;&#9;c0,0.4,0.1,0.9,0.3,1.2l-39.1,22.6v47.9l-38.9,22.4c-0.5-0.7-1.4-1.2-2.4-1.2c-1.6,0-2.9,1.3-2.9,2.9&#10;&#9;C-546.9,234.9-545.7,236.2-544.3,236.3L-544.3,236.3z"/>
</svg>