<?xml version="1.0" encoding="UTF-8"?>
<svg width="338px" height="254px" viewBox="0 0 338 254" version="1.1" xmlns="http://www.w3.org/2000/svg" xmlns:xlink="http://www.w3.org/1999/xlink">
    <!-- Generator: Sketch 60.1 (88133) - https://sketch.com -->
    <title>Group 20</title>
    <desc>Created with Sketch.</desc>
    <defs>
        <filter x="-14.1%" y="-15.6%" width="128.3%" height="131.1%" filterUnits="objectBoundingBox" id="filter-1">
            <feOffset dx="0" dy="2" in="SourceAlpha" result="shadowOffsetOuter1"></feOffset>
            <feGaussianBlur stdDeviation="2" in="shadowOffsetOuter1" result="shadowBlurOuter1"></feGaussianBlur>
            <feColorMatrix values="0 0 0 0 0.2   0 0 0 0 0.2   0 0 0 0 0.2  0 0 0 0.3 0" type="matrix" in="shadowBlurOuter1" result="shadowMatrixOuter1"></feColorMatrix>
            <feMerge>
                <feMergeNode in="shadowMatrixOuter1"></feMergeNode>
                <feMergeNode in="SourceGraphic"></feMergeNode>
            </feMerge>
        </filter>
        <rect id="path-2" x="0" y="0" width="99" height="90" rx="45"></rect>
    </defs>
    <g id="Solid-2.0" stroke="none" stroke-width="1" fill="none" fill-rule="evenodd">
        <g id="homepage-v02" transform="translate(-114.000000, -1593.000000)">
            <g id="Group-20" transform="translate(115.000000, 1597.000000)">
                <g id="Group-17" transform="translate(25.000000, 18.000000)">
                    <g id="Group" transform="translate(140.782473, 127.426685) rotate(-150.000000) translate(-140.782473, -127.426685) translate(23.782473, 48.926685)">
                        <path d="M28.2394929,156.089499 C-20.1382912,58.4618493 -5.95416909,31.26337 70.7918591,74.4940613 C102.980914,92.6260106 91.3420321,50.2364437 106.728907,14.3685206 C122.115782,-21.4994025 147.533763,21.7463968 195.389864,49.5085503" id="Path-2" stroke="#979797" stroke-width="10"></path>
                        <g id="Group-19" transform="translate(183.297372, 22.066741)">
                            <path d="M24.0727052,8.00465297 L25.0504141,8.02823672 C34.6115341,8.25886477 42.3094977,15.9515134 42.5467295,25.5124718 C42.7695081,34.4909358 35.6716226,41.9500168 26.6931586,42.1727954 C26.4280258,42.179374 26.1627718,42.1794656 25.8976345,42.1730701 L24.9199257,42.1494864 C15.3588057,41.9188583 7.660842,34.2262097 7.42361022,24.6652513 C7.20083162,15.6867873 14.2987171,8.22770631 23.2771811,8.0049277 C23.5423139,7.99834908 23.807568,7.99825748 24.0727052,8.00465297 Z" id="Rectangle" stroke="#979797" fill="#979797" transform="translate(24.985170, 25.088862) rotate(-30.000000) translate(-24.985170, -25.088862) "></path>
                            <path d="M31.7235761,6.1910399 C36.1589187,6.29802678 39.7299549,9.8665974 39.8400052,14.301865 L40.1779203,27.9205822 C40.2812659,32.0856344 36.9886021,35.5458545 32.8235499,35.6492001 C32.7005565,35.6522519 32.5775068,35.6522944 32.4545114,35.6493275 C28.0191688,35.5423407 24.4481325,31.97377 24.3380822,27.5385024 L24.0001671,13.9197852 C23.8968215,9.75473301 27.1894853,6.29451292 31.3545375,6.19116735 C31.4775309,6.18811557 31.6005806,6.18807308 31.7235761,6.1910399 Z" id="Rectangle" stroke="#FFFFFF" stroke-width="3" fill="#807E7E" transform="translate(32.089044, 20.920184) rotate(-30.000000) translate(-32.089044, -20.920184) "></path>
                            <path d="M28.9812911,10.4281789 L40.1153335,10.6967481 C41.2401711,10.7238808 42.1458139,11.6288983 42.1737235,12.7537169 C42.1999328,13.8100068 41.3648874,14.6875458 40.3085975,14.713755 C40.2774054,14.714529 40.2461991,14.7145397 40.2150065,14.7137873 L29.0809641,14.4452181 C27.9561264,14.4180854 27.0504836,13.5130679 27.022574,12.3882493 C26.9963648,11.3319594 27.8314101,10.4544205 28.8877,10.4282112 C28.9188921,10.4274373 28.9500985,10.4274265 28.9812911,10.4281789 Z" id="Rectangle" stroke="#D8D8D8" fill="#D8D8D8" transform="translate(34.598149, 12.570983) rotate(-30.000000) translate(-34.598149, -12.570983) "></path>
                            <path d="M34.5858787,19.7317179 L45.7199211,20.0002871 C46.8447587,20.0274198 47.7504015,20.9324373 47.7783111,22.0572559 C47.8045204,23.1135458 46.969475,23.9910848 45.9131851,24.017294 C45.881993,24.018068 45.8507867,24.0180787 45.8195941,24.0173263 L34.6855517,23.7487571 C33.560714,23.7216244 32.6550713,22.8166069 32.6271616,21.6917883 C32.6009524,20.6354984 33.4359977,19.7579595 34.4922876,19.7317502 C34.5234797,19.7309763 34.5546861,19.7309655 34.5858787,19.7317179 Z" id="Rectangle" stroke="#D8D8D8" fill="#D8D8D8" transform="translate(40.202736, 21.874522) rotate(-30.000000) translate(-40.202736, -21.874522) "></path>
                        </g>
                    </g>
                    <path d="M240,79 L276,79 L276,88 C276,97.9411255 267.941125,106 258,106 C248.058875,106 240,97.9411255 240,88 L240,79 L240,79 Z" id="Rectangle" stroke="#979797" fill="#979797"></path>
                </g>
                <g id="Group-14" filter="url(#filter-1)" transform="translate(232.000000, 0.000000)">
                    <g id="Rectangle">
                        <use fill="#E59B02" xlink:href="#path-2"></use>
                        <use stroke="#E59B02" stroke-width="4" fill-opacity="0.9" fill="#FFFFFF" xlink:href="#path-2"></use>
                    </g>
                    <path d="M34.3749776,70.2499851 C39.195313,70.2499851 43.1200549,67.2070083 43.6444792,63.3066804 C43.7079937,63.0420364 43.7441379,62.7617522 43.7460452,62.4638251 C43.7460452,62.4550513 43.7490016,62.4462775 43.7490016,62.4375037 L43.7490016,45.2500447 L70.3114383,36.8613547 L70.3114383,49.4580272 C68.9286138,48.788168 67.3407499,48.3750373 65.6249031,48.3750373 C60.4472269,48.3750373 56.2499255,51.8731063 56.2499255,56.1875186 C56.2499255,60.5019309 60.4472269,64 65.6249031,64 C70.4461922,64 74.3709341,60.9551159 74.8953583,57.0537389 C74.9559165,56.8008251 74.9881506,56.5332247 74.9930144,56.2510332 C74.9930144,56.2294802 75.0008345,56.2089762 75.0008345,56.1875186 L74.9989271,56.1796985 L74.9989271,23.3760505 C74.9989271,21.5919209 73.5379969,20.2501043 71.8807056,20.2501043 C71.57019,20.2501043 71.252808,20.297025 70.9363796,20.397542 L41.2489504,29.7725197 C39.9510981,30.182694 39.0624665,31.3828903 39.0624665,32.7500745 L39.0624665,55.708966 C37.6786883,55.0381531 36.0917781,54.6250224 34.3749776,54.6250224 C29.1973014,54.6250224 25,58.1230914 25,62.4375037 C25,66.751916 29.1973014,70.2499851 34.3749776,70.2499851 Z M43.7499553,40.3340561 L43.7499553,33.8984864 L70.3114383,25.5108454 L70.3114383,31.9463197 L43.7499553,40.3340561 Z M65.6249031,59.3125112 C62.8622106,59.3125112 60.9374143,57.6650427 60.9374143,56.1875186 C60.9374143,54.7090409 62.8622106,53.0625261 65.6249031,53.0625261 C68.386642,53.0625261 70.3114383,54.7079918 70.312392,56.186565 L70.312392,56.1884723 C70.3114383,57.6659964 68.386642,59.3125112 65.6249031,59.3125112 Z M34.3749776,65.5624963 C31.6122851,65.5624963 29.6874888,63.9150278 29.6874888,62.4375037 C29.6874888,60.959026 31.6122851,59.3125112 34.3749776,59.3125112 C37.1376702,59.3125112 39.0624665,60.959026 39.0624665,62.4375037 C39.0624665,63.9159815 37.1376702,65.5624963 34.3749776,65.5624963 Z" id="m" fill="#E59B02" fill-rule="nonzero"></path>
                </g>
                <rect id="Rectangle" stroke="#D8D8D8" fill="#D8D8D8" x="0" y="2" width="64" height="247" rx="5"></rect>
            </g>
        </g>
    </g>
</svg>