<?xml version="1.0" encoding="UTF-8"?>
<svg width="93px" height="28px" viewBox="0 0 93 28" version="1.1" xmlns="http://www.w3.org/2000/svg" xmlns:xlink="http://www.w3.org/1999/xlink">
    <title>digita use.id logo</title>
    <g id="All-pages" stroke="none" stroke-width="1" fill="none" fill-rule="evenodd">
        <g id="For-Developers" transform="translate(-1347, -2014)" fill-rule="nonzero">
            <g id="digita-use.id-logo" transform="translate(1347, 2014)">
                <path d="M39.2691239,21.5205772 C40.9152656,21.5205772 42.4228013,20.9322389 43.3836995,19.1472018 L43.3836995,21.1586413 L45.6683636,21.1586413 L45.6683636,9.29946491 L43.3852569,9.29946491 L43.3852569,15.7172816 C43.3852569,18.1584237 41.8995244,19.583065 39.8655972,19.583065 C38.5620772,19.583065 37.3052783,18.9947267 37.3052783,16.3271821 L37.3052783,9.2933043 L35.0190569,9.2933043 L35.0190569,16.5320224 C35.0190569,19.9203585 36.5951169,21.5267379 39.2691239,21.5267379" id="Path" fill="#1D1D1B"></path>
                <path d="M53.3524349,21.5205772 C56.1183267,21.5205772 57.9233204,20.3223384 57.9233204,18.0613941 C57.9233204,15.4631563 56.1183267,14.8070513 53.6950566,14.2649175 C51.3589993,13.745886 50.3124456,13.4286145 50.3124456,12.253478 C50.3124456,11.0783414 51.5474412,10.7841722 52.8727644,10.7841722 C53.9457934,10.7841722 55.2088218,11.1907725 55.3645589,12.9080429 L57.6274198,12.9080429 C57.6040592,10.490003 55.7772624,8.9313684 53.0331737,8.9313684 C50.3140029,8.9313684 48.1196664,9.99407382 48.1196664,12.2981424 C48.1196664,14.9425847 50.3591667,15.5078208 53.2387467,16.2085903 C54.4285786,16.4796572 55.6620169,16.8862575 55.6620169,18.1075987 C55.6620169,19.1025374 54.7930036,19.6662333 53.4910409,19.6662333 C51.3885893,19.6662333 50.1535937,19.1025374 49.7424476,17.2712957 L47.4967178,17.2712957 C47.4967178,19.9373002 50.0336761,21.5205772 53.3477627,21.5205772" id="Path" fill="#1D1D1B"></path>
                <path d="M61.6890448,14.2418152 C61.6890448,11.9146443 63.1747773,10.8750412 64.9346071,10.8750412 C66.694437,10.8750412 68.1334483,11.9377466 68.1334483,14.2418152 L61.6890448,14.2418152 Z M61.6656842,15.9821878 L70.3963092,15.9821878 L70.3963092,14.1740485 C70.3963092,10.9874724 68.1116451,8.93752901 64.9564103,8.93752901 C61.4149474,8.93752901 59.3358564,11.5357668 59.3358564,15.1982501 C59.3358564,18.7914265 61.3230625,21.5267379 65.0482953,21.5267379 C68.3857425,21.5267379 70.1673756,19.3335603 70.3963092,17.707159 L68.1334483,17.707159 C67.8375477,18.5434619 66.7318139,19.583065 65.0482953,19.583065 C63.014368,19.583065 61.8494541,18.181526 61.6656842,15.9883484" id="Shape" fill="#1D1D1B"></path>
                <rect id="Rectangle" fill="#1D1D1B" x="77.3437437" y="9.2933043" width="2.28466408" height="11.865337"></rect>
                <path d="M90.7137786,15.7342232 C90.7137786,18.0444524 89.319931,19.5538021 87.1941188,19.5538021 C85.0683067,19.5538021 83.6510985,17.8134295 83.6510985,15.1689872 C83.6510985,12.5923116 85.0527329,10.8966033 87.1489551,10.8966033 C89.2965704,10.8966033 90.7137786,12.2996825 90.7137786,14.4389547 L90.7137786,15.7342232 Z M93,21.1586413 L93,3.98131735 L90.7137786,3.98131735 L90.7137786,10.8966033 C89.7793556,9.69990464 88.313869,8.9313684 86.8281365,8.9313684 C83.5374104,8.9313684 81.3664345,11.4402773 81.3664345,15.1920895 C81.3664345,18.9885661 83.5140498,21.5205772 86.7144484,21.5205772 C88.2905084,21.5205772 89.9600107,20.7736031 90.7823029,19.6723939 L90.7823029,21.164802 L93,21.1586413 Z" id="Shape" fill="#1D1D1B"></path>
                <path d="M73.4129379,21.5205772 C74.101028,21.5205772 74.6588352,20.9689373 74.6588352,20.288455 C74.6588352,19.6079727 74.101028,19.0563328 73.4129379,19.0563328 C72.7248479,19.0563328 72.1670407,19.6079727 72.1670407,20.288455 C72.1670407,20.9689373 72.7248479,21.5205772 73.4129379,21.5205772" id="Path" fill="#1D1D1B"></path>
                <path d="M9.40496684,28 C14.5991866,28 18.8099337,23.8358082 18.8099337,18.6990173 C18.8099337,13.5622265 14.5991866,9.39803469 9.40496684,9.39803469 C4.21074708,9.39803469 0,13.5622265 0,18.6990173 C0,23.8358082 4.21074708,28 9.40496684,28" id="Path" fill="#3BB9C4"></path>
                <path d="M18.9080481,4.39870026 C19.2337054,4.39870026 19.5272963,4.20469648 19.65192,3.90715489 C19.7765436,3.6096133 19.7076574,3.26712811 19.477383,3.03939964 C19.2471085,2.81167116 18.9007944,2.74354663 18.5999263,2.86679239 C18.2990582,2.99003815 18.1028855,3.28038307 18.1028855,3.60243977 C18.1024725,3.81374618 18.1871686,4.01651602 18.3382556,4.1659325 C18.4893425,4.31534897 18.6943793,4.39910867 18.9080481,4.39870026" id="Path" fill="#FC273F"></path>
                <path d="M18.9080481,1.59254039 C19.2344107,1.59252529 19.5284823,1.39767923 19.6526359,1.09919113 C19.7767894,0.80070304 19.706464,0.457622163 19.4745722,0.230512089 C19.2426804,0.00340201505 18.8950968,-0.0628085681 18.5944924,0.0628672272 C18.293888,0.188543023 18.0997307,0.481243029 18.102887,0.803982164 C18.102887,1.24374386 18.4633699,1.60024115 18.9080481,1.60024115" id="Path" fill="#FC273F"></path>
                <path d="M19.713211,17.8041886 C19.7137621,17.5496237 19.5909684,17.3102034 19.3829505,17.1602578 C19.1749325,17.0103123 18.9068694,16.9679911 18.6619834,17.0464334 C18.7531202,17.5550172 18.8020808,18.0701155 18.8083763,18.5865862 C18.8415596,18.5888847 18.8748648,18.5888847 18.9080481,18.5865862 C19.1217169,18.5869961 19.3267537,18.5032364 19.4778406,18.3538199 C19.6289276,18.2044035 19.7136237,18.0016336 19.713211,17.7903272" id="Path" fill="#FC273F"></path>
                <path d="M11.0744692,9.54434921 C11.1696814,9.24642294 11.0795322,8.9209672 10.8440848,8.71261739 C10.6086374,8.50426758 10.2715865,8.45168962 9.98272047,8.57824963 C9.69385442,8.70480964 9.50678152,8.98702039 9.50463862,9.29946491 C9.50226713,9.33279368 9.50226713,9.36624607 9.50463862,9.39957484 C10.0268878,9.40571827 10.5477517,9.45413814 11.0620102,9.54434921" id="Path" fill="#FC273F"></path>
                <path d="M14.326261,3.0633863 C14.5897182,2.87401052 14.7118602,2.54631951 14.6357203,2.23314745 C14.5595804,1.91997538 14.300157,1.68301236 13.9784445,1.63277727 C13.656732,1.58254218 13.3361027,1.72893056 13.1660973,2.00366728 C12.9960919,2.27840401 13.0101989,2.62737015 13.2018387,2.88780888 C13.4638663,3.24246576 13.9664863,3.32094937 14.326261,3.0633863" id="Path" fill="#FC273F"></path>
                <path d="M24.4367171,16.8215711 C24.7003664,16.6325099 24.8228893,16.3049989 24.7471507,15.9917637 C24.6714122,15.6785284 24.4123284,15.4412588 24.0907158,15.3905988 C23.7691032,15.3399387 23.4483017,15.4858655 23.2779078,15.7603304 C23.1075139,16.0347952 23.1210859,16.3837436 23.3122949,16.6444535 C23.5738402,16.9996227 24.0765375,17.078807 24.4367171,16.8215711" id="Path" fill="#FC273F"></path>
                <path d="M11.4949595,6.91838871 C11.5968597,6.61223654 11.5020827,6.27552876 11.2548817,6.06548124 C11.0076808,5.85543372 10.6568186,5.81348024 10.36612,5.95920975 C10.0754213,6.10493926 9.90222924,6.40960529 9.92741067,6.73095293 C9.9525921,7.05230058 10.1711798,7.3269411 10.4811106,7.42663913 C10.6841147,7.4921044 10.9051178,7.47497944 11.0953342,7.37904451 C11.2855507,7.28310959 11.4293394,7.11625327 11.4949595,6.91530841" id="Path" fill="#FC273F"></path>
                <path d="M27.852033,12.1749302 C27.9533354,11.8686783 27.8580151,11.5322358 27.6105582,11.322621 C27.3631013,11.1130061 27.0122925,11.0715433 26.7218548,11.2175832 C26.4314171,11.3636231 26.2586087,11.6683748 26.2840794,11.9896103 C26.3095502,12.3108457 26.5282787,12.5852352 26.8381841,12.6847207 C27.2603841,12.8193674 27.7132983,12.5916299 27.852033,12.1749302" id="Path" fill="#FC273F"></path>
                <path d="M27.852033,6.42553982 C27.7521646,6.1187368 27.4751241,5.90173234 27.1502653,5.87584868 C26.8254066,5.84996502 26.5168096,6.02030785 26.3685624,6.30734184 C26.2203152,6.59437584 26.2616603,6.9414821 26.4732931,7.18659213 C26.6849259,7.43170217 27.0251008,7.52646678 27.3349856,7.42663913 C27.5385408,7.36176225 27.7075496,7.21931879 27.8045936,7.03084559 C27.9016376,6.8423724 27.9187107,6.6234183 27.852033,6.42245952" id="Path" fill="#FC273F"></path>
                <path d="M24.4367171,1.77581857 C24.1733667,1.58629758 23.8204992,1.57234662 23.5426909,1.74047237 C23.2648826,1.90859813 23.1168577,2.22568241 23.1676544,2.54383799 C23.2184511,2.86199356 23.4580633,3.11854868 23.7747366,3.19384673 C24.0914099,3.26914478 24.4227645,3.14835321 24.6142575,2.88780888 C24.8756013,2.53222586 24.7961298,2.03447108 24.4367171,1.77581857" id="Path" fill="#FC273F"></path>
                <path d="M16.5003517,1.96987782 C16.9229941,1.83362846 17.1540163,1.38443103 17.0164414,0.96639776 C16.8788664,0.548364487 16.4247551,0.319686484 16.001984,0.455544846 C15.5792128,0.591403209 15.3477659,1.04038675 15.4849454,1.4585471 C15.5509035,1.65960531 15.6949917,1.82647747 15.8854583,1.92239122 C16.0759249,2.01830496 16.2971384,2.0353887 16.5003517,1.96987782" id="Path" fill="#FC273F"></path>
                <path d="M21.8141034,18.1461025 C22.1239826,18.0468285 22.3428507,17.7726897 22.3686098,17.4515669 C22.3943688,17.1304441 22.2219435,16.8256077 21.9317672,16.6792584 C21.6415908,16.5329091 21.2908365,16.5738819 21.0431247,16.7830637 C20.795413,16.9922456 20.6995502,17.3284216 20.8002545,17.6347718 C20.9383356,18.0520884 21.3914514,18.2806155 21.8141034,18.1461025" id="Path" fill="#FC273F"></path>
                <path d="M12.6022507,4.76987558 C12.7938905,4.50943685 12.8079974,4.16047071 12.637992,3.88573398 C12.4679866,3.61099726 12.1473574,3.46460888 11.8256448,3.51484397 C11.5039323,3.56507906 11.2445089,3.80204208 11.1683691,4.11521415 C11.0922292,4.42838621 11.2143712,4.75607722 11.4778284,4.945453 C11.8373868,5.20390733 12.3407064,5.12531447 12.6022507,4.76987558" id="Path" fill="#FC273F"></path>
                <path d="M26.5173655,14.7670073 C26.7090053,14.5065686 26.7231123,14.1576024 26.5531069,13.8828657 C26.3831015,13.608129 26.0624723,13.4617406 25.7407597,13.5119757 C25.4190472,13.5622108 25.1596238,13.7991738 25.0834839,14.1123459 C25.0073441,14.4255179 25.1294861,14.7532089 25.3929433,14.9425847 C25.7527179,15.2001478 26.2553379,15.1216642 26.5173655,14.7670073" id="Path" fill="#FC273F"></path>
                <path d="M28.3130149,9.29946491 C28.3130149,8.85970322 27.952532,8.50320592 27.5078538,8.50320592 C27.0631756,8.50320592 26.7026927,8.85970322 26.7026927,9.29946491 C26.7026927,9.73922661 27.0631756,10.0957239 27.5078538,10.0957239 C27.952532,10.0957239 28.3130149,9.73922661 28.3130149,9.29946491" id="Path" fill="#FC273F"></path>
                <path d="M26.5173655,3.83346269 C26.3261906,3.57272835 25.9950181,3.45156012 25.6782809,3.52646132 C25.3615437,3.60136252 25.1216214,3.85758174 25.070395,4.17563851 C25.0191687,4.49369527 25.1667269,4.81094993 25.4442602,4.97945987 C25.7217935,5.14796982 26.0746432,5.13454788 26.3382678,4.945453 C26.6981984,4.68727895 26.7783795,4.18944714 26.5173655,3.83346269" id="Path" fill="#FC273F"></path>
                <path d="M21.8141034,0.454367483 C21.3912681,0.318704662 20.9372649,0.547592661 20.7998877,0.965689515 C20.6625104,1.38378637 20.893745,1.83287691 21.3164519,1.96893078 C21.7391587,2.10498465 22.1933782,1.8765167 22.3311508,1.4585471 C22.3973941,1.25758059 22.3801193,1.03881289 22.2831333,0.850452156 C22.1861472,0.662091425 22.0174095,0.519596348 21.8141034,0.454367483" id="Path" fill="#FC273F"></path>
                <path d="M14.6159321,6.84908184 C14.7789648,6.57022325 14.7560506,6.2216936 14.5578776,5.96606038 C14.3597045,5.71042715 14.0253139,5.59805163 13.7106783,5.68135002 C13.3960426,5.76464842 13.163147,6.02721044 13.1206227,6.34656719 C13.0780985,6.66592394 13.2343232,6.97916022 13.5164278,7.14017071 C13.9013529,7.35986583 14.3934777,7.22957797 14.6159321,6.84908184" id="Path" fill="#FC273F"></path>
                <path d="M16.4302699,5.05480384 C16.7123745,4.89379335 16.8685992,4.58055707 16.826075,4.26120033 C16.7835507,3.94184358 16.5506551,3.67928155 16.2360194,3.59598316 C15.9213838,3.51268476 15.5869932,3.62506029 15.3888201,3.88069351 C15.1906471,4.13632673 15.1677329,4.48485638 15.3307656,4.76371497 C15.4373015,4.94675666 15.6131293,5.08033295 15.8194241,5.13494859 C16.0257189,5.18956423 16.2455118,5.16072676 16.4302699,5.05480384" id="Path" fill="#FC273F"></path>
                <path d="M13.9509344,9.29946491 C13.9509344,8.85970322 13.5904515,8.50320592 13.1457733,8.50320592 C12.7010951,8.50320592 12.3406122,8.85970322 12.3406122,9.29946491 C12.3406122,9.73922661 12.7010951,10.0957239 13.1457733,10.0957239 C13.5904515,10.0957239 13.9509344,9.73922661 13.9509344,9.29946491" id="Path" fill="#FC273F"></path>
                <path d="M16.8320733,9.29946491 C16.8320733,8.97726819 16.6357311,8.68682631 16.3346717,8.56367133 C16.0336124,8.44051636 15.6871764,8.50892366 15.457025,8.73697159 C15.2268735,8.96501952 15.1583723,9.30775702 15.2834868,9.60524874 C15.4086013,9.90274046 15.7026698,10.0963471 16.0284681,10.0957254 C16.2418671,10.0957254 16.4465033,10.0117838 16.597253,9.86241188 C16.7480028,9.71303992 16.8324854,9.51050418 16.8320733,9.29946491" id="Path" fill="#FC273F"></path>
                <path d="M18.2835436,6.83368031 C18.2841723,6.51148419 18.0884011,6.22066692 17.7875835,6.09693573 C17.4867658,5.97320455 17.1401965,6.0409484 16.9095991,6.26855524 C16.6790016,6.49616207 16.6098295,6.83876776 16.7343613,7.13649848 C16.8588931,7.4342292 17.1525821,7.62840064 17.478381,7.62840064 C17.6917797,7.62880814 17.8965797,7.54525966 18.0476217,7.39617661 C18.1986636,7.24709357 18.2835436,7.04471997 18.2835436,6.83368031" id="Path" fill="#FC273F"></path>
                <path d="M19.5574705,6.83368031 C19.5568419,6.51148419 19.752613,6.22066692 20.0534307,6.09693573 C20.3542483,5.97320455 20.7008176,6.0409484 20.9314151,6.26855524 C21.1620126,6.49616207 21.2311847,6.83876776 21.1066528,7.13649848 C20.982121,7.4342292 20.688432,7.62840064 20.3626331,7.62840064 C20.1492345,7.62880814 19.9444344,7.54525966 19.7933925,7.39617661 C19.6423505,7.24709357 19.5574705,7.04471997 19.5574705,6.83368031" id="Path" fill="#FC273F"></path>
                <path d="M21.1646795,11.7667897 C21.1646795,11.327028 20.8041966,10.9705307 20.3595184,10.9705307 C19.9148402,10.9705307 19.5543573,11.327028 19.5543573,11.7667897 C19.5543573,12.2065514 19.9148402,12.5630487 20.3595184,12.5630487 C20.8038411,12.5622012 21.1638225,12.2061999 21.1646795,11.7667897" id="Path" fill="#FC273F"></path>
                <path d="M16.6732199,11.7667897 C16.6732199,11.327028 17.0337028,10.9705307 17.478381,10.9705307 C17.9230592,10.9705307 18.2835421,11.327028 18.2835421,11.7667897 C18.2835421,12.2065514 17.9230592,12.5630487 17.478381,12.5630487 C17.0340582,12.5622012 16.6740768,12.2061999 16.6732199,11.7667897" id="Path" fill="#FC273F"></path>
                <path d="M19.7132107,9.29946491 C19.7132107,8.97740822 19.517038,8.68706329 19.2161699,8.56381753 C18.9153018,8.44057177 18.5689877,8.50869631 18.3387132,8.73642478 C18.1084388,8.96415326 18.0395526,9.30663844 18.1641762,9.60418004 C18.2887999,9.90172163 18.5823908,10.0957254 18.9080481,10.0957254 C19.1217169,10.0961338 19.3267537,10.0123741 19.4778406,9.86295764 C19.6289276,9.71354116 19.7136237,9.51077132 19.7132107,9.29946491" id="Path" fill="#FC273F"></path>
                <path d="M22.5943466,9.29946491 C22.5943466,8.85970322 22.2338637,8.50320592 21.7891855,8.50320592 C21.3445073,8.50320592 20.9840244,8.85970322 20.9840244,9.29946491 C20.9840244,9.73922661 21.3445073,10.0957239 21.7891855,10.0957239 C22.2338637,10.0957239 22.5943466,9.73922661 22.5943466,9.29946491" id="Path" fill="#FC273F"></path>
                <path d="M18.9080481,15.7942892 C19.2337054,15.7942892 19.5272963,15.6002869 19.65192,15.3027453 C19.7765436,15.0052037 19.7076574,14.6627186 19.477383,14.4349901 C19.2471085,14.2072616 18.9007944,14.1391371 18.5999263,14.2623828 C18.2990582,14.3856286 18.102887,14.6759735 18.102887,14.9980302 C18.102887,15.4377919 18.4633699,15.7942892 18.9080481,15.7942892" id="Path" fill="#FC273F"></path>
                <path d="M24.5940117,12.5476471 C24.7570444,12.2687885 24.7341302,11.9202589 24.5359571,11.6646257 C24.3377841,11.4089924 24.0033935,11.2966169 23.6887578,11.3799153 C23.3741222,11.4632137 23.1412265,11.7257757 23.0987023,12.0451325 C23.0561781,12.3644892 23.2124028,12.6777255 23.4945073,12.838736 C23.6792654,12.9446589 23.8990584,12.9734964 24.1053532,12.9188808 C24.311648,12.8642651 24.4874758,12.7306888 24.5940117,12.5476471" id="Path" fill="#FC273F"></path>
                <path d="M24.595569,6.05282285 C24.4330572,5.77372636 24.1165417,5.61892662 23.7936176,5.66060866 C23.4706936,5.7022907 23.2049577,5.93224565 23.1203259,6.24324267 C23.0356941,6.55423969 23.1488338,6.88503099 23.4069865,7.08136448 C23.6651393,7.27769797 24.0174644,7.30090771 24.2996684,7.14017071 C24.6842483,6.92014489 24.8165395,6.43401365 24.595569,6.05282285" id="Path" fill="#FC273F"></path>
                <path d="M22.1909873,14.9241029 C22.4730919,14.7630924 22.6293166,14.4498561 22.5867924,14.1304994 C22.5442681,13.8111426 22.3113725,13.5485806 21.9967368,13.4652822 C21.6821012,13.3819838 21.3477106,13.4943593 21.1495375,13.7499925 C20.9513645,14.0056258 20.9284503,14.3541554 21.091483,14.633014 C21.3139374,15.0135101 21.8060622,15.143798 22.1909873,14.9241029" id="Path" fill="#FC273F"></path>
                <path d="M25.4754855,9.29946491 C25.4754855,8.97726819 25.2791432,8.68682631 24.9780839,8.56367133 C24.6770246,8.44051636 24.3305886,8.50892366 24.1004371,8.73697159 C23.8702857,8.96501952 23.8017844,9.30775702 23.9268989,9.60524874 C24.0520134,9.90274046 24.346082,10.0963471 24.6718802,10.0957254 C24.8852793,10.0957254 25.0899154,10.0117838 25.2406652,9.86241188 C25.391415,9.71303992 25.4758975,9.51050418 25.4754855,9.29946491" id="Path" fill="#FC273F"></path>
                <path d="M22.1909873,3.6763671 C21.9090111,3.51513695 21.556585,3.53779779 21.2980938,3.73377976 C21.0396026,3.92976173 20.9259707,4.26045519 21.0102004,4.57161216 C21.09443,4.88276912 21.3599275,5.11308978 21.6828546,5.15514384 C22.0057818,5.1971979 22.32252,5.04270045 22.4853306,4.76371497 C22.7074819,4.3830457 22.5757374,3.89636195 22.1909873,3.6763671" id="Path" fill="#FC273F"></path>
                <path d="M11.4949595,11.6820813 C11.3945756,11.3756282 11.117372,11.15918 10.792659,11.1337057 C10.4679461,11.1082315 10.1597017,11.2787504 10.0117162,11.5657184 C9.86373069,11.8526865 9.90516156,12.1995628 10.116682,12.4445358 C10.3282025,12.6895087 10.6681369,12.7843117 10.9779121,12.6847207 C11.4004959,12.5488624 11.6318994,12.1001332 11.4949595,11.6820813" id="Path" fill="#1D1D1B"></path>
                <path d="M14.326261,15.5370837 C14.0626934,15.3475782 13.7096099,15.3338687 13.4318297,15.5023548 C13.1540495,15.6708409 13.0063497,15.9882979 13.0576766,16.3065369 C13.1090034,16.6247759 13.3492354,16.8810416 13.6662324,16.9557092 C13.9832293,17.0303769 14.3144808,16.9087223 14.5053587,16.6475338 C14.7653119,16.2918259 14.685209,15.7951679 14.326261,15.5370837" id="Path" fill="#1D1D1B"></path>
                <path d="M12.6022507,13.8305944 C12.4107577,13.5700501 12.0794031,13.4492585 11.7627298,13.5245566 C11.4460565,13.5998546 11.2064443,13.8564097 11.1556475,14.1745653 C11.1048508,14.4927209 11.2528758,14.8098052 11.5306841,14.9779309 C11.8084923,15.1460567 12.1613599,15.1321057 12.4247103,14.9425847 C12.784123,14.6839322 12.8635945,14.1861774 12.6022507,13.8305944" id="Path" fill="#1D1D1B"></path>
                <path d="M16.5003517,16.6305922 C16.0776457,16.4941208 15.6231036,16.7223569 15.4850835,17.1403819 C15.3470635,17.5584069 15.5778266,18.0079358 16.0005176,18.1444526 C16.4232086,18.2809693 16.8777757,18.0527819 17.0158417,17.6347718 C17.1530036,17.2167685 16.9225184,16.7677812 16.5003517,16.6305922" id="Path" fill="#1D1D1B"></path>
                <path d="M14.6159321,11.7513881 C14.4531215,11.4724027 14.1363833,11.3179052 13.8134561,11.3599593 C13.490529,11.4020133 13.2250316,11.632334 13.1408019,11.943491 C13.0565722,12.2546479 13.1702041,12.5853414 13.4286953,12.7813234 C13.6871865,12.9773053 14.0396126,12.9999662 14.3215889,12.838736 C14.7063389,12.6187412 14.8380834,12.1320574 14.6159321,11.7513881" id="Path" fill="#1D1D1B"></path>
                <path d="M16.4302699,13.5456661 C16.1482937,13.384436 15.7958676,13.4070968 15.5373764,13.6030788 C15.2788852,13.7990608 15.1652533,14.1297542 15.249483,14.4409112 C15.3337127,14.7520681 15.5992101,14.9823888 15.9221372,15.0244429 C16.2450644,15.0664969 16.5618026,14.9119995 16.7246132,14.633014 C16.9467645,14.2523447 16.81502,13.765661 16.4302699,13.5456661" id="Path" fill="#1D1D1B"></path>
                <path d="M10.3082423,10.0957239 C10.6575516,10.0957619 10.9670414,9.87305396 11.0744692,9.54434921 C10.5602107,9.45413814 10.0393468,9.40571827 9.5170976,9.39957484 C9.56736339,9.79726727 9.9092039,10.0957118 10.3144718,10.0957239" id="Path" fill="#1D1D1B"></path>
                <path d="M18.8083763,18.594287 C18.8020808,18.0778163 18.7531202,17.562718 18.6619834,17.0541342 C18.3114181,17.1742577 18.0892373,17.5157301 18.1239594,17.88103 C18.1586815,18.24633 18.4413163,18.5408744 18.8083763,18.594287" id="Path" fill="#1D1D1B"></path>
            </g>
        </g>
    </g>
</svg>