<?xml version="1.0" encoding="UTF-8"?>
<svg width="184px" height="145px" viewBox="0 0 184 145" version="1.1" xmlns="http://www.w3.org/2000/svg" xmlns:xlink="http://www.w3.org/1999/xlink">
    <!-- Generator: Sketch 60.1 (88133) - https://sketch.com -->
    <title>Group 7</title>
    <desc>Created with Sketch.</desc>
    <defs>
        <rect id="path-1" x="0" y="0" width="86" height="66" rx="14"></rect>
        <rect id="path-2" x="0" y="0" width="86" height="66" rx="14"></rect>
        <rect id="path-3" x="0" y="0" width="86" height="66" rx="14"></rect>
        <rect id="path-4" x="0" y="0" width="86" height="66" rx="14"></rect>
    </defs>
    <g id="Solid-2.0" stroke="none" stroke-width="1" fill="none" fill-rule="evenodd">
        <g id="Use-Solid" transform="translate(-400.000000, -317.000000)">
            <g id="Group-7" transform="translate(402.000000, 319.000000)">
                <g id="Group-14">
                    <g id="Rectangle">
                        <use fill="#FFD03E" xlink:href="#path-1"></use>
                        <use stroke="#FFD03E" stroke-width="4" fill-opacity="0.9" fill="#FFFFFF" xlink:href="#path-1"></use>
                    </g>
                    <path d="M34.4999893,44.9999928 C36.8137502,44.9999928 38.6976264,43.539364 38.94935,41.6672066 C38.979837,41.5401775 38.9971862,41.4056411 38.9981017,41.262636 C38.9981017,41.2584246 38.9995208,41.2542132 38.9995208,41.2500018 L38.9995208,33.0000215 L51.7494904,28.9734502 L51.7494904,35.0198531 C51.0857346,34.6983206 50.3235599,34.5000179 49.4999535,34.5000179 C47.0146689,34.5000179 44.9999642,36.179091 44.9999642,38.2500089 C44.9999642,40.3209269 47.0146689,42 49.4999535,42 C51.8141722,42 53.6980484,40.5384556 53.949772,38.6657947 C53.9788399,38.5443961 53.9943123,38.4159479 53.9966469,38.2804959 L54.0004005,38.2500089 L54.0004005,38.2500089 L53.9997711,38.2481321 L53.999485,22.5005043 C53.999485,21.644122 53.2982385,21.0000501 52.5027387,21.0000501 C52.3536912,21.0000501 52.2013478,21.022572 52.0494622,21.0708202 L37.7994962,25.5708094 C37.1765271,25.7676931 36.7499839,26.3437873 36.7499839,27.0000358 L36.7499839,38.0203037 C36.0857704,37.6983135 35.3240535,37.5000107 34.4999893,37.5000107 C32.0147047,37.5000107 30,39.1790839 30,41.2500018 C30,43.3209197 32.0147047,44.9999928 34.4999893,44.9999928 Z M38.9999785,30.6403469 L38.9999785,27.5512735 L51.7494904,23.5252058 L51.7494904,26.6142335 L38.9999785,30.6403469 Z M49.4999535,39.7500125 C48.1738611,39.7500125 47.2499589,38.9592205 47.2499589,38.2500125 C47.2499589,37.5403396 48.1738611,36.7500125 49.4999535,36.7500125 C50.8255882,36.7500125 51.7494904,37.5398361 51.7499481,38.2495512 L51.7499481,38.2504667 C51.7494904,38.9596783 50.8255882,39.7500125 49.4999535,39.7500125 Z M34.4999893,42.7500054 C33.1738969,42.7500054 32.2499946,41.9592134 32.2499946,41.2500054 C32.2499946,40.5403325 33.1738969,39.7500054 34.4999893,39.7500054 C35.8260817,39.7500054 36.7499839,40.5403325 36.7499839,41.2500054 C36.7499839,41.9596711 35.8260817,42.7500054 34.4999893,42.7500054 Z" id="m" fill="#FFD03E" fill-rule="nonzero"></path>
                </g>
                <g id="Group-14" transform="translate(0.000000, 75.000000)">
                    <g id="Rectangle">
                        <use fill="#18A9E7" xlink:href="#path-2"></use>
                        <use stroke="#18A9E7" stroke-width="4" fill-opacity="0.9" fill="#FFFFFF" xlink:href="#path-2"></use>
                    </g>
                    <path d="M50.7499553,44.9999928 C51.9921398,44.9999928 52.9999499,43.9921828 52.9999499,42.7499982 L52.9999499,26.2500376 C52.9999499,25.007853 51.9921398,24.0000501 50.7499553,24.0000501 L48.4999607,24.0000501 L48.4999607,21.5625487 C48.4999607,21.2531928 48.246818,21.0000501 47.937462,21.0000501 L46.0624665,21.0000501 C45.7531105,21.0000501 45.4999678,21.2531928 45.4999678,21.5625487 L45.4999678,24.0000501 L39.4999821,24.0000501 L39.4999821,21.5625487 C39.4999821,21.2531928 39.2468394,21.0000501 38.9374835,21.0000501 L37.0624879,21.0000501 C36.753132,21.0000501 36.4999893,21.2531928 36.4999893,21.5625487 L36.4999893,24.0000501 L34.2499946,24.0000501 C33.0078101,24.0000501 32,25.007853 32,26.2500376 L32,42.7499982 C32,43.9921828 33.0078101,44.9999928 34.2499946,44.9999928 L50.7499553,44.9999928 Z M50.468706,42.7499982 L34.531244,42.7499982 C34.376566,42.7499982 34.2499946,42.6234269 34.2499946,42.4687489 L34.2499946,28.5000322 L50.7499553,28.5000322 L50.7499553,42.4687489 C50.7499553,42.6234269 50.6233839,42.7499982 50.468706,42.7499982 Z" id="c" fill="#18A9E7" fill-rule="nonzero"></path>
                </g>
                <g id="Group-14" transform="translate(94.000000, 75.000000)">
                    <g id="Rectangle">
                        <use fill="#EB1A1A" xlink:href="#path-3"></use>
                        <use stroke="#EB1A1A" stroke-width="4" fill-opacity="0.9" fill="#FFFFFF" xlink:href="#path-3"></use>
                    </g>
                    <path d="M51.7499481,42 C52.9925904,42 53.9999428,40.9926477 53.9999428,39.7500054 L53.9999428,26.2500376 C53.9999428,25.0073952 52.9925904,24.0000429 51.7499481,24.0000429 L32.2499946,24.0000429 C31.0073523,24.0000429 30,25.0073952 30,26.2500376 L30,39.7500054 C30,40.9926477 31.0073523,42 32.2499946,42 L51.7499481,42 Z M51.4686988,39.7500054 L32.531244,39.7500054 C32.3760167,39.7500054 32.2499946,39.6239833 32.2499946,39.468756 L32.2499946,26.5312869 C32.2499946,26.3760596 32.3760167,26.2500376 32.531244,26.2500376 L51.4686988,26.2500376 C51.6239261,26.2500376 51.7499481,26.3760596 51.7499481,26.5312869 L51.7499481,39.468756 C51.7499481,39.6239833 51.6239261,39.7500054 51.4686988,39.7500054 Z M35.9999857,31.8750241 C37.0354904,31.8750241 37.8749812,31.0355333 37.8749812,30.0000286 C37.8749812,28.9645239 37.0354904,28.1250331 35.9999857,28.1250331 C34.964481,28.1250331 34.1249902,28.9645239 34.1249902,30.0000286 C34.1249902,31.0355333 34.964481,31.8750241 35.9999857,31.8750241 Z M49.4999535,37.5000107 L49.4999535,33.7500197 L45.3977141,29.6477803 C45.1780339,29.4281 44.8218946,29.4281 44.6021686,29.6477803 L38.9999785,35.2500161 L37.1477338,33.3977714 C36.9280536,33.1780911 36.5719143,33.1780911 36.3521882,33.3977714 L34.4999893,35.2500161 L34.4999893,37.5000107 L49.4999535,37.5000107 Z" id="i" fill="#EB1A1A" fill-rule="nonzero"></path>
                </g>
                <g id="Group-14" transform="translate(94.000000, 0.000000)">
                    <g id="Rectangle">
                        <use fill="#01E19A" xlink:href="#path-4"></use>
                        <use stroke="#01E19A" stroke-width="4" fill-opacity="0.9" fill="#FFFFFF" xlink:href="#path-4"></use>
                    </g>
                    <path d="M50.9374477,44.9999928 C51.2280812,44.9999928 51.4999464,44.7702876 51.4999464,44.4374942 L51.4999464,42 L52.9999428,42 C54.6546172,42 55.9999356,40.6546816 55.9999356,39.0000072 L55.9999356,31.500025 C55.9999356,29.8453506 54.6546172,28.5000322 52.9999428,28.5000322 L48.4999535,28.5000322 L48.4999535,24.0000501 C48.4999535,22.3453685 47.1546351,21.0000501 45.4999607,21.0000501 L32,21.0000501 C30.3453184,21.0000501 29,22.3453685 29,24.0000501 L29,31.500025 C29,33.1546994 30.3453184,34.5000179 32,34.5000179 L33.4999893,34.5000179 L33.4999893,36.9375121 C33.4999893,37.2703055 33.7718545,37.5000107 34.0624879,37.5000107 C34.175006,37.5000107 34.2921932,37.4671892 34.3952813,37.3874927 L37.9999785,35.348435 L37.9999785,39.0000072 C37.9999785,40.6546816 39.345297,42 40.9999714,42 L45.4999607,42 L50.6046543,44.8874748 C50.7077424,44.9625021 50.8249297,44.9999928 50.9374477,44.9999928 Z M35.7499839,34.0359382 L35.7499839,32.2500232 L31.9999928,32.2500232 C31.587503,32.2500232 31.2499946,31.9125149 31.2499946,31.500025 L31.2499946,24.0000429 C31.2499946,23.5875531 31.587503,23.2500447 31.9999928,23.2500447 L45.4999607,23.2500447 C45.9124505,23.2500447 46.2499589,23.5875531 46.2499589,24.0000429 L46.2499589,31.500025 C46.2499589,31.9125149 45.9124505,32.2500232 45.4999607,32.2500232 L38.9093697,32.2500232 L38.3937459,32.5406567 L35.7499839,34.0359382 Z M49.2499517,41.5359203 L46.6061897,40.0406388 L46.0905659,39.7500054 L40.9999714,39.7500054 C40.5874815,39.7500054 40.2499732,39.412497 40.2499732,39.0000072 L40.2499732,34.5000179 L45.4999607,34.5000179 C47.1546351,34.5000179 48.4999535,33.1546994 48.4999535,31.500025 L48.4999535,30.7500268 L52.9999428,30.7500268 C53.4124326,30.7500268 53.749941,31.0875352 53.749941,31.500025 L53.749941,39.0000072 C53.749941,39.412497 53.4124326,39.7500054 52.9999428,39.7500054 L49.2499517,39.7500054 L49.2499517,41.5359203 Z" id="c" fill="#01E19A" fill-rule="nonzero"></path>
                </g>
            </g>
        </g>
    </g>
</svg>