<?xml version="1.0" encoding="UTF-8"?>
<svg id="Layer_1" data-name="Layer 1" xmlns="http://www.w3.org/2000/svg" xmlns:xlink="http://www.w3.org/1999/xlink" viewBox="0 0 734 469">
  <defs>
    <mask id="mask" x="273.86" y="192.9" width="154.38" height="203.47" maskUnits="userSpaceOnUse">
      <g id="mask-3">
        <ellipse id="path-2" cx="372.44" cy="234.28" rx="42.56" ry="41.38" fill="#fff"/>
      </g>
    </mask>
  </defs>
  <circle id="Oval" cx="368.98" cy="230.11" r="204.64" fill="rgba(123, 77, 255, .09)"/>
  <g id="Group-21">
    <line id="Path-16" x1="47.38" y1="232.56" x2="239.47" y2="351.45" fill="none" stroke="#7b4dff" stroke-dasharray="4.29 8.59" stroke-linecap="round" stroke-linejoin="round" stroke-width="4.29"/>
    <path id="Path-15" d="M214.43,119.92L58.3,234.34h98.41" fill="none" stroke="#7b4dff" stroke-dasharray="4.29 10.02" stroke-linecap="round" stroke-linejoin="round" stroke-width="4.29"/>
  </g>
  <circle id="Oval-2" data-name="Oval" cx="63.87" cy="237.55" r="61.72" fill="#7b4dff"/>
  <line id="Path-18" x1="239.58" y1="104.29" x2="502.06" y2="368.63" fill="none" stroke="#726b7f" stroke-width="4.29"/>
  <line id="Path-18-2" data-name="Path-18" x1="502.06" y1="104.29" x2="239.58" y2="368.63" fill="none" stroke="#726b7f" stroke-width="4.29"/>
  <line id="Path-18-3" data-name="Path-18" x1="367.3" y1="50.2" x2="368.61" y2="422.72" fill="none" stroke="#726b7f" stroke-miterlimit="4" stroke-width="4.29"/>
  <line id="Path-18-4" data-name="Path-18" x1="181.7" y1="236.46" x2="554.21" y2="236.46" fill="none" stroke="#726b7f" stroke-miterlimit="4" stroke-width="4.29"/>
  <path id="m" d="M54.74,242.16v-21.34h1.93v-2.91c0-1.6,1.31-2.91,2.91-2.91h9.63c1.6,0,2.89,1.3,2.89,2.89v2.93h1.93v21.34h-19.29ZM60.53,220.82h7.71v-1.94h-7.71v1.94ZM51.85,242.16c-1.6,0-2.89-1.3-2.89-2.89v-15.55c0-1.6,1.3-2.89,2.89-2.89h.96v21.34h-.96ZM75.96,242.16v-21.34h.96c1.6,0,2.89,1.3,2.89,2.89v15.55c0,1.6-1.3,2.89-2.89,2.89h-.96ZM63.43,236.34h1.92c.53,0,.96-.43.96-.96v-2.92h2.89c.53,0,.96-.43.96-.96v-1.95c0-.53-.44-.97-.97-.97h-2.89v-2.91c0-.53-.44-.97-.97-.97h-1.92c-.53,0-.96.43-.96.96v2.92h-2.89c-.53,0-.96.43-.96.96v1.95c0,.53.44.97.97.97h2.89v2.91c0,.54.43.97.97.97Z" fill="#fff"/>
  <g id="Group-22">
    <line id="Path-16-2" data-name="Path-16" x1="679.14" y1="236.86" x2="497.07" y2="355.75" fill="none" stroke="#ff527f" stroke-dasharray="4.29 7.16" stroke-linecap="round" stroke-linejoin="round" stroke-width="4.29"/>
    <path id="Path-15-2" data-name="Path-15" d="M503.5,114.19l175.64,124.43h-109.33" fill="none" stroke="#ff527f" stroke-dasharray="4.29 7.16" stroke-linecap="round" stroke-linejoin="round" stroke-width="4.29"/>
  </g>
  <circle id="Oval-3" data-name="Oval" cx="671.4" cy="236.32" r="61.72" fill="#ff527f"/>
  <path id="s" d="M672.32,242.3c.57,0,1.04-.47,1.04-1.04v-11.48h1.8c7.35,0,13.33-6.79,13.33-15.13v-1.57h-4.93c-5.94,0-10.98,4.43-12.7,10.53-2.42-3.84-6.37-6.35-10.83-6.35h-4.93v1.57c0,8.34,5.98,15.13,13.33,15.13h1.8v7.31c0,.57.47,1.04,1.04,1.04h1.04ZM675.16,226.65h-1.71c.65-5.88,4.94-10.44,10.12-10.44h1.71c-.65,5.88-4.94,10.44-10.12,10.44ZM670.14,230.82h-1.71c-5.17,0-9.46-4.55-10.12-10.44h1.71c5.17,0,9.46,4.55,10.12,10.44Z" fill="#fff"/>
  <path id="m-2" data-name="m" d="M690.96,278.18c4.47,0,8.09-3.62,8.09-8.09v-70.12c0-4.47-3.62-8.09-8.09-8.09h-37.76c-4.47,0-8.09,3.62-8.09,8.09v70.12c0,4.47,3.62,8.09,8.09,8.09h37.76ZM690.78,272.06h-37.38c-.58,0-1.06-.48-1.06-1.07v-71.92c0-.59.48-1.07,1.06-1.07h37.38c.58,0,1.06.48,1.06,1.07v71.92c0,.59-.48,1.07-1.06,1.07ZM672.09,267.39c2.98,0,5.39-2.41,5.39-5.39s-2.41-5.39-5.39-5.39-5.39,2.41-5.39,5.39,2.41,5.39,5.39,5.39Z" fill="#fff"/>
  <path id="Polygon" d="M366,51.61l125.48,51.97,51.97,125.48-51.97,125.48-125.48,51.97-125.48-51.97-51.97-125.48,51.97-125.48,125.48-51.97Z" fill="none" stroke="#7b4dff" stroke-dasharray="7.16 11.45" stroke-linecap="round" stroke-linejoin="round" stroke-width="4.29"/>
  <path id="Polygon-2" data-name="Polygon" d="M366,35.87l135.6,56.17,56.17,135.6-56.17,135.6-135.6,56.17-135.6-56.17-56.17-135.6,56.17-135.6,135.6-56.17Z" fill="none" stroke="#ff527f" stroke-dasharray="7.16 11.45" stroke-linecap="round" stroke-linejoin="round" stroke-width="4.29"/>
  <path id="Polygon-3" data-name="Polygon" d="M429.49,141.11l50.51,87.49c2.26,3.91,2.26,8.72,0,12.63l-50.51,87.49c-2.26,3.91-6.43,6.32-10.94,6.32h-101.03c-4.51,0-8.68-2.41-10.94-6.32l-50.51-87.49c-2.26-3.91-2.26-8.72,0-12.63l50.51-87.49c2.26-3.91,6.43-6.32,10.94-6.32h101.03c4.51,0,8.68,2.41,10.94,6.32Z" fill="#fff" fill-rule="evenodd" stroke="#726b7f" stroke-miterlimit="4" stroke-width="5.39"/>
  <g id="Group">
    <polygon id="Path-25" points="369.06 311.84 373.5 313.36 404.22 253.72 431.33 176.39 426.48 177.99 399.86 251.2 369.06 311.84" fill="#9a95a3" fill-rule="evenodd" stroke="#fff" stroke-width=".95"/>
    <polygon id="Path-24" points="312.65 292.68 394.35 248.21 453.37 236.01 453.37 241.51 394.35 252.93 312.65 298.93 312.65 292.68" fill="#c3bfc8" fill-rule="evenodd" stroke="#fff" stroke-width=".95"/>
    <polygon id="Path-24-2" data-name="Path-24" points="285.76 235.26 394.35 248.21 453.37 236.01 453.37 241.51 394.35 252.93 285.76 239.74 285.76 235.26" fill="#9a95a3" fill-rule="evenodd" stroke="#fff" stroke-width=".95"/>
    <polygon id="Path-24-3" data-name="Path-24" points="360.33 208.75 369.6 317.14 365.73 321.87 356.46 208.75 360.33 208.75" fill="#c3bfc8" fill-rule="evenodd" stroke="#fff" stroke-width=".95"/>
    <polygon id="Path-24-4" data-name="Path-24" points="289.63 238.8 420.86 292.4 418.75 297.12 289.29 244.1 289.63 238.8" fill="#c3bfc8" fill-rule="evenodd" stroke="#fff" stroke-width=".95"/>
    <path id="Combined-Shape" d="M367.99,144.72l63.71,26.56,26.39,64.12-26.39,64.12-63.71,26.56-63.71-26.56-26.39-64.12,26.39-64.12,63.71-26.56ZM367.99,149.47l-60.37,25.17-25.01,60.76,25.01,60.76,60.37,25.17,60.37-25.17,25.01-60.76-25.01-60.76-60.37-25.17Z" fill="#d7d5da" fill-rule="evenodd" isolation="isolate"/>
    <path id="Combined-Shape-2" data-name="Combined-Shape" d="M367.99,144.72l62.47,27.57-3.32,1.37-59.15-24.19-60.37,25.17-24.04,58.4-5.69,2.36,26.39-64.12,63.71-26.56Z" fill="#362b48" fill-rule="evenodd"/>
    <polygon id="Path-2" points="450.69 239.93 428.97 291.01 431.89 295.97 458.09 238.16 450.69 239.93" fill="#9a95a3" fill-rule="evenodd" stroke="#fff" stroke-width="1.77"/>
    <path id="Polygon-Copy-8" d="M460.05,229.25c3.16,1.84,5.11,5.22,5.11,8.88v.06c0,3.66-1.95,7.04-5.11,8.88-3.16,1.84-7.06,1.84-10.22,0-3.16-1.84-5.11-5.22-5.11-8.88v-.06c0-3.66,1.95-7.04,5.11-8.88,3.16-1.84,7.06-1.84,10.22,0Z" fill="#c3bfc8" fill-rule="evenodd" stroke="#fff" stroke-width="3.66"/>
    <path id="Polygon-Copy" d="M371.92,309.24c3.16,1.84,5.11,5.22,5.11,8.88v.06c0,3.66-1.95,7.04-5.11,8.88-3.16,1.84-7.06,1.84-10.22,0-3.16-1.84-5.11-5.22-5.11-8.88v-.06c0-3.66,1.95-7.04,5.11-8.88,3.16-1.84,7.06-1.84,10.22,0Z" fill="#c3bfc8" fill-rule="evenodd" stroke="#fff" stroke-width="3.66"/>
    <path id="Combined-Shape-3" data-name="Combined-Shape" d="M372.7,140.56c3.16,1.84,5.11,5.22,5.11,8.88v.06c0,3.66-1.95,7.04-5.11,8.88-1.51.88-3.19,1.33-4.87,1.37l-9.36,26.47c1.49.4,2.94.99,4.3,1.78l.83.48c1.26.73,2.36,1.63,3.31,2.66l51.85-15.76v-.26c.16-3.48,2.08-6.66,5.11-8.43,3.16-1.84,7.06-1.84,10.22,0,3.16,1.84,5.11,5.22,5.11,8.88v.06c0,3.66-1.95,7.04-5.11,8.88-3.16,1.84-7.06,1.84-10.22,0-1.33-.77-2.44-1.82-3.29-3.04l-50.34,16.28c.34,1.69.36,3.45.04,5.22l-.67,3.62c-.33,1.77-.95,3.45-1.83,4.96l22.78,29.73c2.88-1.16,6.17-.94,8.9.65,3.16,1.84,5.11,5.22,5.11,8.88v.06c0,2.23-.72,4.35-2,6.09l22.07,28.8c2.15-.25,4.36.18,6.3,1.31,3.16,1.84,5.11,5.22,5.11,8.88v.06c0,3.66-1.95,7.04-5.11,8.88-3.16,1.84-7.06,1.84-10.22,0-3.16-1.84-5.11-5.22-5.11-8.88v-.06c0-2.45.87-4.78,2.4-6.6l-21.42-28.47c-2.47.55-5.09.18-7.34-1.13-3.16-1.84-5.11-5.22-5.11-8.88v-.06c0-1.73.43-3.39,1.22-4.86l-22.13-29.42c-1.15.8-2.41,1.46-3.77,1.93-.71.25-1.43.45-2.15.6l-38.82,68.73c1.33,1.76,2.09,3.93,2.09,6.21v.06c0,3.66-1.95,7.04-5.11,8.88-3.16,1.84-7.06,1.84-10.22,0-3.16-1.84-5.11-5.22-5.11-8.88v-.06c0-3.66,1.95-7.04,5.11-8.88,2.02-1.17,4.34-1.6,6.57-1.27l36.52-65.48c-1.59-.59-3.11-1.43-4.48-2.52l-.72-.57c-1.42-1.13-2.62-2.47-3.57-3.95l-43.58,25.04c0,.06,0,.12,0,.18v.06c0,3.66-1.95,7.04-5.11,8.88-3.16,1.84-7.06,1.84-10.22,0-3.16-1.84-5.11-5.22-5.11-8.88v-.06c0-3.66,1.95-7.04,5.11-8.88,3.16-1.84,7.06-1.84,10.22,0,.89.52,1.68,1.15,2.36,1.89l43.9-24.95c-.19-1.56-.16-3.17.11-4.76l.14-.79c.23-1.35.64-2.64,1.19-3.86l-23.55-11.6c-.41.34-.86.64-1.33.92-3.16,1.84-7.06,1.84-10.22,0-3.16-1.84-5.11-5.22-5.11-8.88v-.06c0-3.66,1.95-7.04,5.11-8.88,3.16-1.84,7.06-1.84,10.22,0,3.16,1.84,5.11,5.22,5.11,8.88v.06c0,.99-.14,1.96-.42,2.89l25.15,10.47c1.06-.8,2.23-1.47,3.48-2,1.04-.43,2.1-.76,3.19-.99l10.05-29.37c-1.82-1.89-2.88-4.43-2.88-7.13v-.06c0-3.66,1.95-7.04,5.11-8.88,3.16-1.84,7.06-1.84,10.22,0Z" fill="#362b48" fill-rule="evenodd" stroke="#fff" stroke-width="3.66"/>
  </g>
  <g id="A-Human_Standing" data-name="A-Human/Standing">
    <g id="Mask">
      <g id="path-10-link">
        <ellipse id="path-10" cx="372.44" cy="233.08" rx="42.56" ry="41.38"/>
      </g>
      <g id="Oval-4" data-name="Oval">
        <ellipse cx="372.44" cy="233.08" rx="48.9" ry="47.72" fill="#fff" stroke="#fff" stroke-width="11.05"/>
        <ellipse cx="372.44" cy="233.08" rx="46.39" ry="45.21" fill="none" stroke="#726b7f" stroke-width="6.03"/>
      </g>
    </g>
    <g id="A-Human_Sitting-Clipped" data-name="A-Human/Sitting-Clipped">
      <g mask="url(#mask)">
        <g id="A-Human_Sitting" data-name="A-Human/Sitting">
          <g id="Group-2" data-name="Group">
            <g>
              <g id="Head_Front_Curly" data-name="Head/Front/Curly">
                <g id="Head">
                  <path id="Path" d="M358.71,213.64c-3.33,6.19-2.93,21.89,1.37,23,1.71.44,5.37-.64,9.08-2.88l-2.33,16.48h13.77l-4.74-22.07c2.64-3.1,4.43-6.9,4.14-11.15-.86-12.26-17.96-9.57-21.28-3.38Z" fill="#b28b67"/>
                </g>
                <path id="hair" d="M352.61,205.06c.29-1,1.05-1.86,2.09-2.11.25-.06.51-.09.77-.08.09,0,.12.03.16-.03.03-.05.03-.16.05-.22.04-.18.09-.35.16-.52.22-.57.58-1.08,1.02-1.51.82-.8,1.93-1.35,3.08-1.45.63-.05,1.26.05,1.85.25.31.11.61.24.9.38.09.04.37.26.46.24.1-.02.29-.26.37-.32.98-.75,2.18-1.04,3.4-1.03,1.37.01,2.69.08,3.84.91.24.18.47.37.69.57.12.11.23.22.33.33.06.07.13.14.19.22.1.12.09.17.23.08.55-.33,1.19-.49,1.83-.41.38.05.75.16,1.11.31.12.05.4.26.53.26.13,0,.4-.19.53-.24.71-.26,1.47-.32,2.21-.2.77.12,1.52.43,2.17.85.31.2.58.43.8.73.09.13.18.27.29.39.06.07.19.14.22.23-.02-.05.84-.38.92-.4.43-.11.87-.09,1.29.05.79.26,1.48.85,2.04,1.45.29.31.54.65.75,1.01.1.17.2.35.28.54.04.09.07.2.12.28.07.1.12.1.25.15.65.23,1.24.61,1.69,1.13.46.53.75,1.17.88,1.86,0,.04.01.21.04.23.03.03.16.02.21.02.17.02.34.05.51.09.31.07.61.18.89.32,1.11.55,1.9,1.58,2.29,2.73.41,1.21.4,2.6-.09,3.8-.08.19-.17.38-.28.56-.07.11-.09.11-.05.22.05.13.14.25.2.37.19.4.32.83.41,1.27.14.72.21,1.47.07,2.19-.06.34-.17.66-.34.96-.09.15-.18.3-.3.43-.06.07-.12.14-.19.2-.04.04-.09.07-.12.11-.08.1-.09.02-.05.16.06.2.18.4.26.6.08.2.15.41.22.62.13.42.25.85.32,1.29.14.84.11,1.73-.29,2.5-.17.33-.41.62-.71.84-.14.11-.3.2-.47.28-.08.04-.19.06-.23.14-.04.09.02.26.03.36.12.85.18,1.75-.07,2.58-.23.77-.75,1.45-1.42,1.9-1.3.87-3.04.82-4.41.12-.36-.18-.69-.41-.98-.68-.75,1.01-2.31.98-3.41.69-1.37-.36-2.48-1.31-3.11-2.57-.87,1.06-2.69.71-3.29-.43-.15-.28-.23-.59-.28-.9-.02-.16,0-.33-.03-.49-.02-.21-.16-.41-.24-.61-.16-.39-.25-.8-.26-1.22,0-.22.03-.44.05-.65.02-.2-.04-.38-.07-.57.35.06.78-.04,1.11-.14.33-.1.63-.36.86-.6.53-.56.86-1.29,1.08-2.02.49-1.6.29-3.52-1.32-4.4-.75-.41-3-.41-3.9-.21-.94.21-2.01,2.29-2.06,2.48-.03.12-.02.27-.13.35-.24.18-.65-.13-.83-.28-.31-.26-.53-.61-.72-.96-.42-.77-.75-1.59-.99-2.43-.18-.65-.3-1.32-.54-1.95-.24-.63-.61-1.19-1.2-1.55-.64-.39-1.37-.59-2.06-.83-.69-.24-1.37-.54-1.91-1.05-.12-.11-.23-.23-.33-.36-.07-.1-.15-.3-.26-.37-.18-.1-.44.17-.59.26-.76.48-1.39,1.15-1.9,1.88-.51.73-.92,1.43-1.26,2.24-.25.6-.41,1.38-.85,1.87-.2.22-1.66.35-2.13.16-.47-.19-1.01-.69-1.16-1.01-.16-.32-.2-.67-.13-1.02.04-.21.12-.4.17-.6.04-.17.07-.33.16-.49.16-.3.43-.51.75-.6-.34-.31-.62-.68-.81-1.1-.2-.43-.37-.96-.42-1.43-.04-.39.02-.78.23-1.12.22-.35.61-.57.95-.79-.52-.41-.96-.9-1.33-1.44-.71-1.06-1.15-2.4-.79-3.66Z" fill="#362b48"/>
              </g>
              <g id="Bottom_Sitting_Sweat-Pants" data-name="Bottom/Sitting/Sweat-Pants">
                <g id="Objects_Seat_Cube-2" data-name="Objects/Seat/Cube-2">
                  <path id="Seat" d="M353.06,321.87c-5.07,0-9.18,4.11-9.18,9.18v52.7c0,5.07,4.11,9.18,9.18,9.18h66c5.07,0,9.18-4.11,9.18-9.18v-52.7c0-5.07-4.11-9.18-9.18-9.18h-66ZM362.24,337.92h47.63c1.27,0,2.3,1.03,2.3,2.3h0v34.38c0,1.27-1.03,2.3-2.3,2.3h-47.63c-1.27,0-2.3-1.03-2.3-2.3h0v-34.38c0-1.27,1.03-2.3,2.3-2.3h0Z" fill="#c5cfd6"/>
                </g>
                <path id="Skin" d="M309.96,319.3c-2.91,7.54-8,32.29-14.11,69.69l6.99,2.04c7.35-16.25,12.67-30.4,14.81-37.87,3.65-12.78,6.44-24.03,7.14-28.23,1.68-10.02-12.89-10.6-14.82-5.62ZM332.01,340.3c21.27,3.06,51.43,6.21,54.01,6.57,3.62.5,6.35-5.18,2.11-6.85-6.75-2.66-30.37-11-41.77-13.35-3.27-.68-6.45-1.31-9.43-1.88-8.87-1.69-13.46,14.29-4.92,15.51Z" fill="#b28b67"/>
                <path id="Leg-Back" d="M363.64,297.8c-35.3,8.98-53.34,14.74-54.12,17.27l-.02.08s-.03.05-.05.07c-7,9.61-11.19,56.52-12.56,60.03l13.41,2c5.13-18.99,21.54-32.22,21.1-54.97.12-.67.15-1.3.1-1.9l36.49-18.55v-4.04h-4.34Z" fill="#005eb8"/>
                <path id="Leg-Front" d="M361.7,297.8c-5.11,1.47-31.7,12.6-45.49,18.52-9.13,3.92-6.25,18.04-1.08,21.72.03.23.12.38.29.45,27.81,11.51,49.81,5.47,57.15,7.4l3.4-10.71-11.02-3.78c3.34-.67,6.41-1.26,9.04-1.72,16.99-2.98,21.95-12.06,19.02-31.88h-31.31Z" fill="#0072c3"/>
                <g id="Accessories_Shoe_Flat-Sneaker" data-name="Accessories/Shoe/Flat-Sneaker">
                  <path id="shoe" d="M385.82,338.3c1.82.17,3.11.45,3.87.82.93.45,2.21,1.27,3.84,2.45-.53,1.08-5.26,10.78-14.19,29.09-2.86-.46-4-1.55-3.4-3.28.6-1.73,1.08-3.17,1.44-4.32l.58-16.46c.01-.32.28-.56.59-.55,0,0,.01,0,.02,0l2.53.16h0c1.44-1.17,2.39-2.22,2.85-3.16.37-.77.58-1.97.62-3.63h0c.02-.63.54-1.13,1.18-1.12.03,0,.05,0,.08,0Z" fill="#e4e4e4"/>
                </g>
                <g id="Accessories_Shoe_Flat-Sneaker-2" data-name="Accessories/Shoe/Flat-Sneaker">
                  <path id="shoe-2" data-name="shoe" d="M306.18,388.01c.64,1.71.96,2.99.96,3.84,0,1.03-.17,2.54-.52,4.52h-32.37c-.84-2.78-.36-4.28,1.46-4.5s3.32-.42,4.52-.6l15.04-6.7c.29-.13.63,0,.76.29,0,0,0,0,0,.01l.97,2.34h0c1.68.78,3.04,1.17,4.09,1.17.85,0,2.03-.34,3.53-1.03h0c.58-.26,1.26-.01,1.52.57.01.02.02.05.03.07Z" fill="#e4e4e4"/>
                </g>
              </g>
              <g id="Body_Jacket" data-name="Body/Jacket">
                <path id="Skin-2" data-name="Skin" d="M406.82,290.94l-11.99.05c7.4,23.87,11.4,36.54,11.99,38,1.33,3.29-1.48,8.29-2.68,10.98,3.91,1.75,3.5-4.73,8.43-2.43,4.51,2.09,7.93,5.89,13.14,2.68.64-.39,1.34-1.88-.35-3.04-4.22-2.89-10.31-7.95-11.13-9.62-1.12-2.27-3.59-14.48-7.41-36.61h0ZM334.67,288.7l-16.26,15.84c-4.73,2.01-8.61,4.24-11.63,6.67-.68.82-1.42,2.39,1.78,1.68s6.59-1.3,7.19-.26c.6,1.04-1.17,2.63-.06,3.99.74.91,3.23-1.98,7.47-8.64l16.91-9.95-5.4-9.33Z" fill="#b28b67"/>
                <path id="Coat-Back" d="M372.74,240.69l-4.96-.85c-8.54,21.31-23.46,40.68-44.75,58.1l16.09,19.52c21.29-24.8,34.41-50.39,33.62-76.76Z" fill="#362b48"/>
                <path id="Shirt" d="M394.38,302.96h-44.19c10.24-24.86,15.36-45.97,15.36-63.35l13.33-1.98c10.48,16.82,13.43,37.54,15.5,65.33Z" fill="#362b48"/>
                <path id="Coat-Front" d="M378.28,237.63c-1.04.04-2.63.1-4.76.19h0l-3.22,9.19c-.34,11.21-2.33,33.79-5.97,67.75h28.97c-.08,2.35-.2,4.71-.38,7.1h21.54c-3.22-36.3-14.99-64.38-35.3-84.24h-.01s0,0,0,0h-.87Z" fill="#362b48"/>
                <path id="Shade" d="M385.19,315h8.1c.35-10.52-.28-20.6-1.91-30.24-.83,14.62-2.89,24.7-6.19,30.24Z"/>
                <polygon id="Light" points="386.85 297.23 372.57 290.6 372.57 297.23 386.85 297.23" fill="rgba(255, 255, 255, .2)"/>
              </g>
            </g>
          </g>
        </g>
      </g>
    </g>
  </g>
  <path id="Polygon-Copy-6" d="M581.55,199.36l17.6,30.49c2.14,3.7,2.14,8.26,0,11.96l-17.6,30.49c-2.14,3.7-6.09,5.98-10.36,5.98h-35.21c-4.27,0-8.22-2.28-10.36-5.98l-17.6-30.49c-2.14-3.7-2.14-8.26,0-11.96l17.6-30.49c2.14-3.7,6.09-5.98,10.36-5.98h35.21c4.27,0,8.22,2.28,10.36,5.98Z" fill="#fff" fill-rule="evenodd" stroke="#ffab50" stroke-miterlimit="4" stroke-width="5.11"/>
  <path id="Polygon-4" data-name="Polygon" d="M209.25,198.45l17.6,30.49c2.14,3.7,2.14,8.26,0,11.96l-17.6,30.49c-2.14,3.7-6.09,5.98-10.36,5.98h-35.21c-4.27,0-8.22-2.28-10.36-5.98l-17.6-30.49c-2.14-3.7-2.14-8.26,0-11.96l17.6-30.49c2.14-3.7,6.09-5.98,10.36-5.98h35.21c4.27,0,8.22,2.28,10.36,5.98Z" fill="#fff" fill-rule="evenodd" stroke="#ffab50" stroke-miterlimit="4" stroke-width="5.11"/>
  <path id="Polygon-Copy-10" d="M255.22,62.21l17.6,30.49c2.14,3.7,2.14,8.26,0,11.96l-17.6,30.49c-2.14,3.7-6.09,5.98-10.36,5.98h-35.21c-4.27,0-8.22-2.28-10.36-5.98l-17.6-30.49c-2.14-3.7-2.14-8.26,0-11.96l17.6-30.49c2.14-3.7,6.09-5.98,10.36-5.98h35.21c4.27,0,8.22,2.28,10.36,5.98Z" fill="#fff" fill-rule="evenodd" stroke="#ffab50" stroke-miterlimit="4" stroke-width="5.11"/>
  <path id="Polygon-Copy-15" d="M395.35,10.93l17.6,30.49c2.14,3.7,2.14,8.26,0,11.96l-17.6,30.49c-2.14,3.7-6.09,5.98-10.36,5.98h-35.21c-4.27,0-8.22-2.28-10.36-5.98l-17.6-30.49c-2.14-3.7-2.14-8.26,0-11.96l17.6-30.49c2.14-3.7,6.09-5.98,10.36-5.98h35.21c4.27,0,8.22,2.28,10.36,5.98Z" fill="#fff" fill-rule="evenodd" stroke="#ffab50" stroke-miterlimit="4" stroke-width="5.11"/>
  <path id="Polygon-Copy-12" d="M255.22,326.9l17.6,30.49c2.14,3.7,2.14,8.26,0,11.96l-17.6,30.49c-2.14,3.7-6.09,5.98-10.36,5.98h-35.21c-4.27,0-8.22-2.28-10.36-5.98l-17.6-30.49c-2.14-3.7-2.14-8.26,0-11.96l17.6-30.49c2.14-3.7,6.09-5.98,10.36-5.98h35.21c4.27,0,8.22,2.28,10.36,5.98Z" fill="#fff" fill-rule="evenodd" stroke="#ffab50" stroke-miterlimit="4" stroke-width="5.11"/>
  <path id="Polygon-Copy-14" d="M395.35,385.52l17.6,30.49c2.14,3.7,2.14,8.26,0,11.96l-17.6,30.49c-2.14,3.7-6.09,5.98-10.36,5.98h-35.21c-4.27,0-8.22-2.28-10.36-5.98l-17.6-30.49c-2.14-3.7-2.14-8.26,0-11.96l17.6-30.49c2.14-3.7,6.09-5.98,10.36-5.98h35.21c4.27,0,8.22,2.28,10.36,5.98Z" fill="#fff" fill-rule="evenodd" stroke="#ffab50" stroke-miterlimit="4" stroke-width="5.11"/>
  <path id="Polygon-Copy-13" d="M531.64,326.67l17.6,30.49c2.14,3.7,2.14,8.26,0,11.96l-17.6,30.49c-2.14,3.7-6.09,5.98-10.36,5.98h-35.21c-4.27,0-8.22-2.28-10.36-5.98l-17.6-30.49c-2.14-3.7-2.14-8.26,0-11.96l17.6-30.49c2.14-3.7,6.09-5.98,10.36-5.98h35.21c4.27,0,8.22,2.28,10.36,5.98Z" fill="#fff" fill-rule="evenodd" stroke="#ffab50" stroke-miterlimit="4" stroke-width="5.11"/>
  <path id="Polygon-Copy-11" d="M537.13,61.98l17.6,30.49c2.14,3.7,2.14,8.26,0,11.96l-17.6,30.49c-2.14,3.7-6.09,5.98-10.36,5.98h-35.21c-4.27,0-8.22-2.28-10.36-5.98l-17.6-30.49c-2.14-3.7-2.14-8.26,0-11.96l17.6-30.49c2.14-3.7,6.09-5.98,10.36-5.98h35.21c4.27,0,8.22,2.28,10.36,5.98Z" fill="#fff" fill-rule="evenodd" stroke="#ffab50" stroke-miterlimit="4" stroke-width="5.11"/>
  <path id="h" d="M353.13,63.63c.64,0,1.17-.53,1.17-1.17v-.85l-4.83-6.04c-.67-.83-1.02-1.86-1.02-2.93v-14.13c0-.85.57-1.63,1.41-1.79,1.12-.22,2.11.64,2.11,1.72v.2s0,.05,0,.09v.34s0,.09,0,.14v.31c0,.05,0,.11,0,.17v.37c0,.83,0,1.91,0,3.02v.51c0,1.8,0,3.62.01,4.57,0,.56.2,1.08.57,1.51l5.6,6.78c.32.39.78.59,1.24.59.42,0,.86-.17,1.18-.51.55-.58.53-1.49.06-2.14l-3.62-4.9c-.59-.77-.45-1.87.32-2.47.32-.25.7-.37,1.07-.37.53,0,1.05.23,1.4.69l5.25,6.82c.63.82.97,1.82.97,2.85v5.45c0,.64.53,1.17,1.17,1.17h2.34c.64,0,1.17-.53,1.17-1.17v-5.45c0-1.03.34-2.03.97-2.85l5.25-6.82c.34-.45.87-.69,1.4-.69.37,0,.75.12,1.07.37.77.59.91,1.69.32,2.47l-3.62,4.9c-.48.64-.48,1.56.06,2.14.32.34.75.51,1.18.51.46,0,.92-.2,1.24-.59l5.6-6.78c.37-.42.56-.95.57-1.51,0-.09,0-.19,0-.3v-.34c0-.06,0-.12,0-.18v-2.48c0-.08,0-.17,0-.25v-.77c0-.09,0-.17,0-.26v-.51c0-.09,0-.17,0-.26v-.51c0-.08,0-.17,0-.25v-.49c0-.08,0-.16,0-.24v-.46c0-.22,0-.43,0-.64v-.38c0-.06,0-.12,0-.18v-.48s0-.09,0-.14v-.34s0-.06,0-.09v-.2h0c0-1.08.98-1.94,2.11-1.72.83.16,1.41.94,1.41,1.79v14.13c0,1.06-.36,2.09-1.02,2.92l-4.83,6.04v.85c0,.64.53,1.17,1.17,1.17h1.19c.36,0,.7-.16.91-.45l4.3-5.42c1.16-1.45,1.79-3.26,1.79-5.12v-14.01c0-2.8-2.11-5.25-4.91-5.44-3.07-.2-5.63,2.23-5.63,5.25v.25s0,.06,0,.09v.21s0,.08,0,.12v.27c0,1.06,0,2.88-.01,4.63-.86-.57-1.88-.88-2.91-.88-1.65,0-3.17.75-4.17,2.05l-5.25,6.83c-.2.26-.37.54-.53.82-.17-.28-.33-.56-.53-.82l-5.25-6.83c-1.01-1.3-2.53-2.05-4.17-2.05-1.03,0-2.06.31-2.91.88v-.48c0-1.6,0-3.19-.01-4.15v-.27s0-.08,0-.12v-.21s0-.06,0-.09v-.25h0c0-3.02-2.56-5.46-5.63-5.25-2.8.18-4.91,2.63-4.91,5.44v14.02c0,1.85.64,3.67,1.79,5.12l4.3,5.42c.22.28.56.45.91.45h1.19Z" fill="#ffab50"/>
  <path id="r" d="M514.54,88.13c1.94,0,3.52-1.57,3.52-3.51s-1.57-3.51-3.52-3.51-3.52,1.57-3.52,3.51,1.57,3.51,3.52,3.51ZM512.78,118.58c.76,0,1.47-.5,1.69-1.27l2.44-7.65c.51-1.77-.24-3.68-1.82-4.64l-3.79-2.29,3.07-7.67c.2.27.37.56.47.88l1.02,3.36c.53,1.73,2.1,2.9,3.91,2.9h3.54s0,.01,0,.01c.97,0,1.75-.78,1.76-1.75,0-.97-.78-1.76-1.75-1.76h-3.54c-.26-.01-.48-.18-.56-.43l-1.02-3.36c-.67-2.21-2.49-3.9-4.74-4.41l-5.73-1.3c-1.88-.43-3.84,0-5.36,1.19l-3.54,2.73c-.77.59-.91,1.7-.32,2.46.59.77,1.7.91,2.46.32l3.54-2.73c.69-.54,1.59-.73,2.44-.54l1.09.25-2.58,6.39c-.76,1.88-.05,4,1.68,5.04l6.13,3.7c.16.09.28.32.28.5,0,.05-.01.12-.02.16l-2.44,7.65c-.27.93.27,1.91,1.21,2.17.16.05.32.07.48.07ZM501.87,111.55c1.64,0,3.12-.97,3.77-2.48l.99-2.31-.7-.42c-.87-.53-1.55-1.23-2.07-2.04l-1.45,3.39c-.09.22-.3.36-.54.36h-5.49c-.97,0-1.76.79-1.76,1.76s.79,1.76,1.76,1.76h5.49Z" fill="#ffab50"/>
  <path id="w" d="M234.13,118.58c1.29,0,2.34-1.05,2.34-2.34v-3.63c2.67-.54,4.68-2.9,4.68-5.74v-14.05c0-2.83-2.01-5.19-4.68-5.74v-3.63c0-1.29-1.05-2.34-2.34-2.34h-14.05c-1.29,0-2.34,1.05-2.34,2.34v3.63c-2.67.54-4.68,2.9-4.68,5.74v14.05c0,2.83,2.01,5.19,4.68,5.74v3.63c0,1.29,1.05,2.34,2.34,2.34h14.05ZM232.96,86.96h-11.71v-2.34h11.71v2.34ZM235.3,109.21h-16.39c-1.29,0-2.34-1.05-2.34-2.34v-14.05c0-1.29,1.05-2.34,2.34-2.34h16.39c1.29,0,2.34,1.05,2.34,2.34v14.05c0,1.29-1.05,2.34-2.34,2.34ZM227.68,105.47l4.98-4.7c1.45-1.37,1.36-3.63-.25-4.89-1.61-1.26-3.72-.7-4.8.32l-.51.48-.51-.48c-1.05-.99-3.17-1.59-4.8-.32-1.62,1.26-1.7,3.52-.25,4.89l4.98,4.7c.32.3.84.3,1.16,0ZM232.96,115.06h-11.71v-2.34h11.71v2.34Z" fill="#ffab50"/>
  <path id="c" d="M194.18,255.96c.45,0,.88-.36.88-.88v-3.81h2.34c2.58,0,4.68-2.1,4.68-4.68v-11.71c0-2.58-2.1-4.68-4.68-4.68h-7.03v-7.03c0-2.58-2.1-4.68-4.68-4.68h-21.08c-2.58,0-4.68,2.1-4.68,4.68v11.71c0,2.58,2.1,4.68,4.68,4.68h2.34v3.81c0,.52.42.88.88.88.18,0,.36-.05.52-.18l5.63-3.18v5.7c0,2.58,2.1,4.68,4.68,4.68h7.03l7.97,4.51c.16.12.34.18.52.18ZM170.47,238.84v-2.79h-5.86c-.64,0-1.17-.53-1.17-1.17v-11.71c0-.64.53-1.17,1.17-1.17h21.08c.64,0,1.17.53,1.17,1.17v11.71c0,.64-.53,1.17-1.17,1.17h-10.29l-.81.45-4.13,2.33ZM191.55,250.55l-4.13-2.33-.81-.45h-7.95c-.64,0-1.17-.53-1.17-1.17v-7.03h8.2c2.58,0,4.68-2.1,4.68-4.68v-1.17h7.03c.64,0,1.17.53,1.17,1.17v11.71c0,.64-.53,1.17-1.17,1.17h-5.86v2.79Z" fill="#ffab50"/>
  <path id="c-2" data-name="c" d="M239.58,383.26c1.94,0,3.51-1.57,3.51-3.51v-25.76c0-1.94-1.57-3.51-3.51-3.51h-3.51v-3.81c0-.48-.4-.88-.88-.88h-2.93c-.48,0-.88.4-.88.88v3.81h-9.37v-3.81c0-.48-.4-.88-.88-.88h-2.93c-.48,0-.88.4-.88.88v3.81h-3.51c-1.94,0-3.51,1.57-3.51,3.51v25.76c0,1.94,1.57,3.51,3.51,3.51h25.76ZM239.14,379.75h-24.88c-.24,0-.44-.2-.44-.44v-21.81h25.76v21.81c0,.24-.2.44-.44.44Z" fill="#ffab50"/>
  <path id="s-2" data-name="s" d="M501.97,381.83c.98,0,1.9-.49,2.45-1.3l2.96-4.38c-1.07-.53-2.03-1.23-2.83-2.09l-2.58,3.83-3.8-5.64-6.65,1.29,1.29-6.67-5.62-3.81,5.62-3.81-1.29-6.67,6.66,1.29,3.79-5.62,3.8,5.63,6.66-1.29-.61,3.18c1.17-.84,2.5-1.45,3.92-1.76l.3-1.56c.19-.97-.12-1.96-.81-2.66-.7-.7-1.7-1-2.65-.81l-5.19,1-2.96-4.38c-1.11-1.63-3.8-1.63-4.9,0l-2.96,4.38-5.18-1c-.97-.18-1.96.12-2.66.82-.7.7-1,1.69-.81,2.66l1,5.2-4.38,2.96c-.82.56-1.3,1.47-1.3,2.46s.49,1.9,1.3,2.45l4.38,2.96-1,5.2c-.19.97.12,1.96.81,2.66.7.7,1.68,1,2.66.81l5.18-1,2.96,4.38c.55.82,1.47,1.31,2.45,1.31ZM501.97,370.71c.19,0,.37-.04.56-.06-.34-.98-.56-2.01-.56-3.1,0-.12.03-.23.03-.35h-.03c-2.26,0-4.1-1.84-4.1-4.1s1.84-4.1,4.1-4.1c1.25,0,2.36.58,3.12,1.47.86-.79,1.89-1.41,3.01-1.85-1.39-1.89-3.61-3.13-6.13-3.13-4.19,0-7.61,3.42-7.61,7.61s3.42,7.61,7.61,7.61ZM522.81,374.81c4,0,7.26-3.26,7.26-7.26,0-2.97-1.78-5.53-4.35-6.65-1.37-2.9-4.29-4.83-7.65-4.83-3.1,0-5.86,1.71-7.33,4.26-3.62.42-6.43,3.49-6.43,7.22,0,4,3.26,7.26,7.26,7.26h11.24ZM522.81,371.29h-11.24c-2.07,0-3.75-1.68-3.75-3.75s1.68-3.75,3.75-3.75c.56,0,1.08.16,1.56.39.2-2.57,2.32-4.6,4.94-4.6s4.54,1.84,4.9,4.23c1.99.09,3.59,1.71,3.59,3.73s-1.68,3.75-3.75,3.75Z" fill="#ffab50"/>
  <path id="g" d="M367.66,440.26c10.03,0,18.15-8.12,18.15-18.15s-8.12-18.15-18.15-18.15-18.15,8.12-18.15,18.15,8.12,18.15,18.15,18.15ZM372.29,415.67h-9.25c1.07-5.18,3.26-8.2,4.63-8.2s3.56,3.02,4.63,8.2ZM380.79,415.67h-4.92c-.49-2.67-1.28-5.04-2.28-6.93,3.14,1.39,5.69,3.86,7.2,6.93ZM359.46,415.67h-4.92c1.52-3.07,4.06-5.54,7.2-6.93-1,1.9-1.79,4.26-2.28,6.93ZM359.01,425.04h-5.69c-.19-.94-.29-1.92-.29-2.93s.1-1.98.29-2.93h5.69c-.07.96-.12,1.92-.12,2.93s.05,1.97.12,2.93ZM372.8,425.04h-10.26c-.08-.94-.14-1.9-.14-2.93s.06-1.99.14-2.93h10.27c.08.94.14,1.9.14,2.93s-.07,1.99-.15,2.93ZM382.01,425.04h-5.69c.07-.96.12-1.92.12-2.93s-.05-1.97-.12-2.93h5.69c.19.94.29,1.92.29,2.93s-.1,1.98-.29,2.93ZM361.74,435.48c-3.14-1.39-5.69-3.86-7.2-6.93h4.92c.49,2.67,1.28,5.04,2.28,6.93ZM367.66,436.75c-1.36,0-3.56-3.02-4.63-8.2h9.26c-1.08,5.18-3.27,8.2-4.63,8.2ZM373.59,435.48c1-1.9,1.79-4.26,2.28-6.93h4.92c-1.52,3.07-4.06,5.54-7.2,6.93Z" fill="#ffab50"/>
  <path id="p" d="M536.56,255.93l10.9-1.8,23.08-23.23c1.93-1.93,1.95-5.04-.05-7.03l-3.94-3.94c-1.93-1.93-5.06-1.93-6.99,0l-23.23,23.08-1.8,10.9c-.2,1.19.83,2.21,2.02,2.02ZM564.75,232.17l-6.44-6.44,3.54-3.52h0c.67-.68,1.75-.68,2.43,0l3.94,3.94c.72.72.73,1.8.05,2.48h0s-3.52,3.55-3.52,3.55ZM549.89,247.13v-3.03h-3.51v-3.51h-3.03l12.46-12.38,6.46,6.46-12.38,12.46ZM540.53,252.02l-2.07-2.07.89-5.39,1.35-1.34h3.04v3.51h3.51v3.04l-1.34,1.35-5.39.89Z" fill="#ffab50"/>
  <path id="m-3" data-name="m" d="M83.59,279.41c4.47,0,8.09-3.62,8.09-8.09v-70.12c0-4.47-3.62-8.09-8.09-8.09h-37.76c-4.47,0-8.09,3.62-8.09,8.09v70.12c0,4.47,3.62,8.09,8.09,8.09h37.76ZM83.39,273.29h-37.37c-.58,0-1.06-.47-1.06-1.06v-71.94c0-.58.48-1.06,1.06-1.06h37.37c.59,0,1.07.48,1.07,1.07v71.92c0,.59-.48,1.07-1.07,1.07ZM64.01,268.58c3.53.44,6.49-2.52,6.05-6.05-.3-2.39-2.26-4.35-4.65-4.65-3.53-.44-6.49,2.52-6.05,6.05.3,2.39,2.26,4.35,4.65,4.65Z" fill="#fff"/>
</svg>