<?xml version="1.0" encoding="UTF-8"?>
<svg width="597px" height="356px" viewBox="0 0 597 356" version="1.1" xmlns="http://www.w3.org/2000/svg" xmlns:xlink="http://www.w3.org/1999/xlink">
    <title>interoperability-icon-vertical</title>
    <defs>
        <ellipse id="path-1" cx="23.0107434" cy="22.3874365" rx="22.8678195" ry="22.2445126"></ellipse>
        <ellipse id="path-2" cx="22.4390479" cy="21.815741" rx="22.4390479" ry="21.815741"></ellipse>
    </defs>
    <g id="Page-1" stroke="none" stroke-width="1" fill="none" fill-rule="evenodd">
        <g id="interoperability-icon-vertical" transform="translate(0.000000, 0.000000)">
            <g id="Group-18" transform="translate(224.084558, 174.730823) scale(-1, 1) translate(-224.084558, -174.730823) translate(0.084558, 31.730823)">
                <circle id="Oval" fill-opacity="0.0920017483" fill="#8559FF" cx="143" cy="143" r="143"></circle>
                <g id="Group-21" transform="translate(233.502361, 66.000000)" stroke="#1DE1B9" stroke-linecap="round" stroke-linejoin="round" stroke-width="3">
                    <line x1="134.230234" y1="78.7149954" x2="-4.33242591e-14" y2="161.793698" id="Path-16" stroke-dasharray="3,6"></line>
                    <path d="M17.4976395,4.97379915e-14 L134.230234,79.9529617 L57.8323929,79.9529617" id="Path-15" stroke-dasharray="3,7"></path>
                </g>
                <circle id="Oval" fill="#1DE1B9" cx="397.915442" cy="148.269177" r="50"></circle>
                <line x1="233.427373" y1="55.0822931" x2="50.0106157" y2="239.793698" id="Path-18" stroke="#8559FF" stroke-width="3" transform="translate(141.718994, 147.437996) rotate(0.000000) translate(-141.718994, -147.437996) "></line>
                <line x1="233.427373" y1="55.0822931" x2="50.0106157" y2="239.793698" id="Path-18" stroke="#8559FF" stroke-width="3" transform="translate(141.718994, 147.437996) scale(-1, 1) rotate(0.000000) translate(-141.718994, -147.437996) "></line>
                <line x1="235.427373" y1="55.0822931" x2="52.0106157" y2="239.793698" id="Path-18" stroke="#8559FF" stroke-width="3" transform="translate(143.718994, 147.437996) scale(-1, 1) rotate(-45.000000) translate(-143.718994, -147.437996) "></line>
                <line x1="235.427373" y1="55.0822931" x2="52.0106157" y2="239.793698" id="Path-18" stroke="#8559FF" stroke-width="3" transform="translate(143.718994, 147.437996) scale(-1, 1) rotate(-134.798501) translate(-143.718994, -147.437996) "></line>
                <path d="M405.3125,152 L405.3125,134.714286 L403.75,134.714286 L403.75,132.357143 C403.75,131.055324 402.700672,130 401.40625,130 L393.59375,130 C392.299328,130 391.25,131.055324 391.25,132.357143 L391.25,134.714286 L389.6875,134.714286 L389.6875,152 L405.3125,152 Z M400.625,134.714286 L394.375,134.714286 L394.375,133.142857 L400.625,133.142857 L400.625,134.714286 Z M407.65625,152 C408.950672,152 410,150.944676 410,149.642857 L410,137.071429 C410,135.76961 408.950672,134.714286 407.65625,134.714286 L406.875,134.714286 L406.875,152 L407.65625,152 Z M388.125,152 L388.125,134.714286 L387.34375,134.714286 C386.049328,134.714286 385,135.76961 385,137.071429 L385,149.642857 C385,150.944676 386.049328,152 387.34375,152 L388.125,152 Z M398.28125,147.285714 L396.71875,147.285714 C396.28726,147.285714 395.9375,146.933956 395.9375,146.5 L395.9375,144.142857 L393.59375,144.142857 C393.16226,144.142857 392.8125,143.791098 392.8125,143.357143 L392.8125,141.785714 C392.8125,141.351759 393.16226,141 393.59375,141 L395.9375,141 L395.9375,138.642857 C395.9375,138.208902 396.28726,137.857143 396.71875,137.857143 L398.28125,137.857143 C398.71274,137.857143 399.0625,138.208902 399.0625,138.642857 L399.0625,141 L401.40625,141 C401.83774,141 402.1875,141.351759 402.1875,141.785714 L402.1875,143.357143 C402.1875,143.791098 401.83774,144.142857 401.40625,144.142857 L399.0625,144.142857 L399.0625,146.5 C399.0625,146.933956 398.71274,147.285714 398.28125,147.285714 Z" id="m" fill="#FFFFFF" fill-rule="nonzero"></path>
            </g>
            <g id="Group-19" transform="translate(394.084558, 93.730823)">
                <g id="Group-22" transform="translate(0.502361, 0.000000)" stroke="#79B2FD" stroke-dasharray="3,5" stroke-linecap="round" stroke-linejoin="round" stroke-width="3">
                    <line x1="127.230234" y1="85.7149954" x2="2.48476305e-14" y2="168.793698" id="Path-16"></line>
                    <path d="M4.49763946,5.68434189e-14 L127.230234,86.9529617 L50.8323929,86.9529617" id="Path-15"></path>
                </g>
                <g id="Group-23" transform="translate(101.915442, 35.269177)">
                    <circle id="Oval" fill="#79B2FD" cx="50" cy="50" r="50"></circle>
                    <path d="M50.0359412,54.8504716 C50.5009769,54.8504716 50.8814795,54.469969 50.8814795,54.0049332 L50.8814795,44.7040113 L52.3400125,44.7040113 C58.2957837,44.7040113 63.1417857,39.202748 63.1417857,32.4437051 L63.1417857,31.1753976 L59.1466376,31.1753976 C54.3376382,31.1753976 50.2525897,34.7636716 48.8574824,39.7047864 C46.8968594,36.5973916 43.6944035,34.557551 40.0797064,34.557551 L36.0845583,34.557551 L36.0845583,35.8258585 C36.0845583,42.5849014 40.9305603,48.0861647 46.8863314,48.0861647 L48.3448644,48.0861647 L48.3448644,54.0049332 C48.3448644,54.469969 48.725367,54.8504716 49.1904028,54.8504716 L50.0359412,54.8504716 Z M52.3400125,42.1673962 L50.9554848,42.1673962 C51.4839462,37.4006634 54.9612124,33.7120126 59.1519016,33.7120126 L60.5364809,33.7120126 C60.0080195,38.4787454 56.5307533,42.1673962 52.3400125,42.1673962 Z M48.2708592,45.5495496 L46.8863314,45.5495496 C42.6955906,45.5495496 39.2183245,41.8608989 38.689863,37.0941661 L40.0744424,37.0941661 C44.2651315,37.0941661 47.7423977,40.7828168 48.2708592,45.5495496 Z" id="s" fill="#FFFFFF" fill-rule="nonzero"></path>
                    <path d="M65.1419837,83.9143223 C68.7605961,83.9143223 71.6964514,80.978467 71.6964514,77.3598546 L71.6964514,20.5544677 C71.6964514,16.9358553 68.7605961,14 65.1419837,14 L34.5544677,14 C30.9358553,14 28,16.9358553 28,20.5544677 L28,77.3598546 C28,80.978467 30.9358553,83.9143223 34.5544677,83.9143223 L65.1419837,83.9143223 Z M64.9910829,78.9571612 L34.7053686,78.9571612 C34.2339679,78.9571612 33.8482257,78.5677099 33.8482257,78.0917765 L33.8482257,19.8225458 C33.8482257,19.3466124 34.2339679,18.9571612 34.7053686,18.9571612 L64.9910829,18.9571612 C65.4624835,18.9571612 65.8482257,19.3466124 65.8482257,19.8225458 L65.8482257,78.0917765 C65.8482257,78.5677099 65.4624835,78.9571612 64.9910829,78.9571612 Z M49.8482257,75.175032 C52.2652124,75.175032 54.2178709,73.2223735 54.2178709,70.8053869 C54.2178709,68.3884002 52.2652124,66.4357417 49.8482257,66.4357417 C47.4312391,66.4357417 45.4785806,68.3884002 45.4785806,70.8053869 C45.4785806,73.2223735 47.4312391,75.175032 49.8482257,75.175032 Z" id="m" fill="#FFFFFF" fill-rule="nonzero"></path>
                </g>
            </g>
            <g id="Group-7" transform="translate(127.000000, 0.000000)">
                <path d="M176,50 L263.681241,86.3187591 L300,174 L263.681241,261.681241 L176,298 L88.3187591,261.681241 L52,174 L88.3187591,86.3187591 L176,50 Z" id="Polygon" stroke="#1DE1B9" stroke-width="3" stroke-linecap="round" stroke-linejoin="round" stroke-dasharray="5,8"></path>
                <path d="M176,39 L270.752309,78.2476913 L310,173 L270.752309,267.752309 L176,307 L81.2476913,267.752309 L42,173 L81.2476913,78.2476913 L176,39 Z" id="Polygon" stroke="#79B2FD" stroke-width="3" stroke-linecap="round" stroke-linejoin="round" stroke-dasharray="5,8"></path>
                <g id="Group-5-Copy" transform="translate(72.929755, 73.599991)">
                    <path d="M108.670123,30.4111521 L166.556044,63.8316045 C169.142205,65.3247253 170.735346,68.0841264 170.735346,71.0703681 L170.735346,137.911273 C170.735346,140.897514 169.142205,143.656916 166.556044,145.150036 L108.670123,178.570489 C106.083961,180.06361 102.897679,180.06361 100.311518,178.570489 L42.4255968,145.150036 C39.8394357,143.656916 38.2462947,140.897514 38.2462947,137.911273 L38.2462947,71.0703681 C38.2462947,68.0841264 39.8394357,65.3247253 42.4255968,63.8316045 L100.311518,30.4111521 C102.897679,28.9180313 106.083961,28.9180313 108.670123,30.4111521 Z" id="Polygon" stroke="#8559FF" stroke-width="3.56894696" fill="#FFFFFF" transform="translate(104.490820, 104.490820) rotate(30.000000) translate(-104.490820, -104.490820) "></path>
                    <g id="Group" transform="translate(56.037294, 55.114056)">
                        <polygon id="Path-25" stroke="#FFFFFF" stroke-width="0.5" fill="#BFB0FF" points="49.3050011 91.1452114 51.6445178 91.9459093 67.8435481 60.5078591 82.1358058 19.7402001 79.5761881 20.5841786 65.5419076 59.1792086"></polygon>
                        <polygon id="Path-24" stroke="#FFFFFF" stroke-width="0.5" fill="#BFB0FF" points="19.5665936 81.0451288 62.6379754 57.5982165 93.7515345 51.1687991 93.7515345 54.0694414 62.6379754 60.0903693 19.5665936 84.3411516"></polygon>
                        <polygon id="Path-24" stroke="#FFFFFF" stroke-width="0.5" fill="#BFB0FF" points="5.38902653 50.7734185 62.6379754 57.5982165 93.7515345 51.1687991 93.7515345 54.0694414 62.6379754 60.0903693 5.38902653 53.1376014"></polygon>
                        <polygon id="Path-24" stroke="#FFFFFF" stroke-width="0.5" fill="#BFB0FF" points="44.7063026 36.7958194 49.5922163 93.9399741 47.5485378 96.4321269 42.6626241 36.7958194"></polygon>
                        <polygon id="Path-24" stroke="#FFFFFF" stroke-width="0.5" fill="#BFB0FF" points="7.43270502 52.6370984 76.6155746 80.894215 75.503736 83.3863677 7.2527064 55.4326182"></polygon>
                        <path d="M48.7405856,3.04060825 L82.3281815,17.0416602 L96.2406193,50.8431899 L82.3281815,84.6447195 L48.7405856,98.6457715 L15.1529897,84.6447195 L1.24055197,50.8431899 L15.1529897,17.0416602 L48.7405856,3.04060825 Z M48.7405856,5.54554702 L16.9130384,18.8129194 L3.7296367,50.8431899 L16.9130384,82.8734603 L48.7405856,96.1408327 L80.5681328,82.8734603 L93.7515345,50.8431899 L80.5681328,18.8129194 L48.7405856,5.54554702 Z" id="Combined-Shape" fill="#D8D8D8" opacity="0.321196057"></path>
                        <path d="M48.7405856,3.04060825 L81.6740718,17.5754151 L79.922552,18.2986082 L48.7405856,5.54554702 L16.9130384,18.8129194 L4.24055197,49.6016082 L1.24055197,50.8431899 L15.1529897,17.0416602 L48.7405856,3.04060825 Z" id="Combined-Shape" fill="#8559FF"></path>
                        <polygon id="Path-2" stroke="#FFFFFF" stroke-width="0.931839938" fill="#BFB0FF" points="92.3414794 53.2338813 80.8912634 80.1662537 82.4269202 82.7811582 96.2406193 52.3044042"></polygon>
                        <path d="M97.2757427,47.607644 C98.9438225,48.5768445 99.970256,50.3603458 99.970256,52.2895528 L99.970256,52.3192555 C99.970256,54.2484625 98.9438225,56.0319639 97.2757427,57.0011644 C95.6097971,57.9691248 93.5526618,57.9691248 91.8867162,57.0011644 C90.2186364,56.0319639 89.1922029,54.2484625 89.1922029,52.3192555 L89.1922029,52.2895528 C89.1922029,50.3603458 90.2186364,48.5768445 91.8867162,47.607644 C93.5526618,46.6396835 95.6097971,46.6396835 97.2757427,47.607644 Z" id="Polygon-Copy-8" stroke="#FFFFFF" stroke-width="1.92890855" fill="#BFB0FF"></path>
                        <path d="M50.8128277,89.7741133 C52.4809075,90.7433138 53.507341,92.5268152 53.507341,94.4560222 L53.507341,94.4857249 C53.507341,96.4149319 52.4809075,98.1984332 50.8128277,99.1676337 C49.1468821,100.135594 47.0897468,100.135594 45.4238012,99.1676337 C43.7557214,98.1984332 42.7292879,96.4149319 42.7292879,94.4857249 L42.7292879,94.4560222 C42.7292879,92.5268152 43.7557214,90.7433138 45.4238012,89.7741133 C47.0897468,88.8061529 49.1468821,88.8061529 50.8128277,89.7741133 Z" id="Polygon-Copy" stroke="#FFFFFF" stroke-width="1.92890855" fill="#BFB0FF"></path>
                        <path d="M51.2276751,0.848786821 C52.8957549,1.81798732 53.9221884,3.60148864 53.9221884,5.53069567 L53.9221884,5.56039838 C53.9221884,7.48960541 52.8957549,9.27310673 51.2276751,10.2423072 C50.4321109,10.7045521 49.547336,10.9460541 48.6585547,10.9668134 L43.7229278,24.9215572 C44.5079184,25.1318512 45.2703307,25.4455233 45.9893589,25.8612307 L46.4250291,26.1131142 C47.087002,26.4958349 47.6715405,26.971527 48.1678515,27.5167872 L75.504,19.2058165 L75.5075551,19.0675153 C75.588887,17.2314405 76.5981737,15.5547672 78.1967501,14.6259501 C79.8626957,13.6579896 81.9198311,13.6579896 83.5857767,14.6259501 C85.2538565,15.5951506 86.2802899,17.3786519 86.2802899,19.3078589 L86.2802899,19.3375616 C86.2802899,21.2667687 85.2538565,23.05027 83.5857767,24.0194705 C81.9198311,24.987431 79.8626957,24.987431 78.1967501,24.0194705 C77.4963429,23.6125145 76.9090619,23.0619923 76.4633925,22.4173991 L49.9273252,31.0004652 C50.1049213,31.8897273 50.1182389,32.8208737 49.9469321,33.749787 L49.5953874,35.6560414 C49.4229433,36.5911215 49.0931961,37.4733226 48.6321912,38.2721927 L60.6413499,53.9468872 C62.1605302,53.337346 63.89262,53.4508772 65.3324886,54.2874807 C67.0005684,55.2566812 68.0270019,57.0401825 68.0270019,58.9693895 L68.0270019,58.9990922 C68.0270019,60.173799 67.6464341,61.2944829 66.972169,62.2102001 L78.6068097,77.3949353 C79.7402814,77.2620665 80.9066226,77.4918878 81.9263868,78.0843991 C83.5944666,79.0535995 84.6209001,80.8371009 84.6209001,82.7663079 L84.6209001,82.7960106 C84.6209001,84.7252176 83.5944666,86.508719 81.9263868,87.4779195 C80.2604412,88.4458799 78.2033059,88.4458799 76.5373603,87.4779195 C74.8692805,86.508719 73.8428471,84.7252176 73.8428471,82.7960106 L73.8428471,82.7663079 C73.8428471,81.4738119 74.3035612,80.2467157 75.1092794,79.2860743 L63.814973,64.2763442 C62.5144437,64.5687272 61.1297712,64.3702795 59.9434621,63.6810011 C58.2753823,62.7118006 57.2489488,60.9282993 57.2489488,58.9990922 L57.2489488,58.9693895 C57.2489488,58.05929 57.4773777,57.1816168 57.8938381,56.4065627 L46.2253001,40.8988962 C45.62084,41.3218942 44.9545002,41.6667867 44.2394715,41.9181511 C43.8658746,42.0494871 43.4867655,42.1539864 43.1047459,42.2320851 L22.6390795,78.4677397 C23.3423572,79.3946908 23.7404692,80.5396561 23.7404692,81.7411348 L23.7404692,81.7708375 C23.7404692,83.7000445 22.7140357,85.4835459 21.0459559,86.4527464 C19.3800103,87.4207068 17.322875,87.4207068 15.6569294,86.4527464 C13.9888496,85.4835459 12.9624161,83.7000445 12.9624161,81.7708375 L12.9624161,81.7411348 C12.9624161,79.8119278 13.9888496,78.0284264 15.6569294,77.0592259 C16.7202734,76.4413937 17.9429898,76.217913 19.1216294,76.3887838 L38.3753075,41.8682434 C37.5348798,41.5566795 36.7372542,41.1120323 36.0151928,40.5397926 L35.6357858,40.2391094 C34.8854264,39.6444432 34.2532321,38.9385255 33.7527206,38.1568036 L10.7771995,51.3582374 C10.7777679,51.3903068 10.7780531,51.4224198 10.7780531,51.4545732 L10.7780531,51.4842759 C10.7780531,53.413483 9.75161958,55.1969843 8.08353979,56.1661848 C6.41759419,57.1341452 4.36045886,57.1341452 2.69451326,56.1661848 C1.02643348,55.1969843 9.11507318e-13,53.413483 9.09494702e-13,51.4842759 L9.09494702e-13,51.4545732 C9.09258442e-13,49.5253662 1.02643348,47.7418649 2.69451326,46.7726644 C4.36045886,45.8047039 6.41759419,45.8047039 8.08353979,46.7726644 C8.55217916,47.0449568 8.97017318,47.3815223 9.32898915,47.7675346 L32.4726489,34.6147206 C32.3699596,33.7909611 32.3869451,32.9454265 32.5332224,32.1033349 L32.605405,31.687793 C32.7288699,30.9770278 32.940731,30.2942612 33.2306324,29.652465 L20.8137598,23.5358276 C20.5955455,23.7135502 20.3619105,23.8754951 20.114116,24.0194705 C18.4481704,24.987431 16.3910351,24.987431 14.7250895,24.0194705 C13.0570097,23.05027 12.0305762,21.2667687 12.0305762,19.3375616 L12.0305762,19.3078589 C12.0305762,17.3786519 13.0570097,15.5951506 14.7250895,14.6259501 C16.3910351,13.6579896 18.4481704,13.6579896 20.114116,14.6259501 C21.7821958,15.5951506 22.8086293,17.3786519 22.8086293,19.3078589 L22.8086293,19.3375616 C22.8086293,19.8607666 22.7331345,20.3732548 22.5898204,20.8616897 L35.8477296,26.3788925 C36.4069596,25.9570735 37.0227527,25.6016287 37.6849201,25.3253205 C38.2319178,25.0970701 38.7941476,24.9231924 39.3640479,24.8031996 L44.6608009,9.31884976 C43.7009356,8.32315631 43.1441354,6.98129718 43.1441354,5.56039838 L43.1441354,5.53069567 C43.1441354,3.60148864 44.1705688,1.81798732 45.8386486,0.848786821 C47.5045942,-0.119173651 49.5617295,-0.119173651 51.2276751,0.848786821 Z" id="Combined-Shape" stroke="#FFFFFF" stroke-width="1.92890855" fill="#8559FF"></path>
                    </g>
                    <g id="A-Human/Standing" transform="translate(81.087989, 82.879989)">
                        <g id="Mask">
                            <g id="path-10-link" transform="translate(0.571695, 0.571695)" fill="#000000" fill-rule="nonzero">
                                <ellipse id="path-10" cx="22.4390479" cy="21.815741" rx="22.4390479" ry="21.815741"></ellipse>
                            </g>
                            <g id="Oval">
                                <ellipse stroke="#FFFFFF" stroke-width="5.82399921" fill="#BFB0FF" fill-rule="evenodd" cx="23.0107434" cy="22.3874365" rx="25.7798191" ry="25.1565122"></ellipse>
                                <ellipse stroke="#D6DFE3" stroke-width="3.18079957" cx="23.0107434" cy="22.3874365" rx="24.4582193" ry="23.8349124"></ellipse>
                            </g>
                        </g>
                        <g id="A-Human/Sitting-Clipped" transform="translate(0.571695, 1.203805)">
                            <mask id="mask-3" fill="white">
                                <use xlink:href="#path-2"></use>
                            </mask>
                            <g id="path-10"></g>
                            <g id="A-Human/Sitting" mask="url(#mask-3)">
                                <g transform="translate(-18.199218, 2.798063)" id="Group">
                                    <g transform="translate(31.577314, 40.000000) scale(-1, 1) translate(-31.577314, -40.000000) translate(0.077314, 0.000000)">
                                        <g id="Head/Front/Curly" transform="translate(13.606353, 0.000000)" fill-rule="nonzero">
                                            <g id="Head" transform="translate(5.488277, 3.934658)" fill="#B28B67">
                                                <path d="M8.72255046,2.08577275 C10.0476973,4.55225524 9.89023543,10.8086926 8.17760117,11.2495218 C7.49461141,11.4253222 6.03964742,10.9946873 4.55882665,10.1034022 L5.48827668,16.6698631 L0,16.6698631 L1.88938831,7.87595245 C0.835667321,6.64084388 0.12248851,5.1272035 0.241661705,3.43112683 C0.585034338,-1.45576329 7.3974036,-0.380709725 8.72255046,2.08577275 Z" id="Path"></path>
                                            </g>
                                            <path d="M16.6422157,2.60116868 C16.5285648,2.20224771 16.2228729,1.86068824 15.8109018,1.75935713 C15.7109994,1.73477791 15.6078258,1.72485025 15.505029,1.72898927 C15.4681554,1.73045893 15.4578139,1.74107643 15.4405831,1.71532749 C15.4277995,1.69623701 15.427513,1.649598 15.4222518,1.62716327 C15.4058803,1.55739973 15.3854084,1.48850596 15.3601426,1.4213968 C15.2739435,1.19250573 15.1290873,0.9899335 14.9544578,0.819288714 C14.6278267,0.500043977 14.1864894,0.27971591 13.7279665,0.239855299 C13.4770121,0.218050462 13.2278818,0.258765843 12.9906306,0.340286646 C12.867799,0.382486692 12.748691,0.435034311 12.6326885,0.493130607 C12.5977596,0.510616485 12.4844404,0.5962613 12.4493909,0.590712595 C12.4106782,0.584594053 12.3328758,0.488526686 12.3013991,0.46441237 C11.912327,0.166327656 11.43187,0.0491302811 10.9472523,0.0525587268 C10.4002539,0.0567484664 9.87353152,0.084042038 9.41733024,0.417023559 C9.32075944,0.487521931 9.22878656,0.56470874 9.14121556,0.645974567 C9.09510097,0.688759486 9.05043357,0.733149039 9.00783148,0.77938314 C8.98212851,0.807276563 8.95710391,0.835799823 8.93301398,0.865087925 C8.89213043,0.914801221 8.89868809,0.931132361 8.84146318,0.896445537 C8.6219101,0.76324692 8.3674884,0.700951607 8.11122756,0.732399204 C7.95905997,0.751084813 7.81100787,0.796704055 7.67043298,0.85674989 C7.62256969,0.877190061 7.51178311,0.958725843 7.46076915,0.959520672 C7.41016218,0.960300493 7.30092835,0.88471829 7.24879881,0.865507836 C6.96724202,0.761717292 6.66376613,0.736133318 6.36782773,0.784092024 C6.06255789,0.833580358 5.76268491,0.955201684 5.50404221,1.12326707 C5.37964288,1.20411301 5.27110249,1.29368689 5.18392344,1.41389856 C5.14628104,1.46580133 5.11225664,1.52070337 5.06959423,1.56882703 C5.04461488,1.59700539 4.99515362,1.62591857 4.98175191,1.66158017 C4.98977182,1.6402252 4.64789975,1.50861624 4.61563915,1.50020322 C4.44376844,1.45537878 4.26876214,1.46446662 4.10046425,1.51977359 C3.78399363,1.62377409 3.51182862,1.85699909 3.28814496,2.09611773 C3.17325798,2.21893879 3.07272244,2.35470178 2.98738256,2.49934268 C2.94648393,2.56862634 2.90908272,2.63988955 2.87486237,2.71266739 C2.8582798,2.74792408 2.84729007,2.7920287 2.82544633,2.82379121 C2.79728613,2.86471655 2.77836695,2.86549637 2.72736802,2.88334216 C2.46836353,2.97395081 2.23225804,3.12731964 2.05245786,3.3345558 C1.87059241,3.54422137 1.75258488,3.80241552 1.70310856,4.07431641 C1.70019908,4.09033263 1.69846545,4.15670699 1.68907369,4.16537495 C1.67619959,4.17731213 1.62411528,4.17203337 1.60441219,4.17434285 C1.53618251,4.18233596 1.46843519,4.19422814 1.40159241,4.21003443 C1.27836891,4.23915757 1.1584318,4.28201747 1.04497694,4.33807424 C0.602704994,4.55658775 0.286430387,4.96624615 0.131639718,5.42720751 C-0.0307789131,5.91096346 -0.0278995688,6.46518781 0.166221892,6.93991592 C0.197578018,7.01659283 0.234888752,7.09102029 0.278711955,7.16142871 C0.305620918,7.20464852 0.314304144,7.20475348 0.296832158,7.25010279 C0.277355179,7.30055089 0.241778054,7.34957435 0.218652943,7.39886774 C0.143202288,7.55973481 0.0904546605,7.73034959 0.0571387915,7.90460852 C0.00247667061,8.19045612 -0.0246132058,8.49085031 0.029310256,8.77887241 C0.054349918,8.91261088 0.0979771155,9.04335006 0.164533475,9.16246699 C0.198467433,9.22320266 0.238175115,9.2808041 0.283008332,9.33408655 C0.306284228,9.36175501 0.331007314,9.38817877 0.356861013,9.41349282 C0.371649661,9.4279494 0.391036169,9.44060642 0.403608782,9.45675762 C0.434301569,9.49613835 0.440753696,9.46376098 0.424924905,9.52158735 C0.402794716,9.60243329 0.35262495,9.68219948 0.321901977,9.76087092 C0.290244368,9.84194183 0.261631924,9.92412245 0.235461619,10.0071129 C0.18245773,10.1751633 0.137639605,10.3462579 0.109615063,10.5202919 C0.0557971366,10.8544281 0.0652491782,11.2104592 0.223522188,11.5171219 C0.291194097,11.648296 0.388277424,11.7633639 0.506028686,11.8528778 C0.563660622,11.8966675 0.626086425,11.9344136 0.691572456,11.9654112 C0.725219966,11.9813675 0.768183882,11.9882059 0.783530276,12.0207032 C0.800052533,12.055645 0.775525424,12.1250336 0.769932584,12.1640994 C0.721270293,12.5039493 0.696863784,12.8607752 0.798032475,13.1938167 C0.891211379,13.5005694 1.09636779,13.7714055 1.36272892,13.9507183 C1.87945655,14.2985613 2.57598435,14.2789459 3.1189275,14.0004765 C3.26045209,13.9278786 3.39285627,13.8377499 3.51096933,13.7314399 C3.81173173,14.1357447 4.43064003,14.1229527 4.87021157,14.0077498 C5.41785815,13.8642336 5.85729594,13.4839683 6.11048149,12.9843461 C6.4566801,13.4051919 7.1832374,13.2686491 7.42330763,12.8120967 C7.48207018,12.700358 7.51692371,12.577207 7.53407912,12.4525864 C7.54310908,12.3870519 7.53735042,12.3209474 7.54413419,12.2559378 C7.55278728,12.1730973 7.60820316,12.0925963 7.64005674,12.0124552 C7.70209059,11.8564919 7.74060738,11.6953849 7.74226564,11.5271546 C7.74312489,11.4393203 7.73198443,11.3537205 7.72361779,11.266591 C7.71609533,11.1881595 7.73787879,11.1150817 7.75025539,11.03767 C7.60980113,11.0607645 7.43868418,11.0229434 7.30635537,10.982273 C7.17649886,10.9423674 7.0548733,10.8372572 6.96321699,10.7412648 C6.75040246,10.5183574 6.62039519,10.2261512 6.53148251,9.9353248 C6.33630578,9.29701527 6.41630911,8.5311908 7.05924509,8.18087339 C7.35875624,8.01768185 8.25605392,8.01821713 8.61278498,8.09887196 C8.9878721,8.18367695 9.41309415,9.0101479 9.43401832,9.08782957 C9.44696779,9.13590825 9.44045538,9.19541423 9.48468557,9.22744667 C9.58188953,9.29788507 9.74219766,9.17564889 9.81389462,9.11531809 C9.93761558,9.01119765 10.025865,8.87266031 10.1022955,8.73223341 C10.2688296,8.42630552 10.403088,8.09822786 10.4979252,7.7633118 C10.5710392,7.50510268 10.6177869,7.23884045 10.7133477,6.98721477 C10.8084411,6.73683379 10.9583475,6.51304153 11.1914229,6.37120496 C11.4449702,6.21690635 11.7356022,6.1356405 12.013948,6.03867337 C12.2898516,5.94257602 12.5609915,5.82512369 12.7748613,5.62121678 C12.8218804,5.57637733 12.8675578,5.52873357 12.9054113,5.47594601 C12.9352901,5.43427084 12.9648221,5.35448965 13.0103487,5.32806588 C13.0811261,5.28696058 13.1844204,5.39385537 13.2456251,5.4326662 C13.5475784,5.62417107 13.7994977,5.89125811 14.0026792,6.18302934 C14.2047302,6.47321093 14.3705226,6.7524301 14.5052484,7.07645872 C14.6051809,7.31677707 14.6675494,7.62454953 14.8433095,7.82149808 C14.9217751,7.90943737 15.505029,7.96263824 15.6939496,7.88586294 C15.8828701,7.80908763 16.0945992,7.60973301 16.1580049,7.48479746 C16.2229181,7.35692261 16.2384303,7.21645071 16.2106922,7.07645872 C16.194381,6.99409813 16.1610652,6.91716627 16.1428394,6.83627536 C16.127493,6.76832637 16.1135637,6.7040965 16.0804438,6.64184618 C16.0176712,6.52388399 15.9104273,6.43909397 15.7810984,6.40364234 C15.9156885,6.27972654 16.0272138,6.13148647 16.104383,5.96577553 C16.1845672,5.79361613 16.2525255,5.58425049 16.2718065,5.39529501 C16.2874846,5.24182121 16.2632891,5.08281369 16.1791552,4.95091977 C16.0908908,4.8125624 15.9345323,4.72229866 15.7992488,4.63599402 C16.0058976,4.47454207 16.1827582,4.27819337 16.3281571,4.06080462 C16.6109198,3.63805427 16.7858206,3.10516987 16.6422157,2.60116868 Z" id="hair" fill="#191847"></path>
                                        </g>
                                        <g id="Bottom/Sitting/Sweat-Pants" transform="translate(0.000000, 39.557927)" fill-rule="nonzero">
                                            <g id="Objects/Seat/Cube-2" transform="translate(0.000000, 9.590880)" fill="#C5CFD6">
                                                <path d="M30.0711829,0 C32.0919104,0 33.7300338,1.63812335 33.7300338,3.65885089 L33.7300338,24.6570808 C33.7300338,26.6778084 32.0919104,28.3159317 30.0711829,28.3159317 L3.77318999,28.3159317 C1.75246246,28.3159317 0.114339098,26.6778084 0.114339098,24.6570808 L0.114339098,3.65885089 C0.114339098,1.63812335 1.75246246,0 3.77318999,0 L30.0711829,0 Z M26.4123315,6.39392008 L7.43204128,6.39392008 C6.92685939,6.39392008 6.51732856,6.80345092 6.51732856,7.30863281 L6.51732856,7.30863281 L6.51732856,21.0072989 C6.51732856,21.5124808 6.92685939,21.9220117 7.43204128,21.9220117 L7.43204128,21.9220117 L26.4123315,21.9220117 C26.9175134,21.9220117 27.3270443,21.5124808 27.3270443,21.0072989 L27.3270443,21.0072989 L27.3270443,7.30863281 C27.3270443,6.80345092 26.9175134,6.39392008 26.4123315,6.39392008 L26.4123315,6.39392008 Z" id="Seat"></path>
                                            </g>
                                            <path d="M47.2426806,8.56370338 C48.4038759,11.5663154 50.4310595,21.4316456 52.8668753,36.3328596 L50.0826408,37.144074 C47.1526363,30.6683337 45.0336864,25.029521 44.1831479,22.05447 C42.7268194,16.9604605 41.6189324,12.4780296 41.3389182,10.8040754 C40.6711888,6.81231711 46.4754759,6.57986907 47.2426806,8.56370338 Z M38.4587724,16.9346525 C29.9823555,18.1528642 17.965603,19.4108656 16.9372317,19.5520422 C15.4959252,19.7499072 14.4067824,17.4882521 16.09628,16.8213856 C18.7845559,15.7602884 28.1987553,12.4395725 32.7392237,11.5002027 C34.0439723,11.2302655 35.3085728,10.9794634 36.497519,10.7528081 C40.0314881,10.0791081 41.8624158,16.4454886 38.4587724,16.9346525 Z" id="Skin" fill="#B28B67"></path>
                                            <path d="M25.8548567,0 C39.922611,3.57961839 47.1112221,5.87365355 47.4206897,6.88210552 L47.4306029,6.91568789 C47.4374227,6.92464076 47.4441304,6.93364582 47.4507255,6.94270299 C50.2386571,10.7714776 51.9083381,29.4638608 52.4563577,30.8634831 L47.1140494,31.659353 C45.0704747,24.0921299 38.5322759,18.8205267 38.7059541,9.75735279 C38.6590688,9.4915599 38.6472132,9.23949718 38.6665234,9.00104677 L24.1255496,1.60914814 L24.1255496,0 L25.8548567,0 Z" id="Leg-Back" fill="#005EB8"></path>
                                            <path d="M26.6276921,-2.23259521e-14 C28.6658622,0.584659612 39.2581087,5.02033195 44.7538372,7.37957413 C48.3910611,8.94098547 47.2446613,14.5696228 45.184965,16.0347622 C45.1736878,16.1245742 45.1366033,16.1857853 45.0704747,16.2131545 C33.9900106,20.7991143 25.2243463,18.3928729 22.296124,19.1617033 L20.9416905,14.8951886 L25.3333446,13.3907339 C24.0030135,13.1248092 22.7779204,12.8874757 21.7296207,12.703865 C14.9576783,11.5177526 12.9829223,7.89791859 14.1505035,-2.23259521e-14 L26.6276921,-2.23259521e-14 Z" id="Leg-Front" fill="#0072C3"></path>
                                            <g id="Accessories/Shoe/Flat-Sneaker" transform="translate(18.929954, 22.308935) rotate(64.000000) translate(-18.929954, -22.308935) translate(11.929954, 19.808935)" fill="#E4E4E4">
                                                <path d="M0.612387972,1.51303513 C0.356581454,2.19495556 0.228678195,2.70519433 0.228678195,3.04375145 C0.228678195,3.4555396 0.297376372,4.05644089 0.434772729,4.84645537 C0.913153464,4.84645537 5.21244167,4.84645537 13.3326373,4.84645537 C13.6678071,3.73996633 13.4743277,3.14260849 12.752199,3.05438187 C12.0300704,2.96615525 11.4301858,2.88649369 10.9525454,2.81539715 L4.95757142,0.146593385 C4.84219238,0.0952297185 4.70702072,0.147124404 4.65565703,0.262503416 C4.65481018,0.264405733 4.65398934,0.266319541 4.65319474,0.268244268 L4.26786989,1.20162293 L4.26786989,1.20162293 C3.59936763,1.51308841 3.05614015,1.66882112 2.63818742,1.66882112 C2.29854954,1.66882112 1.82948341,1.5318219 1.23098905,1.25782346 L1.23098993,1.25782152 C1.00132207,1.15267662 0.729902701,1.25362241 0.62475779,1.48329027 C0.620286503,1.49305689 0.616160671,1.502978 0.612387972,1.51303513 Z" id="shoe"></path>
                                            </g>
                                            <g id="Accessories/Shoe/Flat-Sneaker" transform="translate(48.136760, 34.430482)" fill="#E4E4E4">
                                                <path d="M0.612387972,1.51303513 C0.356581454,2.19495556 0.228678195,2.70519433 0.228678195,3.04375145 C0.228678195,3.4555396 0.297376372,4.05644089 0.434772729,4.84645537 C0.913153464,4.84645537 5.21244167,4.84645537 13.3326373,4.84645537 C13.6678071,3.73996633 13.4743277,3.14260849 12.752199,3.05438187 C12.0300704,2.96615525 11.4301858,2.88649369 10.9525454,2.81539715 L4.95757142,0.146593385 C4.84219238,0.0952297185 4.70702072,0.147124404 4.65565703,0.262503416 C4.65481018,0.264405733 4.65398934,0.266319541 4.65319474,0.268244268 L4.26786989,1.20162293 L4.26786989,1.20162293 C3.59936763,1.51308841 3.05614015,1.66882112 2.63818742,1.66882112 C2.29854954,1.66882112 1.82948341,1.5318219 1.23098905,1.25782346 L1.23098993,1.25782152 C1.00132207,1.15267662 0.729902701,1.25362241 0.62475779,1.48329027 C0.620286503,1.49305689 0.616160671,1.502978 0.612387972,1.51303513 Z" id="shoe"></path>
                                            </g>
                                        </g>
                                        <g id="Body/Jacket" transform="translate(0.743204, 15.580726)" fill-rule="nonzero">
                                            <path d="M7.9026446,21.2414911 L12.6814225,21.2602572 C9.73074763,30.7720507 8.13782169,35.8189491 7.9026446,36.4009516 C7.37349618,37.7104576 8.4932454,39.7048122 8.97209462,40.7765637 C7.4124987,41.4734479 7.57867531,38.892601 5.611287,39.8066037 C3.81554619,40.6408626 2.44953065,42.1524844 0.374811623,40.8741324 C0.119737103,40.7169664 -0.159783,40.1252084 0.515572913,39.6627811 C2.19813082,38.5107055 4.62279866,36.4943658 4.95040947,35.830672 C5.39716534,34.9256068 6.38124374,30.0625466 7.9026446,21.2414911 L7.9026446,21.2414911 Z M36.6558364,20.3515079 L43.1338103,26.6620837 C45.018662,27.4649342 46.5630293,28.3514432 47.7669125,29.321611 C48.0376478,29.6477172 48.3323874,30.2725538 47.0585912,29.9929484 C45.7847951,29.713343 44.43236,29.4764461 44.1929522,29.8901072 C43.9535447,30.3037684 44.6589786,30.9376443 44.2165238,31.4790202 C43.9215538,31.8399376 42.9295463,30.6919302 41.2405017,28.0349983 L34.5042652,24.0691053 L36.6558364,20.3515079 Z" id="Skin" fill="#B28B67"></path>
                                            <path d="M20.1872099,2.10939489 L22.1274264,1.59965339 C26.2591023,9.76316748 32.8528499,16.9323241 41.9086697,23.1071232 L36.2005412,31.4131432 C26.8893074,22.3075823 20.7921205,12.6061016 20.1872099,2.10939489 Z" id="Coat-Back" fill="#191847" transform="translate(31.047940, 16.506398) rotate(5.000000) translate(-31.047940, -16.506398) "></path>
                                            <path d="M12.8631485,26.0323889 L30.4713695,26.0323889 C26.3919494,16.1275551 24.3522391,7.71351638 24.3522391,0.790272604 L19.0407088,0 C14.866345,6.70411808 13.6874936,14.9582449 12.8631485,26.0323889 Z" id="Shirt" fill="#DDE3E9"></path>
                                            <path d="M19.2770578,-9.73532885e-15 C19.6919322,0.0142660084 20.3238391,0.0399690552 21.1727787,0.0771091403 L21.1727787,0.0771091403 L22.4562351,3.7397308 C22.5919962,8.20532286 23.3848212,17.2046958 24.8347095,30.7378496 L24.8347095,30.7378496 L13.2921669,30.7378328 C13.3224255,31.6725174 13.3723174,32.6159333 13.4418426,33.5680804 L13.4418426,33.5680804 L4.85941164,33.5680804 C6.14319194,19.1050248 10.831397,7.91566468 18.9240268,-9.73532885e-15 L18.9240268,-9.73532885e-15 L18.9282659,0.00371602067 L18.9303429,-9.73532885e-15 L19.2770578,-9.73532885e-15 Z" id="Coat-Front" fill="#2F3676"></path>
                                            <path d="M16.5219996,30.8278288 L13.2951393,30.8278288 C13.1538803,26.6362033 13.4069902,22.6199828 14.0544689,18.779145 C14.3832223,24.6052233 15.2056623,28.6213546 16.5219996,30.8278288 Z" id="Shade" fill-opacity="0.1" fill="#000000"></path>
                                            <polygon id="Light" fill-opacity="0.2" fill="#FFFFFF" points="15.8613252 23.748846 21.5529199 21.1066206 21.5529199 23.748846"></polygon>
                                        </g>
                                    </g>
                                </g>
                            </g>
                        </g>
                    </g>
                </g>
                <path d="M311.26386,146.891138 L332.568874,159.191593 C335.155035,160.684714 336.748176,163.444115 336.748176,166.430356 L336.748176,191.031267 C336.748176,194.017509 335.155035,196.77691 332.568874,198.270031 L311.26386,210.570486 C308.677699,212.063607 305.491417,212.063607 302.905256,210.570486 L281.600243,198.270031 C279.014082,196.77691 277.420941,194.017509 277.420941,191.031267 L277.420941,166.430356 C277.420941,163.444115 279.014082,160.684714 281.600243,159.191593 L302.905256,146.891138 C305.491417,145.398017 308.677699,145.398017 311.26386,146.891138 Z" id="Polygon-Copy-6" stroke="#B447D3" stroke-width="3.56894696" fill="#FFFFFF" transform="translate(307.084558, 178.730812) rotate(30.000000) translate(-307.084558, -178.730812) "></path>
                <path d="M51.1038956,146.251138 L72.4089091,158.551593 C74.9950702,160.044714 76.5882112,162.804115 76.5882112,165.790357 L76.5882112,190.391267 C76.5882112,193.377509 74.9950702,196.13691 72.4089091,197.630031 L51.1038956,209.930486 C48.5177345,211.423607 45.3314525,211.423607 42.7452914,209.930486 L21.440278,197.630031 C18.8541168,196.13691 17.2609759,193.377509 17.2609759,190.391267 L17.2609759,165.790357 C17.2609759,162.804115 18.8541168,160.044714 21.440278,158.551593 L42.7452914,146.251138 C45.3314525,144.758017 48.5177345,144.758017 51.1038956,146.251138 Z" id="Polygon" stroke="#FF8787" stroke-width="3.56894696" fill="#FFFFFF" transform="translate(46.924594, 178.090812) rotate(30.000000) translate(-46.924594, -178.090812) "></path>
                <path d="M83.231892,51.0529154 L104.536905,63.3533706 C107.123067,64.8464915 108.716208,67.6058926 108.716208,70.5921342 L108.716208,95.1930447 C108.716208,98.1792864 107.123067,100.938687 104.536905,102.431808 L83.231892,114.732264 C80.6457309,116.225384 77.459449,116.225384 74.8732878,114.732264 L53.5682744,102.431808 C50.9821132,100.938687 49.3889723,98.1792864 49.3889723,95.1930447 L49.3889723,70.5921342 C49.3889723,67.6058926 50.9821132,64.8464915 53.5682744,63.3533706 L74.8732878,51.0529154 C77.459449,49.5597946 80.6457309,49.5597946 83.231892,51.0529154 Z" id="Polygon-Copy-10" stroke="#E11DD5" stroke-width="3.56894696" fill="#FFFFFF" transform="translate(79.052590, 82.892589) rotate(30.000000) translate(-79.052590, -82.892589) "></path>
                <path d="M181.15188,15.2129197 L202.456894,27.5133749 C205.043055,29.0064957 206.636196,31.7658968 206.636196,34.7521385 L206.636196,59.353049 C206.636196,62.3392907 205.043055,65.0986918 202.456894,66.5918126 L181.15188,78.8922678 C178.565719,80.3853887 175.379437,80.3853887 172.793276,78.8922678 L151.488263,66.5918126 C148.902102,65.0986918 147.308961,62.3392907 147.308961,59.353049 L147.308961,34.7521385 C147.308961,31.7658968 148.902102,29.0064957 151.488263,27.5133749 L172.793276,15.2129197 C175.379437,13.7197988 178.565719,13.7197988 181.15188,15.2129197 Z" id="Polygon-Copy-15" stroke="#79B2FD" stroke-width="3.56894696" fill="#FFFFFF" transform="translate(176.972578, 47.052594) rotate(30.000000) translate(-176.972578, -47.052594) "></path>
                <path d="M83.231892,236.012893 L104.536905,248.313349 C107.123067,249.806469 108.716208,252.565871 108.716208,255.552112 L108.716208,280.153023 C108.716208,283.139264 107.123067,285.898665 104.536905,287.391786 L83.231892,299.692242 C80.6457309,301.185362 77.459449,301.185362 74.8732878,299.692242 L53.5682744,287.391786 C50.9821132,285.898665 49.3889723,283.139264 49.3889723,280.153023 L49.3889723,255.552112 C49.3889723,252.565871 50.9821132,249.806469 53.5682744,248.313349 L74.8732878,236.012893 C77.459449,234.519773 80.6457309,234.519773 83.231892,236.012893 Z" id="Polygon-Copy-12" stroke="#87DB33" stroke-width="3.56894696" fill="#FFFFFF" transform="translate(79.052590, 267.852567) rotate(30.000000) translate(-79.052590, -267.852567) "></path>
                <path d="M181.15188,276.972888 L202.456894,289.273344 C205.043055,290.766465 206.636196,293.525866 206.636196,296.512107 L206.636196,321.113018 C206.636196,324.099259 205.043055,326.858661 202.456894,328.351781 L181.15188,340.652237 C178.565719,342.145357 175.379437,342.145357 172.793276,340.652237 L151.488263,328.351781 C148.902102,326.858661 147.308961,324.099259 147.308961,321.113018 L147.308961,296.512107 C147.308961,293.525866 148.902102,290.766465 151.488263,289.273344 L172.793276,276.972888 C175.379437,275.479768 178.565719,275.479768 181.15188,276.972888 Z" id="Polygon-Copy-14" stroke="#FF8787" stroke-width="3.56894696" fill="#FFFFFF" transform="translate(176.972578, 308.812563) rotate(30.000000) translate(-176.972578, -308.812563) "></path>
                <path d="M276.383869,235.851127 L297.688882,248.151582 C300.275043,249.644703 301.868184,252.404104 301.868184,255.390346 L301.868184,279.991256 C301.868184,282.977498 300.275043,285.736899 297.688882,287.23002 L276.383869,299.530475 C273.797708,301.023596 270.611426,301.023596 268.025265,299.530475 L246.720251,287.23002 C244.13409,285.736899 242.540949,282.977498 242.540949,279.991256 L242.540949,255.390346 C242.540949,252.404104 244.13409,249.644703 246.720251,248.151582 L268.025265,235.851127 C270.611426,234.358006 273.797708,234.358006 276.383869,235.851127 Z" id="Polygon-Copy-13" stroke="#3285FF" stroke-width="3.56894696" fill="#FFFFFF" transform="translate(272.204567, 267.690801) rotate(30.000000) translate(-272.204567, -267.690801) "></path>
                <path d="M280.223868,50.8911491 L301.528882,63.1916043 C304.115043,64.6847252 305.708184,67.4441263 305.708184,70.4303679 L305.708184,95.0312784 C305.708184,98.0175201 304.115043,100.776921 301.528882,102.270042 L280.223868,114.570497 C277.637707,116.063618 274.451425,116.063618 271.865264,114.570497 L250.560251,102.270042 C247.97409,100.776921 246.380949,98.0175201 246.380949,95.0312784 L246.380949,70.4303679 C246.380949,67.4441263 247.97409,64.6847252 250.560251,63.1916043 L271.865264,50.8911491 C274.451425,49.3980283 277.637707,49.3980283 280.223868,50.8911491 Z" id="Polygon-Copy-11" stroke="#FF882D" stroke-width="3.56894696" fill="#FFFFFF" transform="translate(276.044566, 82.730823) rotate(30.000000) translate(-276.044566, -82.730823) "></path>
            </g>
            <path d="M294.007995,58.3982389 C294.458043,58.3982389 294.826283,58.0300494 294.826283,57.5799512 L294.826283,56.9867126 L291.450846,52.7674164 C290.985465,52.1895107 290.734844,51.4683647 290.734844,50.7216971 L290.734844,40.846007 C290.734844,40.2527185 291.133749,39.7054785 291.716799,39.5980983 C292.499277,39.4446693 293.189707,40.0430522 293.189707,40.7999584 L293.189988,40.9406921 C293.190024,40.9589091 293.190064,40.9787836 293.190107,41.0002498 L293.190579,41.2346497 C293.190641,41.2650752 293.190705,41.2968954 293.190772,41.3300446 L293.191207,41.5443618 C293.191285,41.5825641 293.191365,41.6219639 293.191448,41.6624957 L293.191973,41.9187431 C293.193169,42.5010975 293.194736,43.2525343 293.19642,44.0287171 L293.197204,44.3881868 C293.199973,45.6488018 293.202942,46.9160457 293.20504,47.581498 C293.20504,47.9702146 293.34823,48.3384541 293.603945,48.6350734 L297.516384,53.3708937 C297.741433,53.6419415 298.063623,53.7800375 298.385814,53.7800375 C298.682484,53.7800375 298.984197,53.6624186 299.209246,53.4220366 C299.592819,53.018037 299.58258,52.3787497 299.250151,51.9286515 L296.718573,48.5020717 C296.304335,47.9650703 296.406621,47.1928313 296.943622,46.7785931 C297.168621,46.604687 297.42948,46.5228782 297.69029,46.5228782 C298.058529,46.5228782 298.421624,46.6864958 298.667101,47.0035922 L302.334063,51.7701283 C302.773922,52.3429397 303.014254,53.0436085 303.014254,53.7647046 L303.014254,57.5748569 C303.014254,58.0249051 303.382494,58.3931446 303.832542,58.3931446 L305.469117,58.3931446 C305.919216,58.3931446 306.287405,58.0249051 306.287405,57.5748569 L306.287405,53.7697989 C306.287405,53.0487028 306.527787,52.348034 306.967647,51.7752226 L310.634559,47.0087365 C310.874941,46.6967343 311.24318,46.5279725 311.61142,46.5279725 C311.872229,46.5279725 312.133088,46.6097813 312.358087,46.7836874 C312.895089,47.1979256 312.997375,47.9650703 312.583136,48.5072159 L310.051559,51.9337958 C309.719129,52.3838441 309.713985,53.0231314 310.092463,53.4271809 C310.317512,53.667513 310.614132,53.7851818 310.915845,53.7851818 C311.238086,53.7851818 311.560277,53.6470857 311.785276,53.3760379 L315.697714,48.6401677 C315.953429,48.3435484 316.091525,47.9753089 316.096669,47.5866422 C316.096468,47.5230641 316.09629,47.4540354 316.096134,47.3800815 L316.09573,47.1439693 C316.095674,47.1023297 316.095622,47.0595902 316.095576,47.0158163 L316.095579,45.283204 C316.095618,45.2246193 316.095659,45.1657226 316.095704,45.1065793 L316.096169,44.5694094 C316.096228,44.5093784 316.096288,44.4492981 316.09635,44.3892339 L316.096745,44.0295684 C316.096814,43.9698316 316.096885,43.9102423 316.096956,43.8508663 L316.097401,43.497693 C316.097477,43.4394322 316.097554,43.3815159 316.097632,43.3240098 L316.098105,42.9844199 C316.098184,42.928817 316.098264,42.8737555 316.098345,42.8193012 L316.098825,42.5003858 C316.099065,42.3450961 316.099302,42.1964523 316.099532,42.0562272 L316.099979,41.7875273 C316.100051,41.7447898 316.100123,41.7031192 316.100192,41.6625809 L316.100776,41.3300834 C316.100835,41.2969303 316.100893,41.2651066 316.100948,41.2346779 L316.10138,41.0002582 C316.101421,40.9787905 316.101458,40.9589149 316.101493,40.9406969 L316.101764,40.7999584 L316.101764,40.7999584 C316.101764,40.0430522 316.7871,39.4446693 317.574672,39.5980983 C318.157722,39.7106228 318.556627,40.2527185 318.556627,40.846007 L318.556627,50.7216971 C318.556627,51.4632704 318.306006,52.1843665 317.840625,52.7623221 L314.465188,56.9816182 L314.465188,57.5748569 C314.465188,58.0249051 314.833428,58.3931446 315.283476,58.3931446 L316.117097,58.3931446 C316.367717,58.3931446 316.602955,58.28062 316.756384,58.0811924 L319.758487,54.2966116 C320.566536,53.2839406 321.01149,52.0156046 321.01149,50.7166028 L321.01149,40.9278158 C321.01149,38.9690496 319.538582,37.2557596 317.579816,37.1279022 C315.436905,36.9847118 313.6469,38.6877631 313.6469,40.7999584 L313.646452,40.9747793 C313.646404,40.9935637 313.646352,41.0137533 313.646297,41.0352949 L313.645923,41.1803415 C313.645854,41.2070775 313.645782,41.2350589 313.645707,41.2642321 L313.645218,41.4531478 C313.643298,42.1951531 313.639991,43.4624019 313.636662,44.6868251 C313.038279,44.2879198 312.322277,44.0731093 311.601181,44.0731093 C310.450464,44.0731093 309.3867,44.5947777 308.686031,45.5051128 L305.013975,50.2767432 C304.875879,50.4557436 304.75826,50.6552212 304.645735,50.8495546 C304.528117,50.6552212 304.415592,50.4557436 304.277496,50.2767432 L300.60544,45.5051128 C299.899677,44.5947777 298.835912,44.0731093 297.69029,44.0731093 C296.969194,44.0731093 296.253192,44.2930141 295.654809,44.6868251 L295.653903,44.3514602 C295.65089,43.2332149 295.647998,42.1254708 295.646252,41.451916 L295.645764,41.2632989 C295.645689,41.2341749 295.645617,41.2062423 295.645548,41.1795541 L295.645174,41.0347805 C295.645119,41.0132815 295.645067,40.9931328 295.645019,40.9743874 L295.64457,40.7999584 L295.64457,40.7999584 C295.64457,38.6877631 293.854566,36.9847118 291.711655,37.1279022 C289.752889,37.2557596 288.279981,38.9690496 288.279981,40.9278158 L288.279981,50.7216971 C288.279981,52.0156046 288.724935,53.2890849 289.532984,54.3017059 L292.535087,58.0862867 C292.688516,58.28062 292.928898,58.3982389 293.174374,58.3982389 L294.007995,58.3982389 Z" id="h" fill="#79B2FD" fill-rule="nonzero"></path>
            <path d="M406.798551,75.517659 C408.154839,75.517659 409.254913,74.4185843 409.254913,73.0627958 C409.254913,71.7070073 408.155338,70.6079326 406.798551,70.6079326 C405.441714,70.6079326 404.34214,71.7070073 404.34214,73.0627958 C404.34214,74.4185843 405.442213,75.517659 406.798551,75.517659 Z M405.571119,96.7936395 C406.105024,96.7936395 406.597026,96.4428306 406.751503,95.9032321 L408.454555,90.5603387 C408.80896,89.3201213 408.285244,87.9888555 407.181075,87.3214495 L404.529331,85.7206841 L406.67424,80.3609095 C406.813385,80.547052 406.933051,80.7490767 407.002574,80.9781713 L407.716528,83.327702 C408.085267,84.5377529 409.182793,85.3534935 410.448082,85.3575889 L412.923423,85.3662793 L412.927518,85.3662793 C413.604114,85.3662793 414.153401,84.8195388 414.155458,84.1429431 C414.157996,83.4647492 413.610257,82.9134638 412.931064,82.9108667 L410.455774,82.9021764 C410.275225,82.9011775 410.1182,82.7845575 410.066558,82.612749 L409.353103,80.2642173 C408.883127,78.7202386 407.613243,77.5398546 406.038049,77.1839014 L402.03611,76.2786606 C400.720178,75.9789447 399.353651,76.282756 398.289338,77.1081858 L395.815595,79.0189056 C395.279094,79.4326444 395.179854,80.2038846 395.595141,80.7403864 C396.00838,81.2773878 396.783217,81.3750788 397.317621,80.9607907 L399.792462,79.0501208 C400.276272,78.6752388 400.901226,78.5427864 401.495513,78.6726916 L402.256515,78.8449995 L400.451177,83.3123691 C399.921868,84.6226583 400.415867,86.1042565 401.626417,86.83664 L405.91119,89.4234561 C406.020169,89.4893826 406.10857,89.6462577 406.10857,89.7736157 C406.10857,89.8053304 406.101478,89.8557741 406.092738,89.8862901 L404.389687,95.2291836 C404.203544,95.8812566 404.580973,96.5604494 405.233046,96.7465919 C405.345571,96.7783066 405.459094,96.7936395 405.571119,96.7936395 Z M397.941076,91.8834136 C399.088197,91.8834136 400.122344,91.2027225 400.574939,90.1475988 L401.267917,88.5315005 L400.779012,88.2364295 C400.171439,87.8691889 399.693772,87.3736413 399.332175,86.8131163 L398.316957,89.1799776 C398.252029,89.3308593 398.105243,89.4285504 397.941076,89.4285504 L394.107899,89.4285504 C393.430255,89.4285504 392.879968,89.9783375 392.879968,90.655982 C392.879968,91.3336266 393.430255,91.8834136 394.107899,91.8834136 L397.941076,91.8834136 Z" id="r" fill="#FF882D" fill-rule="nonzero"></path>
            <path d="M210.849171,96.79314 C211.752863,96.79314 212.485746,96.0602571 212.485746,95.1565646 L212.485746,92.6193432 C214.353464,92.2404156 215.758897,90.5895061 215.758897,88.6102627 L215.758897,78.7908099 C215.758897,76.8115665 214.353464,75.1612064 212.485746,74.7817294 L212.485746,72.2445081 C212.485746,71.3408156 211.752863,70.6079326 210.849171,70.6079326 L201.029718,70.6079326 C200.126026,70.6079326 199.393143,71.3408156 199.393143,72.2445081 L199.393143,74.7817294 C197.525924,75.1612064 196.119992,76.8115665 196.119992,78.7908099 L196.119992,88.6102627 C196.119992,90.5895061 197.525924,92.2398662 199.393143,92.6193432 L199.393143,95.1565646 C199.393143,96.0602571 200.126026,96.79314 201.029718,96.79314 L210.849171,96.79314 Z M210.030883,74.6993713 L201.848006,74.6993713 L201.848006,73.0627958 L210.030883,73.0627958 L210.030883,74.6993713 Z M211.667459,90.2468382 L200.21143,90.2468382 C199.309286,90.2468382 198.574855,89.5124069 198.574855,88.6102627 L198.574855,78.7908099 C198.574855,77.8886657 199.309286,77.1542345 200.21143,77.1542345 L211.667459,77.1542345 C212.569603,77.1542345 213.304034,77.8886657 213.304034,78.7908099 L213.304034,88.6102627 C213.304034,89.5124069 212.569603,90.2468382 211.667459,90.2468382 Z M206.345542,87.6329023 L209.825312,84.3495627 C210.836885,83.3952267 210.777551,81.8138896 209.64781,80.9337209 C208.520117,80.054551 207.04671,80.4458148 206.29335,81.1566723 L205.938945,81.4911494 L205.58449,81.1566723 C204.850109,80.4636949 203.370509,80.0453613 202.23003,80.9337209 C201.100289,81.8138896 201.040956,83.3952267 202.052078,84.3495627 L205.531849,87.6329023 C205.756349,87.8446662 206.120992,87.8451657 206.345542,87.6329023 Z M210.030883,94.3382768 L201.848006,94.3382768 L201.848006,92.7017014 L210.030883,92.7017014 L210.030883,94.3382768 Z" id="w" fill="#E11DD5" fill-rule="nonzero"></path>
            <path d="M182.934912,192.793129 C183.252009,192.793129 183.548628,192.542508 183.548628,192.179413 L183.548628,189.519978 L185.185204,189.519978 C186.990541,189.519978 188.458355,188.052164 188.458355,186.246827 L188.458355,178.063949 C188.458355,176.258612 186.990541,174.790798 185.185204,174.790798 L180.275477,174.790798 L180.275477,169.881072 C180.275477,168.075735 178.807664,166.607921 177.002326,166.607921 L162.273147,166.607921 C160.46781,166.607921 158.999996,168.075735 158.999996,169.881072 L158.999996,178.063949 C158.999996,179.869287 160.46781,181.3371 162.273147,181.3371 L163.909723,181.3371 L163.909723,183.996535 C163.909723,184.359631 164.206342,184.610251 164.523438,184.610251 C164.646202,184.610251 164.774059,184.574441 164.886534,184.487488 L168.819449,182.262768 L168.819449,186.246827 C168.819449,188.052164 170.287263,189.519978 172.0926,189.519978 L177.002326,189.519978 L182.571817,192.670365 C182.684292,192.752224 182.812149,192.793129 182.934912,192.793129 Z M166.364586,180.830765 L166.364586,178.882237 L162.273147,178.882237 C161.823099,178.882237 161.454859,178.513998 161.454859,178.063949 L161.454859,169.881072 C161.454859,169.431024 161.823099,169.062784 162.273147,169.062784 L177.002326,169.062784 C177.452375,169.062784 177.820614,169.431024 177.820614,169.881072 L177.820614,178.063949 C177.820614,178.513998 177.452375,178.882237 177.002326,178.882237 L169.811643,178.882237 L169.24907,179.199334 L166.364586,180.830765 Z M181.093765,189.013642 L178.209281,187.382211 L177.646708,187.065114 L172.0926,187.065114 C171.642552,187.065114 171.274312,186.696875 171.274312,186.246827 L171.274312,181.3371 L177.002326,181.3371 C178.807664,181.3371 180.275477,179.869287 180.275477,178.063949 L180.275477,177.245662 L185.185204,177.245662 C185.635252,177.245662 186.003491,177.613901 186.003491,178.063949 L186.003491,186.246827 C186.003491,186.696875 185.635252,187.065114 185.185204,187.065114 L181.093765,187.065114 L181.093765,189.013642 Z" id="c" fill="#FF8787" fill-rule="nonzero"></path>
            <path d="M214.657185,281.753118 C216.012474,281.753118 217.112048,280.653544 217.112048,279.298255 L217.112048,261.295925 C217.112048,259.940636 216.012474,258.841061 214.657185,258.841061 L212.202322,258.841061 L212.202322,256.181626 C212.202322,255.844103 211.92613,255.567911 211.588606,255.567911 L209.542887,255.567911 C209.205363,255.567911 208.929171,255.844103 208.929171,256.181626 L208.929171,258.841061 L202.382869,258.841061 L202.382869,256.181626 C202.382869,255.844103 202.106677,255.567911 201.769154,255.567911 L199.723434,255.567911 C199.38591,255.567911 199.109718,255.844103 199.109718,256.181626 L199.109718,258.841061 L196.654855,258.841061 C195.299566,258.841061 194.199992,259.940636 194.199992,261.295925 L194.199992,279.298255 C194.199992,280.653544 195.299566,281.753118 196.654855,281.753118 L214.657185,281.753118 Z M214.350327,279.298255 L196.961713,279.298255 C196.792951,279.298255 196.654855,279.160159 196.654855,278.991397 L196.654855,263.750788 L214.657185,263.750788 L214.657185,278.991397 C214.657185,279.160159 214.519089,279.298255 214.350327,279.298255 Z" id="c" fill="#87DB33" fill-rule="nonzero"></path>
            <path d="M398.012573,280.753118 C398.697909,280.753118 399.342291,280.41045 399.725863,279.842783 L401.792059,276.779298 C401.045342,276.411059 400.375389,275.920106 399.812816,275.316629 L398.012573,277.991397 L395.358232,274.053387 L390.709365,274.953484 L391.609461,270.289284 L387.68169,267.629848 L391.609461,264.970413 L390.709365,260.306163 L395.363376,261.20626 L398.012573,257.278489 L400.666914,261.211404 L405.320925,260.311258 L404.891304,262.535977 C405.709592,261.947833 406.640404,261.523356 407.627454,261.303451 L407.83712,260.214116 C407.970122,259.539019 407.755311,258.843444 407.269453,258.352491 C406.7785,257.866633 406.082926,257.651822 405.418067,257.784824 L401.792059,258.485443 L399.725863,255.422008 C398.953624,254.28153 397.071522,254.28153 396.299283,255.422008 L394.233087,258.485443 L390.612173,257.784824 C389.931982,257.656967 389.241551,257.866633 388.755693,258.357586 C388.269835,258.848588 388.055024,259.539019 388.188026,260.214116 L388.888645,263.845268 L385.830304,265.916559 C385.257493,266.305225 384.919969,266.944512 384.919969,267.634943 C384.919969,268.325373 385.262637,268.96466 385.830304,269.348233 L388.888645,271.419524 L388.188026,275.050675 C388.055024,275.725773 388.269835,276.421297 388.755693,276.907156 C389.241551,277.393014 389.926887,277.607824 390.612173,277.474873 L394.233087,276.774204 L396.299283,279.837639 C396.682855,280.41045 397.327237,280.753118 398.012573,280.753118 Z M398.012573,272.979385 C398.145525,272.979385 398.273382,272.948719 398.406384,272.93848 C398.171096,272.253144 398.012573,271.532048 398.012573,270.769998 C398.012573,270.688189 398.03305,270.60633 398.03305,270.524521 L398.012573,270.524521 C396.432235,270.524521 395.148566,269.240852 395.148566,267.660514 C395.148566,266.080176 396.432235,264.796507 398.012573,264.796507 C398.887098,264.796507 399.664481,265.200557 400.191244,265.824461 C400.794771,265.272127 401.510773,264.837412 402.293251,264.530554 C401.321534,263.211075 399.771912,262.341644 398.012573,262.341644 C395.08209,262.341644 392.693703,264.730031 392.693703,267.660514 C392.693703,270.590997 395.08209,272.979385 398.012573,272.979385 Z M412.578085,275.843392 C415.375616,275.843392 417.651479,273.567529 417.651479,270.769998 C417.651479,268.693613 416.408714,266.908702 414.608471,266.126225 C413.652087,264.100983 411.611512,262.750788 409.264029,262.750788 C407.095547,262.750788 405.172591,263.947554 404.139492,265.727319 C401.613059,266.018844 399.649148,268.16685 399.649148,270.769998 C399.649148,273.567529 401.925011,275.843392 404.722542,275.843392 L412.578085,275.843392 Z M412.578085,273.388528 L404.722542,273.388528 C403.275206,273.388528 402.104012,272.217334 402.104012,270.769998 C402.104012,269.322661 403.275206,268.151467 404.722542,268.151467 C405.116353,268.151467 405.479449,268.263991 405.811878,268.422565 C405.949974,266.627416 407.43312,265.205651 409.264029,265.205651 C411.007985,265.205651 412.434894,266.48932 412.690609,268.161706 C414.081708,268.223087 415.196615,269.358471 415.196615,270.769998 C415.196615,272.217334 414.025421,273.388528 412.578085,273.388528 Z" id="s" fill="#3285FF" fill-rule="nonzero"></path>
            <path d="M304.16344,321.583969 C311.170029,321.583969 316.8469,315.907098 316.8469,308.900509 C316.8469,301.893921 311.170029,296.217049 304.16344,296.217049 C297.156852,296.217049 291.47998,301.893921 291.47998,308.900509 C291.47998,315.907098 297.156852,321.583969 304.16344,321.583969 Z M307.395687,304.399927 L300.931194,304.399927 C301.677911,300.779013 303.212201,298.671913 304.16344,298.671913 C305.11468,298.671913 306.648969,300.779013 307.395687,304.399927 Z M313.333367,304.399927 L309.896549,304.399927 C309.553931,302.533208 309.001546,300.881299 308.300928,299.556676 C310.494932,300.528393 312.274697,302.251921 313.333367,304.399927 Z M298.430332,304.399927 L294.993513,304.399927 C296.052183,302.251921 297.831949,300.528393 300.025953,299.556676 C299.325334,300.881299 298.77295,302.533208 298.430332,304.399927 Z M298.113235,310.946229 L294.139416,310.946229 C294.006464,310.286464 293.934844,309.601178 293.934844,308.900509 C293.934844,308.19984 294.006464,307.514554 294.139416,306.85479 L298.113235,306.85479 C298.062092,307.524743 298.026282,308.19984 298.026282,308.900509 C298.026282,309.601178 298.062092,310.276275 298.113235,310.946229 Z M307.748543,310.946229 L300.578337,310.946229 C300.52205,310.291608 300.481145,309.616511 300.481145,308.900509 C300.481145,308.184507 300.52205,307.50941 300.578337,306.85479 L307.753688,306.85479 C307.809925,307.50941 307.850829,308.184507 307.850829,308.900509 C307.850829,309.616511 307.804831,310.291608 307.748543,310.946229 Z M314.187465,310.946229 L310.213645,310.946229 C310.264788,310.276275 310.300598,309.601178 310.300598,308.900509 C310.300598,308.19984 310.264788,307.524743 310.213645,306.85479 L314.187465,306.85479 C314.320417,307.514554 314.392037,308.19984 314.392037,308.900509 C314.392037,309.601178 314.320417,310.286464 314.187465,310.946229 Z M300.025953,318.244342 C297.831949,317.272626 296.052183,315.549097 294.993513,313.401092 L298.430332,313.401092 C298.77295,315.267811 299.325334,316.919719 300.025953,318.244342 Z M304.16344,319.129106 C303.212201,319.129106 301.677911,317.022005 300.931194,313.401092 L307.400781,313.401092 C306.648969,317.022005 305.11468,319.129106 304.16344,319.129106 Z M308.300928,318.244342 C309.001546,316.919719 309.548786,315.267811 309.896549,313.401092 L313.333367,313.401092 C312.274697,315.549097 310.494932,317.272626 308.300928,318.244342 Z" id="g" fill="#FD8279" fill-rule="nonzero"></path>
            <path d="M422.187673,192.776347 L429.807728,191.519149 L445.934449,175.287495 C447.281048,173.940846 447.293884,171.764822 445.902335,170.373323 L443.147706,167.619843 C441.79866,166.270747 439.614944,166.270547 438.265599,167.619793 L422.033945,183.745365 L420.776796,191.36547 C420.639999,192.194746 421.358198,192.913095 422.187673,192.776347 Z M441.881268,176.173956 L437.379137,171.671826 L439.851581,169.215464 L439.856725,169.21032 C440.324503,168.742591 441.083008,168.736798 441.55648,169.21027 L444.310759,171.964549 C444.815946,172.469686 444.819043,173.22005 444.342874,173.696269 L444.337629,173.701513 L441.881268,176.173956 Z M431.499991,186.623007 L431.499991,184.507965 L429.045128,184.507965 L429.045128,182.053102 L426.930036,182.053102 L435.637629,173.401997 L440.151047,177.915415 L431.499991,186.623007 Z M424.960432,190.03815 L423.514994,188.592711 L424.135851,184.829257 L425.076902,183.894249 L427.203981,183.894249 L427.203981,186.349113 L429.658844,186.349113 L429.658844,188.476141 L428.723836,189.417242 L424.960432,190.03815 Z" id="p" fill="#B447D3" fill-rule="nonzero"></path>
            <path d="M66.1419837,213.914322 C69.7605961,213.914322 72.6964514,210.978467 72.6964514,207.359855 L72.6964514,150.554468 C72.6964514,146.935855 69.7605961,144 66.1419837,144 L35.5544677,144 C31.9358553,144 29,146.935855 29,150.554468 L29,207.359855 C29,210.978467 31.9358553,213.914322 35.5544677,213.914322 L66.1419837,213.914322 Z M65.9910829,208.957161 L35.7053686,208.957161 C35.2339679,208.957161 34.8482257,208.56771 34.8482257,208.091777 L34.8482257,149.822546 C34.8482257,149.346612 35.2339679,148.957161 35.7053686,148.957161 L65.9910829,148.957161 C66.4624835,148.957161 66.8482257,149.346612 66.8482257,149.822546 L66.8482257,208.091777 C66.8482257,208.56771 66.4624835,208.957161 65.9910829,208.957161 Z M50.8482257,205.175032 C53.2652124,205.175032 55.2178709,203.222374 55.2178709,200.805387 C55.2178709,198.3884 53.2652124,196.435742 50.8482257,196.435742 C48.4312391,196.435742 46.4785806,198.3884 46.4785806,200.805387 C46.4785806,203.222374 48.4312391,205.175032 50.8482257,205.175032 Z" id="m" fill="#FFFFFF" fill-rule="nonzero"></path>
        </g>
    </g>
</svg>