<svg width="354" height="547" xmlns="http://www.w3.org/2000/svg" xmlns:xlink="http://www.w3.org/1999/xlink"><defs><ellipse id="a" cx="22.439" cy="21.816" rx="22.439" ry="21.816"/></defs><g fill="none" fill-rule="evenodd"><g transform="matrix(-1 0 0 1 321.085 .73)"><circle fill-opacity=".092" fill="#8559FF" cx="143" cy="272" r="143"/><g transform="rotate(-90 123.251 56.249)" stroke="#1DE1B9" stroke-linecap="round" stroke-linejoin="round" stroke-width="3"><path stroke-dasharray="3,6" d="M134.23 78.715L0 161.794"/><path d="M17.498 0L134.23 79.953H57.832" stroke-dasharray="3,7"/></g><circle fill="#1DE1B9" cx="145.915" cy="50.269" r="50"/><path stroke="#8559FF" stroke-width="3" d="M233.427 184.082L50.011 368.794"/><path stroke="#8559FF" stroke-width="3" transform="matrix(-1 0 0 1 283.438 0)" d="M233.427 184.082L50.011 368.794"/><path stroke="#8559FF" stroke-width="3" transform="scale(-1 1) rotate(-45 0 623.406)" d="M235.427 184.082L52.011 368.794"/><path stroke="#8559FF" stroke-width="3" transform="scale(1 -1) rotate(45.201 807.794 0)" d="M235.427 184.082L52.011 368.794"/><path d="M153.313 54V36.714h-1.563v-2.357A2.35 2.35 0 0 0 149.406 32h-7.812a2.35 2.35 0 0 0-2.344 2.357v2.357h-1.563V54h15.625zm-4.688-17.286h-6.25v-1.571h6.25v1.571zM155.656 54A2.35 2.35 0 0 0 158 51.643V39.07a2.35 2.35 0 0 0-2.344-2.357h-.781V54h.781zm-19.531 0V36.714h-.781A2.35 2.35 0 0 0 133 39.071v12.572A2.35 2.35 0 0 0 135.344 54h.781zm10.156-4.714h-1.562a.783.783 0 0 1-.781-.786v-2.357h-2.344a.783.783 0 0 1-.781-.786v-1.571c0-.434.35-.786.78-.786h2.345v-2.357c0-.434.35-.786.78-.786h1.563c.432 0 .781.352.781.786V43h2.344c.432 0 .781.352.781.786v1.571c0 .434-.35.786-.78.786h-2.345V48.5c0 .434-.35.786-.78.786z" fill="#FFF" fill-rule="nonzero"/></g><g transform="translate(93.085 359.73)"><g transform="rotate(90 84.251 84.751)" stroke="#79B2FD" stroke-dasharray="3,5" stroke-linecap="round" stroke-linejoin="round" stroke-width="3"><path d="M127.23 85.715L0 168.794"/><path d="M4.498 0L127.23 86.953H50.832"/></g><g transform="translate(33.915 86.27)"><circle fill="#79B2FD" cx="50" cy="50" r="50"/><path d="M50.036 54.85c.465 0 .845-.38.845-.845v-9.301h1.459c5.956 0 10.802-5.501 10.802-12.26v-1.269h-3.995c-4.81 0-8.894 3.589-10.29 8.53-1.96-3.108-5.163-5.147-8.777-5.147h-3.995v1.268c0 6.759 4.846 12.26 10.801 12.26h1.459v5.919c0 .465.38.845.845.845h.846zm2.304-12.683h-1.385c.529-4.766 4.006-8.455 8.197-8.455h1.384c-.528 4.767-4.005 8.455-8.196 8.455zm-4.07 3.383h-1.384c-4.19 0-7.668-3.69-8.196-8.456h1.384c4.191 0 7.668 3.689 8.197 8.456z" fill="#FFF" fill-rule="nonzero"/><path d="M65.142 83.914a6.556 6.556 0 0 0 6.554-6.554V20.554A6.556 6.556 0 0 0 65.142 14H34.554A6.556 6.556 0 0 0 28 20.554V77.36a6.556 6.556 0 0 0 6.554 6.554h30.588zm-.15-4.957H34.704a.864.864 0 0 1-.857-.865v-58.27c0-.475.386-.865.857-.865h30.286c.471 0 .857.39.857.866v58.269a.864.864 0 0 1-.857.865zm-15.144-3.782a4.365 4.365 0 0 0 4.37-4.37 4.365 4.365 0 0 0-4.37-4.37 4.365 4.365 0 0 0-4.37 4.37 4.365 4.365 0 0 0 4.37 4.37z" fill="#FFF" fill-rule="nonzero"/></g></g><g transform="translate(0 98)"><path d="M176 50l87.681 36.319L300 174l-36.319 87.681L176 298l-87.681-36.319L52 174l36.319-87.681L176 50z" stroke="#1DE1B9" stroke-width="3" stroke-linecap="round" stroke-linejoin="round" stroke-dasharray="5,8"/><path d="M176 39l94.752 39.248L310 173l-39.248 94.752L176 307l-94.752-39.248L42 173l39.248-94.752L176 39z" stroke="#79B2FD" stroke-width="3" stroke-linecap="round" stroke-linejoin="round" stroke-dasharray="5,8"/><g transform="translate(72.93 73.6)"><path d="M145.15 42.426l33.42 57.886a8.359 8.359 0 0 1 0 8.358l-33.42 57.886a8.359 8.359 0 0 1-7.239 4.18h-66.84a8.359 8.359 0 0 1-7.24-4.18l-33.42-57.886a8.359 8.359 0 0 1 0-8.358l33.42-57.886a8.359 8.359 0 0 1 7.24-4.18h66.84a8.359 8.359 0 0 1 7.239 4.18z" stroke="#8559FF" stroke-width="3.569" fill="#FFF"/><g transform="translate(56.037 55.114)"><path stroke="#FFF" stroke-width=".5" fill="#BFB0FF" d="M49.3050011 91.1452114L51.6445178 91.9459093 67.8435481 60.5078591 82.1358058 19.7402001 79.5761881 20.5841786 65.5419076 59.1792086z"/><path stroke="#FFF" stroke-width=".5" fill="#BFB0FF" d="M19.5665936 81.0451288L62.6379754 57.5982165 93.7515345 51.1687991 93.7515345 54.0694414 62.6379754 60.0903693 19.5665936 84.3411516z"/><path stroke="#FFF" stroke-width=".5" fill="#BFB0FF" d="M5.38902653 50.7734185L62.6379754 57.5982165 93.7515345 51.1687991 93.7515345 54.0694414 62.6379754 60.0903693 5.38902653 53.1376014z"/><path stroke="#FFF" stroke-width=".5" fill="#BFB0FF" d="M44.7063026 36.7958194L49.5922163 93.9399741 47.5485378 96.4321269 42.6626241 36.7958194z"/><path stroke="#FFF" stroke-width=".5" fill="#BFB0FF" d="M7.43270502 52.6370984L76.6155746 80.894215 75.503736 83.3863677 7.2527064 55.4326182z"/><path d="M48.74 3.04l33.588 14.002 13.913 33.801-13.913 33.802-33.587 14-33.588-14L1.241 50.843l13.912-33.801L48.741 3.04zm0 2.506L16.914 18.813 3.73 50.843l13.183 32.03 31.828 13.268 31.827-13.268 13.184-32.03-13.184-32.03L48.741 5.546z" fill="#D8D8D8" opacity=".321"/><path d="M48.74 3.04l32.934 14.535-1.751.724L48.74 5.546 16.913 18.813 4.241 49.602l-3 1.241 13.912-33.801L48.741 3.04z" fill="#8559FF"/><path stroke="#FFF" stroke-width=".932" fill="#BFB0FF" d="M92.3414794 53.2338813L80.8912634 80.1662537 82.4269202 82.7811582 96.2406193 52.3044042z"/><path d="M97.276 47.608a5.415 5.415 0 0 1 2.694 4.682v.03A5.415 5.415 0 0 1 97.276 57a5.363 5.363 0 0 1-5.39 0 5.415 5.415 0 0 1-2.694-4.682v-.03a5.415 5.415 0 0 1 2.695-4.681 5.363 5.363 0 0 1 5.389 0zM50.813 89.774a5.415 5.415 0 0 1 2.694 4.682v.03a5.415 5.415 0 0 1-2.694 4.682 5.363 5.363 0 0 1-5.39 0 5.415 5.415 0 0 1-2.694-4.682v-.03a5.415 5.415 0 0 1 2.695-4.682 5.363 5.363 0 0 1 5.389 0z" stroke="#FFF" stroke-width="1.929" fill="#BFB0FF"/><path d="M51.228.849a5.415 5.415 0 0 1 2.694 4.682v.03a5.415 5.415 0 0 1-2.694 4.681 5.36 5.36 0 0 1-2.57.725l-4.935 13.955c.785.21 1.547.524 2.266.94l.436.251a7.284 7.284 0 0 1 1.743 1.404l27.336-8.311.004-.138a5.415 5.415 0 0 1 2.689-4.442 5.363 5.363 0 0 1 5.389 0 5.415 5.415 0 0 1 2.694 4.682v.03a5.415 5.415 0 0 1-2.694 4.681 5.363 5.363 0 0 1-5.39 0 5.41 5.41 0 0 1-1.733-1.602L49.927 31c.178.89.191 1.82.02 2.75l-.352 1.906a8.21 8.21 0 0 1-.963 2.616l12.01 15.675a5.364 5.364 0 0 1 4.69.34 5.415 5.415 0 0 1 2.695 4.682V59c0 1.175-.38 2.295-1.055 3.211l11.635 15.185a5.362 5.362 0 0 1 3.32.69 5.415 5.415 0 0 1 2.694 4.681v.03a5.415 5.415 0 0 1-2.695 4.682 5.363 5.363 0 0 1-5.389 0 5.415 5.415 0 0 1-2.694-4.682v-.03c0-1.292.46-2.52 1.266-3.48l-11.294-15.01a5.363 5.363 0 0 1-3.872-.595 5.415 5.415 0 0 1-2.694-4.682v-.03c0-.91.228-1.787.645-2.562L46.225 40.899a8.212 8.212 0 0 1-1.986 1.02 8.637 8.637 0 0 1-1.134.313L22.639 78.468a5.414 5.414 0 0 1 1.101 3.273v.03a5.415 5.415 0 0 1-2.694 4.682 5.363 5.363 0 0 1-5.39 0 5.415 5.415 0 0 1-2.694-4.682v-.03a5.415 5.415 0 0 1 2.695-4.682 5.362 5.362 0 0 1 3.465-.67l19.253-34.52a8.625 8.625 0 0 1-2.36-1.33l-.38-.3a8.512 8.512 0 0 1-1.882-2.082L10.777 51.358l.001.097v.03a5.415 5.415 0 0 1-2.694 4.681 5.363 5.363 0 0 1-5.39 0A5.415 5.415 0 0 1 0 51.484v-.03a5.415 5.415 0 0 1 2.695-4.681 5.363 5.363 0 0 1 6.634.995l23.144-13.153a8.513 8.513 0 0 1 .06-2.512l.072-.415c.124-.711.336-1.394.626-2.036l-12.417-6.116a5.363 5.363 0 0 1-6.089.484 5.415 5.415 0 0 1-2.694-4.682v-.03a5.415 5.415 0 0 1 2.694-4.682 5.363 5.363 0 0 1 5.39 0 5.415 5.415 0 0 1 2.694 4.682v.03a5.41 5.41 0 0 1-.22 1.524l13.259 5.517a8.46 8.46 0 0 1 1.837-1.054 9.375 9.375 0 0 1 1.679-.522L44.661 9.32a5.415 5.415 0 0 1-1.517-3.759v-.03A5.415 5.415 0 0 1 45.84.85a5.363 5.363 0 0 1 5.389 0z" stroke="#FFF" stroke-width="1.929" fill="#8559FF"/></g><g transform="translate(81.088 82.88)"><ellipse cx="22.439" cy="21.816" rx="22.439" ry="21.816" transform="translate(.572 .572)" fill="#000" fill-rule="nonzero"/><ellipse stroke="#FFF" stroke-width="5.824" fill="#BFB0FF" cx="23.011" cy="22.387" rx="25.78" ry="25.157"/><ellipse stroke="#D6DFE3" stroke-width="3.181" cx="23.011" cy="22.387" rx="24.458" ry="23.835"/><g transform="translate(.572 1.204)"><mask id="b" fill="#fff"><use xlink:href="#a"/></mask><g mask="url(#b)"><g transform="matrix(-1 0 0 1 44.878 2.798)" fill-rule="nonzero"><g transform="translate(13.606)"><path d="M14.21 6.02c1.326 2.467 1.169 8.723-.544 9.164-.683.176-2.138-.255-3.619-1.146l.93 6.567H5.488l1.89-8.794C6.324 10.576 5.61 9.06 5.73 7.366c.343-4.887 7.156-3.812 8.48-1.346z" fill="#B28B67"/><path d="M16.642 2.601c-.113-.399-.42-.74-.831-.842a1.097 1.097 0 0 0-.306-.03c-.037.001-.047.012-.064-.014-.013-.019-.013-.065-.019-.088a1.66 1.66 0 0 0-.062-.206 1.68 1.68 0 0 0-.406-.602 2.043 2.043 0 0 0-1.226-.58 1.79 1.79 0 0 0-.737.101 2.922 2.922 0 0 0-.358.153c-.035.018-.149.103-.184.098-.038-.006-.116-.102-.148-.127-.389-.298-.87-.415-1.354-.411-.547.004-1.073.031-1.53.364a3.059 3.059 0 0 0-.41.362l-.074.086c-.04.05-.034.066-.092.031a1.139 1.139 0 0 0-.73-.164c-.152.02-.3.065-.44.125-.048.02-.16.102-.21.103-.05 0-.16-.075-.212-.094a1.74 1.74 0 0 0-.881-.082c-.305.05-.605.171-.864.34a1.16 1.16 0 0 0-.32.29c-.038.052-.072.107-.114.155-.025.028-.075.057-.088.093.008-.022-.334-.153-.366-.162a.903.903 0 0 0-.516.02c-.316.104-.588.337-.812.576a2.303 2.303 0 0 0-.413.617c-.017.035-.028.079-.05.11-.028.042-.047.042-.098.06-.259.091-.495.244-.675.452-.181.21-.3.467-.349.74-.003.015-.005.082-.014.09-.013.012-.065.007-.085.01a1.783 1.783 0 0 0-.559.163c-.442.219-.759.628-.913 1.09A2.207 2.207 0 0 0 .166 6.94c.032.077.069.151.113.221.027.044.035.044.018.09-.02.05-.055.099-.078.148-.076.16-.129.331-.162.506-.055.285-.082.586-.028.874.025.134.069.264.136.383a1.1 1.1 0 0 0 .192.251c.015.015.034.028.047.044.03.04.037.007.02.065-.021.08-.071.16-.102.239a3.906 3.906 0 0 0-.212.76c-.054.333-.045.69.114.996a.997.997 0 0 0 .468.448c.033.016.076.023.092.056.016.035-.008.104-.014.143-.049.34-.073.697.028 1.03.093.307.298.577.565.757.516.348 1.213.328 1.756.05.141-.073.274-.163.392-.27.3.405.92.392 1.36.277a1.952 1.952 0 0 0 1.24-1.024c.346.421 1.072.285 1.312-.172.06-.112.094-.235.111-.36.01-.065.003-.131.01-.196.009-.083.064-.163.096-.244.062-.156.1-.317.102-.485.001-.088-.01-.173-.018-.26-.008-.079.014-.152.026-.23-.14.024-.311-.014-.444-.055-.13-.04-.251-.145-.343-.24-.213-.224-.343-.516-.432-.807-.195-.638-.115-1.404.528-1.754.3-.163 1.197-.163 1.554-.082.375.085.8.911.821.989.013.048.006.107.05.14.098.07.258-.052.33-.113.124-.104.212-.242.288-.383.167-.306.301-.634.396-.969.073-.258.12-.524.215-.776.095-.25.245-.474.478-.616.254-.154.545-.235.823-.332.276-.096.547-.214.76-.418a1.05 1.05 0 0 0 .131-.145c.03-.042.06-.122.105-.148.071-.041.174.066.236.105.302.191.553.458.757.75.202.29.368.57.502.893.1.24.163.549.338.745.079.088.662.142.85.065.19-.077.402-.276.465-.401a.622.622 0 0 0 .053-.409c-.017-.082-.05-.159-.068-.24-.016-.068-.03-.132-.063-.194a.48.48 0 0 0-.299-.238c.135-.124.246-.273.323-.438.08-.172.149-.382.168-.57a.692.692 0 0 0-.093-.445c-.088-.138-.244-.229-.38-.315a2.47 2.47 0 0 0 .53-.575c.282-.423.457-.956.313-1.46z" fill="#191847"/></g><g transform="translate(0 39.558)"><path d="M30.071 9.59a3.659 3.659 0 0 1 3.659 3.66v20.998a3.659 3.659 0 0 1-3.659 3.659H3.773a3.659 3.659 0 0 1-3.659-3.659V13.25a3.659 3.659 0 0 1 3.66-3.66H30.07zm-3.659 6.395H7.432a.915.915 0 0 0-.915.915v13.698c0 .505.41.915.915.915h18.98c.506 0 .915-.41.915-.915V16.9a.915.915 0 0 0-.915-.915z" fill="#C5CFD6"/><path d="M47.243 8.564c1.16 3.002 3.188 12.868 5.624 27.769l-2.784.811c-2.93-6.476-5.05-12.114-5.9-15.09-1.456-5.094-2.564-9.576-2.844-11.25-.668-3.992 5.136-4.224 5.904-2.24zm-8.784 8.37c-8.477 1.219-20.493 2.477-21.522 2.618-1.441.198-2.53-2.064-.84-2.73 2.688-1.062 12.102-4.382 16.642-5.322 1.305-.27 2.57-.52 3.759-.747 3.533-.674 5.364 5.692 1.96 6.182z" fill="#B28B67"/><path d="M25.855 0C39.923 3.58 47.11 5.874 47.42 6.882l.01.034.02.027c2.788 3.828 4.457 22.52 5.005 23.92l-5.342.796c-2.044-7.567-8.582-12.838-8.408-21.902a2.965 2.965 0 0 1-.04-.756l-14.54-7.392V0h1.729z" fill="#005EB8"/><path d="M26.628 0c2.038.585 12.63 5.02 18.126 7.38 3.637 1.561 2.49 7.19.431 8.655-.011.09-.048.15-.115.178-11.08 4.586-19.846 2.18-22.774 2.949l-1.354-4.267 4.391-1.504c-1.33-.266-2.555-.504-3.603-.687C14.958 11.518 12.983 7.898 14.15 0h12.478z" fill="#0072C3"/><path d="M17.017 16.135c-.725.07-1.24.178-1.544.326-.37.18-.88.506-1.53.976l5.654 11.592c1.141-.184 1.594-.62 1.356-1.307A71.527 71.527 0 0 1 20.38 26l-.23-6.558a.229.229 0 0 0-.242-.22l-1.008.062c-.573-.464-.95-.884-1.134-1.26-.149-.305-.231-.787-.248-1.445a.457.457 0 0 0-.5-.444z" fill="#E4E4E4"/><path d="M48.75 35.944c-.257.681-.385 1.192-.385 1.53 0 .412.07 1.013.207 1.803h12.897c.336-1.107.142-1.704-.58-1.792a71.527 71.527 0 0 1-1.8-.24l-5.995-2.668a.229.229 0 0 0-.304.122l-.385.933c-.669.312-1.212.467-1.63.467-.34 0-.809-.137-1.407-.41a.457.457 0 0 0-.619.255z" fill="#E4E4E4"/></g><g transform="translate(.743 15.58)"><path d="M7.903 21.241l4.778.02c-2.95 9.511-4.543 14.558-4.778 15.14-.53 1.31.59 3.304 1.07 4.376-1.56.696-1.394-1.884-3.362-.97-1.795.834-3.161 2.345-5.236 1.067-.255-.157-.535-.749.14-1.211 1.683-1.152 4.108-3.169 4.435-3.832.447-.905 1.431-5.768 2.953-14.59zm28.753-.89l6.478 6.311c1.885.803 3.429 1.69 4.633 2.66.27.326.565.95-.708.67-1.274-.279-2.627-.516-2.866-.102-.24.414.466 1.048.024 1.589-.295.36-1.287-.787-2.976-3.444l-6.737-3.966 2.152-3.717z" fill="#B28B67"/><path d="M21.483 1.218l1.978-.34c3.404 8.493 9.348 16.21 17.831 23.15l-6.41 7.777C26.4 21.923 21.172 11.727 21.483 1.218z" fill="#191847"/><path d="M12.863 26.032h17.608C26.391 16.128 24.352 7.714 24.352.79L19.041 0c-4.175 6.704-5.354 14.958-6.178 26.032z" fill="#DDE3E9"/><path d="M19.277 0c.415.014 1.047.04 1.896.077l1.283 3.663c.136 4.465.929 13.465 2.379 26.998H13.292c.03.935.08 1.878.15 2.83H4.859C6.143 19.105 10.831 7.916 18.924 0l.004.004L18.93 0h.347z" fill="#2F3676"/><path d="M16.522 30.828h-3.227c-.141-4.192.112-8.208.76-12.049.328 5.826 1.15 9.842 2.467 12.049z" fill-opacity=".1" fill="#000"/><path fill-opacity=".2" fill="#FFF" d="M15.8613252 23.748846L21.5529199 21.1066206 21.5529199 23.748846z"/></g></g></g></g></g></g><path d="M326.624 153.246l12.3 21.306a8.359 8.359 0 0 1 0 8.358l-12.3 21.305a8.359 8.359 0 0 1-7.239 4.18h-24.6a8.359 8.359 0 0 1-7.24-4.18l-12.3-21.305a8.359 8.359 0 0 1 0-8.358l12.3-21.306a8.359 8.359 0 0 1 7.24-4.179h24.6a8.359 8.359 0 0 1 7.239 4.18z" stroke="#B447D3" stroke-width="3.569" fill="#FFF"/><path d="M66.464 152.606l12.3 21.306a8.359 8.359 0 0 1 0 8.358l-12.3 21.305a8.359 8.359 0 0 1-7.239 4.18h-24.6a8.359 8.359 0 0 1-7.24-4.18l-12.3-21.305a8.359 8.359 0 0 1 0-8.358l12.3-21.306a8.359 8.359 0 0 1 7.24-4.179h24.6a8.359 8.359 0 0 1 7.239 4.18z" stroke="#FF8787" stroke-width="3.569" fill="#FFF"/><path d="M98.592 57.408l12.3 21.305a8.359 8.359 0 0 1 0 8.359l-12.3 21.305a8.359 8.359 0 0 1-7.239 4.18h-24.6a8.359 8.359 0 0 1-7.24-4.18l-12.3-21.305a8.359 8.359 0 0 1 0-8.359l12.3-21.305a8.359 8.359 0 0 1 7.24-4.179h24.6a8.359 8.359 0 0 1 7.239 4.18z" stroke="#E11DD5" stroke-width="3.569" fill="#FFF"/><path d="M196.512 21.568l12.3 21.305a8.359 8.359 0 0 1 0 8.359l-12.3 21.305a8.359 8.359 0 0 1-7.239 4.18h-24.6a8.359 8.359 0 0 1-7.24-4.18l-12.3-21.305a8.359 8.359 0 0 1 0-8.359l12.3-21.305a8.359 8.359 0 0 1 7.24-4.179h24.6a8.359 8.359 0 0 1 7.239 4.18z" stroke="#79B2FD" stroke-width="3.569" fill="#FFF"/><path d="M98.592 242.368l12.3 21.305a8.359 8.359 0 0 1 0 8.359l-12.3 21.305a8.359 8.359 0 0 1-7.239 4.18h-24.6a8.359 8.359 0 0 1-7.24-4.18l-12.3-21.305a8.359 8.359 0 0 1 0-8.359l12.3-21.305a8.359 8.359 0 0 1 7.24-4.179h24.6a8.359 8.359 0 0 1 7.239 4.18z" stroke="#87DB33" stroke-width="3.569" fill="#FFF"/><path d="M196.512 283.328l12.3 21.305a8.359 8.359 0 0 1 0 8.359l-12.3 21.305a8.359 8.359 0 0 1-7.239 4.18h-24.6a8.359 8.359 0 0 1-7.24-4.18l-12.3-21.305a8.359 8.359 0 0 1 0-8.359l12.3-21.305a8.359 8.359 0 0 1 7.24-4.18h24.6a8.359 8.359 0 0 1 7.239 4.18z" stroke="#FF8787" stroke-width="3.569" fill="#FFF"/><path d="M291.744 242.206l12.3 21.305a8.359 8.359 0 0 1 0 8.36l-12.3 21.304a8.359 8.359 0 0 1-7.239 4.18h-24.6a8.359 8.359 0 0 1-7.24-4.18l-12.3-21.305a8.359 8.359 0 0 1 0-8.359l12.3-21.305a8.359 8.359 0 0 1 7.24-4.179h24.6a8.359 8.359 0 0 1 7.239 4.18z" stroke="#3285FF" stroke-width="3.569" fill="#FFF"/><path d="M295.584 57.247l12.3 21.305a8.359 8.359 0 0 1 0 8.358l-12.3 21.305a8.359 8.359 0 0 1-7.239 4.18h-24.6a8.359 8.359 0 0 1-7.24-4.18l-12.3-21.305a8.359 8.359 0 0 1 0-8.358l12.3-21.305a8.359 8.359 0 0 1 7.24-4.18h24.6a8.359 8.359 0 0 1 7.239 4.18z" stroke="#FF882D" stroke-width="3.569" fill="#FFF"/></g><path d="M167.008 156.398a.82.82 0 0 0 .818-.818v-.593l-3.375-4.22a3.256 3.256 0 0 1-.716-2.045v-9.876c0-.593.399-1.14.982-1.248a1.229 1.229 0 0 1 1.473 1.202v.53l.001.214v.118l.001.257.004 2.11.001.36.008 3.192c0 .39.143.757.399 1.054l3.912 4.736a1.127 1.127 0 0 0 1.693.051c.384-.404.374-1.043.041-1.493l-2.531-3.427a1.23 1.23 0 0 1 1.948-1.498l3.667 4.766c.44.573.68 1.274.68 1.995v3.81c0 .45.368.818.819.818h1.636a.82.82 0 0 0 .818-.818v-3.805c0-.721.24-1.422.68-1.995l3.668-4.766c.24-.312.608-.481.976-.481a1.23 1.23 0 0 1 .972 1.98l-2.531 3.426c-.333.45-.338 1.09.04 1.493a1.127 1.127 0 0 0 1.693-.051l3.913-4.736c.255-.296.394-.665.399-1.053v-.207l-.001-.236V143.283v-.714-.54l.001-.178v-.353-.174l.001-.34v-.484l.002-.444v-.268-.458-.095l.001-.235v-.2c0-.757.686-1.355 1.474-1.202.583.113.982.655.982 1.248v9.876c0 .741-.251 1.462-.716 2.04l-3.376 4.22v.593c0 .45.368.818.818.818h.834c.25 0 .486-.112.64-.312l3.001-3.784a5.755 5.755 0 0 0 1.253-3.58v-9.79c0-1.958-1.472-3.671-3.431-3.8a3.685 3.685 0 0 0-3.933 3.673v.235l-.001.145v.274l-.01 3.233a3.688 3.688 0 0 0-2.035-.614c-1.15 0-2.214.522-2.915 1.432l-3.672 4.772a5.192 5.192 0 0 0-.368.573c-.118-.195-.23-.394-.369-.573l-3.672-4.772a3.668 3.668 0 0 0-2.915-1.432 3.73 3.73 0 0 0-2.035.614l-.001-.336-.008-2.9v-.188V139.035l-.001-.06v-.175a3.685 3.685 0 0 0-3.933-3.672c-1.96.128-3.432 1.841-3.432 3.8v9.794c0 1.294.445 2.567 1.253 3.58l3.002 3.784a.825.825 0 0 0 .64.312h.833z" fill="#79B2FD" fill-rule="nonzero"/><path d="M279.799 173.518a2.456 2.456 0 1 0 0-4.912 2.456 2.456 0 0 0 0 4.912zm-1.228 21.276c.534 0 1.026-.351 1.18-.89l1.704-5.344a2.87 2.87 0 0 0-1.274-3.239l-2.652-1.6 2.145-5.36c.14.186.26.388.329.617l.714 2.35a2.85 2.85 0 0 0 2.731 2.03l2.475.008h.005a1.227 1.227 0 0 0 .003-2.455l-2.475-.009a.407.407 0 0 1-.39-.29l-.713-2.348a4.511 4.511 0 0 0-3.315-3.08l-4.002-.905a4.474 4.474 0 0 0-3.747.83l-2.473 1.91a1.228 1.228 0 0 0 1.502 1.942l2.474-1.91a2.06 2.06 0 0 1 1.704-.378l.76.172-1.805 4.467a2.853 2.853 0 0 0 1.175 3.525l4.285 2.586a.454.454 0 0 1 .198.35.49.49 0 0 1-.016.113l-1.703 5.343a1.227 1.227 0 0 0 1.181 1.565zm-7.63-4.91c1.147 0 2.181-.681 2.634-1.736l.693-1.616-.489-.296a4.482 4.482 0 0 1-1.447-1.423l-1.015 2.367a.409.409 0 0 1-.376.249h-3.833a1.228 1.228 0 0 0 0 2.454h3.833z" fill="#FF882D" fill-rule="nonzero"/><path d="M83.85 194.793c.903 0 1.636-.733 1.636-1.636v-2.538a4.092 4.092 0 0 0 3.273-4.009v-9.82c0-1.978-1.406-3.629-3.273-4.008v-2.537c0-.904-.733-1.637-1.637-1.637h-9.82c-.903 0-1.636.733-1.636 1.637v2.537a4.093 4.093 0 0 0-3.273 4.009v9.82c0 1.979 1.406 3.629 3.273 4.008v2.538c0 .903.733 1.636 1.637 1.636h9.82zm-.82-22.094h-8.182v-1.636h8.183v1.636zm1.637 15.548H73.211a1.639 1.639 0 0 1-1.636-1.637v-9.82c0-.901.734-1.636 1.636-1.636h11.456c.903 0 1.637.735 1.637 1.637v9.82c0 .901-.734 1.636-1.637 1.636zm-5.321-2.614l3.48-3.283c1.01-.955.952-2.536-.178-3.416-1.128-.88-2.601-.488-3.355.223l-.354.334-.355-.334c-.734-.693-2.213-1.112-3.354-.223-1.13.88-1.189 2.461-.178 3.416l3.48 3.283a.6.6 0 0 0 .814 0zm3.685 6.705h-8.183v-1.636h8.183v1.636z" fill="#E11DD5" fill-rule="nonzero"/><path d="M55.935 290.793c.317 0 .614-.25.614-.614v-2.659h1.636a3.276 3.276 0 0 0 3.273-3.273v-8.183a3.276 3.276 0 0 0-3.273-3.273h-4.91v-4.91a3.276 3.276 0 0 0-3.273-3.273H35.273A3.276 3.276 0 0 0 32 267.88v8.183a3.276 3.276 0 0 0 3.273 3.273h1.637v2.66a.612.612 0 0 0 .977.49l3.932-2.224v3.984a3.276 3.276 0 0 0 3.274 3.273h4.91l5.569 3.15a.62.62 0 0 0 .363.123zm-16.57-11.962v-1.949h-4.092a.82.82 0 0 1-.818-.818v-8.183a.82.82 0 0 1 .818-.818h14.73a.82.82 0 0 1 .818.818v8.183a.82.82 0 0 1-.819.818h-7.19l-.563.317-2.884 1.632zm14.729 8.183l-2.885-1.632-.562-.317h-5.554a.82.82 0 0 1-.819-.818v-4.91h5.728a3.276 3.276 0 0 0 3.273-3.273v-.818h4.91a.82.82 0 0 1 .818.818v8.183a.82.82 0 0 1-.818.818h-4.091v1.949z" fill="#FF8787" fill-rule="nonzero"/><path d="M87.657 379.753c1.355 0 2.455-1.1 2.455-2.455v-18.002c0-1.355-1.1-2.455-2.455-2.455h-2.455v-2.66a.616.616 0 0 0-.613-.613h-2.046a.616.616 0 0 0-.614.614v2.66h-6.546v-2.66a.616.616 0 0 0-.614-.614h-2.046a.616.616 0 0 0-.613.614v2.66h-2.455a2.455 2.455 0 0 0-2.455 2.454v18.002c0 1.356 1.1 2.455 2.455 2.455h18.002zm-.307-2.455H69.962a.308.308 0 0 1-.307-.307v-15.24h18.002v15.24a.308.308 0 0 1-.307.307z" fill="#87DB33" fill-rule="nonzero"/><path d="M271.013 378.753c.685 0 1.33-.343 1.713-.91l2.066-3.064a6.817 6.817 0 0 1-1.98-1.462l-1.8 2.674-2.654-3.938-4.649.9.9-4.664-3.927-2.66 3.927-2.659-.9-4.664 4.654.9 2.65-3.928 2.654 3.933 4.654-.9-.43 2.225a7.487 7.487 0 0 1 2.736-1.233l.21-1.089a2.065 2.065 0 0 0-2.42-2.43l-3.625.701-2.066-3.063c-.772-1.14-2.654-1.14-3.427 0l-2.066 3.063-3.62-.7a2.061 2.061 0 0 0-1.857.573 2.067 2.067 0 0 0-.568 1.856l.7 3.631-3.058 2.072a2.068 2.068 0 0 0-.91 1.718c0 .69.343 1.33.91 1.713l3.059 2.072-.701 3.63c-.133.676.082 1.371.568 1.857.486.486 1.17.7 1.856.568l3.621-.7 2.066 3.063a2.064 2.064 0 0 0 1.714.915zm0-7.774c.133 0 .26-.03.393-.04-.235-.686-.393-1.407-.393-2.169 0-.082.02-.164.02-.245h-.02a2.866 2.866 0 0 1-2.864-2.864 2.866 2.866 0 0 1 2.864-2.864c.874 0 1.651.404 2.178 1.027a6.762 6.762 0 0 1 2.102-1.293c-.971-1.32-2.521-2.19-4.28-2.19a5.328 5.328 0 0 0-5.32 5.32 5.328 5.328 0 0 0 5.32 5.318zm14.565 2.864a5.08 5.08 0 0 0 5.073-5.073 5.054 5.054 0 0 0-3.043-4.644 5.885 5.885 0 0 0-5.344-3.375c-2.168 0-4.091 1.197-5.125 2.976a5.08 5.08 0 0 0-4.49 5.043 5.08 5.08 0 0 0 5.074 5.073h7.855zm0-2.454h-7.855a2.617 2.617 0 0 1-2.619-2.619 2.617 2.617 0 0 1 2.619-2.619c.393 0 .756.113 1.089.272.138-1.796 1.621-3.217 3.452-3.217a3.47 3.47 0 0 1 3.427 2.956 2.613 2.613 0 0 1 2.506 2.608 2.617 2.617 0 0 1-2.619 2.619z" fill="#3285FF" fill-rule="nonzero"/><path d="M177.163 419.584c7.007 0 12.684-5.677 12.684-12.683 0-7.007-5.677-12.684-12.684-12.684-7.006 0-12.683 5.677-12.683 12.684 0 7.006 5.677 12.683 12.683 12.683zm3.233-17.184h-6.465c.747-3.621 2.281-5.728 3.232-5.728.952 0 2.486 2.107 3.233 5.728zm5.937 0h-3.436c-.343-1.867-.895-3.519-1.596-4.843a10.253 10.253 0 0 1 5.032 4.843zm-14.903 0h-3.436a10.253 10.253 0 0 1 5.032-4.843c-.7 1.324-1.253 2.976-1.596 4.843zm-.317 6.546h-3.974a10.357 10.357 0 0 1 0-4.091h3.974c-.05.67-.087 1.345-.087 2.046 0 .7.036 1.375.087 2.045zm9.636 0h-7.17a23.643 23.643 0 0 1-.098-2.045c0-.716.041-1.392.097-2.046h7.176c.056.654.097 1.33.097 2.046 0 .716-.046 1.39-.102 2.045zm6.438 0h-3.973c.05-.67.087-1.345.087-2.045 0-.701-.036-1.376-.087-2.046h3.973a10.357 10.357 0 0 1 0 4.091zm-14.161 7.298a10.253 10.253 0 0 1-5.032-4.843h3.436c.343 1.867.895 3.519 1.596 4.843zm4.137.885c-.95 0-2.485-2.107-3.232-5.728h6.47c-.752 3.621-2.286 5.728-3.238 5.728zm4.138-.885c.7-1.324 1.248-2.976 1.596-4.843h3.436a10.253 10.253 0 0 1-5.032 4.843z" fill="#FD8279" fill-rule="nonzero"/><path d="M295.188 290.776l7.62-1.257 16.126-16.232c1.347-1.346 1.36-3.522-.032-4.914l-2.754-2.753a3.45 3.45 0 0 0-4.882 0l-16.232 16.125-1.257 7.62a1.227 1.227 0 0 0 1.41 1.411zm19.693-16.602l-4.502-4.502 2.473-2.457.005-.005a1.2 1.2 0 0 1 1.7 0l2.754 2.755c.505.505.508 1.255.032 1.731l-.005.006-2.457 2.472zM304.5 284.623v-2.115h-2.455v-2.455h-2.115l8.708-8.651 4.513 4.513-8.651 8.708zm-6.54 3.415l-1.445-1.445.62-3.764.942-.935h2.127v2.455h2.455v2.127l-.935.941-3.764.621z" fill="#B447D3" fill-rule="nonzero"/><path d="M191.142 84.914a6.556 6.556 0 0 0 6.554-6.554V21.554A6.556 6.556 0 0 0 191.142 15h-30.588A6.556 6.556 0 0 0 154 21.554V78.36a6.556 6.556 0 0 0 6.554 6.554h30.588zm-.15-4.957h-30.287a.864.864 0 0 1-.857-.865v-58.27c0-.475.386-.865.857-.865h30.286c.471 0 .857.39.857.866v58.269a.864.864 0 0 1-.857.865zm-15.144-3.782a4.365 4.365 0 0 0 4.37-4.37 4.365 4.365 0 0 0-4.37-4.37 4.365 4.365 0 0 0-4.37 4.37 4.365 4.365 0 0 0 4.37 4.37z" fill="#FFF" fill-rule="nonzero"/></g></svg>