<svg xmlns="http://www.w3.org/2000/svg" xmlns:xlink="http://www.w3.org/1999/xlink" viewBox="0 0 595.831 324.656">
  <defs>
    <ellipse id="a" cx="22.439" cy="21.816" rx="22.439" ry="21.816"/>
  </defs>
  <g fill="none" fill-rule="evenodd">
    <g transform="matrix(-1 0 0 1 447.915 16.126)">
      <circle cx="143" cy="143" r="143" fill="#8559ff" fill-opacity=".092"/>
      <g stroke="#1de1b9" stroke-linecap="round" stroke-linejoin="round" stroke-width="3">
        <path stroke-dasharray="3, 6" d="m367.732 144.715-134.23 83.079"/>
        <path stroke-dasharray="3, 7" d="m251 66 116.733 79.953h-76.398"/>
      </g>
      <circle cx="397.915" cy="148.269" r="50" fill="#1de1b9"/>
      <path stroke="#8559ff" stroke-width="3" d="M233.427 55.082 50.011 239.794M50.011 55.082l183.416 184.712M144.177 17.285l-.916 260.306M273.873 147.438H13.565"/>
      <path fill="#fff" fill-rule="nonzero" d="M405.313 152v-17.286h-1.563v-2.357a2.35 2.35 0 0 0-2.344-2.357h-7.812a2.35 2.35 0 0 0-2.344 2.357v2.357h-1.563V152Zm-4.688-17.286h-6.25v-1.571h6.25zM407.656 152a2.35 2.35 0 0 0 2.344-2.357V137.07a2.35 2.35 0 0 0-2.344-2.357h-.781V152Zm-19.531 0v-17.286h-.781a2.35 2.35 0 0 0-2.344 2.357v12.572a2.35 2.35 0 0 0 2.344 2.357zm10.156-4.714h-1.562a.783.783 0 0 1-.781-.786v-2.357h-2.344a.783.783 0 0 1-.781-.786v-1.571c0-.434.35-.786.78-.786h2.344v-2.357c0-.434.35-.786.782-.786h1.562c.432 0 .781.352.781.786V141h2.344c.432 0 .781.352.781.786v1.571c0 .434-.35.786-.78.786h-2.344v2.357c0 .434-.35.786-.782.786z"/>
    </g>
    <g stroke="#79b2fd" stroke-dasharray="3, 5" stroke-linecap="round" stroke-linejoin="round" stroke-width="3">
      <path d="m521.648 163.841-127.23 83.08M398.915 78.126l122.733 86.953H445.25"/>
    </g>
    <g transform="translate(495.83 113.395)">
      <circle cx="50" cy="50" r="50" fill="#79b2fd"/>
      <path fill="#fff" fill-rule="nonzero" d="M50.036 54.85c.465 0 .845-.38.845-.845v-9.301h1.459c5.956 0 10.802-5.501 10.802-12.26v-1.269h-3.995c-4.81 0-8.894 3.589-10.29 8.53-1.96-3.108-5.163-5.147-8.777-5.147h-3.995v1.268c0 6.759 4.846 12.26 10.801 12.26h1.459v5.919c0 .465.38.845.845.845zm2.304-12.683h-1.385c.529-4.766 4.006-8.455 8.197-8.455h1.384c-.528 4.767-4.005 8.455-8.196 8.455zm-4.07 3.383h-1.384c-4.19 0-7.668-3.69-8.196-8.456h1.384c4.191 0 7.668 3.689 8.197 8.456z"/>
      <path fill="#fff" fill-rule="nonzero" d="M65.142 83.914a6.556 6.556 0 0 0 6.554-6.554V20.554A6.556 6.556 0 0 0 65.142 14H34.554A6.556 6.556 0 0 0 28 20.554V77.36a6.556 6.556 0 0 0 6.554 6.554zm-.15-4.957H34.704a.864.864 0 0 1-.857-.865v-58.27c0-.475.386-.865.857-.865h30.286c.471 0 .857.39.857.866v58.269a.864.864 0 0 1-.857.865zm-15.144-3.782a4.365 4.365 0 0 0 4.37-4.37 4.365 4.365 0 0 0-4.37-4.37 4.365 4.365 0 0 0-4.37 4.37 4.365 4.365 0 0 0 4.37 4.37z"/>
    </g>
    <path stroke="#1de1b9" stroke-dasharray="5, 8" stroke-linecap="round" stroke-linejoin="round" stroke-width="3" d="m302.83 34.395 87.682 36.32 36.319 87.68-36.319 87.682-87.681 36.318-87.681-36.318-36.32-87.682 36.32-87.68Z"/>
    <path stroke="#79b2fd" stroke-dasharray="5, 8" stroke-linecap="round" stroke-linejoin="round" stroke-width="3" d="m302.83 23.395 94.753 39.248 39.248 94.752-39.248 94.753-94.752 39.247-94.752-39.247-39.248-94.753 39.248-94.752Z"/>
    <path fill="#fff" stroke="#8559ff" stroke-width="3.569" d="m344.91 100.421 33.421 57.886a8.359 8.359 0 0 1 0 8.359l-33.42 57.886a8.359 8.359 0 0 1-7.24 4.179h-66.84a8.359 8.359 0 0 1-7.239-4.18l-33.42-57.885a8.359 8.359 0 0 1 0-8.359l33.42-57.886a8.359 8.359 0 0 1 7.239-4.18h66.84a8.359 8.359 0 0 1 7.24 4.18z"/>
    <path fill="#bfb0ff" stroke="#fff" stroke-width=".5" d="m323.642 173.618 14.292-40.768-2.56.844-14.034 38.595-16.237 31.966 2.34.8z"/>
    <path fill="#bfb0ff" stroke="#fff" stroke-width=".5" d="M349.55 164.279v2.9l-31.114 6.02-43.071 24.252v-3.296l43.07-23.447z"/>
    <path fill="#bfb0ff" stroke="#fff" stroke-width=".5" d="M349.55 164.279v2.9l-31.114 6.02-57.25-6.951v-2.365l57.25 6.825z"/>
    <path fill="#bfb0ff" stroke="#fff" stroke-width=".5" d="m303.347 209.542-4.886-59.636h2.043l4.886 57.144z"/>
    <path fill="#bfb0ff" stroke="#fff" stroke-width=".5" d="m331.302 196.496-68.251-27.953.18-2.796 69.183 28.257z"/>
    <path fill="#d8d8d8" d="m304.539 116.15 33.587 14.001 13.913 33.802-13.913 33.801-33.587 14.001-33.588-14-13.913-33.802 13.913-33.802Zm0 2.505-31.828 13.267-13.183 32.03 13.183 32.031 31.828 13.267 31.827-13.267 13.183-32.03-13.183-32.03Z" opacity=".321"/>
    <path fill="#8559ff" d="m304.539 116.15 32.933 14.535-1.752.723-31.181-12.753-31.828 13.267-12.673 30.79-3 1.24 13.913-33.8z"/>
    <path fill="#bfb0ff" stroke="#fff" stroke-width=".932" d="m338.225 195.89 13.814-30.476-3.9.93-11.45 26.932z"/>
    <path fill="#bfb0ff" stroke="#fff" stroke-width="1.929" d="M353.074 160.717a5.415 5.415 0 0 1 2.694 4.682v.03a5.415 5.415 0 0 1-2.694 4.682 5.363 5.363 0 0 1-5.39 0 5.415 5.415 0 0 1-2.694-4.682v-.03a5.415 5.415 0 0 1 2.695-4.682 5.363 5.363 0 0 1 5.389 0zM306.61 202.884a5.415 5.415 0 0 1 2.695 4.682v.03a5.415 5.415 0 0 1-2.694 4.681 5.363 5.363 0 0 1-5.39 0 5.415 5.415 0 0 1-2.694-4.682v-.03a5.415 5.415 0 0 1 2.695-4.681 5.363 5.363 0 0 1 5.389 0z"/>
    <path fill="#8559ff" stroke="#fff" stroke-width="1.929" d="M307.026 113.958a5.415 5.415 0 0 1 2.694 4.682v.03a5.415 5.415 0 0 1-2.694 4.682 5.36 5.36 0 0 1-2.57.724l-4.935 13.955c.785.21 1.547.524 2.266.94l.436.252a7.284 7.284 0 0 1 1.743 1.403l27.336-8.31.004-.139a5.415 5.415 0 0 1 2.689-4.442 5.363 5.363 0 0 1 5.389 0 5.415 5.415 0 0 1 2.694 4.682v.03a5.415 5.415 0 0 1-2.694 4.682 5.363 5.363 0 0 1-5.39 0 5.41 5.41 0 0 1-1.733-1.602l-26.536 8.583c.178.89.191 1.82.02 2.75l-.352 1.906a8.21 8.21 0 0 1-.963 2.616l12.01 15.674a5.364 5.364 0 0 1 4.69.341 5.415 5.415 0 0 1 2.695 4.682v.03c0 1.174-.38 2.295-1.055 3.21l11.635 15.185a5.362 5.362 0 0 1 3.32.69 5.415 5.415 0 0 1 2.694 4.682v.03a5.415 5.415 0 0 1-2.695 4.681 5.363 5.363 0 0 1-5.389 0 5.415 5.415 0 0 1-2.694-4.681v-.03c0-1.293.46-2.52 1.266-3.48l-11.294-15.01a5.363 5.363 0 0 1-3.872-.595 5.415 5.415 0 0 1-2.694-4.682v-.03c0-.91.228-1.788.645-2.563l-11.669-15.508a8.212 8.212 0 0 1-1.986 1.02 8.637 8.637 0 0 1-1.134.314l-20.466 36.235a5.414 5.414 0 0 1 1.101 3.274v.03a5.415 5.415 0 0 1-2.694 4.681 5.363 5.363 0 0 1-5.39 0 5.415 5.415 0 0 1-2.694-4.682v-.03a5.415 5.415 0 0 1 2.695-4.681 5.362 5.362 0 0 1 3.465-.67l19.253-34.521a8.625 8.625 0 0 1-2.36-1.329l-.38-.3a8.512 8.512 0 0 1-1.882-2.083l-22.976 13.202.001.096v.03a5.415 5.415 0 0 1-2.695 4.682 5.363 5.363 0 0 1-5.389 0 5.415 5.415 0 0 1-2.694-4.682v-.03a5.415 5.415 0 0 1 2.694-4.682 5.363 5.363 0 0 1 6.635.995l23.144-13.153a8.513 8.513 0 0 1 .06-2.511l.072-.416c.124-.71.336-1.393.626-2.035l-12.417-6.117a5.363 5.363 0 0 1-6.089.484 5.415 5.415 0 0 1-2.694-4.682v-.03a5.415 5.415 0 0 1 2.694-4.682 5.363 5.363 0 0 1 5.389 0 5.415 5.415 0 0 1 2.695 4.682v.03a5.41 5.41 0 0 1-.22 1.524l13.259 5.517a8.46 8.46 0 0 1 1.837-1.053 9.375 9.375 0 0 1 1.679-.522l5.297-15.485a5.415 5.415 0 0 1-1.517-3.758v-.03a5.415 5.415 0 0 1 2.695-4.682 5.363 5.363 0 0 1 5.389 0z"/>
    <ellipse cx="22.439" cy="21.816" fill="#000" fill-rule="nonzero" rx="22.439" ry="21.816" transform="translate(281.42 141.447)"/>
    <g transform="translate(280.849 140.875)">
      <ellipse cx="23.011" cy="22.387" fill="#bfb0ff" stroke="#fff" stroke-width="5.824" rx="25.78" ry="25.157"/>
      <ellipse cx="23.011" cy="22.387" stroke="#d6dfe3" stroke-width="3.181" rx="24.458" ry="23.835"/>
    </g>
    <g transform="translate(281.42 142.08)">
      <mask id="b" fill="#fff">
        <use xlink:href="#a"/>
      </mask>
      <g fill-rule="nonzero" mask="url(#b)">
        <path fill="#b28b67" d="M17.06 8.818c-1.324 2.467-1.167 8.723.546 9.164.683.176 2.138-.255 3.619-1.146l-.93 6.567h5.488l-1.889-8.794c1.054-1.235 1.767-2.75 1.648-4.445-.344-4.887-7.156-3.812-8.481-1.346Z"/>
        <path fill="#191847" d="M14.63 5.4c.113-.4.419-.741.83-.843.1-.024.204-.034.307-.03.037.002.047.012.064-.014.013-.019.013-.065.018-.088a1.66 1.66 0 0 1 .063-.206 1.68 1.68 0 0 1 .405-.602c.327-.319.768-.54 1.227-.58.25-.02.5.02.737.101.123.043.242.095.358.153.035.018.148.103.183.098.04-.006.117-.102.148-.127.39-.298.87-.415 1.354-.411.547.004 1.074.031 1.53.364a3.059 3.059 0 0 1 .41.362c.026.028.05.057.075.086.04.05.034.066.091.032.22-.134.474-.196.73-.165.153.02.3.065.441.125.048.02.159.102.21.103.05 0 .16-.075.212-.094a1.74 1.74 0 0 1 .88-.082c.306.05.606.171.865.34.124.08.233.17.32.29.037.052.071.107.114.155.025.028.075.057.088.093-.008-.022.334-.153.366-.162a.903.903 0 0 1 .515.02c.317.104.589.337.813.576a2.303 2.303 0 0 1 .413.617c.016.035.027.08.05.11.027.042.046.043.097.06.26.091.495.244.675.452.182.21.3.467.35.74.003.015.004.082.014.09.013.012.065.007.084.01a1.782 1.782 0 0 1 .56.163c.442.219.758.628.913 1.09.163.483.16 1.037-.034 1.512a1.477 1.477 0 0 1-.113.221c-.027.044-.036.044-.018.09.02.05.055.099.078.148.076.16.128.331.162.506.054.286.081.586.027.874a1.261 1.261 0 0 1-.135.384 1.1 1.1 0 0 1-.192.25c-.015.015-.034.028-.047.044-.03.04-.037.007-.021.065.022.08.072.16.103.239a3.906 3.906 0 0 1 .212.76c.054.333.044.69-.114.996a.997.997 0 0 1-.468.448c-.033.016-.076.023-.092.056-.016.035.008.104.014.143.048.34.073.697-.028 1.03a1.423 1.423 0 0 1-.565.757c-.517.348-1.213.328-1.756.05a1.844 1.844 0 0 1-.392-.27c-.301.405-.92.392-1.36.277a1.952 1.952 0 0 1-1.24-1.024c-.346.421-1.072.285-1.313-.172a1.091 1.091 0 0 1-.11-.36c-.01-.065-.004-.131-.01-.196-.009-.083-.064-.163-.096-.243a1.342 1.342 0 0 1-.103-.486c0-.088.01-.173.02-.26.007-.079-.015-.152-.028-.23.14.024.312-.014.444-.055.13-.04.252-.145.344-.24.212-.224.342-.516.431-.807.195-.638.115-1.404-.528-1.754-.299-.163-1.196-.163-1.553-.082-.375.085-.8.911-.821.989-.013.048-.007.107-.05.14-.098.07-.258-.052-.33-.113a1.297 1.297 0 0 1-.289-.383 4.736 4.736 0 0 1-.395-.969c-.073-.258-.12-.524-.216-.776-.095-.25-.245-.474-.478-.616-.253-.154-.544-.235-.822-.332-.276-.096-.547-.214-.761-.418a1.05 1.05 0 0 1-.13-.145c-.03-.042-.06-.121-.106-.148-.07-.041-.174.066-.235.105a2.717 2.717 0 0 0-.757.75c-.202.29-.368.57-.503.894-.1.24-.162.548-.338.745-.078.088-.661.14-.85.064-.19-.077-.4-.276-.464-.401a.622.622 0 0 1-.053-.408c.016-.083.05-.16.068-.24.015-.069.03-.133.062-.195a.48.48 0 0 1 .3-.238 1.404 1.404 0 0 1-.324-.438 1.877 1.877 0 0 1-.167-.57.692.692 0 0 1 .093-.445c.088-.138.244-.229.38-.315a2.47 2.47 0 0 1-.53-.575c-.282-.423-.457-.956-.313-1.46Z"/>
        <path fill="#c5cfd6" d="M14.807 51.947a3.659 3.659 0 0 0-3.659 3.659v20.998a3.659 3.659 0 0 0 3.659 3.659h26.298a3.659 3.659 0 0 0 3.659-3.659V55.606a3.659 3.659 0 0 0-3.66-3.66Zm3.659 6.394h18.98c.505 0 .915.41.915.915v13.698c0 .505-.41.915-.915.915h-18.98a.915.915 0 0 1-.915-.915V59.256c0-.506.41-.915.915-.915z"/>
        <path fill="#b28b67" d="M-2.365 50.92c-1.16 3.002-3.188 12.868-5.624 27.769l2.784.811c2.93-6.476 5.05-12.114 5.9-15.09 1.456-5.094 2.564-9.576 2.844-11.25.668-3.992-5.136-4.224-5.904-2.24Zm8.784 8.37c8.477 1.219 20.493 2.477 21.522 2.618 1.441.198 2.53-2.064.84-2.73-2.687-1.062-12.102-4.382-16.642-5.322-1.305-.27-2.57-.52-3.758-.747-3.534-.674-5.365 5.692-1.962 6.182z"/>
        <path fill="#005eb8" d="M19.023 42.356C4.955 45.936-2.233 48.23-2.543 49.238l-.01.034a1.628 1.628 0 0 0-.02.027c-2.788 3.828-4.457 22.52-5.005 23.92l5.342.796c2.044-7.567 8.582-12.838 8.408-21.902.047-.265.059-.518.04-.756l14.54-7.392v-1.609Z"/>
        <path fill="#0072c3" d="M18.25 42.356c-2.038.585-12.63 5.02-18.126 7.38-3.637 1.561-2.49 7.19-.43 8.655.01.09.047.15.114.178 11.08 4.586 19.846 2.18 22.774 2.949l1.354-4.267-4.391-1.504c1.33-.266 2.555-.504 3.603-.687 6.772-1.186 8.747-4.806 7.58-12.704Z"/>
        <path fill="#e4e4e4" d="M27.861 58.491c.725.07 1.24.178 1.544.326.37.18.88.506 1.53.976l-5.654 11.592c-1.141-.184-1.593-.62-1.356-1.307.237-.688.428-1.262.574-1.722l.23-6.558a.229.229 0 0 1 .242-.22l1.008.062c.573-.464.951-.884 1.134-1.26.15-.305.232-.787.248-1.445a.457.457 0 0 1 .5-.444zM-3.871 78.3c.256.681.384 1.192.384 1.53 0 .412-.069 1.013-.206 1.803h-12.898c-.335-1.107-.142-1.704.58-1.792a71.527 71.527 0 0 0 1.8-.24l5.995-2.668a.229.229 0 0 1 .304.122l.385.933c.669.312 1.212.467 1.63.467.34 0 .809-.137 1.407-.41a.457.457 0 0 1 .619.255z"/>
        <path fill="#b28b67" d="m36.232 39.62-4.779.02c2.951 9.51 4.544 14.558 4.78 15.14.528 1.31-.591 3.304-1.07 4.375 1.56.697 1.393-1.884 3.36-.97 1.796.835 3.162 2.346 5.237 1.068.255-.157.535-.749-.14-1.211-1.683-1.153-4.108-3.169-4.436-3.833-.446-.905-1.43-5.768-2.952-14.589ZM7.48 38.73l-6.478 6.31c-1.885.804-3.43 1.69-4.633 2.66-.27.327-.565.951.708.672 1.274-.28 2.627-.517 2.866-.103.24.414-.466 1.047-.024 1.589.295.36 1.287-.787 2.976-3.444l6.737-3.966z"/>
        <path fill="#191847" d="m22.652 19.596-1.978-.338c-3.404 8.492-9.348 16.209-17.831 23.15l6.41 7.776c8.482-9.882 13.71-20.078 13.399-30.588Z"/>
        <path fill="#dde3e9" d="M31.272 44.411H13.664c4.079-9.905 6.119-18.319 6.119-25.242l5.311-.79c4.175 6.704 5.353 14.958 6.178 26.032z"/>
        <path fill="#2f3676" d="M24.858 18.379c-.415.014-1.047.04-1.896.077l-1.283 3.663c-.136 4.465-.929 13.464-2.379 26.998h11.543c-.03.934-.08 1.878-.15 2.83h8.582c-1.283-14.463-5.972-25.653-14.064-33.568l-.004.004-.002-.004Z"/>
        <path fill="#000" fill-opacity=".1" d="M27.613 49.207h3.227c.141-4.192-.112-8.208-.76-12.05-.328 5.827-1.15 9.843-2.467 12.05z"/>
        <path fill="#fff" fill-opacity=".2" d="M22.582 42.128h5.692l-5.692-2.642z"/>
      </g>
    </g>
    <path fill="#fff" stroke="#b447d3" stroke-width="3.569" d="m453.455 137.642 12.3 21.305a8.359 8.359 0 0 1 0 8.359l-12.3 21.305a8.359 8.359 0 0 1-7.24 4.179h-24.6a8.359 8.359 0 0 1-7.239-4.18l-12.3-21.304a8.359 8.359 0 0 1 0-8.359l12.3-21.305a8.359 8.359 0 0 1 7.239-4.18h24.6a8.359 8.359 0 0 1 7.24 4.18z"/>
    <path fill="#fff" stroke="#ff8787" stroke-width="3.569" d="m193.295 137.002 12.3 21.305a8.359 8.359 0 0 1 0 8.359l-12.3 21.305a8.359 8.359 0 0 1-7.24 4.179h-24.6a8.359 8.359 0 0 1-7.239-4.18l-12.3-21.304a8.359 8.359 0 0 1 0-8.359l12.3-21.305a8.359 8.359 0 0 1 7.239-4.18h24.6a8.359 8.359 0 0 1 7.24 4.18z"/>
    <path fill="#fff" stroke="#e11dd5" stroke-width="3.569" d="m225.423 41.804 12.3 21.305a8.359 8.359 0 0 1 0 8.358l-12.3 21.305a8.359 8.359 0 0 1-7.24 4.18h-24.6a8.359 8.359 0 0 1-7.239-4.18l-12.3-21.305a8.359 8.359 0 0 1 0-8.358l12.3-21.305a8.359 8.359 0 0 1 7.239-4.18h24.6a8.359 8.359 0 0 1 7.24 4.18z"/>
    <path fill="#fff" stroke="#79b2fd" stroke-width="3.569" d="m323.343 5.964 12.3 21.305a8.359 8.359 0 0 1 0 8.358l-12.3 21.305a8.359 8.359 0 0 1-7.24 4.18h-24.6a8.359 8.359 0 0 1-7.239-4.18l-12.3-21.305a8.359 8.359 0 0 1 0-8.358l12.3-21.305a8.359 8.359 0 0 1 7.239-4.18h24.6a8.359 8.359 0 0 1 7.24 4.18z"/>
    <path fill="#fff" stroke="#87db33" stroke-width="3.569" d="m225.423 226.764 12.3 21.305a8.359 8.359 0 0 1 0 8.358l-12.3 21.305a8.359 8.359 0 0 1-7.24 4.18h-24.6a8.359 8.359 0 0 1-7.239-4.18l-12.3-21.305a8.359 8.359 0 0 1 0-8.358l12.3-21.305a8.359 8.359 0 0 1 7.239-4.18h24.6a8.359 8.359 0 0 1 7.24 4.18z"/>
    <path fill="#fff" stroke="#ff8787" stroke-width="3.569" d="m323.343 267.724 12.3 21.305a8.359 8.359 0 0 1 0 8.358l-12.3 21.305a8.359 8.359 0 0 1-7.24 4.18h-24.6a8.359 8.359 0 0 1-7.239-4.18l-12.3-21.305a8.359 8.359 0 0 1 0-8.358l12.3-21.305a8.359 8.359 0 0 1 7.239-4.18h24.6a8.359 8.359 0 0 1 7.24 4.18z"/>
    <path fill="#fff" stroke="#3285ff" stroke-width="3.569" d="m418.575 226.602 12.3 21.305a8.359 8.359 0 0 1 0 8.359l-12.3 21.305a8.359 8.359 0 0 1-7.24 4.179h-24.6a8.359 8.359 0 0 1-7.239-4.18l-12.3-21.304a8.359 8.359 0 0 1 0-8.359l12.3-21.305a8.359 8.359 0 0 1 7.239-4.18h24.6a8.359 8.359 0 0 1 7.24 4.18z"/>
    <path fill="#fff" stroke="#ff882d" stroke-width="3.569" d="m422.415 41.642 12.3 21.305a8.359 8.359 0 0 1 0 8.359l-12.3 21.305a8.359 8.359 0 0 1-7.24 4.179h-24.6a8.359 8.359 0 0 1-7.239-4.18l-12.3-21.304a8.359 8.359 0 0 1 0-8.359l12.3-21.305a8.359 8.359 0 0 1 7.239-4.18h24.6a8.359 8.359 0 0 1 7.24 4.18z"/>
    <path fill="#79b2fd" fill-rule="nonzero" d="M293.839 42.794a.82.82 0 0 0 .818-.819v-.593l-3.375-4.22a3.256 3.256 0 0 1-.716-2.045v-9.875c0-.594.399-1.141.982-1.248a1.229 1.229 0 0 1 1.473 1.201v.531l.001.214v.374l.005 2.11v.36l.009 3.193c0 .389.143.757.399 1.054l3.912 4.735a1.127 1.127 0 0 0 1.693.052c.383-.404.373-1.044.04-1.494l-2.53-3.426a1.23 1.23 0 0 1 1.948-1.499l3.667 4.767c.44.572.68 1.273.68 1.994v3.81c0 .45.368.819.818.819h1.637a.82.82 0 0 0 .818-.819v-3.805c0-.72.24-1.421.68-1.994l3.667-4.767c.24-.312.609-.48.977-.48a1.23 1.23 0 0 1 .972 1.98l-2.532 3.425c-.332.45-.337 1.09.041 1.494a1.127 1.127 0 0 0 1.693-.051l3.912-4.736c.256-.297.394-.665.4-1.054l-.001-.206v-3.53l.001-.353v-.678l.001-.32.001-.443v-.394l.001-.332v-.096l.001-.234v-.2c0-.757.686-1.356 1.473-1.202.583.112.982.654.982 1.248v9.875c0 .742-.25 1.463-.716 2.04l-3.375 4.22v.593c0 .45.368.819.818.819h.834c.25 0 .486-.113.639-.312l3.002-3.785a5.755 5.755 0 0 0 1.253-3.58v-9.789c0-1.958-1.473-3.672-3.432-3.8a3.685 3.685 0 0 0-3.933 3.672v.465l-.001.189c-.002.742-.005 2.009-.01 3.233a3.688 3.688 0 0 0-2.035-.613c-1.15 0-2.214.521-2.915 1.432l-3.672 4.771a5.193 5.193 0 0 0-.368.573c-.118-.194-.23-.394-.368-.573l-3.672-4.771a3.668 3.668 0 0 0-2.916-1.432 3.73 3.73 0 0 0-2.035.613l-.001-.335-.008-2.9v-.272l-.001-.145v-.235a3.685 3.685 0 0 0-3.934-3.672c-1.958.128-3.431 1.842-3.431 3.8v9.794c0 1.294.445 2.568 1.253 3.58l3.002 3.785a.825.825 0 0 0 .64.312z"/>
    <path fill="#ff882d" fill-rule="nonzero" d="M406.63 59.913a2.456 2.456 0 1 0 0-4.911 2.456 2.456 0 0 0 0 4.911zm-1.228 21.276c.534 0 1.026-.35 1.18-.89l1.703-5.343a2.87 2.87 0 0 0-1.273-3.24l-2.652-1.6 2.145-5.36c.14.187.259.389.328.618l.714 2.35a2.85 2.85 0 0 0 2.732 2.03l2.475.008h.004a1.227 1.227 0 0 0 .004-2.456l-2.475-.008a.407.407 0 0 1-.39-.29l-.713-2.348a4.511 4.511 0 0 0-3.315-3.08l-4.002-.906a4.474 4.474 0 0 0-3.747.83l-2.474 1.91a1.228 1.228 0 0 0 1.502 1.942l2.475-1.91a2.06 2.06 0 0 1 1.703-.378l.761.172-1.805 4.468a2.853 2.853 0 0 0 1.175 3.524l4.285 2.587a.454.454 0 0 1 .197.35.488.488 0 0 1-.015.113l-1.704 5.343a1.227 1.227 0 0 0 1.182 1.564zm-7.63-4.91c1.147 0 2.181-.68 2.634-1.736l.693-1.616-.49-.295a4.482 4.482 0 0 1-1.446-1.423l-1.015 2.366a.409.409 0 0 1-.376.249h-3.833a1.228 1.228 0 0 0 0 2.455z"/>
    <path fill="#e11dd5" fill-rule="nonzero" d="M210.68 81.189c.904 0 1.637-.733 1.637-1.637v-2.537a4.092 4.092 0 0 0 3.273-4.01v-9.819c0-1.979-1.406-3.63-3.273-4.009V56.64c0-.904-.733-1.637-1.637-1.637h-9.82c-.903 0-1.636.733-1.636 1.637v2.537a4.093 4.093 0 0 0-3.273 4.01v9.819c0 1.979 1.406 3.63 3.273 4.009v2.537c0 .904.733 1.637 1.637 1.637zm-.818-22.094h-8.183v-1.637h8.183zm1.636 15.547h-11.456a1.639 1.639 0 0 1-1.636-1.636v-9.82c0-.902.734-1.636 1.636-1.636h11.456c.902 0 1.637.734 1.637 1.636v9.82c0 .902-.735 1.636-1.637 1.636zm-5.322-2.614 3.48-3.283c1.012-.954.952-2.536-.177-3.416-1.128-.879-2.601-.488-3.355.223l-.354.335-.355-.335c-.734-.693-2.214-1.111-3.354-.223-1.13.88-1.19 2.462-.178 3.416l3.48 3.283a.6.6 0 0 0 .813 0zm3.686 6.706h-8.183v-1.637h8.183z"/>
    <path fill="#ff8787" fill-rule="nonzero" d="M182.766 177.189c.317 0 .614-.251.614-.614v-2.66h1.636a3.276 3.276 0 0 0 3.273-3.273v-8.183a3.276 3.276 0 0 0-3.273-3.273h-4.91v-4.91a3.276 3.276 0 0 0-3.273-3.273h-14.729a3.276 3.276 0 0 0-3.273 3.274v8.182a3.276 3.276 0 0 0 3.273 3.274h1.637v2.659a.612.612 0 0 0 .976.491l3.933-2.225v3.984a3.276 3.276 0 0 0 3.273 3.273h4.91l5.57 3.15a.62.62 0 0 0 .363.124zm-16.57-11.963v-1.948h-4.092a.82.82 0 0 1-.818-.819v-8.182a.82.82 0 0 1 .818-.819h14.73a.82.82 0 0 1 .817.819v8.182a.82.82 0 0 1-.818.819h-7.19l-.563.317zm14.729 8.183-2.885-1.631-.562-.317h-5.555a.82.82 0 0 1-.818-.819v-4.91h5.728a3.276 3.276 0 0 0 3.273-3.273v-.818h4.91a.82.82 0 0 1 .818.818v8.183a.82.82 0 0 1-.818.819h-4.091z"/>
    <path fill="#87db33" fill-rule="nonzero" d="M214.488 266.149c1.355 0 2.455-1.1 2.455-2.455V245.69c0-1.355-1.1-2.454-2.455-2.454h-2.455v-2.66a.616.616 0 0 0-.614-.614h-2.045a.616.616 0 0 0-.614.614v2.66h-6.546v-2.66a.616.616 0 0 0-.614-.614h-2.046a.616.616 0 0 0-.613.614v2.66h-2.455a2.456 2.456 0 0 0-2.455 2.454v18.003c0 1.355 1.1 2.455 2.455 2.455zm-.307-2.455h-17.388a.308.308 0 0 1-.307-.307v-15.24h18.002v15.24a.308.308 0 0 1-.307.307z"/>
    <path fill="#3285ff" fill-rule="nonzero" d="M397.843 265.149c.686 0 1.33-.343 1.714-.91l2.066-3.064a6.817 6.817 0 0 1-1.98-1.463l-1.8 2.675-2.654-3.938-4.649.9.9-4.664-3.927-2.66 3.927-2.66-.9-4.663 4.654.9 2.65-3.928 2.654 3.933 4.654-.9-.43 2.224a7.487 7.487 0 0 1 2.736-1.232l.21-1.09a2.065 2.065 0 0 0-2.42-2.43l-3.625.702-2.066-3.063c-.773-1.141-2.655-1.141-3.427 0l-2.066 3.063-3.621-.7a2.061 2.061 0 0 0-1.856.572 2.067 2.067 0 0 0-.568 1.857l.7 3.63-3.058 2.072a2.068 2.068 0 0 0-.91 1.718c0 .69.343 1.33.91 1.714l3.059 2.071-.701 3.631c-.133.675.082 1.37.568 1.857.485.486 1.17.7 1.856.567l3.621-.7 2.066 3.063a2.064 2.064 0 0 0 1.713.916zm0-7.774c.133 0 .261-.03.394-.041-.235-.685-.394-1.406-.394-2.169 0-.081.02-.163.02-.245h-.02a2.866 2.866 0 0 1-2.864-2.864 2.866 2.866 0 0 1 2.864-2.864c.875 0 1.652.404 2.18 1.028a6.762 6.762 0 0 1 2.101-1.294c-.972-1.32-2.521-2.189-4.28-2.189a5.328 5.328 0 0 0-5.32 5.319 5.328 5.328 0 0 0 5.32 5.319zm14.566 2.864a5.08 5.08 0 0 0 5.073-5.074 5.054 5.054 0 0 0-3.043-4.643 5.885 5.885 0 0 0-5.344-3.376c-2.169 0-4.092 1.197-5.125 2.977a5.08 5.08 0 0 0-4.49 5.042 5.08 5.08 0 0 0 5.073 5.074zm0-2.455h-7.856a2.617 2.617 0 0 1-2.618-2.619 2.617 2.617 0 0 1 2.618-2.618c.394 0 .757.112 1.09.271.138-1.795 1.621-3.217 3.452-3.217a3.47 3.47 0 0 1 3.426 2.956 2.613 2.613 0 0 1 2.506 2.608 2.617 2.617 0 0 1-2.618 2.619z"/>
    <path fill="#fd8279" fill-rule="nonzero" d="M303.994 305.98c7.007 0 12.684-5.677 12.684-12.684s-5.677-12.683-12.684-12.683c-7.006 0-12.683 5.676-12.683 12.683s5.677 12.683 12.683 12.683zm3.233-17.185h-6.465c.747-3.62 2.281-5.728 3.232-5.728.952 0 2.486 2.108 3.233 5.728zm5.937 0h-3.437c-.342-1.866-.895-3.518-1.595-4.843a10.253 10.253 0 0 1 5.032 4.843zm-14.903 0h-3.437a10.253 10.253 0 0 1 5.033-4.843c-.7 1.325-1.253 2.977-1.596 4.843zm-.317 6.547h-3.974a10.356 10.356 0 0 1 0-4.092h3.974c-.051.67-.087 1.345-.087 2.046 0 .7.036 1.376.087 2.046zm9.635 0h-7.17a23.638 23.638 0 0 1-.097-2.046c0-.716.04-1.391.097-2.046h7.176c.056.655.097 1.33.097 2.046 0 .716-.046 1.391-.103 2.046zm6.44 0h-3.974c.05-.67.087-1.345.087-2.046 0-.7-.036-1.376-.087-2.046h3.973a10.356 10.356 0 0 1 0 4.092zm-14.162 7.298a10.253 10.253 0 0 1-5.033-4.843h3.437c.343 1.866.895 3.518 1.596 4.843zm4.137.885c-.95 0-2.485-2.108-3.232-5.728h6.47c-.752 3.62-2.286 5.728-3.238 5.728zm4.138-.885c.7-1.325 1.248-2.977 1.595-4.843h3.437a10.253 10.253 0 0 1-5.032 4.843z"/>
    <path fill="#b447d3" fill-rule="nonzero" d="m422.019 177.172 7.62-1.257 16.126-16.232c1.347-1.347 1.36-3.523-.032-4.914l-2.754-2.754a3.45 3.45 0 0 0-4.883 0l-16.231 16.126-1.257 7.62a1.227 1.227 0 0 0 1.41 1.41zm19.693-16.603-4.502-4.502 2.472-2.456.005-.005a1.2 1.2 0 0 1 1.7 0l2.754 2.754c.506.505.509 1.256.033 1.732l-.005.005zm-10.381 10.45v-2.116h-2.455v-2.454h-2.115l8.708-8.652 4.513 4.514zm-6.54 3.415-1.445-1.446.62-3.763.942-.935h2.127v2.455h2.455v2.127l-.935.94z"/>
    <path fill="#fff" fill-rule="nonzero" d="M65.973 198.31a6.556 6.556 0 0 0 6.554-6.555V134.95a6.556 6.556 0 0 0-6.554-6.555H35.385a6.556 6.556 0 0 0-6.554 6.555v56.805a6.556 6.556 0 0 0 6.554 6.555zm-.151-4.957H35.536a.864.864 0 0 1-.857-.866v-58.269c0-.476.386-.865.857-.865h30.286c.471 0 .857.39.857.865v58.27a.864.864 0 0 1-.857.865zm-15.143-3.782a4.365 4.365 0 0 0 4.37-4.37 4.365 4.365 0 0 0-4.37-4.37 4.365 4.365 0 0 0-4.37 4.37 4.365 4.365 0 0 0 4.37 4.37z"/>
  </g>
</svg>
