<?xml version="1.0" encoding="UTF-8"?>
<svg id="Layer_1" data-name="Layer 1" xmlns="http://www.w3.org/2000/svg" xmlns:xlink="http://www.w3.org/1999/xlink" viewBox="0 0 1110 452">
  <defs>
    <mask id="mask" x="477.43" y="184.6" width="147.85" height="194.88" maskUnits="userSpaceOnUse">
      <g id="mask-3">
        <ellipse id="path-2" cx="571.85" cy="224.24" rx="40.77" ry="39.63" fill="#fff"/>
      </g>
    </mask>
  </defs>
  <circle id="Oval" cx="568.54" cy="220.24" r="195.99" fill="rgba(123, 77, 255, .09)"/>
  <g id="Group-21">
    <line id="Path-16" x1="123.77" y1="222.59" x2="444.5" y2="336.46" fill="none" stroke="#7b4dff" stroke-dasharray="4.11 8.22" stroke-linecap="round" stroke-linejoin="round" stroke-width="4.11"/>
    <path id="Path-15" d="M420.51,114.71l-286.28,109.58h231" fill="none" stroke="#7b4dff" stroke-dasharray="4.11 9.59" stroke-linecap="round" stroke-linejoin="round" stroke-width="4.11"/>
  </g>
  <circle id="Oval-2" data-name="Oval" cx="91.52" cy="227.61" r="83.21" fill="#7b4dff"/>
  <line id="Path-18" x1="444.6" y1="99.74" x2="695.99" y2="352.91" fill="none" stroke="#726b7f" stroke-width="4.11"/>
  <line id="Path-18-2" data-name="Path-18" x1="695.99" y1="99.74" x2="444.6" y2="352.91" fill="none" stroke="#726b7f" stroke-width="4.11"/>
  <line id="Path-18-3" data-name="Path-18" x1="566.92" y1="47.94" x2="568.18" y2="404.71" fill="none" stroke="#726b7f" stroke-miterlimit="4" stroke-width="4.11"/>
  <line id="Path-18-4" data-name="Path-18" x1="389.16" y1="226.32" x2="745.94" y2="226.32" fill="none" stroke="#726b7f" stroke-miterlimit="4" stroke-width="4.11"/>
  <path id="m" d="M79.21,233.82v-28.77h2.6v-3.92c0-2.16,1.77-3.92,3.92-3.92h12.98c2.15,0,3.9,1.75,3.9,3.9v3.95h2.6v28.77h-26ZM87.01,205.05h10.4v-2.62h-10.4v2.62ZM75.31,233.82c-2.15,0-3.9-1.75-3.9-3.9v-20.97c0-2.15,1.75-3.9,3.9-3.9h1.3v28.77h-1.3ZM107.81,233.82v-28.77h1.3c2.15,0,3.9,1.75,3.9,3.9v20.97c0,2.15-1.75,3.9-3.9,3.9h-1.3ZM90.92,225.97h2.59c.72,0,1.3-.58,1.3-1.3v-3.93h3.9c.72,0,1.3-.58,1.3-1.3v-2.62c0-.72-.59-1.31-1.31-1.31h-3.89v-3.92c0-.72-.59-1.31-1.31-1.31h-2.59c-.72,0-1.3.58-1.3,1.3v3.93h-3.9c-.72,0-1.3.58-1.3,1.3v2.62c0,.72.59,1.31,1.31,1.31h3.89v3.92c0,.72.59,1.31,1.31,1.31Z" fill="#fff"/>
  <g id="Group-22">
    <line id="Path-16-2" data-name="Path-16" x1="1008.72" y1="226.7" x2="691.21" y2="340.57" fill="none" stroke="#ff527f" stroke-dasharray="4.11 6.85" stroke-linecap="round" stroke-linejoin="round" stroke-width="4.11"/>
    <path id="Path-15-2" data-name="Path-15" d="M697.37,109.22l311.35,119.18h-247.84" fill="none" stroke="#ff527f" stroke-dasharray="4.11 6.85" stroke-linecap="round" stroke-linejoin="round" stroke-width="4.11"/>
  </g>
  <circle id="Oval-3" data-name="Oval" cx="1018.36" cy="225.95" r="83.21" fill="#ff527f"/>
  <path id="s" d="M1018.88,234.02c.77,0,1.41-.63,1.41-1.41v-15.48h2.43c9.91,0,17.98-9.16,17.98-20.4v-2.11h-6.65c-8,0-14.8,5.97-17.12,14.19-3.26-5.17-8.59-8.57-14.61-8.57h-6.65v2.11c0,11.25,8.06,20.4,17.98,20.4h2.43v9.85c0,.77.63,1.41,1.41,1.41h1.41ZM1022.71,212.91h-2.3c.88-7.93,6.67-14.07,13.64-14.07h2.3c-.88,7.93-6.67,14.07-13.64,14.07ZM1015.94,218.54h-2.3c-6.97,0-12.76-6.14-13.64-14.07h2.3c6.97,0,12.76,6.14,13.64,14.07Z" fill="#fff"/>
  <path id="m-2" data-name="m" d="M1044.02,282.39c6.02,0,10.91-4.89,10.91-10.91v-94.54c0-6.02-4.89-10.91-10.91-10.91h-50.9c-6.02,0-10.91,4.89-10.91,10.91v94.54c0,6.02,4.89,10.91,10.91,10.91h50.9ZM1043.77,274.14h-50.4c-.78,0-1.43-.65-1.43-1.44v-96.97c0-.79.64-1.44,1.43-1.44h50.4c.78,0,1.43.65,1.43,1.44v96.97c0,.79-.64,1.44-1.43,1.44ZM1018.56,267.84c4.02,0,7.27-3.25,7.27-7.27s-3.25-7.27-7.27-7.27-7.27,3.25-7.27,7.27,3.25,7.27,7.27,7.27Z" fill="#fff"/>
  <path id="Polygon" d="M565.68,49.29l120.18,49.78,49.78,120.18-49.78,120.18-120.18,49.78-120.18-49.78-49.78-120.18,49.78-120.18,120.18-49.78Z" fill="none" stroke="#7b4dff" stroke-dasharray="6.85 10.96" stroke-linecap="round" stroke-linejoin="round" stroke-width="4.11"/>
  <path id="Polygon-2" data-name="Polygon" d="M565.68,34.21l129.87,53.79,53.79,129.87-53.79,129.87-129.87,53.79-129.87-53.79-53.79-129.87,53.79-129.87,129.87-53.79Z" fill="none" stroke="#ff527f" stroke-dasharray="6.85 10.96" stroke-linecap="round" stroke-linejoin="round" stroke-width="4.11"/>
  <path id="Polygon-3" data-name="Polygon" d="M626.49,135l48.38,83.8c2.16,3.74,2.16,8.36,0,12.1l-48.38,83.8c-2.16,3.74-6.16,6.05-10.48,6.05h-96.76c-4.32,0-8.32-2.31-10.48-6.05l-48.38-83.8c-2.16-3.74-2.16-8.36,0-12.1l48.38-83.8c2.16-3.74,6.16-6.05,10.48-6.05h96.76c4.32,0,8.32,2.31,10.48,6.05Z" fill="#fff" fill-rule="evenodd" stroke="#726b7f" stroke-miterlimit="4" stroke-width="5.17"/>
  <g id="Group">
    <polygon id="Path-25" points="568.61 298.52 572.86 299.97 602.29 242.86 628.25 168.79 623.6 170.33 598.11 240.44 568.61 298.52" fill="#9a95a3" fill-rule="evenodd" stroke="#fff" stroke-width=".91"/>
    <polygon id="Path-24" points="514.58 280.17 592.83 237.57 649.36 225.89 649.36 231.16 592.83 242.1 514.58 286.16 514.58 280.17" fill="#c3bfc8" fill-rule="evenodd" stroke="#fff" stroke-width=".91"/>
    <polygon id="Path-24-2" data-name="Path-24" points="488.83 225.17 592.83 237.57 649.36 225.89 649.36 231.16 592.83 242.1 488.83 229.47 488.83 225.17" fill="#9a95a3" fill-rule="evenodd" stroke="#fff" stroke-width=".91"/>
    <polygon id="Path-24-3" data-name="Path-24" points="560.25 199.78 569.13 303.6 565.42 308.12 556.54 199.78 560.25 199.78" fill="#c3bfc8" fill-rule="evenodd" stroke="#fff" stroke-width=".91"/>
    <polygon id="Path-24-4" data-name="Path-24" points="492.54 228.56 618.22 279.89 616.2 284.42 492.21 233.64 492.54 228.56" fill="#c3bfc8" fill-rule="evenodd" stroke="#fff" stroke-width=".91"/>
    <path id="Combined-Shape" d="M567.58,138.46l61.02,25.44,25.28,61.41-25.28,61.41-61.02,25.44-61.02-25.44-25.28-61.41,25.28-61.41,61.02-25.44ZM567.58,143.01l-57.82,24.1-23.95,58.19,23.95,58.19,57.82,24.1,57.82-24.1,23.95-58.19-23.95-58.19-57.82-24.1Z" fill="#d7d5da" fill-rule="evenodd" isolation="isolate"/>
    <path id="Combined-Shape-2" data-name="Combined-Shape" d="M567.58,138.46l59.83,26.41-3.18,1.31-56.65-23.17-57.82,24.1-23.02,55.93-5.45,2.26,25.28-61.41,61.02-25.44Z" fill="#362b48" fill-rule="evenodd"/>
    <polygon id="Path-2" points="646.79 229.64 625.99 278.57 628.78 283.32 653.88 227.95 646.79 229.64" fill="#9a95a3" fill-rule="evenodd" stroke="#fff" stroke-width="1.69"/>
    <path id="Polygon-Copy-8" d="M655.76,219.42c3.03,1.76,4.9,5,4.9,8.51v.05c0,3.5-1.86,6.74-4.9,8.51-3.03,1.76-6.76,1.76-9.79,0-3.03-1.76-4.9-5-4.9-8.51v-.05c0-3.5,1.86-6.74,4.9-8.51,3.03-1.76,6.76-1.76,9.79,0Z" fill="#c3bfc8" fill-rule="evenodd" stroke="#fff" stroke-width="3.5"/>
    <path id="Polygon-Copy" d="M571.35,296.03c3.03,1.76,4.9,5,4.9,8.51v.05c0,3.5-1.86,6.74-4.9,8.51-3.03,1.76-6.76,1.76-9.79,0-3.03-1.76-4.9-5-4.9-8.51v-.05c0-3.5,1.86-6.74,4.9-8.51,3.03-1.76,6.76-1.76,9.79,0Z" fill="#c3bfc8" fill-rule="evenodd" stroke="#fff" stroke-width="3.5"/>
    <path id="Combined-Shape-3" data-name="Combined-Shape" d="M572.1,134.47c3.03,1.76,4.9,5,4.9,8.51v.05c0,3.5-1.86,6.74-4.9,8.51-1.45.84-3.05,1.28-4.67,1.32l-8.97,25.35c1.43.38,2.81.95,4.12,1.71l.79.46c1.2.7,2.26,1.56,3.17,2.55l49.66-15.1v-.25c.15-3.34,1.99-6.38,4.89-8.07,3.03-1.76,6.76-1.76,9.79,0,3.03,1.76,4.9,5,4.9,8.51v.05c0,3.5-1.86,6.74-4.9,8.51-3.03,1.76-6.76,1.76-9.79,0-1.27-.74-2.34-1.74-3.15-2.91l-48.21,15.59c.32,1.62.35,3.31.04,4.99l-.64,3.46c-.31,1.7-.91,3.3-1.75,4.75l21.82,28.48c2.76-1.11,5.91-.9,8.52.62,3.03,1.76,4.9,5,4.9,8.51v.05c0,2.13-.69,4.17-1.92,5.83l21.14,27.59c2.06-.24,4.18.18,6.03,1.25,3.03,1.76,4.9,5,4.9,8.51v.05c0,3.5-1.86,6.74-4.9,8.51-3.03,1.76-6.76,1.76-9.79,0-3.03-1.76-4.9-5-4.9-8.51v-.05c0-2.35.84-4.58,2.3-6.32l-20.52-27.27c-2.36.53-4.88.17-7.03-1.08-3.03-1.76-4.9-5-4.9-8.51v-.05c0-1.65.41-3.25,1.17-4.66l-21.2-28.17c-1.1.77-2.31,1.4-3.61,1.85-.68.24-1.37.43-2.06.57l-37.18,65.83c1.28,1.68,2,3.76,2,5.95v.05c0,3.5-1.86,6.74-4.9,8.51-3.03,1.76-6.76,1.76-9.79,0-3.03-1.76-4.9-5-4.9-8.51v-.05c0-3.5,1.86-6.74,4.9-8.51,1.93-1.12,4.15-1.53,6.29-1.22l34.98-62.71c-1.53-.57-2.98-1.37-4.29-2.41l-.69-.55c-1.36-1.08-2.51-2.36-3.42-3.78l-41.74,23.98c0,.06,0,.12,0,.18v.05c0,3.5-1.86,6.74-4.9,8.51-3.03,1.76-6.76,1.76-9.79,0-3.03-1.76-4.9-5-4.9-8.51v-.05c0-3.5,1.86-6.74,4.9-8.51,3.03-1.76,6.76-1.76,9.79,0,.85.49,1.61,1.11,2.26,1.81l42.05-23.9c-.19-1.5-.16-3.03.11-4.56l.13-.75c.22-1.29.61-2.53,1.14-3.7l-22.56-11.11c-.4.32-.82.62-1.27.88-3.03,1.76-6.76,1.76-9.79,0-3.03-1.76-4.9-5-4.9-8.51v-.05c0-3.5,1.86-6.74,4.9-8.51,3.03-1.76,6.76-1.76,9.79,0,3.03,1.76,4.9,5,4.9,8.51v.05c0,.95-.14,1.88-.4,2.77l24.09,10.02c1.02-.77,2.13-1.41,3.34-1.91.99-.41,2.02-.73,3.05-.95l9.62-28.13c-1.74-1.81-2.76-4.25-2.76-6.83v-.05c0-3.5,1.86-6.74,4.9-8.51,3.03-1.76,6.76-1.76,9.79,0Z" fill="#362b48" fill-rule="evenodd" stroke="#fff" stroke-width="3.5"/>
  </g>
  <g id="A-Human_Standing" data-name="A-Human/Standing">
    <g id="Mask">
      <g id="path-10-link">
        <ellipse id="path-10" cx="571.85" cy="223.09" rx="40.77" ry="39.63"/>
      </g>
      <g id="Oval-4" data-name="Oval">
        <ellipse cx="571.85" cy="223.09" rx="46.83" ry="45.7" fill="#fff" stroke="#fff" stroke-width="10.58"/>
        <ellipse cx="571.85" cy="223.09" rx="44.43" ry="43.3" fill="none" stroke="#726b7f" stroke-width="5.78"/>
      </g>
    </g>
    <g id="A-Human_Sitting-Clipped" data-name="A-Human/Sitting-Clipped">
      <g mask="url(#mask)">
        <g id="A-Human_Sitting" data-name="A-Human/Sitting">
          <g id="Group-2" data-name="Group">
            <g>
              <g id="Head_Front_Curly" data-name="Head/Front/Curly">
                <g id="Head">
                  <path id="Path" d="M558.7,204.47c-3.19,5.93-2.81,20.97,1.31,22.03,1.64.42,5.14-.61,8.7-2.75l-2.23,15.78h13.19l-4.54-21.14c2.53-2.97,4.25-6.61,3.96-10.68-.83-11.75-17.2-9.16-20.38-3.23Z" fill="#b28b67"/>
                </g>
                <path id="hair" d="M552.86,196.25c.27-.96,1.01-1.78,2-2.02.24-.06.49-.08.74-.07.09,0,.11.03.15-.03.03-.05.03-.16.04-.21.04-.17.09-.33.15-.49.21-.55.56-1.04.98-1.45.79-.77,1.85-1.3,2.95-1.39.6-.05,1.2.05,1.77.24.3.1.58.23.86.37.08.04.36.25.44.23.09-.01.28-.25.36-.3.94-.72,2.09-1,3.25-.99,1.31.01,2.58.08,3.68.88.23.17.45.35.66.55.11.1.22.21.32.32.06.07.12.14.18.21.1.12.08.16.22.08.53-.32,1.14-.47,1.76-.39.37.04.72.15,1.06.3.12.05.38.25.5.25.12,0,.38-.18.51-.23.68-.25,1.41-.31,2.12-.2.73.12,1.45.41,2.08.82.3.19.56.41.77.7.09.12.17.26.27.37.06.07.18.14.21.22-.02-.05.8-.37.88-.39.41-.11.83-.09,1.24.05.76.25,1.41.81,1.95,1.39.28.3.52.62.72.97.1.17.19.34.27.51.04.08.07.19.12.27.07.1.11.1.24.14.62.22,1.19.59,1.62,1.08.44.5.72,1.12.84,1.78,0,.04.01.2.03.22.03.03.16.02.2.02.16.02.33.05.49.09.3.07.58.17.86.31,1.06.53,1.82,1.51,2.2,2.62.39,1.16.38,2.49-.08,3.64-.08.18-.17.36-.27.53-.06.1-.09.1-.04.21.05.12.13.24.19.36.18.39.31.8.39,1.22.13.69.2,1.41.07,2.1-.06.32-.17.64-.33.92-.08.15-.18.28-.28.41-.06.07-.12.13-.18.19-.04.03-.08.07-.11.1-.07.09-.09.02-.05.16.05.19.17.39.25.58.08.19.14.39.21.59.13.4.24.82.3,1.23.13.8.11,1.66-.27,2.4-.16.32-.4.59-.68.81-.14.11-.29.2-.45.27-.08.04-.18.05-.22.13-.04.08.02.25.03.34.12.82.18,1.67-.07,2.47-.22.74-.72,1.39-1.36,1.82-1.24.84-2.92.79-4.22.12-.34-.17-.66-.39-.94-.65-.72.97-2.21.94-3.27.66-1.32-.34-2.37-1.26-2.98-2.46-.83,1.01-2.58.68-3.16-.41-.14-.27-.23-.56-.27-.86-.02-.16,0-.32-.02-.47-.02-.2-.15-.39-.23-.59-.15-.37-.24-.76-.25-1.17,0-.21.02-.42.04-.63.02-.19-.03-.36-.06-.55.34.06.75-.04,1.07-.13.31-.1.6-.35.82-.58.51-.54.82-1.24,1.04-1.94.47-1.53.28-3.37-1.27-4.22-.72-.39-2.88-.39-3.73-.2-.9.2-1.92,2.19-1.97,2.38-.03.12-.02.26-.12.34-.23.17-.62-.12-.79-.27-.3-.25-.51-.58-.69-.92-.4-.74-.72-1.52-.95-2.33-.18-.62-.29-1.26-.52-1.87-.23-.6-.59-1.14-1.15-1.48-.61-.37-1.31-.57-1.98-.8-.66-.23-1.31-.51-1.83-1-.11-.11-.22-.22-.31-.35-.07-.1-.14-.29-.25-.36-.17-.1-.42.16-.57.25-.73.46-1.33,1.1-1.82,1.8-.49.7-.88,1.37-1.21,2.15-.24.58-.39,1.32-.81,1.79-.19.21-1.59.34-2.04.15-.45-.18-.96-.66-1.12-.96-.16-.31-.19-.64-.13-.98.04-.2.12-.38.16-.58.04-.16.07-.32.15-.47.15-.28.41-.49.72-.57-.32-.3-.59-.65-.78-1.05-.19-.41-.36-.92-.4-1.37-.04-.37.02-.75.22-1.07.21-.33.59-.55.91-.76-.5-.39-.92-.86-1.27-1.38-.68-1.02-1.1-2.3-.75-3.51Z" fill="#362b48"/>
              </g>
              <g id="Bottom_Sitting_Sweat-Pants" data-name="Bottom/Sitting/Sweat-Pants">
                <g id="Objects_Seat_Cube-2" data-name="Objects/Seat/Cube-2">
                  <path id="Seat" d="M553.28,308.13c-4.86,0-8.79,3.94-8.79,8.79v50.47c0,4.86,3.94,8.79,8.79,8.79h63.21c4.86,0,8.79-3.94,8.79-8.79v-50.47c0-4.86-3.94-8.79-8.79-8.79h-63.21ZM562.08,323.5h45.62c1.21,0,2.2.98,2.2,2.2h0v32.93c0,1.21-.98,2.2-2.2,2.2h-45.62c-1.21,0-2.2-.98-2.2-2.2h0v-32.93c0-1.21.98-2.2,2.2-2.2h0Z" fill="#c5cfd6"/>
                </g>
                <path id="Skin" d="M512.01,305.66c-2.79,7.22-7.66,30.93-13.52,66.74l6.69,1.95c7.04-15.56,12.14-29.12,14.18-36.27,3.5-12.24,6.16-23.02,6.84-27.04,1.6-9.59-12.35-10.15-14.19-5.38ZM533.12,325.78c20.37,2.93,49.26,5.95,51.73,6.29,3.46.48,6.08-4.96,2.02-6.56-6.46-2.55-29.09-10.53-40-12.79-3.14-.65-6.18-1.25-9.03-1.8-8.49-1.62-12.89,13.68-4.71,14.86Z" fill="#b28b67"/>
                <path id="Leg-Back" d="M563.42,285.08c-33.81,8.6-51.09,14.12-51.83,16.54l-.02.08s-.03.04-.05.06c-6.7,9.2-10.71,54.13-12.03,57.5l12.84,1.91c4.91-18.19,20.63-30.86,20.21-52.64.11-.64.14-1.24.09-1.82l34.95-17.77v-3.87h-4.16Z" fill="#005eb8"/>
                <path id="Leg-Front" d="M561.56,285.08c-4.9,1.41-30.36,12.07-43.57,17.74-8.74,3.75-5.99,17.28-1.04,20.8.03.22.12.36.28.43,26.63,11.02,47.7,5.24,54.74,7.09l3.26-10.25-10.56-3.62c3.2-.64,6.14-1.21,8.66-1.65,16.28-2.85,21.02-11.55,18.22-30.53h-29.99Z" fill="#0072c3"/>
                <g id="Accessories_Shoe_Flat-Sneaker" data-name="Accessories/Shoe/Flat-Sneaker">
                  <path id="shoe" d="M584.66,323.86c1.74.17,2.98.43,3.71.78.89.43,2.12,1.22,3.68,2.34-.5,1.03-5.03,10.32-13.59,27.86-2.74-.44-3.83-1.49-3.26-3.14.57-1.65,1.03-3.03,1.38-4.14l.55-15.76c.01-.3.27-.54.57-.53,0,0,.01,0,.01,0l2.42.15h0c1.38-1.12,2.29-2.13,2.73-3.03.36-.73.56-1.89.59-3.47h0c.01-.61.52-1.09,1.13-1.07.03,0,.05,0,.08,0Z" fill="#e4e4e4"/>
                </g>
                <g id="Accessories_Shoe_Flat-Sneaker-2" data-name="Accessories/Shoe/Flat-Sneaker">
                  <path id="shoe-2" data-name="shoe" d="M508.39,371.47c.61,1.64.92,2.87.92,3.68,0,.99-.17,2.43-.5,4.33h-31c-.81-2.66-.34-4.1,1.4-4.31s3.18-.4,4.33-.57l14.41-6.41c.28-.12.6,0,.73.28,0,0,0,0,0,.01l.93,2.24h0c1.61.75,2.91,1.12,3.92,1.12.82,0,1.94-.33,3.38-.99h0c.55-.25,1.2-.01,1.46.54.01.02.02.05.03.07Z" fill="#e4e4e4"/>
                </g>
              </g>
              <g id="Body_Jacket" data-name="Body/Jacket">
                <path id="Skin-2" data-name="Skin" d="M604.78,278.5l-11.49.05c7.09,22.86,10.92,34.99,11.49,36.39,1.27,3.15-1.42,7.94-2.57,10.52,3.75,1.68,3.35-4.53,8.08-2.33,4.32,2.01,7.6,5.64,12.59,2.57.61-.38,1.28-1.8-.34-2.91-4.04-2.77-9.87-7.62-10.66-9.21-1.07-2.18-3.44-13.86-7.1-35.07h0ZM535.67,276.36l-15.57,15.17c-4.53,1.93-8.24,4.06-11.14,6.39-.65.78-1.36,2.29,1.7,1.61s6.31-1.24,6.89-.25c.58.99-1.12,2.52-.06,3.82.71.87,3.09-1.89,7.15-8.28l16.19-9.53-5.17-8.94Z" fill="#b28b67"/>
                <path id="Coat-Back" d="M572.14,230.37l-4.75-.81c-8.18,20.41-22.47,38.96-42.86,55.64l15.41,18.69c20.39-23.75,32.95-48.26,32.2-73.52Z" fill="#362b48"/>
                <path id="Shirt" d="M592.86,290.01h-42.32c9.81-23.81,14.71-44.03,14.71-60.67l12.77-1.9c10.03,16.11,12.87,35.95,14.85,62.57Z" fill="#362b48"/>
                <path id="Coat-Front" d="M577.44,227.44c-1,.03-2.52.1-4.56.19h0l-3.08,8.8c-.33,10.73-2.23,32.36-5.72,64.89h27.74c-.07,2.25-.19,4.51-.36,6.8h20.63c-3.09-34.76-14.35-61.66-33.81-80.68h-.01s0,0,0,0h-.83Z" fill="#362b48"/>
                <path id="Shade" d="M584.06,301.54h7.76c.34-10.07-.27-19.73-1.83-28.96-.79,14-2.77,23.66-5.93,28.96Z"/>
                <polygon id="Light" points="585.65 284.53 571.97 278.18 571.97 284.53 585.65 284.53" fill="rgba(255, 255, 255, .2)"/>
              </g>
            </g>
          </g>
        </g>
      </g>
    </g>
  </g>
  <path id="Polygon-Copy-6" d="M772.12,190.79l16.86,29.2c2.05,3.54,2.05,7.91,0,11.46l-16.86,29.2c-2.05,3.54-5.83,5.73-9.92,5.73h-33.72c-4.09,0-7.87-2.18-9.92-5.73l-16.86-29.2c-2.05-3.54-2.05-7.91,0-11.46l16.86-29.2c2.05-3.54,5.83-5.73,9.92-5.73h33.72c4.09,0,7.87,2.18,9.92,5.73Z" fill="#fff" fill-rule="evenodd" stroke="#ffab50" stroke-miterlimit="4" stroke-width="4.89"/>
  <path id="Polygon-4" data-name="Polygon" d="M415.55,189.92l16.86,29.2c2.05,3.54,2.05,7.91,0,11.46l-16.86,29.2c-2.05,3.54-5.83,5.73-9.92,5.73h-33.72c-4.09,0-7.87-2.18-9.92-5.73l-16.86-29.2c-2.05-3.54-2.05-7.91,0-11.46l16.86-29.2c2.05-3.54,5.83-5.73,9.92-5.73h33.72c4.09,0,7.87,2.18,9.92,5.73Z" fill="#fff" fill-rule="evenodd" stroke="#ffab50" stroke-miterlimit="4" stroke-width="4.89"/>
  <path id="Polygon-Copy-10" d="M459.59,59.44l16.86,29.2c2.05,3.54,2.05,7.91,0,11.46l-16.86,29.2c-2.05,3.54-5.83,5.73-9.92,5.73h-33.72c-4.09,0-7.87-2.18-9.92-5.73l-16.86-29.2c-2.05-3.54-2.05-7.91,0-11.46l16.86-29.2c2.05-3.54,5.83-5.73,9.92-5.73h33.72c4.09,0,7.87,2.18,9.92,5.73Z" fill="#fff" fill-rule="evenodd" stroke="#ffab50" stroke-miterlimit="4" stroke-width="4.89"/>
  <path id="Polygon-Copy-15" d="M593.79,10.32l16.86,29.2c2.05,3.54,2.05,7.91,0,11.46l-16.86,29.2c-2.05,3.54-5.83,5.73-9.92,5.73h-33.72c-4.09,0-7.87-2.18-9.92-5.73l-16.86-29.2c-2.05-3.54-2.05-7.91,0-11.46l16.86-29.2c2.05-3.54,5.83-5.73,9.92-5.73h33.72c4.09,0,7.87,2.18,9.92,5.73Z" fill="#fff" fill-rule="evenodd" stroke="#ffab50" stroke-miterlimit="4" stroke-width="4.89"/>
  <path id="Polygon-Copy-12" d="M459.59,312.94l16.86,29.2c2.05,3.54,2.05,7.91,0,11.46l-16.86,29.2c-2.05,3.54-5.83,5.73-9.92,5.73h-33.72c-4.09,0-7.87-2.18-9.92-5.73l-16.86-29.2c-2.05-3.54-2.05-7.91,0-11.46l16.86-29.2c2.05-3.54,5.83-5.73,9.92-5.73h33.72c4.09,0,7.87,2.18,9.92,5.73Z" fill="#fff" fill-rule="evenodd" stroke="#ffab50" stroke-miterlimit="4" stroke-width="4.89"/>
  <path id="Polygon-Copy-14" d="M593.79,369.08l16.86,29.2c2.05,3.54,2.05,7.91,0,11.46l-16.86,29.2c-2.05,3.54-5.83,5.73-9.92,5.73h-33.72c-4.09,0-7.87-2.18-9.92-5.73l-16.86-29.2c-2.05-3.54-2.05-7.91,0-11.46l16.86-29.2c2.05-3.54,5.83-5.73,9.92-5.73h33.72c4.09,0,7.87,2.18,9.92,5.73Z" fill="#fff" fill-rule="evenodd" stroke="#ffab50" stroke-miterlimit="4" stroke-width="4.89"/>
  <path id="Polygon-Copy-13" d="M724.32,312.72l16.86,29.2c2.05,3.54,2.05,7.91,0,11.46l-16.86,29.2c-2.05,3.54-5.83,5.73-9.92,5.73h-33.72c-4.09,0-7.87-2.18-9.92-5.73l-16.86-29.2c-2.05-3.54-2.05-7.91,0-11.46l16.86-29.2c2.05-3.54,5.83-5.73,9.92-5.73h33.72c4.09,0,7.87,2.18,9.92,5.73Z" fill="#fff" fill-rule="evenodd" stroke="#ffab50" stroke-miterlimit="4" stroke-width="4.89"/>
  <path id="Polygon-Copy-11" d="M729.58,59.22l16.86,29.2c2.05,3.54,2.05,7.91,0,11.46l-16.86,29.2c-2.05,3.54-5.83,5.73-9.92,5.73h-33.72c-4.09,0-7.87-2.18-9.92-5.73l-16.86-29.2c-2.05-3.54-2.05-7.91,0-11.46l16.86-29.2c2.05-3.54,5.83-5.73,9.92-5.73h33.72c4.09,0,7.87,2.18,9.92,5.73Z" fill="#fff" fill-rule="evenodd" stroke="#ffab50" stroke-miterlimit="4" stroke-width="4.89"/>
  <path id="h" d="M553.36,60.8c.62,0,1.12-.5,1.12-1.12v-.81l-4.63-5.78c-.64-.79-.98-1.78-.98-2.8v-13.54c0-.81.55-1.56,1.35-1.71,1.07-.21,2.02.61,2.02,1.65v.19s0,.05,0,.08v.32s0,.09,0,.13v.29c0,.05,0,.11,0,.16v.35c0,.8,0,1.83,0,2.89v.49c0,1.73,0,3.46.01,4.38,0,.53.2,1.04.55,1.44l5.36,6.49c.31.37.75.56,1.19.56.41,0,.82-.16,1.13-.49.53-.55.51-1.43.06-2.05l-3.47-4.7c-.57-.74-.43-1.79.31-2.36.31-.24.67-.35,1.02-.35.5,0,1,.22,1.34.66l5.03,6.53c.6.79.93,1.75.93,2.73v5.22c0,.62.5,1.12,1.12,1.12h2.24c.62,0,1.12-.5,1.12-1.12v-5.22c0-.99.33-1.95.93-2.73l5.03-6.53c.33-.43.83-.66,1.34-.66.36,0,.71.11,1.02.35.74.57.88,1.62.31,2.36l-3.47,4.7c-.46.62-.46,1.49.06,2.05.31.33.71.49,1.13.49.44,0,.88-.19,1.19-.56l5.36-6.49c.35-.41.54-.91.55-1.44,0-.09,0-.18,0-.28v-.32c0-.06,0-.12,0-.18v-2.37c0-.08,0-.16,0-.24v-.74c0-.08,0-.16,0-.25v-.49c0-.08,0-.16,0-.24v-.48c0-.08,0-.16,0-.24v-.47c0-.08,0-.15,0-.23v-.44c0-.21,0-.42,0-.61v-.37c0-.06,0-.12,0-.17v-.46s0-.09,0-.13v-.32s0-.06,0-.08v-.19h0c0-1.04.94-1.86,2.02-1.65.8.15,1.35.9,1.35,1.71v13.54c0,1.02-.34,2-.98,2.8l-4.63,5.78v.81c0,.62.5,1.12,1.12,1.12h1.14c.34,0,.67-.15.88-.43l4.11-5.19c1.11-1.39,1.72-3.13,1.72-4.91v-13.42c0-2.68-2.02-5.03-4.7-5.21-2.94-.2-5.39,2.14-5.39,5.03v.24s0,.05,0,.08v.2s0,.07,0,.11v.26c0,1.02,0,2.75-.01,4.43-.82-.55-1.8-.84-2.79-.84-1.58,0-3.04.71-4,1.96l-5.03,6.54c-.19.25-.35.52-.5.79-.16-.27-.32-.54-.5-.79l-5.03-6.54c-.97-1.25-2.43-1.96-4-1.96-.99,0-1.97.3-2.79.84v-.46c0-1.53,0-3.05-.01-3.97v-.26s0-.08,0-.11v-.2s0-.06,0-.08v-.24h0c0-2.89-2.45-5.23-5.39-5.03-2.68.18-4.7,2.52-4.7,5.21v13.42c0,1.77.61,3.52,1.72,4.91l4.11,5.19c.21.27.54.43.88.43h1.14Z" fill="#ffab50"/>
  <path id="r" d="M707.95,84.26c1.86,0,3.37-1.51,3.37-3.36s-1.51-3.36-3.37-3.36-3.37,1.51-3.37,3.36,1.51,3.36,3.37,3.36ZM706.26,113.42c.73,0,1.41-.48,1.62-1.22l2.33-7.32c.49-1.7-.23-3.52-1.75-4.44l-3.63-2.19,2.94-7.35c.19.26.35.53.45.85l.98,3.22c.51,1.66,2.01,2.78,3.74,2.78h3.39s0,.01,0,.01c.93,0,1.68-.75,1.68-1.68,0-.93-.75-1.69-1.68-1.69h-3.39c-.25-.01-.46-.17-.53-.41l-.98-3.22c-.64-2.12-2.38-3.73-4.54-4.22l-5.49-1.24c-1.8-.41-3.68,0-5.14,1.14l-3.39,2.62c-.74.57-.87,1.62-.3,2.36.57.74,1.63.87,2.36.3l3.39-2.62c.66-.51,1.52-.7,2.33-.52l1.04.24-2.47,6.12c-.73,1.8-.05,3.83,1.61,4.83l5.87,3.55c.15.09.27.31.27.48,0,.04,0,.11-.02.15l-2.33,7.32c-.26.89.26,1.82,1.16,2.08.15.04.31.06.46.06ZM695.81,106.69c1.57,0,2.99-.93,3.61-2.38l.95-2.22-.67-.4c-.83-.5-1.49-1.18-1.98-1.95l-1.39,3.24c-.09.21-.29.34-.52.34h-5.25c-.93,0-1.68.75-1.68,1.68s.75,1.68,1.68,1.68h5.25Z" fill="#ffab50"/>
  <path id="w" d="M439.38,113.42c1.24,0,2.24-1,2.24-2.24v-3.48c2.56-.52,4.49-2.78,4.49-5.49v-13.46c0-2.71-1.93-4.97-4.49-5.49v-3.48c0-1.24-1-2.24-2.24-2.24h-13.46c-1.24,0-2.24,1-2.24,2.24v3.48c-2.56.52-4.49,2.78-4.49,5.49v13.46c0,2.71,1.93,4.97,4.49,5.49v3.48c0,1.24,1,2.24,2.24,2.24h13.46ZM438.26,83.14h-11.22v-2.24h11.22v2.24ZM440.5,104.45h-15.7c-1.24,0-2.24-1.01-2.24-2.24v-13.46c0-1.24,1.01-2.24,2.24-2.24h15.7c1.24,0,2.24,1.01,2.24,2.24v13.46c0,1.24-1.01,2.24-2.24,2.24ZM433.21,100.87l4.77-4.5c1.39-1.31,1.31-3.48-.24-4.68-1.55-1.2-3.57-.67-4.6.31l-.49.46-.49-.46c-1.01-.95-3.03-1.52-4.6-.31-1.55,1.21-1.63,3.37-.24,4.68l4.77,4.5c.31.29.81.29,1.12,0ZM438.26,110.06h-11.22v-2.24h11.22v2.24Z" fill="#ffab50"/>
  <path id="c" d="M401.12,245c.43,0,.84-.34.84-.84v-3.64h2.24c2.47,0,4.49-2.01,4.49-4.49v-11.22c0-2.47-2.01-4.49-4.49-4.49h-6.73v-6.73c0-2.47-2.01-4.49-4.49-4.49h-20.19c-2.47,0-4.49,2.01-4.49,4.49v11.22c0,2.47,2.01,4.49,4.49,4.49h2.24v3.64c0,.5.41.84.84.84.17,0,.34-.05.5-.17l5.39-3.05v5.46c0,2.47,2.01,4.49,4.49,4.49h6.73l7.63,4.32c.15.11.33.17.5.17ZM378.41,228.6v-2.67h-5.61c-.62,0-1.12-.5-1.12-1.12v-11.22c0-.62.5-1.12,1.12-1.12h20.19c.62,0,1.12.5,1.12,1.12v11.22c0,.62-.5,1.12-1.12,1.12h-9.86l-.77.43-3.95,2.24ZM398.6,239.82l-3.95-2.24-.77-.43h-7.61c-.62,0-1.12-.5-1.12-1.12v-6.73h7.85c2.47,0,4.49-2.01,4.49-4.49v-1.12h6.73c.62,0,1.12.5,1.12,1.12v11.22c0,.62-.5,1.12-1.12,1.12h-5.61v2.67Z" fill="#ffab50"/>
  <path id="c-2" data-name="c" d="M444.6,366.92c1.86,0,3.36-1.51,3.36-3.36v-24.67c0-1.86-1.51-3.36-3.36-3.36h-3.36v-3.64c0-.46-.38-.84-.84-.84h-2.8c-.46,0-.84.38-.84.84v3.64h-8.97v-3.64c0-.46-.38-.84-.84-.84h-2.8c-.46,0-.84.38-.84.84v3.64h-3.36c-1.86,0-3.36,1.51-3.36,3.36v24.67c0,1.86,1.51,3.36,3.36,3.36h24.67ZM444.18,363.56h-23.83c-.23,0-.42-.19-.42-.42v-20.89h24.67v20.89c0,.23-.19.42-.42.42Z" fill="#ffab50"/>
  <path id="s-2" data-name="s" d="M695.9,365.55c.94,0,1.82-.47,2.35-1.25l2.83-4.2c-1.02-.5-1.94-1.18-2.71-2l-2.47,3.67-3.64-5.4-6.37,1.23,1.23-6.39-5.38-3.64,5.38-3.65-1.23-6.39,6.38,1.23,3.63-5.38,3.64,5.39,6.38-1.23-.59,3.05c1.12-.81,2.4-1.39,3.75-1.69l.29-1.49c.18-.93-.11-1.88-.78-2.55-.67-.67-1.63-.96-2.54-.78l-4.97.96-2.83-4.2c-1.06-1.56-3.64-1.56-4.7,0l-2.83,4.2-4.96-.96c-.93-.18-1.88.11-2.54.79-.67.67-.96,1.62-.78,2.54l.96,4.98-4.19,2.84c-.79.53-1.25,1.41-1.25,2.36s.47,1.82,1.25,2.35l4.19,2.84-.96,4.98c-.18.93.11,1.88.78,2.54s1.61.96,2.54.78l4.96-.96,2.83,4.2c.53.79,1.41,1.25,2.35,1.25ZM695.9,354.9c.18,0,.36-.04.54-.06-.32-.94-.54-1.93-.54-2.97,0-.11.03-.22.03-.34h-.03c-2.17,0-3.93-1.76-3.93-3.93s1.76-3.93,3.93-3.93c1.2,0,2.26.55,2.99,1.41.83-.76,1.81-1.35,2.88-1.77-1.33-1.81-3.46-3-5.87-3-4.02,0-7.29,3.27-7.29,7.29s3.27,7.29,7.29,7.29ZM715.87,358.82c3.83,0,6.95-3.12,6.95-6.95,0-2.85-1.7-5.29-4.17-6.36-1.31-2.78-4.11-4.63-7.33-4.63-2.97,0-5.61,1.64-7.02,4.08-3.46.4-6.15,3.34-6.15,6.91,0,3.83,3.12,6.95,6.95,6.95h10.77ZM715.87,355.46h-10.77c-1.98,0-3.59-1.61-3.59-3.59s1.61-3.59,3.59-3.59c.54,0,1.04.15,1.49.37.19-2.46,2.22-4.41,4.73-4.41s4.35,1.76,4.7,4.05c1.91.08,3.43,1.64,3.43,3.57s-1.61,3.59-3.59,3.59Z" fill="#ffab50"/>
  <path id="g" d="M567.27,421.52c9.6,0,17.38-7.78,17.38-17.38s-7.78-17.38-17.38-17.38-17.38,7.78-17.38,17.38,7.78,17.38,17.38,17.38ZM571.7,397.96h-8.86c1.02-4.96,3.13-7.85,4.43-7.85s3.41,2.89,4.43,7.85ZM579.84,397.96h-4.71c-.47-2.56-1.23-4.82-2.19-6.64,3.01,1.33,5.45,3.69,6.9,6.64ZM559.42,397.96h-4.71c1.45-2.94,3.89-5.31,6.9-6.64-.96,1.82-1.72,4.08-2.19,6.64ZM558.98,406.94h-5.45c-.18-.9-.28-1.84-.28-2.8s.1-1.9.28-2.8h5.45c-.07.92-.12,1.84-.12,2.8s.05,1.89.12,2.8ZM572.19,406.94h-9.83c-.08-.9-.13-1.82-.13-2.8s.06-1.91.13-2.8h9.83c.08.9.13,1.82.13,2.8s-.06,1.91-.14,2.8ZM581.01,406.94h-5.45c.07-.92.12-1.84.12-2.8s-.05-1.89-.12-2.8h5.45c.18.9.28,1.84.28,2.8s-.1,1.9-.28,2.8ZM561.6,416.94c-3.01-1.33-5.45-3.69-6.9-6.64h4.71c.47,2.56,1.23,4.82,2.19,6.64ZM567.27,418.15c-1.3,0-3.41-2.89-4.43-7.85h8.87c-1.03,4.96-3.13,7.85-4.44,7.85ZM572.95,416.94c.96-1.82,1.71-4.08,2.19-6.64h4.71c-1.45,2.94-3.89,5.31-6.9,6.64Z" fill="#ffab50"/>
  <path id="p" d="M729.04,244.97l10.44-1.72,22.1-22.25c1.85-1.85,1.86-4.83-.04-6.74l-3.78-3.77c-1.85-1.85-4.84-1.85-6.69,0l-22.25,22.1-1.72,10.44c-.19,1.14.8,2.12,1.93,1.93ZM756.03,222.22l-6.17-6.17,3.39-3.37h0c.64-.65,1.68-.66,2.33,0l3.77,3.77c.69.69.7,1.72.04,2.37h0s-3.37,3.4-3.37,3.4ZM741.8,236.54v-2.9h-3.36v-3.36h-2.9l11.93-11.86,6.19,6.19-11.86,11.93ZM732.84,241.22l-1.98-1.98.85-5.16,1.29-1.28h2.92v3.36h3.36v2.92l-1.28,1.29-5.16.85Z" fill="#ffab50"/>
  <path id="m-3" data-name="m" d="M118.1,284.05c6.02,0,10.91-4.88,10.91-10.91v-94.54c0-6.02-4.88-10.91-10.91-10.91h-50.9c-6.02,0-10.91,4.88-10.91,10.91v94.54c0,6.02,4.88,10.91,10.91,10.91h50.9ZM117.84,275.8h-50.39c-.79,0-1.43-.64-1.43-1.43v-97c0-.78.64-1.43,1.43-1.43h50.39c.8,0,1.44.64,1.44,1.44v96.97c0,.79-.65,1.44-1.44,1.44ZM91.71,269.45c4.76.6,8.75-3.39,8.16-8.16-.4-3.23-3.04-5.87-6.27-6.27-4.76-.6-8.75,3.39-8.16,8.16.4,3.23,3.04,5.87,6.27,6.27Z" fill="#fff"/>
</svg>