<?xml version="1.0" encoding="UTF-8"?>
<svg width="293px" height="194px" viewBox="0 0 293 194" version="1.1" xmlns="http://www.w3.org/2000/svg" xmlns:xlink="http://www.w3.org/1999/xlink">
    <!-- Generator: Sketch 61 (89581) - https://sketch.com -->
    <title>Group 2</title>
    <desc>Created with Sketch.</desc>
    <defs>
        <filter x="-17.1%" y="-18.8%" width="134.3%" height="137.5%" filterUnits="objectBoundingBox" id="filter-1">
            <feOffset dx="0" dy="2" in="SourceAlpha" result="shadowOffsetOuter1"></feOffset>
            <feGaussianBlur stdDeviation="2" in="shadowOffsetOuter1" result="shadowBlurOuter1"></feGaussianBlur>
            <feColorMatrix values="0 0 0 0 0.2   0 0 0 0 0.2   0 0 0 0 0.2  0 0 0 0.3 0" type="matrix" in="shadowBlurOuter1" result="shadowMatrixOuter1"></feColorMatrix>
            <feMerge>
                <feMergeNode in="shadowMatrixOuter1"></feMergeNode>
                <feMergeNode in="SourceGraphic"></feMergeNode>
            </feMerge>
        </filter>
        <rect id="path-2" x="0" y="0" width="70" height="64" rx="32"></rect>
        <filter x="-18.8%" y="-20.0%" width="137.5%" height="140.0%" filterUnits="objectBoundingBox" id="filter-3">
            <feOffset dx="0" dy="2" in="SourceAlpha" result="shadowOffsetOuter1"></feOffset>
            <feGaussianBlur stdDeviation="2" in="shadowOffsetOuter1" result="shadowBlurOuter1"></feGaussianBlur>
            <feColorMatrix values="0 0 0 0 0.2   0 0 0 0 0.2   0 0 0 0 0.2  0 0 0 0.3 0" type="matrix" in="shadowBlurOuter1" result="shadowMatrixOuter1"></feColorMatrix>
            <feMerge>
                <feMergeNode in="shadowMatrixOuter1"></feMergeNode>
                <feMergeNode in="SourceGraphic"></feMergeNode>
            </feMerge>
        </filter>
        <rect id="path-4" x="0" y="0" width="64" height="60" rx="30"></rect>
        <filter x="-25.0%" y="-23.3%" width="150.0%" height="153.3%" filterUnits="objectBoundingBox" id="filter-5">
            <feOffset dx="0" dy="2" in="SourceAlpha" result="shadowOffsetOuter1"></feOffset>
            <feGaussianBlur stdDeviation="2" in="shadowOffsetOuter1" result="shadowBlurOuter1"></feGaussianBlur>
            <feColorMatrix values="0 0 0 0 0.2   0 0 0 0 0.2   0 0 0 0 0.2  0 0 0 0.3 0" type="matrix" in="shadowBlurOuter1" result="shadowMatrixOuter1"></feColorMatrix>
            <feMerge>
                <feMergeNode in="shadowMatrixOuter1"></feMergeNode>
                <feMergeNode in="SourceGraphic"></feMergeNode>
            </feMerge>
        </filter>
        <rect id="path-6" x="0" y="0" width="64" height="60" rx="30"></rect>
        <filter x="-10.9%" y="-8.3%" width="121.9%" height="123.3%" filterUnits="objectBoundingBox" id="filter-7">
            <feOffset dx="0" dy="2" in="SourceAlpha" result="shadowOffsetOuter1"></feOffset>
            <feGaussianBlur stdDeviation="2" in="shadowOffsetOuter1" result="shadowBlurOuter1"></feGaussianBlur>
            <feColorMatrix values="0 0 0 0 0.678431373   0 0 0 0 0.647058824   0 0 0 0 0.647058824  0 0 0 0.61 0" type="matrix" in="shadowBlurOuter1"></feColorMatrix>
        </filter>
        <filter x="-25.0%" y="-23.3%" width="150.0%" height="153.3%" filterUnits="objectBoundingBox" id="filter-8">
            <feOffset dx="0" dy="2" in="SourceAlpha" result="shadowOffsetOuter1"></feOffset>
            <feGaussianBlur stdDeviation="2" in="shadowOffsetOuter1" result="shadowBlurOuter1"></feGaussianBlur>
            <feColorMatrix values="0 0 0 0 0.2   0 0 0 0 0.2   0 0 0 0 0.2  0 0 0 0.3 0" type="matrix" in="shadowBlurOuter1" result="shadowMatrixOuter1"></feColorMatrix>
            <feMerge>
                <feMergeNode in="shadowMatrixOuter1"></feMergeNode>
                <feMergeNode in="SourceGraphic"></feMergeNode>
            </feMerge>
        </filter>
        <rect id="path-9" x="0" y="0" width="64" height="60" rx="30"></rect>
        <filter x="-10.9%" y="-8.3%" width="121.9%" height="123.3%" filterUnits="objectBoundingBox" id="filter-10">
            <feOffset dx="0" dy="2" in="SourceAlpha" result="shadowOffsetOuter1"></feOffset>
            <feGaussianBlur stdDeviation="2" in="shadowOffsetOuter1" result="shadowBlurOuter1"></feGaussianBlur>
            <feColorMatrix values="0 0 0 0 0.678431373   0 0 0 0 0.647058824   0 0 0 0 0.647058824  0 0 0 0.61 0" type="matrix" in="shadowBlurOuter1"></feColorMatrix>
        </filter>
    </defs>
    <g id="Solid-2.0" stroke="none" stroke-width="1" fill="none" fill-rule="evenodd">
        <g id="Homepage---Light" transform="translate(-168.000000, -1277.000000)">
            <g id="Group-2" transform="translate(168.000000, 1277.000000)">
                <path d="M49,131.728067 C70.9923491,114.71133 91.1368685,104.612512 106.228113,98.4749339 C116.893456,94.1361918 131.550366,89.1285867 149.302231,85.8830809 C163.11714,83.3571096 180.418161,80.128072 202.608628,83.3533092 C220.892617,86.0135599 230.033977,87.3424184 231.6367,92.6059143 C237.99552,113.485081 159.4672,178.595349 106.918986,174.844396 C100.710024,174.401021 87.8107749,173.480067 74.0123761,163.455989 C60.2038173,153.425578 52.5673909,139.417458 49,131.728067" id="Fill-1" fill="#E5EFD0"></path>
                <g id="Group-14" filter="url(#filter-1)" transform="translate(167.000000, 50.000000)">
                    <g id="Rectangle">
                        <use fill="#01E19A" xlink:href="#path-2"></use>
                        <use fill-opacity="0.9" fill="#FFFFFF" xlink:href="#path-2"></use>
                    </g>
                    <path d="M46.2499303,47.9999905 C46.6374415,47.9999905 46.9999285,47.6937168 46.9999285,47.2499923 L46.9999285,44 L48.9999237,44 C51.2061562,44 52.9999142,42.2062421 52.9999142,40.0000095 L52.9999142,30.0000334 C52.9999142,27.7938008 51.2061562,26.0000429 48.9999237,26.0000429 L42.999938,26.0000429 L42.999938,20.0000668 C42.999938,17.7938247 41.2061801,16.0000668 38.9999475,16.0000668 L21,16.0000668 C18.7937579,16.0000668 17,17.7938247 17,20.0000668 L17,30.0000334 C17,32.2062659 18.7937579,34.0000238 21,34.0000238 L22.9999857,34.0000238 L22.9999857,37.2500161 C22.9999857,37.6937406 23.3624726,38.0000143 23.7499839,38.0000143 C23.900008,38.0000143 24.0562576,37.9562522 24.1937084,37.8499902 L28.9999714,35.1312467 L28.9999714,40.0000095 C28.9999714,42.2062421 30.7937293,44 32.9999619,44 L38.9999475,44 L45.8062057,47.8499664 C45.9436566,47.9500028 46.0999062,47.9999905 46.2499303,47.9999905 Z M25.9999785,33.3812509 L25.9999785,31.000031 L20.9999928,31.000031 C20.450004,31.000031 19.9999928,30.5500199 19.9999928,30.0000334 L19.9999928,20.0000596 C19.9999928,19.4500707 20.450004,19.0000596 20.9999928,19.0000596 L38.9999475,19.0000596 C39.549934,19.0000596 39.9999452,19.4500707 39.9999452,20.0000596 L39.9999452,30.0000334 C39.9999452,30.5500199 39.549934,31.000031 38.9999475,31.000031 L30.2124929,31.000031 L29.5249946,31.3875423 L25.9999785,33.3812509 Z M43.9999356,43.3812271 L40.4749196,41.3875184 L39.7874213,41.0000072 L32.9999642,41.0000072 C32.4499754,41.0000072 31.9999642,40.549996 31.9999642,40.0000095 L31.9999642,34.0000238 L38.9999475,34.0000238 C41.2061801,34.0000238 42.999938,32.2062659 42.999938,30.0000358 L42.999938,29.0000358 L48.9999237,29.0000358 C49.5499102,29.0000358 49.9999213,29.4500469 49.9999213,30.0000358 L49.9999213,40.0000095 C49.9999213,40.549996 49.5499102,41.0000072 48.9999237,41.0000072 L43.9999356,41.0000072 L43.9999356,43.3812271 Z" id="c" fill="#01E19A" fill-rule="nonzero"></path>
                </g>
                <g id="Group-14" filter="url(#filter-3)" transform="translate(125.000000, 66.000000)">
                    <g id="Rectangle">
                        <use fill="#E59B02" xlink:href="#path-4"></use>
                        <use fill-opacity="0.9" fill="#FFFFFF" xlink:href="#path-4"></use>
                    </g>
                    <path d="M22.8571298,44.9999911 C25.6777146,44.9999911 27.9742493,43.174205 28.2811124,40.8340083 C28.3182775,40.6752219 28.339427,40.5070513 28.340543,40.328295 L28.342273,40.3125022 L28.342273,40.3125022 L28.342273,30.0000268 L43.885093,24.9668128 L43.885093,32.5248163 C43.0759432,32.1229008 42.1468159,31.8750224 41.1428005,31.8750224 C38.1131202,31.8750224 35.6570993,33.9738638 35.6570993,36.5625112 C35.6570993,39.1511586 38.1131202,41.25 41.1428005,41.25 C43.9639433,41.25 46.260478,39.4230695 46.5673411,37.0822434 C46.6027763,36.9304951 46.6216379,36.7699348 46.6244838,36.6006199 C46.6244838,36.5876881 46.6290597,36.5753857 46.6290597,36.5625112 L46.6282924,36.5601651 L46.6279436,16.8756303 C46.6279436,15.8051525 45.7730908,15.0000626 44.8033386,15.0000626 C44.6216426,15.0000626 44.4359288,15.028215 44.250773,15.0885252 L26.8793858,20.7135118 C26.1199568,20.9596164 25.5999804,21.6797342 25.5999804,22.5000447 L25.5999804,36.2753796 C24.7902725,35.8728918 23.8617033,35.6250134 22.8571298,35.6250134 C19.8274495,35.6250134 17.3714286,37.7238548 17.3714286,40.3125022 C17.3714286,42.9011496 19.8274495,44.9999911 22.8571298,44.9999911 Z M28.342831,27.0504336 L28.342831,23.1890918 L43.885093,18.1565072 L43.885093,22.0177918 L28.342831,27.0504336 Z M41.1428005,38.4375067 C39.5262307,38.4375067 38.3999499,37.4490256 38.3999499,36.5625112 C38.3999499,35.6754245 39.5262307,34.6875156 41.1428005,34.6875156 C42.7588122,34.6875156 43.885093,35.6747951 43.8856511,36.561939 L43.8856511,36.5630834 C43.885093,37.4495978 42.7588122,38.4375067 41.1428005,38.4375067 Z M22.8571298,42.1874978 C21.24056,42.1874978 20.1142792,41.1990167 20.1142792,40.3125022 C20.1142792,39.4254156 21.24056,38.4375067 22.8571298,38.4375067 C24.4736996,38.4375067 25.5999804,39.4254156 25.5999804,40.3125022 C25.5999804,41.1995889 24.4736996,42.1874978 22.8571298,42.1874978 Z" id="m" fill="#E59B02" fill-rule="nonzero"></path>
                </g>
                <g id="Group-14" filter="url(#filter-5)" transform="translate(76.000000, 79.000000)">
                    <g id="Rectangle">
                        <use fill="black" fill-opacity="1" filter="url(#filter-7)" xlink:href="#path-6"></use>
                        <use fill="#18A9E7" fill-rule="evenodd" xlink:href="#path-6"></use>
                        <use fill-opacity="0.9" fill="#FFFFFF" fill-rule="evenodd" xlink:href="#path-6"></use>
                    </g>
                    <path d="M42.0570884,44.9999911 C43.5713705,44.9999911 44.799939,43.7402284 44.799939,42.1874978 L44.799939,21.5625469 C44.799939,20.0098163 43.5713705,18.7500536 42.0570884,18.7500536 L39.3142378,18.7500536 L39.3142378,15.7031859 C39.3142378,15.316491 39.0056447,15.0000626 38.6285251,15.0000626 L36.3428163,15.0000626 C35.9656966,15.0000626 35.6571036,15.316491 35.6571036,15.7031859 L35.6571036,18.7500536 L28.3428353,18.7500536 L28.3428353,15.7031859 C28.3428353,15.316491 28.0342423,15.0000626 27.6571227,15.0000626 L25.3714139,15.0000626 C24.9942942,15.0000626 24.6857012,15.316491 24.6857012,15.7031859 L24.6857012,18.7500536 L21.9428506,18.7500536 C20.4285685,18.7500536 19.2,20.0098163 19.2,21.5625469 L19.2,42.1874978 C19.2,43.7402284 20.4285685,44.9999911 21.9428506,44.9999911 L42.0570884,44.9999911 Z M41.714232,42.1874978 L22.2857069,42.1874978 C22.0971471,42.1874978 21.9428506,42.0292836 21.9428506,41.8359361 L21.9428506,24.3750402 L42.0570884,24.3750402 L42.0570884,41.8359361 C42.0570884,42.0292836 41.9027919,42.1874978 41.714232,42.1874978 Z" id="c" fill="#18A9E7" fill-rule="nonzero"></path>
                </g>
                <g id="Group-14" filter="url(#filter-8)" transform="translate(24.000000, 87.000000)">
                    <g id="Rectangle">
                        <use fill="black" fill-opacity="1" filter="url(#filter-10)" xlink:href="#path-9"></use>
                        <use fill="#EB1A1A" fill-rule="evenodd" xlink:href="#path-9"></use>
                        <use fill-opacity="0.9" fill="#FFFFFF" fill-rule="evenodd" xlink:href="#path-9"></use>
                    </g>
                    <path d="M43.8856511,41.25 C45.4004912,41.25 46.6285017,39.9908096 46.6285017,38.4375067 L46.6285017,21.5625469 C46.6285017,20.0092441 45.4004912,18.7500536 43.8856511,18.7500536 L20.1142792,18.7500536 C18.599439,18.7500536 17.3714286,20.0092441 17.3714286,21.5625469 L17.3714286,38.4375067 C17.3714286,39.9908096 18.599439,41.25 20.1142792,41.25 L43.8856511,41.25 Z M43.5427947,38.4375067 L20.4571355,38.4375067 C20.267906,38.4375067 20.1142792,38.2799792 20.1142792,38.085945 L20.1142792,21.9141086 C20.1142792,21.7200745 20.267906,21.5625469 20.4571355,21.5625469 L43.5427947,21.5625469 C43.7320242,21.5625469 43.8856511,21.7200745 43.8856511,21.9141086 L43.8856511,38.085945 C43.8856511,38.2799792 43.7320242,38.4375067 43.5427947,38.4375067 Z M24.6856968,28.5937802 C25.9480264,28.5937802 26.9714057,27.5444167 26.9714057,26.2500358 C26.9714057,24.9556548 25.9480264,23.9062914 24.6856968,23.9062914 C23.4233673,23.9062914 22.399988,24.9556548 22.399988,26.2500358 C22.399988,27.5444167 23.4233673,28.5937802 24.6856968,28.5937802 Z M41.1428005,35.6250134 L41.1428005,30.9375246 L36.1419753,25.8097254 C35.8741746,25.5351251 35.4400239,25.5351251 35.1721674,25.8097254 L28.342831,32.8125201 L26.0848565,30.4972142 C25.8170558,30.2226139 25.382905,30.2226139 25.1150485,30.4972142 L22.8571298,32.8125201 L22.8571298,35.6250134 L41.1428005,35.6250134 Z" id="i" fill="#EB1A1A" fill-rule="nonzero"></path>
                </g>
                <g id="Group-5" fill="#7FA63B">
                    <path d="M286.859465,10.6255828 C270.399705,38.5153786 251.950888,57.3678115 247.061863,62.2531806 C247.061863,62.2531806 240.579059,68.724363 233.365244,74.910555 C174.955393,124.991605 105.282667,133.75411 105.282667,133.75411 C70.4374359,137.210727 46.0999979,132.254427 30.0038422,126.815543 C21.3647485,123.894708 5.55998336,117.613519 1.15491975,123.092935 C-1.68930452,126.631883 1.44377638,133.548917 2.8348491,136.531817 C10.4376063,152.835802 33.2180057,175.889627 71.6143999,187.342442 C123.092959,202.697726 166.730581,186.476071 179.754467,181.436174 C190.05702,177.448841 204.361758,171.765499 219.052905,158.837067 C240.135638,140.286091 249.278964,118.021372 253.985554,106.193637 C260.790154,89.1005447 267.590954,63.222148 271.566534,48.0859901 C271.770507,47.3095496 272.091037,46.0771243 272.55346,44.4773781 C273.575861,40.9270308 275.396418,35.1866905 278.388871,28.2861224 C279.910436,24.7737738 281.152013,22.3456555 283.632633,17.4894187 C288.772507,7.42609036 293.011605,0.163267845 292.964267,0.135241167 C292.917853,0.108803009 289.19819,6.66231603 286.859465,10.6255828 Z" id="Fill-3"></path>
                </g>
                <path d="M270.611642,36.1347757 C271.330566,36.2800975 271.878744,36.5151398 272.20226,36.6743621 C273.118887,37.1217007 273.733823,37.6890877 273.889162,37.8584193 C275.077953,39.1460974 272.896791,42.4417444 272.188138,45.2799435 C271.279214,48.91299 272.975102,52.5043355 276.551745,59.5960423 C278.866421,64.1844221 280.023117,66.4779801 282.065629,68.0461925 C286.891401,71.7550591 293.051033,71.149762 293,71.7828599 C292.963735,72.2226164 289.986623,72.4462857 287.478094,72.2036614 C286.15964,72.0772946 284.180034,71.8864807 282.065629,70.8047805 C279.790751,69.640942 278.598109,68.0815753 277.00364,66.0003135 C276.058769,64.7669732 273.831391,61.7998799 272.575843,57.371986 C271.768338,54.5262049 271.842798,52.7659148 271.451242,52.7507508 C270.841441,52.7280048 269.730961,56.9739304 269.768191,61.1756277 C269.845219,70.1299816 275.10748,76.7629768 276.532488,78.4562924 C281.677924,84.5673926 287.306066,86.2695538 287.001807,86.8584233 C286.62694,87.5787142 277.831685,85.6415107 271.357525,78.9478594 C269.77461,77.3114089 266.765403,74.129492 265.454652,69.2706872 C262.979502,60.0939276 268.80278,53.2397905 266.823174,51.7587712 C263.85248,49.5359785 250.560104,64.8529026 234.782307,69.4311731 C234.440819,69.5297392 227.951253,71.3519489 220.565601,70.5166642 C218.892821,70.3271139 216.421522,69.915158 213.702452,68.5706149 C211.337708,67.4017217 208.768842,65.5188558 209.016613,65.0310799 C209.367088,64.3398533 215.06969,67.0617949 219.007078,68.0070188 C237.523202,72.4538677 262.008956,48.4163684 260.141039,45.2508792 C259.256507,43.7559595 252.112208,46.2668685 250.665375,46.7761269 C242.047283,49.8038762 241.056196,54.0485382 234.840078,55.2098494 C227.707333,56.5417559 220.986685,52.4537888 221.100942,52.0077138 C221.186956,51.6665234 225.238602,53.5089518 230.936068,53.1374333 C241.06775,52.4777985 241.40282,45.7917292 252.152005,44.0592399 C258.524746,43.0331412 263.984711,43.7167858 265.920668,40.2796079 C266.495807,39.2573002 267.770612,36.0488462 269.294472,36.0008268 C269.415149,35.9970358 269.949206,36.0008268 270.611642,36.1347757" id="Fill-6" fill="#768E4F"></path>
            </g>
        </g>
    </g>
</svg>