<?xml version="1.0" encoding="UTF-8"?>
<svg width="522px" height="262px" viewBox="0 0 522 262" version="1.1" xmlns="http://www.w3.org/2000/svg" xmlns:xlink="http://www.w3.org/1999/xlink">
    <title>share-it-safely-icon</title>
    <defs>
        <ellipse id="path-1" cx="28.7634331" cy="27.9842993" rx="28.5847782" ry="27.8056445"></ellipse>
        <ellipse id="path-2" cx="28.0488136" cy="27.2696799" rx="28.0488136" ry="27.2696799"></ellipse>
        <ellipse id="path-4" cx="27.7675471" cy="27.3818867" rx="27.7675471" ry="27.3818867"></ellipse>
        <polygon id="path-6" points="0 0.170386927 45.2705814 0.170386927 45.2705814 45.4410019 0 45.4410019"></polygon>
        <ellipse id="path-8" cx="26.3841614" cy="25.9941818" rx="26.3454545" ry="25.9941818"></ellipse>
        <linearGradient x1="50%" y1="0%" x2="50%" y2="100%" id="linearGradient-10">
            <stop stop-color="#B093FF" offset="0%"></stop>
            <stop stop-color="#8559FF" offset="100%"></stop>
        </linearGradient>
        <linearGradient x1="50%" y1="0.905299831%" x2="50%" y2="100%" id="linearGradient-11">
            <stop stop-color="#FFFFFF" offset="0%"></stop>
            <stop stop-color="#F7F0EB" offset="100%"></stop>
        </linearGradient>
        <linearGradient x1="50%" y1="100%" x2="50%" y2="3.061617e-15%" id="linearGradient-12">
            <stop stop-color="#6C4EBE" offset="0%"></stop>
            <stop stop-color="#8559FF" offset="100%"></stop>
        </linearGradient>
        <linearGradient x1="50%" y1="0%" x2="50%" y2="97.8583916%" id="linearGradient-13">
            <stop stop-color="#FF53C8" offset="0%"></stop>
            <stop stop-color="#E11575" offset="100%"></stop>
        </linearGradient>
        <linearGradient x1="50%" y1="0.905299831%" x2="50%" y2="100%" id="linearGradient-14">
            <stop stop-color="#FFFFFF" offset="0%"></stop>
            <stop stop-color="#F7F0EB" offset="100%"></stop>
        </linearGradient>
        <linearGradient x1="50%" y1="100%" x2="50%" y2="3.061617e-15%" id="linearGradient-15">
            <stop stop-color="#AF0D38" offset="0%"></stop>
            <stop stop-color="#E72387" offset="100%"></stop>
        </linearGradient>
    </defs>
    <g id="Page-1" stroke="none" stroke-width="1" fill="none" fill-rule="evenodd">
        <g id="solid-homepage-new-scaled-graphics-V2" transform="translate(-127.000000, -1882.000000)">
            <g id="share-it-safely-icon" transform="translate(127.000000, 1882.000000)">
                <g id="Group-8">
                    <line x1="83.2000012" y1="131.200002" x2="232.800003" y2="131.200002" id="Path-13" stroke="#BFB0FF" stroke-width="3.20000005" stroke-linecap="round" stroke-linejoin="round" stroke-dasharray="0,5.600000083446503"></line>
                    <line x1="318.400005" y1="131.200002" x2="468.000007" y2="131.200002" id="Path-13" stroke="#E11D84" stroke-width="3.20000005" stroke-linecap="round" stroke-linejoin="round" stroke-dasharray="0,5.600000083446503"></line>
                    <g id="Group-7">
                        <g id="Group-12" transform="translate(127.962207, 0.000000)">
                            <g id="Group-5-Copy">
                                <path d="M135.837671,38.0139453 L208.195083,79.7895163 C211.427785,81.6559176 213.419211,85.1051694 213.419211,88.837972 L213.419211,172.389114 C213.419211,176.121917 211.427785,179.571169 208.195083,181.43757 L135.837671,223.213141 C132.60497,225.079542 128.622117,225.079542 125.389415,223.213141 L53.0320032,181.43757 C49.7993013,179.571169 47.8078748,176.121917 47.8078748,172.389114 L47.8078748,88.837972 C47.8078748,85.1051694 49.7993013,81.6559176 53.0320032,79.7895163 L125.389415,38.0139453 C128.622117,36.147544 132.60497,36.147544 135.837671,38.0139453 Z" id="Polygon" stroke="#8559FF" stroke-width="4.4611843" fill="#FFFFFF" transform="translate(130.613543, 130.613543) rotate(30.000000) translate(-130.613543, -130.613543) "></path>
                                <g id="Group" transform="translate(70.046627, 68.892579)">
                                    <polygon id="Path-25" stroke="#FFFFFF" stroke-width="0.582400039" fill="#BFB0FF" points="61.6312596 113.93153 64.5556559 114.932402 84.8044464 75.634834 102.669771 24.6752534 99.4702485 25.7302267 81.9273954 73.9740207"></polygon>
                                    <polygon id="Path-24" stroke="#FFFFFF" stroke-width="0.582400039" fill="#BFB0FF" points="24.4582453 101.306425 78.2974797 71.9977803 117.189434 63.9610075 117.189434 67.5868108 78.2974797 75.1129717 24.4582453 105.426454"></polygon>
                                    <polygon id="Path-24" stroke="#FFFFFF" stroke-width="0.582400039" fill="#BFB0FF" points="6.73628406 63.4667816 78.2974797 71.9977803 117.189434 63.9610075 117.189434 67.5868108 78.2974797 75.1129717 6.73628406 66.4220107"></polygon>
                                    <polygon id="Path-24" stroke="#FFFFFF" stroke-width="0.582400039" fill="#BFB0FF" points="55.8828857 45.9947804 61.9902787 117.424983 59.4356803 120.540175 53.3282872 45.9947804"></polygon>
                                    <polygon id="Path-24" stroke="#FFFFFF" stroke-width="0.582400039" fill="#BFB0FF" points="9.29088253 65.7963818 95.769481 101.117782 94.3796826 104.232974 9.06588422 69.290782"></polygon>
                                    <path d="M60.9257402,3.80076082 L102.910241,21.3020782 L120.30079,63.5539959 L102.910241,105.805914 L60.9257402,123.307231 L18.9412397,105.805914 L1.55069017,63.5539959 L18.9412397,21.3020782 L60.9257402,3.80076082 Z M60.9257402,6.93193471 L21.1413008,23.5161525 L4.66204651,63.5539959 L21.1413008,103.591839 L60.9257402,120.176057 L100.71018,103.591839 L117.189434,63.5539959 L100.71018,23.5161525 L60.9257402,6.93193471 Z" id="Combined-Shape" fill="#D8D8D8" opacity="0.321196057"></path>
                                    <path d="M60.9257402,3.80076082 L102.092603,21.9692718 L99.9046902,22.8737608 L60.9257402,6.93193471 L21.1413008,23.5161525 L5.29969017,62.0027608 L1.55069017,63.5539959 L18.9412397,21.3020782 L60.9257402,3.80076082 Z" id="Combined-Shape" fill="#8559FF"></path>
                                    <polygon id="Path-2" stroke="#FFFFFF" stroke-width="1.16480008" fill="#BFB0FF" points="115.426865 66.5423606 101.114093 100.207831 103.033664 103.476462 120.30079 65.380514"></polygon>
                                    <path d="M121.594695,59.5095629 C123.679795,60.7210637 124.962837,62.9504407 124.962837,65.3619498 L124.962837,65.3990782 C124.962837,67.8105873 123.679795,70.0399642 121.594695,71.251465 C119.512262,72.4614158 116.940843,72.4614158 114.858411,71.251465 C112.773311,70.0399642 111.490269,67.8105873 111.490269,65.3990782 L111.490269,65.3619498 C111.490269,62.9504407 112.773311,60.7210637 114.858411,59.5095629 C116.940843,58.2996122 119.512262,58.2996122 121.594695,59.5095629 Z" id="Polygon-Copy-8" stroke="#FFFFFF" stroke-width="2.41113601" fill="#BFB0FF"></path>
                                    <path d="M63.5160431,112.217657 C65.6011431,113.429158 66.8841852,115.658534 66.8841852,118.070044 L66.8841852,118.107172 C66.8841852,120.518681 65.6011431,122.748058 63.5160431,123.959559 C61.4336109,125.16951 58.8621914,125.16951 56.7797591,123.959559 C54.6946591,122.748058 53.411617,120.518681 53.411617,118.107172 L53.411617,118.070044 C53.411617,115.658534 54.6946591,113.429158 56.7797591,112.217657 C58.8621914,111.007706 61.4336109,111.007706 63.5160431,112.217657 Z" id="Polygon-Copy" stroke="#FFFFFF" stroke-width="2.41113601" fill="#BFB0FF"></path>
                                    <path d="M64.0346025,1.06098367 C66.1197025,2.27248445 67.4027446,4.50186141 67.4027446,6.91337052 L67.4027446,6.9504989 C67.4027446,9.36200801 66.1197025,11.591385 64.0346025,12.8028858 C63.0403069,13.380599 61.9345338,13.6824725 60.8237372,13.708506 L54.6537237,31.1519658 C55.634942,31.4148333 56.5879382,31.8069184 57.4867064,32.3265427 L58.0312942,32.6413971 C58.858658,33.1197389 59.5892528,33.7142662 60.2095921,34.3957356 L94.379,24.0075206 L94.3826964,23.8771859 C94.4704776,21.5653749 95.7353186,19.450673 97.7459508,18.2824401 C99.8283831,17.0724893 102.399803,17.0724893 104.482235,18.2824401 C106.567335,19.4939408 107.850377,21.7233178 107.850377,24.1348269 L107.850377,24.1719553 C107.850377,26.5834644 106.567335,28.8128414 104.482235,30.0243421 C102.399803,31.2342929 99.8283831,31.2342929 97.7459508,30.0243421 C96.8702234,29.5155203 96.1359743,28.8271511 95.5788369,28.02115 L62.4091283,38.7504034 C62.6311582,39.8620366 62.6478188,41.0260338 62.4336734,42.1872394 L61.9942426,44.5700578 C61.778769,45.7384657 61.3668154,46.8408248 60.7909013,47.8391135 L75.8030336,67.4330821 C77.7016887,66.6717581 79.8662078,66.8138507 81.6656217,67.85936 C83.7507218,69.0708607 85.0337638,71.3002377 85.0337638,73.7117468 L85.0337638,73.7488752 C85.0337638,75.2169008 84.5582859,76.6174308 83.7158388,77.7619233 L98.2578036,96.7437667 C99.6748701,96.5774986 101.133075,96.864747 102.407997,97.6055119 C104.493097,98.8170127 105.776139,101.04639 105.776139,103.457899 L105.776139,103.495027 C105.776139,105.906536 104.493097,108.135913 102.407997,109.347414 C100.325565,110.557365 97.7541455,110.557365 95.6717132,109.347414 C93.5866132,108.135913 92.3035712,105.906536 92.3035712,103.495027 L92.3035712,103.457899 C92.3035712,101.842383 92.8793895,100.308607 93.8864164,99.1078392 L79.7679187,80.3456227 C78.1424914,80.7108376 76.4119785,80.4627174 74.9293377,79.601262 C72.8442377,78.3897613 71.5611956,76.1603843 71.5611956,73.7488752 L71.5611956,73.7117468 C71.5611956,72.5743394 71.8466227,71.4774494 72.3670093,70.5087676 L57.7818769,51.1234563 C57.026237,51.6522818 56.193229,52.0834566 55.2993468,52.3976959 C54.8323263,52.5618745 54.3584147,52.6925037 53.8808648,52.7901287 L28.2989678,98.0848387 C29.1779936,99.2435011 29.6755905,100.674649 29.6755905,102.176432 L29.6755905,102.213561 C29.6755905,104.62507 28.3925485,106.854447 26.3074484,108.065947 C24.2250162,109.275898 21.6535967,109.275898 19.5711644,108.065947 C17.4860644,106.854447 16.2030224,104.62507 16.2030224,102.213561 L16.2030224,102.176432 C16.2030224,99.7649231 17.4860644,97.5355461 19.5711644,96.3240453 C20.9005366,95.5516433 22.4291821,95.2723232 23.9026788,95.4860852 L47.9678102,52.3348179 C46.9177641,51.945387 45.9211928,51.3897453 45.018997,50.6747475 L44.5447382,50.2988935 C43.6071615,49.555856 42.8171737,48.6738644 42.191652,47.6971753 L13.4715,64.1977385 C13.4722113,64.2378475 13.4725681,64.278011 13.4725681,64.3182251 L13.4725681,64.3553535 C13.4725681,66.7668626 12.1895261,68.9962396 10.1044261,70.2077404 C8.02199381,71.4176911 5.45057431,71.4176911 3.36814203,70.2077404 C1.28304202,68.9962396 9.14230919e-13,66.7668626 9.09494702e-13,64.3553535 L9.09494702e-13,64.3182251 C9.08311199e-13,61.906716 1.28304202,59.6773391 3.36814203,58.4658383 C5.45057431,57.2558875 8.02199381,57.2558875 10.1044261,58.4658383 C10.690349,58.8062757 11.2129385,59.2270884 11.661522,59.7097318 L40.5909288,43.2693067 C40.4624425,42.239323 40.4836335,41.1820954 40.6665334,40.129174 L40.7567617,39.6097466 C40.9110002,38.7218238 41.1756011,37.8688572 41.5376429,37.0670323 L26.0171155,29.4198599 C25.7443727,29.6419851 25.4523583,29.8443921 25.1426484,30.0243421 C23.0602161,31.2342929 20.4887966,31.2342929 18.4063643,30.0243421 C16.3212643,28.8128414 15.0382223,26.5834644 15.0382223,24.1719553 L15.0382223,24.1348269 C15.0382223,21.7233178 16.3212643,19.4939408 18.4063643,18.2824401 C20.4887966,17.0724893 23.0602161,17.0724893 25.1426484,18.2824401 C27.2277484,19.4939408 28.5107904,21.7233178 28.5107904,24.1348269 L28.5107904,24.1719553 C28.5107904,24.8257248 28.4164902,25.4661081 28.2374737,26.0764526 L44.8112279,32.9724437 C45.5098507,32.4456853 46.2790627,32.0017833 47.1061564,31.6566548 C47.7904398,31.3711181 48.4937932,31.1536539 49.2067424,31.003651 L55.8263159,11.6488825 C54.6262957,10.4042331 53.9301764,8.72677426 53.9301764,6.9504989 L53.9301764,6.91337052 C53.9301764,4.50186141 55.2132184,2.27248445 57.2983185,1.06098367 C59.3807507,-0.148967084 61.9521702,-0.148967084 64.0346025,1.06098367 Z" id="Combined-Shape" stroke="#FFFFFF" stroke-width="2.41113601" fill="#8559FF"></path>
                                </g>
                                <g id="A-Human/Standing" transform="translate(101.360000, 103.600000)">
                                    <g id="Mask">
                                        <g id="path-10-link" transform="translate(0.714619, 0.714619)" fill="#000000" fill-rule="nonzero">
                                            <ellipse id="path-10" cx="28.0488136" cy="27.2696799" rx="28.0488136" ry="27.2696799"></ellipse>
                                        </g>
                                        <g id="Oval">
                                            <ellipse stroke="#FFFFFF" stroke-width="7.27999998" fill="#BFB0FF" fill-rule="evenodd" cx="28.7634331" cy="27.9842993" rx="32.2247782" ry="31.4456445"></ellipse>
                                            <ellipse stroke="#D6DFE3" stroke-width="3.97599999" cx="28.7634331" cy="27.9842993" rx="30.5727782" ry="29.7936445"></ellipse>
                                        </g>
                                    </g>
                                    <g id="A-Human/Sitting-Clipped" transform="translate(0.714619, 1.504756)">
                                        <mask id="mask-3" fill="white">
                                            <use xlink:href="#path-2"></use>
                                        </mask>
                                        <g id="path-10"></g>
                                    </g>
                                </g>
                            </g>
                            <g id="humaaan-12" transform="translate(127.437797, 132.200002) scale(-1, 1) translate(-127.437797, -132.200002) translate(96.437797, 103.200002)">
                                <g id="Mask" transform="translate(2.400000, 0.000000)">
                                    <ellipse id="Oval" cx="29.3101886" cy="28.9245282" rx="28.9245282" ry="28.5388679"></ellipse>
                                </g>
                                <g id="Clipped" transform="translate(0.742641, 0.742641)">
                                    <mask id="mask-5" fill="white">
                                        <use xlink:href="#path-4"></use>
                                    </mask>
                                    <g id="path-13"></g>
                                    <g id="Group" mask="url(#mask-5)">
                                        <g transform="translate(21.549057, 49.071321) scale(-1, 1) translate(-21.549057, -49.071321) translate(-17.950943, 1.571321)">
                                            <g id="Head/Front/Pony" transform="translate(25.752986, 21.479140) rotate(15.000000) translate(-25.752986, -21.479140) translate(7.752986, 4.479140)">
                                                <g id="Head" transform="translate(18.545017, 4.256296)" fill="#D4A181" fill-rule="nonzero">
                                                    <path d="M14.7339103,3.52673047 C16.9723146,7.69718426 16.706334,18.2758862 13.8133958,19.0212626 C12.6596567,19.3185278 10.2018051,18.5903122 7.70032778,17.0831488 L9.27065732,28.1862508 L0,28.1862508 L3.19157804,13.3171441 C1.41162018,11.2287444 0.206901782,8.6693743 0.408208801,5.80152345 C0.988225112,-2.46147847 12.4955059,-0.643723332 14.7339103,3.52673047 Z" id="Path"></path>
                                                </g>
                                                <path d="M30.5196156,0.00905299168 C32.6529667,0.00905299168 34.3823895,1.73773984 34.3823895,3.87018318 C34.3823895,5.93267613 32.7645661,7.61746696 30.7282055,7.72577983 C29.564022,8.08500095 28.0675964,8.34874128 26.4080808,8.45995802 C26.5692322,9.06526902 26.6568418,9.75349007 26.6568418,10.5312361 C26.6568418,11.2181588 26.5809517,11.9466994 26.4412185,12.6864221 C26.0817967,12.2577928 25.6003706,11.9785567 25.1117323,11.9785567 C23.7452505,11.9785567 22.7940679,13.1022032 22.7940679,14.2952348 C22.7940679,15.8094664 23.668658,16.9048778 24.9453606,16.9923764 C23.7956464,19.1979781 22.2056309,20.8591562 20.6171392,20.8591562 C17.6000364,20.8591562 15.4547976,16.8270859 15.4547976,12.4919205 C15.4547976,12.3402105 15.4577929,12.1895057 15.4637033,12.0399216 C12.2722331,14.2272923 9.81253745,18.5424781 5.58956103,18.5424781 C-0.155741978,18.5424781 -2.43744133,6.95908738 5.58956103,6.95908738 C11.0486491,6.95908738 13.7338827,7.75469996 16.0480646,8.93121448 C16.5043122,7.64525687 17.1998013,6.56445693 18.0502149,5.80944221 C18.2549037,5.57855891 18.5711324,5.35658167 18.9796365,5.15093468 C19.2243853,5.01726949 19.4773686,4.90840667 19.7372963,4.82614207 C21.1322796,4.3129597 23.1561097,3.95051723 25.4171243,3.87159446 C25.8387375,3.85687766 26.2528119,3.8525703 26.6567596,3.85799369 C26.663135,1.73145635 28.3901453,0.00905299168 30.5196156,0.00905299168 Z" id="hair" fill="#191847" fill-rule="nonzero"></path>
                                            </g>
                                            <g id="Body/Pointing-Forward" transform="translate(39.495791, 60.830522) rotate(10.000000) translate(-39.495791, -60.830522) translate(4.495791, 32.830522)">
                                                <path d="M62.8387466,17.9186493 C64.512407,17.5742357 68.5973333,14.5374213 69.3011866,15.1540093 C70.342492,16.0662117 69.414,18.8672014 68.3200165,20.2605437 C66.2753616,22.8646989 64.5824753,23.7552414 60.3982453,24.9214121 C58.2105136,25.5311463 55.8451883,26.7533062 53.3022703,28.5878916 L52.9668946,22.6802172 L58.8562818,19.4462761 C59.6826463,16.3032019 60.6704645,14.7218149 61.8197355,14.7021153 C62.7026155,14.2914952 61.1650863,18.263063 62.8387466,17.9186493 Z M52.7022182,4.45632618 C51.6208265,6.37487236 50.569686,8.44150849 51.1206127,9.03257104 C51.6715385,9.62363367 53.0453233,8.79794529 53.7025696,9.78000075 C54.1407345,10.4347044 51.7937327,11.4689519 46.661565,12.8827431 L36.9193068,21.7990309 L31.9681385,16.4871493 L45.3757025,9.14694873 C47.6053049,6.5004144 49.8020846,4.44500968 51.9660404,2.98073459 C52.6272759,2.70479708 53.7836099,2.53777999 52.7022182,4.45632618 Z" id="Skin" fill="#D4A181" fill-rule="nonzero"></path>
                                                <path d="M25.872511,13.4169166 C30.5186565,14.1025851 36.85906,14.103002 44.1220581,10.9608086 L45.7988458,17.1488914 C40.531239,20.9437855 33.5425358,23.6403381 27.9704663,22.5967532 C23.5793684,21.7743508 22.1697689,16.0844495 25.872511,13.4169166 Z" id="Sleeve" fill="#2026A2" fill-rule="nonzero" transform="translate(34.772620, 16.891856) rotate(-9.000000) translate(-34.772620, -16.891856) "></path>
                                                <path d="M25.7512386,-1.65512699e-14 C26.34261,7.59446176 29.3191457,15.9642164 31.761912,24.232921 C36.7470976,25.4758511 45.1077671,24.0102212 56.8435489,19.8359469 C59.7544347,25.8554868 61.1000647,30.1469571 60.8804381,32.7103578 C50.8117967,37.9675888 42.1822902,40.3111371 35.0729735,40.4652975 C35.301836,44.6803101 34.7885249,48.6928701 33.0635402,52.3592298 C29.5178026,59.8954992 8.75553885,52.9160734 1.77462949,54.2897949 C-2.59702116,40.0983473 5.8556977,34.3310004 5.8624989,25.2504851 C5.86994685,15.3063532 13.8580129,-1.65512699e-14 15.0332968,-1.65512699e-14 L15.0332968,-1.65512699e-14 L25.7512386,-1.65512699e-14 Z" id="Clothes" fill="#005EB8" fill-rule="nonzero"></path>
                                            </g>
                                        </g>
                                    </g>
                                </g>
                            </g>
                        </g>
                        <path d="M468.279879,91.6139453 L494.911149,106.989516 C498.143851,108.855918 500.135278,112.30517 500.135278,116.037972 L500.135278,146.789114 C500.135278,150.521917 498.143851,153.971169 494.911149,155.83757 L468.279879,171.213141 C465.047177,173.079542 461.064324,173.079542 457.831622,171.213141 L431.200352,155.83757 C427.96765,153.971169 425.976223,150.521917 425.976223,146.789114 L425.976223,116.037972 C425.976223,112.30517 427.96765,108.855918 431.200352,106.989516 L457.831622,91.6139453 C461.064324,89.747544 465.047177,89.747544 468.279879,91.6139453 Z" id="Polygon-Copy-6" stroke="#E11D84" stroke-width="4.4611843" fill="#FFFFFF" transform="translate(463.055750, 131.413543) rotate(30.000000) translate(-463.055750, -131.413543) "></path>
                        <g id="Group-54" transform="translate(440.000000, 108.000000)">
                            <g id="Group-3" transform="translate(0.000000, 0.166280)">
                                <mask id="mask-7" fill="white">
                                    <use xlink:href="#path-6"></use>
                                </mask>
                                <g id="Clip-2"></g>
                                <path d="M45.2705814,22.8057281 C45.2705814,35.306716 35.1365647,45.4410693 22.6352402,45.4410693 C10.1342523,45.4410693 -0.000100980004,35.306716 -0.000100980004,22.8057281 C-0.000100980004,10.3044036 10.1342523,0.170386927 22.6352402,0.170386927 C35.1365647,0.170386927 45.2705814,10.3044036 45.2705814,22.8057281" id="Fill-1" fill="#F2F2F2" mask="url(#mask-7)"></path>
                            </g>
                            <path d="M22.5132563,30.2687563 C22.5213347,30.2478871 22.5334523,30.2283643 22.5546581,30.2122075 C25.4376373,28.004448 26.4457543,26.5765907 26.8681873,26.3399609 C26.7301813,26.0063903 26.6379529,25.6748393 26.5766917,25.3580987 C26.4723457,25.4587421 26.3659801,25.5570293 26.2569217,25.6529603 C25.9172923,25.9511879 25.5541009,26.2241705 25.1639815,26.4527219 C24.831084,26.6476133 24.4786638,26.8095179 24.1110966,26.927328 C23.7771894,27.0347034 23.432511,27.1053894 23.0834568,27.1407324 C22.6502525,27.1844904 22.2052673,27.1710264 21.7747559,27.1026966 C21.4213259,27.046821 21.0746279,26.9522364 20.7417305,26.8216355 C20.3681044,26.6748779 20.0129914,26.4830159 19.6790842,26.2605233 C19.2872818,25.9989851 18.924427,25.6953719 18.5851342,25.3688699 C18.5191606,25.7054699 18.4175074,26.0585633 18.2640178,26.4126665 C18.742663,26.7953807 19.8056458,28.1703918 22.4721911,30.2122075 C22.4930603,30.2283643 22.5055145,30.2478871 22.5132563,30.2687563 Z" id="Fill-4" fill="#E7C0A8"></path>
                            <path d="M17.4516673,31.2974396 C18.2016121,32.3610956 20.0108372,35.1720424 21.269048,37.6679315 C21.5299131,35.9808922 21.7429809,34.6567077 21.8281407,34.1901801 C21.7672161,34.1541639 21.7116771,34.1077131 21.6847491,34.0477983 C21.3094401,33.2069715 20.8917194,32.7353949 20.8705136,32.0244956 C20.4689498,32.4590462 20.1636536,32.9205249 20.2043822,33.3520461 C20.3184896,34.5590937 16.6428175,30.2708096 16.4906742,28.4121043 C16.4896644,28.4124409 16.4886546,28.4127775 16.4876448,28.4134507 C16.4862984,28.4188363 16.4839422,28.4238853 16.4825958,28.4296075 C16.4267202,28.6655641 16.1207508,29.4097867 17.4516673,31.2974396 Z" id="Fill-6" fill="#76A2CF"></path>
                            <path d="M14.6281654,29.3131825 C14.5719532,29.3491987 14.5167508,29.3865613 14.461885,29.4245971 C14.5063162,29.4094501 14.5436788,29.3966593 14.5837342,29.3828587 C14.5985446,29.3592967 14.6130184,29.3357347 14.6281654,29.3131825" id="Fill-8" fill="#76A2CF"></path>
                            <path d="M23.3172928,34.1902474 C23.4011062,34.6493699 23.6087884,35.9378747 23.8639312,37.5851952 C25.0612175,35.1158975 26.7516227,32.3618362 27.4739664,31.2975069 C28.3905282,29.9467311 28.4911716,29.1732242 28.4743416,28.765265 C27.9627096,30.7589469 24.7151927,34.4878019 24.8222315,33.3517768 C24.8592575,32.9616574 24.6128663,32.5473028 24.2685244,32.1501148 C24.2052436,32.7940306 23.8137778,33.2571922 23.4606844,34.0478656 C23.434093,34.1077804 23.378554,34.1542312 23.3172928,34.1902474" id="Fill-10" fill="#76A2CF"></path>
                            <path d="M21.7747223,27.1025956 C22.2052337,27.1709254 22.6502189,27.1843894 23.0834231,27.1406314 C23.4324773,27.1052884 23.7774923,27.0346024 24.1110629,26.927227 C24.4786302,26.809417 24.8310504,26.6475124 25.1639478,26.4526209 C25.5540672,26.2240695 25.9172586,25.9514235 26.256888,25.6528593 C26.3659464,25.5572649 26.4723121,25.4589777 26.5766581,25.3579977 C28.0381753,23.9469704 28.0257211,20.3854057 28.3781413,20.6368459 C29.1836252,21.1780987 29.6992964,19.5671311 29.8002764,18.6105138 C29.8837532,17.8178208 29.5973066,17.4139008 29.2681118,17.5253154 C29.1987722,17.8683108 28.6679539,17.7319878 28.4579155,18.0756564 C28.2458575,18.422691 28.3367395,16.8504323 28.0337995,16.4054471 C27.7308595,15.9604619 27.5655889,15.1778669 26.9294149,15.0593837 C26.2932408,14.9405639 21.641092,15.4562351 18.8170179,13.9539892 C17.8351557,13.4319226 17.6719047,15.2485529 17.1266127,16.0496609 C16.5813206,16.8504323 16.9751426,18.3338286 16.6419086,18.0369474 C16.5193862,17.927889 16.3955174,17.8558566 16.2824198,17.7979614 C16.2669362,17.7922392 16.2501062,17.7834876 16.232603,17.7727164 C16.0666592,17.6909226 15.929663,17.631681 15.862343,17.5199298 C15.5412266,17.4310674 15.2679074,17.833641 15.3493646,18.6105138 C15.4503446,19.5671311 15.9663524,21.1780987 16.7718362,20.6368459 C17.1242565,20.3854057 17.1114657,23.9469704 18.5716365,25.3566513 C18.5756757,25.3610271 18.5807247,25.3647297 18.5851005,25.3687689 C18.9243933,25.6952709 19.2872481,25.9992207 19.6790506,26.2604223 C20.0129578,26.4832516 20.3680708,26.674777 20.7416968,26.8215346 C21.0745942,26.952472 21.4216288,27.04672 21.7747223,27.1025956 Z" id="Fill-12" fill="#E7C0A8"></path>
                            <path d="M16.2822515,17.7980287 C16.3956857,17.8559239 16.5192179,17.9276197 16.6417403,18.0370147 C16.9753109,18.3338959 16.5814889,16.8504997 17.126781,16.0493916 C17.672073,15.2486202 17.8349874,14.4319899 18.8168496,14.9540565 C19.7407712,15.44553 21.3716788,15.4993588 22.4822891,15.5076992 C24.7663888,15.5248521 26.5012027,14.979394 26.9292466,15.0591144 C27.5654206,15.1779342 27.7306912,15.9605292 28.0336312,16.4055144 C28.3365712,16.8504997 28.2456892,18.4227583 28.4577472,18.0757237 C28.6677856,17.7320551 29.1986039,17.8683781 29.2679435,17.5253827 C29.2686167,17.5216801 29.2706363,17.5199971 29.2713095,17.5166311 C29.3318975,17.1605083 30.8210159,13.7951813 28.7913178,10.5318442 C26.7612832,7.26884365 22.858406,6.98138724 20.6257381,7.50412706 C17.7451152,8.17867349 16.5094565,9.96568297 16.0550465,10.6183504 C14.6312284,12.9617597 15.7904789,17.3907427 15.8547695,17.5095625 C15.8567891,17.5132651 15.8601551,17.5159579 15.8625113,17.5199971 C15.9298313,17.6317483 16.0664909,17.6906533 16.2324347,17.7727837 C16.2489281,17.7808621 16.2650849,17.7889405 16.2822515,17.7980287 Z" id="Fill-14" fill="#3A3A3A"></path>
                            <path d="M23.0459259,34.2584089 L22.6601822,34.2829807 L22.6601822,34.2944251 L22.5726662,34.2887029 L22.4854868,34.2944251 L22.4854868,34.2829807 L22.0997432,34.2584089 C22.0172762,34.2530233 21.9321164,34.2469645 21.8597474,34.2112849 C21.848303,34.2055627 21.8392148,34.1968111 21.828107,34.1904157 C21.7432838,34.6566068 21.5298794,35.9807912 21.2690144,37.6681671 C21.9516392,39.0219723 22.4723594,40.2838858 22.5726662,41.122693 C22.6753292,40.2657094 23.1923469,38.9701359 23.8638639,37.5853635 C23.6087211,35.9377064 23.4010389,34.6492016 23.3172255,34.1904157 C23.3064543,34.1968111 23.2973661,34.2055627 23.2859217,34.2112849 C23.2135527,34.2469645 23.1283929,34.2530233 23.0459259,34.2584089 Z" id="Fill-16" fill="#D9920D"></path>
                            <path d="M21.8281407,34.1901465 C21.8389119,34.1965419 21.8483367,34.2056301 21.8597811,34.2113523 C21.9321501,34.2470319 22.0173099,34.2530907 22.0997769,34.2584763 L22.4855205,34.2830481 L22.4855205,34.2944925 L22.5726999,34.2887703 L22.6602159,34.2944925 L22.6602159,34.2830481 L23.0459595,34.2584763 C23.1284265,34.2530907 23.2135863,34.2470319 23.2859553,34.2113523 C23.2973997,34.2056301 23.3064879,34.1968785 23.3172591,34.1901465 C23.3785203,34.1541303 23.4340593,34.1076795 23.4606507,34.0477647 C23.8137442,33.2570912 24.20521,32.7939296 24.2684908,32.1500138 C23.6158233,31.3970395 22.6127553,30.7070095 22.5131217,30.3640141 C22.4195469,30.6881599 21.5201517,31.3209679 20.8705136,32.024462 C20.8917194,32.7356978 21.3094401,33.2069378 21.6847491,34.0477647 C21.7116771,34.1076795 21.7672161,34.1541303 21.8281407,34.1901465 Z" id="Fill-18" fill="#EEA317"></path>
                            <path d="M17.5497525,26.9610889 C17.3656323,27.2047873 17.0313885,27.5615834 16.8263991,27.7591676 C16.7173407,27.8907782 16.5638511,28.1166368 16.4901357,28.4054396 C16.4901357,28.4074592 16.4904723,28.4098154 16.4908089,28.4121716 C16.6426155,30.2708769 20.3182876,34.5591611 20.2041802,33.3517768 C20.1634516,32.9205922 20.4690845,32.4591136 20.8706483,32.0242263 C21.5199497,31.3210689 22.4193449,30.6879243 22.5132563,30.3637785 C22.6128899,30.7071105 23.615958,31.3971405 24.2686254,32.1501148 C24.6126306,32.5473028 24.8590218,32.9616574 24.8223324,33.3517768 C24.7152936,34.4878019 27.9628106,30.7589469 28.4744426,28.765265 C28.467374,28.5949454 28.4401094,28.4868968 28.4431388,28.4296748 C28.45391,28.2155972 28.4128448,28.0557122 28.3556228,27.9315068 C28.2576722,27.7965302 28.1247152,27.6857888 28.0233986,27.5757206 C28.0116176,27.5629298 28.0015196,27.5524952 27.9904118,27.5407142 C27.9352094,27.484502 27.8789972,27.4266068 27.8184092,27.3606331 C27.7271906,27.2650387 27.639338,27.1670881 27.4791164,26.9573863 C27.4723844,26.9482981 27.4649792,26.9351707 27.4569008,26.9284387 C27.4579106,26.9274289 27.4589204,26.9270923 27.4599302,26.9264191 C27.3377443,26.7648511 27.2135389,26.5888093 27.0903433,26.3801173 C27.0385069,26.2929379 26.9698405,26.2828399 26.8681873,26.3397253 C26.4457543,26.5766917 25.4376373,28.004549 22.5546581,30.2123085 C22.5334523,30.2284653 22.5213347,30.2479881 22.5132563,30.2688573 C22.5055145,30.2479881 22.4933969,30.2284653 22.4721911,30.2123085 C19.8056458,28.1701562 18.742663,26.7954817 18.2640178,26.4127675 C18.1004302,26.2818301 18.0041625,26.2656733 17.9365059,26.3801173 C17.8240815,26.5699597 17.7113205,26.7322009 17.5995693,26.8829977 C17.6005791,26.8833343 17.6022621,26.8833343 17.6032719,26.8836709 C17.6002425,26.8890565 17.5521087,26.9557033 17.5497525,26.9610889" id="Fill-20" fill="#C3DFF7"></path>
                            <path d="M17.7060359,44.4909147 L17.6922353,44.3656995 C17.4303605,42.009836 17.2869689,40.680266 17.2654265,40.4136788 L17.1991163,40.4190644 C17.1048683,40.4268062 17.0234111,40.3581398 17.0133131,40.2642284 C16.8503987,38.7404401 16.0853068,36.4091484 14.1384124,36.567687 C12.2302269,36.7228596 12.2581647,39.8522299 12.2962005,40.6425668 C12.3009129,40.740854 12.2265243,40.8236576 12.1285737,40.831736 L12.0541851,40.8377948 L12.0545217,40.8377948 C12.0700053,41.0276372 12.1117437,41.762435 12.1787271,43.0226655 C13.913227,43.9331685 15.7800106,44.6238717 17.7430619,45.0607786 C17.7423887,44.8564624 17.7245489,44.6585415 17.7060359,44.4909147" id="Fill-22" fill="#F5F5F5"></path>
                            <path d="M11.8385591,40.8545575 C11.7379157,40.8602797 11.6510729,40.7845447 11.6456873,40.6832281 C11.6227985,40.238916 11.6059685,39.2119494 11.8543793,38.222682 C12.2448353,36.6685997 13.058061,36.1243175 13.7692968,35.9667887 C13.7672772,35.9526515 13.7605452,35.9405339 13.7602086,35.9257235 C13.7268852,34.4241508 13.8342606,33.1716621 14.0281422,32.1224799 C13.5010266,32.0305881 13.1613972,31.9238859 13.3158966,31.8084321 C13.7915124,31.4546655 13.8278652,30.7168382 14.500392,29.5131566 C14.5259736,29.467379 14.5562676,29.4263138 14.5838688,29.3825558 C14.5434768,29.3963564 14.5061142,29.4094838 14.461683,29.4246308 C13.0880184,29.8888022 9.78597222,30.9110564 8.80478318,31.5556455 C8.80310018,31.5569919 8.80612958,31.5680997 8.80848578,31.5788709 C9.00741638,31.4738517 9.16898439,31.4358159 9.23596779,31.5327567 C10.118533,32.6522883 10.4218096,35.2575724 10.7271059,38.0426009 C10.8213539,38.9005944 10.9125725,40.7040973 10.9549841,42.3372805 C11.2831691,42.5362111 11.6167397,42.7260535 11.9553593,42.9084908 C11.8924151,41.7256783 11.8530329,41.0373313 11.8382225,40.8552307 C11.8382225,40.8552307 11.8385591,40.8548941 11.8385591,40.8545575" id="Fill-24" fill="#F5F5F5"></path>
                            <path d="M17.023815,32.4379078 C17.023815,32.4379078 15.7437252,32.3537578 14.6800691,32.2184446 C14.5599029,32.8637068 14.4733967,33.5860504 14.4336779,34.3932172 L17.023815,32.4379078 Z" id="Fill-26" fill="#F5F5F5"></path>
                            <path d="M21.0741903,41.1120901 C20.5645779,40.5418897 19.9556685,39.7088047 19.3373342,39.2580973 C17.4776191,37.902609 14.7902046,34.8819605 14.4303792,34.4740013 C14.40951,34.9287479 14.3997486,35.4026807 14.411193,35.9112833 C14.411193,35.9112833 14.4105198,35.9129663 14.4105198,35.9136395 C16.3644829,35.9715347 17.4395833,38.0352294 17.662076,40.2052897 C17.672174,40.3012207 17.5994684,40.3867171 17.5032007,40.3944589 L17.4816583,40.3961419 C17.5032007,40.6607095 17.6465924,41.98826 17.907794,44.3417673 L17.9226044,44.4723681 C17.9424638,44.6517759 17.9636696,44.8762881 17.9623232,45.1112349 C18.7853102,45.2859303 19.6241174,45.4165311 20.4777351,45.4989981 L21.7019493,45.4989981 L22.6390438,45.4989981 C22.6629424,44.3666757 22.6848214,43.4814176 22.703671,42.907178 C22.1529933,42.4228106 21.6565083,41.7640844 21.0741903,41.1120901" id="Fill-28" fill="#F5F5F5"></path>
                            <path d="M9.23583315,31.5327903 C9.16918635,31.4355129 9.00761834,31.4738853 8.80835114,31.5789045 C8.30277791,31.8454917 7.54778408,32.5560544 7.43805248,32.6647762 C6.49759204,33.593119 5.96408101,35.0936819 5.31612599,37.4882544 C6.91329306,39.3967765 8.81710274,41.0400577 10.955186,42.3373142 C10.9124378,40.7041309 10.8212192,38.900628 10.7273078,38.0426346 C10.421675,35.2572695 10.118735,32.652322 9.23583315,31.5327903" id="Fill-30" fill="#E2E2E2"></path>
                            <path d="M36.1640026,31.5327903 C36.2330056,31.4328201 36.4019788,31.4759049 36.6093244,31.5883293 C36.61471,31.5684699 36.6170662,31.5573621 36.61471,31.5556791 C35.5009006,30.8239107 31.3923608,29.6044088 30.5141714,29.2681454 C30.5023904,29.2637696 30.4912826,29.26175 30.4798382,29.2577108 C30.7985984,29.8400289 31.0167152,30.4765395 31.1587604,31.1389683 C31.2846488,31.4341665 31.4078444,31.6583421 31.6098044,31.8084657 C31.7188628,31.8899229 31.5808568,31.9670043 31.3058546,32.0376903 C31.5222884,33.8667748 31.2809462,35.7705845 31.1072606,37.135161 C31.0348916,37.6996392 30.9729572,38.187036 30.9729572,38.4778584 C30.9729572,38.5088256 30.9631958,38.5364268 30.955454,38.5647012 C31.3142696,38.7468018 31.5626804,39.1150423 31.5626804,39.5448805 C31.5626804,40.1541265 31.0685516,40.6479187 30.4593056,40.6479187 C29.8500595,40.6479187 29.3562673,40.1541265 29.3562673,39.5448805 C29.3562673,38.9824218 29.7787003,38.523636 30.322646,38.4553062 C30.3250022,38.1240918 30.384917,37.6508322 30.4609886,37.052694 C30.6279422,35.7446663 30.849425,33.9081766 30.635684,32.1645886 C29.5262503,32.330869 27.9018187,32.4379078 27.9018187,32.4379078 L30.5370602,34.4268773 C30.5370602,34.4268773 27.585078,37.8029754 25.5883668,39.2580973 C24.9700325,39.7088047 24.3611231,40.5418897 23.8515107,41.1120901 C23.2644803,41.76947 23.1921113,42.13973 22.716832,42.9196322 C22.7124562,42.915593 22.7080804,42.9108806 22.7037046,42.907178 C22.684855,43.4814176 22.662976,44.3666757 22.6390774,45.4989981 L22.767322,45.4989981 L23.4549959,45.4989981 L24.8825165,45.4989981 C28.3602679,45.1630713 31.6081214,44.0421933 34.4453229,42.3124058 C34.4880711,40.6856179 34.5789531,38.8959156 34.6725279,38.0426346 C34.9781608,35.2572695 35.2811008,32.652322 36.1640026,31.5327903" id="Fill-32" fill="#EDEDED"></path>
                            <path d="M14.5004593,29.5131902 C13.8279325,30.7168719 13.7915797,31.4546991 13.3159639,31.8084657 C13.1611279,31.9239195 13.5010939,32.0306217 14.0282095,32.122177 C14.3550481,30.3543537 14.9313074,29.1698582 15.5169914,28.3842338 C15.227852,28.6127852 14.8936082,28.9170716 14.6280307,29.3132498 C14.6128837,29.335802 14.5984099,29.359364 14.5839361,29.3825894 C14.5563349,29.4263474 14.5260409,29.4674126 14.5004593,29.5131902" id="Fill-34" fill="#E0E0E0"></path>
                            <path d="M31.6097034,31.8085667 C31.4077434,31.6584431 31.2848844,31.4339309 31.158996,31.1387327 C31.2222768,31.4346041 31.270074,31.7348513 31.3057536,32.0374547 C31.5807558,31.9667687 31.7187618,31.8900239 31.6097034,31.8085667" id="Fill-36" fill="#E0E0E0"></path>
                            <path d="M28.3641724,27.9413018 C28.3618162,27.9375992 28.3581136,27.9349064 28.3557574,27.9315404 C28.4129794,28.0557458 28.453708,28.2152942 28.4429368,28.4297085 C28.440244,28.4869305 28.4675086,28.5949791 28.4745772,28.7652987 C28.4910706,29.1732579 28.3907638,29.9467647 27.4738654,31.2975406 C26.7515218,32.3618698 25.0611165,35.1159311 23.8638302,37.5852288 C23.1923132,38.9703379 22.6752956,40.2659114 22.5726326,41.122895 C22.4726624,40.2837512 21.9516056,39.0221743 21.2689807,37.6680324 C20.0107699,35.1721433 18.2018814,32.3611966 17.4516,31.2975406 C16.1206835,29.4095511 16.4266529,28.6653285 16.4825285,28.4297085 C16.4838749,28.4239863 16.4862311,28.4189373 16.4875775,28.4132151 C16.4882507,28.4105223 16.4892605,28.4081661 16.4899337,28.4054733 C16.5639857,28.1166704 16.7171387,27.8908118 16.8265337,27.7592012 L16.8258605,27.7595378 C16.1391965,28.3347873 15.1529585,29.6815239 14.6800354,32.2184782 C15.7436915,32.3534548 17.0237813,32.4379414 17.0237813,32.4379414 L14.4336442,34.3929143 C14.4322978,34.4198423 14.431288,34.4474435 14.4302782,34.4740349 C14.7901037,34.8819941 17.4775182,37.9026427 19.3372332,39.2581309 C19.9555675,39.7088383 20.5648135,40.5419234 21.0740893,41.1121238 C21.6567439,41.7637814 22.1528924,42.4228443 22.7039066,42.9068751 C22.7082824,42.9109143 22.7123216,42.9156267 22.717034,42.9196659 C23.1919766,42.1397636 23.2643456,41.7695036 23.851376,41.1121238 C24.3609885,40.5419234 24.9702345,39.7088383 25.5882321,39.2581309 C27.5849434,37.8030091 30.5369255,34.4269109 30.5369255,34.4269109 L27.901684,32.4379414 C27.901684,32.4379414 29.5264523,32.3309026 30.6355493,32.1646222 C30.4295501,30.4853247 29.8199675,28.8921969 28.3641724,27.9413018" id="Fill-38" fill="#E0E0E0"></path>
                            <path d="M27.4789481,26.9572854 C27.6391697,27.1673238 27.7270223,27.2652744 27.8182409,27.3605322 C27.8697407,27.4143882 27.9235967,27.469254 27.9905801,27.5406132 C28.0013513,27.5523942 28.0114493,27.5628288 28.0235669,27.5756196 C28.1248835,27.6856878 28.2575039,27.7964292 28.3554545,27.9314058 C28.3581473,27.9351084 28.3618499,27.9378012 28.3642061,27.9411672 C29.8200012,28.8923988 30.4295838,30.4851901 30.635583,32.1648242 C30.849324,33.9080756 30.6278412,35.7445653 30.4608876,37.0529296 C30.384816,37.6510678 30.3252378,38.1239908 30.3228816,38.4555418 C30.367986,38.4498196 30.4124172,38.4417412 30.4592046,38.4417412 C30.6386124,38.4417412 30.805566,38.4885286 30.955353,38.5646002 C30.9634314,38.5363258 30.9728562,38.5087246 30.9728562,38.4777574 C30.9728562,38.186935 31.0347906,37.6995382 31.1071596,37.13506 C31.2808452,35.7704835 31.522524,33.8666738 31.3057536,32.0375894 C31.270074,31.734986 31.2222768,31.4344021 31.158996,31.1388673 C31.0169508,30.4767751 30.7984974,29.8399279 30.4797372,29.2576098 C29.9267034,28.2474732 29.0703929,27.4032804 27.7643849,26.8903019 C27.6529703,26.8462073 27.5476145,26.8583249 27.4600985,26.9266548 C27.4590887,26.927328 27.4580789,26.9276646 27.4570691,26.9283378 C27.4648109,26.9354064 27.4722161,26.9481972 27.4789481,26.9572854" id="Fill-40" fill="#000000"></path>
                            <path d="M31.227898,39.5447795 C31.227898,39.9692321 30.8838928,40.3135739 30.4594402,40.3135739 C30.0349876,40.3135739 29.6906458,39.9692321 29.6906458,39.5447795 C29.6906458,39.1203269 30.0349876,38.7763217 30.4594402,38.7763217 C30.8838928,38.7763217 31.227898,39.1203269 31.227898,39.5447795 M30.3227806,38.4555418 C29.7784984,38.523535 29.3560654,38.9823209 29.3560654,39.5447795 C29.3560654,40.1540255 29.8501942,40.6478177 30.4594402,40.6478177 C31.0686862,40.6478177 31.5624784,40.1540255 31.5624784,39.5447795 C31.5624784,39.1149413 31.3140676,38.7467009 30.955252,38.5646002 C30.8058016,38.4885286 30.638848,38.4417412 30.4594402,38.4417412 C30.4126528,38.4417412 30.367885,38.4498196 30.3227806,38.4555418" id="Fill-42" fill="#A3A3A3"></path>
                            <path d="M30.4593729,38.7762543 C30.0349203,38.7762543 29.6905784,39.1202596 29.6905784,39.5447122 C29.6905784,39.9691648 30.0349203,40.3135066 30.4593729,40.3135066 C30.8838255,40.3135066 31.2278307,39.9691648 31.2278307,39.5447122 C31.2278307,39.1202596 30.8838255,38.7762543 30.4593729,38.7762543" id="Fill-44" fill="#FFFFFF"></path>
                            <path d="M14.0282768,32.1223453 C13.8340586,33.1718641 13.7270198,34.4243528 13.7603432,35.9259254 C13.7606798,35.9403992 13.7674118,35.9525168 13.7694314,35.966654 C13.0581956,36.1245194 12.2446334,36.668465 11.8545139,38.2225473 C11.6061031,39.2118148 11.6229331,40.239118 11.6458219,40.6830934 C11.6512075,40.78441 11.7377137,40.860145 11.8386937,40.8544228 C11.8400401,40.8544228 11.8413865,40.855096 11.8430695,40.855096 L12.0544544,40.8379294 L12.1285064,40.8318706 C12.226457,40.8237922 12.3008456,40.7409886 12.2961332,40.6427014 C12.258434,39.852028 12.2301596,36.7226576 14.138345,36.5678216 C16.0852395,36.409283 16.8503314,38.7405747 17.0135824,40.2640264 C17.0233438,40.3579378 17.104801,40.4269408 17.199049,40.419199 L17.2653592,40.4138134 L17.481793,40.3963102 L17.5029988,40.3946272 C17.5992664,40.3865488 17.671972,40.3010524 17.6622106,40.2051214 C17.439718,38.0350611 16.3642809,35.9713664 14.4106545,35.9138078 C14.4106545,35.9131346 14.4109911,35.9121248 14.4109911,35.9121248 C14.3998833,35.4025124 14.4096447,34.9285796 14.4301773,34.4741696 C14.4315237,34.4472416 14.4321969,34.4196404 14.4335433,34.3930489 C14.4735987,33.5858821 14.5601049,32.8635385 14.6802711,32.2182763 C15.1531941,29.6816585 16.1390955,28.3349219 16.8260962,27.7596725 L16.8264328,27.7593359 C17.0314222,27.5617517 17.365666,27.204619 17.5497862,26.9612572 C17.5521424,26.955535 17.6002762,26.8888882 17.6033056,26.8838392 C17.6022958,26.883166 17.6006128,26.8835026 17.599603,26.8828294 C17.5194922,26.8434472 17.3814862,26.8909078 17.2919506,26.9249044 C17.0179582,27.027904 16.2609447,27.3867196 15.5170587,28.3844021 C14.9313747,29.1700265 14.3551155,30.3541854 14.0282768,32.1223453" id="Fill-46" fill="#000000"></path>
                            <path d="M12.0543534,40.8377948 L11.8429686,40.8549614 C11.8412856,40.855298 11.8399392,40.8542882 11.8385928,40.8546248 C11.8385928,40.8549614 11.8382562,40.8549614 11.8382562,40.8549614 C11.8530666,41.0373986 11.8924488,41.7257456 11.955393,42.9082215 C12.0287718,42.9479403 12.1045068,42.9839565 12.1788954,43.0226655 C12.1115754,41.762435 12.069837,41.0276372 12.0543534,40.8377948 Z" id="Fill-48" fill="#E5E5E5"></path>
                            <path d="M17.9225034,44.4725027 L17.9080296,44.3419019 C17.6464914,41.9883946 17.5030998,40.6605076 17.4815574,40.3962765 L17.2654602,40.4137797 C17.2870026,40.680367 17.4303942,42.009937 17.692269,44.3658005 L17.7060696,44.4910157 C17.7245826,44.6586425 17.7424224,44.8565633 17.7430956,45.0608795 C17.8164744,45.0770363 17.8888434,45.0958859 17.9622222,45.1113695 C17.9639052,44.8764227 17.9423628,44.6519105 17.9225034,44.4725027" id="Fill-50" fill="#E5E5E5"></path>
                            <path d="M36.6092234,31.588161 C36.4018778,31.4760732 36.2329046,31.4326518 36.1639016,31.532622 C35.2813364,32.6524903 34.9780598,35.2574378 34.6727636,38.0424663 C34.5788522,38.8960839 34.4883068,40.6854496 34.445222,42.3122375 C36.5799392,41.0109418 38.4810561,39.3653044 40.074184,37.4537529 C39.4302682,35.079713 38.8974303,33.5885749 37.9620189,32.6649445 C37.8529605,32.5572325 37.1144601,31.8618168 36.6092234,31.588161" id="Fill-52" fill="#E2E2E2"></path>
                        </g>
                        <g id="Group-11" transform="translate(0.640000, 71.797793)">
                            <path d="M64.0398784,19.0161521 L90.6711488,34.3917233 C93.9038506,36.2581245 95.8952771,39.7073764 95.8952771,43.440179 L95.8952771,74.1913212 C95.8952771,77.9241238 93.9038506,81.3733756 90.6711488,83.2397769 L64.0398784,98.615348 C60.8071765,100.481749 56.8243236,100.481749 53.5916217,98.615348 L26.9603514,83.2397769 C23.7276495,81.3733756 21.736223,77.9241238 21.736223,74.1913212 L21.736223,43.440179 C21.736223,39.7073764 23.7276495,36.2581245 26.9603514,34.3917233 L53.5916217,19.0161521 C56.8243236,17.1497508 60.8071765,17.1497508 64.0398784,19.0161521 Z" id="Polygon" stroke="#8559FF" stroke-width="4.4611843" fill="#FFFFFF" transform="translate(58.815750, 58.815750) rotate(30.000000) translate(-58.815750, -58.815750) "></path>
                            <g id="humaaan-3" transform="translate(59.060002, 57.602208) scale(-1, 1) translate(-59.060002, -57.602208) translate(31.560002, 30.602208)">
                                <g id="Mask" transform="translate(1.003636, 1.003636)">
                                    <g id="path-4-link" transform="translate(1.405091, 1.405091)" fill="#000000" fill-rule="nonzero">
                                        <ellipse id="path-4" cx="25.2916363" cy="24.9403636" rx="25.2916363" ry="24.9403636"></ellipse>
                                    </g>
                                    <ellipse id="Oval" fill="#BFB0FF" cx="26.6967272" cy="26.3454545" rx="26.3454545" ry="25.9941818"></ellipse>
                                </g>
                                <g id="Clipped" transform="translate(0.401455, 0.401455)">
                                    <g id="Group" transform="translate(0.914748, 0.953455)">
                                        <mask id="mask-9" fill="white">
                                            <use xlink:href="#path-8"></use>
                                        </mask>
                                        <use id="Mask" fill="#8559FF" xlink:href="#path-8"></use>
                                        <g mask="url(#mask-9)">
                                            <g transform="translate(30.355955, 97.357704) scale(-1, 1) rotate(10.000000) translate(-30.355955, -97.357704) translate(-30.644045, 4.357704)">
                                                <g id="Head/Front/Short-Beard" transform="translate(54.833055, 20.497315) rotate(-15.000000) translate(-54.833055, -20.497315) translate(44.333055, 2.497315)">
                                                    <g id="Head" transform="translate(0.064606, 1.484760)" fill="#B28B67" fill-rule="nonzero">
                                                        <path d="M17.4143404,4.16347604 C20.0599609,9.08689867 19.7455924,21.5755684 16.3263636,22.4555213 C14.9628787,22.8064198 12.0583622,21.9469466 9.10213582,20.1680528 L10.9571987,33.2752335 L0,33.2752335 L3.77161911,15.7208548 C1.6681645,13.2555222 0.244563698,10.2343055 0.482471176,6.84897927 C1.16800552,-2.9058945 14.7687198,-0.759946557 17.4143404,4.16347604 Z" id="Path"></path>
                                                    </g>
                                                    <path d="M11.538646,0.855982223 C14.6130089,1.11926331 17.3582675,2.0552316 18.1362959,2.61108015 C18.1362959,5.51706745 17.5723241,6.37926538 12.7552362,6.30326584 C11.5715452,6.92740307 10.6615959,8.00218732 9.71379803,9.41126524 C10.1332238,15.2440039 11.2427386,18.1609828 13.0423997,18.1609828 C15.7418911,18.1609828 18.0322178,16.449975 19.2166898,16.449975 C20.0801297,16.449975 19.88735,17.5287746 19.3150169,18.3286279 C18.8428237,18.9885325 16.5432821,19.6246017 16.5432821,20.6476755 C16.5432821,21.6707493 18.3601107,20.8792534 18.3601107,21.4860185 C18.3601107,22.489682 18.6794156,24.3767488 16.9346855,24.3767488 C15.1689603,24.3767488 10.1063137,23.7343063 9.23871319,21.1178193 C8.67884502,19.4293833 8.31683024,15.9308086 8.15266897,10.622095 C8.0461472,10.6078384 7.93682031,10.6012628 7.82595519,10.6012628 C6.31308173,10.6012628 5.08665551,11.8257419 5.08665551,13.3362135 C5.08665551,14.1030108 5.4027213,14.7961042 5.91187636,15.2927125 C5.27803957,16.1859483 4.56769038,17.1190528 3.75370605,18.0818955 C0.695743197,16.250155 -1.57343906,10.8879637 1.41621592,5.73682402 C2.24256597,3.21336077 4.11330682,1.86548419 6.32269684,1.23962185 C8.11241663,0.492164985 9.97031508,0.407888546 11.538646,0.855982223 Z" id="Hair" fill="#191847" fill-rule="nonzero"></path>
                                                </g>
                                                <g id="Bottom/Standing/Baggy-Pants" transform="translate(-0.000000, 75.918128)">
                                                    <polygon id="Leg" fill="#997659" fill-rule="nonzero" points="54.152238 0 76.5604577 56.6257454 91.5897435 104.49804 97.5244829 104.49804 74.5480078 2.3203226e-13"></polygon>
                                                    <path d="M49.6399851,0 C49.4013695,19.8986757 45.9214792,46.6890128 45.36551,47.9293949 C44.9948639,48.7563164 32.1995623,59.2720636 6.97960515,79.4766368 L11.0671958,83.8438961 C40.8244088,66.5210095 56.391524,56.7043433 57.7685414,54.3938972 C59.8340675,50.9282281 66.5587087,19.0366868 71.9576855,0 L49.6399851,0 Z" id="Leg" fill="#B28B67" fill-rule="nonzero"></path>
                                                    <g id="Accessories/Shoe/Flat-Sneaker" transform="translate(12.909080, 88.598565) rotate(50.000000) translate(-12.909080, -88.598565) translate(-0.590920, 83.598565)" fill="#E4E4E4" fill-rule="nonzero">
                                                        <path d="M1.22256057,3.14866372 C0.711886821,4.50979186 0.456549944,5.52824586 0.456549944,6.20402574 C0.456549944,7.02600884 0.593704032,8.22548668 0.868012211,9.8024592 C1.82308664,9.8024592 10.4065014,9.8024592 26.6182564,9.8024592 C27.287414,7.59376195 26.9011375,6.40135734 25.4594268,6.22524542 C24.0177161,6.04913351 22.8200625,5.8901186 21.8664661,5.74820062 L9.89767349,0.420924277 C9.66728629,0.318379619 9.39739172,0.422016384 9.29484699,0.65240359 C9.29316397,0.65618483 9.29153245,0.659988832 9.28995285,0.663814473 L8.5206889,2.52689553 L8.5206889,2.52689553 C7.18604188,3.14862142 6.10150264,3.45948437 5.26707113,3.45948437 C4.58899821,3.45948437 3.65252912,3.18602009 2.45766387,2.63909148 L2.45766382,2.63909155 C1.99906755,2.42917715 1.45713258,2.63077362 1.24721817,3.08936993 C1.23830638,3.10883936 1.2300821,3.12861616 1.22256057,3.14866372 Z" id="shoe"></path>
                                                    </g>
                                                    <polygon id="Pant" fill="#69A1AC" fill-rule="nonzero" points="69.2183863 99.567197 97.4352111 96.509722 76.5231856 1.29553291e-14 51.2504399 1.29553291e-14"></polygon>
                                                    <path d="M12.8161869,72.4308295 L31.3247408,94.3038171 C50.8194018,73.0459572 62.1848401,59.1751998 65.4210558,52.6915449 C68.657271,46.2078899 71.5664639,28.6440416 74.1486346,0 L45.6960866,0 C44.2855739,25.1997784 43.3347902,38.3860021 42.8437354,39.5586711 C42.3526808,40.7313401 32.3434979,51.6887262 12.8161869,72.4308295 Z" id="Pant" fill="#89C5CC" fill-rule="nonzero"></path>
                                                </g>
                                                <g id="Body/Hoodie" transform="translate(66.047505, 67.980395) rotate(-10.000000) translate(-66.047505, -67.980395) translate(17.547505, 25.480395)">
                                                    <path d="M15.7299808,44.5084392 L25.2706838,44.5458988 C19.3797399,63.5326868 16.1995056,73.6069573 15.7299808,74.7687111 C14.67355,77.3826565 16.9090996,81.3636507 17.8651093,83.5030069 C14.7514175,84.8940793 15.0831847,79.7423704 11.1553462,81.5668395 C7.57019732,83.23213 4.84298352,86.2495248 0.700862084,83.6977666 C0.191612598,83.3840428 -0.366441877,82.2028166 0.981888274,81.2797506 C4.34107044,78.9800566 9.18185541,74.9551779 9.83592172,73.6303584 C10.727858,71.8237294 12.6925443,62.1164231 15.7299808,44.5084392 L15.7299808,44.5084392 Z M71.6451483,44.1399475 L86.2083022,54.817012 C90.1581294,55.8811259 93.4580823,57.2050632 96.1081611,58.7888239 C96.7341558,59.3583341 97.4907291,60.5116869 94.8945777,60.3123587 C92.2984271,60.1130304 89.5586867,60.0199402 89.2004686,60.9040413 C88.8422498,61.7881424 90.4133002,62.8454304 89.6891845,64.0383143 C89.206441,64.8335703 86.9257662,62.8394955 82.8471604,58.05609 L68.4258181,52.0854176 L71.6451483,44.1399475 Z" id="Skin" fill="#B28B67" fill-rule="nonzero"></path>
                                                    <path d="M40.5808902,6.47752746 L44.454788,5.45995756 C60.14777,16.7686367 68.2564815,40.422167 87.2631166,51.6653528 L83.4242095,57.3697722 C52.0595372,56.2486964 41.7885616,27.4303404 40.5808902,6.47752746 Z" id="Coat-Back" fill="#E87613" fill-rule="nonzero" transform="translate(63.922003, 31.414865) rotate(5.000000) translate(-63.922003, -31.414865) "></path>
                                                    <path d="M25.633495,54.0716997 C41.4628832,54.0716997 53.1066494,54.0716997 60.5647932,54.0716997 C62.1609758,54.0716997 61.8602055,51.7705291 61.6294678,50.6093458 C58.9664749,37.2078871 48.5711597,22.7617632 48.5711597,3.68512415 L38.4953288,2.10763636 C30.1613222,15.4899356 27.2792783,31.9662554 25.633495,54.0716997 Z" id="Shirt" fill="#DDE3E9" fill-rule="nonzero"></path>
                                                    <path d="M37.7366484,2.10763636 C38.0770255,2.10763636 38.3888307,2.12889749 38.6720637,2.17141976 L41.8280462,2.35138426 C50.8779612,32.9739227 53.3738737,53.4048037 49.3157839,63.6440271 L49.3157839,63.6440271 L21.8219331,63.6444884 C20.1930351,67.436692 18.6343146,70.6273141 17.1457716,73.2163547 L17.1457716,73.2163547 L9.65424698,73.2163547 C8.94918999,50.4557056 14.3691618,31.1375446 25.9141625,15.2618713 C24.4513773,14.842312 23.292169,13.8626768 22.4376454,12.3232198 C18.7549113,5.68863302 20.0849189,2.03580161 24.0205937,0.835095301 C27.9562685,-0.365611012 31.4660663,2.10763636 37.7366484,2.10763636 Z" id="Coat-Front" fill="#FF9B21" fill-rule="nonzero"></path>
                                                    <path d="M32.0251942,63.6440271 L21.821973,63.6443952 C23.7221104,59.2207165 25.7177424,53.9784295 27.8088692,47.9175342 C28.6736219,55.1397616 30.0790332,60.3823875 32.0251942,63.6440271 Z" id="Shade" fill-opacity="0.1" fill="#000000" fill-rule="nonzero"></path>
                                                </g>
                                            </g>
                                        </g>
                                    </g>
                                </g>
                            </g>
                        </g>
                    </g>
                </g>
                <g id="Group-9" transform="translate(112.800002, 110.400002)">
                    <g id="Group-13">
                        <circle id="Oval" stroke="#8559FF" stroke-width="3.20000005" fill="#E3DCF6" cx="19.2000003" cy="19.2000003" r="19.2000003"></circle>
                        <g id="Group-10" transform="translate(12.000000, 7.200000)">
                            <g id="Group-8" fill-rule="nonzero">
                                <path d="M13.1245699,21.5423975 C13.9940727,21.5423975 14.6995183,20.8977661 14.6995183,20.1032205 L14.6995183,11.7879758 C14.6995183,10.9934301 13.9940727,10.3487988 13.1245699,10.3487988 L12.3370957,10.3487988 L2.36242258,10.3487988 L1.57494839,10.3487988 C0.705445632,10.3487988 0,10.9934301 0,11.7879758 L0,20.1032205 C0,20.8977661 0.705445632,21.5423975 1.57494839,21.5423975 L13.1245699,21.5423975 Z" id="l" fill="#6138D3"></path>
                                <path d="M12.4079986,6.8287992 L12.4079986,5.41783371 C12.4079986,2.65244047 10.1573924,0.422399951 7.39199914,0.422399951 C4.62660591,0.422399951 2.37599972,2.65244047 2.37599972,5.41783371 L2.37599972,9.08159894 L5.07616091,9.08159894 C5.07616091,6.63908878 5.07616091,5.41783371 5.07616091,5.41783371 C5.07616091,4.11839952 5.75582614,2.72592573 7.39199914,2.72592573 C9.02817213,2.72592573 10.0131467,4.11839952 10.0131467,5.41783371 C10.0131467,5.41783371 10.8725629,5.61251331 11.1833956,6.0018725 C11.260901,6.0989583 10.5754548,6.25603268 10.5350568,6.47309564 C10.522075,6.54284874 10.7235715,6.6614166 11.1395465,6.8287992 L12.4079986,6.8287992 Z" id="l" fill="#B5B5B5"></path>
                                <path d="M13.1999985,20.9791976 C14.0744984,20.9791976 14.7839983,20.2696976 14.7839983,19.3951977 L14.7839983,10.2431988 C14.7839983,9.36869891 14.0744984,8.65919899 13.1999985,8.65919899 L12.4079986,8.65919899 L2.37599972,8.65919899 L1.58399982,8.65919899 C0.709499917,8.65919899 0,9.36869891 0,10.2431988 L0,19.3951977 C0,20.2696976 0.709499917,20.9791976 1.58399982,20.9791976 L13.1999985,20.9791976 Z" id="l" fill="url(#linearGradient-10)"></path>
                                <path d="M12.4079986,6.40639925 L12.4079986,4.99543375 C12.4079986,2.23004052 10.1573924,0 7.39199914,0 C4.62660591,0 2.37599972,2.23004052 2.37599972,4.99543375 L2.37599972,8.65919899 L5.07616091,8.65919899 C5.07616091,6.21668883 5.07616091,4.99543375 5.07616091,4.99543375 C5.07616091,3.69599957 5.75582614,2.30352578 7.39199914,2.30352578 C9.02817213,2.30352578 10.0131467,3.69599957 10.0131467,4.99543375 C10.0131467,4.99543375 10.8725629,5.19011335 11.1833956,5.57947255 C11.260901,5.67655835 10.5754548,5.83363273 10.5350568,6.05069569 C10.522075,6.12044879 10.7235715,6.23901665 11.1395465,6.40639925 L12.4079986,6.40639925 Z" id="l" fill="url(#linearGradient-11)"></path>
                            </g>
                            <ellipse id="Oval" fill="#FFFFFF" fill-rule="nonzero" cx="11.9705594" cy="18.1862392" rx="1.85855967" ry="1.80223968"></ellipse>
                            <path d="M11.7232028,19.087359 C11.6613709,19.087359 11.59951,19.0547289 11.5376781,18.9894993 L10.8574113,18.2718512 C10.764649,18.1739914 10.764649,17.978272 10.8574113,17.8804123 C10.9501737,17.7825526 11.1356983,17.7825526 11.2284607,17.8804123 L11.7232028,18.402341 L12.7126581,17.3585141 C12.8054204,17.2606544 12.9909451,17.2606544 13.0837074,17.3585141 C13.1764697,17.4563739 13.1764697,17.6520933 13.0837074,17.749953 L11.9087275,18.9894993 C11.877797,19.0547289 11.7850347,19.087359 11.7232028,19.087359 Z" id="Path" fill="#78BE20" fill-rule="nonzero"></path>
                            <path d="M7.41119912,11.9679986 C8.11105427,11.9679986 8.67839897,12.5353433 8.67839897,13.2351985 C8.67839897,13.630206 8.49766432,13.9830007 8.21437857,14.215399 L8.95999894,16.270459 L6.00319928,16.270459 L6.6520179,14.2499055 C6.343581,14.018769 6.14399927,13.6502911 6.14399927,13.2351985 C6.14399927,12.5353433 6.71134397,11.9679986 7.41119912,11.9679986 Z" id="Combined-Shape" fill="url(#linearGradient-12)"></path>
                        </g>
                    </g>
                    <g id="icon" transform="translate(35.840001, 24.480001)"></g>
                </g>
                <g id="Group-9-Copy" transform="translate(366.200005, 110.400002)">
                    <circle id="Oval" stroke="#E11D84" stroke-width="3.20000005" fill="#FFACC3" cx="19.2000003" cy="19.2000003" r="19.2000003"></circle>
                    <g id="Group-10" transform="translate(12.000000, 7.200000)">
                        <g id="Group-8" fill-rule="nonzero">
                            <path d="M13.1245699,21.5423975 C13.9940727,21.5423975 14.6995183,20.8977661 14.6995183,20.1032205 L14.6995183,11.7879758 C14.6995183,10.9934301 13.9940727,10.3487988 13.1245699,10.3487988 L12.3370957,10.3487988 L2.36242258,10.3487988 L1.57494839,10.3487988 C0.705445632,10.3487988 0,10.9934301 0,11.7879758 L0,20.1032205 C0,20.8977661 0.705445632,21.5423975 1.57494839,21.5423975 L13.1245699,21.5423975 Z" id="l" fill="#A51616"></path>
                            <path d="M12.4079986,6.8287992 L12.4079986,5.41783371 C12.4079986,2.65244047 10.1573924,0.422399951 7.39199914,0.422399951 C4.62660591,0.422399951 2.37599972,2.65244047 2.37599972,5.41783371 L2.37599972,9.08159894 L5.07616091,9.08159894 C5.07616091,6.63908878 5.07616091,5.41783371 5.07616091,5.41783371 C5.07616091,4.11839952 5.75582614,2.72592573 7.39199914,2.72592573 C9.02817213,2.72592573 10.0131467,4.11839952 10.0131467,5.41783371 C10.0131467,5.41783371 10.8725629,5.61251331 11.1833956,6.0018725 C11.260901,6.0989583 10.5754548,6.25603268 10.5350568,6.47309564 C10.522075,6.54284874 10.7235715,6.6614166 11.1395465,6.8287992 L12.4079986,6.8287992 Z" id="l" fill="#B5B5B5"></path>
                            <path d="M13.1999985,20.9791976 C14.0744984,20.9791976 14.7839983,20.2696976 14.7839983,19.3951977 L14.7839983,10.2431988 C14.7839983,9.36869891 14.0744984,8.65919899 13.1999985,8.65919899 L12.4079986,8.65919899 L2.37599972,8.65919899 L1.58399982,8.65919899 C0.709499917,8.65919899 0,9.36869891 0,10.2431988 L0,19.3951977 C0,20.2696976 0.709499917,20.9791976 1.58399982,20.9791976 L13.1999985,20.9791976 Z" id="l" fill="url(#linearGradient-13)"></path>
                            <path d="M12.4079986,8.65919899 L12.4079986,4.99543375 C12.4079986,2.23004052 10.1573924,0 7.39199914,0 C4.62660591,0 2.37599972,2.23004052 2.37599972,4.99543375 L2.37599972,8.65919899 L5.07616091,8.65919899 C5.07616091,6.21668883 5.07616091,4.99543375 5.07616091,4.99543375 C5.07616091,3.69599957 5.75582614,2.30352578 7.39199914,2.30352578 C9.02817213,2.30352578 10.0131467,3.69599957 10.0131467,4.99543375 C10.0131467,4.99543375 10.0535446,8.44213603 10.0131467,8.65919899 C10.0001648,8.72895209 10.7984488,8.72895209 12.4079986,8.65919899 Z" id="l" fill="url(#linearGradient-14)"></path>
                        </g>
                        <ellipse id="Oval" fill="#FFFFFF" fill-rule="nonzero" cx="11.9705594" cy="18.1862392" rx="1.85855967" ry="1.80223968"></ellipse>
                        <path d="M7.41119912,11.9679986 C8.11105427,11.9679986 8.67839897,12.5353433 8.67839897,13.2351985 C8.67839897,13.630206 8.49766432,13.9830007 8.21437857,14.215399 L8.95999894,16.270459 L6.00319928,16.270459 L6.6520179,14.2499055 C6.343581,14.018769 6.14399927,13.6502911 6.14399927,13.2351985 C6.14399927,12.5353433 6.71134397,11.9679986 7.41119912,11.9679986 Z" id="Combined-Shape" fill="url(#linearGradient-15)"></path>
                    </g>
                    <g id="icon" transform="translate(23.040001, 24.480001)"></g>
                    <path d="M23.5457749,26.1610256 L24.0014829,25.7053176 L24.4571909,26.1610256 C24.5131094,26.2169485 24.6038223,26.2169485 24.6597451,26.1610256 L24.7610245,26.0597463 C24.8169473,26.0038234 24.8169473,25.9131594 24.7610245,25.8571921 L24.3053164,25.4014841 L24.7610245,24.945776 C24.8169473,24.8898576 24.8169473,24.7991892 24.7610245,24.7432218 L24.6597451,24.6419425 C24.6038223,24.5860196 24.5131583,24.5860196 24.4571909,24.6419425 L24.0014829,25.0976505 L23.5457749,24.6419425 C23.4898565,24.5860196 23.399188,24.5860196 23.3432207,24.6419425 L23.2419414,24.7432218 C23.1860185,24.7991447 23.1860185,24.8898087 23.2419414,24.945776 L23.6976494,25.4014841 L23.2419414,25.8571921 C23.1860185,25.9131105 23.1860185,26.0037789 23.2419414,26.0597463 L23.3432207,26.1610256 C23.3991436,26.2169485 23.4898565,26.2169485 23.5457749,26.1610256 Z" id="t" fill="#E11D53" fill-rule="nonzero"></path>
                </g>
            </g>
        </g>
    </g>
</svg>