<svg xmlns="http://www.w3.org/2000/svg" xmlns:xlink="http://www.w3.org/1999/xlink" viewBox="0 0 490.457 170.073">
  <defs>
    <linearGradient id="h" x1="6.748" x2="6.748" y1="9.486" y2="22.982" gradientTransform="scale(1.09545 .91287)" gradientUnits="userSpaceOnUse">
      <stop offset="0%" stop-color="#B093FF"/>
      <stop offset="100%" stop-color="#8559FF"/>
    </linearGradient>
    <linearGradient id="i" x1="6.868" x2="6.868" y1=".084" y2="9.32" gradientTransform="scale(1.07635 .92906)" gradientUnits="userSpaceOnUse">
      <stop offset="0%" stop-color="#FFF"/>
      <stop offset="100%" stop-color="#F7F0EB"/>
    </linearGradient>
    <linearGradient id="j" x1="9.025" x2="9.025" y1="13.488" y2="9.921" gradientTransform="scale(.829 1.20628)" gradientUnits="userSpaceOnUse">
      <stop offset="0%" stop-color="#6C4EBE"/>
      <stop offset="100%" stop-color="#8559FF"/>
    </linearGradient>
    <linearGradient id="k" x1="6.748" x2="6.748" y1="9.486" y2="22.693" gradientTransform="scale(1.09545 .91287)" gradientUnits="userSpaceOnUse">
      <stop offset="0%" stop-color="#FF53C8"/>
      <stop offset="100%" stop-color="#E11575"/>
    </linearGradient>
    <linearGradient id="l" x1="6.888" x2="6.888" y1=".085" y2="9.348" gradientTransform="scale(1.07312 .93187)" gradientUnits="userSpaceOnUse">
      <stop offset="0%" stop-color="#FFF"/>
      <stop offset="100%" stop-color="#F7F0EB"/>
    </linearGradient>
    <linearGradient id="m" x1="9.025" x2="9.025" y1="13.488" y2="9.921" gradientTransform="scale(.829 1.20628)" gradientUnits="userSpaceOnUse">
      <stop offset="0%" stop-color="#AF0D38"/>
      <stop offset="100%" stop-color="#E72387"/>
    </linearGradient>
    <ellipse id="a" cx="28.049" cy="27.27" rx="28.049" ry="27.27"/>
    <ellipse id="b" cx="27.768" cy="27.382" rx="27.768" ry="27.382"/>
    <ellipse id="f" cx="26.384" cy="25.994" rx="26.345" ry="25.994"/>
    <path id="d" d="M45.271.17v45.271H0V.17z"/>
  </defs>
  <g fill="none" fill-rule="evenodd">
    <path stroke="#bfb0ff" stroke-dasharray="0, 5.6" stroke-linecap="round" stroke-linejoin="round" stroke-width="3.2" d="M67.173 85.623h149.6"/>
    <path stroke="#e11d84" stroke-dasharray="0, 5.6" stroke-linecap="round" stroke-linejoin="round" stroke-width="3.2" d="M302.373 85.623h149.6"/>
    <path fill="#fff" stroke="#8559ff" stroke-width="4.461" d="m293.373 7.455 41.775 72.357a10.448 10.448 0 0 1 0 10.448l-41.775 72.358a10.448 10.448 0 0 1-9.049 5.224h-83.55a10.448 10.448 0 0 1-9.05-5.224L149.95 90.26a10.448 10.448 0 0 1 0-10.448l41.776-72.357a10.448 10.448 0 0 1 9.048-5.224h83.551c3.733 0 7.182 1.991 9.049 5.224z"/>
    <path fill="#bfb0ff" stroke="#fff" stroke-width=".582" d="m266.786 98.95 17.866-50.96-3.2 1.055-17.543 48.244-20.296 39.958 2.925 1z"/>
    <path fill="#bfb0ff" stroke="#fff" stroke-width=".582" d="M299.17 87.276v3.626l-38.891 7.526-53.84 30.313v-4.12l53.84-29.308z"/>
    <path fill="#bfb0ff" stroke="#fff" stroke-width=".582" d="M299.17 87.276v3.626l-38.891 7.526-71.561-8.69v-2.956l71.56 8.531z"/>
    <path fill="#bfb0ff" stroke="#fff" stroke-width=".582" d="M241.418 143.855 235.31 69.31h2.555l6.107 71.43z"/>
    <path fill="#bfb0ff" stroke="#fff" stroke-width=".582" d="m276.362 127.548-85.314-34.942.225-3.495 86.478 35.322z"/>
    <path fill="#d8d8d8" d="m242.907 27.116 41.985 17.501 17.39 42.252-17.39 42.252-41.985 17.502-41.984-17.502-17.39-42.252 17.39-42.252Zm0 3.131-39.784 16.584-16.48 40.038 16.48 40.038 39.784 16.584 39.785-16.584 16.48-40.038-16.48-40.038Z" opacity=".321"/>
    <path fill="#8559ff" d="m242.907 27.116 41.167 18.169-2.188.904-38.979-15.942-39.784 16.584-15.842 38.487-3.749 1.551 17.391-42.252Z"/>
    <path fill="#bfb0ff" stroke="#fff" stroke-width="1.165" d="m285.016 126.791 17.267-38.095-4.874 1.161-14.313 33.666z"/>
    <path fill="#bfb0ff" stroke="#fff" stroke-width="2.411" d="M303.576 82.825a6.769 6.769 0 0 1 3.369 5.852v.037a6.769 6.769 0 0 1-3.369 5.853 6.704 6.704 0 0 1-6.736 0 6.769 6.769 0 0 1-3.368-5.853v-.037a6.769 6.769 0 0 1 3.368-5.852 6.704 6.704 0 0 1 6.736 0zM245.498 135.533a6.769 6.769 0 0 1 3.368 5.852v.037a6.769 6.769 0 0 1-3.368 5.853 6.704 6.704 0 0 1-6.737 0 6.769 6.769 0 0 1-3.368-5.853v-.037a6.769 6.769 0 0 1 3.368-5.852 6.704 6.704 0 0 1 6.737 0z"/>
    <path fill="#8559ff" stroke="#fff" stroke-width="2.411" d="M246.016 24.376a6.769 6.769 0 0 1 3.368 5.853v.037a6.769 6.769 0 0 1-3.368 5.852 6.7 6.7 0 0 1-3.21.906l-6.17 17.443c.98.263 1.934.655 2.832 1.175l.545.315a9.106 9.106 0 0 1 2.178 1.754l34.17-10.388.003-.13a6.769 6.769 0 0 1 3.364-5.595 6.704 6.704 0 0 1 6.736 0 6.769 6.769 0 0 1 3.368 5.852v.037a6.769 6.769 0 0 1-3.368 5.853 6.704 6.704 0 0 1-6.736 0 6.763 6.763 0 0 1-2.167-2.004l-33.17 10.73a9.101 9.101 0 0 1 .024 3.437l-.439 2.382a10.262 10.262 0 0 1-1.203 3.27l15.012 19.593a6.705 6.705 0 0 1 5.862.427 6.769 6.769 0 0 1 3.368 5.852v.037a6.767 6.767 0 0 1-1.317 4.013l14.542 18.982a6.703 6.703 0 0 1 4.15.862 6.769 6.769 0 0 1 3.368 5.852v.037a6.769 6.769 0 0 1-3.368 5.853 6.704 6.704 0 0 1-6.737 0 6.769 6.769 0 0 1-3.368-5.853v-.037c0-1.615.576-3.15 1.583-4.35l-14.118-18.762a6.704 6.704 0 0 1-4.839-.744 6.769 6.769 0 0 1-3.368-5.853v-.037c0-1.137.285-2.234.806-3.203L239.764 74.44c-.756.529-1.589.96-2.483 1.274-.467.164-.94.295-1.418.392L210.28 121.4a6.767 6.767 0 0 1 1.376 4.092v.037a6.769 6.769 0 0 1-3.368 5.852 6.704 6.704 0 0 1-6.736 0 6.769 6.769 0 0 1-3.368-5.852v-.037a6.769 6.769 0 0 1 3.368-5.853 6.703 6.703 0 0 1 4.331-.838l24.066-43.15A10.782 10.782 0 0 1 227 73.99l-.474-.376a10.64 10.64 0 0 1-2.353-2.602l-28.72 16.501.001.12v.038a6.769 6.769 0 0 1-3.368 5.852 6.704 6.704 0 0 1-6.736 0 6.769 6.769 0 0 1-3.368-5.852v-.037a6.769 6.769 0 0 1 3.368-5.853 6.704 6.704 0 0 1 6.736 0c.586.34 1.109.761 1.557 1.244l28.93-16.44a10.641 10.641 0 0 1 .075-3.14l.09-.52c.155-.888.42-1.74.781-2.543L208 52.735a6.704 6.704 0 0 1-7.61.604 6.769 6.769 0 0 1-3.369-5.852v-.037a6.769 6.769 0 0 1 3.368-5.852 6.704 6.704 0 0 1 6.736 0 6.769 6.769 0 0 1 3.369 5.852v.037c0 .654-.095 1.294-.274 1.905l16.574 6.896c.699-.527 1.468-.97 2.295-1.316a11.72 11.72 0 0 1 2.1-.653l6.62-19.355a6.769 6.769 0 0 1-1.896-4.698v-.037a6.769 6.769 0 0 1 3.368-5.853 6.704 6.704 0 0 1 6.736 0z"/>
    <ellipse cx="28.049" cy="27.27" fill="#000" fill-rule="nonzero" rx="28.049" ry="27.27" transform="translate(214.01 58.737)"/>
    <g transform="translate(213.295 58.023)">
      <ellipse cx="28.763" cy="27.984" fill="#bfb0ff" stroke="#fff" stroke-width="7.28" rx="32.225" ry="31.446"/>
      <ellipse cx="28.763" cy="27.984" stroke="#d6dfe3" stroke-width="3.976" rx="30.573" ry="29.794"/>
    </g>
    <ellipse cx="29.31" cy="28.925" rx="28.925" ry="28.539" transform="matrix(-1 0 0 1 267.973 57.623)"/>
    <g transform="matrix(-1 0 0 1 269.63 58.365)">
      <mask id="c" fill="#fff">
        <use xlink:href="#b"/>
      </mask>
      <g fill-rule="nonzero" mask="url(#c)">
        <path fill="#d4a181" d="M18.152 18.102c-1.083 4.608 1.912 14.757 4.9 14.728 1.191-.011 3.377-1.35 5.403-3.454l1.357 11.131 8.954-2.4-6.93-13.536c1.178-2.477 1.68-5.261.743-7.98-2.7-7.83-13.344-3.097-14.427 1.511Z"/>
        <path fill="#191847" d="M18.805 9.879a3.862 3.862 0 0 0 1.796 7.508c1.218.045 2.731-.087 4.363-.41.001.627.095 1.314.296 2.066.178.663.44 1.347.766 2.026.236-.507.629-.902 1.101-1.028 1.32-.354 2.53.485 2.838 1.638.392 1.462-.17 2.747-1.38 3.162 1.682 1.833 3.648 3.026 5.182 2.614 2.914-.78 3.943-5.23 2.82-9.418-.038-.146-.08-.291-.125-.434 3.649 1.287 7.142 4.818 11.22 3.725 5.55-1.487 4.756-13.266-2.997-11.188-5.273 1.413-7.661 2.876-9.592 4.611-.773-1.124-1.725-1.988-2.742-2.497-.257-.17-.62-.302-1.068-.395a4.266 4.266 0 0 0-.816-.118c-1.48-.135-3.529.04-5.733.548-.411.095-.812.198-1.201.308a3.862 3.862 0 0 0-4.728-2.718z"/>
        <path fill="#d4a181" d="M-7.613 57.308c-1.708-.049-6.258-2.33-6.844-1.6-.868 1.079.533 3.676 1.853 4.858 2.465 2.21 4.287 2.793 8.61 3.214 2.26.221 4.802 1.014 7.625 2.379l-.695-5.876-6.362-2.162c-1.36-2.952-2.607-4.338-3.742-4.158-.94-.25 1.263 3.393-.445 3.345zM.032 42.29c1.398 1.701 2.792 3.554 2.352 4.232-.44.678-1.936.103-2.413 1.184-.318.721 2.173 1.332 7.473 1.833l11.142 7.09 3.954-6.092-14.479-4.9c-2.655-2.22-5.175-3.862-7.56-4.928-.7-.157-1.867-.12-.47 1.58Z"/>
        <path fill="#2026a2" d="M28.686 47.793c-4.633.767-10.973.878-18.29-2.137l-1.568 6.216c5.333 3.703 12.368 6.277 17.921 5.136 4.376-.899 5.686-6.612 1.937-9.215z"/>
        <path fill="#005eb8" d="M25.8 33.221c.736 7.582-.742 16.341-1.712 24.909-4.694 2.09-13.182 2.098-25.464.025-1.821 6.433-2.401 10.893-1.74 13.38 10.829 3.429 19.734 4.238 26.762 3.155.507 4.191 1.709 8.054 4.044 11.365 4.8 6.806 24.036-3.673 31.149-3.532 1.841-14.735-7.485-18.947-9.068-27.889-1.734-9.791-12.26-23.478-13.417-23.274z"/>
      </g>
    </g>
    <path fill="#fff" stroke="#e11d84" stroke-width="4.461" d="m471.453 53.98 15.375 26.632a10.448 10.448 0 0 1 0 10.448l-15.375 26.632a10.448 10.448 0 0 1-9.049 5.224h-30.75a10.448 10.448 0 0 1-9.05-5.224L407.23 91.06a10.448 10.448 0 0 1 0-10.448l15.376-26.631a10.448 10.448 0 0 1 9.048-5.224h30.751c3.733 0 7.182 1.991 9.049 5.224z"/>
    <g transform="translate(423.973 62.589)">
      <mask id="e" fill="#fff">
        <use xlink:href="#d"/>
      </mask>
      <path fill="#f2f2f2" d="M45.27 22.806c0 12.5-10.133 22.635-22.635 22.635C10.135 45.441 0 35.307 0 22.806 0 10.304 10.134.17 22.635.17c12.502 0 22.636 10.134 22.636 22.636" mask="url(#e)"/>
    </g>
    <path fill="#e7c0a8" d="M446.486 92.691c.008-.02.02-.04.042-.056 2.883-2.208 3.89-3.636 4.313-3.872a5.093 5.093 0 0 1-.291-.982c-.105.1-.211.199-.32.295-.34.298-.703.57-1.093.8a5.002 5.002 0 0 1-2.08.688c-.434.043-.879.03-1.31-.039-.353-.055-.7-.15-1.032-.28a5.645 5.645 0 0 1-1.063-.562 7.964 7.964 0 0 1-1.094-.891c-.066.336-.168.69-.321 1.043.479.383 1.542 1.758 4.208 3.8.021.016.033.036.041.056z"/>
    <path fill="#76a2cf" d="M441.425 93.72c.75 1.064 2.559 3.875 3.817 6.37.26-1.686.474-3.01.559-3.477a.34.34 0 0 1-.143-.142c-.376-.841-.793-1.313-.815-2.024-.401.435-.706.896-.666 1.328.114 1.207-3.561-3.081-3.713-4.94l-.003.001-.005.016c-.056.236-.362.98.969 2.868zM438.601 91.736a5.514 5.514 0 0 0-.166.111l.122-.041.044-.07M447.29 96.613c.084.46.292 1.748.547 3.395 1.197-2.47 2.888-5.223 3.61-6.288.916-1.35 1.017-2.124 1-2.532-.511 1.994-3.759 5.723-3.652 4.586.037-.39-.21-.804-.554-1.201-.063.644-.454 1.107-.807 1.898a.336.336 0 0 1-.144.142"/>
    <path fill="#e7c0a8" d="M445.748 89.525c.43.069.875.082 1.308.038.35-.035.694-.106 1.028-.213.368-.118.72-.28 1.053-.475a7.1 7.1 0 0 0 1.093-.8c.109-.095.215-.193.32-.294 1.461-1.411 1.449-4.973 1.801-4.721.806.54 1.321-1.07 1.422-2.027.084-.792-.203-1.196-.532-1.085-.07.343-.6.207-.81.55-.212.347-.121-1.225-.424-1.67-.303-.445-.469-1.227-1.105-1.346s-5.288.397-8.112-1.105c-.982-.522-1.145 1.294-1.69 2.095-.546.801-.152 2.285-.485 1.988a1.662 1.662 0 0 0-.41-.265c-.165-.081-.302-.14-.37-.252-.32-.09-.594.313-.513 1.09.101.957.617 2.568 1.423 2.027.352-.252.34 3.31 1.8 4.72l.013.011c.34.327.702.63 1.094.892.334.223.689.414 1.063.561.332.131.68.225 1.033.281z"/>
    <path fill="#3a3a3a" d="M440.255 80.22c.114.059.237.13.36.24.333.297-.06-1.187.485-1.988.545-.8.708-1.617 1.69-1.095.924.491 2.555.545 3.665.553 2.284.018 4.02-.528 4.447-.448.636.119.802.901 1.105 1.346.302.445.212 2.017.424 1.67.21-.343.74-.207.81-.55 0-.004.003-.005.003-.009.06-.356 1.55-3.721-.48-6.984-2.03-3.263-5.933-3.55-8.165-3.028-2.881.674-4.117 2.461-4.571 3.114-1.424 2.343-.265 6.772-.2 6.891l.007.01c.068.112.204.171.37.253l.05.026z"/>
    <path fill="#d9920d" d="m447.019 96.681-.386.025v.011l-.087-.006-.088.006v-.011l-.385-.025a.636.636 0 0 1-.24-.047c-.012-.006-.02-.014-.032-.02-.085.465-.298 1.79-.56 3.477.684 1.354 1.204 2.616 1.305 3.454.102-.857.62-2.152 1.29-3.537a185.018 185.018 0 0 0-.546-3.395c-.01.007-.02.015-.031.021a.635.635 0 0 1-.24.047z"/>
    <path fill="#eea317" d="M445.801 96.613c.01.006.02.015.032.021a.635.635 0 0 0 .24.047l.385.025v.011l.088-.005.087.005v-.011l.386-.025a.636.636 0 0 0 .24-.047c.011-.006.02-.014.031-.021a.336.336 0 0 0 .144-.143c.353-.79.744-1.253.807-1.897-.652-.753-1.655-1.443-1.755-1.786-.094.324-.993.957-1.643 1.66.022.711.44 1.183.815 2.023a.34.34 0 0 0 .143.143z"/>
    <path fill="#c3dff7" d="M441.523 89.384c-.184.244-.519.6-.724.798a1.695 1.695 0 0 0-.335.653c.152 1.859 3.827 6.147 3.713 4.94-.04-.432.265-.893.667-1.328.649-.703 1.548-1.336 1.642-1.66.1.343 1.103 1.033 1.756 1.786.344.397.59.811.553 1.201-.107 1.136 3.14-2.592 3.652-4.586-.007-.17-.034-.278-.031-.336.01-.214-.03-.374-.087-.498-.098-.135-.231-.246-.333-.356l-.033-.035a7.252 7.252 0 0 1-.172-.18 4.326 4.326 0 0 1-.339-.403c-.007-.009-.014-.022-.022-.029l.003-.002a5.665 5.665 0 0 1-.37-.546c-.052-.087-.12-.097-.222-.04-.422.236-1.43 1.664-4.313 3.872a.125.125 0 0 0-.042.057.121.121 0 0 0-.04-.057c-2.667-2.042-3.73-3.417-4.21-3.8-.163-.13-.259-.147-.327-.032-.112.19-.225.352-.337.503h.004c-.003.006-.051.072-.053.078"/>
    <path fill="#f5f5f5" d="m441.679 106.914-.014-.126a303.742 303.742 0 0 1-.427-3.952l-.066.006a.173.173 0 0 1-.186-.155c-.163-1.524-.928-3.855-2.875-3.697-1.908.156-1.88 3.285-1.842 4.075a.181.181 0 0 1-.168.19l-.074.006c.016.19.058.924.125 2.184a22.465 22.465 0 0 0 5.564 2.039c0-.205-.019-.403-.037-.57"/>
    <path fill="#f5f5f5" d="M435.811 103.277a.182.182 0 0 1-.192-.171c-.023-.444-.04-1.471.208-2.46.39-1.555 1.204-2.099 1.915-2.256-.002-.015-.009-.027-.009-.042-.033-1.501.074-2.754.268-3.803-.527-.092-.867-.198-.712-.314.475-.354.512-1.091 1.184-2.295.026-.046.056-.087.084-.13l-.122.041c-1.374.465-4.676 1.487-5.657 2.131-.002.002.001.013.003.024.2-.105.36-.143.428-.047.882 1.12 1.186 3.725 1.491 6.51.094.858.185 2.662.228 4.295.328.199.662.389 1 .571a136.58 136.58 0 0 0-.117-2.053M440.997 94.86s-1.28-.084-2.344-.219c-.12.645-.207 1.368-.246 2.175zM445.047 103.535c-.51-.57-1.118-1.403-1.737-1.854-1.86-1.356-4.547-4.376-4.907-4.784-.02.454-.03.928-.019 1.437v.002c1.953.058 3.028 2.122 3.251 4.292a.173.173 0 0 1-.159.19h-.021c.021.265.164 1.593.426 3.947l.015.13c.02.18.04.404.04.639.822.175 1.661.305 2.515.388h2.161c.024-1.133.046-2.018.065-2.592-.551-.484-1.048-1.143-1.63-1.795"/>
    <path fill="#e2e2e2" d="M433.209 93.956c-.067-.098-.228-.06-.428.046-.505.266-1.26.977-1.37 1.085-.94.929-1.474 2.43-2.122 4.824a22.744 22.744 0 0 0 5.64 4.849c-.044-1.633-.135-3.437-.229-4.295-.305-2.785-.608-5.39-1.491-6.51"/>
    <path fill="#ededed" d="M460.137 93.956c.069-.1.238-.057.445.055.006-.02.008-.03.006-.033-1.114-.731-5.223-1.95-6.1-2.287-.013-.005-.024-.007-.035-.01a6.93 6.93 0 0 1 .679 1.88c.126.296.249.52.45.67.11.082-.028.159-.303.23.216 1.828-.025 3.732-.199 5.097-.072.564-.134 1.052-.134 1.343 0 .03-.01.058-.018.086a1.1 1.1 0 0 1-.496 2.084 1.1 1.1 0 0 1-.137-2.193c.003-.331.063-.804.139-1.403.167-1.308.388-3.144.175-4.888-1.11.167-2.734.274-2.734.274l2.635 1.989s-2.952 3.376-4.949 4.83c-.618.452-1.227 1.285-1.737 1.855-.587.657-.659 1.027-1.134 1.807l-.013-.012c-.02.574-.041 1.46-.065 2.592h2.243a22.492 22.492 0 0 0 9.563-3.187c.043-1.627.134-3.416.227-4.27.306-2.785.609-5.39 1.492-6.51"/>
    <path fill="#e0e0e0" d="M438.473 91.936c-.672 1.204-.709 1.941-1.184 2.295-.155.116.185.222.712.314.327-1.768.903-2.952 1.489-3.738-.29.229-.623.533-.89.929l-.043.07c-.028.043-.058.084-.084.13M455.583 94.231c-.202-.15-.325-.374-.451-.67.063.296.111.597.147.9.275-.072.413-.148.304-.23M452.337 90.364l-.008-.01c.057.124.098.284.087.498-.003.058.024.166.031.336.017.408-.083 1.181-1 2.532-.723 1.065-2.413 3.819-3.61 6.288-.672 1.385-1.189 2.68-1.291 3.538-.1-.84-.621-2.101-1.304-3.455-1.258-2.496-3.067-5.307-3.817-6.37-1.331-1.889-1.025-2.633-.97-2.869l.005-.016.003-.008c.074-.289.227-.514.336-.646-.687.576-1.673 1.922-2.146 4.46 1.064.134 2.344.219 2.344.219l-2.59 1.955a7.696 7.696 0 0 0-.004.08c.36.409 3.047 3.43 4.907 4.785.618.45 1.228 1.284 1.737 1.854.583.652 1.079 1.31 1.63 1.795l.013.012c.475-.78.547-1.15 1.134-1.807.51-.57 1.12-1.403 1.737-1.854 1.997-1.455 4.949-4.831 4.949-4.831l-2.635-1.99s1.624-.106 2.733-.273c-.206-1.679-.815-3.272-2.271-4.223"/>
    <path fill="#000" d="M451.452 89.38c.16.21.248.308.34.403l.171.18.033.035c.102.11.234.221.332.356l.01.01c1.455.951 2.065 2.544 2.27 4.224.214 1.743-.007 3.58-.174 4.888-.076.598-.136 1.07-.138 1.402.045-.005.09-.013.136-.013.18 0 .347.046.496.122.008-.028.018-.056.018-.086 0-.291.062-.779.134-1.343.174-1.365.415-3.269.199-5.098a9.746 9.746 0 0 0-.147-.898 6.935 6.935 0 0 0-.68-1.882c-.552-1.01-1.409-1.854-2.715-2.367a.295.295 0 0 0-.304.036l-.003.002c.008.007.015.02.022.03"/>
    <path fill="#a3a3a3" d="M455.2 101.967a.769.769 0 1 1-1.537 0 .769.769 0 0 1 1.538 0m-.905-1.089a1.1 1.1 0 0 0 .136 2.193 1.1 1.1 0 0 0 .496-2.083 1.088 1.088 0 0 0-.496-.124c-.046 0-.091.009-.136.014"/>
    <path fill="#fff" d="M454.432 101.199a.769.769 0 1 0 0 1.537.769.769 0 0 0 0-1.537"/>
    <path fill="#000" d="M438.001 94.545c-.194 1.05-.301 2.302-.268 3.804 0 .014.007.026.01.04-.712.158-1.525.702-1.916 2.256-.248.99-.231 2.017-.208 2.46a.181.181 0 0 0 .193.172h.004l.211-.016.074-.006a.181.181 0 0 0 .168-.19c-.038-.79-.066-3.92 1.842-4.075 1.947-.158 2.712 2.173 2.876 3.697.01.094.09.163.185.155l.066-.006.217-.017.02-.002a.174.174 0 0 0 .16-.19c-.222-2.17-1.298-4.233-3.251-4.29v-.002c-.011-.51-.001-.984.02-1.438a16.294 16.294 0 0 1 .25-2.256c.472-2.537 1.458-3.883 2.145-4.459.205-.198.54-.555.724-.798.002-.006.05-.072.053-.078h-.003c-.08-.04-.219.008-.308.042-.274.103-1.031.461-1.775 1.459-.586.786-1.162 1.97-1.489 3.738"/>
    <path fill="#e5e5e5" d="m436.027 103.26-.211.018h-.005c.015.182.054.87.117 2.053.074.04.15.076.224.114-.068-1.26-.11-1.995-.125-2.184zM441.895 106.895l-.014-.13a313.768 313.768 0 0 1-.427-3.946l-.216.017c.022.267.165 1.597.427 3.953l.014.125c.018.167.036.365.037.57.073.016.146.035.22.05 0-.235-.02-.46-.04-.639"/>
    <path fill="#e2e2e2" d="M460.582 94.01c-.207-.111-.376-.155-.445-.055-.883 1.12-1.186 3.725-1.491 6.51-.094.854-.185 2.643-.228 4.27a22.743 22.743 0 0 0 5.63-4.859c-.645-2.374-1.178-3.865-2.113-4.788-.11-.108-.848-.803-1.353-1.077"/>
    <path fill="#fff" stroke="#8559ff" stroke-width="4.461" d="m67.853 53.18 15.375 26.632a10.448 10.448 0 0 1 0 10.448l-15.375 26.632a10.448 10.448 0 0 1-9.049 5.224h-30.75a10.448 10.448 0 0 1-9.05-5.224L3.63 90.26a10.448 10.448 0 0 1 0-10.448l15.376-26.631a10.448 10.448 0 0 1 9.048-5.224h30.751c3.733 0 7.182 1.991 9.049 5.224z"/>
    <g transform="matrix(-1 0 0 1 70.17 57.826)">
      <ellipse cx="25.292" cy="24.94" fill="#000" fill-rule="nonzero" rx="25.292" ry="24.94" transform="translate(1.405 1.405)"/>
      <ellipse cx="26.697" cy="26.345" fill="#bfb0ff" rx="26.345" ry="25.994"/>
    </g>
    <g transform="matrix(-1 0 0 1 69.857 58.178)">
      <mask id="g" fill="#fff">
        <use xlink:href="#f"/>
      </mask>
      <use xlink:href="#f" fill="#8559ff"/>
      <g fill-rule="nonzero" mask="url(#g)">
        <path fill="#b28b67" d="M17.963 11.973c-3.064 4.674-3.84 17.142-.51 18.317 1.328.468 4.296-.135 7.396-1.65l-2.99 12.896 10.915.955-2.227-17.816c2.31-2.273 3.992-5.158 4.05-8.551.167-9.778-13.569-8.826-16.634-4.151Z"/>
        <path fill="#191847" d="M24.299 7.716c-3.086-.005-5.902.688-6.726 1.174-.253 2.895.234 3.803 5.039 4.147 1.125.725 1.938 1.875 2.759 3.361-.926 5.774-2.286 8.583-4.079 8.426-2.689-.235-4.821-2.139-6.001-2.242-.86-.075-.762 1.016-.262 1.863.413.698 2.648 1.532 2.56 2.552-.09 1.019-1.83.072-1.884.676-.087 1-.57 2.852 1.168 3.004 1.76.154 6.859-.045 7.951-2.575.705-1.634 1.37-5.087 1.997-10.362a2.737 2.737 0 0 1 2.818 2.971 2.725 2.725 0 0 1-.993 1.878c.553.945 1.18 1.936 1.907 2.966 3.206-1.558 5.934-6.702 3.404-12.094-.603-2.586-2.35-4.092-4.496-4.908-1.717-.9-3.56-1.146-5.162-.837Z"/>
        <path fill="#997659" d="m15.41 188.758-5.844 1.03 4.482-106.9 20.086-3.542-12.235 59.657z"/>
        <path fill="#b28b67" d="M38.577 78.563c3.69 19.555 11.77 45.334 12.533 46.459.508.75 14.935 8.884 43.28 24.402l-3.267 5.01c-32.313-11.892-49.348-18.856-51.106-20.892-2.635-3.055-14.796-33.294-23.418-51.104Z"/>
        <path fill="#e4e4e4" d="M94.67 147.879c1.435.238 2.444.526 3.03.864.711.411 1.682 1.13 2.91 2.156l-12.875 22.3c-2.247-.525-3.087-1.456-2.519-2.792.569-1.337 1.03-2.454 1.384-3.35l1.37-13.03a.457.457 0 0 1 .515-.404l1.998.265c1.206-.845 2.017-1.629 2.434-2.351.34-.587.57-1.535.695-2.843a.913.913 0 0 1 1.058-.815z"/>
        <path fill="#69a1ac" d="m12.103 83.23 24.889-4.388-.406 101.175-28.319 1.889z"/>
        <path fill="#89c5cc" d="m87.419 143.499-14.43 24.754c-22.89-17.55-36.49-29.236-40.803-35.059-4.313-5.823-10.228-22.615-17.745-50.375l28.02-4.941c5.765 24.572 8.991 37.393 9.678 38.462.688 1.07 12.448 10.123 35.28 27.159Z"/>
        <path fill="#b28b67" d="m53.81 75.603-9.54.038c5.89 18.986 9.071 29.06 9.54 30.222 1.057 2.614-1.179 6.595-2.135 8.735 3.114 1.39 2.782-3.76 6.71-1.936 3.585 1.665 6.313 4.682 10.455 2.13.509-.313 1.067-1.494-.281-2.418-3.36-2.3-8.2-6.324-8.854-7.649-.892-1.807-2.857-11.514-5.894-29.122Zm-55.915-.368-14.563 10.677c-3.95 1.064-7.25 2.388-9.9 3.972-.626.569-1.382 1.722 1.214 1.523 2.596-.2 5.336-.292 5.694.592.358.884-1.213 1.941-.489 3.134.483.795 2.764-1.199 6.842-5.982l14.422-5.97Z"/>
        <path fill="#e87613" d="m26.697 35.633-3.947-.676C8.102 47.59 2.086 71.86-15.87 84.717l4.322 5.348C19.6 86.215 27.32 56.611 26.697 35.633Z"/>
        <path fill="#dde3e9" d="M43.907 85.166H8.976c-1.596 0-1.296-2.3-1.065-3.462C10.574 68.303 20.97 53.856 20.97 34.78l10.076-1.578c8.334 13.383 11.216 29.859 12.862 51.964Z"/>
        <path fill="#ff9b21" d="M31.804 33.202c-.34 0-.652.022-.936.064l-3.156.18C18.662 64.07 16.167 84.5 20.225 94.74h27.494c1.628 3.792 3.187 6.983 4.676 9.572h7.491c.705-22.76-4.715-42.079-16.26-57.954 1.463-.42 2.622-1.4 3.477-2.94 3.683-6.634 2.353-10.287-1.583-11.487-3.936-1.2-7.446 1.272-13.716 1.272z"/>
        <path fill="#000" fill-opacity=".1" d="M37.515 94.739H47.72c-1.9-4.424-3.896-9.666-5.987-15.727-.865 7.222-2.27 12.465-4.217 15.727z"/>
      </g>
    </g>
    <g transform="translate(96.773 64.823)">
      <circle cx="19.2" cy="19.2" r="19.2" fill="#e3dcf6" stroke="#8559ff" stroke-width="3.2"/>
      <g transform="translate(12 7.2)">
        <g fill-rule="nonzero">
          <path fill="#6138d3" d="M13.125 21.542c.87 0 1.575-.644 1.575-1.439v-8.315c0-.795-.706-1.44-1.575-1.44H1.575c-.87 0-1.575.645-1.575 1.44v8.315c0 .795.705 1.44 1.575 1.44z"/>
          <path fill="#b5b5b5" d="M12.408 6.829V5.418c0-2.766-2.25-4.996-5.016-4.996-2.765 0-5.016 2.23-5.016 4.996v3.664h2.7V5.418c0-1.3.68-2.692 2.316-2.692 1.636 0 2.621 1.392 2.621 2.692 0 0 .86.195 1.17.584.078.097-.608.254-.648.471-.013.07.189.188.605.356z"/>
          <path fill="url(#h)" d="M13.2 20.98c.874 0 1.584-.71 1.584-1.585v-9.152c0-.874-.71-1.584-1.584-1.584H1.584C.709 8.66 0 9.37 0 10.243v9.152c0 .875.71 1.584 1.584 1.584z" style="fill:url(#h)"/>
          <path fill="url(#i)" d="M12.408 6.406v-1.41C12.408 2.23 10.158 0 7.392 0 4.627 0 2.376 2.23 2.376 4.995V8.66h2.7V4.995c0-1.299.68-2.691 2.316-2.691 1.636 0 2.621 1.392 2.621 2.691 0 0 .86.195 1.17.584.078.098-.608.255-.648.472-.013.07.189.188.605.355z" style="fill:url(#i)"/>
        </g>
        <ellipse cx="11.971" cy="18.186" fill="#fff" fill-rule="nonzero" rx="1.859" ry="1.802"/>
        <path fill="#78be20" fill-rule="nonzero" d="M11.723 19.087c-.062 0-.123-.032-.185-.098l-.68-.717c-.093-.098-.093-.294 0-.392a.271.271 0 0 1 .37 0l.495.522.99-1.043a.271.271 0 0 1 .37 0c.093.097.093.293 0 .391l-1.174 1.24c-.031.065-.124.097-.186.097z"/>
        <path fill="url(#j)" d="M7.411 11.968a1.267 1.267 0 0 1 .803 2.247l.746 2.055H6.003l.649-2.02a1.267 1.267 0 0 1 .76-2.282z" style="fill:url(#j)"/>
      </g>
    </g>
    <g transform="translate(350.173 64.823)">
      <circle cx="19.2" cy="19.2" r="19.2" fill="#ffacc3" stroke="#e11d84" stroke-width="3.2"/>
      <g transform="translate(12 7.2)">
        <g fill-rule="nonzero">
          <path fill="#a51616" d="M13.125 21.542c.87 0 1.575-.644 1.575-1.439v-8.315c0-.795-.706-1.44-1.575-1.44H1.575c-.87 0-1.575.645-1.575 1.44v8.315c0 .795.705 1.44 1.575 1.44z"/>
          <path fill="#b5b5b5" d="M12.408 6.829V5.418c0-2.766-2.25-4.996-5.016-4.996-2.765 0-5.016 2.23-5.016 4.996v3.664h2.7V5.418c0-1.3.68-2.692 2.316-2.692 1.636 0 2.621 1.392 2.621 2.692 0 0 .86.195 1.17.584.078.097-.608.254-.648.471-.013.07.189.188.605.356z"/>
          <path fill="url(#k)" d="M13.2 20.98c.874 0 1.584-.71 1.584-1.585v-9.152c0-.874-.71-1.584-1.584-1.584H1.584C.709 8.66 0 9.37 0 10.243v9.152c0 .875.71 1.584 1.584 1.584z" style="fill:url(#k)"/>
          <path fill="url(#l)" d="M12.408 8.66V4.994C12.408 2.23 10.158 0 7.392 0 4.627 0 2.376 2.23 2.376 4.995V8.66h2.7V4.995c0-1.299.68-2.691 2.316-2.691 1.636 0 2.621 1.392 2.621 2.691 0 0 .04 3.447 0 3.664-.013.07.785.07 2.395 0z" style="fill:url(#l)"/>
        </g>
        <ellipse cx="11.971" cy="18.186" fill="#fff" fill-rule="nonzero" rx="1.859" ry="1.802"/>
        <path fill="url(#m)" d="M7.411 11.968a1.267 1.267 0 0 1 .803 2.247l.746 2.055H6.003l.649-2.02a1.267 1.267 0 0 1 .76-2.282z" style="fill:url(#m)"/>
      </g>
      <path fill="#e11d53" fill-rule="nonzero" d="m23.546 26.161.455-.456.456.456a.143.143 0 0 0 .203 0l.101-.101a.143.143 0 0 0 0-.203l-.456-.456.456-.455a.143.143 0 0 0 0-.203l-.101-.101a.143.143 0 0 0-.203 0l-.456.456-.455-.456a.143.143 0 0 0-.203 0l-.101.101a.143.143 0 0 0 0 .203l.456.455-.456.456a.143.143 0 0 0 0 .203l.101.101a.143.143 0 0 0 .203 0z"/>
    </g>
  </g>
</svg>
