<?xml version="1.0" encoding="UTF-8"?>
<svg id="Layer_1" data-name="Layer 1" xmlns="http://www.w3.org/2000/svg" xmlns:xlink="http://www.w3.org/1999/xlink" viewBox="0 0 1110 452">
  <defs>
    <mask id="mask" x="1069.92" y="-317.14" width="280.72" height="470.58" maskUnits="userSpaceOnUse"/>
    <mask id="mask-1" x="138.48" y="204.55" width="242.62" height="282.97" maskUnits="userSpaceOnUse">
      <g id="mask-9">
        <ellipse id="path-8-2" data-name="path-8" cx="274.05" cy="269.85" rx="66.19" ry="65.3" fill="#fff"/>
      </g>
    </mask>
    <mask id="mask-2" x="847.14" y="227" width="269.68" height="452.08" maskUnits="userSpaceOnUse">
      <g id="mask-9-2" data-name="mask-9">
        <ellipse id="path-8-4" data-name="path-8" cx="946.6" cy="286.61" rx="60.42" ry="59.61" fill="#fff"/>
      </g>
    </mask>
  </defs>
  <g id="humaaan-3">
    <g id="Clipped">
      <g id="Group">
        <g mask="url(#mask)">
          <g id="Bottom_Standing_Baggy-Pants" data-name="Bottom/Standing/Baggy-Pants">
            <g id="Accessories_Shoe_Flat-Sneaker" data-name="Accessories/Shoe/Flat-Sneaker">
              <path id="shoe" d="M1152.05,127.28c1.76,2.99,2.79,5.28,3.07,6.87.34,1.93.52,4.81.52,8.63-2.25.4-22.42,3.95-60.54,10.67-2.49-4.92-2.07-7.88,1.24-8.89,3.32-1.01,6.07-1.88,8.25-2.61l25.93-17.49c.5-.34,1.18-.2,1.51.29,0,0,.01.02.02.02l2.58,4.06h0c3.4.91,6.07,1.19,8.04.84,1.59-.28,3.68-1.31,6.26-3.09h0c.99-.68,2.35-.43,3.03.56.03.04.06.09.08.13Z" fill="#e4e4e4"/>
            </g>
          </g>
        </g>
      </g>
    </g>
  </g>
  <g>
    <rect x="-14.66" y="-22.81" width="547.92" height="495.82" fill="#f8f7fa"/>
    <rect x="534.19" y="-14" width="593.42" height="480.98" fill="#eae3ff"/>
  </g>
  <circle cx="268.44" cy="444.45" r="5.75" fill="#fff"/>
  <g>
    <path d="M78.64,25.79h6.79l6.44,10.87,6.4-10.87h6.75l-10.22,16.96v10.56h-6.05v-10.72l-10.1-16.81Z" fill="#9a95a3"/>
    <path d="M102.58,39.03c.49-1.3,1.18-2.4,2.08-3.32.9-.91,1.98-1.62,3.24-2.12s2.67-.75,4.24-.75,2.99.25,4.26.75c1.27.5,2.36,1.21,3.26,2.12.9.91,1.59,2.02,2.08,3.32s.73,2.74.73,4.34-.24,3.03-.73,4.32c-.49,1.29-1.18,2.38-2.08,3.3-.9.91-1.99,1.61-3.26,2.1-1.27.49-2.69.73-4.26.73s-2.98-.24-4.24-.73-2.34-1.19-3.24-2.1c-.9-.91-1.59-2.01-2.08-3.3-.49-1.28-.73-2.72-.73-4.32s.24-3.04.73-4.34ZM107.55,45.7c.15.76.42,1.44.79,2.04.37.6.87,1.09,1.48,1.45.62.36,1.39.54,2.31.54s1.7-.18,2.33-.54c.63-.36,1.13-.84,1.5-1.45.37-.6.64-1.28.79-2.04s.23-1.54.23-2.33-.08-1.58-.23-2.35c-.15-.77-.42-1.45-.79-2.04-.37-.59-.87-1.07-1.5-1.45-.63-.37-1.41-.56-2.33-.56s-1.7.19-2.31.56c-.62.37-1.11.86-1.48,1.45-.37.59-.64,1.27-.79,2.04-.15.77-.23,1.56-.23,2.35s.08,1.57.23,2.33Z" fill="#9a95a3"/>
    <path d="M139.51,53.32v-2.78h-.12c-.69,1.16-1.59,1.99-2.7,2.51-1.11.51-2.24.77-3.39.77-1.46,0-2.67-.19-3.6-.58-.94-.39-1.68-.93-2.22-1.64-.54-.71-.92-1.57-1.14-2.58-.22-1.02-.33-2.14-.33-3.37v-12.26h5.47v11.26c0,1.64.26,2.87.77,3.68.51.81,1.43,1.21,2.74,1.21,1.49,0,2.57-.44,3.24-1.33.67-.89,1-2.34,1-4.38v-10.45h5.47v19.93h-5.2Z" fill="#9a95a3"/>
    <path d="M154.08,33.38v3.7h.08c.25-.62.6-1.19,1.04-1.71s.94-.98,1.5-1.35c.57-.37,1.17-.66,1.81-.87s1.31-.31,2-.31c.36,0,.76.06,1.2.19v5.09c-.26-.05-.56-.1-.92-.13-.36-.04-.71-.06-1.04-.06-1,0-1.85.17-2.55.5-.69.33-1.25.79-1.68,1.37-.42.58-.72,1.25-.9,2.02-.18.77-.27,1.61-.27,2.51v8.98h-5.47v-19.93h5.2Z" fill="#9a95a3"/>
    <path d="M188.74,50.77c-.64,1.08-1.48,1.86-2.53,2.33-1.04.47-2.22.71-3.53.71-1.49,0-2.8-.29-3.93-.87s-2.06-1.36-2.79-2.35-1.29-2.13-1.66-3.41-.56-2.62-.56-4.01.19-2.63.56-3.87.93-2.34,1.66-3.3,1.65-1.72,2.76-2.29c1.1-.58,2.39-.87,3.86-.87,1.18,0,2.31.25,3.37.75,1.07.5,1.91,1.24,2.53,2.22h.08v-10.02h5.47v27.53h-5.2v-2.54h-.08ZM188.51,40.92c-.15-.76-.42-1.43-.79-2s-.85-1.05-1.45-1.41c-.59-.36-1.34-.54-2.24-.54s-1.66.18-2.27.54c-.62.36-1.11.84-1.48,1.43-.37.59-.64,1.27-.81,2.02-.17.76-.25,1.55-.25,2.37,0,.77.09,1.54.27,2.31.18.77.47,1.46.87,2.06s.9,1.09,1.5,1.47,1.33.56,2.18.56c.9,0,1.65-.18,2.25-.54.6-.36,1.09-.84,1.45-1.45.36-.6.62-1.29.77-2.06.15-.77.23-1.57.23-2.39s-.08-1.61-.23-2.37Z" fill="#9a95a3"/>
    <path d="M197.92,39.51c.08-1.29.4-2.35.96-3.2.56-.85,1.28-1.53,2.16-2.04.87-.51,1.86-.88,2.95-1.1s2.19-.33,3.3-.33c1,0,2.02.07,3.05.21,1.03.14,1.97.42,2.81.83.85.41,1.54.98,2.08,1.71s.81,1.7.81,2.91v10.37c0,.9.05,1.76.15,2.58.1.82.28,1.44.54,1.85h-5.55c-.1-.31-.19-.62-.25-.94-.07-.32-.11-.65-.14-.98-.87.9-1.9,1.53-3.08,1.89-1.18.36-2.39.54-3.62.54-.95,0-1.84-.12-2.66-.35-.82-.23-1.54-.59-2.16-1.08s-1.1-1.1-1.45-1.85c-.35-.75-.52-1.63-.52-2.66,0-1.13.2-2.06.6-2.79.4-.73.91-1.32,1.54-1.75.63-.44,1.35-.76,2.16-.98.81-.22,1.62-.39,2.45-.52s1.63-.23,2.43-.31,1.5-.19,2.12-.35c.62-.15,1.1-.38,1.47-.67.36-.3.53-.73.5-1.29,0-.59-.1-1.06-.29-1.41-.19-.35-.45-.62-.77-.81s-.69-.32-1.12-.39c-.42-.06-.88-.1-1.37-.1-1.08,0-1.93.23-2.54.69-.62.46-.98,1.23-1.08,2.31h-5.47ZM210.56,43.56c-.23.21-.52.37-.87.48-.35.12-.72.21-1.12.29-.4.08-.82.14-1.25.19s-.87.12-1.31.19c-.41.08-.82.18-1.21.31s-.75.3-1.04.52c-.3.22-.53.5-.71.83s-.27.76-.27,1.27.09.9.27,1.23c.18.33.42.6.73.79s.67.33,1.08.41c.41.08.84.11,1.27.11,1.08,0,1.91-.18,2.51-.54.59-.36,1.03-.79,1.31-1.29.28-.5.46-1.01.52-1.52s.1-.93.1-1.23v-2.04Z" fill="#9a95a3"/>
    <path d="M231.22,33.38v3.66h-4.01v9.87c0,.93.15,1.54.46,1.85.31.31.92.46,1.85.46.31,0,.6-.01.89-.04.28-.02.55-.06.81-.12v4.24c-.46.08-.98.13-1.54.15-.57.03-1.12.04-1.66.04-.85,0-1.65-.06-2.41-.17-.76-.12-1.43-.34-2-.67-.58-.33-1.04-.81-1.37-1.43-.33-.62-.5-1.43-.5-2.43v-11.76h-3.31v-3.66h3.31v-5.97h5.47v5.97h4.01Z" fill="#9a95a3"/>
    <path d="M233.61,39.51c.08-1.29.4-2.35.96-3.2.56-.85,1.28-1.53,2.16-2.04.87-.51,1.86-.88,2.95-1.1s2.19-.33,3.3-.33c1,0,2.02.07,3.05.21,1.03.14,1.97.42,2.81.83.85.41,1.54.98,2.08,1.71s.81,1.7.81,2.91v10.37c0,.9.05,1.76.15,2.58.1.82.28,1.44.54,1.85h-5.55c-.1-.31-.19-.62-.25-.94-.07-.32-.11-.65-.14-.98-.87.9-1.9,1.53-3.08,1.89-1.18.36-2.39.54-3.62.54-.95,0-1.84-.12-2.66-.35-.82-.23-1.54-.59-2.16-1.08s-1.1-1.1-1.45-1.85c-.35-.75-.52-1.63-.52-2.66,0-1.13.2-2.06.6-2.79.4-.73.91-1.32,1.54-1.75.63-.44,1.35-.76,2.16-.98.81-.22,1.62-.39,2.45-.52s1.63-.23,2.43-.31,1.5-.19,2.12-.35c.62-.15,1.1-.38,1.47-.67.36-.3.53-.73.5-1.29,0-.59-.1-1.06-.29-1.41-.19-.35-.45-.62-.77-.81s-.69-.32-1.12-.39c-.42-.06-.88-.1-1.37-.1-1.08,0-1.93.23-2.54.69-.62.46-.98,1.23-1.08,2.31h-5.47ZM246.26,43.56c-.23.21-.52.37-.87.48-.35.12-.72.21-1.12.29-.4.08-.82.14-1.25.19s-.87.12-1.31.19c-.41.08-.82.18-1.21.31s-.75.3-1.04.52c-.3.22-.53.5-.71.83s-.27.76-.27,1.27.09.9.27,1.23c.18.33.42.6.73.79s.67.33,1.08.41c.41.08.84.11,1.27.11,1.08,0,1.91-.18,2.51-.54.59-.36,1.03-.79,1.31-1.29.28-.5.46-1.01.52-1.52s.1-.93.1-1.23v-2.04Z" fill="#9a95a3"/>
    <path d="M266.81,39.03c.49-1.3,1.18-2.4,2.08-3.32s1.98-1.62,3.24-2.12c1.26-.5,2.67-.75,4.24-.75s2.99.25,4.26.75c1.27.5,2.36,1.21,3.26,2.12.9.91,1.59,2.02,2.08,3.32.49,1.3.73,2.74.73,4.34s-.24,3.03-.73,4.32c-.49,1.29-1.18,2.38-2.08,3.3-.9.91-1.99,1.61-3.26,2.1-1.27.49-2.69.73-4.26.73s-2.98-.24-4.24-.73c-1.26-.49-2.34-1.19-3.24-2.1s-1.59-2.01-2.08-3.3c-.49-1.28-.73-2.72-.73-4.32s.24-3.04.73-4.34ZM271.78,45.7c.15.76.42,1.44.79,2.04.37.6.87,1.09,1.48,1.45.62.36,1.39.54,2.31.54s1.7-.18,2.33-.54c.63-.36,1.13-.84,1.5-1.45s.64-1.28.79-2.04c.15-.76.23-1.54.23-2.33s-.08-1.58-.23-2.35c-.15-.77-.42-1.45-.79-2.04s-.87-1.07-1.5-1.45c-.63-.37-1.41-.56-2.33-.56s-1.7.19-2.31.56c-.62.37-1.11.86-1.48,1.45-.37.59-.64,1.27-.79,2.04-.15.77-.23,1.56-.23,2.35s.08,1.57.23,2.33Z" fill="#9a95a3"/>
    <path d="M295.45,33.38v2.78h.12c.69-1.16,1.59-2,2.7-2.53,1.1-.53,2.24-.79,3.39-.79,1.47,0,2.67.2,3.61.6.94.4,1.68.95,2.22,1.66.54.71.92,1.57,1.14,2.58s.33,2.14.33,3.37v12.26h-5.47v-11.26c0-1.64-.26-2.87-.77-3.68s-1.43-1.21-2.74-1.21c-1.49,0-2.57.44-3.24,1.33-.67.89-1,2.35-1,4.38v10.45h-5.47v-19.93h5.2Z" fill="#9a95a3"/>
    <path d="M334.77,33.38v3.66h-4.01v9.87c0,.93.15,1.54.46,1.85.31.31.92.46,1.85.46.31,0,.6-.01.89-.04.28-.02.55-.06.81-.12v4.24c-.46.08-.98.13-1.54.15-.57.03-1.12.04-1.66.04-.85,0-1.65-.06-2.41-.17-.76-.12-1.43-.34-2-.67-.58-.33-1.04-.81-1.37-1.43-.33-.62-.5-1.43-.5-2.43v-11.76h-3.31v-3.66h3.31v-5.97h5.47v5.97h4.01Z" fill="#9a95a3"/>
    <path d="M342.86,25.79v10.37h.12c.69-1.16,1.58-2,2.66-2.53,1.08-.53,2.13-.79,3.16-.79,1.47,0,2.67.2,3.61.6.94.4,1.68.95,2.22,1.66.54.71.92,1.57,1.14,2.58s.33,2.14.33,3.37v12.26h-5.47v-11.26c0-1.64-.26-2.87-.77-3.68s-1.43-1.21-2.74-1.21c-1.49,0-2.57.44-3.24,1.33-.67.89-1,2.35-1,4.38v10.45h-5.47v-27.53h5.47Z" fill="#9a95a3"/>
    <path d="M366.11,48.54c.82.8,2,1.19,3.55,1.19,1.1,0,2.06-.28,2.85-.83.8-.55,1.28-1.14,1.47-1.75h4.82c-.77,2.39-1.95,4.1-3.55,5.13-1.59,1.03-3.52,1.54-5.78,1.54-1.57,0-2.98-.25-4.24-.75s-2.33-1.21-3.2-2.14c-.87-.93-1.55-2.03-2.02-3.31-.48-1.29-.71-2.7-.71-4.24s.24-2.88.73-4.16c.49-1.29,1.18-2.4,2.08-3.33.9-.94,1.97-1.68,3.22-2.22,1.25-.54,2.63-.81,4.14-.81,1.7,0,3.17.33,4.43.98,1.26.65,2.29,1.53,3.1,2.64.81,1.11,1.39,2.37,1.75,3.78.36,1.41.49,2.89.39,4.43h-14.38c.08,1.77.53,3.06,1.35,3.86ZM372.3,38.05c-.66-.72-1.65-1.08-2.99-1.08-.87,0-1.6.15-2.18.44s-1.04.66-1.39,1.1c-.35.44-.59.9-.73,1.39-.14.49-.23.93-.25,1.31h8.91c-.26-1.39-.71-2.44-1.37-3.16Z" fill="#9a95a3"/>
    <path d="M410.25,53.32l-3.55-13.38h-.08l-3.39,13.38h-5.67l-6.32-19.93h5.78l3.66,13.53h.08l3.32-13.53h5.32l3.39,13.49h.08l3.66-13.49h5.63l-6.28,19.93h-5.63Z" fill="#9a95a3"/>
    <path d="M430.34,48.54c.82.8,2,1.19,3.55,1.19,1.1,0,2.06-.28,2.85-.83.8-.55,1.28-1.14,1.47-1.75h4.82c-.77,2.39-1.95,4.1-3.55,5.13-1.59,1.03-3.52,1.54-5.78,1.54-1.57,0-2.98-.25-4.24-.75s-2.33-1.21-3.2-2.14c-.87-.93-1.55-2.03-2.02-3.31-.48-1.29-.71-2.7-.71-4.24s.24-2.88.73-4.16c.49-1.29,1.18-2.4,2.08-3.33.9-.94,1.97-1.68,3.22-2.22,1.25-.54,2.63-.81,4.14-.81,1.7,0,3.17.33,4.43.98,1.26.65,2.29,1.53,3.1,2.64.81,1.11,1.39,2.37,1.75,3.78.36,1.41.49,2.89.39,4.43h-14.38c.08,1.77.53,3.06,1.35,3.86ZM436.52,38.05c-.66-.72-1.65-1.08-2.99-1.08-.87,0-1.6.15-2.18.44s-1.04.66-1.39,1.1c-.35.44-.59.9-.73,1.39-.14.49-.23.93-.25,1.31h8.91c-.26-1.39-.71-2.44-1.37-3.16Z" fill="#9a95a3"/>
    <path d="M452.08,25.79v10.02h.08c.67-1.03,1.57-1.78,2.72-2.26,1.14-.47,2.33-.71,3.56-.71,1,0,1.99.21,2.97.62.98.41,1.86,1.04,2.64,1.89.78.85,1.42,1.93,1.91,3.26s.73,2.9.73,4.72-.24,3.4-.73,4.72-1.13,2.41-1.91,3.26c-.78.85-1.66,1.48-2.64,1.89-.98.41-1.97.62-2.97.62-1.46,0-2.78-.23-3.93-.69-1.16-.46-2.03-1.25-2.62-2.35h-.08v2.54h-5.2v-27.53h5.47ZM460.95,40.94c-.18-.77-.46-1.45-.85-2.04s-.87-1.06-1.45-1.41c-.58-.35-1.28-.52-2.1-.52s-1.49.17-2.08.52c-.59.35-1.08.82-1.47,1.41-.39.59-.67,1.27-.85,2.04-.18.77-.27,1.58-.27,2.43s.09,1.62.27,2.39c.18.77.46,1.45.85,2.04.39.59.87,1.06,1.47,1.41.59.35,1.28.52,2.08.52s1.52-.17,2.1-.52c.58-.35,1.06-.82,1.45-1.41s.67-1.27.85-2.04c.18-.77.27-1.57.27-2.39s-.09-1.66-.27-2.43Z" fill="#9a95a3"/>
    <path d="M199.08,77.11v-7.05h31.23v7.05h-11.42v31.07h-8.38v-31.07h-11.42Z" fill="#9a95a3"/>
    <path d="M228.12,88.4c.68-1.8,1.64-3.33,2.88-4.59,1.25-1.26,2.74-2.24,4.48-2.94s3.7-1.04,5.87-1.04,4.14.35,5.9,1.04,3.26,1.67,4.51,2.94c1.25,1.26,2.21,2.79,2.88,4.59.67,1.8,1.01,3.8,1.01,6s-.34,4.2-1.01,5.98c-.68,1.78-1.64,3.3-2.88,4.56-1.25,1.26-2.75,2.23-4.51,2.91-1.76.67-3.73,1.01-5.9,1.01s-4.13-.34-5.87-1.01c-1.74-.68-3.24-1.65-4.48-2.91-1.25-1.26-2.21-2.78-2.88-4.56s-1.01-3.77-1.01-5.98.34-4.21,1.01-6ZM235,97.63c.21,1.05.58,1.99,1.09,2.83.52.84,1.2,1.5,2.06,2s1.92.75,3.2.75,2.36-.25,3.23-.75c.87-.5,1.57-1.17,2.08-2,.52-.84.88-1.78,1.09-2.83.21-1.05.32-2.13.32-3.23s-.11-2.19-.32-3.26c-.21-1.07-.58-2.01-1.09-2.83s-1.21-1.49-2.08-2c-.87-.52-1.95-.77-3.23-.77s-2.35.26-3.2.77c-.85.52-1.54,1.18-2.06,2s-.88,1.76-1.09,2.83c-.21,1.07-.32,2.15-.32,3.26s.11,2.18.32,3.23Z" fill="#9a95a3"/>
    <path d="M280.16,104.65c-.89,1.49-2.06,2.57-3.5,3.23-1.44.66-3.07.99-4.88.99-2.06,0-3.88-.4-5.44-1.2-1.57-.8-2.86-1.89-3.87-3.26-1.01-1.37-1.78-2.94-2.3-4.72s-.77-3.63-.77-5.55.26-3.64.77-5.36,1.28-3.25,2.3-4.56c1.02-1.32,2.29-2.37,3.82-3.18,1.53-.8,3.31-1.2,5.34-1.2,1.64,0,3.19.35,4.67,1.04s2.64,1.72,3.5,3.07h.11v-13.88h7.58v38.11h-7.21v-3.52h-.11ZM279.84,91.02c-.21-1.05-.58-1.98-1.09-2.78-.52-.8-1.18-1.45-2-1.95-.82-.5-1.85-.75-3.1-.75s-2.3.25-3.15.75c-.85.5-1.54,1.16-2.05,1.98s-.89,1.75-1.12,2.8-.35,2.14-.35,3.28c0,1.07.12,2.14.37,3.2s.65,2.02,1.2,2.86c.55.84,1.25,1.51,2.08,2.03.84.52,1.84.77,3.01.77,1.25,0,2.29-.25,3.12-.75.84-.5,1.5-1.17,2-2,.5-.84.85-1.79,1.07-2.86.21-1.07.32-2.17.32-3.31s-.11-2.23-.32-3.28Z" fill="#9a95a3"/>
    <path d="M292.86,89.07c.11-1.78.55-3.26,1.34-4.43.78-1.17,1.78-2.12,2.99-2.83,1.21-.71,2.57-1.22,4.08-1.52,1.51-.3,3.03-.45,4.56-.45,1.39,0,2.79.1,4.22.29,1.42.2,2.72.58,3.9,1.15s2.13,1.36,2.88,2.37c.75,1.01,1.12,2.36,1.12,4.03v14.36c0,1.25.07,2.44.21,3.58.14,1.14.39,1.99.75,2.56h-7.69c-.14-.43-.26-.86-.35-1.31-.09-.44-.15-.9-.19-1.36-1.21,1.25-2.63,2.12-4.27,2.62-1.64.5-3.31.75-5.02.75-1.32,0-2.55-.16-3.68-.48-1.14-.32-2.13-.82-2.99-1.49-.85-.67-1.52-1.53-2-2.56-.48-1.03-.72-2.26-.72-3.68,0-1.57.28-2.86.83-3.87.55-1.02,1.26-1.82,2.14-2.43.87-.6,1.87-1.06,2.99-1.36,1.12-.3,2.25-.54,3.39-.72,1.14-.18,2.26-.32,3.36-.43,1.1-.11,2.08-.27,2.94-.48.85-.21,1.53-.52,2.03-.93.5-.41.73-1,.69-1.79,0-.82-.13-1.47-.4-1.95-.27-.48-.62-.85-1.07-1.12s-.96-.44-1.55-.53c-.59-.09-1.22-.13-1.9-.13-1.49,0-2.67.32-3.52.96-.85.64-1.35,1.71-1.49,3.2h-7.58ZM310.37,94.67c-.32.29-.72.51-1.2.67-.48.16-1,.29-1.55.4-.55.11-1.13.2-1.73.27-.61.07-1.21.16-1.81.27-.57.11-1.13.25-1.68.43-.55.18-1.03.42-1.44.72-.41.3-.74.68-.99,1.15-.25.46-.37,1.05-.37,1.76s.12,1.25.37,1.71.59.83,1.02,1.09c.43.27.93.45,1.49.56.57.11,1.16.16,1.76.16,1.49,0,2.65-.25,3.47-.75.82-.5,1.42-1.09,1.81-1.79.39-.69.63-1.4.72-2.11.09-.71.13-1.28.13-1.71v-2.83Z" fill="#9a95a3"/>
    <path d="M334.02,116.4c-1.46.96-3.49,1.44-6.09,1.44-.78,0-1.56-.03-2.32-.08-.77-.05-1.54-.12-2.32-.19v-6.25c.71.07,1.44.14,2.19.21.75.07,1.5.09,2.24.05.99-.11,1.73-.5,2.22-1.17.48-.68.72-1.42.72-2.24,0-.61-.11-1.17-.32-1.71l-9.66-25.89h8.06l6.25,18.9h.11l6.03-18.9h7.85l-11.53,31.01c-.82,2.24-1.96,3.84-3.42,4.8Z" fill="#9a95a3"/>
  </g>
  <g>
    <path d="M627.62,25.79h6.79l6.44,10.87,6.4-10.87h6.75l-10.22,16.96v10.56h-6.05v-10.72l-10.1-16.81Z" fill="#7b4dff"/>
    <path d="M651.56,39.03c.49-1.3,1.18-2.4,2.08-3.32.9-.91,1.98-1.62,3.24-2.12,1.26-.5,2.67-.75,4.24-.75s2.99.25,4.26.75c1.27.5,2.36,1.21,3.26,2.12s1.59,2.02,2.08,3.32.73,2.74.73,4.34-.24,3.03-.73,4.32c-.49,1.29-1.18,2.38-2.08,3.3s-1.99,1.61-3.26,2.1c-1.27.49-2.69.73-4.26.73s-2.98-.24-4.24-.73c-1.26-.49-2.34-1.19-3.24-2.1-.9-.91-1.59-2.01-2.08-3.3-.49-1.28-.73-2.72-.73-4.32s.24-3.04.73-4.34ZM656.54,45.7c.15.76.42,1.44.79,2.04s.87,1.09,1.48,1.45c.62.36,1.39.54,2.31.54s1.7-.18,2.33-.54c.63-.36,1.13-.84,1.5-1.45.37-.6.64-1.28.79-2.04.15-.76.23-1.54.23-2.33s-.08-1.58-.23-2.35c-.15-.77-.42-1.45-.79-2.04-.37-.59-.87-1.07-1.5-1.45-.63-.37-1.41-.56-2.33-.56s-1.7.19-2.31.56c-.62.37-1.11.86-1.48,1.45s-.64,1.27-.79,2.04c-.15.77-.23,1.56-.23,2.35s.08,1.57.23,2.33Z" fill="#7b4dff"/>
    <path d="M688.49,53.32v-2.78h-.12c-.69,1.16-1.59,1.99-2.7,2.51-1.11.51-2.24.77-3.39.77-1.47,0-2.67-.19-3.6-.58-.94-.39-1.68-.93-2.22-1.64-.54-.71-.92-1.57-1.14-2.58-.22-1.02-.33-2.14-.33-3.37v-12.26h5.47v11.26c0,1.64.26,2.87.77,3.68s1.43,1.21,2.74,1.21c1.49,0,2.57-.44,3.24-1.33.67-.89,1-2.34,1-4.38v-10.45h5.47v19.93h-5.21Z" fill="#7b4dff"/>
    <path d="M703.07,33.38v3.7h.08c.25-.62.6-1.19,1.04-1.71s.94-.98,1.5-1.35c.57-.37,1.17-.66,1.81-.87s1.31-.31,2-.31c.36,0,.76.06,1.2.19v5.09c-.26-.05-.56-.1-.92-.13-.36-.04-.71-.06-1.04-.06-1,0-1.85.17-2.55.5-.69.33-1.25.79-1.68,1.37-.42.58-.72,1.25-.9,2.02-.18.77-.27,1.61-.27,2.51v8.98h-5.47v-19.93h5.2Z" fill="#7b4dff"/>
    <path d="M737.72,50.77c-.64,1.08-1.48,1.86-2.53,2.33-1.04.47-2.22.71-3.53.71-1.49,0-2.8-.29-3.93-.87s-2.06-1.36-2.79-2.35-1.29-2.13-1.66-3.41-.56-2.62-.56-4.01.19-2.63.56-3.87.93-2.34,1.66-3.3,1.65-1.72,2.76-2.29c1.1-.58,2.39-.87,3.86-.87,1.18,0,2.31.25,3.37.75,1.07.5,1.91,1.24,2.53,2.22h.08v-10.02h5.47v27.53h-5.2v-2.54h-.08ZM737.49,40.92c-.15-.76-.42-1.43-.79-2s-.85-1.05-1.45-1.41c-.59-.36-1.34-.54-2.24-.54s-1.66.18-2.27.54c-.62.36-1.11.84-1.48,1.43-.37.59-.64,1.27-.81,2.02-.17.76-.25,1.55-.25,2.37,0,.77.09,1.54.27,2.31.18.77.47,1.46.87,2.06s.9,1.09,1.5,1.47,1.33.56,2.18.56c.9,0,1.65-.18,2.25-.54.6-.36,1.09-.84,1.45-1.45.36-.6.62-1.29.77-2.06.15-.77.23-1.57.23-2.39s-.08-1.61-.23-2.37Z" fill="#7b4dff"/>
    <path d="M746.9,39.51c.08-1.29.4-2.35.96-3.2.56-.85,1.28-1.53,2.16-2.04.87-.51,1.86-.88,2.95-1.1s2.19-.33,3.3-.33c1,0,2.02.07,3.05.21,1.03.14,1.97.42,2.81.83.85.41,1.54.98,2.08,1.71s.81,1.7.81,2.91v10.37c0,.9.05,1.76.15,2.58.1.82.28,1.44.54,1.85h-5.55c-.1-.31-.19-.62-.25-.94-.07-.32-.11-.65-.14-.98-.87.9-1.9,1.53-3.08,1.89-1.18.36-2.39.54-3.62.54-.95,0-1.84-.12-2.66-.35-.82-.23-1.54-.59-2.16-1.08s-1.1-1.1-1.45-1.85c-.35-.75-.52-1.63-.52-2.66,0-1.13.2-2.06.6-2.79.4-.73.91-1.32,1.54-1.75.63-.44,1.35-.76,2.16-.98.81-.22,1.62-.39,2.45-.52s1.63-.23,2.43-.31,1.5-.19,2.12-.35c.62-.15,1.1-.38,1.47-.67.36-.3.53-.73.5-1.29,0-.59-.1-1.06-.29-1.41-.19-.35-.45-.62-.77-.81s-.69-.32-1.12-.39c-.42-.06-.88-.1-1.37-.1-1.08,0-1.93.23-2.54.69-.62.46-.98,1.23-1.08,2.31h-5.47ZM759.54,43.56c-.23.21-.52.37-.87.48-.35.12-.72.21-1.12.29-.4.08-.82.14-1.25.19s-.87.12-1.31.19c-.41.08-.82.18-1.21.31s-.75.3-1.04.52c-.3.22-.53.5-.71.83s-.27.76-.27,1.27.09.9.27,1.23c.18.33.42.6.73.79s.67.33,1.08.41c.41.08.84.11,1.27.11,1.08,0,1.91-.18,2.51-.54.59-.36,1.03-.79,1.31-1.29.28-.5.46-1.01.52-1.52s.1-.93.1-1.23v-2.04Z" fill="#7b4dff"/>
    <path d="M780.21,33.38v3.66h-4.01v9.87c0,.93.15,1.54.46,1.85.31.31.92.46,1.85.46.31,0,.6-.01.89-.04.28-.02.55-.06.81-.12v4.24c-.46.08-.98.13-1.54.15-.57.03-1.12.04-1.66.04-.85,0-1.65-.06-2.41-.17-.76-.12-1.43-.34-2-.67-.58-.33-1.04-.81-1.37-1.43-.33-.62-.5-1.43-.5-2.43v-11.76h-3.31v-3.66h3.31v-5.97h5.47v5.97h4.01Z" fill="#7b4dff"/>
    <path d="M782.59,39.51c.08-1.29.4-2.35.96-3.2.56-.85,1.28-1.53,2.16-2.04.87-.51,1.86-.88,2.95-1.1s2.19-.33,3.3-.33c1,0,2.02.07,3.05.21,1.03.14,1.97.42,2.81.83.85.41,1.54.98,2.08,1.71s.81,1.7.81,2.91v10.37c0,.9.05,1.76.15,2.58.1.82.28,1.44.54,1.85h-5.55c-.1-.31-.19-.62-.25-.94-.07-.32-.11-.65-.14-.98-.87.9-1.9,1.53-3.08,1.89-1.18.36-2.39.54-3.62.54-.95,0-1.84-.12-2.66-.35-.82-.23-1.54-.59-2.16-1.08s-1.1-1.1-1.45-1.85c-.35-.75-.52-1.63-.52-2.66,0-1.13.2-2.06.6-2.79.4-.73.91-1.32,1.54-1.75.63-.44,1.35-.76,2.16-.98.81-.22,1.62-.39,2.45-.52s1.63-.23,2.43-.31,1.5-.19,2.12-.35c.62-.15,1.1-.38,1.47-.67.36-.3.53-.73.5-1.29,0-.59-.1-1.06-.29-1.41-.19-.35-.45-.62-.77-.81s-.69-.32-1.12-.39c-.42-.06-.88-.1-1.37-.1-1.08,0-1.93.23-2.54.69-.62.46-.98,1.23-1.08,2.31h-5.47ZM795.24,43.56c-.23.21-.52.37-.87.48-.35.12-.72.21-1.12.29-.4.08-.82.14-1.25.19s-.87.12-1.31.19c-.41.08-.82.18-1.21.31s-.75.3-1.04.52c-.3.22-.53.5-.71.83s-.27.76-.27,1.27.09.9.27,1.23c.18.33.42.6.73.79s.67.33,1.08.41c.41.08.84.11,1.27.11,1.08,0,1.91-.18,2.51-.54.59-.36,1.03-.79,1.31-1.29.28-.5.46-1.01.52-1.52s.1-.93.1-1.23v-2.04Z" fill="#7b4dff"/>
    <path d="M815.79,39.03c.49-1.3,1.18-2.4,2.08-3.32s1.98-1.62,3.24-2.12c1.26-.5,2.67-.75,4.24-.75s2.99.25,4.26.75c1.27.5,2.36,1.21,3.26,2.12.9.91,1.59,2.02,2.08,3.32.49,1.3.73,2.74.73,4.34s-.24,3.03-.73,4.32c-.49,1.29-1.18,2.38-2.08,3.3-.9.91-1.99,1.61-3.26,2.1-1.27.49-2.69.73-4.26.73s-2.98-.24-4.24-.73c-1.26-.49-2.34-1.19-3.24-2.1s-1.59-2.01-2.08-3.3c-.49-1.28-.73-2.72-.73-4.32s.24-3.04.73-4.34ZM820.76,45.7c.15.76.42,1.44.79,2.04.37.6.87,1.09,1.48,1.45.62.36,1.39.54,2.31.54s1.7-.18,2.33-.54c.63-.36,1.13-.84,1.5-1.45s.64-1.28.79-2.04c.15-.76.23-1.54.23-2.33s-.08-1.58-.23-2.35c-.15-.77-.42-1.45-.79-2.04s-.87-1.07-1.5-1.45c-.63-.37-1.41-.56-2.33-.56s-1.7.19-2.31.56c-.62.37-1.11.86-1.48,1.45-.37.59-.64,1.27-.79,2.04-.15.77-.23,1.56-.23,2.35s.08,1.57.23,2.33Z" fill="#7b4dff"/>
    <path d="M844.43,33.38v2.78h.12c.69-1.16,1.59-2,2.7-2.53,1.1-.53,2.24-.79,3.39-.79,1.47,0,2.67.2,3.61.6.94.4,1.68.95,2.22,1.66.54.71.92,1.57,1.14,2.58s.33,2.14.33,3.37v12.26h-5.47v-11.26c0-1.64-.26-2.87-.77-3.68s-1.43-1.21-2.74-1.21c-1.49,0-2.57.44-3.24,1.33-.67.89-1,2.35-1,4.38v10.45h-5.47v-19.93h5.2Z" fill="#7b4dff"/>
    <path d="M883.75,33.38v3.66h-4.01v9.87c0,.93.15,1.54.46,1.85.31.31.92.46,1.85.46.31,0,.6-.01.89-.04.28-.02.55-.06.81-.12v4.24c-.46.08-.98.13-1.54.15-.57.03-1.12.04-1.66.04-.85,0-1.65-.06-2.41-.17-.76-.12-1.43-.34-2-.67-.58-.33-1.04-.81-1.37-1.43-.33-.62-.5-1.43-.5-2.43v-11.76h-3.31v-3.66h3.31v-5.97h5.47v5.97h4.01Z" fill="#7b4dff"/>
    <path d="M891.85,25.79v10.37h.12c.69-1.16,1.58-2,2.66-2.53,1.08-.53,2.13-.79,3.16-.79,1.47,0,2.67.2,3.61.6.94.4,1.68.95,2.22,1.66.54.71.92,1.57,1.14,2.58s.33,2.14.33,3.37v12.26h-5.47v-11.26c0-1.64-.26-2.87-.77-3.68s-1.43-1.21-2.74-1.21c-1.49,0-2.57.44-3.24,1.33-.67.89-1,2.35-1,4.38v10.45h-5.47v-27.53h5.47Z" fill="#7b4dff"/>
    <path d="M915.09,48.54c.82.8,2,1.19,3.55,1.19,1.1,0,2.06-.28,2.85-.83.8-.55,1.28-1.14,1.47-1.75h4.82c-.77,2.39-1.95,4.1-3.55,5.13-1.59,1.03-3.52,1.54-5.78,1.54-1.57,0-2.98-.25-4.24-.75s-2.33-1.21-3.2-2.14c-.87-.93-1.55-2.03-2.02-3.31-.48-1.29-.71-2.7-.71-4.24s.24-2.88.73-4.16c.49-1.29,1.18-2.4,2.08-3.33.9-.94,1.97-1.68,3.22-2.22,1.25-.54,2.63-.81,4.14-.81,1.7,0,3.17.33,4.43.98,1.26.65,2.29,1.53,3.1,2.64.81,1.11,1.39,2.37,1.75,3.78.36,1.41.49,2.89.39,4.43h-14.38c.08,1.77.53,3.06,1.35,3.86ZM921.28,38.05c-.66-.72-1.65-1.08-2.99-1.08-.87,0-1.6.15-2.18.44s-1.04.66-1.39,1.1c-.35.44-.59.9-.73,1.39-.14.49-.23.93-.25,1.31h8.91c-.26-1.39-.71-2.44-1.37-3.16Z" fill="#7b4dff"/>
    <path d="M959.23,53.32l-3.55-13.38h-.08l-3.39,13.38h-5.67l-6.32-19.93h5.78l3.66,13.53h.08l3.32-13.53h5.32l3.39,13.49h.08l3.66-13.49h5.63l-6.28,19.93h-5.63Z" fill="#7b4dff"/>
    <path d="M979.32,48.54c.82.8,2,1.19,3.55,1.19,1.1,0,2.06-.28,2.85-.83.8-.55,1.28-1.14,1.47-1.75h4.82c-.77,2.39-1.95,4.1-3.55,5.13-1.59,1.03-3.52,1.54-5.78,1.54-1.57,0-2.98-.25-4.24-.75s-2.33-1.21-3.2-2.14c-.87-.93-1.55-2.03-2.02-3.31-.48-1.29-.71-2.7-.71-4.24s.24-2.88.73-4.16c.49-1.29,1.18-2.4,2.08-3.33.9-.94,1.97-1.68,3.22-2.22,1.25-.54,2.63-.81,4.14-.81,1.7,0,3.17.33,4.43.98,1.26.65,2.29,1.53,3.1,2.64.81,1.11,1.39,2.37,1.75,3.78.36,1.41.49,2.89.39,4.43h-14.38c.08,1.77.53,3.06,1.35,3.86ZM985.51,38.05c-.66-.72-1.65-1.08-2.99-1.08-.87,0-1.6.15-2.18.44s-1.04.66-1.39,1.1c-.35.44-.59.9-.73,1.39-.14.49-.23.93-.25,1.31h8.91c-.26-1.39-.71-2.44-1.37-3.16Z" fill="#7b4dff"/>
    <path d="M1001.06,25.79v10.02h.08c.67-1.03,1.57-1.78,2.72-2.26,1.14-.47,2.33-.71,3.56-.71,1,0,1.99.21,2.97.62.98.41,1.86,1.04,2.64,1.89.78.85,1.42,1.93,1.91,3.26s.73,2.9.73,4.72-.24,3.4-.73,4.72-1.13,2.41-1.91,3.26c-.78.85-1.66,1.48-2.64,1.89-.98.41-1.97.62-2.97.62-1.46,0-2.78-.23-3.93-.69-1.16-.46-2.03-1.25-2.62-2.35h-.08v2.54h-5.2v-27.53h5.47ZM1009.93,40.94c-.18-.77-.46-1.45-.85-2.04s-.87-1.06-1.45-1.41c-.58-.35-1.28-.52-2.1-.52s-1.49.17-2.08.52c-.59.35-1.08.82-1.47,1.41-.39.59-.67,1.27-.85,2.04-.18.77-.27,1.58-.27,2.43s.09,1.62.27,2.39c.18.77.46,1.45.85,2.04.39.59.87,1.06,1.47,1.41.59.35,1.28.52,2.08.52s1.52-.17,2.1-.52c.58-.35,1.06-.82,1.45-1.41s.67-1.27.85-2.04c.18-.77.27-1.57.27-2.39s-.09-1.66-.27-2.43Z" fill="#7b4dff"/>
    <path d="M724.17,108.18l-4.91-18.52h-.11l-4.7,18.52h-7.85l-8.75-27.6h8.01l5.07,18.74h.11l4.59-18.74h7.37l4.7,18.68h.11l5.07-18.68h7.79l-8.7,27.6h-7.79Z" fill="#7b4dff"/>
    <path d="M744.08,76.31v-6.25h7.58v6.25h-7.58ZM751.66,80.58v27.6h-7.58v-27.6h7.58Z" fill="#7b4dff"/>
    <path d="M772.8,80.58v5.07h-5.55v13.67c0,1.28.21,2.13.64,2.56.43.43,1.28.64,2.56.64.43,0,.84-.02,1.23-.05.39-.04.76-.09,1.12-.16v5.87c-.64.11-1.35.18-2.14.21-.78.04-1.55.05-2.3.05-1.17,0-2.29-.08-3.34-.24-1.05-.16-1.98-.47-2.78-.93-.8-.46-1.43-1.12-1.89-1.98-.46-.85-.7-1.98-.7-3.36v-16.28h-4.59v-5.07h4.59v-8.27h7.58v8.27h5.55Z" fill="#7b4dff"/>
    <path d="M784.01,70.06v14.36h.16c.96-1.6,2.19-2.77,3.68-3.5,1.49-.73,2.95-1.09,4.38-1.09,2.03,0,3.69.28,4.99.83s2.32,1.32,3.07,2.3,1.27,2.17,1.57,3.58.45,2.96.45,4.67v16.97h-7.58v-15.59c0-2.28-.36-3.98-1.07-5.1-.71-1.12-1.98-1.68-3.79-1.68-2.06,0-3.56.61-4.48,1.84-.93,1.23-1.39,3.25-1.39,6.06v14.47h-7.58v-38.11h7.58Z" fill="#7b4dff"/>
    <path d="M830.13,98.78c.46.89,1.08,1.61,1.84,2.16.76.55,1.66.96,2.7,1.23,1.03.27,2.1.4,3.2.4.75,0,1.55-.06,2.4-.19.85-.12,1.66-.36,2.4-.72s1.37-.85,1.87-1.47c.5-.62.75-1.41.75-2.38,0-1.03-.33-1.87-.99-2.51-.66-.64-1.52-1.17-2.59-1.6s-2.28-.8-3.63-1.12-2.72-.68-4.11-1.07c-1.42-.35-2.81-.79-4.16-1.31-1.35-.52-2.56-1.18-3.63-2-1.07-.82-1.93-1.84-2.59-3.07s-.99-2.71-.99-4.46c0-1.96.42-3.66,1.26-5.1.84-1.44,1.93-2.64,3.28-3.6,1.35-.96,2.88-1.67,4.59-2.13,1.71-.46,3.42-.7,5.12-.7,1.99,0,3.91.22,5.74.67,1.83.45,3.46,1.17,4.88,2.16,1.42,1,2.55,2.27,3.39,3.82.84,1.55,1.25,3.43,1.25,5.63h-8.11c-.07-1.14-.31-2.08-.72-2.83s-.95-1.33-1.63-1.76c-.68-.43-1.45-.73-2.32-.91s-1.82-.27-2.86-.27c-.68,0-1.35.07-2.03.21-.68.14-1.29.39-1.84.75-.55.36-1,.8-1.36,1.34s-.53,1.21-.53,2.03c0,.75.14,1.35.43,1.81.28.46.84.89,1.68,1.28.84.39,1.99.78,3.47,1.17,1.48.39,3.41.89,5.79,1.49.71.14,1.7.4,2.96.77,1.26.37,2.52.97,3.76,1.79,1.25.82,2.32,1.91,3.23,3.28s1.36,3.12,1.36,5.26c0,1.74-.34,3.36-1.01,4.86-.68,1.5-1.68,2.79-3.02,3.87-1.34,1.09-2.99,1.93-4.97,2.54-1.98.61-4.26.91-6.86.91-2.1,0-4.14-.26-6.11-.77s-3.72-1.32-5.23-2.43c-1.51-1.1-2.71-2.51-3.6-4.22-.89-1.71-1.32-3.74-1.28-6.09h8.11c0,1.28.23,2.37.69,3.26Z" fill="#7b4dff"/>
    <path d="M857.73,88.4c.68-1.8,1.64-3.33,2.88-4.59,1.25-1.26,2.74-2.24,4.48-2.94s3.7-1.04,5.87-1.04,4.14.35,5.9,1.04,3.26,1.67,4.51,2.94c1.25,1.26,2.21,2.79,2.88,4.59.67,1.8,1.01,3.8,1.01,6s-.34,4.2-1.01,5.98c-.68,1.78-1.64,3.3-2.88,4.56-1.25,1.26-2.75,2.23-4.51,2.91-1.76.67-3.73,1.01-5.9,1.01s-4.13-.34-5.87-1.01c-1.74-.68-3.24-1.65-4.48-2.91-1.25-1.26-2.21-2.78-2.88-4.56s-1.01-3.77-1.01-5.98.34-4.21,1.01-6ZM864.61,97.63c.21,1.05.58,1.99,1.09,2.83.52.84,1.2,1.5,2.06,2s1.92.75,3.2.75,2.36-.25,3.23-.75c.87-.5,1.57-1.17,2.08-2,.52-.84.88-1.78,1.09-2.83.21-1.05.32-2.13.32-3.23s-.11-2.19-.32-3.26c-.21-1.07-.58-2.01-1.09-2.83s-1.21-1.49-2.08-2c-.87-.52-1.95-.77-3.23-.77s-2.35.26-3.2.77c-.85.52-1.54,1.18-2.06,2s-.88,1.76-1.09,2.83c-.21,1.07-.32,2.15-.32,3.26s.11,2.18.32,3.23Z" fill="#7b4dff"/>
    <path d="M897.97,70.06v38.11h-7.58v-38.11h7.58Z" fill="#7b4dff"/>
    <path d="M904.16,76.31v-6.25h7.58v6.25h-7.58ZM911.75,80.58v27.6h-7.58v-27.6h7.58Z" fill="#7b4dff"/>
    <path d="M937.31,104.65c-.89,1.49-2.06,2.57-3.5,3.23-1.44.66-3.07.99-4.88.99-2.06,0-3.88-.4-5.44-1.2-1.57-.8-2.86-1.89-3.87-3.26-1.01-1.37-1.78-2.94-2.3-4.72s-.77-3.63-.77-5.55.26-3.64.77-5.36,1.28-3.25,2.3-4.56c1.02-1.32,2.29-2.37,3.82-3.18,1.53-.8,3.31-1.2,5.34-1.2,1.64,0,3.19.35,4.67,1.04s2.64,1.72,3.5,3.07h.11v-13.88h7.58v38.11h-7.21v-3.52h-.11ZM936.99,91.02c-.21-1.05-.58-1.98-1.09-2.78-.52-.8-1.18-1.45-2-1.95-.82-.5-1.85-.75-3.1-.75s-2.3.25-3.15.75c-.85.5-1.54,1.16-2.05,1.98s-.89,1.75-1.12,2.8-.35,2.14-.35,3.28c0,1.07.12,2.14.37,3.2s.65,2.02,1.2,2.86c.55.84,1.25,1.51,2.08,2.03.84.52,1.84.77,3.01.77,1.25,0,2.29-.25,3.12-.75.84-.5,1.5-1.17,2-2,.5-.84.85-1.79,1.07-2.86.21-1.07.32-2.17.32-3.31s-.11-2.23-.32-3.28Z" fill="#7b4dff"/>
  </g>
  <path id="m" d="M585.65,366.84v-32h2.89v-4.36c0-2.4,1.96-4.36,4.36-4.36h14.44c2.4,0,4.34,1.94,4.34,4.34v4.39h2.89v32h-28.92ZM594.32,334.84h11.57v-2.91h-11.57v2.91ZM581.31,366.84c-2.4,0-4.34-1.94-4.34-4.34v-23.32c0-2.4,1.94-4.34,4.34-4.34h1.45v32h-1.45ZM617.46,366.84v-32h1.45c2.4,0,4.34,1.94,4.34,4.34v23.32c0,2.4-1.94,4.34-4.34,4.34h-1.45ZM598.67,358.11h2.88c.8,0,1.45-.65,1.45-1.45v-4.37h4.34c.8,0,1.45-.65,1.45-1.45v-2.92c0-.8-.65-1.45-1.45-1.45h-4.33v-4.36c0-.8-.65-1.45-1.45-1.45h-2.88c-.8,0-1.45.65-1.45,1.45v4.37h-4.34c-.8,0-1.45.65-1.45,1.45v2.92c0,.8.65,1.45,1.45,1.45h4.33v4.36c0,.8.65,1.45,1.45,1.45Z" fill="#7b4dff"/>
  <path id="m-2" data-name="m" d="M628.91,422.71c6.7,0,12.13-5.43,12.13-12.13v-105.16c0-6.7-5.43-12.13-12.13-12.13h-56.62c-6.7,0-12.13,5.43-12.13,12.13v105.16c0,6.7,5.43,12.13,12.13,12.13h56.62ZM628.61,413.53h-56.05c-.88,0-1.59-.71-1.59-1.59v-107.9c0-.87.71-1.59,1.59-1.59h56.05c.88,0,1.6.72,1.6,1.6v107.87c0,.88-.72,1.6-1.6,1.6ZM599.55,406.47c5.3.66,9.73-3.77,9.07-9.07-.45-3.59-3.38-6.53-6.97-6.97-5.3-.66-9.73,3.77-9.07,9.07.45,3.59,3.38,6.53,6.97,6.97Z" fill="#7b4dff"/>
  <path id="m-3" data-name="m" d="M1071.72,221.77c6.7,0,12.13-5.43,12.13-12.13v-105.16c0-6.7-5.43-12.13-12.13-12.13h-56.62c-6.7,0-12.13,5.43-12.13,12.13v105.16c0,6.7,5.43,12.13,12.13,12.13h56.62ZM1071.42,212.59h-56.05c-.88,0-1.59-.71-1.59-1.59v-107.9c0-.87.71-1.59,1.59-1.59h56.05c.88,0,1.6.72,1.6,1.6v107.87c0,.88-.72,1.6-1.6,1.6ZM1042.36,205.52c5.3.66,9.73-3.77,9.07-9.07-.45-3.59-3.38-6.53-6.97-6.97-5.3-.66-9.73,3.77-9.07,9.07.45,3.59,3.38,6.53,6.97,6.97Z" fill="#7b4dff"/>
  <path id="c" d="M1057.53,173.35c.53,0,1.03-.42,1.03-1.03v-4.47h2.75c3.03,0,5.5-2.47,5.5-5.5v-13.75c0-3.03-2.47-5.5-5.5-5.5h-8.25v-8.25c0-3.03-2.47-5.5-5.5-5.5h-24.75c-3.03,0-5.5,2.47-5.5,5.5v13.75c0,3.03,2.47,5.5,5.5,5.5h2.75v4.47c0,.61.5,1.03,1.03,1.03.21,0,.42-.06.61-.21l6.61-3.74v6.69c0,3.03,2.47,5.5,5.5,5.5h8.25l9.36,5.29c.19.14.4.21.61.21ZM1029.68,153.25v-3.27h-6.87c-.76,0-1.37-.62-1.37-1.37v-13.75c0-.76.62-1.37,1.37-1.37h24.75c.76,0,1.37.62,1.37,1.37v13.75c0,.76-.62,1.37-1.37,1.37h-12.08l-.95.53-4.85,2.74ZM1054.43,167l-4.85-2.74-.95-.53h-9.33c-.76,0-1.37-.62-1.37-1.37v-8.25h9.62c3.03,0,5.5-2.47,5.5-5.5v-1.37h8.25c.76,0,1.37.62,1.37,1.37v13.75c0,.76-.62,1.37-1.37,1.37h-6.87v3.27Z" fill="#7b4dff"/>
  <line x1="637.12" y1="377.57" x2="1001.59" y2="154.1" fill="none" stroke="#7b4dff" stroke-dasharray="0 11.85" stroke-linecap="round" stroke-linejoin="round" stroke-width="5.92"/>
  <line x1="122.01" y1="333.34" x2="206.74" y2="264.27" fill="none" stroke="#7b4dff" stroke-dasharray="0 14.12" stroke-linecap="round" stroke-linejoin="round" stroke-width="7.06"/>
  <line x1="117.03" y1="187.68" x2="205.03" y2="262.55" fill="none" stroke="#7b4dff" stroke-dasharray="0 14.12" stroke-linecap="round" stroke-linejoin="round" stroke-width="7.06"/>
  <line x1="433.27" y1="334.33" x2="349.74" y2="266.27" fill="none" stroke="#7b4dff" stroke-dasharray="0 14.12" stroke-linecap="round" stroke-linejoin="round" stroke-width="7.06"/>
  <line x1="430.28" y1="188.68" x2="351.45" y2="264.55" fill="none" stroke="#7b4dff" stroke-dasharray="0 14.12" stroke-linecap="round" stroke-linejoin="round" stroke-width="7.06"/>
  <g id="humaaan-3-2" data-name="humaaan-3">
    <g id="Mask">
      <g id="path-4-link">
        <g id="path-4">
          <ellipse cx="274.05" cy="269.85" rx="63.54" ry="62.66"/>
        </g>
      </g>
      <g id="Oval">
        <g id="path-7">
          <ellipse cx="274.05" cy="269.85" rx="66.19" ry="65.3" fill="#bfb0ff"/>
          <path d="M274.05,222.14c-26.8,0-48.6,21.41-48.6,47.72s21.8,47.72,48.6,47.72,48.6-21.41,48.6-47.72-21.8-47.72-48.6-47.72Z" fill="#fff"/>
        </g>
        <g id="path-7-2" data-name="path-7">
          <path d="M274.05,345.31c-42.09,0-76.33-33.85-76.33-75.45s34.24-75.45,76.33-75.45,76.33,33.85,76.33,75.45-34.24,75.45-76.33,75.45ZM274.05,214.7c-30.9,0-56.04,24.74-56.04,55.15s25.14,55.16,56.04,55.16,56.04-24.74,56.04-55.16-25.14-55.15-56.04-55.15Z" fill="#7b4dff"/>
        </g>
      </g>
    </g>
    <g id="Clipped-2" data-name="Clipped">
      <g id="Group-2" data-name="Group">
        <g id="Mask-2" data-name="Mask">
          <ellipse id="path-8" cx="274.05" cy="269.85" rx="66.19" ry="65.3" fill="#fff"/>
        </g>
        <g mask="url(#mask-1)">
          <g>
            <g id="Head_Front_Short-Beard" data-name="Head/Front/Short-Beard">
              <g id="Head">
                <g id="Path">
                  <path d="M251.88,226.73c-7.7,11.74-9.65,43.07-1.28,46.02,3.34,1.18,10.79-.34,18.58-4.14l-7.51,32.4,27.42,2.4-5.6-44.76c5.8-5.71,10.03-12.96,10.17-21.48.42-24.56-34.09-22.17-41.79-10.43Z" fill="#b28b67"/>
                </g>
              </g>
              <g id="Hair">
                <path d="M267.8,216.04c-7.75-.01-14.83,1.73-16.9,2.95-.64,7.27.59,9.55,12.66,10.42,2.83,1.82,4.87,4.71,6.93,8.44-2.33,14.51-5.74,21.56-10.25,21.17-6.76-.59-12.11-5.37-15.08-5.63-2.16-.19-1.91,2.55-.66,4.68,1.04,1.75,6.65,3.85,6.43,6.41-.22,2.56-4.6.18-4.73,1.7-.22,2.51-1.43,7.16,2.93,7.55,4.42.39,17.23-.11,19.97-6.47,1.77-4.1,3.44-12.78,5.02-26.03.27-.01.54,0,.82.02,3.79.33,6.59,3.66,6.26,7.44-.17,1.92-1.11,3.58-2.49,4.72,1.39,2.37,2.96,4.87,4.79,7.45,8.05-3.91,14.91-16.84,8.55-30.38-1.52-6.5-5.9-10.28-11.29-12.33-4.32-2.26-8.95-2.88-12.97-2.1Z" fill="#7b4dff"/>
              </g>
            </g>
            <g id="Body_Hoodie" data-name="Body/Hoodie">
              <g id="Skin">
                <path d="M341.94,386.59l-23.97.09c14.8,47.7,22.79,73.01,23.97,75.93,2.65,6.57-2.96,16.57-5.36,21.94,7.82,3.49,6.99-9.45,16.86-4.86,9.01,4.18,15.86,11.76,26.26,5.35,1.28-.79,2.68-3.76-.71-6.07-8.44-5.78-20.6-15.89-22.24-19.22-2.24-4.54-7.18-28.93-14.81-73.16h0ZM201.47,385.66l-36.59,26.82c-9.92,2.67-18.21,6-24.87,9.98-1.57,1.43-3.47,4.33,3.05,3.83,6.52-.5,13.4-.73,14.3,1.49.9,2.22-3.05,4.88-1.23,7.87,1.21,2,6.94-3.01,17.19-15.03l36.23-15-8.09-19.96Z" fill="#b28b67"/>
              </g>
              <g id="Coat-Back">
                <path d="M273.82,286.17l-9.92-1.7c-36.8,31.74-51.91,92.71-97.02,125.01l10.86,13.44c78.25-9.67,97.64-84.04,96.08-136.75Z" fill="#7b4dff"/>
              </g>
              <g id="Shirt">
                <path d="M317.06,410.61h-87.76c-4.01,0-3.25-5.78-2.67-8.7,6.69-33.67,32.81-69.96,32.81-117.88l25.31-3.96c20.94,33.62,28.18,75.01,32.31,130.55Z" fill="#7b4dff"/>
              </g>
              <g id="Coat-Front">
                <path d="M286.65,280.07c-.86,0-1.64.05-2.35.16l-7.93.45c-22.74,76.93-29.01,128.26-18.81,153.98h69.07c4.09,9.53,8.01,17.54,11.75,24.05h18.82c1.77-57.18-11.84-105.71-40.85-145.59,3.67-1.05,6.59-3.52,8.73-7.38,9.25-16.67,5.91-25.84-3.98-28.86-9.89-3.02-18.7,3.2-34.46,3.2Z" fill="#7b4dff"/>
              </g>
              <g id="Shade" opacity=".1">
                <path d="M301,434.66h25.63c-4.77-11.11-9.79-24.28-15.04-39.51-2.17,18.14-5.7,31.31-10.59,39.51Z"/>
              </g>
            </g>
          </g>
        </g>
      </g>
    </g>
  </g>
  <g>
    <line x1="53.61" y1="136.29" x2="155.11" y2="198.8" fill="none" stroke="#ffab50" stroke-dasharray="0 5.45" stroke-linecap="round" stroke-linejoin="round" stroke-width="2.72"/>
    <line x1="159.57" y1="138.23" x2="58.91" y2="197.13" fill="none" stroke="#ffab50" stroke-dasharray="0 5.45" stroke-linecap="round" stroke-linejoin="round" stroke-width="2.72"/>
    <line x1="105.8" y1="103.77" x2="105.8" y2="224.35" fill="none" stroke="#ffab50" stroke-dasharray="0 5.45" stroke-linecap="round" stroke-linejoin="round" stroke-width="2.72"/>
    <g>
      <g id="Oval-Copy-4">
        <path d="M105.55,124.83c-11.18,0-20.27-9.09-20.27-20.27s9.09-20.27,20.27-20.27,20.27,9.09,20.27,20.27-9.09,20.27-20.27,20.27Z" fill="#b094ff" fill-rule="evenodd"/>
        <path d="M105.55,85.65c10.44,0,18.91,8.47,18.91,18.91s-8.47,18.91-18.91,18.91-18.91-8.47-18.91-18.91,8.47-18.91,18.91-18.91M105.55,82.93c-11.93,0-21.63,9.7-21.63,21.63s9.7,21.63,21.63,21.63,21.63-9.7,21.63-21.63-9.7-21.63-21.63-21.63h0Z" fill="#fff"/>
      </g>
      <path id="h" d="M106.35,108.37l1.88-3.77.84,1.68h5.01c.91-1.06,1.43-2.38,1.43-3.79,0-3.76-3.27-5.92-5.96-5.92-1.38,0-2.69.47-3.74,1.32-1.05-.86-2.36-1.32-3.74-1.32-2.7,0-5.97,2.16-5.97,5.92,0,1.41.52,2.73,1.43,3.79h4.43l1.13-2.72,2.16,4.79c.21.47.87.48,1.1.02ZM105.83,106.68l-2.21-4.9c-.22-.49-.91-.47-1.12.02l-1.36,3.27h-2.27c-2.23-2.64-.27-6.68,3.18-6.68,1.18,0,1.93.24,3.74,2.03,1.94-1.92,2.62-2.03,3.74-2.03,3.46,0,5.41,4.04,3.18,6.68h-2.91l-1.05-2.09c-.22-.45-.86-.45-1.08,0l-1.85,3.71ZM107.48,112.87l5.43-5.38h-2.59l-4.13,4.08c-.22.22-.57.22-.79,0l-4.13-4.08h-2.59l5.43,5.38c.93.92,2.42.92,3.35,0Z" fill="#fff"/>
    </g>
    <g>
      <g id="Oval-Copy-4-2" data-name="Oval-Copy-4">
        <path d="M105.46,246.16c-11.18,0-20.27-9.09-20.27-20.27s9.09-20.27,20.27-20.27,20.27,9.09,20.27,20.27-9.09,20.27-20.27,20.27Z" fill="#b094ff" fill-rule="evenodd"/>
        <path d="M105.46,206.98c10.44,0,18.91,8.47,18.91,18.91s-8.47,18.91-18.91,18.91-18.91-8.47-18.91-18.91,8.47-18.91,18.91-18.91M105.46,204.26c-11.93,0-21.63,9.7-21.63,21.63s9.7,21.63,21.63,21.63,21.63-9.7,21.63-21.63-9.7-21.63-21.63-21.63h0Z" fill="#fff"/>
      </g>
      <path id="r" d="M107.8,218.96c1.34,0,2.42-1.08,2.42-2.42s-1.09-2.42-2.42-2.42-2.42,1.08-2.42,2.42,1.09,2.42,2.42,2.42ZM106.59,239.96c.53,0,1.01-.35,1.17-.88l1.68-5.27c.35-1.22-.17-2.54-1.26-3.2l-2.62-1.58,2.12-5.29c.14.18.26.38.32.61l.7,2.32c.36,1.19,1.45,2,2.7,2h2.44s0,0,0,0c.67,0,1.21-.54,1.21-1.21,0-.67-.54-1.21-1.21-1.22h-2.44c-.18,0-.33-.12-.38-.29l-.7-2.32c-.46-1.52-1.72-2.69-3.27-3.04l-3.95-.89c-1.3-.3-2.65,0-3.7.82l-2.44,1.89c-.53.41-.63,1.17-.22,1.7.41.53,1.17.63,1.7.22l2.44-1.89c.48-.37,1.09-.5,1.68-.37l.75.17-1.78,4.41c-.52,1.29-.03,2.76,1.16,3.48l4.23,2.55c.11.07.19.22.19.35,0,.03,0,.08-.02.11l-1.68,5.27c-.18.64.19,1.31.83,1.5.11.03.22.05.33.05ZM99.06,235.12c1.13,0,2.15-.67,2.6-1.71l.68-1.6-.48-.29c-.6-.36-1.07-.85-1.43-1.4l-1,2.34c-.06.15-.21.25-.37.25h-3.78c-.67,0-1.21.54-1.21,1.21s.54,1.21,1.21,1.21h3.78Z" fill="#fff"/>
    </g>
    <g>
      <g id="Oval-2" data-name="Oval">
        <path d="M155.55,160.49c-11.18,0-20.27-9.09-20.27-20.27s9.09-20.27,20.27-20.27,20.27,9.09,20.27,20.27-9.09,20.27-20.27,20.27Z" fill="#b094ff" fill-rule="evenodd"/>
        <path d="M155.55,121.31c10.44,0,18.91,8.47,18.91,18.91s-8.47,18.91-18.91,18.91-18.91-8.47-18.91-18.91,8.47-18.91,18.91-18.91M155.55,118.59c-11.93,0-21.63,9.7-21.63,21.63s9.7,21.63,21.63,21.63,21.63-9.7,21.63-21.63-9.7-21.63-21.63-21.63h0Z" fill="#fff"/>
      </g>
      <path id="i" d="M164.45,144.47c1.01,0,1.82-.82,1.82-1.82v-9.71c0-1.01-.82-1.82-1.82-1.82h-14.56c-1.01,0-1.82.82-1.82,1.82v9.71c0,1.01.82,1.82,1.82,1.82h14.56ZM164.22,142.65h-14.11c-.13,0-.23-.1-.23-.23v-9.25c0-.13.1-.23.23-.23h14.11c.13,0,.23.1.23.23v9.25c0,.13-.1.23-.23.23ZM152.92,136.88c.84,0,1.52-.68,1.52-1.52s-.68-1.52-1.52-1.52-1.52.68-1.52,1.52.68,1.52,1.52,1.52ZM160.81,148.11c1.01,0,1.82-.82,1.82-1.82v-.61h-1.82v.38c0,.13-.1.23-.23.23h-14.11c-.13,0-.23-.1-.23-.23v-9.25c0-.13.1-.23.23-.23h.38v-1.82h-.61c-1.01,0-1.82.82-1.82,1.82v9.71c0,1.01.82,1.82,1.82,1.82h14.56ZM162.63,140.83v-3.03l-2.71-2.71c-.18-.18-.47-.18-.64,0l-3.93,3.93-1.5-1.5c-.18-.18-.47-.18-.64,0l-1.5,1.5v1.82h10.92Z" fill="#fff"/>
    </g>
    <g>
      <g id="Oval-Copy-3">
        <path d="M153.54,215.43c-11.18,0-20.27-9.09-20.27-20.27s9.09-20.27,20.27-20.27,20.27,9.09,20.27,20.27-9.09,20.27-20.27,20.27Z" fill="#b094ff" fill-rule="evenodd"/>
        <path d="M153.54,176.25c10.44,0,18.91,8.47,18.91,18.91s-8.47,18.91-18.91,18.91-18.91-8.47-18.91-18.91,8.47-18.91,18.91-18.91M153.54,173.53c-11.93,0-21.63,9.7-21.63,21.63s9.7,21.63,21.63,21.63,21.63-9.7,21.63-21.63-9.7-21.63-21.63-21.63h0Z" fill="#fff"/>
      </g>
      <path id="m-4" data-name="m" d="M146.61,204.26c1.87,0,3.4-1.18,3.6-2.7.02-.1.04-.21.04-.33,0,0,0,0,0-.01v-6.68l10.32-3.26v4.89c-.54-.26-1.15-.42-1.82-.42-2.01,0-3.64,1.36-3.64,3.03s1.63,3.03,3.64,3.03c1.87,0,3.4-1.18,3.6-2.7.02-.1.04-.2.04-.31v-.02h0s0,0,0,0v-12.74c0-.69-.57-1.21-1.21-1.21-.12,0-.24.02-.37.06l-11.53,3.64c-.5.16-.85.63-.85,1.16v8.92c-.54-.26-1.15-.42-1.82-.42-2.01,0-3.64,1.36-3.64,3.03s1.63,3.03,3.64,3.03ZM150.25,192.64v-2.5l10.32-3.26v2.5l-10.32,3.26ZM158.75,200.01c-1.07,0-1.82-.64-1.82-1.21s.75-1.21,1.82-1.21,1.82.64,1.82,1.21h0c0,.57-.75,1.21-1.82,1.21ZM146.61,202.44c-1.07,0-1.82-.64-1.82-1.21s.75-1.21,1.82-1.21,1.82.64,1.82,1.21-.75,1.21-1.82,1.21Z" fill="#fff"/>
    </g>
    <g>
      <g id="Oval-Copy">
        <path d="M59.52,216.79c-11.18,0-20.27-9.09-20.27-20.27s9.09-20.27,20.27-20.27,20.27,9.09,20.27,20.27-9.09,20.27-20.27,20.27Z" fill="#b094ff" fill-rule="evenodd"/>
        <path d="M59.52,177.61c10.44,0,18.91,8.47,18.91,18.91s-8.47,18.91-18.91,18.91-18.91-8.47-18.91-18.91,8.47-18.91,18.91-18.91M59.52,174.89c-11.93,0-21.63,9.7-21.63,21.63s9.7,21.63,21.63,21.63,21.63-9.7,21.63-21.63-9.7-21.63-21.63-21.63h0Z" fill="#fff"/>
      </g>
      <path id="f" d="M65.58,205.62c1.01,0,1.82-.82,1.82-1.82v-12.59c0-.48-.2-.95-.54-1.29l-3.18-3.18c-.34-.34-.8-.53-1.29-.53h-7.74c-1.01,0-1.82.82-1.82,1.82v15.77c0,1.01.82,1.82,1.82,1.82h10.92ZM65.59,203.8h-10.92v-15.77h6.07v3.94c0,.5.41.91.91.91h3.94v10.92ZM65.44,191.06h-2.89v-2.89l2.89,2.89ZM61.04,201.98c.17,0,.3-.14.3-.3v-2.12h2.12c.17,0,.3-.14.3-.3v-1.82c0-.17-.14-.3-.3-.3h-2.12v-2.12c0-.17-.14-.3-.3-.3h-1.82c-.17,0-.3.14-.3.3v2.12h-2.12c-.17,0-.3.14-.3.3v1.82c0,.17.14.3.3.3h2.12v2.12c0,.17.14.3.3.3h1.82Z" fill="#fff"/>
    </g>
    <g>
      <g id="Oval-Copy-5">
        <path d="M56.29,159.55c-11.18,0-20.27-9.09-20.27-20.27s9.09-20.27,20.27-20.27,20.27,9.09,20.27,20.27-9.09,20.27-20.27,20.27Z" fill="#b094ff" fill-rule="evenodd"/>
        <path d="M56.29,120.37c10.44,0,18.91,8.47,18.91,18.91s-8.47,18.91-18.91,18.91-18.91-8.47-18.91-18.91,8.47-18.91,18.91-18.91M56.29,117.65c-11.93,0-21.63,9.7-21.63,21.63s9.7,21.63,21.63,21.63,21.63-9.7,21.63-21.63-9.7-21.63-21.63-21.63h0Z" fill="#fff"/>
      </g>
      <path id="c-2" data-name="c" d="M62.37,147.62c.92,0,1.66-.75,1.66-1.66v-12.2c0-.92-.75-1.66-1.66-1.66h-1.66v-1.8c0-.23-.19-.42-.42-.42h-1.39c-.23,0-.42.19-.42.42v1.8h-4.44v-1.8c0-.23-.19-.42-.42-.42h-1.39c-.23,0-.42.19-.42.42v1.8h-1.66c-.92,0-1.66.75-1.66,1.66v12.2c0,.92.75,1.66,1.66,1.66h12.2ZM62.16,145.95h-11.79c-.11,0-.21-.09-.21-.21v-10.33h12.2v10.33c0,.11-.09.21-.21.21Z" fill="#fff"/>
    </g>
    <g>
      <rect x="93.39" y="141.1" width="25.02" height="44.75" fill="#fff"/>
      <path d="M117.12,188.6c2.54,0,4.6-2.06,4.6-4.6v-39.87c0-2.54-2.06-4.6-4.6-4.6h-21.47c-2.54,0-4.6,2.06-4.6,4.6v39.87c0,2.54,2.06,4.6,4.6,4.6h21.47ZM117,185.12h-21.25c-.33,0-.6-.27-.6-.6v-40.91c0-.33.27-.6.6-.6h21.25c.34,0,.61.27.61.61v40.9c0,.33-.27.61-.61.61ZM105.98,182.44c2.01.25,3.69-1.43,3.44-3.44-.17-1.36-1.28-2.47-2.64-2.64-2.01-.25-3.69,1.43-3.44,3.44.17,1.36,1.28,2.47,2.64,2.64Z" fill="#ffab50"/>
    </g>
  </g>
  <g>
    <line x1="389.99" y1="135.62" x2="491.49" y2="198.14" fill="none" stroke="#362b48" stroke-dasharray="0 5.45" stroke-linecap="round" stroke-linejoin="round" stroke-width="2.72"/>
    <line x1="495.95" y1="137.57" x2="395.29" y2="196.46" fill="none" stroke="#362b48" stroke-dasharray="0 5.45" stroke-linecap="round" stroke-linejoin="round" stroke-width="2.72"/>
    <line x1="442.18" y1="103.11" x2="442.18" y2="223.69" fill="none" stroke="#362b48" stroke-dasharray="0 5.45" stroke-linecap="round" stroke-linejoin="round" stroke-width="2.72"/>
    <g>
      <g id="Oval-Copy-4-3" data-name="Oval-Copy-4">
        <path d="M441.93,124.16c-11.18,0-20.27-9.09-20.27-20.27s9.09-20.27,20.27-20.27,20.27,9.09,20.27,20.27-9.09,20.27-20.27,20.27Z" fill="#b094ff" fill-rule="evenodd"/>
        <path d="M441.93,84.98c10.44,0,18.91,8.47,18.91,18.91s-8.47,18.91-18.91,18.91-18.91-8.47-18.91-18.91,8.47-18.91,18.91-18.91M441.93,82.26c-11.93,0-21.63,9.7-21.63,21.63s9.7,21.63,21.63,21.63,21.63-9.7,21.63-21.63-9.7-21.63-21.63-21.63h0Z" fill="#fff"/>
      </g>
      <path id="h-2" data-name="h" d="M442.72,107.71l1.88-3.77.84,1.68h5.01c.91-1.06,1.43-2.38,1.43-3.79,0-3.76-3.27-5.92-5.96-5.92-1.38,0-2.69.47-3.74,1.32-1.05-.86-2.36-1.32-3.74-1.32-2.7,0-5.97,2.16-5.97,5.92,0,1.41.52,2.73,1.43,3.79h4.43l1.13-2.72,2.16,4.79c.21.47.87.48,1.1.02ZM442.21,106.02l-2.21-4.9c-.22-.49-.91-.47-1.12.02l-1.36,3.27h-2.27c-2.23-2.64-.27-6.68,3.18-6.68,1.18,0,1.93.24,3.74,2.03,1.94-1.92,2.62-2.03,3.74-2.03,3.46,0,5.41,4.04,3.18,6.68h-2.91l-1.05-2.09c-.22-.45-.86-.45-1.08,0l-1.85,3.71ZM443.86,112.2l5.43-5.38h-2.59l-4.13,4.08c-.22.22-.57.22-.79,0l-4.13-4.08h-2.59l5.43,5.38c.93.92,2.42.92,3.35,0Z" fill="#fff"/>
    </g>
    <g>
      <g id="Oval-Copy-4-4" data-name="Oval-Copy-4">
        <path d="M441.84,245.49c-11.18,0-20.27-9.09-20.27-20.27s9.09-20.27,20.27-20.27,20.27,9.09,20.27,20.27-9.09,20.27-20.27,20.27Z" fill="#b094ff" fill-rule="evenodd"/>
        <path d="M441.84,206.31c10.44,0,18.91,8.47,18.91,18.91s-8.47,18.91-18.91,18.91-18.91-8.47-18.91-18.91,8.47-18.91,18.91-18.91M441.84,203.59c-11.93,0-21.63,9.7-21.63,21.63s9.7,21.63,21.63,21.63,21.63-9.7,21.63-21.63-9.7-21.63-21.63-21.63h0Z" fill="#fff"/>
      </g>
      <path id="r-2" data-name="r" d="M444.18,218.3c1.34,0,2.42-1.08,2.42-2.42s-1.09-2.42-2.42-2.42-2.42,1.08-2.42,2.42,1.09,2.42,2.42,2.42ZM442.97,239.3c.53,0,1.01-.35,1.17-.88l1.68-5.27c.35-1.22-.17-2.54-1.26-3.2l-2.62-1.58,2.12-5.29c.14.18.26.38.32.61l.7,2.32c.36,1.19,1.45,2,2.7,2h2.44s0,0,0,0c.67,0,1.21-.54,1.21-1.21,0-.67-.54-1.21-1.21-1.22h-2.44c-.18,0-.33-.12-.38-.29l-.7-2.32c-.46-1.52-1.72-2.69-3.27-3.04l-3.95-.89c-1.3-.3-2.65,0-3.7.82l-2.44,1.89c-.53.41-.63,1.17-.22,1.7.41.53,1.17.63,1.7.22l2.44-1.89c.48-.37,1.09-.5,1.68-.37l.75.17-1.78,4.41c-.52,1.29-.03,2.76,1.16,3.48l4.23,2.55c.11.07.19.22.19.35,0,.03,0,.08-.02.11l-1.68,5.27c-.18.64.19,1.31.83,1.5.11.03.22.05.33.05ZM435.44,234.45c1.13,0,2.15-.67,2.6-1.71l.68-1.6-.48-.29c-.6-.36-1.07-.85-1.43-1.4l-1,2.34c-.06.15-.21.25-.37.25h-3.78c-.67,0-1.21.54-1.21,1.21s.54,1.21,1.21,1.21h3.78Z" fill="#fff"/>
    </g>
    <g>
      <g id="Oval-3" data-name="Oval">
        <path d="M491.93,159.83c-11.18,0-20.27-9.09-20.27-20.27s9.09-20.27,20.27-20.27,20.27,9.09,20.27,20.27-9.09,20.27-20.27,20.27Z" fill="#b094ff" fill-rule="evenodd"/>
        <path d="M491.93,120.65c10.44,0,18.91,8.47,18.91,18.91s-8.47,18.91-18.91,18.91-18.91-8.47-18.91-18.91,8.47-18.91,18.91-18.91M491.93,117.92c-11.93,0-21.63,9.7-21.63,21.63s9.7,21.63,21.63,21.63,21.63-9.7,21.63-21.63-9.7-21.63-21.63-21.63h0Z" fill="#fff"/>
      </g>
      <path id="i-2" data-name="i" d="M500.83,143.8c1.01,0,1.82-.82,1.82-1.82v-9.71c0-1.01-.82-1.82-1.82-1.82h-14.56c-1.01,0-1.82.82-1.82,1.82v9.71c0,1.01.82,1.82,1.82,1.82h14.56ZM500.6,141.98h-14.11c-.13,0-.23-.1-.23-.23v-9.25c0-.13.1-.23.23-.23h14.11c.13,0,.23.1.23.23v9.25c0,.13-.1.23-.23.23ZM489.3,136.22c.84,0,1.52-.68,1.52-1.52s-.68-1.52-1.52-1.52-1.52.68-1.52,1.52.68,1.52,1.52,1.52ZM497.19,147.44c1.01,0,1.82-.82,1.82-1.82v-.61h-1.82v.38c0,.13-.1.23-.23.23h-14.11c-.13,0-.23-.1-.23-.23v-9.25c0-.13.1-.23.23-.23h.38v-1.82h-.61c-1.01,0-1.82.82-1.82,1.82v9.71c0,1.01.82,1.82,1.82,1.82h14.56ZM499.01,140.16v-3.03l-2.71-2.71c-.18-.18-.47-.18-.64,0l-3.93,3.93-1.5-1.5c-.18-.18-.47-.18-.64,0l-1.5,1.5v1.82h10.92Z" fill="#fff"/>
    </g>
    <g>
      <g id="Oval-Copy-3-2" data-name="Oval-Copy-3">
        <path d="M489.92,214.77c-11.18,0-20.27-9.09-20.27-20.27s9.09-20.27,20.27-20.27,20.27,9.09,20.27,20.27-9.09,20.27-20.27,20.27Z" fill="#b094ff" fill-rule="evenodd"/>
        <path d="M489.92,175.59c10.44,0,18.91,8.47,18.91,18.91s-8.47,18.91-18.91,18.91-18.91-8.47-18.91-18.91,8.47-18.91,18.91-18.91M489.92,172.86c-11.93,0-21.63,9.7-21.63,21.63s9.7,21.63,21.63,21.63,21.63-9.7,21.63-21.63-9.7-21.63-21.63-21.63h0Z" fill="#fff"/>
      </g>
      <path id="m-5" data-name="m" d="M482.99,203.6c1.87,0,3.4-1.18,3.6-2.7.02-.1.04-.21.04-.33,0,0,0,0,0-.01v-6.68l10.32-3.26v4.89c-.54-.26-1.15-.42-1.82-.42-2.01,0-3.64,1.36-3.64,3.03s1.63,3.03,3.64,3.03c1.87,0,3.4-1.18,3.6-2.7.02-.1.04-.2.04-.31v-.02h0s0,0,0,0v-12.74c0-.69-.57-1.21-1.21-1.21-.12,0-.24.02-.37.06l-11.53,3.64c-.5.16-.85.63-.85,1.16v8.92c-.54-.26-1.15-.42-1.82-.42-2.01,0-3.64,1.36-3.64,3.03s1.63,3.03,3.64,3.03ZM486.63,191.98v-2.5l10.32-3.26v2.5l-10.32,3.26ZM495.13,199.35c-1.07,0-1.82-.64-1.82-1.21s.75-1.21,1.82-1.21,1.82.64,1.82,1.21h0c0,.57-.75,1.21-1.82,1.21ZM482.99,201.78c-1.07,0-1.82-.64-1.82-1.21s.75-1.21,1.82-1.21,1.82.64,1.82,1.21-.75,1.21-1.82,1.21Z" fill="#fff"/>
    </g>
    <g>
      <g id="Oval-Copy-2" data-name="Oval-Copy">
        <path d="M395.9,216.13c-11.18,0-20.27-9.09-20.27-20.27s9.09-20.27,20.27-20.27,20.27,9.09,20.27,20.27-9.09,20.27-20.27,20.27Z" fill="#b094ff" fill-rule="evenodd"/>
        <path d="M395.9,176.95c10.44,0,18.91,8.47,18.91,18.91s-8.47,18.91-18.91,18.91-18.91-8.47-18.91-18.91,8.47-18.91,18.91-18.91M395.9,174.22c-11.93,0-21.63,9.7-21.63,21.63s9.7,21.63,21.63,21.63,21.63-9.7,21.63-21.63-9.7-21.63-21.63-21.63h0Z" fill="#fff"/>
      </g>
      <path id="f-2" data-name="f" d="M401.96,204.96c1.01,0,1.82-.82,1.82-1.82v-12.59c0-.48-.2-.95-.54-1.29l-3.18-3.18c-.34-.34-.8-.53-1.29-.53h-7.74c-1.01,0-1.82.82-1.82,1.82v15.77c0,1.01.82,1.82,1.82,1.82h10.92ZM401.97,203.14h-10.92v-15.77h6.07v3.94c0,.5.41.91.91.91h3.94v10.92ZM401.81,190.4h-2.89v-2.89l2.89,2.89ZM397.41,201.32c.17,0,.3-.14.3-.3v-2.12h2.12c.17,0,.3-.14.3-.3v-1.82c0-.17-.14-.3-.3-.3h-2.12v-2.12c0-.17-.14-.3-.3-.3h-1.82c-.17,0-.3.14-.3.3v2.12h-2.12c-.17,0-.3.14-.3.3v1.82c0,.17.14.3.3.3h2.12v2.12c0,.17.14.3.3.3h1.82Z" fill="#fff"/>
    </g>
    <g>
      <g id="Oval-Copy-5-2" data-name="Oval-Copy-5">
        <path d="M392.66,158.89c-11.18,0-20.27-9.09-20.27-20.27s9.09-20.27,20.27-20.27,20.27,9.09,20.27,20.27-9.09,20.27-20.27,20.27Z" fill="#b094ff" fill-rule="evenodd"/>
        <path d="M392.66,119.71c10.44,0,18.91,8.47,18.91,18.91s-8.47,18.91-18.91,18.91-18.91-8.47-18.91-18.91,8.47-18.91,18.91-18.91M392.66,116.98c-11.93,0-21.63,9.7-21.63,21.63s9.7,21.63,21.63,21.63,21.63-9.7,21.63-21.63-9.7-21.63-21.63-21.63h0Z" fill="#fff"/>
      </g>
      <path id="c-3" data-name="c" d="M398.74,146.95c.92,0,1.66-.75,1.66-1.66v-12.2c0-.92-.75-1.66-1.66-1.66h-1.66v-1.8c0-.23-.19-.42-.42-.42h-1.39c-.23,0-.42.19-.42.42v1.8h-4.44v-1.8c0-.23-.19-.42-.42-.42h-1.39c-.23,0-.42.19-.42.42v1.8h-1.66c-.92,0-1.66.75-1.66,1.66v12.2c0,.92.75,1.66,1.66,1.66h12.2ZM398.54,145.29h-11.79c-.11,0-.21-.09-.21-.21v-10.33h12.2v10.33c0,.11-.09.21-.21.21Z" fill="#fff"/>
    </g>
    <g>
      <rect x="429.77" y="140.44" width="25.02" height="44.75" fill="#fff"/>
      <path d="M453.49,187.94c2.54,0,4.6-2.06,4.6-4.6v-39.87c0-2.54-2.06-4.6-4.6-4.6h-21.47c-2.54,0-4.6,2.06-4.6,4.6v39.87c0,2.54,2.06,4.6,4.6,4.6h21.47ZM453.38,184.46h-21.25c-.33,0-.6-.27-.6-.6v-40.91c0-.33.27-.6.6-.6h21.25c.34,0,.61.27.61.61v40.9c0,.33-.27.61-.61.61ZM442.36,181.78c2.01.25,3.69-1.43,3.44-3.44-.17-1.36-1.28-2.47-2.64-2.64-2.01-.25-3.69,1.43-3.44,3.44.17,1.36,1.28,2.47,2.64,2.64Z" fill="#362b48"/>
    </g>
  </g>
  <g>
    <line x1="53.61" y1="330.32" x2="155.11" y2="392.83" fill="none" stroke="#d4cde0" stroke-dasharray="0 5.45" stroke-linecap="round" stroke-linejoin="round" stroke-width="2.72"/>
    <line x1="159.57" y1="332.26" x2="58.91" y2="391.16" fill="none" stroke="#d4cde0" stroke-dasharray="0 5.45" stroke-linecap="round" stroke-linejoin="round" stroke-width="2.72"/>
    <line x1="105.8" y1="297.8" x2="105.8" y2="418.38" fill="none" stroke="#d4cde0" stroke-dasharray="0 5.45" stroke-linecap="round" stroke-linejoin="round" stroke-width="2.72"/>
    <g>
      <g id="Oval-Copy-4-5" data-name="Oval-Copy-4">
        <path d="M105.55,318.86c-11.18,0-20.27-9.09-20.27-20.27s9.09-20.27,20.27-20.27,20.27,9.09,20.27,20.27-9.09,20.27-20.27,20.27Z" fill="#b094ff" fill-rule="evenodd"/>
        <path d="M105.55,279.68c10.44,0,18.91,8.47,18.91,18.91s-8.47,18.91-18.91,18.91-18.91-8.47-18.91-18.91,8.47-18.91,18.91-18.91M105.55,276.96c-11.93,0-21.63,9.7-21.63,21.63s9.7,21.63,21.63,21.63,21.63-9.7,21.63-21.63-9.7-21.63-21.63-21.63h0Z" fill="#fff"/>
      </g>
      <path id="h-3" data-name="h" d="M106.35,302.4l1.88-3.77.84,1.68h5.01c.91-1.06,1.43-2.38,1.43-3.79,0-3.76-3.27-5.92-5.96-5.92-1.38,0-2.69.47-3.74,1.32-1.05-.86-2.36-1.32-3.74-1.32-2.7,0-5.97,2.16-5.97,5.92,0,1.41.52,2.73,1.43,3.79h4.43l1.13-2.72,2.16,4.79c.21.47.87.48,1.1.02ZM105.83,300.71l-2.21-4.9c-.22-.49-.91-.47-1.12.02l-1.36,3.27h-2.27c-2.23-2.64-.27-6.68,3.18-6.68,1.18,0,1.93.24,3.74,2.03,1.94-1.92,2.62-2.03,3.74-2.03,3.46,0,5.41,4.04,3.18,6.68h-2.91l-1.05-2.09c-.22-.45-.86-.45-1.08,0l-1.85,3.71ZM107.48,306.9l5.43-5.38h-2.59l-4.13,4.08c-.22.22-.57.22-.79,0l-4.13-4.08h-2.59l5.43,5.38c.93.92,2.42.92,3.35,0Z" fill="#fff"/>
    </g>
    <g>
      <g id="Oval-Copy-4-6" data-name="Oval-Copy-4">
        <path d="M105.46,440.19c-11.18,0-20.27-9.09-20.27-20.27s9.09-20.27,20.27-20.27,20.27,9.09,20.27,20.27-9.09,20.27-20.27,20.27Z" fill="#b094ff" fill-rule="evenodd"/>
        <path d="M105.46,401.01c10.44,0,18.91,8.47,18.91,18.91s-8.47,18.91-18.91,18.91-18.91-8.47-18.91-18.91,8.47-18.91,18.91-18.91M105.46,398.29c-11.93,0-21.63,9.7-21.63,21.63s9.7,21.63,21.63,21.63,21.63-9.7,21.63-21.63-9.7-21.63-21.63-21.63h0Z" fill="#fff"/>
      </g>
      <path id="r-3" data-name="r" d="M107.8,412.99c1.34,0,2.42-1.08,2.42-2.42s-1.09-2.42-2.42-2.42-2.42,1.08-2.42,2.42,1.09,2.42,2.42,2.42ZM106.59,433.99c.53,0,1.01-.35,1.17-.88l1.68-5.27c.35-1.22-.17-2.54-1.26-3.2l-2.62-1.58,2.12-5.29c.14.18.26.38.32.61l.7,2.32c.36,1.19,1.45,2,2.7,2h2.44s0,0,0,0c.67,0,1.21-.54,1.21-1.21,0-.67-.54-1.21-1.21-1.22h-2.44c-.18,0-.33-.12-.38-.29l-.7-2.32c-.46-1.52-1.72-2.69-3.27-3.04l-3.95-.89c-1.3-.3-2.65,0-3.7.82l-2.44,1.89c-.53.41-.63,1.17-.22,1.7.41.53,1.17.63,1.7.22l2.44-1.89c.48-.37,1.09-.5,1.68-.37l.75.17-1.78,4.41c-.52,1.29-.03,2.76,1.16,3.48l4.23,2.55c.11.07.19.22.19.35,0,.03,0,.08-.02.11l-1.68,5.27c-.18.64.19,1.31.83,1.5.11.03.22.05.33.05ZM99.06,429.15c1.13,0,2.15-.67,2.6-1.71l.68-1.6-.48-.29c-.6-.36-1.07-.85-1.43-1.4l-1,2.34c-.06.15-.21.25-.37.25h-3.78c-.67,0-1.21.54-1.21,1.21s.54,1.21,1.21,1.21h3.78Z" fill="#fff"/>
    </g>
    <g>
      <g id="Oval-4" data-name="Oval">
        <path d="M155.55,354.52c-11.18,0-20.27-9.09-20.27-20.27s9.09-20.27,20.27-20.27,20.27,9.09,20.27,20.27-9.09,20.27-20.27,20.27Z" fill="#b094ff" fill-rule="evenodd"/>
        <path d="M155.55,315.34c10.44,0,18.91,8.47,18.91,18.91s-8.47,18.91-18.91,18.91-18.91-8.47-18.91-18.91,8.47-18.91,18.91-18.91M155.55,312.62c-11.93,0-21.63,9.7-21.63,21.63s9.7,21.63,21.63,21.63,21.63-9.7,21.63-21.63-9.7-21.63-21.63-21.63h0Z" fill="#fff"/>
      </g>
      <path id="i-3" data-name="i" d="M164.45,338.5c1.01,0,1.82-.82,1.82-1.82v-9.71c0-1.01-.82-1.82-1.82-1.82h-14.56c-1.01,0-1.82.82-1.82,1.82v9.71c0,1.01.82,1.82,1.82,1.82h14.56ZM164.22,336.68h-14.11c-.13,0-.23-.1-.23-.23v-9.25c0-.13.1-.23.23-.23h14.11c.13,0,.23.1.23.23v9.25c0,.13-.1.23-.23.23ZM152.92,330.91c.84,0,1.52-.68,1.52-1.52s-.68-1.52-1.52-1.52-1.52.68-1.52,1.52.68,1.52,1.52,1.52ZM160.81,342.14c1.01,0,1.82-.82,1.82-1.82v-.61h-1.82v.38c0,.13-.1.23-.23.23h-14.11c-.13,0-.23-.1-.23-.23v-9.25c0-.13.1-.23.23-.23h.38v-1.82h-.61c-1.01,0-1.82.82-1.82,1.82v9.71c0,1.01.82,1.82,1.82,1.82h14.56ZM162.63,334.86v-3.03l-2.71-2.71c-.18-.18-.47-.18-.64,0l-3.93,3.93-1.5-1.5c-.18-.18-.47-.18-.64,0l-1.5,1.5v1.82h10.92Z" fill="#fff"/>
    </g>
    <g>
      <g id="Oval-Copy-3-3" data-name="Oval-Copy-3">
        <path d="M153.54,409.46c-11.18,0-20.27-9.09-20.27-20.27s9.09-20.27,20.27-20.27,20.27,9.09,20.27,20.27-9.09,20.27-20.27,20.27Z" fill="#b094ff" fill-rule="evenodd"/>
        <path d="M153.54,370.28c10.44,0,18.91,8.47,18.91,18.91s-8.47,18.91-18.91,18.91-18.91-8.47-18.91-18.91,8.47-18.91,18.91-18.91M153.54,367.56c-11.93,0-21.63,9.7-21.63,21.63s9.7,21.63,21.63,21.63,21.63-9.7,21.63-21.63-9.7-21.63-21.63-21.63h0Z" fill="#fff"/>
      </g>
      <path id="m-6" data-name="m" d="M146.61,398.29c1.87,0,3.4-1.18,3.6-2.7.02-.1.04-.21.04-.33,0,0,0,0,0-.01v-6.68l10.32-3.26v4.89c-.54-.26-1.15-.42-1.82-.42-2.01,0-3.64,1.36-3.64,3.03s1.63,3.03,3.64,3.03c1.87,0,3.4-1.18,3.6-2.7.02-.1.04-.2.04-.31v-.02h0s0,0,0,0v-12.74c0-.69-.57-1.21-1.21-1.21-.12,0-.24.02-.37.06l-11.53,3.64c-.5.16-.85.63-.85,1.16v8.92c-.54-.26-1.15-.42-1.82-.42-2.01,0-3.64,1.36-3.64,3.03s1.63,3.03,3.64,3.03ZM150.25,386.68v-2.5l10.32-3.26v2.5l-10.32,3.26ZM158.75,394.05c-1.07,0-1.82-.64-1.82-1.21s.75-1.21,1.82-1.21,1.82.64,1.82,1.21h0c0,.57-.75,1.21-1.82,1.21ZM146.61,396.47c-1.07,0-1.82-.64-1.82-1.21s.75-1.21,1.82-1.21,1.82.64,1.82,1.21-.75,1.21-1.82,1.21Z" fill="#fff"/>
    </g>
    <g>
      <g id="Oval-Copy-3" data-name="Oval-Copy">
        <path d="M59.52,410.82c-11.18,0-20.27-9.09-20.27-20.27s9.09-20.27,20.27-20.27,20.27,9.09,20.27,20.27-9.09,20.27-20.27,20.27Z" fill="#b094ff" fill-rule="evenodd"/>
        <path d="M59.52,371.64c10.44,0,18.91,8.47,18.91,18.91s-8.47,18.91-18.91,18.91-18.91-8.47-18.91-18.91,8.47-18.91,18.91-18.91M59.52,368.92c-11.93,0-21.63,9.7-21.63,21.63s9.7,21.63,21.63,21.63,21.63-9.7,21.63-21.63-9.7-21.63-21.63-21.63h0Z" fill="#fff"/>
      </g>
      <path id="f-3" data-name="f" d="M65.58,399.65c1.01,0,1.82-.82,1.82-1.82v-12.59c0-.48-.2-.95-.54-1.29l-3.18-3.18c-.34-.34-.8-.53-1.29-.53h-7.74c-1.01,0-1.82.82-1.82,1.82v15.77c0,1.01.82,1.82,1.82,1.82h10.92ZM65.59,397.83h-10.92v-15.77h6.07v3.94c0,.5.41.91.91.91h3.94v10.92ZM65.44,385.09h-2.89v-2.89l2.89,2.89ZM61.04,396.01c.17,0,.3-.14.3-.3v-2.12h2.12c.17,0,.3-.14.3-.3v-1.82c0-.17-.14-.3-.3-.3h-2.12v-2.12c0-.17-.14-.3-.3-.3h-1.82c-.17,0-.3.14-.3.3v2.12h-2.12c-.17,0-.3.14-.3.3v1.82c0,.17.14.3.3.3h2.12v2.12c0,.17.14.3.3.3h1.82Z" fill="#fff"/>
    </g>
    <g>
      <g id="Oval-Copy-5-3" data-name="Oval-Copy-5">
        <path d="M56.29,353.58c-11.18,0-20.27-9.09-20.27-20.27s9.09-20.27,20.27-20.27,20.27,9.09,20.27,20.27-9.09,20.27-20.27,20.27Z" fill="#b094ff" fill-rule="evenodd"/>
        <path d="M56.29,314.4c10.44,0,18.91,8.47,18.91,18.91s-8.47,18.91-18.91,18.91-18.91-8.47-18.91-18.91,8.47-18.91,18.91-18.91M56.29,311.68c-11.93,0-21.63,9.7-21.63,21.63s9.7,21.63,21.63,21.63,21.63-9.7,21.63-21.63-9.7-21.63-21.63-21.63h0Z" fill="#fff"/>
      </g>
      <path id="c-4" data-name="c" d="M62.37,341.65c.92,0,1.66-.75,1.66-1.66v-12.2c0-.92-.75-1.66-1.66-1.66h-1.66v-1.8c0-.23-.19-.42-.42-.42h-1.39c-.23,0-.42.19-.42.42v1.8h-4.44v-1.8c0-.23-.19-.42-.42-.42h-1.39c-.23,0-.42.19-.42.42v1.8h-1.66c-.92,0-1.66.75-1.66,1.66v12.2c0,.92.75,1.66,1.66,1.66h12.2ZM62.16,339.98h-11.79c-.11,0-.21-.09-.21-.21v-10.33h12.2v10.33c0,.11-.09.21-.21.21Z" fill="#fff"/>
    </g>
    <g>
      <rect x="93.39" y="335.14" width="25.02" height="44.75" fill="#fff"/>
      <path d="M117.12,382.64c2.54,0,4.6-2.06,4.6-4.6v-39.87c0-2.54-2.06-4.6-4.6-4.6h-21.47c-2.54,0-4.6,2.06-4.6,4.6v39.87c0,2.54,2.06,4.6,4.6,4.6h21.47ZM117,379.16h-21.25c-.33,0-.6-.27-.6-.6v-40.91c0-.33.27-.6.6-.6h21.25c.34,0,.61.27.61.61v40.9c0,.33-.27.61-.61.61ZM105.98,376.48c2.01.25,3.69-1.43,3.44-3.44-.17-1.36-1.28-2.47-2.64-2.64-2.01-.25-3.69,1.43-3.44,3.44.17,1.36,1.28,2.47,2.64,2.64Z" fill="#d4cde0"/>
    </g>
  </g>
  <g>
    <line x1="394.01" y1="329.65" x2="495.5" y2="392.17" fill="none" stroke="#ff527f" stroke-dasharray="0 5.45" stroke-linecap="round" stroke-linejoin="round" stroke-width="2.72"/>
    <line x1="499.96" y1="331.6" x2="399.31" y2="390.49" fill="none" stroke="#ff527f" stroke-dasharray="0 5.45" stroke-linecap="round" stroke-linejoin="round" stroke-width="2.72"/>
    <line x1="446.2" y1="297.14" x2="446.2" y2="417.72" fill="none" stroke="#ff527f" stroke-dasharray="0 5.45" stroke-linecap="round" stroke-linejoin="round" stroke-width="2.72"/>
    <g>
      <g id="Oval-Copy-4-7" data-name="Oval-Copy-4">
        <path d="M445.94,318.2c-11.18,0-20.27-9.09-20.27-20.27s9.09-20.27,20.27-20.27,20.27,9.09,20.27,20.27-9.09,20.27-20.27,20.27Z" fill="#ff97b2" fill-rule="evenodd"/>
        <path d="M445.94,279.01c10.44,0,18.91,8.47,18.91,18.91s-8.47,18.91-18.91,18.91-18.91-8.47-18.91-18.91,8.47-18.91,18.91-18.91M445.94,276.29c-11.93,0-21.63,9.7-21.63,21.63s9.7,21.63,21.63,21.63,21.63-9.7,21.63-21.63-9.7-21.63-21.63-21.63h0Z" fill="#fff"/>
      </g>
      <path id="h-4" data-name="h" d="M446.74,301.74l1.88-3.77.84,1.68h5.01c.91-1.06,1.43-2.38,1.43-3.79,0-3.76-3.27-5.92-5.96-5.92-1.38,0-2.69.47-3.74,1.32-1.05-.86-2.36-1.32-3.74-1.32-2.7,0-5.97,2.16-5.97,5.92,0,1.41.52,2.73,1.43,3.79h4.43l1.13-2.72,2.16,4.79c.21.47.87.48,1.1.02ZM446.23,300.05l-2.21-4.9c-.22-.49-.91-.47-1.12.02l-1.36,3.27h-2.27c-2.23-2.64-.27-6.68,3.18-6.68,1.18,0,1.93.24,3.74,2.03,1.94-1.92,2.62-2.03,3.74-2.03,3.46,0,5.41,4.04,3.18,6.68h-2.91l-1.05-2.09c-.22-.45-.86-.45-1.08,0l-1.85,3.71ZM447.87,306.23l5.43-5.38h-2.59l-4.13,4.08c-.22.22-.57.22-.79,0l-4.13-4.08h-2.59l5.43,5.38c.93.92,2.42.92,3.35,0Z" fill="#fff"/>
    </g>
    <g>
      <g id="Oval-Copy-4-8" data-name="Oval-Copy-4">
        <path d="M445.85,439.53c-11.18,0-20.27-9.09-20.27-20.27s9.09-20.27,20.27-20.27,20.27,9.09,20.27,20.27-9.09,20.27-20.27,20.27Z" fill="#ff97b2" fill-rule="evenodd"/>
        <path d="M445.85,400.34c10.44,0,18.91,8.47,18.91,18.91s-8.47,18.91-18.91,18.91-18.91-8.47-18.91-18.91,8.47-18.91,18.91-18.91M445.85,397.62c-11.93,0-21.63,9.7-21.63,21.63s9.7,21.63,21.63,21.63,21.63-9.7,21.63-21.63-9.7-21.63-21.63-21.63h0Z" fill="#fff"/>
      </g>
      <path id="r-4" data-name="r" d="M448.2,412.33c1.34,0,2.42-1.08,2.42-2.42s-1.09-2.42-2.42-2.42-2.42,1.08-2.42,2.42,1.09,2.42,2.42,2.42ZM446.98,433.33c.53,0,1.01-.35,1.17-.88l1.68-5.27c.35-1.22-.17-2.54-1.26-3.2l-2.62-1.58,2.12-5.29c.14.18.26.38.32.61l.7,2.32c.36,1.19,1.45,2,2.7,2h2.44s0,0,0,0c.67,0,1.21-.54,1.21-1.21,0-.67-.54-1.21-1.21-1.22h-2.44c-.18,0-.33-.12-.38-.29l-.7-2.32c-.46-1.52-1.72-2.69-3.27-3.04l-3.95-.89c-1.3-.3-2.65,0-3.7.82l-2.44,1.89c-.53.41-.63,1.17-.22,1.7.41.53,1.17.63,1.7.22l2.44-1.89c.48-.37,1.09-.5,1.68-.37l.75.17-1.78,4.41c-.52,1.29-.03,2.76,1.16,3.48l4.23,2.55c.11.07.19.22.19.35,0,.03,0,.08-.02.11l-1.68,5.27c-.18.64.19,1.31.83,1.5.11.03.22.05.33.05ZM439.45,428.48c1.13,0,2.15-.67,2.6-1.71l.68-1.6-.48-.29c-.6-.36-1.07-.85-1.43-1.4l-1,2.34c-.06.15-.21.25-.37.25h-3.78c-.67,0-1.21.54-1.21,1.21s.54,1.21,1.21,1.21h3.78Z" fill="#fff"/>
    </g>
    <g>
      <g id="Oval-5" data-name="Oval">
        <path d="M495.94,353.86c-11.18,0-20.27-9.09-20.27-20.27s9.09-20.27,20.27-20.27,20.27,9.09,20.27,20.27-9.09,20.27-20.27,20.27Z" fill="#ff97b2" fill-rule="evenodd"/>
        <path d="M495.94,314.68c10.44,0,18.91,8.47,18.91,18.91s-8.47,18.91-18.91,18.91-18.91-8.47-18.91-18.91,8.47-18.91,18.91-18.91M495.94,311.95c-11.93,0-21.63,9.7-21.63,21.63s9.7,21.63,21.63,21.63,21.63-9.7,21.63-21.63-9.7-21.63-21.63-21.63h0Z" fill="#fff"/>
      </g>
      <path id="i-4" data-name="i" d="M504.84,337.83c1.01,0,1.82-.82,1.82-1.82v-9.71c0-1.01-.82-1.82-1.82-1.82h-14.56c-1.01,0-1.82.82-1.82,1.82v9.71c0,1.01.82,1.82,1.82,1.82h14.56ZM504.62,336.01h-14.11c-.13,0-.23-.1-.23-.23v-9.25c0-.13.1-.23.23-.23h14.11c.13,0,.23.1.23.23v9.25c0,.13-.1.23-.23.23ZM493.31,330.25c.84,0,1.52-.68,1.52-1.52s-.68-1.52-1.52-1.52-1.52.68-1.52,1.52.68,1.52,1.52,1.52ZM501.2,341.48c1.01,0,1.82-.82,1.82-1.82v-.61h-1.82v.38c0,.13-.1.23-.23.23h-14.11c-.13,0-.23-.1-.23-.23v-9.25c0-.13.1-.23.23-.23h.38v-1.82h-.61c-1.01,0-1.82.82-1.82,1.82v9.71c0,1.01.82,1.82,1.82,1.82h14.56ZM503.02,334.19v-3.03l-2.71-2.71c-.18-.18-.47-.18-.64,0l-3.93,3.93-1.5-1.5c-.18-.18-.47-.18-.64,0l-1.5,1.5v1.82h10.92Z" fill="#fff"/>
    </g>
    <g>
      <g id="Oval-Copy-3-4" data-name="Oval-Copy-3">
        <path d="M493.93,408.8c-11.18,0-20.27-9.09-20.27-20.27s9.09-20.27,20.27-20.27,20.27,9.09,20.27,20.27-9.09,20.27-20.27,20.27Z" fill="#ff97b2" fill-rule="evenodd"/>
        <path d="M493.93,369.62c10.44,0,18.91,8.47,18.91,18.91s-8.47,18.91-18.91,18.91-18.91-8.47-18.91-18.91,8.47-18.91,18.91-18.91M493.93,366.89c-11.93,0-21.63,9.7-21.63,21.63s9.7,21.63,21.63,21.63,21.63-9.7,21.63-21.63-9.7-21.63-21.63-21.63h0Z" fill="#fff"/>
      </g>
      <path id="m-7" data-name="m" d="M487.01,397.63c1.87,0,3.4-1.18,3.6-2.7.02-.1.04-.21.04-.33,0,0,0,0,0-.01v-6.68l10.32-3.26v4.89c-.54-.26-1.15-.42-1.82-.42-2.01,0-3.64,1.36-3.64,3.03s1.63,3.03,3.64,3.03c1.87,0,3.4-1.18,3.6-2.7.02-.1.04-.2.04-.31v-.02h0s0,0,0,0v-12.74c0-.69-.57-1.21-1.21-1.21-.12,0-.24.02-.37.06l-11.53,3.64c-.5.16-.85.63-.85,1.16v8.92c-.54-.26-1.15-.42-1.82-.42-2.01,0-3.64,1.36-3.64,3.03s1.63,3.03,3.64,3.03ZM490.65,386.01v-2.5l10.32-3.26v2.5l-10.32,3.26ZM499.14,393.38c-1.07,0-1.82-.64-1.82-1.21s.75-1.21,1.82-1.21,1.82.64,1.82,1.21h0c0,.57-.75,1.21-1.82,1.21ZM487.01,395.81c-1.07,0-1.82-.64-1.82-1.21s.75-1.21,1.82-1.21,1.82.64,1.82,1.21-.75,1.21-1.82,1.21Z" fill="#fff"/>
    </g>
    <g>
      <g id="Oval-Copy-4" data-name="Oval-Copy">
        <path d="M399.91,410.16c-11.18,0-20.27-9.09-20.27-20.27s9.09-20.27,20.27-20.27,20.27,9.09,20.27,20.27-9.09,20.27-20.27,20.27Z" fill="#ff97b2" fill-rule="evenodd"/>
        <path d="M399.91,370.98c10.44,0,18.91,8.47,18.91,18.91s-8.47,18.91-18.91,18.91-18.91-8.47-18.91-18.91,8.47-18.91,18.91-18.91M399.91,368.26c-11.93,0-21.63,9.7-21.63,21.63s9.7,21.63,21.63,21.63,21.63-9.7,21.63-21.63-9.7-21.63-21.63-21.63h0Z" fill="#fff"/>
      </g>
      <path id="f-4" data-name="f" d="M405.98,398.99c1.01,0,1.82-.82,1.82-1.82v-12.59c0-.48-.2-.95-.54-1.29l-3.18-3.18c-.34-.34-.8-.53-1.29-.53h-7.74c-1.01,0-1.82.82-1.82,1.82v15.77c0,1.01.82,1.82,1.82,1.82h10.92ZM405.98,397.17h-10.92v-15.77h6.07v3.94c0,.5.41.91.91.91h3.94v10.92ZM405.83,384.43h-2.89v-2.89l2.89,2.89ZM401.43,395.35c.17,0,.3-.14.3-.3v-2.12h2.12c.17,0,.3-.14.3-.3v-1.82c0-.17-.14-.3-.3-.3h-2.12v-2.12c0-.17-.14-.3-.3-.3h-1.82c-.17,0-.3.14-.3.3v2.12h-2.12c-.17,0-.3.14-.3.3v1.82c0,.17.14.3.3.3h2.12v2.12c0,.17.14.3.3.3h1.82Z" fill="#fff"/>
    </g>
    <g>
      <g id="Oval-Copy-5-4" data-name="Oval-Copy-5">
        <path d="M396.68,352.92c-11.18,0-20.27-9.09-20.27-20.27s9.09-20.27,20.27-20.27,20.27,9.09,20.27,20.27-9.09,20.27-20.27,20.27Z" fill="#ff97b2" fill-rule="evenodd"/>
        <path d="M396.68,313.74c10.44,0,18.91,8.47,18.91,18.91s-8.47,18.91-18.91,18.91-18.91-8.47-18.91-18.91,8.47-18.91,18.91-18.91M396.68,311.01c-11.93,0-21.63,9.7-21.63,21.63s9.7,21.63,21.63,21.63,21.63-9.7,21.63-21.63-9.7-21.63-21.63-21.63h0Z" fill="#fff"/>
      </g>
      <path id="c-5" data-name="c" d="M402.76,340.98c.92,0,1.66-.75,1.66-1.66v-12.2c0-.92-.75-1.66-1.66-1.66h-1.66v-1.8c0-.23-.19-.42-.42-.42h-1.39c-.23,0-.42.19-.42.42v1.8h-4.44v-1.8c0-.23-.19-.42-.42-.42h-1.39c-.23,0-.42.19-.42.42v1.8h-1.66c-.92,0-1.66.75-1.66,1.66v12.2c0,.92.75,1.66,1.66,1.66h12.2ZM402.55,339.32h-11.79c-.11,0-.21-.09-.21-.21v-10.33h12.2v10.33c0,.11-.09.21-.21.21Z" fill="#fff"/>
    </g>
    <g>
      <rect x="433.78" y="334.47" width="25.02" height="44.75" fill="#fff"/>
      <path d="M457.51,381.97c2.54,0,4.6-2.06,4.6-4.6v-39.87c0-2.54-2.06-4.6-4.6-4.6h-21.47c-2.54,0-4.6,2.06-4.6,4.6v39.87c0,2.54,2.06,4.6,4.6,4.6h21.47ZM457.4,378.49h-21.25c-.33,0-.6-.27-.6-.6v-40.91c0-.33.27-.6.6-.6h21.25c.34,0,.61.27.61.61v40.9c0,.33-.27.61-.61.61ZM446.38,375.81c2.01.25,3.69-1.43,3.44-3.44-.17-1.36-1.28-2.47-2.64-2.64-2.01-.25-3.69,1.43-3.44,3.44.17,1.36,1.28,2.47,2.64,2.64Z" fill="#ff527f"/>
    </g>
  </g>
  <g>
    <circle cx="446.94" cy="356.46" r="9.6" fill="#ff527f" stroke="#fff" stroke-width="1.4"/>
    <g id="LXdBHS">
      <g>
        <path d="M446.89,349.95c.32-.04.58.2.73.46l4.94,9.84c.21.52.02.95-.54,1.05-3.32.04-6.65,0-9.98.02-.62-.05-.92-.46-.68-1.06l4.94-9.83c.12-.21.34-.43.59-.47ZM443.14,359.89h7.63l-3.82-8.16-3.81,8.16Z" fill="#fff"/>
        <path d="M447.44,357.05h-.96s-.02-.04-.02-.04l-.22-2.15c.11-.91,1.41-.85,1.42.07l-.23,2.11Z" fill="#fff"/>
        <path d="M446.84,357.77c.79-.1,1.13.88.52,1.29-.55.37-1.27-.15-1.09-.79.07-.24.31-.47.57-.5Z" fill="#fff"/>
      </g>
    </g>
  </g>
  <g>
    <circle cx="447.17" cy="352.8" r="15.02" fill="#ff527f" stroke="#fff" stroke-width="2.19"/>
    <g id="LXdBHS-2" data-name="LXdBHS">
      <g>
        <path d="M447.09,342.61c.5-.06.91.31,1.15.71l7.73,15.4c.33.81.03,1.48-.85,1.64-5.2.07-10.41,0-15.61.03-.97-.08-1.44-.73-1.06-1.66l7.72-15.38c.19-.33.53-.68.92-.73ZM441.24,358.15h11.94l-5.98-12.77-5.96,12.77Z" fill="#fff"/>
        <path d="M447.96,353.72h-1.5s-.03-.06-.03-.06l-.34-3.36c.17-1.43,2.2-1.33,2.23.11l-.36,3.31Z" fill="#fff"/>
        <path d="M447.02,354.84c1.23-.15,1.77,1.38.81,2.02-.86.58-1.98-.23-1.7-1.23.11-.38.49-.74.88-.79Z" fill="#fff"/>
      </g>
    </g>
  </g>
  <g id="Polygon">
    <path d="M890.25,176.77l58.42,101.18c2.61,4.52,2.61,10.09,0,14.61l-58.42,101.18c-2.61,4.52-7.43,7.3-12.65,7.3h-116.83c-5.22,0-10.04-2.78-12.65-7.3l-58.42-101.18c-2.61-4.52-2.61-10.09,0-14.61l58.42-101.18c2.61-4.52,7.43-7.3,12.65-7.3h116.83c5.22,0,10.04,2.78,12.65,7.3Z" fill="#fff" fill-rule="evenodd"/>
    <path d="M877.6,404.16h-116.83c-6.31,0-12.2-3.4-15.35-8.86l-58.42-101.18c-3.16-5.47-3.16-12.26,0-17.73l58.42-101.18c3.16-5.47,9.04-8.86,15.35-8.86h116.83c6.31,0,12.2,3.4,15.35,8.86l58.42,101.18c3.16,5.47,3.16,12.26,0,17.73l-58.42,101.18c-3.16,5.47-9.04,8.86-15.35,8.86ZM760.77,172.58c-4.09,0-7.91,2.2-9.95,5.75l-58.42,101.18c-2.05,3.54-2.05,7.95,0,11.49l58.42,101.18c2.05,3.54,5.86,5.74,9.95,5.74h116.83c4.09,0,7.91-2.2,9.95-5.74l58.42-101.18c2.05-3.54,2.05-7.95,0-11.49l-58.42-101.18c-2.05-3.54-5.86-5.75-9.95-5.75h-116.83Z" fill="#7b4dff"/>
  </g>
  <g id="Group-3" data-name="Group">
    <polygon id="Path-25" points="819.77 371.87 824.77 373.58 859.44 306.29 890.03 219.04 884.56 220.85 854.52 303.45 819.77 371.87" fill="#bfb0ff" fill-rule="evenodd" stroke="#fff" stroke-width="1"/>
    <g id="Path-24">
      <polygon points="756.12 350.25 848.3 300.07 914.9 286.31 914.9 292.51 848.3 305.4 756.12 357.3 756.12 350.25" fill="#bfb0ff" fill-rule="evenodd"/>
      <path d="M755.62,358.16v-8.21l.26-.14,92.25-50.22h.07s67.19-13.9,67.19-13.9v7.23l-.4.08-66.51,12.87-92.86,52.28ZM756.62,350.55v5.9l91.51-51.53h.08s66.19-12.82,66.19-12.82v-5.18l-65.92,13.62-91.86,50.01Z" fill="#fff"/>
    </g>
    <g id="Path-24-2" data-name="Path-24">
      <polygon points="725.77 285.46 848.3 300.07 914.9 286.31 914.9 292.51 848.3 305.4 725.77 290.52 725.77 285.46" fill="#bfb0ff" fill-rule="evenodd"/>
      <path d="M848.32,305.91h-.08s-122.97-14.94-122.97-14.94v-6.06l.56.07,122.45,14.6,67.11-13.87v7.23l-.4.08-66.67,12.9ZM726.27,290.08l122.01,14.82,66.11-12.79v-5.18l-66.07,13.65h-.08s-121.97-14.55-121.97-14.55v4.05Z" fill="#fff"/>
    </g>
    <g id="Path-24-3" data-name="Path-24">
      <polygon points="809.92 255.54 820.38 377.85 816.01 383.18 805.55 255.54 809.92 255.54" fill="#bfb0ff" fill-rule="evenodd"/>
      <path d="M815.61,384.45l-10.6-129.41h5.38l.04.46,10.47,122.51-5.29,6.44ZM806.09,256.04l10.31,125.87,3.46-4.22-10.4-121.65h-3.37Z" fill="#fff"/>
    </g>
    <g id="Path-24-4" data-name="Path-24">
      <polygon points="730.15 289.45 878.22 349.93 875.84 355.26 729.76 295.43 730.15 289.45" fill="#bfb0ff" fill-rule="evenodd"/>
      <path d="M876.1,355.91l-.45-.18-146.41-59.96.45-7.03.64.26,148.55,60.67-2.79,6.25ZM730.28,295.11l145.3,59.51,1.97-4.42-146.95-60.02-.32,4.93Z" fill="#fff"/>
    </g>
    <g id="Combined-Shape" isolation="isolate" opacity=".32">
      <path d="M818.56,183.3l71.89,29.97,29.78,72.34-29.78,72.34-71.89,29.97-71.89-29.97-29.78-72.34,29.78-72.34,71.89-29.97ZM818.56,188.66l-68.12,28.4-28.22,68.55,28.22,68.55,68.12,28.4,68.12-28.4,28.22-68.55-28.22-68.55-68.12-28.4Z" fill="#7b4dff" fill-rule="evenodd"/>
    </g>
    <g id="Combined-Shape-2" data-name="Combined-Shape">
      <path d="M818.56,183.3l70.49,31.11-3.75,1.55-66.74-27.3-68.12,28.4-27.13,65.9-6.42,2.65,29.78-72.34,71.89-29.97Z" fill="#7b4dff" fill-rule="evenodd"/>
    </g>
    <g id="Path-2">
      <polygon points="911.88 290.73 887.37 348.37 890.66 353.97 920.22 288.74 911.88 290.73" fill="#bfb0ff" fill-rule="evenodd"/>
      <path d="M890.77,356.13l-4.52-7.69.2-.46,24.7-58.11,10.82-2.58-31.2,68.83ZM888.48,348.3l2.06,3.5,27.93-61.62-5.88,1.4-24.11,56.72Z" fill="#fff"/>
    </g>
    <g id="Polygon-Copy-8">
      <path d="M922.44,278.68c3.57,2.07,5.77,5.89,5.77,10.02v.06c0,4.13-2.2,7.95-5.77,10.02-3.57,2.07-7.97,2.07-11.53,0-3.57-2.07-5.77-5.89-5.77-10.02v-.06c0-4.13,2.2-7.95,5.77-10.02,3.57-2.07,7.97-2.07,11.53,0Z" fill="#bfb0ff" fill-rule="evenodd"/>
      <path d="M916.67,302.4c-2.35,0-4.71-.61-6.8-1.83-4.19-2.44-6.79-6.96-6.79-11.81s2.6-9.43,6.79-11.87c4.2-2.44,9.41-2.44,13.61,0h0c4.19,2.44,6.79,6.96,6.79,11.81s-2.6,9.43-6.79,11.87c-2.1,1.22-4.45,1.83-6.8,1.83ZM916.67,279.2c-1.64,0-3.27.42-4.73,1.27-2.92,1.7-4.74,4.85-4.74,8.24s1.82,6.6,4.74,8.3c2.92,1.69,6.54,1.69,9.46,0,2.92-1.7,4.74-4.85,4.74-8.24s-1.82-6.6-4.74-8.3c-1.46-.85-3.09-1.27-4.73-1.27Z" fill="#fff"/>
    </g>
    <g id="Polygon-Copy">
      <path d="M822.99,368.93c3.57,2.07,5.77,5.89,5.77,10.02v.06c0,4.13-2.2,7.95-5.77,10.02-3.57,2.07-7.97,2.07-11.53,0-3.57-2.07-5.77-5.89-5.77-10.02v-.06c0-4.13,2.2-7.95,5.77-10.02,3.57-2.07,7.97-2.07,11.53,0Z" fill="#bfb0ff" fill-rule="evenodd"/>
      <path d="M817.23,392.65c-2.35,0-4.71-.61-6.8-1.83-4.19-2.44-6.79-6.96-6.79-11.81s2.6-9.43,6.79-11.87c4.2-2.44,9.41-2.44,13.61,0h0c4.19,2.44,6.79,6.96,6.79,11.81s-2.6,9.43-6.79,11.87c-2.1,1.22-4.45,1.83-6.8,1.83ZM817.23,369.45c-1.64,0-3.27.42-4.73,1.27-2.92,1.7-4.74,4.86-4.74,8.24s1.82,6.6,4.74,8.3c2.92,1.7,6.54,1.7,9.46,0,2.92-1.7,4.74-4.85,4.74-8.24s-1.82-6.6-4.74-8.3h0c-1.46-.85-3.09-1.27-4.73-1.27Z" fill="#fff"/>
    </g>
    <path id="Combined-Shape-3" data-name="Combined-Shape" d="M823.88,178.61c3.57,2.07,5.77,5.89,5.77,10.02v.06c0,4.13-2.2,7.95-5.77,10.02-1.7.99-3.6,1.51-5.5,1.55l-10.57,29.87c1.68.45,3.31,1.12,4.85,2.01l.93.54c1.42.82,2.67,1.84,3.73,3.01l58.51-17.79v-.28c.17-3.94,2.34-7.54,5.76-9.53,3.57-2.07,7.97-2.07,11.53,0,3.57,2.07,5.77,5.89,5.77,10.02v.06c0,4.13-2.2,7.95-5.77,10.02-3.57,2.07-7.97,2.07-11.53,0-1.5-.87-2.76-2.05-3.71-3.43l-56.8,18.37c.38,1.9.41,3.9.04,5.89l-.75,4.08c-.37,2-1.07,3.89-2.06,5.6l25.7,33.55c3.25-1.3,6.96-1.06,10.04.73,3.57,2.07,5.77,5.89,5.77,10.02v.06c0,2.51-.81,4.91-2.26,6.87l24.9,32.5c2.43-.28,4.92.21,7.1,1.48,3.57,2.07,5.77,5.89,5.77,10.02v.06c0,4.13-2.2,7.95-5.77,10.02-3.57,2.07-7.97,2.07-11.53,0-3.57-2.07-5.77-5.89-5.77-10.02v-.06c0-2.77.99-5.39,2.71-7.45l-24.17-32.13c-2.78.62-5.75.2-8.28-1.27-3.57-2.07-5.77-5.89-5.77-10.02v-.06c0-1.95.49-3.82,1.38-5.48l-24.97-33.19c-1.29.91-2.72,1.64-4.25,2.18-.8.28-1.61.51-2.43.67l-43.8,77.56c1.5,1.98,2.36,4.43,2.36,7v.06c0,4.13-2.2,7.95-5.77,10.02-3.57,2.07-7.97,2.07-11.53,0-3.57-2.07-5.77-5.89-5.77-10.02v-.06c0-4.13,2.2-7.95,5.77-10.02,2.28-1.32,4.89-1.8,7.41-1.44l41.21-73.88c-1.8-.67-3.51-1.62-5.05-2.84l-.81-.64c-1.61-1.27-2.96-2.78-4.03-4.46l-49.17,28.25c0,.07,0,.14,0,.21v.06c0,4.13-2.2,7.95-5.77,10.02-3.57,2.07-7.97,2.07-11.53,0-3.57-2.07-5.77-5.89-5.77-10.02v-.06c0-4.13,2.2-7.95,5.77-10.02,3.57-2.07,7.97-2.07,11.53,0,1,.58,1.9,1.3,2.67,2.13l49.53-28.15c-.22-1.76-.18-3.57.13-5.38l.15-.89c.26-1.52.72-2.98,1.34-4.35l-26.58-13.09c-.47.38-.97.73-1.5,1.03-3.57,2.07-7.97,2.07-11.53,0-3.57-2.07-5.77-5.89-5.77-10.02v-.06c0-4.13,2.2-7.95,5.77-10.02,3.57-2.07,7.97-2.07,11.53,0,3.57,2.07,5.77,5.89,5.77,10.02v.06c0,1.12-.16,2.22-.47,3.26l28.38,11.81c1.2-.9,2.51-1.66,3.93-2.25,1.17-.49,2.37-.86,3.59-1.12l11.34-33.14c-2.06-2.13-3.25-5-3.25-8.05v-.06c0-4.13,2.2-7.95,5.77-10.02,3.57-2.07,7.97-2.07,11.53,0Z" fill="#7b4dff" fill-rule="evenodd" stroke="#fff" stroke-width="4.13"/>
  </g>
  <g>
    <g id="Oval-Copy-4-9" data-name="Oval-Copy-4">
      <path d="M725.24,307.97c-11.2,0-20.31-9.11-20.31-20.31s9.11-20.31,20.31-20.31,20.31,9.11,20.31,20.31-9.11,20.31-20.31,20.31Z" fill="#362b48" fill-rule="evenodd"/>
      <path d="M725.24,268.72c10.46,0,18.94,8.48,18.94,18.94s-8.48,18.94-18.94,18.94-18.94-8.48-18.94-18.94,8.48-18.94,18.94-18.94M725.24,265.99c-11.95,0-21.67,9.72-21.67,21.67s9.72,21.67,21.67,21.67,21.67-9.72,21.67-21.67-9.72-21.67-21.67-21.67h0Z" fill="#fff"/>
    </g>
    <path id="h-5" data-name="h" d="M726.04,291.48l1.89-3.78.84,1.68h5.02c.92-1.06,1.44-2.38,1.44-3.8,0-3.77-3.27-5.93-5.97-5.93-1.39,0-2.7.47-3.75,1.33-1.05-.86-2.36-1.33-3.75-1.33-2.7,0-5.98,2.16-5.98,5.93,0,1.42.52,2.74,1.44,3.8h4.44l1.14-2.72,2.16,4.8c.21.47.87.48,1.1.02ZM725.53,289.79l-2.21-4.91c-.22-.49-.91-.47-1.12.02l-1.36,3.28h-2.28c-2.23-2.64-.27-6.69,3.19-6.69,1.18,0,1.94.24,3.75,2.03,1.94-1.92,2.63-2.03,3.75-2.03,3.47,0,5.42,4.05,3.19,6.69h-2.91l-1.05-2.1c-.22-.45-.86-.45-1.09,0l-1.86,3.72ZM727.18,295.99l5.44-5.39h-2.59l-4.14,4.09c-.22.22-.57.22-.79,0l-4.13-4.09h-2.59l5.44,5.39c.93.92,2.43.92,3.36,0Z" fill="#fff"/>
  </g>
  <g>
    <g id="Oval-Copy-3-5" data-name="Oval-Copy-3">
      <path d="M886.85,238.18c-11.2,0-20.31-9.11-20.31-20.31s9.11-20.31,20.31-20.31,20.31,9.11,20.31,20.31-9.11,20.31-20.31,20.31Z" fill="#362b48" fill-rule="evenodd"/>
      <path d="M886.85,198.93c10.46,0,18.94,8.48,18.94,18.94s-8.48,18.94-18.94,18.94-18.94-8.48-18.94-18.94,8.48-18.94,18.94-18.94M886.85,196.2c-11.95,0-21.67,9.72-21.67,21.67s9.72,21.67,21.67,21.67,21.67-9.72,21.67-21.67-9.72-21.67-21.67-21.67h0Z" fill="#fff"/>
    </g>
    <path id="m-8" data-name="m" d="M879.91,226.99c1.88,0,3.4-1.18,3.61-2.7.02-.1.04-.21.04-.33,0,0,0,0,0-.01v-6.69l10.33-3.26v4.9c-.54-.26-1.16-.42-1.82-.42-2.01,0-3.65,1.36-3.65,3.04s1.63,3.04,3.65,3.04c1.88,0,3.4-1.18,3.61-2.7.02-.1.04-.2.04-.31v-.02h0s0,0,0,0v-12.76c0-.69-.57-1.22-1.21-1.22-.12,0-.24.02-.37.06l-11.55,3.65c-.5.16-.85.63-.85,1.16v8.93c-.54-.26-1.16-.42-1.82-.42-2.01,0-3.65,1.36-3.65,3.04s1.63,3.04,3.65,3.04ZM883.56,215.35v-2.5l10.33-3.26v2.5l-10.33,3.26ZM892.07,222.74c-1.07,0-1.82-.64-1.82-1.22s.75-1.22,1.82-1.22,1.82.64,1.82,1.22h0c0,.58-.75,1.22-1.82,1.22ZM879.91,225.17c-1.07,0-1.82-.64-1.82-1.22s.75-1.22,1.82-1.22,1.82.64,1.82,1.22-.75,1.22-1.82,1.22Z" fill="#fff"/>
  </g>
  <g>
    <g id="Oval-Copy-5" data-name="Oval-Copy">
      <path d="M755.32,370.39c-11.2,0-20.31-9.11-20.31-20.31s9.11-20.31,20.31-20.31,20.31,9.11,20.31,20.31-9.11,20.31-20.31,20.31Z" fill="#ffab50" fill-rule="evenodd"/>
      <path d="M755.32,331.14c10.46,0,18.94,8.48,18.94,18.94s-8.48,18.94-18.94,18.94-18.94-8.48-18.94-18.94,8.48-18.94,18.94-18.94M755.32,328.41c-11.95,0-21.67,9.72-21.67,21.67s9.72,21.67,21.67,21.67,21.67-9.72,21.67-21.67-9.72-21.67-21.67-21.67h0Z" fill="#fff"/>
    </g>
    <path id="f-5" data-name="f" d="M761.4,359.2c1.01,0,1.83-.82,1.83-1.82v-12.61c0-.48-.2-.95-.54-1.29l-3.19-3.19c-.34-.34-.81-.54-1.29-.54h-7.75c-1.01,0-1.82.82-1.82,1.83v15.8c0,1.01.82,1.82,1.82,1.82h10.94ZM761.4,357.38h-10.94v-15.8h6.08v3.95c0,.51.41.91.91.91h3.95v10.94ZM761.25,344.61h-2.89v-2.89l2.89,2.89ZM756.84,355.55c.17,0,.3-.14.3-.3v-2.13h2.13c.17,0,.3-.14.3-.3v-1.82c0-.17-.14-.3-.3-.3h-2.13v-2.13c0-.17-.14-.3-.3-.3h-1.82c-.17,0-.3.14-.3.3v2.13h-2.13c-.17,0-.3.14-.3.3v1.82c0,.17.14.3.3.3h2.13v2.13c0,.17.14.3.3.3h1.82Z" fill="#fff"/>
  </g>
  <g>
    <g id="Oval-6" data-name="Oval">
      <path d="M818.74,212.9c-11.2,0-20.31-9.11-20.31-20.31s9.11-20.31,20.31-20.31,20.31,9.11,20.31,20.31-9.11,20.31-20.31,20.31Z" fill="#ffab50" fill-rule="evenodd"/>
      <path d="M818.74,173.65c10.46,0,18.94,8.48,18.94,18.94s-8.48,18.94-18.94,18.94-18.94-8.48-18.94-18.94,8.48-18.94,18.94-18.94M818.74,170.92c-11.95,0-21.67,9.72-21.67,21.67s9.72,21.67,21.67,21.67,21.67-9.72,21.67-21.67-9.72-21.67-21.67-21.67h0Z" fill="#fff"/>
    </g>
    <path id="i-5" data-name="i" d="M827.66,196.85c1.01,0,1.82-.82,1.82-1.82v-9.73c0-1.01-.82-1.82-1.82-1.82h-14.59c-1.01,0-1.82.82-1.82,1.82v9.73c0,1.01.82,1.82,1.82,1.82h14.59ZM827.43,195.03h-14.13c-.13,0-.23-.1-.23-.23v-9.27c0-.13.1-.23.23-.23h14.13c.13,0,.23.1.23.23v9.27c0,.13-.1.23-.23.23ZM816.11,189.25c.84,0,1.52-.68,1.52-1.52s-.68-1.52-1.52-1.52-1.52.68-1.52,1.52.68,1.52,1.52,1.52ZM824.01,200.5c1.01,0,1.82-.82,1.82-1.82v-.61h-1.82v.38c0,.13-.1.23-.23.23h-14.13c-.13,0-.23-.1-.23-.23v-9.27c0-.13.1-.23.23-.23h.38v-1.82h-.61c-1.01,0-1.82.82-1.82,1.82v9.73c0,1.01.82,1.82,1.82,1.82h14.59ZM825.84,193.2v-3.04l-2.72-2.72c-.18-.18-.47-.18-.64,0l-3.93,3.93-1.5-1.5c-.18-.18-.47-.18-.64,0l-1.5,1.5v1.82h10.94Z" fill="#fff"/>
  </g>
  <g>
    <g id="Oval-Copy-2">
      <path d="M818.28,397.57c-11.2,0-20.31-9.11-20.31-20.31s9.11-20.31,20.31-20.31,20.31,9.11,20.31,20.31-9.11,20.31-20.31,20.31Z" fill="#ff527f" fill-rule="evenodd"/>
      <path d="M818.28,358.32c10.46,0,18.94,8.48,18.94,18.94s-8.48,18.94-18.94,18.94-18.94-8.48-18.94-18.94,8.48-18.94,18.94-18.94M818.28,355.6c-11.95,0-21.67,9.72-21.67,21.67s9.72,21.67,21.67,21.67,21.67-9.72,21.67-21.67-9.72-21.67-21.67-21.67h0Z" fill="#fff"/>
    </g>
    <path id="v" d="M820.98,384.51c1.09,0,1.97-.81,1.97-1.82v-2.22l4.17,2.6c.22.15.46.22.69.22.63,0,1.22-.49,1.22-1.2v-9.76c0-.7-.59-1.2-1.22-1.2-.24,0-.47.07-.69.22l-4.17,2.6v-2.22c0-1-.88-1.82-1.97-1.82h-11.87c-1.09,0-1.97.81-1.97,1.82v10.96c0,1,.88,1.82,1.97,1.82h11.87ZM820.98,382.69h-11.87c-.08,0-.12-.02-.14-.04v-10.86s.07-.04.14-.04h11.87c.08,0,.12.02.14.04v10.86s-.07.04-.14.04ZM827.2,380.98l-4.26-2.65v-2.23l4.26-2.65v7.53Z" fill="#fff"/>
  </g>
  <g>
    <g id="Oval-Copy-5-5" data-name="Oval-Copy-5">
      <path d="M884.72,374.63c-11.2,0-20.31-9.11-20.31-20.31s9.11-20.31,20.31-20.31,20.31,9.11,20.31,20.31-9.11,20.31-20.31,20.31Z" fill="#d4cde0" fill-rule="evenodd"/>
      <path d="M884.72,335.37c10.46,0,18.94,8.48,18.94,18.94s-8.48,18.94-18.94,18.94-18.94-8.48-18.94-18.94,8.48-18.94,18.94-18.94M884.72,332.65c-11.95,0-21.67,9.72-21.67,21.67s9.72,21.67,21.67,21.67,21.67-9.72,21.67-21.67-9.72-21.67-21.67-21.67h0Z" fill="#fff"/>
    </g>
    <path id="c-6" data-name="c" d="M890.81,362.67c.92,0,1.67-.75,1.67-1.67v-12.23c0-.92-.75-1.67-1.67-1.67h-1.67v-1.81c0-.23-.19-.42-.42-.42h-1.39c-.23,0-.42.19-.42.42v1.81h-4.45v-1.81c0-.23-.19-.42-.42-.42h-1.39c-.23,0-.42.19-.42.42v1.81h-1.67c-.92,0-1.67.75-1.67,1.67v12.23c0,.92.75,1.67,1.67,1.67h12.23ZM890.6,361h-11.81c-.11,0-.21-.09-.21-.21v-10.35h12.23v10.35c0,.11-.09.21-.21.21Z" fill="#fff"/>
  </g>
  <g>
    <g id="Oval-Copy-4-10" data-name="Oval-Copy-4">
      <path d="M751.26,240.24c-11.2,0-20.31-9.11-20.31-20.31s9.11-20.31,20.31-20.31,20.31,9.11,20.31,20.31-9.11,20.31-20.31,20.31Z" fill="#ff527f" fill-rule="evenodd"/>
      <path d="M751.26,200.99c10.46,0,18.94,8.48,18.94,18.94s-8.48,18.94-18.94,18.94-18.94-8.48-18.94-18.94,8.48-18.94,18.94-18.94M751.26,198.26c-11.95,0-21.67,9.72-21.67,21.67s9.72,21.67,21.67,21.67,21.67-9.72,21.67-21.67-9.72-21.67-21.67-21.67h0Z" fill="#fff"/>
    </g>
    <path id="r-5" data-name="r" d="M753.61,213c1.34,0,2.43-1.09,2.43-2.43s-1.09-2.43-2.43-2.43-2.43,1.09-2.43,2.43,1.09,2.43,2.43,2.43ZM752.39,234.04c.53,0,1.01-.35,1.17-.88l1.68-5.28c.35-1.23-.17-2.54-1.26-3.2l-2.62-1.58,2.12-5.3c.14.18.26.38.32.61l.71,2.32c.36,1.2,1.45,2,2.7,2.01h2.45s0,0,0,0c.67,0,1.21-.54,1.21-1.21,0-.67-.54-1.22-1.21-1.22h-2.45c-.18,0-.33-.12-.38-.29l-.71-2.32c-.46-1.53-1.72-2.69-3.28-3.05l-3.96-.9c-1.3-.3-2.65,0-3.71.82l-2.45,1.89c-.53.41-.63,1.17-.22,1.7.41.53,1.17.63,1.7.22l2.45-1.89c.48-.37,1.1-.5,1.68-.37l.75.17-1.79,4.42c-.52,1.3-.03,2.76,1.16,3.49l4.24,2.56c.11.07.2.22.2.35,0,.03,0,.08-.02.11l-1.68,5.28c-.18.64.19,1.32.83,1.5.11.03.22.05.33.05ZM744.85,229.18c1.13,0,2.16-.67,2.6-1.72l.69-1.6-.48-.29c-.6-.36-1.07-.85-1.43-1.41l-1,2.34c-.06.15-.21.25-.37.25h-3.79c-.67,0-1.21.54-1.21,1.21s.54,1.21,1.21,1.21h3.79Z" fill="#fff"/>
  </g>
  <g>
    <g id="Oval-Copy-2-2" data-name="Oval-Copy-2">
      <path d="M819.18,340.22c-30.31,0-54.97-24.66-54.97-54.97s24.66-54.97,54.97-54.97,54.97,24.66,54.97,54.97-24.66,54.97-54.97,54.97Z" fill="#7b4dff" fill-rule="evenodd"/>
      <path d="M819.18,233.33c28.67,0,51.92,23.25,51.92,51.92s-23.24,51.92-51.92,51.92-51.92-23.24-51.92-51.92,23.24-51.92,51.92-51.92M819.18,227.23c-31.99,0-58.02,26.03-58.02,58.02s26.03,58.02,58.02,58.02,58.02-26.03,58.02-58.02-26.03-58.02-58.02-58.02h0Z" fill="#fff"/>
    </g>
    <g>
      <path d="M847.77,285.38c-.06-2.67-.13-5.43-.02-8.15.14-.95-.4-1.88-.76-2.37-.63-.85-1.33-1.28-2.08-1.28h-2.17c.07-4.86-.28-9.96-2.95-14.95-5.36-10.04-15.97-14.75-27.03-11.98-9.21,2.3-18.51,10.46-18.52,23.51v3.43s-2.11,0-2.11,0c-.71,0-1.41.37-2.01,1.06-.26.3-1.09,1.37-.93,2.36.11,2.78.04,5.59-.02,8.31-.21,8.68-.42,17.66,5.3,25.83,5.57,7.96,14.32,12.52,24.01,12.52,9.68,0,18.43-4.57,24-12.52,5.71-8.16,5.5-17.11,5.3-25.77ZM801.55,266.51c1.16-5.52,4.98-10.15,10.21-12.37,5.23-2.22,10.98-1.78,15.77,1.22,4.03,2.52,6.89,6.59,7.84,11.15.38,1.84.35,3.76.32,5.79,0,.43-.02.86-.02,1.29h-34.42c0-.43-.01-.87-.02-1.3-.03-2.03-.07-3.95.32-5.77ZM840.85,295.36c-.45,9.2-6.15,16.89-14.87,20.06-8.58,3.12-17.72.91-23.88-5.74-6.41-6.93-6.24-14.64-6.06-23.56.04-1.86.08-3.78.06-5.73h44.75v14.98Z" fill="#fff" stroke="#7b4dff" stroke-width="1.98"/>
      <path d="M815,302.92c0,.59-.02,1.21-.05,1.85-.04,1.17-.09,2.39.02,3.57.11,1.18.62,2.17,1.44,2.77.43.31,1.09.64,2.01.64.28,0,.58-.03.9-.1,1.49-.32,2.48-1.6,2.64-3.42.1-1.15.05-2.33.01-3.48-.02-.63-.05-1.24-.04-1.82,2.63-1,4.71-3.08,5.69-5.76,1.13-3.12.61-6.57-1.4-9.24-1.82-2.43-4.65-3.82-7.76-3.82h-.07c-3.12.02-5.94,1.44-7.73,3.89-1.97,2.69-2.47,6.14-1.33,9.21.98,2.65,3.05,4.71,5.68,5.71ZM818.04,291.02c1.15-.14,2.03.18,2.6.94.64.86.79,2.17.35,3.19-.26.6-.82,1.34-2.08,1.49-2.74.32-3.15-2-3.21-2.47-.13-1.05.23-2.9,2.33-3.15Z" fill="#fff" stroke="#7b4dff" stroke-width="1.98"/>
    </g>
  </g>
  <g id="humaaan-3-3" data-name="humaaan-3">
    <g id="Mask-3" data-name="Mask">
      <g id="path-4-link-2" data-name="path-4-link">
        <g id="path-4-2" data-name="path-4">
          <ellipse cx="946.6" cy="286.61" rx="58" ry="57.2"/>
        </g>
      </g>
      <g id="Oval-7" data-name="Oval">
        <g id="path-7-3" data-name="path-7">
          <ellipse cx="946.6" cy="286.61" rx="60.42" ry="59.61" fill="#bfb0ff"/>
          <path d="M946.6,362.28c-42.17,0-76.47-33.94-76.47-75.67s34.31-75.67,76.47-75.67,76.47,33.94,76.47,75.67-34.31,75.67-76.47,75.67ZM946.6,243.05c-24.46,0-44.37,19.54-44.37,43.56s19.9,43.56,44.37,43.56,44.37-19.54,44.37-43.56-19.9-43.56-44.37-43.56Z" fill="#fff"/>
        </g>
        <g id="path-7-4" data-name="path-7">
          <path d="M946.6,355.49c-38.43,0-69.69-30.9-69.69-68.88s31.26-68.88,69.69-68.88,69.69,30.9,69.69,68.88-31.26,68.88-69.69,68.88ZM946.6,236.26c-28.21,0-51.16,22.59-51.16,50.35s22.95,50.35,51.16,50.35,51.16-22.59,51.16-50.35-22.95-50.35-51.16-50.35Z" fill="#7b4dff"/>
        </g>
      </g>
    </g>
    <g id="Clipped-3" data-name="Clipped">
      <g id="Group-4" data-name="Group">
        <g id="Mask-4" data-name="Mask">
          <ellipse id="path-8-3" data-name="path-8" cx="946.6" cy="286.61" rx="60.42" ry="59.61" fill="#fff"/>
        </g>
        <g mask="url(#mask-2)">
          <g>
            <g id="Head_Front_Short-Beard-2" data-name="Head/Front/Short-Beard">
              <g id="Head-2" data-name="Head">
                <g id="Path-2" data-name="Path">
                  <path d="M950.67,248.27c-7.03,10.72-8.81,39.31-1.17,42.01,3.04,1.07,9.85-.31,16.96-3.78l-6.86,29.57,25.03,2.19-5.11-40.86c5.3-5.21,9.15-11.83,9.29-19.61.38-22.42-31.12-20.24-38.15-9.52Z" fill="#b28b67"/>
                </g>
              </g>
              <g id="Hair-2" data-name="Hair">
                <path d="M965.2,238.51c-7.08-.01-13.54,1.58-15.42,2.69-.58,6.64.54,8.72,11.56,9.51,2.58,1.66,4.44,4.3,6.33,7.71-2.12,13.24-5.24,19.68-9.35,19.32-6.17-.54-11.06-4.91-13.76-5.14-1.97-.17-1.75,2.33-.6,4.27.95,1.6,6.07,3.51,5.87,5.85-.2,2.34-4.2.17-4.32,1.55-.2,2.29-1.31,6.54,2.68,6.89,4.03.35,15.73-.1,18.23-5.91,1.62-3.75,3.14-11.67,4.58-23.76.25-.01.5,0,.75.02,3.46.3,6.01,3.35,5.71,6.8-.15,1.75-1.01,3.27-2.28,4.31,1.27,2.17,2.71,4.44,4.37,6.8,7.35-3.57,13.61-15.37,7.81-27.74-1.38-5.93-5.39-9.38-10.31-11.26-3.94-2.07-8.17-2.63-11.84-1.92Z" fill="#7b4dff"/>
              </g>
            </g>
            <g id="Body_Hoodie-2" data-name="Body/Hoodie">
              <g id="Skin-2" data-name="Skin">
                <path d="M1032.88,394.2l-21.88.09c13.51,43.54,20.8,66.65,21.88,69.31,2.42,5.99-2.7,15.12-4.9,20.03,7.14,3.19,6.38-8.62,15.39-4.44,8.22,3.82,14.48,10.74,23.98,4.89,1.17-.72,2.45-3.43-.64-5.55-7.7-5.27-18.81-14.5-20.31-17.54-2.05-4.14-6.55-26.41-13.52-66.79h0ZM904.64,393.35l-33.4,24.49c-9.06,2.44-16.63,5.48-22.7,9.11-1.44,1.31-3.17,3.95,2.78,3.49,5.95-.46,12.24-.67,13.06,1.36s-2.78,4.45-1.12,7.19c1.11,1.82,6.34-2.75,15.69-13.72l33.07-13.69-7.38-18.22Z" fill="#b28b67"/>
              </g>
              <g id="Coat-Back-2" data-name="Coat-Back">
                <path d="M970.7,302.53l-9.05-1.55c-33.59,28.97-47.39,84.63-88.57,114.12l9.91,12.27c71.43-8.83,89.14-76.72,87.71-124.84Z" fill="#7b4dff"/>
              </g>
              <g id="Shirt-2" data-name="Shirt">
                <path d="M1010.16,416.13h-80.11c-3.66,0-2.97-5.28-2.44-7.94,6.11-30.73,29.95-63.87,29.95-107.62l23.11-3.62c19.11,30.69,25.72,68.48,29.5,119.17Z" fill="#7b4dff"/>
              </g>
              <g id="Coat-Front-2" data-name="Coat-Front">
                <path d="M982.41,296.95c-.78,0-1.5.05-2.15.15l-7.24.41c-20.76,70.23-26.48,117.09-17.17,140.57h63.05c3.74,8.7,7.31,16.02,10.72,21.95h17.18c1.62-52.2-10.81-96.5-37.29-132.91,3.35-.96,6.01-3.21,7.97-6.74,8.45-15.22,5.4-23.59-3.63-26.35-9.03-2.75-17.08,2.92-31.46,2.92Z" fill="#7b4dff"/>
              </g>
              <g id="Shade-2" data-name="Shade" opacity=".1">
                <path d="M995.51,438.08h23.4c-4.36-10.14-8.93-22.17-13.73-36.07-1.98,16.56-5.21,28.59-9.67,36.07Z"/>
              </g>
            </g>
          </g>
        </g>
      </g>
    </g>
  </g>
  <g>
    <path d="M916.32,299.62c-1.46.18-1.7,1.46-1.62,2.19.04.33.33,1.94,2.23,1.71.87-.1,1.26-.62,1.44-1.03.3-.71.2-1.61-.24-2.21-.4-.53-1.01-.75-1.8-.65Z" fill="none"/>
    <path d="M901.12,292.25c.02,1.35-.01,2.68-.04,3.97-.13,6.18-.24,11.52,4.2,16.32,4.26,4.61,10.6,6.14,16.54,3.98,6.04-2.2,9.99-7.52,10.3-13.89v-10.38h-31.01ZM922.96,303.87c-.68,1.86-2.12,3.3-3.94,3.99,0,.41.01.83.03,1.26.03.79.06,1.61,0,2.41-.11,1.26-.79,2.15-1.83,2.37-.22.05-.43.07-.63.07-.63,0-1.09-.22-1.39-.44-.57-.42-.92-1.1-1-1.92-.08-.82-.04-1.66-.01-2.47.02-.44.03-.87.03-1.28-1.82-.69-3.26-2.12-3.93-3.96-.79-2.13-.44-4.51.92-6.38,1.24-1.7,3.19-2.68,5.36-2.7h.05c2.16,0,4.12.96,5.38,2.65,1.39,1.85,1.75,4.24.97,6.4Z" fill="none"/>
    <path d="M928.54,287.54h0s-23.85,0-23.85,0c0-.3,0-.6-.01-.9-.02-1.41-.05-2.73.22-4,.81-3.83,3.45-7.03,7.08-8.57,3.62-1.54,7.61-1.23,10.92.84,1.99,1.25,3.56,3.05,4.54,5.12h5.12c-.29-.95-.67-1.9-1.18-2.85-3.72-6.96-11.06-10.22-18.72-8.3-6.38,1.59-12.82,7.25-12.83,16.29v2.38s-1.46,0-1.46,0c-.49,0-.98.26-1.39.74-.18.21-.75.95-.65,1.63.08,1.92.03,3.87-.01,5.76-.14,6.02-.29,12.24,3.67,17.89,3.86,5.51,9.92,8.68,16.63,8.68,6.71,0,12.77-3.16,16.63-8.68,3.96-5.65,3.81-11.85,3.67-17.85-.04-1.85-.09-3.76-.02-5.65.1-.66-.28-1.3-.53-1.64-.43-.59-.92-.88-1.44-.88h-1.5s-4.89,0-4.89,0ZM932.12,292.25v10.38c-.31,6.37-4.26,11.7-10.3,13.89-5.94,2.16-12.28.63-16.54-3.98-4.44-4.8-4.33-10.14-4.2-16.32.03-1.29.05-2.62.04-3.97" fill="#7b4dff"/>
    <path d="M916.61,294.82h-.05c-2.16.01-4.11,1-5.36,2.7-1.36,1.87-1.71,4.25-.92,6.38.68,1.84,2.11,3.27,3.93,3.96,0,.41-.01.84-.03,1.28-.03.81-.06,1.65.01,2.47.08.82.43,1.5,1,1.92.3.22.76.44,1.39.44.19,0,.4-.02.63-.07,1.03-.22,1.72-1.11,1.83-2.37.07-.8.04-1.62,0-2.41-.02-.44-.03-.86-.03-1.26,1.82-.69,3.26-2.13,3.94-3.99.78-2.16.42-4.55-.97-6.4-1.26-1.68-3.22-2.65-5.38-2.65ZM918.36,302.48c-.18.41-.57.93-1.44,1.03-1.9.22-2.19-1.38-2.23-1.71-.09-.73.16-2.01,1.62-2.19.79-.09,1.4.12,1.8.65.45.6.55,1.5.24,2.21Z" fill="#7b4dff"/>
  </g>
  <path d="M930.04,249.31c-3.97,0-7.29,2.82-8.07,6.56h-21c-.98,0-1.77.79-1.77,1.77s.79,1.77,1.77,1.77h.93v3.6c0,.98.79,1.77,1.77,1.77s1.77-.79,1.77-1.77v-3.6h16.58c.84,3.66,4.12,6.39,8.03,6.39,4.55,0,8.24-3.7,8.24-8.24s-3.7-8.24-8.24-8.24ZM930.04,262.56c-2.76,0-5-2.24-5-5s2.25-5,5-5,5,2.24,5,5-2.24,5-5,5Z" fill="#7b4dff"/>
</svg>