<?xml version="1.0" encoding="UTF-8"?>
<svg id="Layer_1" data-name="Layer 1" xmlns="http://www.w3.org/2000/svg" xmlns:xlink="http://www.w3.org/1999/xlink" viewBox="0 0 1441 452">
  <defs>
    <mask id="mask" x="581.82" y="-345.57" width="220.49" height="369.63" maskUnits="userSpaceOnUse"/>
    <mask id="mask-1" x="209.82" y="177.04" width="252.55" height="294.55" maskUnits="userSpaceOnUse">
      <g id="mask-9">
        <ellipse id="path-8-2" data-name="path-8" cx="350.93" cy="245.02" rx="68.89" ry="67.98" fill="#fff"/>
      </g>
    </mask>
    <mask id="mask-2" x="1079.8" y="206.95" width="280.72" height="470.58" maskUnits="userSpaceOnUse">
      <g id="mask-9-2" data-name="mask-9">
        <ellipse id="path-8-4" data-name="path-8" cx="1183.32" cy="269" rx="62.89" ry="62.05" fill="#fff"/>
      </g>
    </mask>
  </defs>
  <g id="humaaan-3">
    <g id="Clipped">
      <g id="Group">
        <g mask="url(#mask)">
          <g id="Bottom_Standing_Baggy-Pants" data-name="Bottom/Standing/Baggy-Pants">
            <g id="Accessories_Shoe_Flat-Sneaker" data-name="Accessories/Shoe/Flat-Sneaker">
              <path id="shoe" d="M646.33,3.5c1.39,2.35,2.19,4.14,2.41,5.39.27,1.52.4,3.78.41,6.78-1.76.31-17.61,3.11-47.55,8.38-1.95-3.86-1.63-6.19.98-6.98,2.6-.79,4.76-1.48,6.48-2.05l20.37-13.73c.39-.26.92-.16,1.19.23,0,0,0,.01.01.02l2.03,3.19h0c2.67.71,4.77.93,6.31.66,1.25-.22,2.89-1.03,4.92-2.43h0c.78-.54,1.84-.34,2.38.44.02.03.04.07.06.1Z" fill="#e4e4e4"/>
            </g>
          </g>
        </g>
      </g>
    </g>
  </g>
  <rect x="-.22" y="-15.1" width="691.1" height="482.67" fill="#f8f7fa"/>
  <rect x="692.06" y="-6.52" width="748.49" height="468.22" fill="#eae3ff"/>
  <circle cx="397.71" cy="453.07" r="5.99" fill="#fff"/>
  <g>
    <path d="M145.1,28.69h7.06l6.7,11.32,6.66-11.32h7.02l-10.63,17.66v11h-6.3v-11.16l-10.51-17.5Z" fill="#9a95a3"/>
    <path d="M170.02,42.48c.51-1.35,1.23-2.5,2.17-3.45.94-.95,2.06-1.69,3.37-2.21s2.78-.78,4.41-.78,3.11.26,4.43.78c1.32.52,2.45,1.26,3.39,2.21.94.95,1.66,2.1,2.17,3.45s.76,2.86.76,4.51-.25,3.16-.76,4.49c-.51,1.34-1.23,2.48-2.17,3.43-.94.95-2.07,1.68-3.39,2.19-1.32.51-2.8.76-4.43.76s-3.1-.25-4.41-.76-2.43-1.24-3.37-2.19c-.94-.95-1.66-2.09-2.17-3.43-.51-1.34-.76-2.84-.76-4.49s.25-3.16.76-4.51ZM175.2,49.42c.16.79.43,1.5.82,2.13.39.63.9,1.13,1.54,1.5.64.38,1.44.56,2.41.56s1.77-.19,2.43-.56c.66-.37,1.18-.88,1.57-1.5.39-.63.66-1.34.82-2.13s.24-1.6.24-2.43-.08-1.65-.24-2.45c-.16-.8-.43-1.51-.82-2.13-.39-.61-.91-1.12-1.57-1.51-.66-.39-1.46-.58-2.43-.58s-1.77.19-2.41.58c-.64.39-1.16.89-1.54,1.51-.39.61-.66,1.32-.82,2.13-.16.8-.24,1.62-.24,2.45s.08,1.64.24,2.43Z" fill="#9a95a3"/>
    <path d="M208.46,57.35v-2.89h-.12c-.72,1.2-1.66,2.07-2.81,2.61-1.15.53-2.33.8-3.53.8-1.52,0-2.78-.2-3.75-.6-.98-.4-1.75-.97-2.31-1.71-.56-.74-.96-1.63-1.18-2.69-.23-1.06-.34-2.23-.34-3.51v-12.76h5.7v11.72c0,1.71.27,2.99.8,3.83.53.84,1.48,1.26,2.85,1.26,1.55,0,2.67-.46,3.37-1.39.7-.92,1.04-2.44,1.04-4.55v-10.87h5.7v20.75h-5.42Z" fill="#9a95a3"/>
    <path d="M223.63,36.6v3.85h.08c.27-.64.63-1.24,1.08-1.78s.98-1.02,1.56-1.4c.59-.39,1.22-.69,1.89-.9s1.37-.32,2.09-.32c.37,0,.79.07,1.24.2v5.3c-.27-.05-.59-.1-.96-.14-.38-.04-.74-.06-1.09-.06-1.04,0-1.93.17-2.65.52-.72.35-1.3.82-1.75,1.42-.44.6-.75,1.31-.94,2.11-.19.8-.28,1.67-.28,2.61v9.35h-5.7v-20.75h5.42Z" fill="#9a95a3"/>
    <path d="M259.71,54.7c-.67,1.12-1.54,1.93-2.63,2.43-1.08.49-2.31.74-3.67.74-1.55,0-2.92-.3-4.09-.9s-2.15-1.42-2.91-2.45-1.34-2.21-1.73-3.55-.58-2.73-.58-4.17.19-2.74.58-4.03.96-2.44,1.73-3.43,1.72-1.79,2.87-2.39c1.15-.6,2.49-.9,4.01-.9,1.23,0,2.4.26,3.51.78,1.11.52,1.99,1.29,2.63,2.31h.08v-10.43h5.7v28.65h-5.42v-2.65h-.08ZM259.47,44.45c-.16-.79-.44-1.48-.82-2.09s-.89-1.09-1.5-1.47c-.62-.37-1.39-.56-2.33-.56s-1.73.19-2.37.56c-.64.38-1.16.87-1.54,1.48-.39.62-.67,1.32-.84,2.11-.17.79-.26,1.61-.26,2.47,0,.8.09,1.61.28,2.41.19.8.49,1.52.9,2.15s.94,1.14,1.56,1.53,1.39.58,2.27.58c.94,0,1.72-.19,2.35-.56.63-.37,1.13-.88,1.5-1.5.38-.63.64-1.34.8-2.15.16-.8.24-1.63.24-2.49s-.08-1.68-.24-2.47Z" fill="#9a95a3"/>
    <path d="M269.26,42.98c.08-1.34.41-2.45,1-3.33.59-.88,1.34-1.59,2.25-2.13.91-.54,1.93-.92,3.07-1.14s2.28-.34,3.43-.34c1.04,0,2.1.07,3.17.22,1.07.15,2.05.44,2.93.86.88.43,1.61,1.02,2.17,1.78s.84,1.77.84,3.03v10.79c0,.94.05,1.83.16,2.69.11.86.29,1.5.56,1.93h-5.78c-.11-.32-.19-.65-.26-.98-.07-.33-.11-.68-.14-1.02-.91.94-1.98,1.59-3.21,1.97-1.23.38-2.49.56-3.77.56-.99,0-1.91-.12-2.77-.36-.86-.24-1.61-.61-2.25-1.12s-1.14-1.15-1.51-1.93c-.36-.78-.54-1.7-.54-2.77,0-1.18.21-2.15.62-2.91.41-.76.95-1.37,1.61-1.83.65-.45,1.4-.8,2.25-1.02.84-.23,1.69-.41,2.55-.54s1.7-.24,2.53-.32,1.57-.2,2.21-.36c.64-.16,1.15-.39,1.53-.7.37-.31.55-.76.52-1.34,0-.61-.1-1.1-.3-1.47-.2-.36-.47-.64-.8-.84s-.72-.33-1.16-.4c-.44-.07-.92-.1-1.42-.1-1.12,0-2.01.24-2.65.72-.64.48-1.02,1.28-1.12,2.41h-5.7ZM282.42,47.19c-.24.21-.54.38-.9.5-.36.12-.75.22-1.17.3-.41.08-.85.15-1.3.2s-.91.12-1.36.2c-.43.08-.85.19-1.26.32s-.78.32-1.08.54c-.31.23-.55.52-.74.86s-.28.79-.28,1.32.09.94.28,1.28c.19.35.44.62.76.82s.69.34,1.12.42c.43.08.87.12,1.32.12,1.12,0,1.99-.19,2.61-.56.62-.38,1.07-.82,1.37-1.34.29-.52.47-1.05.54-1.59s.1-.96.1-1.28v-2.13Z" fill="#9a95a3"/>
    <path d="M303.93,36.6v3.81h-4.17v10.27c0,.96.16,1.61.48,1.93.32.32.96.48,1.92.48.32,0,.63-.01.92-.04.29-.03.57-.07.84-.12v4.41c-.48.08-1.02.13-1.61.16-.59.03-1.16.04-1.73.04-.88,0-1.72-.06-2.51-.18-.79-.12-1.48-.35-2.09-.7-.6-.35-1.08-.84-1.42-1.48-.35-.64-.52-1.48-.52-2.53v-12.24h-3.45v-3.81h3.45v-6.22h5.7v6.22h4.17Z" fill="#9a95a3"/>
    <path d="M306.42,42.98c.08-1.34.41-2.45,1-3.33.59-.88,1.34-1.59,2.25-2.13.91-.54,1.93-.92,3.07-1.14s2.28-.34,3.43-.34c1.04,0,2.1.07,3.17.22,1.07.15,2.05.44,2.93.86.88.43,1.61,1.02,2.17,1.78s.84,1.77.84,3.03v10.79c0,.94.05,1.83.16,2.69.11.86.29,1.5.56,1.93h-5.78c-.11-.32-.19-.65-.26-.98-.07-.33-.11-.68-.14-1.02-.91.94-1.98,1.59-3.21,1.97-1.23.38-2.49.56-3.77.56-.99,0-1.91-.12-2.77-.36-.86-.24-1.61-.61-2.25-1.12s-1.14-1.15-1.51-1.93c-.36-.78-.54-1.7-.54-2.77,0-1.18.21-2.15.62-2.91.41-.76.95-1.37,1.61-1.83.65-.45,1.4-.8,2.25-1.02.84-.23,1.69-.41,2.55-.54s1.7-.24,2.53-.32,1.57-.2,2.21-.36c.64-.16,1.15-.39,1.53-.7.37-.31.55-.76.52-1.34,0-.61-.1-1.1-.3-1.47-.2-.36-.47-.64-.8-.84s-.72-.33-1.16-.4c-.44-.07-.92-.1-1.42-.1-1.12,0-2.01.24-2.65.72-.64.48-1.02,1.28-1.12,2.41h-5.7ZM319.58,47.19c-.24.21-.54.38-.9.5-.36.12-.75.22-1.17.3-.41.08-.85.15-1.3.2s-.91.12-1.36.2c-.43.08-.85.19-1.26.32s-.78.32-1.08.54c-.31.23-.55.52-.74.86s-.28.79-.28,1.32.09.94.28,1.28c.19.35.44.62.76.82s.69.34,1.12.42c.43.08.87.12,1.32.12,1.12,0,1.99-.19,2.61-.56.62-.38,1.07-.82,1.37-1.34.29-.52.47-1.05.54-1.59s.1-.96.1-1.28v-2.13Z" fill="#9a95a3"/>
    <path d="M340.97,42.48c.51-1.35,1.23-2.5,2.17-3.45s2.06-1.69,3.37-2.21c1.31-.52,2.78-.78,4.41-.78s3.11.26,4.43.78c1.32.52,2.45,1.26,3.39,2.21.94.95,1.66,2.1,2.17,3.45.51,1.35.76,2.86.76,4.51s-.25,3.16-.76,4.49c-.51,1.34-1.23,2.48-2.17,3.43-.94.95-2.07,1.68-3.39,2.19-1.32.51-2.8.76-4.43.76s-3.1-.25-4.41-.76c-1.31-.51-2.44-1.24-3.37-2.19s-1.66-2.09-2.17-3.43c-.51-1.34-.76-2.84-.76-4.49s.25-3.16.76-4.51ZM346.14,49.42c.16.79.43,1.5.82,2.13.39.63.9,1.13,1.54,1.5.64.38,1.44.56,2.41.56s1.77-.19,2.43-.56c.66-.37,1.18-.88,1.56-1.5s.66-1.34.82-2.13c.16-.79.24-1.6.24-2.43s-.08-1.65-.24-2.45c-.16-.8-.44-1.51-.82-2.13s-.91-1.12-1.56-1.51c-.66-.39-1.47-.58-2.43-.58s-1.76.19-2.41.58c-.64.39-1.16.89-1.54,1.51-.39.61-.66,1.32-.82,2.13-.16.8-.24,1.62-.24,2.45s.08,1.64.24,2.43Z" fill="#9a95a3"/>
    <path d="M370.78,36.6v2.89h.12c.72-1.2,1.66-2.08,2.81-2.63,1.15-.55,2.33-.82,3.53-.82,1.53,0,2.78.21,3.75.62.98.42,1.75.99,2.31,1.73.56.74.96,1.63,1.18,2.69s.34,2.23.34,3.51v12.76h-5.7v-11.72c0-1.71-.27-2.99-.8-3.83s-1.48-1.26-2.85-1.26c-1.55,0-2.68.46-3.37,1.38-.7.92-1.04,2.44-1.04,4.55v10.87h-5.7v-20.75h5.42Z" fill="#9a95a3"/>
    <path d="M411.71,36.6v3.81h-4.17v10.27c0,.96.16,1.61.48,1.93.32.32.96.48,1.92.48.32,0,.63-.01.92-.04.29-.03.57-.07.84-.12v4.41c-.48.08-1.02.13-1.61.16-.59.03-1.16.04-1.73.04-.88,0-1.72-.06-2.51-.18-.79-.12-1.48-.35-2.09-.7-.6-.35-1.08-.84-1.42-1.48-.35-.64-.52-1.48-.52-2.53v-12.24h-3.45v-3.81h3.45v-6.22h5.7v6.22h4.17Z" fill="#9a95a3"/>
    <path d="M420.14,28.69v10.79h.12c.72-1.2,1.65-2.08,2.77-2.63,1.12-.55,2.22-.82,3.29-.82,1.53,0,2.78.21,3.75.62.98.42,1.75.99,2.31,1.73.56.74.96,1.63,1.18,2.69s.34,2.23.34,3.51v12.76h-5.7v-11.72c0-1.71-.27-2.99-.8-3.83s-1.48-1.26-2.85-1.26c-1.55,0-2.68.46-3.37,1.38-.7.92-1.04,2.44-1.04,4.55v10.87h-5.7v-28.65h5.7Z" fill="#9a95a3"/>
    <path d="M444.34,52.37c.85.83,2.09,1.24,3.69,1.24,1.15,0,2.14-.29,2.97-.86.83-.58,1.34-1.18,1.53-1.83h5.02c-.8,2.49-2.03,4.27-3.69,5.34-1.66,1.07-3.67,1.61-6.02,1.61-1.63,0-3.1-.26-4.41-.78s-2.42-1.26-3.33-2.23c-.91-.96-1.61-2.11-2.11-3.45-.5-1.34-.74-2.81-.74-4.41s.25-3,.76-4.33c.51-1.34,1.23-2.49,2.17-3.47.94-.98,2.05-1.75,3.35-2.31,1.3-.56,2.73-.84,4.31-.84,1.76,0,3.3.34,4.62,1.02,1.31.68,2.39,1.6,3.23,2.75.84,1.15,1.45,2.46,1.83,3.93.38,1.47.51,3.01.4,4.62h-14.97c.08,1.85.55,3.18,1.4,4.01ZM450.78,41.46c-.68-.75-1.72-1.12-3.11-1.12-.91,0-1.67.16-2.27.46s-1.08.69-1.44,1.14c-.36.46-.62.94-.76,1.45-.15.51-.24.96-.26,1.36h9.27c-.27-1.44-.74-2.54-1.42-3.29Z" fill="#9a95a3"/>
    <path d="M490.28,57.35l-3.69-13.93h-.08l-3.53,13.93h-5.9l-6.58-20.75h6.02l3.81,14.09h.08l3.45-14.09h5.54l3.53,14.05h.08l3.81-14.05h5.86l-6.54,20.75h-5.86Z" fill="#9a95a3"/>
    <path d="M511.19,52.37c.85.83,2.09,1.24,3.69,1.24,1.15,0,2.14-.29,2.97-.86.83-.58,1.34-1.18,1.53-1.83h5.02c-.8,2.49-2.03,4.27-3.69,5.34-1.66,1.07-3.67,1.61-6.02,1.61-1.63,0-3.1-.26-4.41-.78s-2.42-1.26-3.33-2.23c-.91-.96-1.61-2.11-2.11-3.45-.5-1.34-.74-2.81-.74-4.41s.25-3,.76-4.33c.51-1.34,1.23-2.49,2.17-3.47.94-.98,2.05-1.75,3.35-2.31,1.3-.56,2.73-.84,4.31-.84,1.76,0,3.3.34,4.62,1.02,1.31.68,2.39,1.6,3.23,2.75.84,1.15,1.45,2.46,1.83,3.93.38,1.47.51,3.01.4,4.62h-14.97c.08,1.85.55,3.18,1.4,4.01ZM517.63,41.46c-.68-.75-1.72-1.12-3.11-1.12-.91,0-1.67.16-2.27.46s-1.08.69-1.44,1.14c-.36.46-.62.94-.76,1.45-.15.51-.24.96-.26,1.36h9.27c-.27-1.44-.74-2.54-1.42-3.29Z" fill="#9a95a3"/>
    <path d="M533.82,28.69v10.43h.08c.69-1.07,1.64-1.85,2.83-2.35,1.19-.49,2.43-.74,3.71-.74,1.04,0,2.07.21,3.09.64,1.02.43,1.93,1.08,2.75,1.97.82.88,1.48,2.01,1.99,3.39s.76,3.02.76,4.92-.25,3.54-.76,4.92-1.17,2.51-1.99,3.39c-.82.88-1.73,1.54-2.75,1.97-1.02.43-2.05.64-3.09.64-1.52,0-2.89-.24-4.09-.72-1.2-.48-2.11-1.3-2.73-2.45h-.08v2.65h-5.42v-28.65h5.7ZM543.05,44.47c-.19-.8-.48-1.51-.88-2.13s-.9-1.1-1.5-1.47c-.6-.36-1.33-.54-2.19-.54s-1.55.18-2.17.54c-.62.36-1.12.85-1.53,1.47-.4.61-.69,1.32-.88,2.13-.19.8-.28,1.64-.28,2.53s.09,1.69.28,2.49c.19.8.48,1.51.88,2.13.4.61.91,1.1,1.53,1.47.61.36,1.34.54,2.17.54s1.58-.18,2.19-.54c.6-.36,1.1-.85,1.5-1.47s.69-1.32.88-2.13c.19-.8.28-1.63.28-2.49s-.09-1.73-.28-2.53Z" fill="#9a95a3"/>
    <path d="M270.47,82.12v-7.33h32.51v7.33h-11.89v32.34h-8.72v-32.34h-11.89Z" fill="#9a95a3"/>
    <path d="M300.69,93.87c.7-1.87,1.7-3.46,3-4.78,1.3-1.31,2.85-2.33,4.67-3.06s3.85-1.08,6.11-1.08,4.3.36,6.14,1.08,3.4,1.74,4.7,3.06c1.3,1.31,2.3,2.91,3,4.78.7,1.87,1.06,3.96,1.06,6.25s-.35,4.37-1.06,6.22c-.7,1.85-1.7,3.44-3,4.75-1.3,1.31-2.86,2.32-4.7,3.03-1.83.7-3.88,1.06-6.14,1.06s-4.3-.35-6.11-1.06c-1.81-.7-3.37-1.71-4.67-3.03-1.3-1.31-2.3-2.9-3-4.75s-1.06-3.93-1.06-6.22.35-4.38,1.06-6.25ZM307.86,103.48c.22,1.09.6,2.08,1.14,2.95.54.87,1.25,1.57,2.14,2.08s2,.78,3.33.78,2.45-.26,3.36-.78c.91-.52,1.63-1.21,2.17-2.08.54-.87.92-1.85,1.14-2.95.22-1.09.33-2.21.33-3.36s-.11-2.28-.33-3.39c-.22-1.11-.6-2.09-1.14-2.94s-1.26-1.55-2.17-2.08c-.91-.54-2.03-.8-3.36-.8s-2.44.27-3.33.8c-.89.54-1.6,1.23-2.14,2.08s-.92,1.83-1.14,2.94c-.22,1.11-.33,2.24-.33,3.39s.11,2.27.33,3.36Z" fill="#9a95a3"/>
    <path d="M354.87,110.79c-.93,1.56-2.14,2.68-3.64,3.36-1.5.69-3.2,1.03-5.08,1.03-2.15,0-4.04-.42-5.67-1.25-1.63-.83-2.97-1.96-4.03-3.39-1.06-1.43-1.85-3.06-2.39-4.92s-.8-3.78-.8-5.78.27-3.79.8-5.58,1.33-3.38,2.39-4.75c1.06-1.37,2.38-2.47,3.97-3.31,1.59-.83,3.45-1.25,5.56-1.25,1.7,0,3.32.36,4.86,1.08s2.75,1.79,3.64,3.2h.11v-14.45h7.89v39.67h-7.5v-3.67h-.11ZM354.54,96.59c-.22-1.09-.6-2.06-1.14-2.89-.54-.83-1.23-1.51-2.08-2.03-.85-.52-1.93-.78-3.22-.78s-2.39.26-3.28.78c-.89.52-1.6,1.2-2.14,2.06s-.93,1.82-1.17,2.92-.36,2.23-.36,3.42c0,1.11.13,2.22.39,3.33s.68,2.1,1.25,2.97c.57.87,1.3,1.58,2.17,2.11.87.54,1.92.81,3.14.81,1.3,0,2.38-.26,3.25-.78.87-.52,1.56-1.21,2.08-2.08.52-.87.89-1.86,1.11-2.97.22-1.11.33-2.26.33-3.45s-.11-2.32-.33-3.42Z" fill="#9a95a3"/>
    <path d="M368.09,94.56c.11-1.85.57-3.39,1.39-4.61.81-1.22,1.85-2.2,3.11-2.95,1.26-.74,2.68-1.27,4.25-1.58,1.57-.32,3.16-.47,4.75-.47,1.45,0,2.91.1,4.39.31,1.48.2,2.83.6,4.06,1.2s2.22,1.42,3,2.47c.78,1.06,1.17,2.45,1.17,4.19v14.95c0,1.3.07,2.54.22,3.72.15,1.18.41,2.07.78,2.67h-8c-.15-.44-.27-.9-.36-1.36-.09-.46-.16-.94-.19-1.42-1.26,1.3-2.74,2.2-4.44,2.72-1.7.52-3.45.78-5.22.78-1.37,0-2.65-.17-3.83-.5-1.19-.33-2.22-.85-3.11-1.56-.89-.7-1.58-1.59-2.08-2.67-.5-1.07-.75-2.35-.75-3.83,0-1.63.29-2.97.86-4.03.57-1.06,1.31-1.9,2.22-2.53.91-.63,1.94-1.1,3.11-1.42,1.17-.31,2.34-.56,3.53-.75,1.18-.19,2.35-.33,3.5-.44,1.15-.11,2.17-.28,3.06-.5.89-.22,1.59-.55,2.11-.97.52-.43.76-1.05.72-1.86,0-.85-.14-1.53-.42-2.03-.28-.5-.65-.89-1.11-1.17s-1-.46-1.61-.56c-.61-.09-1.27-.14-1.97-.14-1.56,0-2.78.33-3.67,1-.89.67-1.41,1.78-1.56,3.33h-7.89ZM386.32,100.4c-.33.3-.75.53-1.25.69-.5.17-1.04.31-1.61.42-.57.11-1.18.2-1.81.28-.63.08-1.26.17-1.89.28-.59.11-1.18.26-1.75.44-.58.19-1.07.44-1.5.75-.43.32-.77.71-1.03,1.19-.26.48-.39,1.09-.39,1.83s.13,1.3.39,1.78.61.86,1.06,1.14c.44.28.96.47,1.56.58.59.11,1.2.17,1.83.17,1.56,0,2.76-.26,3.61-.78.85-.52,1.48-1.14,1.89-1.86.41-.72.66-1.45.75-2.19.09-.74.14-1.33.14-1.78v-2.95Z" fill="#9a95a3"/>
    <path d="M410.93,123.01c-1.52,1-3.63,1.5-6.33,1.5-.82,0-1.62-.03-2.42-.08-.8-.06-1.6-.12-2.42-.19v-6.5c.74.07,1.5.15,2.28.22.78.07,1.56.09,2.33.06,1.04-.11,1.81-.52,2.31-1.22.5-.7.75-1.48.75-2.33,0-.63-.11-1.22-.33-1.78l-10.06-26.95h8.39l6.5,19.67h.11l6.28-19.67h8.17l-12,32.28c-.85,2.33-2.04,4-3.56,5Z" fill="#9a95a3"/>
  </g>
  <g>
    <path d="M862.36,28.69h7.06l6.7,11.32,6.66-11.32h7.02l-10.63,17.66v11h-6.3v-11.16l-10.51-17.5Z" fill="#7b4dff"/>
    <path d="M887.28,42.48c.51-1.35,1.23-2.5,2.17-3.45.94-.95,2.06-1.69,3.37-2.21,1.31-.52,2.78-.78,4.41-.78s3.11.26,4.43.78c1.32.52,2.45,1.26,3.39,2.21s1.66,2.1,2.17,3.45.76,2.86.76,4.51-.25,3.16-.76,4.49c-.51,1.34-1.23,2.48-2.17,3.43s-2.07,1.68-3.39,2.19c-1.32.51-2.8.76-4.43.76s-3.1-.25-4.41-.76c-1.31-.51-2.43-1.24-3.37-2.19-.94-.95-1.66-2.09-2.17-3.43-.51-1.34-.76-2.84-.76-4.49s.25-3.16.76-4.51ZM892.46,49.42c.16.79.44,1.5.82,2.13s.9,1.13,1.54,1.5c.64.38,1.45.56,2.41.56s1.77-.19,2.43-.56c.66-.37,1.18-.88,1.57-1.5.39-.63.66-1.34.82-2.13.16-.79.24-1.6.24-2.43s-.08-1.65-.24-2.45c-.16-.8-.43-1.51-.82-2.13-.39-.61-.91-1.12-1.57-1.51-.66-.39-1.46-.58-2.43-.58s-1.77.19-2.41.58c-.64.39-1.16.89-1.54,1.51s-.66,1.32-.82,2.13c-.16.8-.24,1.62-.24,2.45s.08,1.64.24,2.43Z" fill="#7b4dff"/>
    <path d="M925.72,57.35v-2.89h-.12c-.72,1.2-1.66,2.07-2.81,2.61-1.15.53-2.33.8-3.53.8-1.53,0-2.78-.2-3.75-.6-.98-.4-1.75-.97-2.31-1.71-.56-.74-.96-1.63-1.18-2.69-.23-1.06-.34-2.23-.34-3.51v-12.76h5.7v11.72c0,1.71.27,2.99.8,3.83s1.48,1.26,2.85,1.26c1.55,0,2.68-.46,3.37-1.39.69-.92,1.04-2.44,1.04-4.55v-10.87h5.7v20.75h-5.42Z" fill="#7b4dff"/>
    <path d="M940.89,36.6v3.85h.08c.27-.64.63-1.24,1.08-1.78s.98-1.02,1.56-1.4c.59-.39,1.22-.69,1.89-.9s1.37-.32,2.09-.32c.37,0,.79.07,1.24.2v5.3c-.27-.05-.59-.1-.96-.14-.38-.04-.74-.06-1.09-.06-1.04,0-1.93.17-2.65.52-.72.35-1.3.82-1.75,1.42-.44.6-.75,1.31-.94,2.11-.19.8-.28,1.67-.28,2.61v9.35h-5.7v-20.75h5.42Z" fill="#7b4dff"/>
    <path d="M976.97,54.7c-.67,1.12-1.54,1.93-2.63,2.43-1.08.49-2.31.74-3.67.74-1.55,0-2.92-.3-4.09-.9s-2.15-1.42-2.91-2.45-1.34-2.21-1.73-3.55-.58-2.73-.58-4.17.19-2.74.58-4.03.96-2.44,1.73-3.43,1.72-1.79,2.87-2.39c1.15-.6,2.49-.9,4.01-.9,1.23,0,2.4.26,3.51.78,1.11.52,1.99,1.29,2.63,2.31h.08v-10.43h5.7v28.65h-5.42v-2.65h-.08ZM976.72,44.45c-.16-.79-.44-1.48-.82-2.09s-.89-1.09-1.5-1.47c-.62-.37-1.39-.56-2.33-.56s-1.73.19-2.37.56c-.64.38-1.16.87-1.54,1.48-.39.62-.67,1.32-.84,2.11-.17.79-.26,1.61-.26,2.47,0,.8.09,1.61.28,2.41.19.8.49,1.52.9,2.15s.94,1.14,1.56,1.53,1.39.58,2.27.58c.94,0,1.72-.19,2.35-.56.63-.37,1.13-.88,1.5-1.5.38-.63.64-1.34.8-2.15.16-.8.24-1.63.24-2.49s-.08-1.68-.24-2.47Z" fill="#7b4dff"/>
    <path d="M986.52,42.98c.08-1.34.41-2.45,1-3.33.59-.88,1.34-1.59,2.25-2.13.91-.54,1.93-.92,3.07-1.14s2.28-.34,3.43-.34c1.04,0,2.1.07,3.17.22,1.07.15,2.05.44,2.93.86.88.43,1.61,1.02,2.17,1.78s.84,1.77.84,3.03v10.79c0,.94.05,1.83.16,2.69.11.86.29,1.5.56,1.93h-5.78c-.11-.32-.19-.65-.26-.98-.07-.33-.11-.68-.14-1.02-.91.94-1.98,1.59-3.21,1.97-1.23.38-2.49.56-3.77.56-.99,0-1.91-.12-2.77-.36-.86-.24-1.61-.61-2.25-1.12s-1.14-1.15-1.51-1.93c-.36-.78-.54-1.7-.54-2.77,0-1.18.21-2.15.62-2.91.41-.76.95-1.37,1.61-1.83.65-.45,1.4-.8,2.25-1.02.84-.23,1.69-.41,2.55-.54s1.7-.24,2.53-.32,1.57-.2,2.21-.36c.64-.16,1.15-.39,1.53-.7.37-.31.55-.76.52-1.34,0-.61-.1-1.1-.3-1.47-.2-.36-.47-.64-.8-.84s-.72-.33-1.16-.4c-.44-.07-.92-.1-1.42-.1-1.12,0-2.01.24-2.65.72-.64.48-1.02,1.28-1.12,2.41h-5.7ZM999.68,47.19c-.24.21-.54.38-.9.5-.36.12-.75.22-1.17.3-.41.08-.85.15-1.3.2s-.91.12-1.36.2c-.43.08-.85.19-1.26.32s-.78.32-1.08.54c-.31.23-.55.52-.74.86s-.28.79-.28,1.32.09.94.28,1.28c.19.35.44.62.76.82s.69.34,1.12.42c.43.08.87.12,1.32.12,1.12,0,1.99-.19,2.61-.56.62-.38,1.07-.82,1.37-1.34.29-.52.47-1.05.54-1.59s.1-.96.1-1.28v-2.13Z" fill="#7b4dff"/>
    <path d="M1021.19,36.6v3.81h-4.17v10.27c0,.96.16,1.61.48,1.93.32.32.96.48,1.92.48.32,0,.63-.01.92-.04.29-.03.57-.07.84-.12v4.41c-.48.08-1.02.13-1.61.16-.59.03-1.16.04-1.73.04-.88,0-1.72-.06-2.51-.18-.79-.12-1.48-.35-2.09-.7-.6-.35-1.08-.84-1.42-1.48-.35-.64-.52-1.48-.52-2.53v-12.24h-3.45v-3.81h3.45v-6.22h5.7v6.22h4.17Z" fill="#7b4dff"/>
    <path d="M1023.67,42.98c.08-1.34.41-2.45,1-3.33.59-.88,1.34-1.59,2.25-2.13.91-.54,1.93-.92,3.07-1.14s2.28-.34,3.43-.34c1.04,0,2.1.07,3.17.22,1.07.15,2.05.44,2.93.86.88.43,1.61,1.02,2.17,1.78s.84,1.77.84,3.03v10.79c0,.94.05,1.83.16,2.69.11.86.29,1.5.56,1.93h-5.78c-.11-.32-.19-.65-.26-.98-.07-.33-.11-.68-.14-1.02-.91.94-1.98,1.59-3.21,1.97-1.23.38-2.49.56-3.77.56-.99,0-1.91-.12-2.77-.36-.86-.24-1.61-.61-2.25-1.12s-1.14-1.15-1.51-1.93c-.36-.78-.54-1.7-.54-2.77,0-1.18.21-2.15.62-2.91.41-.76.95-1.37,1.61-1.83.65-.45,1.4-.8,2.25-1.02.84-.23,1.69-.41,2.55-.54s1.7-.24,2.53-.32,1.57-.2,2.21-.36c.64-.16,1.15-.39,1.53-.7.37-.31.55-.76.52-1.34,0-.61-.1-1.1-.3-1.47-.2-.36-.47-.64-.8-.84s-.72-.33-1.16-.4c-.44-.07-.92-.1-1.42-.1-1.12,0-2.01.24-2.65.72-.64.48-1.02,1.28-1.12,2.41h-5.7ZM1036.84,47.19c-.24.21-.54.38-.9.5-.36.12-.75.22-1.17.3-.41.08-.85.15-1.3.2s-.91.12-1.36.2c-.43.08-.85.19-1.26.32s-.78.32-1.08.54c-.31.23-.55.52-.74.86s-.28.79-.28,1.32.09.94.28,1.28c.19.35.44.62.76.82s.69.34,1.12.42c.43.08.87.12,1.32.12,1.12,0,1.99-.19,2.61-.56.62-.38,1.07-.82,1.37-1.34.29-.52.47-1.05.54-1.59s.1-.96.1-1.28v-2.13Z" fill="#7b4dff"/>
    <path d="M1058.22,42.48c.51-1.35,1.23-2.5,2.17-3.45s2.06-1.69,3.37-2.21c1.31-.52,2.78-.78,4.41-.78s3.11.26,4.43.78c1.32.52,2.45,1.26,3.39,2.21.94.95,1.66,2.1,2.17,3.45.51,1.35.76,2.86.76,4.51s-.25,3.16-.76,4.49c-.51,1.34-1.23,2.48-2.17,3.43-.94.95-2.07,1.68-3.39,2.19-1.32.51-2.8.76-4.43.76s-3.1-.25-4.41-.76c-1.31-.51-2.44-1.24-3.37-2.19s-1.66-2.09-2.17-3.43c-.51-1.34-.76-2.84-.76-4.49s.25-3.16.76-4.51ZM1063.4,49.42c.16.79.43,1.5.82,2.13.39.63.9,1.13,1.54,1.5.64.38,1.44.56,2.41.56s1.77-.19,2.43-.56c.66-.37,1.18-.88,1.56-1.5s.66-1.34.82-2.13c.16-.79.24-1.6.24-2.43s-.08-1.65-.24-2.45c-.16-.8-.44-1.51-.82-2.13s-.91-1.12-1.56-1.51c-.66-.39-1.47-.58-2.43-.58s-1.76.19-2.41.58c-.64.39-1.16.89-1.54,1.51-.39.61-.66,1.32-.82,2.13-.16.8-.24,1.62-.24,2.45s.08,1.64.24,2.43Z" fill="#7b4dff"/>
    <path d="M1088.04,36.6v2.89h.12c.72-1.2,1.66-2.08,2.81-2.63,1.15-.55,2.33-.82,3.53-.82,1.53,0,2.78.21,3.75.62.98.42,1.75.99,2.31,1.73.56.74.96,1.63,1.18,2.69s.34,2.23.34,3.51v12.76h-5.7v-11.72c0-1.71-.27-2.99-.8-3.83s-1.48-1.26-2.85-1.26c-1.55,0-2.68.46-3.37,1.38-.7.92-1.04,2.44-1.04,4.55v10.87h-5.7v-20.75h5.42Z" fill="#7b4dff"/>
    <path d="M1128.97,36.6v3.81h-4.17v10.27c0,.96.16,1.61.48,1.93.32.32.96.48,1.92.48.32,0,.63-.01.92-.04.29-.03.57-.07.84-.12v4.41c-.48.08-1.02.13-1.61.16-.59.03-1.16.04-1.73.04-.88,0-1.72-.06-2.51-.18-.79-.12-1.48-.35-2.09-.7-.6-.35-1.08-.84-1.42-1.48-.35-.64-.52-1.48-.52-2.53v-12.24h-3.45v-3.81h3.45v-6.22h5.7v6.22h4.17Z" fill="#7b4dff"/>
    <path d="M1137.4,28.69v10.79h.12c.72-1.2,1.65-2.08,2.77-2.63,1.12-.55,2.22-.82,3.29-.82,1.53,0,2.78.21,3.75.62.98.42,1.75.99,2.31,1.73.56.74.96,1.63,1.18,2.69s.34,2.23.34,3.51v12.76h-5.7v-11.72c0-1.71-.27-2.99-.8-3.83s-1.48-1.26-2.85-1.26c-1.55,0-2.68.46-3.37,1.38-.7.92-1.04,2.44-1.04,4.55v10.87h-5.7v-28.65h5.7Z" fill="#7b4dff"/>
    <path d="M1161.59,52.37c.85.83,2.09,1.24,3.69,1.24,1.15,0,2.14-.29,2.97-.86.83-.58,1.34-1.18,1.53-1.83h5.02c-.8,2.49-2.03,4.27-3.69,5.34-1.66,1.07-3.67,1.61-6.02,1.61-1.63,0-3.1-.26-4.41-.78s-2.42-1.26-3.33-2.23c-.91-.96-1.61-2.11-2.11-3.45-.5-1.34-.74-2.81-.74-4.41s.25-3,.76-4.33c.51-1.34,1.23-2.49,2.17-3.47.94-.98,2.05-1.75,3.35-2.31,1.3-.56,2.73-.84,4.31-.84,1.76,0,3.3.34,4.62,1.02,1.31.68,2.39,1.6,3.23,2.75.84,1.15,1.45,2.46,1.83,3.93.38,1.47.51,3.01.4,4.62h-14.97c.08,1.85.55,3.18,1.4,4.01ZM1168.04,41.46c-.68-.75-1.72-1.12-3.11-1.12-.91,0-1.67.16-2.27.46s-1.08.69-1.44,1.14c-.36.46-.62.94-.76,1.45-.15.51-.24.96-.26,1.36h9.27c-.27-1.44-.74-2.54-1.42-3.29Z" fill="#7b4dff"/>
    <path d="M1207.54,57.35l-3.69-13.93h-.08l-3.53,13.93h-5.9l-6.58-20.75h6.02l3.81,14.09h.08l3.45-14.09h5.54l3.53,14.05h.08l3.81-14.05h5.86l-6.54,20.75h-5.86Z" fill="#7b4dff"/>
    <path d="M1228.45,52.37c.85.83,2.09,1.24,3.69,1.24,1.15,0,2.14-.29,2.97-.86.83-.58,1.34-1.18,1.53-1.83h5.02c-.8,2.49-2.03,4.27-3.69,5.34-1.66,1.07-3.67,1.61-6.02,1.61-1.63,0-3.1-.26-4.41-.78s-2.42-1.26-3.33-2.23c-.91-.96-1.61-2.11-2.11-3.45-.5-1.34-.74-2.81-.74-4.41s.25-3,.76-4.33c.51-1.34,1.23-2.49,2.17-3.47.94-.98,2.05-1.75,3.35-2.31,1.3-.56,2.73-.84,4.31-.84,1.76,0,3.3.34,4.62,1.02,1.31.68,2.39,1.6,3.23,2.75.84,1.15,1.45,2.46,1.83,3.93.38,1.47.51,3.01.4,4.62h-14.97c.08,1.85.55,3.18,1.4,4.01ZM1234.89,41.46c-.68-.75-1.72-1.12-3.11-1.12-.91,0-1.67.16-2.27.46s-1.08.69-1.44,1.14c-.36.46-.62.94-.76,1.45-.15.51-.24.96-.26,1.36h9.27c-.27-1.44-.74-2.54-1.42-3.29Z" fill="#7b4dff"/>
    <path d="M1251.08,28.69v10.43h.08c.69-1.07,1.64-1.85,2.83-2.35,1.19-.49,2.43-.74,3.71-.74,1.04,0,2.07.21,3.09.64,1.02.43,1.93,1.08,2.75,1.97.82.88,1.48,2.01,1.99,3.39s.76,3.02.76,4.92-.25,3.54-.76,4.92-1.17,2.51-1.99,3.39c-.82.88-1.73,1.54-2.75,1.97-1.02.43-2.05.64-3.09.64-1.52,0-2.89-.24-4.09-.72-1.2-.48-2.11-1.3-2.73-2.45h-.08v2.65h-5.42v-28.65h5.7ZM1260.31,44.47c-.19-.8-.48-1.51-.88-2.13s-.9-1.1-1.5-1.47c-.6-.36-1.33-.54-2.19-.54s-1.55.18-2.17.54c-.62.36-1.12.85-1.53,1.47-.4.61-.69,1.32-.88,2.13-.19.8-.28,1.64-.28,2.53s.09,1.69.28,2.49c.19.8.48,1.51.88,2.13.4.61.91,1.1,1.53,1.47.61.36,1.34.54,2.17.54s1.58-.18,2.19-.54c.6-.36,1.1-.85,1.5-1.47s.69-1.32.88-2.13c.19-.8.28-1.63.28-2.49s-.09-1.73-.28-2.53Z" fill="#7b4dff"/>
    <path d="M962.86,114.45l-5.11-19.28h-.11l-4.89,19.28h-8.17l-9.11-28.73h8.34l5.28,19.5h.11l4.78-19.5h7.67l4.89,19.45h.11l5.28-19.45h8.11l-9.06,28.73h-8.11Z" fill="#7b4dff"/>
    <path d="M983.59,81.28v-6.5h7.89v6.5h-7.89ZM991.48,85.73v28.73h-7.89v-28.73h7.89Z" fill="#7b4dff"/>
    <path d="M1013.48,85.73v5.28h-5.78v14.23c0,1.33.22,2.22.67,2.67.44.44,1.33.67,2.67.67.44,0,.87-.02,1.28-.05.41-.04.8-.09,1.17-.17v6.11c-.67.11-1.41.19-2.22.22-.81.04-1.61.06-2.39.06-1.22,0-2.38-.08-3.47-.25-1.09-.17-2.06-.49-2.89-.97-.83-.48-1.49-1.17-1.97-2.06-.48-.89-.72-2.06-.72-3.5v-16.95h-4.78v-5.28h4.78v-8.61h7.89v8.61h5.78Z" fill="#7b4dff"/>
    <path d="M1025.15,74.78v14.95h.17c1-1.67,2.28-2.88,3.83-3.64,1.56-.76,3.07-1.14,4.55-1.14,2.11,0,3.84.29,5.2.86s2.42,1.37,3.2,2.39,1.32,2.26,1.64,3.72.47,3.08.47,4.86v17.67h-7.89v-16.22c0-2.37-.37-4.14-1.11-5.31-.74-1.17-2.06-1.75-3.95-1.75-2.15,0-3.7.64-4.67,1.92-.96,1.28-1.45,3.38-1.45,6.31v15.06h-7.89v-39.67h7.89Z" fill="#7b4dff"/>
    <path d="M1073.15,104.68c.48.93,1.12,1.68,1.92,2.25.8.57,1.73,1,2.81,1.28,1.07.28,2.19.42,3.33.42.78,0,1.61-.06,2.5-.19.89-.13,1.72-.38,2.5-.75s1.43-.88,1.95-1.53c.52-.65.78-1.47.78-2.47,0-1.07-.34-1.94-1.03-2.61-.69-.67-1.58-1.22-2.69-1.67s-2.37-.83-3.78-1.17-2.83-.7-4.28-1.11c-1.48-.37-2.93-.82-4.33-1.36-1.41-.54-2.67-1.23-3.78-2.08-1.11-.85-2.01-1.92-2.69-3.2s-1.03-2.82-1.03-4.64c0-2.04.44-3.81,1.31-5.31.87-1.5,2.01-2.75,3.42-3.75,1.41-1,3-1.74,4.78-2.22,1.78-.48,3.56-.72,5.33-.72,2.07,0,4.07.23,5.97.69,1.91.46,3.6,1.21,5.08,2.25,1.48,1.04,2.66,2.36,3.53,3.97.87,1.61,1.31,3.57,1.31,5.86h-8.45c-.08-1.18-.32-2.17-.75-2.95s-.99-1.39-1.69-1.83c-.7-.44-1.51-.76-2.42-.95s-1.9-.28-2.97-.28c-.7,0-1.41.07-2.11.22-.7.15-1.34.41-1.92.78-.57.37-1.05.83-1.42,1.39s-.55,1.26-.55,2.11c0,.78.15,1.41.44,1.89.3.48.88.93,1.75,1.33.87.41,2.07.82,3.61,1.22,1.54.41,3.55.93,6.03,1.56.74.15,1.77.42,3.08.81,1.31.39,2.62,1.01,3.92,1.86,1.3.85,2.42,1.99,3.36,3.42s1.42,3.25,1.42,5.47c0,1.81-.35,3.5-1.06,5.06-.71,1.56-1.75,2.9-3.14,4.03-1.39,1.13-3.11,2.01-5.17,2.64-2.06.63-4.44.95-7.14.95-2.19,0-4.31-.27-6.36-.81s-3.87-1.38-5.44-2.53c-1.58-1.15-2.83-2.61-3.75-4.39-.93-1.78-1.37-3.89-1.33-6.33h8.45c0,1.33.24,2.46.72,3.39Z" fill="#7b4dff"/>
    <path d="M1101.88,93.87c.7-1.87,1.7-3.46,3-4.78,1.3-1.31,2.85-2.33,4.67-3.06s3.85-1.08,6.11-1.08,4.3.36,6.14,1.08,3.4,1.74,4.7,3.06c1.3,1.31,2.3,2.91,3,4.78.7,1.87,1.06,3.96,1.06,6.25s-.35,4.37-1.06,6.22c-.7,1.85-1.7,3.44-3,4.75-1.3,1.31-2.86,2.32-4.7,3.03-1.83.7-3.88,1.06-6.14,1.06s-4.3-.35-6.11-1.06c-1.81-.7-3.37-1.71-4.67-3.03-1.3-1.31-2.3-2.9-3-4.75s-1.06-3.93-1.06-6.22.35-4.38,1.06-6.25ZM1109.05,103.48c.22,1.09.6,2.08,1.14,2.95.54.87,1.25,1.57,2.14,2.08s2,.78,3.33.78,2.45-.26,3.36-.78c.91-.52,1.63-1.21,2.17-2.08.54-.87.92-1.85,1.14-2.95.22-1.09.33-2.21.33-3.36s-.11-2.28-.33-3.39c-.22-1.11-.6-2.09-1.14-2.94s-1.26-1.55-2.17-2.08c-.91-.54-2.03-.8-3.36-.8s-2.44.27-3.33.8c-.89.54-1.6,1.23-2.14,2.08s-.92,1.83-1.14,2.94c-.22,1.11-.33,2.24-.33,3.39s.11,2.27.33,3.36Z" fill="#7b4dff"/>
    <path d="M1143.77,74.78v39.67h-7.89v-39.67h7.89Z" fill="#7b4dff"/>
    <path d="M1150.22,81.28v-6.5h7.89v6.5h-7.89ZM1158.11,85.73v28.73h-7.89v-28.73h7.89Z" fill="#7b4dff"/>
    <path d="M1184.72,110.79c-.93,1.56-2.14,2.68-3.64,3.36-1.5.69-3.2,1.03-5.08,1.03-2.15,0-4.04-.42-5.67-1.25-1.63-.83-2.97-1.96-4.03-3.39-1.06-1.43-1.85-3.06-2.39-4.92s-.8-3.78-.8-5.78.27-3.79.8-5.58,1.33-3.38,2.39-4.75c1.06-1.37,2.38-2.47,3.97-3.31,1.59-.83,3.45-1.25,5.56-1.25,1.7,0,3.32.36,4.86,1.08s2.75,1.79,3.64,3.2h.11v-14.45h7.89v39.67h-7.5v-3.67h-.11ZM1184.39,96.59c-.22-1.09-.6-2.06-1.14-2.89-.54-.83-1.23-1.51-2.08-2.03-.85-.52-1.93-.78-3.22-.78s-2.39.26-3.28.78c-.89.52-1.6,1.2-2.14,2.06s-.93,1.82-1.17,2.92-.36,2.23-.36,3.42c0,1.11.13,2.22.39,3.33s.68,2.1,1.25,2.97c.57.87,1.3,1.58,2.17,2.11.87.54,1.92.81,3.14.81,1.3,0,2.38-.26,3.25-.78.87-.52,1.56-1.21,2.08-2.08.52-.87.89-1.86,1.11-2.97.22-1.11.33-2.26.33-3.45s-.11-2.32-.33-3.42Z" fill="#7b4dff"/>
  </g>
  <path id="m" d="M783.64,359.5v-33.31h3.01v-4.54c0-2.5,2.04-4.54,4.54-4.54h15.03c2.49,0,4.52,2.02,4.52,4.52v4.57h3.01v33.31h-30.11ZM792.67,326.2h12.04v-3.03h-12.04v3.03ZM779.12,359.5c-2.49,0-4.52-2.02-4.52-4.52v-24.28c0-2.49,2.02-4.52,4.52-4.52h1.51v33.31h-1.51ZM816.76,359.5v-33.31h1.51c2.49,0,4.52,2.02,4.52,4.52v24.28c0,2.49-2.02,4.52-4.52,4.52h-1.51ZM797.2,350.42h3c.83,0,1.51-.67,1.51-1.51v-4.55h4.52c.83,0,1.51-.67,1.51-1.51v-3.04c0-.83-.68-1.51-1.51-1.51h-4.51v-4.54c0-.83-.68-1.51-1.51-1.51h-3c-.83,0-1.51.67-1.51,1.51v4.55h-4.52c-.83,0-1.51.67-1.51,1.51v3.04c0,.83.68,1.51,1.51,1.51h4.51v4.54c0,.84.68,1.51,1.51,1.51Z" fill="#7b4dff"/>
  <path id="m-2" data-name="m" d="M828.67,417.66c6.98,0,12.63-5.65,12.63-12.63v-109.46c0-6.98-5.65-12.63-12.63-12.63h-58.94c-6.98,0-12.63,5.65-12.63,12.63v109.46c0,6.98,5.65,12.63,12.63,12.63h58.94ZM828.36,408.11h-58.34c-.91,0-1.65-.74-1.65-1.65v-112.31c0-.91.74-1.65,1.65-1.65h58.34c.92,0,1.67.75,1.67,1.67v112.28c0,.92-.75,1.67-1.67,1.67ZM798.11,400.76c5.52.69,10.13-3.93,9.44-9.44-.47-3.74-3.52-6.79-7.26-7.26-5.52-.69-10.13,3.93-9.44,9.44.47,3.74,3.52,6.79,7.26,7.26Z" fill="#7b4dff"/>
  <path id="m-3" data-name="m" d="M1370.94,215.29c6.98,0,12.63-5.65,12.63-12.63v-109.46c0-6.98-5.65-12.63-12.63-12.63h-58.94c-6.98,0-12.63,5.65-12.63,12.63v109.46c0,6.98,5.65,12.63,12.63,12.63h58.94ZM1370.63,205.74h-58.34c-.91,0-1.65-.74-1.65-1.65v-112.31c0-.91.74-1.65,1.65-1.65h58.34c.92,0,1.67.75,1.67,1.67v112.28c0,.92-.75,1.67-1.67,1.67ZM1340.37,198.38c5.52.69,10.13-3.93,9.44-9.44-.47-3.74-3.52-6.79-7.26-7.26-5.52-.69-10.13,3.93-9.44,9.44.47,3.74,3.52,6.79,7.26,7.26Z" fill="#7b4dff"/>
  <path id="c" d="M1356.16,164.89c.55,0,1.07-.44,1.07-1.07v-4.65h2.86c3.16,0,5.72-2.57,5.72-5.72v-14.31c0-3.16-2.57-5.72-5.72-5.72h-8.59v-8.59c0-3.16-2.57-5.72-5.72-5.72h-25.76c-3.16,0-5.72,2.57-5.72,5.72v14.31c0,3.16,2.57,5.72,5.72,5.72h2.86v4.65c0,.64.52,1.07,1.07,1.07.21,0,.44-.06.64-.21l6.88-3.89v6.97c0,3.16,2.57,5.72,5.72,5.72h8.59l9.74,5.51c.2.14.42.21.64.21ZM1327.18,143.97v-3.41h-7.16c-.79,0-1.43-.64-1.43-1.43v-14.31c0-.79.64-1.43,1.43-1.43h25.76c.79,0,1.43.64,1.43,1.43v14.31c0,.79-.64,1.43-1.43,1.43h-12.58l-.98.55-5.04,2.85ZM1352.94,158.28l-5.04-2.85-.98-.55h-9.71c-.79,0-1.43-.64-1.43-1.43v-8.59h10.02c3.16,0,5.72-2.57,5.72-5.72v-1.43h8.59c.79,0,1.43.64,1.43,1.43v14.31c0,.79-.64,1.43-1.43,1.43h-7.16v3.41Z" fill="#7b4dff"/>
  <line x1="845.52" y1="377.6" x2="1304.73" y2="115.58" fill="none" stroke="#7b4dff" stroke-dasharray="0 14.7" stroke-linecap="round" stroke-linejoin="round" stroke-width="7.35"/>
  <line x1="123.6" y1="321.74" x2="274.3" y2="240.59" fill="none" stroke="#7b4dff" stroke-dasharray="0 14.7" stroke-linecap="round" stroke-linejoin="round" stroke-width="7.35"/>
  <line x1="123.6" y1="174.03" x2="272.51" y2="238.8" fill="none" stroke="#7b4dff" stroke-dasharray="0 14.7" stroke-linecap="round" stroke-linejoin="round" stroke-width="7.35"/>
  <line x1="582.14" y1="321.74" x2="431.45" y2="240.59" fill="none" stroke="#7b4dff" stroke-dasharray="0 14.7" stroke-linecap="round" stroke-linejoin="round" stroke-width="7.35"/>
  <line x1="582.14" y1="174.03" x2="433.24" y2="238.8" fill="none" stroke="#7b4dff" stroke-dasharray="0 14.7" stroke-linecap="round" stroke-linejoin="round" stroke-width="7.35"/>
  <g id="humaaan-3-2" data-name="humaaan-3">
    <g id="Mask">
      <g id="path-4-link">
        <g id="path-4">
          <ellipse cx="350.93" cy="245.02" rx="66.14" ry="65.22"/>
        </g>
      </g>
      <g id="Oval">
        <g id="path-7">
          <ellipse cx="350.93" cy="245.02" rx="68.89" ry="67.98" fill="#bfb0ff"/>
          <path d="M350.93,195.35c-27.9,0-50.59,22.28-50.59,49.67s22.69,49.67,50.59,49.67,50.59-22.28,50.59-49.67-22.69-49.67-50.59-49.67Z" fill="#fff"/>
        </g>
        <g id="path-7-2" data-name="path-7">
          <path d="M350.93,323.56c-43.81,0-79.46-35.23-79.46-78.54s35.64-78.54,79.46-78.54,79.46,35.23,79.46,78.54-35.64,78.54-79.46,78.54ZM350.93,187.61c-32.16,0-58.33,25.75-58.33,57.41s26.17,57.41,58.33,57.41,58.33-25.76,58.33-57.41-26.17-57.41-58.33-57.41Z" fill="#7b4dff"/>
        </g>
      </g>
    </g>
    <g id="Clipped-2" data-name="Clipped">
      <g id="Group-2" data-name="Group">
        <g id="Mask-2" data-name="Mask">
          <ellipse id="path-8" cx="350.93" cy="245.02" rx="68.89" ry="67.98" fill="#fff"/>
        </g>
        <g mask="url(#mask-1)">
          <g>
            <g id="Head_Front_Short-Beard" data-name="Head/Front/Short-Beard">
              <g id="Head">
                <g id="Path">
                  <path d="M327.86,200.13c-8.01,12.22-10.04,44.83-1.33,47.9,3.47,1.22,11.23-.35,19.34-4.31l-7.82,33.72,28.54,2.5-5.82-46.59c6.04-5.94,10.44-13.49,10.59-22.36.44-25.57-35.48-23.08-43.5-10.86Z" fill="#b28b67"/>
                </g>
              </g>
              <g id="Hair">
                <path d="M344.42,189c-8.07-.01-15.43,1.8-17.59,3.07-.66,7.57.61,9.95,13.18,10.84,2.94,1.9,5.07,4.9,7.21,8.79-2.42,15.1-5.98,22.45-10.67,22.04-7.03-.62-12.61-5.59-15.69-5.86-2.25-.2-1.99,2.66-.68,4.87,1.08,1.83,6.93,4.01,6.69,6.67-.23,2.67-4.79.19-4.92,1.77-.23,2.61-1.49,7.46,3.05,7.86,4.6.4,17.93-.12,20.79-6.74,1.84-4.27,3.58-13.3,5.22-27.09.28-.01.57,0,.86.02,3.94.34,6.86,3.81,6.51,7.75-.17,2-1.16,3.73-2.6,4.91,1.45,2.47,3.09,5.06,4.99,7.76,8.38-4.07,15.52-17.53,8.9-31.63-1.58-6.76-6.14-10.7-11.76-12.83-4.49-2.36-9.31-3-13.5-2.19Z" fill="#7b4dff"/>
              </g>
            </g>
            <g id="Body_Hoodie" data-name="Body/Hoodie">
              <g id="Skin">
                <path d="M421.6,366.53l-24.95.1c15.41,49.65,23.72,76,24.95,79.03,2.76,6.84-3.08,17.25-5.58,22.84,8.14,3.64,7.27-9.83,17.55-5.06,9.38,4.35,16.51,12.25,27.34,5.57,1.33-.82,2.79-3.91-.73-6.32-8.78-6.01-21.44-16.54-23.15-20-2.33-4.72-7.47-30.11-15.41-76.16h0ZM275.38,365.57l-38.08,27.92c-10.33,2.78-18.96,6.24-25.89,10.39-1.64,1.49-3.62,4.51,3.17,3.98,6.79-.52,13.95-.76,14.89,1.55.94,2.31-3.17,5.08-1.28,8.2,1.26,2.08,7.23-3.13,17.89-15.64l37.71-15.61-8.42-20.78Z" fill="#b28b67"/>
              </g>
              <g id="Coat-Back">
                <path d="M350.7,262.01l-10.32-1.77c-38.3,33.04-54.04,96.5-100.99,130.13l11.3,13.99c81.45-10.07,101.64-87.48,100.01-142.34Z" fill="#7b4dff"/>
              </g>
              <g id="Shirt">
                <path d="M395.7,391.54h-91.35c-4.17,0-3.39-6.02-2.78-9.05,6.96-35.05,34.15-72.82,34.15-122.71l26.35-4.13c21.79,35,29.33,78.08,33.63,135.89Z" fill="#7b4dff"/>
              </g>
              <g id="Coat-Front">
                <path d="M364.05,255.65c-.89,0-1.71.06-2.45.17l-8.25.47c-23.67,80.08-30.19,133.51-19.58,160.28h71.9c4.26,9.92,8.34,18.26,12.23,25.03h19.59c1.84-59.52-12.33-110.04-42.52-151.55,3.83-1.1,6.86-3.66,9.09-7.68,9.63-17.35,6.15-26.9-4.14-30.04-10.29-3.14-19.47,3.33-35.87,3.33Z" fill="#7b4dff"/>
              </g>
              <g id="Shade" opacity=".1">
                <path d="M378.99,416.57h26.68c-4.97-11.57-10.19-25.28-15.66-41.13-2.26,18.89-5.94,32.6-11.03,41.13Z"/>
              </g>
            </g>
          </g>
        </g>
      </g>
    </g>
  </g>
  <g>
    <line x1="53.15" y1="115.6" x2="158.8" y2="180.67" fill="none" stroke="#ffab50" stroke-dasharray="0 5.67" stroke-linecap="round" stroke-linejoin="round" stroke-width="2.83"/>
    <line x1="163.45" y1="117.63" x2="58.67" y2="178.93" fill="none" stroke="#ffab50" stroke-dasharray="0 5.67" stroke-linecap="round" stroke-linejoin="round" stroke-width="2.83"/>
    <line x1="107.48" y1="81.76" x2="107.48" y2="207.27" fill="none" stroke="#ffab50" stroke-dasharray="0 5.67" stroke-linecap="round" stroke-linejoin="round" stroke-width="2.83"/>
    <g>
      <g id="Oval-Copy-4">
        <path d="M107.22,103.67c-11.64,0-21.1-9.47-21.1-21.1s9.47-21.1,21.1-21.1,21.1,9.47,21.1,21.1-9.47,21.1-21.1,21.1Z" fill="#b094ff" fill-rule="evenodd"/>
        <path d="M107.22,62.89c10.87,0,19.68,8.81,19.68,19.68s-8.81,19.68-19.68,19.68-19.68-8.81-19.68-19.68,8.81-19.68,19.68-19.68M107.22,60.06c-12.42,0-22.52,10.1-22.52,22.52s10.1,22.52,22.52,22.52,22.52-10.1,22.52-22.52-10.1-22.52-22.52-22.52h0Z" fill="#fff"/>
      </g>
      <path id="h" d="M108.04,86.54l1.96-3.92.87,1.74h5.21c.95-1.1,1.49-2.48,1.49-3.95,0-3.91-3.4-6.16-6.21-6.16-1.44,0-2.8.49-3.9,1.38-1.09-.89-2.46-1.38-3.9-1.38-2.81,0-6.21,2.25-6.21,6.16,0,1.47.54,2.85,1.49,3.95h4.61l1.18-2.83,2.25,4.99c.22.49.9.5,1.14.02ZM107.51,84.79l-2.3-5.1c-.22-.51-.95-.49-1.16.02l-1.42,3.4h-2.36c-2.32-2.74-.28-6.95,3.31-6.95,1.22,0,2.01.24,3.9,2.11,2.02-1.99,2.73-2.11,3.9-2.11,3.6,0,5.63,4.2,3.31,6.95h-3.03l-1.09-2.18c-.23-.47-.9-.47-1.13,0l-1.93,3.87ZM109.22,91.22l5.66-5.6h-2.69l-4.3,4.25c-.23.23-.6.23-.83,0l-4.3-4.25h-2.69l5.66,5.6c.97.96,2.52.96,3.49,0Z" fill="#fff"/>
    </g>
    <g>
      <g id="Oval-Copy-4-2" data-name="Oval-Copy-4">
        <path d="M107.12,229.97c-11.64,0-21.1-9.47-21.1-21.1s9.47-21.1,21.1-21.1,21.1,9.47,21.1,21.1-9.47,21.1-21.1,21.1Z" fill="#b094ff" fill-rule="evenodd"/>
        <path d="M107.12,189.19c10.87,0,19.68,8.81,19.68,19.68s-8.81,19.68-19.68,19.68-19.68-8.81-19.68-19.68,8.81-19.68,19.68-19.68M107.12,186.35c-12.42,0-22.52,10.1-22.52,22.52s10.1,22.52,22.52,22.52,22.52-10.1,22.52-22.52-10.1-22.52-22.52-22.52h0Z" fill="#fff"/>
      </g>
      <path id="r" d="M109.56,201.66c1.39,0,2.52-1.13,2.52-2.52s-1.13-2.52-2.52-2.52-2.52,1.13-2.52,2.52,1.13,2.52,2.52,2.52ZM108.3,223.52c.55,0,1.05-.36,1.21-.91l1.75-5.49c.36-1.27-.17-2.64-1.31-3.33l-2.72-1.64,2.2-5.51c.14.19.27.4.34.63l.73,2.41c.38,1.24,1.51,2.08,2.81,2.09h2.54s0,0,0,0c.7,0,1.26-.56,1.26-1.26,0-.7-.56-1.26-1.26-1.27h-2.54c-.19,0-.35-.13-.4-.31l-.73-2.41c-.48-1.59-1.79-2.8-3.41-3.17l-4.11-.93c-1.35-.31-2.76,0-3.85.85l-2.54,1.96c-.55.43-.65,1.22-.23,1.77.42.55,1.22.65,1.77.23l2.54-1.96c.5-.39,1.14-.52,1.75-.39l.78.18-1.85,4.59c-.54,1.35-.04,2.87,1.21,3.62l4.4,2.66c.11.07.2.23.2.36,0,.03,0,.08-.02.12l-1.75,5.49c-.19.67.2,1.37.87,1.56.12.03.23.05.35.05ZM100.46,218.47c1.18,0,2.24-.7,2.71-1.78l.71-1.66-.5-.3c-.62-.38-1.12-.89-1.49-1.46l-1.04,2.43c-.07.16-.22.26-.39.26h-3.94c-.7,0-1.26.56-1.26,1.26s.57,1.26,1.26,1.26h3.94Z" fill="#fff"/>
    </g>
    <g>
      <g id="Oval-2" data-name="Oval">
        <path d="M159.26,140.8c-11.64,0-21.1-9.47-21.1-21.1s9.47-21.1,21.1-21.1,21.1,9.47,21.1,21.1-9.47,21.1-21.1,21.1Z" fill="#b094ff" fill-rule="evenodd"/>
        <path d="M159.26,100.01c10.87,0,19.68,8.81,19.68,19.68s-8.81,19.68-19.68,19.68-19.68-8.81-19.68-19.68,8.81-19.68,19.68-19.68M159.26,97.18c-12.42,0-22.52,10.1-22.52,22.52s10.1,22.52,22.52,22.52,22.52-10.1,22.52-22.52-10.1-22.52-22.52-22.52h0Z" fill="#fff"/>
      </g>
      <path id="i" d="M168.53,124.12c1.05,0,1.89-.85,1.89-1.89v-10.11c0-1.05-.85-1.89-1.89-1.89h-15.16c-1.05,0-1.89.85-1.89,1.89v10.11c0,1.05.85,1.89,1.89,1.89h15.16ZM168.29,122.22h-14.69c-.13,0-.24-.11-.24-.24v-9.63c0-.13.11-.24.24-.24h14.69c.13,0,.24.11.24.24v9.63c0,.13-.11.24-.24.24ZM156.52,116.22c.87,0,1.58-.71,1.58-1.58s-.71-1.58-1.58-1.58-1.58.71-1.58,1.58.71,1.58,1.58,1.58ZM164.74,127.91c1.05,0,1.89-.85,1.89-1.89v-.63h-1.89v.39c0,.13-.11.24-.24.24h-14.69c-.13,0-.24-.11-.24-.24v-9.63c0-.13.11-.24.24-.24h.39v-1.89h-.63c-1.05,0-1.89.85-1.89,1.89v10.11c0,1.05.85,1.89,1.89,1.89h15.16ZM166.63,120.33v-3.16l-2.82-2.82c-.19-.19-.49-.19-.67,0l-4.09,4.09-1.56-1.56c-.19-.19-.49-.19-.67,0l-1.56,1.56v1.89h11.37Z" fill="#fff"/>
    </g>
    <g>
      <g id="Oval-Copy-3">
        <path d="M157.17,197.99c-11.64,0-21.1-9.47-21.1-21.1s9.47-21.1,21.1-21.1,21.1,9.47,21.1,21.1-9.47,21.1-21.1,21.1Z" fill="#b094ff" fill-rule="evenodd"/>
        <path d="M157.17,157.2c10.87,0,19.68,8.81,19.68,19.68s-8.81,19.68-19.68,19.68-19.68-8.81-19.68-19.68,8.81-19.68,19.68-19.68M157.17,154.37c-12.42,0-22.52,10.1-22.52,22.52s10.1,22.52,22.52,22.52,22.52-10.1,22.52-22.52-10.1-22.52-22.52-22.52h0Z" fill="#fff"/>
      </g>
      <path id="m-4" data-name="m" d="M149.96,186.36c1.95,0,3.54-1.23,3.75-2.81.03-.11.04-.22.04-.34,0,0,0,0,0-.01v-6.95l10.74-3.39v5.09c-.56-.27-1.2-.44-1.89-.44-2.09,0-3.79,1.41-3.79,3.16s1.7,3.16,3.79,3.16c1.95,0,3.54-1.23,3.75-2.81.02-.1.04-.21.04-.32v-.03h0s0,0,0,0v-13.26c0-.72-.59-1.26-1.26-1.26-.13,0-.25.02-.38.06l-12,3.79c-.52.17-.88.65-.88,1.2v9.28c-.56-.27-1.2-.44-1.89-.44-2.09,0-3.79,1.41-3.79,3.16s1.7,3.16,3.79,3.16ZM153.75,174.26v-2.6l10.74-3.39v2.6l-10.74,3.39ZM162.59,181.94c-1.12,0-1.89-.67-1.89-1.26s.78-1.26,1.89-1.26,1.89.67,1.89,1.26h0c0,.6-.78,1.26-1.89,1.26ZM149.96,184.46c-1.12,0-1.89-.67-1.89-1.26s.78-1.26,1.89-1.26,1.89.67,1.89,1.26-.78,1.26-1.89,1.26Z" fill="#fff"/>
    </g>
    <g>
      <g id="Oval-Copy">
        <path d="M59.3,199.4c-11.64,0-21.1-9.47-21.1-21.1s9.47-21.1,21.1-21.1,21.1,9.47,21.1,21.1-9.47,21.1-21.1,21.1Z" fill="#b094ff" fill-rule="evenodd"/>
        <path d="M59.3,158.62c10.87,0,19.68,8.81,19.68,19.68s-8.81,19.68-19.68,19.68-19.68-8.81-19.68-19.68,8.81-19.68,19.68-19.68M59.3,155.78c-12.42,0-22.52,10.1-22.52,22.52s10.1,22.52,22.52,22.52,22.52-10.1,22.52-22.52-10.1-22.52-22.52-22.52h0Z" fill="#fff"/>
      </g>
      <path id="f" d="M65.62,187.78c1.05,0,1.9-.85,1.9-1.89v-13.11c0-.5-.21-.99-.56-1.34l-3.31-3.31c-.36-.36-.84-.56-1.34-.56h-8.05c-1.05,0-1.89.85-1.89,1.9v16.42c0,1.05.85,1.89,1.89,1.89h11.37ZM65.62,185.88h-11.37v-16.42h6.32v4.11c0,.53.42.95.95.95h4.11v11.37ZM65.46,172.62h-3v-3l3,3ZM60.88,183.99c.17,0,.32-.14.32-.32v-2.21h2.21c.17,0,.32-.14.32-.32v-1.89c0-.17-.14-.32-.32-.32h-2.21v-2.21c0-.17-.14-.32-.32-.32h-1.89c-.17,0-.32.14-.32.32v2.21h-2.21c-.17,0-.32.14-.32.32v1.89c0,.17.14.32.32.32h2.21v2.21c0,.17.14.32.32.32h1.89Z" fill="#fff"/>
    </g>
    <g>
      <g id="Oval-Copy-5">
        <path d="M55.94,139.82c-11.64,0-21.1-9.47-21.1-21.1s9.47-21.1,21.1-21.1,21.1,9.47,21.1,21.1-9.47,21.1-21.1,21.1Z" fill="#b094ff" fill-rule="evenodd"/>
        <path d="M55.94,99.03c10.87,0,19.68,8.81,19.68,19.68s-8.81,19.68-19.68,19.68-19.68-8.81-19.68-19.68,8.81-19.68,19.68-19.68M55.94,96.2c-12.42,0-22.52,10.1-22.52,22.52s10.1,22.52,22.52,22.52,22.52-10.1,22.52-22.52-10.1-22.52-22.52-22.52h0Z" fill="#fff"/>
      </g>
      <path id="c-2" data-name="c" d="M62.27,127.4c.96,0,1.73-.78,1.73-1.73v-12.7c0-.96-.78-1.73-1.73-1.73h-1.73v-1.88c0-.24-.19-.43-.43-.43h-1.44c-.24,0-.43.19-.43.43v1.88h-4.62v-1.88c0-.24-.19-.43-.43-.43h-1.44c-.24,0-.43.19-.43.43v1.88h-1.73c-.96,0-1.73.78-1.73,1.73v12.7c0,.96.78,1.73,1.73,1.73h12.7ZM62.05,125.66h-12.27c-.12,0-.22-.1-.22-.22v-10.75h12.7v10.75c0,.12-.1.22-.22.22Z" fill="#fff"/>
    </g>
    <g>
      <rect x="94.56" y="120.62" width="26.04" height="46.59" fill="#fff"/>
      <path d="M119.26,170.06c2.64,0,4.79-2.14,4.79-4.79v-41.51c0-2.64-2.14-4.79-4.79-4.79h-22.35c-2.64,0-4.79,2.14-4.79,4.79v41.51c0,2.64,2.14,4.79,4.79,4.79h22.35ZM119.14,166.44h-22.12c-.35,0-.63-.28-.63-.63v-42.59c0-.34.28-.63.63-.63h22.12c.35,0,.63.28.63.63v42.58c0,.35-.28.63-.63.63ZM107.67,163.65c2.09.26,3.84-1.49,3.58-3.58-.18-1.42-1.34-2.58-2.75-2.75-2.09-.26-3.84,1.49-3.58,3.58.18,1.42,1.34,2.58,2.75,2.75Z" fill="#ffab50"/>
    </g>
  </g>
  <g>
    <line x1="543.68" y1="115.6" x2="649.33" y2="180.67" fill="none" stroke="#362b48" stroke-dasharray="0 5.67" stroke-linecap="round" stroke-linejoin="round" stroke-width="2.83"/>
    <line x1="653.97" y1="117.63" x2="549.2" y2="178.93" fill="none" stroke="#362b48" stroke-dasharray="0 5.67" stroke-linecap="round" stroke-linejoin="round" stroke-width="2.83"/>
    <line x1="598.01" y1="81.76" x2="598.01" y2="207.27" fill="none" stroke="#362b48" stroke-dasharray="0 5.67" stroke-linecap="round" stroke-linejoin="round" stroke-width="2.83"/>
    <g>
      <g id="Oval-Copy-4-3" data-name="Oval-Copy-4">
        <path d="M597.74,103.67c-11.64,0-21.1-9.47-21.1-21.1s9.47-21.1,21.1-21.1,21.1,9.47,21.1,21.1-9.47,21.1-21.1,21.1Z" fill="#b094ff" fill-rule="evenodd"/>
        <path d="M597.74,62.89c10.87,0,19.68,8.81,19.68,19.68s-8.81,19.68-19.68,19.68-19.68-8.81-19.68-19.68,8.81-19.68,19.68-19.68M597.74,60.06c-12.42,0-22.52,10.1-22.52,22.52s10.1,22.52,22.52,22.52,22.52-10.1,22.52-22.52-10.1-22.52-22.52-22.52h0Z" fill="#fff"/>
      </g>
      <path id="h-2" data-name="h" d="M598.57,86.54l1.96-3.92.87,1.74h5.21c.95-1.1,1.49-2.48,1.49-3.95,0-3.91-3.4-6.16-6.21-6.16-1.44,0-2.8.49-3.9,1.38-1.09-.89-2.46-1.38-3.9-1.38-2.81,0-6.21,2.25-6.21,6.16,0,1.47.54,2.85,1.49,3.95h4.61l1.18-2.83,2.25,4.99c.22.49.9.5,1.14.02ZM598.04,84.79l-2.3-5.1c-.22-.51-.95-.49-1.16.02l-1.42,3.4h-2.36c-2.32-2.74-.28-6.95,3.31-6.95,1.22,0,2.01.24,3.9,2.11,2.02-1.99,2.73-2.11,3.9-2.11,3.6,0,5.63,4.2,3.31,6.95h-3.03l-1.09-2.18c-.23-.47-.9-.47-1.13,0l-1.93,3.87ZM599.75,91.22l5.66-5.6h-2.69l-4.3,4.25c-.23.23-.6.23-.83,0l-4.3-4.25h-2.69l5.66,5.6c.97.96,2.52.96,3.49,0Z" fill="#fff"/>
    </g>
    <g>
      <g id="Oval-Copy-4-4" data-name="Oval-Copy-4">
        <path d="M597.65,229.97c-11.64,0-21.1-9.47-21.1-21.1s9.47-21.1,21.1-21.1,21.1,9.47,21.1,21.1-9.47,21.1-21.1,21.1Z" fill="#b094ff" fill-rule="evenodd"/>
        <path d="M597.65,189.19c10.87,0,19.68,8.81,19.68,19.68s-8.81,19.68-19.68,19.68-19.68-8.81-19.68-19.68,8.81-19.68,19.68-19.68M597.65,186.35c-12.42,0-22.52,10.1-22.52,22.52s10.1,22.52,22.52,22.52,22.52-10.1,22.52-22.52-10.1-22.52-22.52-22.52h0Z" fill="#fff"/>
      </g>
      <path id="r-2" data-name="r" d="M600.09,201.66c1.39,0,2.52-1.13,2.52-2.52s-1.13-2.52-2.52-2.52-2.52,1.13-2.52,2.52,1.13,2.52,2.52,2.52ZM598.83,223.52c.55,0,1.05-.36,1.21-.91l1.75-5.49c.36-1.27-.17-2.64-1.31-3.33l-2.72-1.64,2.2-5.51c.14.19.27.4.34.63l.73,2.41c.38,1.24,1.51,2.08,2.81,2.09h2.54s0,0,0,0c.7,0,1.26-.56,1.26-1.26,0-.7-.56-1.26-1.26-1.27h-2.54c-.19,0-.35-.13-.4-.31l-.73-2.41c-.48-1.59-1.79-2.8-3.41-3.17l-4.11-.93c-1.35-.31-2.76,0-3.85.85l-2.54,1.96c-.55.43-.65,1.22-.23,1.77.42.55,1.22.65,1.77.23l2.54-1.96c.5-.39,1.14-.52,1.75-.39l.78.18-1.85,4.59c-.54,1.35-.04,2.87,1.21,3.62l4.4,2.66c.11.07.2.23.2.36,0,.03,0,.08-.02.12l-1.75,5.49c-.19.67.2,1.37.87,1.56.12.03.23.05.35.05ZM590.99,218.47c1.18,0,2.24-.7,2.71-1.78l.71-1.66-.5-.3c-.62-.38-1.12-.89-1.49-1.46l-1.04,2.43c-.07.16-.22.26-.39.26h-3.94c-.7,0-1.26.56-1.26,1.26s.57,1.26,1.26,1.26h3.94Z" fill="#fff"/>
    </g>
    <g>
      <g id="Oval-3" data-name="Oval">
        <path d="M649.79,140.8c-11.64,0-21.1-9.47-21.1-21.1s9.47-21.1,21.1-21.1,21.1,9.47,21.1,21.1-9.47,21.1-21.1,21.1Z" fill="#b094ff" fill-rule="evenodd"/>
        <path d="M649.79,100.01c10.87,0,19.68,8.81,19.68,19.68s-8.81,19.68-19.68,19.68-19.68-8.81-19.68-19.68,8.81-19.68,19.68-19.68M649.79,97.18c-12.42,0-22.52,10.1-22.52,22.52s10.1,22.52,22.52,22.52,22.52-10.1,22.52-22.52-10.1-22.52-22.52-22.52h0Z" fill="#fff"/>
      </g>
      <path id="i-2" data-name="i" d="M659.05,124.12c1.05,0,1.89-.85,1.89-1.89v-10.11c0-1.05-.85-1.89-1.89-1.89h-15.16c-1.05,0-1.89.85-1.89,1.89v10.11c0,1.05.85,1.89,1.89,1.89h15.16ZM658.82,122.22h-14.69c-.13,0-.24-.11-.24-.24v-9.63c0-.13.11-.24.24-.24h14.69c.13,0,.24.11.24.24v9.63c0,.13-.11.24-.24.24ZM647.05,116.22c.87,0,1.58-.71,1.58-1.58s-.71-1.58-1.58-1.58-1.58.71-1.58,1.58.71,1.58,1.58,1.58ZM655.26,127.91c1.05,0,1.89-.85,1.89-1.89v-.63h-1.89v.39c0,.13-.11.24-.24.24h-14.69c-.13,0-.24-.11-.24-.24v-9.63c0-.13.11-.24.24-.24h.39v-1.89h-.63c-1.05,0-1.89.85-1.89,1.89v10.11c0,1.05.85,1.89,1.89,1.89h15.16ZM657.16,120.33v-3.16l-2.82-2.82c-.19-.19-.49-.19-.67,0l-4.09,4.09-1.56-1.56c-.19-.19-.49-.19-.67,0l-1.56,1.56v1.89h11.37Z" fill="#fff"/>
    </g>
    <g>
      <g id="Oval-Copy-3-2" data-name="Oval-Copy-3">
        <path d="M647.7,197.99c-11.64,0-21.1-9.47-21.1-21.1s9.47-21.1,21.1-21.1,21.1,9.47,21.1,21.1-9.47,21.1-21.1,21.1Z" fill="#b094ff" fill-rule="evenodd"/>
        <path d="M647.7,157.2c10.87,0,19.68,8.81,19.68,19.68s-8.81,19.68-19.68,19.68-19.68-8.81-19.68-19.68,8.81-19.68,19.68-19.68M647.7,154.37c-12.42,0-22.52,10.1-22.52,22.52s10.1,22.52,22.52,22.52,22.52-10.1,22.52-22.52-10.1-22.52-22.52-22.52h0Z" fill="#fff"/>
      </g>
      <path id="m-5" data-name="m" d="M640.49,186.36c1.95,0,3.54-1.23,3.75-2.81.03-.11.04-.22.04-.34,0,0,0,0,0-.01v-6.95l10.74-3.39v5.09c-.56-.27-1.2-.44-1.89-.44-2.09,0-3.79,1.41-3.79,3.16s1.7,3.16,3.79,3.16c1.95,0,3.54-1.23,3.75-2.81.02-.1.04-.21.04-.32v-.03h0s0,0,0,0v-13.26c0-.72-.59-1.26-1.26-1.26-.13,0-.25.02-.38.06l-12,3.79c-.52.17-.88.65-.88,1.2v9.28c-.56-.27-1.2-.44-1.89-.44-2.09,0-3.79,1.41-3.79,3.16s1.7,3.16,3.79,3.16ZM644.28,174.26v-2.6l10.74-3.39v2.6l-10.74,3.39ZM653.12,181.94c-1.12,0-1.89-.67-1.89-1.26s.78-1.26,1.89-1.26,1.89.67,1.89,1.26h0c0,.6-.78,1.26-1.89,1.26ZM640.49,184.46c-1.12,0-1.89-.67-1.89-1.26s.78-1.26,1.89-1.26,1.89.67,1.89,1.26-.78,1.26-1.89,1.26Z" fill="#fff"/>
    </g>
    <g>
      <g id="Oval-Copy-2" data-name="Oval-Copy">
        <path d="M549.83,199.4c-11.64,0-21.1-9.47-21.1-21.1s9.47-21.1,21.1-21.1,21.1,9.47,21.1,21.1-9.47,21.1-21.1,21.1Z" fill="#b094ff" fill-rule="evenodd"/>
        <path d="M549.83,158.62c10.87,0,19.68,8.81,19.68,19.68s-8.81,19.68-19.68,19.68-19.68-8.81-19.68-19.68,8.81-19.68,19.68-19.68M549.83,155.78c-12.42,0-22.52,10.1-22.52,22.52s10.1,22.52,22.52,22.52,22.52-10.1,22.52-22.52-10.1-22.52-22.52-22.52h0Z" fill="#fff"/>
      </g>
      <path id="f-2" data-name="f" d="M556.14,187.78c1.05,0,1.9-.85,1.9-1.89v-13.11c0-.5-.21-.99-.56-1.34l-3.31-3.31c-.36-.36-.84-.56-1.34-.56h-8.05c-1.05,0-1.89.85-1.89,1.9v16.42c0,1.05.85,1.89,1.89,1.89h11.37ZM556.15,185.88h-11.37v-16.42h6.32v4.11c0,.53.42.95.95.95h4.11v11.37ZM555.99,172.62h-3v-3l3,3ZM551.41,183.99c.17,0,.32-.14.32-.32v-2.21h2.21c.17,0,.32-.14.32-.32v-1.89c0-.17-.14-.32-.32-.32h-2.21v-2.21c0-.17-.14-.32-.32-.32h-1.89c-.17,0-.32.14-.32.32v2.21h-2.21c-.17,0-.32.14-.32.32v1.89c0,.17.14.32.32.32h2.21v2.21c0,.17.14.32.32.32h1.89Z" fill="#fff"/>
    </g>
    <g>
      <g id="Oval-Copy-5-2" data-name="Oval-Copy-5">
        <path d="M546.46,139.82c-11.64,0-21.1-9.47-21.1-21.1s9.47-21.1,21.1-21.1,21.1,9.47,21.1,21.1-9.47,21.1-21.1,21.1Z" fill="#b094ff" fill-rule="evenodd"/>
        <path d="M546.46,99.03c10.87,0,19.68,8.81,19.68,19.68s-8.81,19.68-19.68,19.68-19.68-8.81-19.68-19.68,8.81-19.68,19.68-19.68M546.46,96.2c-12.42,0-22.52,10.1-22.52,22.52s10.1,22.52,22.52,22.52,22.52-10.1,22.52-22.52-10.1-22.52-22.52-22.52h0Z" fill="#fff"/>
      </g>
      <path id="c-3" data-name="c" d="M552.79,127.4c.96,0,1.73-.78,1.73-1.73v-12.7c0-.96-.78-1.73-1.73-1.73h-1.73v-1.88c0-.24-.19-.43-.43-.43h-1.44c-.24,0-.43.19-.43.43v1.88h-4.62v-1.88c0-.24-.19-.43-.43-.43h-1.44c-.24,0-.43.19-.43.43v1.88h-1.73c-.96,0-1.73.78-1.73,1.73v12.7c0,.96.78,1.73,1.73,1.73h12.7ZM552.58,125.66h-12.27c-.12,0-.22-.1-.22-.22v-10.75h12.7v10.75c0,.12-.1.22-.22.22Z" fill="#fff"/>
    </g>
    <g>
      <rect x="585.08" y="120.62" width="26.04" height="46.59" fill="#fff"/>
      <path d="M609.78,170.06c2.64,0,4.79-2.14,4.79-4.79v-41.51c0-2.64-2.14-4.79-4.79-4.79h-22.35c-2.64,0-4.79,2.14-4.79,4.79v41.51c0,2.64,2.14,4.79,4.79,4.79h22.35ZM609.67,166.44h-22.12c-.35,0-.63-.28-.63-.63v-42.59c0-.34.28-.63.63-.63h22.12c.35,0,.63.28.63.63v42.58c0,.35-.28.63-.63.63ZM598.19,163.65c2.09.26,3.84-1.49,3.58-3.58-.18-1.42-1.34-2.58-2.75-2.75-2.09-.26-3.84,1.49-3.58,3.58.18,1.42,1.34,2.58,2.75,2.75Z" fill="#362b48"/>
    </g>
  </g>
  <g>
    <line x1="53.15" y1="317.57" x2="158.8" y2="382.65" fill="none" stroke="#d4cde0" stroke-dasharray="0 5.67" stroke-linecap="round" stroke-linejoin="round" stroke-width="2.83"/>
    <line x1="163.45" y1="319.6" x2="58.67" y2="380.91" fill="none" stroke="#d4cde0" stroke-dasharray="0 5.67" stroke-linecap="round" stroke-linejoin="round" stroke-width="2.83"/>
    <line x1="107.48" y1="283.73" x2="107.48" y2="409.24" fill="none" stroke="#d4cde0" stroke-dasharray="0 5.67" stroke-linecap="round" stroke-linejoin="round" stroke-width="2.83"/>
    <g>
      <g id="Oval-Copy-4-5" data-name="Oval-Copy-4">
        <path d="M107.22,305.65c-11.64,0-21.1-9.47-21.1-21.1s9.47-21.1,21.1-21.1,21.1,9.47,21.1,21.1-9.47,21.1-21.1,21.1Z" fill="#b094ff" fill-rule="evenodd"/>
        <path d="M107.22,264.86c10.87,0,19.68,8.81,19.68,19.68s-8.81,19.68-19.68,19.68-19.68-8.81-19.68-19.68,8.81-19.68,19.68-19.68M107.22,262.03c-12.42,0-22.52,10.1-22.52,22.52s10.1,22.52,22.52,22.52,22.52-10.1,22.52-22.52-10.1-22.52-22.52-22.52h0Z" fill="#fff"/>
      </g>
      <path id="h-3" data-name="h" d="M108.04,288.51l1.96-3.92.87,1.74h5.21c.95-1.1,1.49-2.48,1.49-3.95,0-3.91-3.4-6.16-6.21-6.16-1.44,0-2.8.49-3.9,1.38-1.09-.89-2.46-1.38-3.9-1.38-2.81,0-6.21,2.25-6.21,6.16,0,1.47.54,2.85,1.49,3.95h4.61l1.18-2.83,2.25,4.99c.22.49.9.5,1.14.02ZM107.51,286.76l-2.3-5.1c-.22-.51-.95-.49-1.16.02l-1.42,3.4h-2.36c-2.32-2.74-.28-6.95,3.31-6.95,1.22,0,2.01.24,3.9,2.11,2.02-1.99,2.73-2.11,3.9-2.11,3.6,0,5.63,4.2,3.31,6.95h-3.03l-1.09-2.18c-.23-.47-.9-.47-1.13,0l-1.93,3.87ZM109.22,293.2l5.66-5.6h-2.69l-4.3,4.25c-.23.23-.6.23-.83,0l-4.3-4.25h-2.69l5.66,5.6c.97.96,2.52.96,3.49,0Z" fill="#fff"/>
    </g>
    <g>
      <g id="Oval-Copy-4-6" data-name="Oval-Copy-4">
        <path d="M107.12,431.94c-11.64,0-21.1-9.47-21.1-21.1s9.47-21.1,21.1-21.1,21.1,9.47,21.1,21.1-9.47,21.1-21.1,21.1Z" fill="#b094ff" fill-rule="evenodd"/>
        <path d="M107.12,391.16c10.87,0,19.68,8.81,19.68,19.68s-8.81,19.68-19.68,19.68-19.68-8.81-19.68-19.68,8.81-19.68,19.68-19.68M107.12,388.32c-12.42,0-22.52,10.1-22.52,22.52s10.1,22.52,22.52,22.52,22.52-10.1,22.52-22.52-10.1-22.52-22.52-22.52h0Z" fill="#fff"/>
      </g>
      <path id="r-3" data-name="r" d="M109.56,403.63c1.39,0,2.52-1.13,2.52-2.52s-1.13-2.52-2.52-2.52-2.52,1.13-2.52,2.52,1.13,2.52,2.52,2.52ZM108.3,425.49c.55,0,1.05-.36,1.21-.91l1.75-5.49c.36-1.27-.17-2.64-1.31-3.33l-2.72-1.64,2.2-5.51c.14.19.27.4.34.63l.73,2.41c.38,1.24,1.51,2.08,2.81,2.09h2.54s0,0,0,0c.7,0,1.26-.56,1.26-1.26,0-.7-.56-1.26-1.26-1.27h-2.54c-.19,0-.35-.13-.4-.31l-.73-2.41c-.48-1.59-1.79-2.8-3.41-3.17l-4.11-.93c-1.35-.31-2.76,0-3.85.85l-2.54,1.96c-.55.43-.65,1.22-.23,1.77.42.55,1.22.65,1.77.23l2.54-1.96c.5-.39,1.14-.52,1.75-.39l.78.18-1.85,4.59c-.54,1.35-.04,2.87,1.21,3.62l4.4,2.66c.11.07.2.23.2.36,0,.03,0,.08-.02.12l-1.75,5.49c-.19.67.2,1.37.87,1.56.12.03.23.05.35.05ZM100.46,420.45c1.18,0,2.24-.7,2.71-1.78l.71-1.66-.5-.3c-.62-.38-1.12-.89-1.49-1.46l-1.04,2.43c-.07.16-.22.26-.39.26h-3.94c-.7,0-1.26.56-1.26,1.26s.57,1.26,1.26,1.26h3.94Z" fill="#fff"/>
    </g>
    <g>
      <g id="Oval-4" data-name="Oval">
        <path d="M159.26,342.77c-11.64,0-21.1-9.47-21.1-21.1s9.47-21.1,21.1-21.1,21.1,9.47,21.1,21.1-9.47,21.1-21.1,21.1Z" fill="#b094ff" fill-rule="evenodd"/>
        <path d="M159.26,301.99c10.87,0,19.68,8.81,19.68,19.68s-8.81,19.68-19.68,19.68-19.68-8.81-19.68-19.68,8.81-19.68,19.68-19.68M159.26,299.15c-12.42,0-22.52,10.1-22.52,22.52s10.1,22.52,22.52,22.52,22.52-10.1,22.52-22.52-10.1-22.52-22.52-22.52h0Z" fill="#fff"/>
      </g>
      <path id="i-3" data-name="i" d="M168.53,326.09c1.05,0,1.89-.85,1.89-1.89v-10.11c0-1.05-.85-1.89-1.89-1.89h-15.16c-1.05,0-1.89.85-1.89,1.89v10.11c0,1.05.85,1.89,1.89,1.89h15.16ZM168.29,324.19h-14.69c-.13,0-.24-.11-.24-.24v-9.63c0-.13.11-.24.24-.24h14.69c.13,0,.24.11.24.24v9.63c0,.13-.11.24-.24.24ZM156.52,318.19c.87,0,1.58-.71,1.58-1.58s-.71-1.58-1.58-1.58-1.58.71-1.58,1.58.71,1.58,1.58,1.58ZM164.74,329.88c1.05,0,1.89-.85,1.89-1.89v-.63h-1.89v.39c0,.13-.11.24-.24.24h-14.69c-.13,0-.24-.11-.24-.24v-9.63c0-.13.11-.24.24-.24h.39v-1.89h-.63c-1.05,0-1.89.85-1.89,1.89v10.11c0,1.05.85,1.89,1.89,1.89h15.16ZM166.63,322.3v-3.16l-2.82-2.82c-.19-.19-.49-.19-.67,0l-4.09,4.09-1.56-1.56c-.19-.19-.49-.19-.67,0l-1.56,1.56v1.89h11.37Z" fill="#fff"/>
    </g>
    <g>
      <g id="Oval-Copy-3-3" data-name="Oval-Copy-3">
        <path d="M157.17,399.96c-11.64,0-21.1-9.47-21.1-21.1s9.47-21.1,21.1-21.1,21.1,9.47,21.1,21.1-9.47,21.1-21.1,21.1Z" fill="#b094ff" fill-rule="evenodd"/>
        <path d="M157.17,359.17c10.87,0,19.68,8.81,19.68,19.68s-8.81,19.68-19.68,19.68-19.68-8.81-19.68-19.68,8.81-19.68,19.68-19.68M157.17,356.34c-12.42,0-22.52,10.1-22.52,22.52s10.1,22.52,22.52,22.52,22.52-10.1,22.52-22.52-10.1-22.52-22.52-22.52h0Z" fill="#fff"/>
      </g>
      <path id="m-6" data-name="m" d="M149.96,388.33c1.95,0,3.54-1.23,3.75-2.81.03-.11.04-.22.04-.34,0,0,0,0,0-.01v-6.95l10.74-3.39v5.09c-.56-.27-1.2-.44-1.89-.44-2.09,0-3.79,1.41-3.79,3.16s1.7,3.16,3.79,3.16c1.95,0,3.54-1.23,3.75-2.81.02-.1.04-.21.04-.32v-.03h0s0,0,0,0v-13.26c0-.72-.59-1.26-1.26-1.26-.13,0-.25.02-.38.06l-12,3.79c-.52.17-.88.65-.88,1.2v9.28c-.56-.27-1.2-.44-1.89-.44-2.09,0-3.79,1.41-3.79,3.16s1.7,3.16,3.79,3.16ZM153.75,376.24v-2.6l10.74-3.39v2.6l-10.74,3.39ZM162.59,383.91c-1.12,0-1.89-.67-1.89-1.26s.78-1.26,1.89-1.26,1.89.67,1.89,1.26h0c0,.6-.78,1.26-1.89,1.26ZM149.96,386.44c-1.12,0-1.89-.67-1.89-1.26s.78-1.26,1.89-1.26,1.89.67,1.89,1.26-.78,1.26-1.89,1.26Z" fill="#fff"/>
    </g>
    <g>
      <g id="Oval-Copy-3" data-name="Oval-Copy">
        <path d="M59.3,401.38c-11.64,0-21.1-9.47-21.1-21.1s9.47-21.1,21.1-21.1,21.1,9.47,21.1,21.1-9.47,21.1-21.1,21.1Z" fill="#b094ff" fill-rule="evenodd"/>
        <path d="M59.3,360.59c10.87,0,19.68,8.81,19.68,19.68s-8.81,19.68-19.68,19.68-19.68-8.81-19.68-19.68,8.81-19.68,19.68-19.68M59.3,357.76c-12.42,0-22.52,10.1-22.52,22.52s10.1,22.52,22.52,22.52,22.52-10.1,22.52-22.52-10.1-22.52-22.52-22.52h0Z" fill="#fff"/>
      </g>
      <path id="f-3" data-name="f" d="M65.62,389.75c1.05,0,1.9-.85,1.9-1.89v-13.11c0-.5-.21-.99-.56-1.34l-3.31-3.31c-.36-.36-.84-.56-1.34-.56h-8.05c-1.05,0-1.89.85-1.89,1.9v16.42c0,1.05.85,1.89,1.89,1.89h11.37ZM65.62,387.85h-11.37v-16.42h6.32v4.11c0,.53.42.95.95.95h4.11v11.37ZM65.46,374.59h-3v-3l3,3ZM60.88,385.96c.17,0,.32-.14.32-.32v-2.21h2.21c.17,0,.32-.14.32-.32v-1.89c0-.17-.14-.32-.32-.32h-2.21v-2.21c0-.17-.14-.32-.32-.32h-1.89c-.17,0-.32.14-.32.32v2.21h-2.21c-.17,0-.32.14-.32.32v1.89c0,.17.14.32.32.32h2.21v2.21c0,.17.14.32.32.32h1.89Z" fill="#fff"/>
    </g>
    <g>
      <g id="Oval-Copy-5-3" data-name="Oval-Copy-5">
        <path d="M55.94,341.79c-11.64,0-21.1-9.47-21.1-21.1s9.47-21.1,21.1-21.1,21.1,9.47,21.1,21.1-9.47,21.1-21.1,21.1Z" fill="#b094ff" fill-rule="evenodd"/>
        <path d="M55.94,301.01c10.87,0,19.68,8.81,19.68,19.68s-8.81,19.68-19.68,19.68-19.68-8.81-19.68-19.68,8.81-19.68,19.68-19.68M55.94,298.17c-12.42,0-22.52,10.1-22.52,22.52s10.1,22.52,22.52,22.52,22.52-10.1,22.52-22.52-10.1-22.52-22.52-22.52h0Z" fill="#fff"/>
      </g>
      <path id="c-4" data-name="c" d="M62.27,329.37c.96,0,1.73-.78,1.73-1.73v-12.7c0-.96-.78-1.73-1.73-1.73h-1.73v-1.88c0-.24-.19-.43-.43-.43h-1.44c-.24,0-.43.19-.43.43v1.88h-4.62v-1.88c0-.24-.19-.43-.43-.43h-1.44c-.24,0-.43.19-.43.43v1.88h-1.73c-.96,0-1.73.78-1.73,1.73v12.7c0,.96.78,1.73,1.73,1.73h12.7ZM62.05,327.64h-12.27c-.12,0-.22-.1-.22-.22v-10.75h12.7v10.75c0,.12-.1.22-.22.22Z" fill="#fff"/>
    </g>
    <g>
      <rect x="94.56" y="322.59" width="26.04" height="46.59" fill="#fff"/>
      <path d="M119.26,372.03c2.64,0,4.79-2.14,4.79-4.79v-41.51c0-2.64-2.14-4.79-4.79-4.79h-22.35c-2.64,0-4.79,2.14-4.79,4.79v41.51c0,2.64,2.14,4.79,4.79,4.79h22.35ZM119.14,368.41h-22.12c-.35,0-.63-.28-.63-.63v-42.59c0-.34.28-.63.63-.63h22.12c.35,0,.63.28.63.63v42.58c0,.35-.28.63-.63.63ZM107.67,365.62c2.09.26,3.84-1.49,3.58-3.58-.18-1.42-1.34-2.58-2.75-2.75-2.09-.26-3.84,1.49-3.58,3.58.18,1.42,1.34,2.58,2.75,2.75Z" fill="#d4cde0"/>
    </g>
  </g>
  <g>
    <line x1="547.86" y1="317.57" x2="653.51" y2="382.65" fill="none" stroke="#ff527f" stroke-dasharray="0 5.67" stroke-linecap="round" stroke-linejoin="round" stroke-width="2.83"/>
    <line x1="658.15" y1="319.6" x2="553.38" y2="380.91" fill="none" stroke="#ff527f" stroke-dasharray="0 5.67" stroke-linecap="round" stroke-linejoin="round" stroke-width="2.83"/>
    <line x1="602.19" y1="283.73" x2="602.19" y2="409.24" fill="none" stroke="#ff527f" stroke-dasharray="0 5.67" stroke-linecap="round" stroke-linejoin="round" stroke-width="2.83"/>
    <g>
      <g id="Oval-Copy-4-7" data-name="Oval-Copy-4">
        <path d="M601.92,305.65c-11.64,0-21.1-9.47-21.1-21.1s9.47-21.1,21.1-21.1,21.1,9.47,21.1,21.1-9.47,21.1-21.1,21.1Z" fill="#ff97b2" fill-rule="evenodd"/>
        <path d="M601.92,264.86c10.87,0,19.68,8.81,19.68,19.68s-8.81,19.68-19.68,19.68-19.68-8.81-19.68-19.68,8.81-19.68,19.68-19.68M601.92,262.03c-12.42,0-22.52,10.1-22.52,22.52s10.1,22.52,22.52,22.52,22.52-10.1,22.52-22.52-10.1-22.52-22.52-22.52h0Z" fill="#fff"/>
      </g>
      <path id="h-4" data-name="h" d="M602.75,288.51l1.96-3.92.87,1.74h5.21c.95-1.1,1.49-2.48,1.49-3.95,0-3.91-3.4-6.16-6.21-6.16-1.44,0-2.8.49-3.9,1.38-1.09-.89-2.46-1.38-3.9-1.38-2.81,0-6.21,2.25-6.21,6.16,0,1.47.54,2.85,1.49,3.95h4.61l1.18-2.83,2.25,4.99c.22.49.9.5,1.14.02ZM602.22,286.76l-2.3-5.1c-.22-.51-.95-.49-1.16.02l-1.42,3.4h-2.36c-2.32-2.74-.28-6.95,3.31-6.95,1.22,0,2.01.24,3.9,2.11,2.02-1.99,2.73-2.11,3.9-2.11,3.6,0,5.63,4.2,3.31,6.95h-3.03l-1.09-2.18c-.23-.47-.9-.47-1.13,0l-1.93,3.87ZM603.93,293.2l5.66-5.6h-2.69l-4.3,4.25c-.23.23-.6.23-.83,0l-4.3-4.25h-2.69l5.66,5.6c.97.96,2.52.96,3.49,0Z" fill="#fff"/>
    </g>
    <g>
      <g id="Oval-Copy-4-8" data-name="Oval-Copy-4">
        <path d="M601.83,431.94c-11.64,0-21.1-9.47-21.1-21.1s9.47-21.1,21.1-21.1,21.1,9.47,21.1,21.1-9.47,21.1-21.1,21.1Z" fill="#ff97b2" fill-rule="evenodd"/>
        <path d="M601.83,391.16c10.87,0,19.68,8.81,19.68,19.68s-8.81,19.68-19.68,19.68-19.68-8.81-19.68-19.68,8.81-19.68,19.68-19.68M601.83,388.32c-12.42,0-22.52,10.1-22.52,22.52s10.1,22.52,22.52,22.52,22.52-10.1,22.52-22.52-10.1-22.52-22.52-22.52h0Z" fill="#fff"/>
      </g>
      <path id="r-4" data-name="r" d="M604.27,403.63c1.39,0,2.52-1.13,2.52-2.52s-1.13-2.52-2.52-2.52-2.52,1.13-2.52,2.52,1.13,2.52,2.52,2.52ZM603.01,425.49c.55,0,1.05-.36,1.21-.91l1.75-5.49c.36-1.27-.17-2.64-1.31-3.33l-2.72-1.64,2.2-5.51c.14.19.27.4.34.63l.73,2.41c.38,1.24,1.51,2.08,2.81,2.09h2.54s0,0,0,0c.7,0,1.26-.56,1.26-1.26,0-.7-.56-1.26-1.26-1.27h-2.54c-.19,0-.35-.13-.4-.31l-.73-2.41c-.48-1.59-1.79-2.8-3.41-3.17l-4.11-.93c-1.35-.31-2.76,0-3.85.85l-2.54,1.96c-.55.43-.65,1.22-.23,1.77.42.55,1.22.65,1.77.23l2.54-1.96c.5-.39,1.14-.52,1.75-.39l.78.18-1.85,4.59c-.54,1.35-.04,2.87,1.21,3.62l4.4,2.66c.11.07.2.23.2.36,0,.03,0,.08-.02.12l-1.75,5.49c-.19.67.2,1.37.87,1.56.12.03.23.05.35.05ZM595.17,420.45c1.18,0,2.24-.7,2.71-1.78l.71-1.66-.5-.3c-.62-.38-1.12-.89-1.49-1.46l-1.04,2.43c-.07.16-.22.26-.39.26h-3.94c-.7,0-1.26.56-1.26,1.26s.57,1.26,1.26,1.26h3.94Z" fill="#fff"/>
    </g>
    <g>
      <g id="Oval-5" data-name="Oval">
        <path d="M653.97,342.77c-11.64,0-21.1-9.47-21.1-21.1s9.47-21.1,21.1-21.1,21.1,9.47,21.1,21.1-9.47,21.1-21.1,21.1Z" fill="#ff97b2" fill-rule="evenodd"/>
        <path d="M653.97,301.99c10.87,0,19.68,8.81,19.68,19.68s-8.81,19.68-19.68,19.68-19.68-8.81-19.68-19.68,8.81-19.68,19.68-19.68M653.97,299.15c-12.42,0-22.52,10.1-22.52,22.52s10.1,22.52,22.52,22.52,22.52-10.1,22.52-22.52-10.1-22.52-22.52-22.52h0Z" fill="#fff"/>
      </g>
      <path id="i-4" data-name="i" d="M663.23,326.09c1.05,0,1.89-.85,1.89-1.89v-10.11c0-1.05-.85-1.89-1.89-1.89h-15.16c-1.05,0-1.89.85-1.89,1.89v10.11c0,1.05.85,1.89,1.89,1.89h15.16ZM663,324.19h-14.69c-.13,0-.24-.11-.24-.24v-9.63c0-.13.11-.24.24-.24h14.69c.13,0,.24.11.24.24v9.63c0,.13-.11.24-.24.24ZM651.23,318.19c.87,0,1.58-.71,1.58-1.58s-.71-1.58-1.58-1.58-1.58.71-1.58,1.58.71,1.58,1.58,1.58ZM659.44,329.88c1.05,0,1.89-.85,1.89-1.89v-.63h-1.89v.39c0,.13-.11.24-.24.24h-14.69c-.13,0-.24-.11-.24-.24v-9.63c0-.13.11-.24.24-.24h.39v-1.89h-.63c-1.05,0-1.89.85-1.89,1.89v10.11c0,1.05.85,1.89,1.89,1.89h15.16ZM661.34,322.3v-3.16l-2.82-2.82c-.19-.19-.49-.19-.67,0l-4.09,4.09-1.56-1.56c-.19-.19-.49-.19-.67,0l-1.56,1.56v1.89h11.37Z" fill="#fff"/>
    </g>
    <g>
      <g id="Oval-Copy-3-4" data-name="Oval-Copy-3">
        <path d="M651.88,399.96c-11.64,0-21.1-9.47-21.1-21.1s9.47-21.1,21.1-21.1,21.1,9.47,21.1,21.1-9.47,21.1-21.1,21.1Z" fill="#ff97b2" fill-rule="evenodd"/>
        <path d="M651.88,359.17c10.87,0,19.68,8.81,19.68,19.68s-8.81,19.68-19.68,19.68-19.68-8.81-19.68-19.68,8.81-19.68,19.68-19.68M651.88,356.34c-12.42,0-22.52,10.1-22.52,22.52s10.1,22.52,22.52,22.52,22.52-10.1,22.52-22.52-10.1-22.52-22.52-22.52h0Z" fill="#fff"/>
      </g>
      <path id="m-7" data-name="m" d="M644.67,388.33c1.95,0,3.54-1.23,3.75-2.81.03-.11.04-.22.04-.34,0,0,0,0,0-.01v-6.95l10.74-3.39v5.09c-.56-.27-1.2-.44-1.89-.44-2.09,0-3.79,1.41-3.79,3.16s1.7,3.16,3.79,3.16c1.95,0,3.54-1.23,3.75-2.81.02-.1.04-.21.04-.32v-.03h0s0,0,0,0v-13.26c0-.72-.59-1.26-1.26-1.26-.13,0-.25.02-.38.06l-12,3.79c-.52.17-.88.65-.88,1.2v9.28c-.56-.27-1.2-.44-1.89-.44-2.09,0-3.79,1.41-3.79,3.16s1.7,3.16,3.79,3.16ZM648.46,376.24v-2.6l10.74-3.39v2.6l-10.74,3.39ZM657.3,383.91c-1.12,0-1.89-.67-1.89-1.26s.78-1.26,1.89-1.26,1.89.67,1.89,1.26h0c0,.6-.78,1.26-1.89,1.26ZM644.67,386.44c-1.12,0-1.89-.67-1.89-1.26s.78-1.26,1.89-1.26,1.89.67,1.89,1.26-.78,1.26-1.89,1.26Z" fill="#fff"/>
    </g>
    <g>
      <g id="Oval-Copy-4" data-name="Oval-Copy">
        <path d="M554.01,401.38c-11.64,0-21.1-9.47-21.1-21.1s9.47-21.1,21.1-21.1,21.1,9.47,21.1,21.1-9.47,21.1-21.1,21.1Z" fill="#ff97b2" fill-rule="evenodd"/>
        <path d="M554.01,360.59c10.87,0,19.68,8.81,19.68,19.68s-8.81,19.68-19.68,19.68-19.68-8.81-19.68-19.68,8.81-19.68,19.68-19.68M554.01,357.76c-12.42,0-22.52,10.1-22.52,22.52s10.1,22.52,22.52,22.52,22.52-10.1,22.52-22.52-10.1-22.52-22.52-22.52h0Z" fill="#fff"/>
      </g>
      <path id="f-4" data-name="f" d="M560.32,389.75c1.05,0,1.9-.85,1.9-1.89v-13.11c0-.5-.21-.99-.56-1.34l-3.31-3.31c-.36-.36-.84-.56-1.34-.56h-8.05c-1.05,0-1.89.85-1.89,1.9v16.42c0,1.05.85,1.89,1.89,1.89h11.37ZM560.33,387.85h-11.37v-16.42h6.32v4.11c0,.53.42.95.95.95h4.11v11.37ZM560.17,374.59h-3v-3l3,3ZM555.59,385.96c.17,0,.32-.14.32-.32v-2.21h2.21c.17,0,.32-.14.32-.32v-1.89c0-.17-.14-.32-.32-.32h-2.21v-2.21c0-.17-.14-.32-.32-.32h-1.89c-.17,0-.32.14-.32.32v2.21h-2.21c-.17,0-.32.14-.32.32v1.89c0,.17.14.32.32.32h2.21v2.21c0,.17.14.32.32.32h1.89Z" fill="#fff"/>
    </g>
    <g>
      <g id="Oval-Copy-5-4" data-name="Oval-Copy-5">
        <path d="M550.64,341.79c-11.64,0-21.1-9.47-21.1-21.1s9.47-21.1,21.1-21.1,21.1,9.47,21.1,21.1-9.47,21.1-21.1,21.1Z" fill="#ff97b2" fill-rule="evenodd"/>
        <path d="M550.64,301.01c10.87,0,19.68,8.81,19.68,19.68s-8.81,19.68-19.68,19.68-19.68-8.81-19.68-19.68,8.81-19.68,19.68-19.68M550.64,298.17c-12.42,0-22.52,10.1-22.52,22.52s10.1,22.52,22.52,22.52,22.52-10.1,22.52-22.52-10.1-22.52-22.52-22.52h0Z" fill="#fff"/>
      </g>
      <path id="c-5" data-name="c" d="M556.97,329.37c.96,0,1.73-.78,1.73-1.73v-12.7c0-.96-.78-1.73-1.73-1.73h-1.73v-1.88c0-.24-.19-.43-.43-.43h-1.44c-.24,0-.43.19-.43.43v1.88h-4.62v-1.88c0-.24-.19-.43-.43-.43h-1.44c-.24,0-.43.19-.43.43v1.88h-1.73c-.96,0-1.73.78-1.73,1.73v12.7c0,.96.78,1.73,1.73,1.73h12.7ZM556.76,327.64h-12.27c-.12,0-.22-.1-.22-.22v-10.75h12.7v10.75c0,.12-.1.22-.22.22Z" fill="#fff"/>
    </g>
    <g>
      <rect x="589.26" y="322.59" width="26.04" height="46.59" fill="#fff"/>
      <path d="M613.96,372.03c2.64,0,4.79-2.14,4.79-4.79v-41.51c0-2.64-2.14-4.79-4.79-4.79h-22.35c-2.64,0-4.79,2.14-4.79,4.79v41.51c0,2.64,2.14,4.79,4.79,4.79h22.35ZM613.85,368.41h-22.12c-.35,0-.63-.28-.63-.63v-42.59c0-.34.28-.63.63-.63h22.12c.35,0,.63.28.63.63v42.58c0,.35-.28.63-.63.63ZM602.37,365.62c2.09.26,3.84-1.49,3.58-3.58-.18-1.42-1.34-2.58-2.75-2.75-2.09-.26-3.84,1.49-3.58,3.58.18,1.42,1.34,2.58,2.75,2.75Z" fill="#ff527f"/>
    </g>
  </g>
  <g>
    <circle cx="602.96" cy="345.48" r="9.99" fill="#ff527f" stroke="#fff" stroke-width="1.46"/>
    <g id="LXdBHS">
      <g>
        <path d="M602.91,338.7c.34-.04.6.21.76.48l5.14,10.24c.22.54.02.98-.56,1.09-3.46.04-6.93,0-10.39.02-.65-.05-.96-.48-.71-1.11l5.14-10.24c.13-.22.35-.45.61-.49ZM599.01,349.05h7.95l-3.98-8.5-3.97,8.5Z" fill="#fff"/>
        <path d="M603.49,346.1h-1s-.02-.04-.02-.04l-.23-2.24c.12-.95,1.46-.89,1.48.07l-.24,2.2Z" fill="#fff"/>
        <path d="M602.86,346.84c.82-.1,1.18.92.54,1.34-.57.39-1.32-.15-1.13-.82.07-.25.33-.49.59-.52Z" fill="#fff"/>
      </g>
    </g>
  </g>
  <g>
    <circle cx="603.2" cy="341.66" r="15.63" fill="#ff527f" stroke="#fff" stroke-width="2.28"/>
    <g id="LXdBHS-2" data-name="LXdBHS">
      <g>
        <path d="M603.12,331.06c.52-.07.94.33,1.19.74l8.05,16.03c.34.84.03,1.54-.88,1.7-5.41.07-10.83,0-16.25.03-1.01-.08-1.5-.76-1.1-1.73l8.04-16.01c.2-.34.55-.71.96-.76ZM597.02,347.24h12.43l-6.23-13.29-6.2,13.29Z" fill="#fff"/>
        <path d="M604.02,342.62h-1.56s-.03-.06-.03-.06l-.35-3.5c.18-1.49,2.29-1.39,2.32.12l-.37,3.44Z" fill="#fff"/>
        <path d="M603.05,343.79c1.28-.15,1.84,1.43.85,2.1-.9.6-2.06-.24-1.77-1.28.11-.39.51-.77.92-.82Z" fill="#fff"/>
      </g>
    </g>
  </g>
  <g id="Polygon">
    <path d="M1124.67,154.66l60.81,105.32c2.72,4.71,2.72,10.5,0,15.21l-60.81,105.32c-2.72,4.71-7.74,7.6-13.17,7.6h-121.61c-5.43,0-10.45-2.9-13.17-7.6l-60.81-105.32c-2.72-4.71-2.72-10.5,0-15.21l60.81-105.32c2.72-4.71,7.74-7.6,13.17-7.6h121.61c5.43,0,10.45,2.9,13.17,7.6Z" fill="#fff" fill-rule="evenodd"/>
    <path d="M1111.49,391.36h-121.61c-6.57,0-12.7-3.54-15.98-9.23l-60.81-105.32c-3.29-5.69-3.29-12.76,0-18.46l60.81-105.32c3.29-5.69,9.41-9.23,15.98-9.23h121.61c6.57,0,12.7,3.54,15.98,9.23l60.81,105.32c3.29,5.69,3.29,12.76,0,18.46l-60.81,105.32c-3.29,5.69-9.41,9.23-15.98,9.23ZM989.88,150.3c-4.26,0-8.23,2.29-10.36,5.98l-60.81,105.32c-2.13,3.69-2.13,8.27,0,11.96l60.81,105.32c2.13,3.69,6.1,5.98,10.36,5.98h121.61c4.26,0,8.23-2.29,10.36-5.98l60.81-105.32c2.13-3.69,2.13-8.27,0-11.96l-60.81-105.32c-2.13-3.69-6.1-5.98-10.36-5.98h-121.61Z" fill="#7b4dff"/>
  </g>
  <g id="Group-3" data-name="Group">
    <polygon id="Path-25" points="1051.3 357.75 1056.51 359.53 1092.6 289.49 1124.44 198.67 1118.74 200.55 1087.47 286.53 1051.3 357.75" fill="#bfb0ff" fill-rule="evenodd" stroke="#fff" stroke-width="1.04"/>
    <g id="Path-24">
      <polygon points="985.04 335.25 1081 283.01 1150.32 268.68 1150.32 275.15 1081 288.56 985.04 342.59 985.04 335.25" fill="#bfb0ff" fill-rule="evenodd"/>
      <path d="M984.52,343.48v-8.54l.27-.15,96.03-52.27.08-.02,69.94-14.45v7.53l-.42.08-69.23,13.4-96.66,54.42ZM985.56,335.55v6.15l95.26-53.63.08-.02,68.9-13.33v-5.39l-68.62,14.18-95.62,52.05Z" fill="#fff"/>
    </g>
    <g id="Path-24-2" data-name="Path-24">
      <polygon points="953.46 267.8 1081 283.01 1150.32 268.68 1150.32 275.15 1081 288.56 953.46 273.07 953.46 267.8" fill="#bfb0ff" fill-rule="evenodd"/>
      <path d="M1081.02,289.09h-.08s-128-15.56-128-15.56v-6.31l.58.07,127.46,15.19,69.86-14.44v7.53l-.42.08-69.4,13.43ZM953.98,272.61l127,15.42,68.82-13.32v-5.39l-68.78,14.21h-.08s-126.96-15.15-126.96-15.15v4.22Z" fill="#fff"/>
    </g>
    <g id="Path-24-3" data-name="Path-24">
      <polygon points="1041.05 236.66 1051.94 363.97 1047.38 369.53 1036.5 236.66 1041.05 236.66" fill="#bfb0ff" fill-rule="evenodd"/>
      <path d="M1046.97,370.85l-11.04-134.71h5.6l.04.48,10.9,127.52-5.5,6.71ZM1037.06,237.18l10.73,131.02,3.6-4.39-10.83-126.62h-3.51Z" fill="#fff"/>
    </g>
    <g id="Path-24-4" data-name="Path-24">
      <polygon points="958.01 271.96 1112.14 334.91 1109.66 340.46 957.61 278.18 958.01 271.96" fill="#bfb0ff" fill-rule="evenodd"/>
      <path d="M1109.93,341.13l-.47-.19-152.4-62.42.47-7.32.67.27,154.63,63.16-2.9,6.5ZM958.15,277.85l151.24,61.94,2.05-4.6-152.97-62.48-.33,5.13Z" fill="#fff"/>
    </g>
    <g id="Combined-Shape" isolation="isolate" opacity=".32">
      <path d="M1050.04,161.46l74.83,31.19,31,75.31-31,75.31-74.83,31.19-74.83-31.19-31-75.31,31-75.31,74.83-31.19ZM1050.04,167.04l-70.91,29.56-29.37,71.36,29.37,71.36,70.91,29.56,70.91-29.56,29.37-71.36-29.37-71.36-70.91-29.56Z" fill="#7b4dff" fill-rule="evenodd"/>
    </g>
    <g id="Combined-Shape-2" data-name="Combined-Shape">
      <path d="M1050.04,161.46l73.37,32.38-3.9,1.61-69.47-28.41-70.91,29.56-28.24,68.6-6.68,2.76,31-75.31,74.83-31.19Z" fill="#7b4dff" fill-rule="evenodd"/>
    </g>
    <g id="Path-2">
      <polygon points="1147.18 273.29 1121.67 333.29 1125.09 339.11 1155.86 271.21 1147.18 273.29" fill="#bfb0ff" fill-rule="evenodd"/>
      <path d="M1125.21,341.36l-4.7-8,.2-.48,25.71-60.49,11.26-2.68-32.48,71.65ZM1122.83,333.21l2.14,3.65,29.07-64.14-6.12,1.46-25.1,59.04Z" fill="#fff"/>
    </g>
    <g id="Polygon-Copy-8">
      <path d="M1158.17,260.75c3.72,2.16,6,6.13,6,10.43v.07c0,4.3-2.29,8.27-6,10.43-3.71,2.16-8.29,2.16-12.01,0-3.72-2.16-6-6.13-6-10.43v-.07c0-4.3,2.29-8.27,6-10.43,3.71-2.16,8.29-2.16,12.01,0Z" fill="#bfb0ff" fill-rule="evenodd"/>
      <path d="M1152.17,285.44c-2.45,0-4.9-.63-7.08-1.9-4.36-2.54-7.07-7.24-7.07-12.29s2.71-9.82,7.07-12.35c4.37-2.54,9.8-2.54,14.16,0h0c4.36,2.54,7.07,7.24,7.07,12.29s-2.71,9.82-7.07,12.35c-2.19,1.27-4.63,1.9-7.08,1.9ZM1152.17,261.29c-1.7,0-3.4.44-4.92,1.32-3.04,1.77-4.93,5.05-4.93,8.57s1.89,6.87,4.93,8.64c3.04,1.76,6.81,1.76,9.85,0,3.04-1.77,4.93-5.05,4.93-8.57s-1.89-6.87-4.93-8.64c-1.52-.88-3.22-1.32-4.92-1.32Z" fill="#fff"/>
    </g>
    <g id="Polygon-Copy">
      <path d="M1054.66,354.69c3.72,2.16,6,6.13,6,10.43v.07c0,4.3-2.29,8.27-6,10.43-3.71,2.16-8.29,2.16-12.01,0-3.72-2.16-6-6.13-6-10.43v-.07c0-4.3,2.29-8.27,6-10.43,3.71-2.16,8.29-2.16,12.01,0Z" fill="#bfb0ff" fill-rule="evenodd"/>
      <path d="M1048.65,379.38c-2.45,0-4.9-.63-7.08-1.9-4.36-2.54-7.07-7.24-7.07-12.29s2.71-9.82,7.07-12.35c4.37-2.54,9.8-2.54,14.17,0h0c4.36,2.54,7.07,7.24,7.07,12.29s-2.71,9.82-7.07,12.36c-2.18,1.27-4.63,1.9-7.08,1.9ZM1048.65,355.23c-1.7,0-3.4.44-4.92,1.32-3.04,1.77-4.93,5.05-4.93,8.57s1.89,6.87,4.93,8.64c3.04,1.77,6.81,1.77,9.85,0,3.04-1.77,4.93-5.05,4.93-8.57s-1.89-6.87-4.93-8.64h0c-1.52-.88-3.22-1.32-4.92-1.32Z" fill="#fff"/>
    </g>
    <path id="Combined-Shape-3" data-name="Combined-Shape" d="M1055.58,156.58c3.72,2.16,6,6.13,6,10.43v.07c0,4.3-2.29,8.27-6,10.43-1.77,1.03-3.74,1.57-5.72,1.61l-11,31.09c1.75.47,3.45,1.17,5.05,2.09l.97.56c1.48.85,2.78,1.91,3.88,3.13l60.9-18.52v-.29c.18-4.1,2.43-7.84,6-9.92,3.71-2.16,8.29-2.16,12.01,0,3.72,2.16,6,6.13,6,10.43v.07c0,4.3-2.29,8.27-6,10.43-3.71,2.16-8.29,2.16-12.01,0-1.56-.91-2.87-2.13-3.86-3.57l-59.12,19.12c.4,1.98.43,4.06.04,6.13l-.78,4.25c-.38,2.08-1.12,4.05-2.14,5.83l26.75,34.92c3.38-1.36,7.24-1.1,10.45.76,3.72,2.16,6,6.13,6,10.43v.07c0,2.62-.85,5.11-2.35,7.15l25.92,33.83c2.53-.3,5.12.22,7.39,1.54,3.72,2.16,6,6.13,6,10.43v.07c0,4.3-2.29,8.27-6,10.43-3.71,2.16-8.29,2.16-12.01,0-3.72-2.16-6-6.13-6-10.43v-.07c0-2.88,1.03-5.61,2.82-7.75l-25.16-33.44c-2.9.65-5.98.21-8.62-1.33-3.72-2.16-6-6.13-6-10.43v-.07c0-2.03.51-3.98,1.44-5.71l-25.99-34.55c-1.35.94-2.83,1.71-4.42,2.27-.83.29-1.68.53-2.53.7l-45.59,80.73c1.57,2.06,2.45,4.62,2.45,7.29v.07c0,4.3-2.29,8.27-6,10.43-3.71,2.16-8.29,2.16-12.01,0-3.72-2.16-6-6.13-6-10.43v-.07c0-4.3,2.29-8.27,6-10.43,2.37-1.38,5.09-1.87,7.72-1.49l42.9-76.91c-1.87-.69-3.65-1.68-5.26-2.96l-.85-.67c-1.67-1.32-3.08-2.9-4.19-4.64l-51.19,29.41c0,.07,0,.14,0,.21v.07c0,4.3-2.29,8.27-6,10.43-3.71,2.16-8.29,2.16-12.01,0-3.72-2.16-6-6.13-6-10.43v-.07c0-4.3,2.29-8.27,6-10.43,3.71-2.16,8.29-2.16,12.01,0,1.04.61,1.98,1.36,2.78,2.22l51.56-29.3c-.23-1.84-.19-3.72.13-5.6l.16-.93c.27-1.58.75-3.1,1.39-4.53l-27.66-13.63c-.49.4-1.01.76-1.56,1.08-3.71,2.16-8.29,2.16-12.01,0-3.72-2.16-6-6.13-6-10.43v-.07c0-4.3,2.29-8.27,6-10.43,3.71-2.16,8.29-2.16,12.01,0,3.72,2.16,6,6.13,6,10.43v.07c0,1.17-.17,2.31-.49,3.39l29.54,12.29c1.25-.94,2.62-1.73,4.09-2.35,1.22-.51,2.47-.9,3.74-1.16l11.8-34.5c-2.14-2.22-3.38-5.21-3.38-8.37v-.07c0-4.3,2.29-8.27,6-10.43,3.71-2.16,8.29-2.16,12.01,0Z" fill="#7b4dff" fill-rule="evenodd" stroke="#fff" stroke-width="4.3"/>
  </g>
  <g>
    <g id="Oval-Copy-4-9" data-name="Oval-Copy-4">
      <path d="M952.91,291.24c-11.66,0-21.14-9.48-21.14-21.14s9.48-21.14,21.14-21.14,21.14,9.48,21.14,21.14-9.48,21.14-21.14,21.14Z" fill="#362b48" fill-rule="evenodd"/>
      <path d="M952.91,250.38c10.89,0,19.72,8.83,19.72,19.72s-8.83,19.72-19.72,19.72-19.72-8.83-19.72-19.72,8.83-19.72,19.72-19.72M952.91,247.54c-12.44,0-22.56,10.12-22.56,22.56s10.12,22.56,22.56,22.56,22.56-10.12,22.56-22.56-10.12-22.56-22.56-22.56h0Z" fill="#fff"/>
    </g>
    <path id="h-5" data-name="h" d="M953.74,274.07l1.97-3.93.87,1.75h5.22c.95-1.1,1.5-2.48,1.5-3.95,0-3.92-3.41-6.17-6.22-6.17-1.44,0-2.81.49-3.9,1.38-1.1-.89-2.46-1.38-3.9-1.38-2.81,0-6.22,2.25-6.22,6.17,0,1.48.54,2.85,1.49,3.95h4.62l1.18-2.84,2.25,5c.22.49.91.5,1.14.02ZM953.2,272.31l-2.3-5.11c-.23-.51-.95-.49-1.16.02l-1.42,3.41h-2.37c-2.33-2.75-.28-6.96,3.32-6.96,1.23,0,2.02.25,3.9,2.11,2.02-2,2.73-2.11,3.9-2.11,3.61,0,5.64,4.21,3.32,6.96h-3.03l-1.09-2.18c-.23-.47-.9-.47-1.13,0l-1.93,3.87ZM954.92,278.76l5.67-5.61h-2.7l-4.31,4.26c-.23.23-.6.23-.83,0l-4.3-4.26h-2.7l5.67,5.61c.97.96,2.53.96,3.5,0Z" fill="#fff"/>
  </g>
  <g>
    <g id="Oval-Copy-3-5" data-name="Oval-Copy-3">
      <path d="M1121.13,218.59c-11.66,0-21.14-9.48-21.14-21.14s9.48-21.14,21.14-21.14,21.14,9.48,21.14,21.14-9.48,21.14-21.14,21.14Z" fill="#362b48" fill-rule="evenodd"/>
      <path d="M1121.13,177.73c10.89,0,19.72,8.83,19.72,19.72s-8.83,19.72-19.72,19.72-19.72-8.83-19.72-19.72,8.83-19.72,19.72-19.72M1121.13,174.89c-12.44,0-22.56,10.12-22.56,22.56s10.12,22.56,22.56,22.56,22.56-10.12,22.56-22.56-10.12-22.56-22.56-22.56h0Z" fill="#fff"/>
    </g>
    <path id="m-8" data-name="m" d="M1113.91,206.94c1.95,0,3.54-1.23,3.75-2.81.03-.11.04-.22.04-.34,0,0,0,0,0-.01v-6.96l10.76-3.4v5.1c-.56-.27-1.2-.44-1.9-.44-2.1,0-3.8,1.42-3.8,3.16s1.7,3.16,3.8,3.16c1.95,0,3.54-1.23,3.75-2.81.02-.1.04-.21.04-.33v-.03h0s0,0,0,0v-13.29c0-.72-.59-1.27-1.26-1.27-.13,0-.25.02-.38.06l-12.02,3.8c-.53.17-.89.65-.89,1.21v9.3c-.56-.27-1.2-.44-1.9-.44-2.1,0-3.8,1.42-3.8,3.16s1.7,3.16,3.8,3.16ZM1117.7,194.83v-2.61l10.76-3.4v2.61l-10.76,3.4ZM1126.56,202.51c-1.12,0-1.9-.67-1.9-1.27s.78-1.27,1.9-1.27,1.9.67,1.9,1.27h0c0,.6-.78,1.27-1.9,1.27ZM1113.91,205.05c-1.12,0-1.9-.67-1.9-1.27s.78-1.27,1.9-1.27,1.9.67,1.9,1.27-.78,1.27-1.9,1.27Z" fill="#fff"/>
  </g>
  <g>
    <g id="Oval-Copy-5" data-name="Oval-Copy">
      <path d="M984.21,356.21c-11.66,0-21.14-9.48-21.14-21.14s9.48-21.14,21.14-21.14,21.14,9.48,21.14,21.14-9.48,21.14-21.14,21.14Z" fill="#ffab50" fill-rule="evenodd"/>
      <path d="M984.21,315.35c10.89,0,19.72,8.83,19.72,19.72s-8.83,19.72-19.72,19.72-19.72-8.83-19.72-19.72,8.83-19.72,19.72-19.72M984.21,312.51c-12.44,0-22.56,10.12-22.56,22.56s10.12,22.56,22.56,22.56,22.56-10.12,22.56-22.56-10.12-22.56-22.56-22.56h0Z" fill="#fff"/>
    </g>
    <path id="f-5" data-name="f" d="M990.54,344.56c1.05,0,1.9-.85,1.9-1.9v-13.13c0-.5-.21-.99-.56-1.34l-3.32-3.32c-.36-.36-.84-.56-1.34-.56h-8.07c-1.05,0-1.9.85-1.9,1.9v16.45c0,1.05.85,1.9,1.9,1.9h11.39ZM990.54,342.66h-11.39v-16.45h6.33v4.11c0,.53.42.95.95.95h4.11v11.39ZM990.38,329.38h-3.01v-3.01l3.01,3.01ZM985.8,340.77c.17,0,.32-.14.32-.32v-2.21h2.21c.17,0,.32-.14.32-.32v-1.9c0-.17-.14-.32-.32-.32h-2.21v-2.21c0-.17-.14-.32-.32-.32h-1.9c-.17,0-.32.14-.32.32v2.21h-2.21c-.17,0-.32.14-.32.32v1.9c0,.17.14.32.32.32h2.21v2.21c0,.17.14.32.32.32h1.9Z" fill="#fff"/>
  </g>
  <g>
    <g id="Oval-6" data-name="Oval">
      <path d="M1050.23,192.28c-11.66,0-21.14-9.48-21.14-21.14s9.48-21.14,21.14-21.14,21.14,9.48,21.14,21.14-9.48,21.14-21.14,21.14Z" fill="#ffab50" fill-rule="evenodd"/>
      <path d="M1050.23,151.42c10.89,0,19.72,8.83,19.72,19.72s-8.83,19.72-19.72,19.72-19.72-8.83-19.72-19.72,8.83-19.72,19.72-19.72M1050.23,148.58c-12.44,0-22.56,10.12-22.56,22.56s10.12,22.56,22.56,22.56,22.56-10.12,22.56-22.56-10.12-22.56-22.56-22.56h0Z" fill="#fff"/>
    </g>
    <path id="i-5" data-name="i" d="M1059.51,175.57c1.05,0,1.9-.85,1.9-1.9v-10.12c0-1.05-.85-1.9-1.9-1.9h-15.19c-1.05,0-1.9.85-1.9,1.9v10.12c0,1.05.85,1.9,1.9,1.9h15.19ZM1059.28,173.67h-14.71c-.13,0-.24-.11-.24-.24v-9.65c0-.13.11-.24.24-.24h14.71c.13,0,.24.11.24.24v9.65c0,.13-.11.24-.24.24ZM1047.49,167.66c.87,0,1.58-.71,1.58-1.58s-.71-1.58-1.58-1.58-1.58.71-1.58,1.58.71,1.58,1.58,1.58ZM1055.72,179.36c1.05,0,1.9-.85,1.9-1.9v-.63h-1.9v.4c0,.13-.11.24-.24.24h-14.71c-.13,0-.24-.11-.24-.24v-9.65c0-.13.11-.24.24-.24h.4v-1.9h-.63c-1.05,0-1.9.85-1.9,1.9v10.12c0,1.05.85,1.9,1.9,1.9h15.19ZM1057.62,171.77v-3.16l-2.83-2.83c-.19-.19-.49-.19-.67,0l-4.09,4.09-1.56-1.56c-.19-.19-.49-.19-.67,0l-1.56,1.56v1.9h11.39Z" fill="#fff"/>
  </g>
  <g>
    <g id="Oval-Copy-2">
      <path d="M1049.75,384.51c-11.66,0-21.14-9.48-21.14-21.14s9.48-21.14,21.14-21.14,21.14,9.48,21.14,21.14-9.48,21.14-21.14,21.14Z" fill="#ff527f" fill-rule="evenodd"/>
      <path d="M1049.75,343.65c10.89,0,19.72,8.83,19.72,19.72s-8.83,19.72-19.72,19.72-19.72-8.83-19.72-19.72,8.83-19.72,19.72-19.72M1049.75,340.81c-12.44,0-22.56,10.12-22.56,22.56s10.12,22.56,22.56,22.56,22.56-10.12,22.56-22.56-10.12-22.56-22.56-22.56h0Z" fill="#fff"/>
    </g>
    <path id="v" d="M1052.56,370.91c1.13,0,2.05-.85,2.05-1.89v-2.31l4.34,2.7c.23.16.48.23.72.23.66,0,1.27-.51,1.27-1.25v-10.16c0-.73-.61-1.25-1.27-1.25-.25,0-.49.07-.72.23l-4.34,2.71v-2.31c0-1.04-.92-1.89-2.05-1.89h-12.36c-1.13,0-2.05.85-2.05,1.89v11.41c0,1.04.92,1.89,2.05,1.89h12.36ZM1052.56,369.01h-12.36c-.08,0-.13-.02-.15-.04v-11.3s.07-.04.15-.04h12.36c.08,0,.13.02.15.04v11.3s-.07.04-.15.04ZM1059.03,367.24l-4.43-2.76v-2.32l4.43-2.76v7.84Z" fill="#fff"/>
  </g>
  <g>
    <g id="Oval-Copy-5-5" data-name="Oval-Copy-5">
      <path d="M1118.9,360.62c-11.66,0-21.14-9.48-21.14-21.14s9.48-21.14,21.14-21.14,21.14,9.48,21.14,21.14-9.48,21.14-21.14,21.14Z" fill="#d4cde0" fill-rule="evenodd"/>
      <path d="M1118.9,319.76c10.89,0,19.72,8.83,19.72,19.72s-8.83,19.72-19.72,19.72-19.72-8.83-19.72-19.72,8.83-19.72,19.72-19.72M1118.9,316.92c-12.44,0-22.56,10.12-22.56,22.56s10.12,22.56,22.56,22.56,22.56-10.12,22.56-22.56-10.12-22.56-22.56-22.56h0Z" fill="#fff"/>
    </g>
    <path id="c-6" data-name="c" d="M1125.25,348.17c.96,0,1.74-.78,1.74-1.74v-12.73c0-.96-.78-1.74-1.74-1.74h-1.74v-1.88c0-.24-.2-.43-.43-.43h-1.45c-.24,0-.43.2-.43.43v1.88h-4.63v-1.88c0-.24-.2-.43-.43-.43h-1.45c-.24,0-.43.2-.43.43v1.88h-1.74c-.96,0-1.74.78-1.74,1.74v12.73c0,.96.78,1.74,1.74,1.74h12.73ZM1125.03,346.44h-12.29c-.12,0-.22-.1-.22-.22v-10.77h12.73v10.77c0,.12-.1.22-.22.22Z" fill="#fff"/>
  </g>
  <g>
    <g id="Oval-Copy-4-10" data-name="Oval-Copy-4">
      <path d="M979.99,220.74c-11.66,0-21.14-9.48-21.14-21.14s9.48-21.14,21.14-21.14,21.14,9.48,21.14,21.14-9.48,21.14-21.14,21.14Z" fill="#ff527f" fill-rule="evenodd"/>
      <path d="M979.99,179.88c10.89,0,19.72,8.83,19.72,19.72s-8.83,19.72-19.72,19.72-19.72-8.83-19.72-19.72,8.83-19.72,19.72-19.72M979.99,177.04c-12.44,0-22.56,10.12-22.56,22.56s10.12,22.56,22.56,22.56,22.56-10.12,22.56-22.56-10.12-22.56-22.56-22.56h0Z" fill="#fff"/>
    </g>
    <path id="r-5" data-name="r" d="M982.43,192.38c1.4,0,2.53-1.13,2.53-2.53s-1.13-2.53-2.53-2.53-2.53,1.13-2.53,2.53,1.13,2.53,2.53,2.53ZM981.17,214.28c.55,0,1.06-.36,1.22-.92l1.75-5.5c.36-1.28-.17-2.65-1.31-3.33l-2.73-1.65,2.21-5.52c.14.19.27.4.34.64l.73,2.42c.38,1.25,1.51,2.09,2.81,2.09h2.55s0,0,0,0c.7,0,1.26-.56,1.26-1.26,0-.7-.56-1.27-1.26-1.27h-2.55c-.19,0-.35-.13-.4-.31l-.73-2.42c-.48-1.59-1.79-2.8-3.41-3.17l-4.12-.93c-1.35-.31-2.76,0-3.86.85l-2.55,1.97c-.55.43-.65,1.22-.23,1.77.43.55,1.22.65,1.77.23l2.55-1.97c.5-.39,1.14-.52,1.75-.39l.78.18-1.86,4.6c-.54,1.35-.04,2.87,1.21,3.63l4.41,2.66c.11.07.2.23.2.36,0,.03,0,.08-.02.12l-1.75,5.5c-.19.67.2,1.37.87,1.56.12.03.23.05.35.05ZM973.31,209.22c1.18,0,2.25-.7,2.71-1.79l.71-1.66-.5-.3c-.63-.38-1.12-.89-1.49-1.47l-1.05,2.44c-.07.16-.22.26-.39.26h-3.95c-.7,0-1.26.57-1.26,1.26s.57,1.26,1.26,1.26h3.95Z" fill="#fff"/>
  </g>
  <g>
    <g id="Oval-Copy-2-2" data-name="Oval-Copy-2">
      <path d="M1050.69,324.81c-31.55,0-57.22-25.67-57.22-57.22s25.67-57.22,57.22-57.22,57.22,25.67,57.22,57.22-25.67,57.22-57.22,57.22Z" fill="#7b4dff" fill-rule="evenodd"/>
      <path d="M1050.69,213.54c29.85,0,54.04,24.2,54.04,54.04s-24.2,54.04-54.04,54.04-54.04-24.2-54.04-54.04,24.2-54.04,54.04-54.04M1050.69,207.19c-33.3,0-60.4,27.09-60.4,60.4s27.09,60.4,60.4,60.4,60.4-27.09,60.4-60.4-27.09-60.4-60.4-60.4h0Z" fill="#fff"/>
    </g>
    <g>
      <path d="M1080.44,267.72c-.07-2.78-.13-5.65-.02-8.48.15-.99-.42-1.95-.8-2.46-.65-.88-1.38-1.33-2.16-1.33h-2.26c.08-5.06-.29-10.37-3.07-15.56-5.58-10.45-16.62-15.35-28.13-12.47-9.58,2.39-19.26,10.89-19.28,24.47v3.57s-2.19,0-2.19,0c-.74,0-1.47.38-2.09,1.11-.27.31-1.13,1.42-.97,2.45.12,2.89.05,5.82-.02,8.65-.22,9.04-.44,18.38,5.51,26.89,5.8,8.29,14.91,13.04,24.99,13.04,10.08,0,19.19-4.75,24.98-13.04,5.95-8.49,5.73-17.81,5.52-26.82ZM1032.33,248.08c1.21-5.75,5.19-10.56,10.63-12.88,5.44-2.31,11.43-1.86,16.41,1.27,4.2,2.62,7.17,6.86,8.16,11.61.4,1.92.37,3.91.33,6.03,0,.45-.02.9-.02,1.34h-35.83c0-.45-.01-.9-.02-1.36-.04-2.11-.07-4.11.33-6.01ZM1073.25,278.11c-.47,9.58-6.4,17.58-15.48,20.88-8.93,3.24-18.45.95-24.86-5.98-6.67-7.22-6.5-15.24-6.31-24.52.04-1.94.08-3.93.06-5.96h46.58v15.59Z" fill="#fff" stroke="#7b4dff" stroke-width="2.06"/>
      <path d="M1046.33,285.98c0,.62-.02,1.26-.05,1.93-.04,1.22-.09,2.49.02,3.71.11,1.23.65,2.26,1.5,2.89.45.33,1.14.66,2.09.66.29,0,.6-.03.94-.1,1.55-.33,2.58-1.66,2.74-3.56.1-1.2.06-2.43.01-3.62-.02-.65-.05-1.29-.05-1.9,2.74-1.04,4.9-3.2,5.92-6,1.18-3.24.63-6.84-1.46-9.62-1.9-2.53-4.84-3.98-8.08-3.98h-.07c-3.25.02-6.18,1.5-8.05,4.05-2.05,2.81-2.57,6.39-1.39,9.59,1.02,2.76,3.17,4.91,5.91,5.95ZM1049.5,273.59c1.19-.14,2.11.18,2.71.98.67.9.82,2.26.36,3.32-.27.62-.86,1.4-2.16,1.55-2.85.34-3.28-2.08-3.34-2.57-.13-1.09.23-3.02,2.43-3.28Z" fill="#fff" stroke="#7b4dff" stroke-width="2.06"/>
    </g>
  </g>
  <g id="humaaan-3-3" data-name="humaaan-3">
    <g id="Mask-3" data-name="Mask">
      <g id="path-4-link-2" data-name="path-4-link">
        <g id="path-4-2" data-name="path-4">
          <ellipse cx="1183.32" cy="269" rx="60.38" ry="59.54"/>
        </g>
      </g>
      <g id="Oval-7" data-name="Oval">
        <g id="path-7-3" data-name="path-7">
          <ellipse cx="1183.32" cy="269" rx="62.89" ry="62.05" fill="#bfb0ff"/>
          <path d="M1183.32,347.77c-43.89,0-79.6-35.33-79.6-78.77s35.71-78.76,79.6-78.76,79.6,35.33,79.6,78.76-35.71,78.77-79.6,78.77ZM1183.32,223.66c-25.47,0-46.18,20.34-46.18,45.34s20.72,45.35,46.18,45.35,46.18-20.34,46.18-45.35-20.72-45.34-46.18-45.34Z" fill="#fff"/>
        </g>
        <g id="path-7-4" data-name="path-7">
          <path d="M1183.32,340.7c-40,0-72.54-32.16-72.54-71.7s32.54-71.7,72.54-71.7,72.54,32.16,72.54,71.7-32.54,71.7-72.54,71.7ZM1183.32,216.59c-29.36,0-53.25,23.51-53.25,52.41s23.89,52.41,53.25,52.41,53.25-23.51,53.25-52.41-23.89-52.41-53.25-52.41Z" fill="#7b4dff"/>
        </g>
      </g>
    </g>
    <g id="Clipped-3" data-name="Clipped">
      <g id="Group-4" data-name="Group">
        <g id="Mask-4" data-name="Mask">
          <ellipse id="path-8-3" data-name="path-8" cx="1183.32" cy="269" rx="62.89" ry="62.05" fill="#fff"/>
        </g>
        <g mask="url(#mask-2)">
          <g>
            <g id="Head_Front_Short-Beard-2" data-name="Head/Front/Short-Beard">
              <g id="Head-2" data-name="Head">
                <g id="Path-2" data-name="Path">
                  <path d="M1187.55,229.09c-7.32,11.16-9.17,40.92-1.22,43.73,3.17,1.12,10.26-.32,17.66-3.94l-7.14,30.79,26.06,2.28-5.32-42.53c5.52-5.43,9.53-12.31,9.67-20.41.4-23.34-32.39-21.07-39.71-9.91Z" fill="#b28b67"/>
                </g>
              </g>
              <g id="Hair-2" data-name="Hair">
                <path d="M1202.68,218.93c-7.37-.01-14.09,1.64-16.06,2.8-.6,6.91.56,9.08,12.03,9.9,2.69,1.73,4.63,4.48,6.59,8.02-2.21,13.78-5.46,20.49-9.74,20.12-6.42-.56-11.51-5.11-14.33-5.35-2.05-.18-1.82,2.43-.62,4.45.99,1.67,6.32,3.66,6.11,6.09-.21,2.43-4.37.17-4.5,1.62-.21,2.39-1.36,6.81,2.79,7.17,4.2.37,16.37-.11,18.98-6.15,1.68-3.9,3.27-12.14,4.77-24.73.26-.01.52,0,.78.02,3.6.31,6.26,3.48,5.95,7.07-.16,1.82-1.06,3.41-2.37,4.48,1.32,2.26,2.82,4.62,4.55,7.08,7.65-3.72,14.17-16,8.13-28.87-1.44-6.17-5.61-9.77-10.73-11.72-4.1-2.15-8.5-2.74-12.32-2Z" fill="#7b4dff"/>
              </g>
            </g>
            <g id="Body_Hoodie-2" data-name="Body/Hoodie">
              <g id="Skin-2" data-name="Skin">
                <path d="M1273.13,380.99l-22.78.09c14.06,45.33,21.66,69.38,22.78,72.15,2.52,6.24-2.81,15.74-5.1,20.85,7.43,3.32,6.64-8.98,16.02-4.62,8.56,3.98,15.07,11.18,24.96,5.09,1.22-.75,2.55-3.57-.67-5.77-8.02-5.49-19.58-15.1-21.14-18.26-2.13-4.31-6.82-27.49-14.07-69.52h0ZM1139.65,380.11l-34.77,25.49c-9.43,2.54-17.31,5.7-23.63,9.48-1.49,1.36-3.3,4.11,2.9,3.64,6.2-.48,12.74-.7,13.59,1.41s-2.9,4.63-1.17,7.48c1.15,1.9,6.6-2.86,16.33-14.28l34.43-14.25-7.69-18.97Z" fill="#b28b67"/>
              </g>
              <g id="Coat-Back-2" data-name="Coat-Back">
                <path d="M1208.4,285.57l-9.42-1.61c-34.97,30.16-49.33,88.1-92.19,118.79l10.32,12.77c74.36-9.19,92.79-79.86,91.3-129.94Z" fill="#7b4dff"/>
              </g>
              <g id="Shirt-2" data-name="Shirt">
                <path d="M1249.49,403.82h-83.39c-3.81,0-3.09-5.49-2.54-8.27,6.36-31.99,31.17-66.48,31.17-112.02l24.05-3.77c19.9,31.95,26.78,71.28,30.7,124.05Z" fill="#7b4dff"/>
              </g>
              <g id="Coat-Front-2" data-name="Coat-Front">
                <path d="M1220.59,279.77c-.81,0-1.56.05-2.23.15l-7.53.43c-21.6,73.1-27.56,121.88-17.88,146.32h65.63c3.89,9.05,7.61,16.67,11.16,22.85h17.88c1.68-54.34-11.26-100.45-38.82-138.35,3.49-1,6.26-3.34,8.3-7.02,8.79-15.84,5.62-24.56-3.78-27.43-9.4-2.87-17.77,3.04-32.74,3.04Z" fill="#7b4dff"/>
              </g>
              <g id="Shade-2" data-name="Shade" opacity=".1">
                <path d="M1234.23,426.67h24.36c-4.54-10.56-9.3-23.07-14.29-37.54-2.06,17.24-5.42,29.76-10.07,37.54Z"/>
              </g>
            </g>
          </g>
        </g>
      </g>
    </g>
  </g>
  <g>
    <path d="M1151.8,282.54c-1.52.18-1.77,1.52-1.68,2.27.04.34.34,2.01,2.32,1.78.9-.11,1.31-.64,1.5-1.07.32-.74.21-1.68-.25-2.3-.42-.55-1.05-.78-1.88-.68Z" fill="none"/>
    <path d="M1135.98,274.87c.02,1.4-.01,2.79-.04,4.13-.13,6.43-.25,11.99,4.37,16.99,4.44,4.8,11.03,6.39,17.22,4.14,6.29-2.29,10.4-7.83,10.73-14.46v-10.8h-32.28ZM1158.71,286.97c-.7,1.94-2.2,3.44-4.1,4.16,0,.42.02.86.03,1.32.03.82.06,1.68,0,2.51-.11,1.32-.82,2.24-1.9,2.47-.23.05-.45.07-.65.07-.66,0-1.14-.23-1.45-.46-.59-.44-.96-1.15-1.04-2-.08-.85-.05-1.73-.02-2.57.02-.46.03-.91.03-1.33-1.89-.72-3.39-2.21-4.09-4.12-.82-2.22-.46-4.7.96-6.64,1.29-1.77,3.33-2.79,5.57-2.81h.05c2.24,0,4.28,1,5.6,2.75,1.45,1.93,1.83,4.42,1.01,6.66Z" fill="none"/>
    <path d="M1164.52,269.97h0s-24.83,0-24.83,0c0-.31,0-.63-.01-.94-.03-1.46-.05-2.85.23-4.16.84-3.98,3.59-7.32,7.37-8.92,3.77-1.6,7.92-1.29,11.37.88,2.08,1.3,3.71,3.17,4.73,5.33h5.33c-.3-.99-.7-1.98-1.22-2.96-3.87-7.24-11.52-10.63-19.49-8.64-6.64,1.66-13.35,7.54-13.36,16.95v2.47s-1.52,0-1.52,0c-.51,0-1.02.27-1.45.77-.19.22-.78.98-.67,1.7.08,2,.03,4.03-.02,5.99-.15,6.26-.3,12.74,3.82,18.63,4.02,5.74,10.33,9.03,17.31,9.03,6.98,0,13.29-3.29,17.31-9.03,4.12-5.88,3.97-12.34,3.82-18.58-.05-1.92-.09-3.91-.02-5.88.1-.69-.29-1.35-.55-1.71-.45-.61-.96-.92-1.5-.92h-1.57s-5.09,0-5.09,0ZM1168.25,274.87v10.8c-.32,6.63-4.43,12.18-10.72,14.46-6.19,2.25-12.78.66-17.22-4.14-4.62-5-4.5-10.56-4.37-16.99.03-1.34.06-2.73.04-4.13" fill="#7b4dff"/>
    <path d="M1152.1,277.55h-.05c-2.25.02-4.28,1.04-5.57,2.81-1.42,1.94-1.78,4.43-.96,6.64.7,1.91,2.2,3.4,4.09,4.12,0,.43-.02.87-.03,1.33-.03.85-.06,1.72.02,2.57.08.85.45,1.57,1.04,2,.31.23.79.46,1.45.46.2,0,.42-.02.65-.07,1.08-.23,1.79-1.15,1.9-2.47.07-.83.04-1.68,0-2.51-.02-.45-.03-.89-.03-1.32,1.9-.72,3.4-2.22,4.1-4.16.82-2.25.44-4.74-1.01-6.66-1.32-1.75-3.36-2.75-5.6-2.75ZM1153.93,285.52c-.19.43-.59.97-1.5,1.07-1.98.23-2.27-1.44-2.32-1.78-.09-.76.16-2.09,1.68-2.27.83-.1,1.46.13,1.88.68.46.62.57,1.57.25,2.3Z" fill="#7b4dff"/>
  </g>
  <path d="M1166.09,230.17c-4.13,0-7.59,2.94-8.4,6.83h-21.86c-1.02,0-1.84.82-1.84,1.84s.82,1.84,1.84,1.84h.97v3.75c0,1.02.82,1.84,1.84,1.84s1.84-.82,1.84-1.84v-3.75h17.25c.88,3.81,4.29,6.66,8.36,6.66,4.73,0,8.58-3.85,8.58-8.58s-3.85-8.58-8.58-8.58ZM1166.09,243.96c-2.87,0-5.21-2.34-5.21-5.21s2.34-5.21,5.21-5.21,5.21,2.34,5.21,5.21-2.34,5.21-5.21,5.21Z" fill="#7b4dff"/>
</svg>