<?xml version="1.0" encoding="UTF-8"?>
<svg id="Layer_1" data-name="Layer 1" xmlns="http://www.w3.org/2000/svg" xmlns:xlink="http://www.w3.org/1999/xlink" viewBox="0 0 734 469">
  <defs>
    <mask id="mask" x="94" y="225.18" width="159.62" height="186.16" maskUnits="userSpaceOnUse">
      <g id="mask-9">
        <ellipse id="path-8-2" data-name="path-8" cx="183.18" cy="268.14" rx="43.54" ry="42.96" fill="#fff"/>
      </g>
    </mask>
    <mask id="mask-1" x="572.17" y="222.26" width="220.49" height="369.63" maskUnits="userSpaceOnUse">
      <g id="mask-9-2" data-name="mask-9">
        <ellipse id="path-8-4" data-name="path-8" cx="653.48" cy="271.01" rx="49.4" ry="48.74" fill="#fff"/>
      </g>
    </mask>
  </defs>
  <rect x=".52" y=".98" width="366.45" height="468.22" fill="#f8f7fa"/>
  <rect x="368.15" y=".98" width="366.45" height="468.22" fill="#eae3ff"/>
  <circle cx="73.8" cy="448.96" r="5.99" fill="#fff"/>
  <g>
    <rect x="44.42" y="23.6" width="278.67" height="70.5" fill="none"/>
    <path d="M52.32,23.59h4.58l4.34,7.33,4.32-7.33h4.55l-6.89,11.44v7.12h-4.08v-7.23l-6.81-11.34Z" fill="#9a95a3"/>
    <path d="M68.47,32.53c.33-.88.8-1.62,1.4-2.24.61-.62,1.33-1.09,2.18-1.43s1.8-.51,2.86-.51,2.01.17,2.87.51c.86.34,1.59.81,2.2,1.43.61.62,1.07,1.36,1.4,2.24s.49,1.85.49,2.92-.17,2.05-.49,2.91c-.33.87-.8,1.61-1.4,2.22-.61.62-1.34,1.09-2.2,1.42-.86.33-1.82.49-2.87.49s-2.01-.17-2.86-.49-1.58-.8-2.18-1.42c-.61-.62-1.08-1.36-1.4-2.22-.33-.87-.49-1.84-.49-2.91s.16-2.05.49-2.92ZM71.82,37.02c.1.51.28.97.53,1.38.25.41.58.73,1,.97.42.24.94.36,1.56.36s1.15-.12,1.57-.36c.42-.24.76-.57,1.01-.97.25-.41.43-.87.53-1.38s.16-1.04.16-1.57-.05-1.07-.16-1.59c-.1-.52-.28-.98-.53-1.38-.25-.4-.59-.72-1.01-.98-.42-.25-.95-.38-1.57-.38s-1.14.13-1.56.38c-.42.25-.75.58-1,.98-.25.4-.43.86-.53,1.38-.1.52-.16,1.05-.16,1.59s.05,1.06.16,1.57Z" fill="#9a95a3"/>
    <path d="M93.38,42.16v-1.87h-.08c-.47.78-1.07,1.34-1.82,1.69-.75.35-1.51.52-2.29.52-.99,0-1.8-.13-2.43-.39-.63-.26-1.13-.63-1.5-1.11-.36-.48-.62-1.06-.77-1.74-.15-.68-.22-1.44-.22-2.27v-8.27h3.69v7.59c0,1.11.17,1.94.52,2.48.35.55.96.82,1.85.82,1.01,0,1.73-.3,2.18-.9.45-.6.68-1.58.68-2.95v-7.05h3.69v13.44h-3.51Z" fill="#9a95a3"/>
    <path d="M103.2,28.72v2.5h.05c.17-.42.41-.8.7-1.16s.63-.66,1.01-.91c.38-.25.79-.45,1.22-.58s.88-.21,1.35-.21c.24,0,.51.04.81.13v3.43c-.17-.03-.38-.06-.62-.09-.24-.03-.48-.04-.7-.04-.68,0-1.25.11-1.72.34-.47.23-.84.53-1.13.92-.29.39-.49.85-.61,1.37-.12.52-.18,1.08-.18,1.69v6.06h-3.69v-13.44h3.51Z" fill="#9a95a3"/>
    <path d="M126.58,40.44c-.43.73-1,1.25-1.7,1.57-.7.32-1.5.48-2.38.48-1.01,0-1.89-.2-2.65-.58s-1.39-.92-1.88-1.59-.87-1.43-1.12-2.3-.38-1.77-.38-2.7.13-1.77.38-2.61.62-1.58,1.12-2.22,1.11-1.16,1.86-1.55c.75-.39,1.61-.58,2.6-.58.8,0,1.56.17,2.27.51.72.34,1.29.84,1.7,1.5h.05v-6.76h3.69v18.56h-3.51v-1.72h-.05ZM126.42,33.8c-.1-.51-.28-.96-.53-1.35s-.58-.71-.97-.95c-.4-.24-.9-.36-1.51-.36s-1.12.12-1.53.36c-.42.24-.75.56-1,.96-.25.4-.43.85-.55,1.37-.11.51-.17,1.04-.17,1.6,0,.52.06,1.04.18,1.56.12.52.32.98.58,1.39s.61.74,1.01.99.9.38,1.47.38c.61,0,1.11-.12,1.52-.36.41-.24.73-.57.97-.97.24-.41.42-.87.52-1.39.1-.52.16-1.06.16-1.61s-.05-1.09-.16-1.6Z" fill="#9a95a3"/>
    <path d="M132.77,32.85c.05-.87.27-1.59.65-2.16.38-.57.87-1.03,1.46-1.38.59-.35,1.25-.59,1.99-.74s1.48-.22,2.22-.22c.68,0,1.36.05,2.05.14.69.1,1.33.28,1.9.56.57.28,1.04.66,1.4,1.16s.55,1.15.55,1.96v6.99c0,.61.04,1.19.1,1.74.07.55.19.97.36,1.25h-3.74c-.07-.21-.13-.42-.17-.64-.04-.22-.07-.44-.09-.66-.59.61-1.28,1.03-2.08,1.27-.8.24-1.61.36-2.44.36-.64,0-1.24-.08-1.79-.23-.56-.16-1.04-.4-1.46-.73s-.74-.75-.98-1.25c-.23-.5-.35-1.1-.35-1.79,0-.76.13-1.39.4-1.88.27-.49.61-.89,1.04-1.18.42-.29.91-.52,1.46-.66.55-.15,1.1-.26,1.65-.35s1.1-.16,1.64-.21,1.01-.13,1.43-.23c.42-.1.75-.25.99-.45.24-.2.35-.49.34-.87,0-.4-.07-.72-.2-.95-.13-.23-.3-.42-.52-.55s-.47-.22-.75-.26c-.29-.04-.59-.06-.92-.06-.73,0-1.3.16-1.72.47-.42.31-.66.83-.73,1.56h-3.69ZM141.29,35.58c-.16.14-.35.25-.58.33-.23.08-.49.14-.75.2-.27.05-.55.09-.84.13s-.59.08-.88.13c-.28.05-.55.12-.82.21s-.5.2-.7.35c-.2.15-.36.33-.48.56s-.18.51-.18.86.06.61.18.83c.12.23.29.4.49.53s.45.22.73.27c.28.05.56.08.86.08.73,0,1.29-.12,1.69-.36.4-.24.69-.53.88-.87.19-.34.31-.68.35-1.03s.07-.62.07-.83v-1.38Z" fill="#9a95a3"/>
    <path d="M155.23,28.72v2.47h-2.7v6.66c0,.62.1,1.04.31,1.25.21.21.62.31,1.25.31.21,0,.41,0,.6-.03.19-.02.37-.04.55-.08v2.86c-.31.05-.66.09-1.04.1-.38.02-.75.03-1.12.03-.57,0-1.11-.04-1.62-.12-.51-.08-.96-.23-1.35-.46-.39-.22-.7-.55-.92-.96-.23-.42-.34-.96-.34-1.64v-7.93h-2.24v-2.47h2.24v-4.03h3.69v4.03h2.7Z" fill="#9a95a3"/>
    <path d="M156.84,32.85c.05-.87.27-1.59.65-2.16.38-.57.87-1.03,1.46-1.38.59-.35,1.25-.59,1.99-.74s1.48-.22,2.22-.22c.68,0,1.36.05,2.05.14.69.1,1.33.28,1.9.56.57.28,1.04.66,1.4,1.16s.55,1.15.55,1.96v6.99c0,.61.04,1.19.1,1.74.07.55.19.97.36,1.25h-3.74c-.07-.21-.13-.42-.17-.64-.04-.22-.07-.44-.09-.66-.59.61-1.28,1.03-2.08,1.27-.8.24-1.61.36-2.44.36-.64,0-1.24-.08-1.79-.23-.56-.16-1.04-.4-1.46-.73s-.74-.75-.98-1.25c-.23-.5-.35-1.1-.35-1.79,0-.76.13-1.39.4-1.88.27-.49.61-.89,1.04-1.18.42-.29.91-.52,1.46-.66.55-.15,1.1-.26,1.65-.35s1.1-.16,1.64-.21,1.01-.13,1.43-.23c.42-.1.75-.25.99-.45.24-.2.35-.49.34-.87,0-.4-.07-.72-.2-.95-.13-.23-.3-.42-.52-.55s-.47-.22-.75-.26c-.29-.04-.59-.06-.92-.06-.73,0-1.3.16-1.72.47-.42.31-.66.83-.73,1.56h-3.69ZM165.37,35.58c-.16.14-.35.25-.58.33-.23.08-.49.14-.75.2-.27.05-.55.09-.84.13s-.59.08-.88.13c-.28.05-.55.12-.82.21s-.5.2-.7.35c-.2.15-.36.33-.48.56s-.18.51-.18.86.06.61.18.83c.12.23.29.4.49.53s.45.22.73.27c.28.05.56.08.86.08.73,0,1.29-.12,1.69-.36.4-.24.69-.53.88-.87.19-.34.31-.68.35-1.03s.07-.62.07-.83v-1.38Z" fill="#9a95a3"/>
    <path d="M179.23,32.53c.33-.88.8-1.62,1.4-2.24s1.33-1.09,2.18-1.43c.85-.34,1.8-.51,2.86-.51s2.02.17,2.87.51c.86.34,1.59.81,2.2,1.43.61.62,1.07,1.36,1.4,2.24.33.88.49,1.85.49,2.92s-.17,2.05-.49,2.91c-.33.87-.8,1.61-1.4,2.22-.61.62-1.34,1.09-2.2,1.42-.86.33-1.82.49-2.87.49s-2.01-.17-2.86-.49c-.85-.33-1.58-.8-2.18-1.42s-1.07-1.36-1.4-2.22c-.33-.87-.49-1.84-.49-2.91s.16-2.05.49-2.92ZM182.58,37.02c.1.51.28.97.53,1.38.25.41.58.73,1,.97.42.24.94.36,1.56.36s1.15-.12,1.57-.36c.42-.24.76-.57,1.01-.97s.43-.87.53-1.38c.1-.51.16-1.04.16-1.57s-.05-1.07-.16-1.59c-.1-.52-.28-.98-.53-1.38s-.59-.72-1.01-.98c-.42-.25-.95-.38-1.57-.38s-1.14.13-1.56.38c-.42.25-.75.58-1,.98-.25.4-.43.86-.53,1.38-.1.52-.16,1.05-.16,1.59s.05,1.06.16,1.57Z" fill="#9a95a3"/>
    <path d="M198.54,28.72v1.87h.08c.47-.78,1.07-1.35,1.82-1.7.75-.35,1.51-.53,2.29-.53.99,0,1.8.13,2.43.4.63.27,1.13.64,1.5,1.12.36.48.62,1.06.77,1.74s.22,1.44.22,2.28v8.27h-3.69v-7.59c0-1.11-.17-1.94-.52-2.48s-.96-.82-1.85-.82c-1.01,0-1.73.3-2.18.9-.45.6-.68,1.58-.68,2.95v7.05h-3.69v-13.44h3.51Z" fill="#9a95a3"/>
    <path d="M225.06,28.72v2.47h-2.7v6.66c0,.62.1,1.04.31,1.25.21.21.62.31,1.25.31.21,0,.41,0,.6-.03.19-.02.37-.04.55-.08v2.86c-.31.05-.66.09-1.04.1-.38.02-.75.03-1.12.03-.57,0-1.11-.04-1.62-.12-.51-.08-.96-.23-1.35-.46-.39-.22-.7-.55-.92-.96-.23-.42-.34-.96-.34-1.64v-7.93h-2.24v-2.47h2.24v-4.03h3.69v4.03h2.7Z" fill="#9a95a3"/>
    <path d="M230.52,23.59v6.99h.08c.47-.78,1.07-1.35,1.79-1.7.73-.35,1.44-.53,2.13-.53.99,0,1.8.13,2.43.4.63.27,1.13.64,1.5,1.12.36.48.62,1.06.77,1.74s.22,1.44.22,2.28v8.27h-3.69v-7.59c0-1.11-.17-1.94-.52-2.48s-.96-.82-1.85-.82c-1.01,0-1.73.3-2.18.9-.45.6-.68,1.58-.68,2.95v7.05h-3.69v-18.56h3.69Z" fill="#9a95a3"/>
    <path d="M246.2,38.93c.55.54,1.35.81,2.39.81.75,0,1.39-.19,1.92-.56.54-.37.87-.77.99-1.18h3.25c-.52,1.61-1.32,2.76-2.39,3.46-1.07.69-2.38,1.04-3.9,1.04-1.06,0-2.01-.17-2.86-.51s-1.57-.82-2.16-1.44c-.59-.62-1.04-1.37-1.36-2.24-.32-.87-.48-1.82-.48-2.86s.17-1.94.49-2.81c.33-.87.8-1.62,1.4-2.25.61-.63,1.33-1.13,2.17-1.5.84-.36,1.77-.55,2.79-.55,1.14,0,2.14.22,2.99.66.85.44,1.55,1.04,2.09,1.78.55.75.94,1.6,1.18,2.55.24.95.33,1.95.26,2.99h-9.7c.05,1.2.35,2.06.91,2.6ZM250.37,31.86c-.44-.49-1.11-.73-2.02-.73-.59,0-1.08.1-1.47.3s-.7.45-.94.74c-.23.29-.4.61-.49.94-.1.33-.15.62-.17.88h6.01c-.17-.94-.48-1.65-.92-2.13Z" fill="#9a95a3"/>
    <path d="M275.97,42.16l-2.39-9.02h-.05l-2.29,9.02h-3.82l-4.26-13.44h3.9l2.47,9.13h.05l2.24-9.13h3.59l2.29,9.1h.05l2.47-9.1h3.8l-4.24,13.44h-3.8Z" fill="#9a95a3"/>
    <path d="M289.52,38.93c.55.54,1.35.81,2.39.81.75,0,1.39-.19,1.92-.56.54-.37.87-.77.99-1.18h3.25c-.52,1.61-1.32,2.76-2.39,3.46-1.07.69-2.38,1.04-3.9,1.04-1.06,0-2.01-.17-2.86-.51s-1.57-.82-2.16-1.44c-.59-.62-1.04-1.37-1.36-2.24-.32-.87-.48-1.82-.48-2.86s.17-1.94.49-2.81c.33-.87.8-1.62,1.4-2.25.61-.63,1.33-1.13,2.17-1.5.84-.36,1.77-.55,2.79-.55,1.14,0,2.14.22,2.99.66.85.44,1.55,1.04,2.09,1.78.55.75.94,1.6,1.18,2.55.24.95.33,1.95.26,2.99h-9.7c.05,1.2.35,2.06.91,2.6ZM293.69,31.86c-.44-.49-1.11-.73-2.02-.73-.59,0-1.08.1-1.47.3s-.7.45-.94.74c-.23.29-.4.61-.49.94-.1.33-.15.62-.17.88h6.01c-.17-.94-.48-1.65-.92-2.13Z" fill="#9a95a3"/>
    <path d="M304.18,23.59v6.76h.05c.45-.69,1.06-1.2,1.83-1.52.77-.32,1.57-.48,2.4-.48.68,0,1.34.14,2,.42.66.28,1.25.7,1.78,1.27.53.57.96,1.3,1.29,2.2s.49,1.95.49,3.18-.17,2.29-.49,3.19-.76,1.62-1.29,2.2c-.53.57-1.12,1-1.78,1.27-.66.28-1.33.42-2,.42-.99,0-1.87-.16-2.65-.47-.78-.31-1.37-.84-1.77-1.59h-.05v1.72h-3.51v-18.56h3.69ZM310.16,33.81c-.12-.52-.31-.98-.57-1.38s-.58-.72-.97-.95c-.39-.23-.86-.35-1.42-.35s-1.01.12-1.4.35c-.4.23-.73.55-.99.95-.26.4-.45.86-.57,1.38-.12.52-.18,1.07-.18,1.64s.06,1.09.18,1.61c.12.52.31.98.57,1.38.26.4.59.71.99.95.4.23.87.35,1.4.35s1.03-.12,1.42-.35c.39-.23.71-.55.97-.95s.45-.86.57-1.38c.12-.52.18-1.06.18-1.61s-.06-1.12-.18-1.64Z" fill="#9a95a3"/>
    <path d="M133.55,58.21v-4.75h21.06v4.75h-7.7v20.95h-5.65v-20.95h-7.7Z" fill="#9a95a3"/>
    <path d="M153.13,65.82c.46-1.21,1.1-2.24,1.94-3.1.84-.85,1.85-1.51,3.02-1.98s2.5-.7,3.96-.7,2.79.23,3.98.7,2.2,1.13,3.04,1.98c.84.85,1.49,1.88,1.94,3.1.46,1.21.68,2.56.68,4.05s-.23,2.83-.68,4.03c-.46,1.2-1.1,2.23-1.94,3.08-.84.85-1.85,1.51-3.04,1.96-1.19.46-2.51.68-3.98.68s-2.79-.23-3.96-.68c-1.18-.46-2.18-1.11-3.02-1.96-.84-.85-1.49-1.88-1.94-3.08s-.68-2.54-.68-4.03.23-2.84.68-4.05ZM157.78,72.05c.14.71.39,1.34.74,1.91.35.56.81,1.01,1.39,1.35s1.3.5,2.16.5,1.59-.17,2.18-.5c.59-.34,1.06-.79,1.4-1.35.35-.56.59-1.2.74-1.91.14-.71.22-1.43.22-2.18s-.07-1.48-.22-2.2c-.14-.72-.39-1.36-.74-1.91s-.82-1-1.4-1.35c-.59-.35-1.31-.52-2.18-.52s-1.58.17-2.16.52c-.58.35-1.04.8-1.39,1.35s-.59,1.19-.74,1.91c-.14.72-.22,1.45-.22,2.2s.07,1.47.22,2.18Z" fill="#9a95a3"/>
    <path d="M188.23,76.78c-.6,1.01-1.39,1.73-2.36,2.18-.97.44-2.07.67-3.29.67-1.39,0-2.62-.27-3.67-.81-1.06-.54-1.93-1.27-2.61-2.2-.68-.92-1.2-1.99-1.55-3.19s-.52-2.45-.52-3.74.17-2.45.52-3.62.86-2.19,1.55-3.08c.68-.89,1.54-1.6,2.57-2.14,1.03-.54,2.23-.81,3.6-.81,1.1,0,2.15.23,3.15.7s1.78,1.16,2.36,2.07h.07v-9.36h5.11v25.7h-4.86v-2.38h-.07ZM188.02,67.58c-.14-.71-.39-1.33-.74-1.87-.35-.54-.8-.98-1.35-1.31-.55-.34-1.25-.5-2.09-.5s-1.55.17-2.12.5c-.58.34-1.04.78-1.39,1.33s-.6,1.18-.76,1.89-.23,1.45-.23,2.21c0,.72.08,1.44.25,2.16s.44,1.36.81,1.93c.37.56.84,1.02,1.4,1.37.56.35,1.24.52,2.03.52.84,0,1.54-.17,2.11-.5.56-.34,1.01-.79,1.35-1.35.34-.56.58-1.21.72-1.93.14-.72.22-1.46.22-2.23s-.07-1.51-.22-2.21Z" fill="#9a95a3"/>
    <path d="M196.8,66.27c.07-1.2.37-2.2.9-2.99.53-.79,1.2-1.43,2.02-1.91.82-.48,1.73-.82,2.75-1.03,1.02-.2,2.04-.31,3.08-.31.94,0,1.88.07,2.84.2.96.13,1.84.39,2.63.77s1.44.92,1.94,1.6c.5.68.76,1.59.76,2.72v9.68c0,.84.05,1.64.14,2.41.1.77.26,1.34.5,1.73h-5.18c-.1-.29-.17-.58-.23-.88-.06-.3-.1-.61-.13-.92-.82.84-1.78,1.43-2.88,1.76-1.1.34-2.23.5-3.38.5-.89,0-1.72-.11-2.48-.32-.77-.22-1.44-.55-2.02-1.01-.58-.46-1.03-1.03-1.35-1.73-.32-.7-.49-1.52-.49-2.48,0-1.06.19-1.93.56-2.61.37-.68.85-1.23,1.44-1.64.59-.41,1.26-.71,2.02-.92.76-.2,1.52-.37,2.29-.49.77-.12,1.52-.22,2.27-.29.74-.07,1.4-.18,1.98-.32.58-.14,1.03-.35,1.37-.63.34-.28.49-.68.47-1.21,0-.55-.09-.99-.27-1.31-.18-.32-.42-.58-.72-.76s-.65-.3-1.04-.36c-.4-.06-.82-.09-1.28-.09-1.01,0-1.8.22-2.38.65-.58.43-.91,1.15-1.01,2.16h-5.11ZM208.61,70.05c-.22.19-.49.34-.81.45-.32.11-.67.2-1.04.27-.37.07-.76.13-1.17.18-.41.05-.82.11-1.22.18-.38.07-.76.17-1.13.29-.37.12-.7.28-.97.49-.28.2-.5.46-.67.77-.17.31-.25.71-.25,1.19s.08.84.25,1.15.4.56.68.74c.29.18.62.31,1.01.38.38.07.78.11,1.19.11,1.01,0,1.79-.17,2.34-.5.55-.34.96-.74,1.22-1.21.26-.47.43-.94.49-1.42.06-.48.09-.86.09-1.15v-1.91Z" fill="#9a95a3"/>
    <path d="M224.56,84.7c-.98.65-2.35.97-4.1.97-.53,0-1.05-.02-1.57-.05-.52-.04-1.04-.08-1.57-.13v-4.21c.48.05.97.1,1.48.14.5.05,1.01.06,1.51.04.67-.07,1.17-.34,1.49-.79.32-.46.49-.96.49-1.51,0-.41-.07-.79-.22-1.15l-6.52-17.46h5.44l4.21,12.74h.07l4.07-12.74h5.29l-7.78,20.92c-.55,1.51-1.32,2.59-2.3,3.24Z" fill="#9a95a3"/>
  </g>
  <g>
    <rect x="412.04" y="23.6" width="278.67" height="70.5" fill="none"/>
    <path d="M419.95,23.59h4.58l4.34,7.33,4.32-7.33h4.55l-6.89,11.44v7.12h-4.08v-7.23l-6.81-11.34Z" fill="#7b4dff"/>
    <path d="M436.1,32.53c.33-.88.8-1.62,1.4-2.24.61-.62,1.33-1.09,2.18-1.43s1.8-.51,2.86-.51,2.01.17,2.87.51c.86.34,1.59.81,2.2,1.43.61.62,1.07,1.36,1.4,2.24s.49,1.85.49,2.92-.17,2.05-.49,2.91c-.33.87-.8,1.61-1.4,2.22-.61.62-1.34,1.09-2.2,1.42-.86.33-1.82.49-2.87.49s-2.01-.17-2.86-.49-1.58-.8-2.18-1.42c-.61-.62-1.08-1.36-1.4-2.22-.33-.87-.49-1.84-.49-2.91s.16-2.05.49-2.92ZM439.45,37.02c.1.51.28.97.53,1.38.25.41.58.73,1,.97.42.24.94.36,1.56.36s1.15-.12,1.57-.36c.42-.24.76-.57,1.01-.97.25-.41.43-.87.53-1.38s.16-1.04.16-1.57-.05-1.07-.16-1.59c-.1-.52-.28-.98-.53-1.38-.25-.4-.59-.72-1.01-.98-.42-.25-.95-.38-1.57-.38s-1.14.13-1.56.38c-.42.25-.75.58-1,.98-.25.4-.43.86-.53,1.38-.1.52-.16,1.05-.16,1.59s.05,1.06.16,1.57Z" fill="#7b4dff"/>
    <path d="M461,42.16v-1.87h-.08c-.47.78-1.07,1.34-1.82,1.69-.75.35-1.51.52-2.29.52-.99,0-1.8-.13-2.43-.39-.63-.26-1.13-.63-1.5-1.11-.36-.48-.62-1.06-.77-1.74-.15-.68-.22-1.44-.22-2.27v-8.27h3.69v7.59c0,1.11.17,1.94.52,2.48.35.55.96.82,1.85.82,1.01,0,1.73-.3,2.18-.9.45-.6.68-1.58.68-2.95v-7.05h3.69v13.44h-3.51Z" fill="#7b4dff"/>
    <path d="M470.83,28.72v2.5h.05c.17-.42.41-.8.7-1.16s.63-.66,1.01-.91c.38-.25.79-.45,1.22-.58s.88-.21,1.35-.21c.24,0,.51.04.81.13v3.43c-.17-.03-.38-.06-.62-.09-.24-.03-.48-.04-.7-.04-.68,0-1.25.11-1.72.34-.47.23-.84.53-1.13.92-.29.39-.49.85-.61,1.37-.12.52-.18,1.08-.18,1.69v6.06h-3.69v-13.44h3.51Z" fill="#7b4dff"/>
    <path d="M494.2,40.44c-.43.73-1,1.25-1.7,1.57-.7.32-1.5.48-2.38.48-1.01,0-1.89-.2-2.65-.58s-1.39-.92-1.88-1.59-.87-1.43-1.12-2.3-.38-1.77-.38-2.7.13-1.77.38-2.61.62-1.58,1.12-2.22,1.11-1.16,1.86-1.55c.75-.39,1.61-.58,2.6-.58.8,0,1.56.17,2.27.51.72.34,1.29.84,1.7,1.5h.05v-6.76h3.69v18.56h-3.51v-1.72h-.05ZM494.05,33.8c-.1-.51-.28-.96-.53-1.35s-.58-.71-.97-.95c-.4-.24-.9-.36-1.51-.36s-1.12.12-1.53.36c-.42.24-.75.56-1,.96-.25.4-.43.85-.55,1.37-.11.51-.17,1.04-.17,1.6,0,.52.06,1.04.18,1.56.12.52.32.98.58,1.39s.61.74,1.01.99.9.38,1.47.38c.61,0,1.11-.12,1.52-.36.41-.24.73-.57.97-.97.24-.41.42-.87.52-1.39.1-.52.16-1.06.16-1.61s-.05-1.09-.16-1.6Z" fill="#7b4dff"/>
    <path d="M500.39,32.85c.05-.87.27-1.59.65-2.16.38-.57.87-1.03,1.46-1.38.59-.35,1.25-.59,1.99-.74s1.48-.22,2.22-.22c.68,0,1.36.05,2.05.14.69.1,1.33.28,1.9.56.57.28,1.04.66,1.4,1.16s.55,1.15.55,1.96v6.99c0,.61.04,1.19.1,1.74.07.55.19.97.36,1.25h-3.74c-.07-.21-.13-.42-.17-.64-.04-.22-.07-.44-.09-.66-.59.61-1.28,1.03-2.08,1.27-.8.24-1.61.36-2.44.36-.64,0-1.24-.08-1.79-.23-.56-.16-1.04-.4-1.46-.73s-.74-.75-.98-1.25c-.23-.5-.35-1.1-.35-1.79,0-.76.13-1.39.4-1.88.27-.49.61-.89,1.04-1.18.42-.29.91-.52,1.46-.66.55-.15,1.1-.26,1.65-.35s1.1-.16,1.64-.21,1.01-.13,1.43-.23c.42-.1.75-.25.99-.45.24-.2.35-.49.34-.87,0-.4-.07-.72-.2-.95-.13-.23-.3-.42-.52-.55s-.47-.22-.75-.26c-.29-.04-.59-.06-.92-.06-.73,0-1.3.16-1.72.47-.42.31-.66.83-.73,1.56h-3.69ZM508.92,35.58c-.16.14-.35.25-.58.33-.23.08-.49.14-.75.2-.27.05-.55.09-.84.13s-.59.08-.88.13c-.28.05-.55.12-.82.21s-.5.2-.7.35c-.2.15-.36.33-.48.56s-.18.51-.18.86.06.61.18.83c.12.23.29.4.49.53s.45.22.73.27c.28.05.56.08.86.08.73,0,1.29-.12,1.69-.36.4-.24.69-.53.88-.87.19-.34.31-.68.35-1.03s.07-.62.07-.83v-1.38Z" fill="#7b4dff"/>
    <path d="M522.86,28.72v2.47h-2.7v6.66c0,.62.1,1.04.31,1.25.21.21.62.31,1.25.31.21,0,.41,0,.6-.03.19-.02.37-.04.55-.08v2.86c-.31.05-.66.09-1.04.1-.38.02-.75.03-1.12.03-.57,0-1.11-.04-1.62-.12-.51-.08-.96-.23-1.35-.46-.39-.22-.7-.55-.92-.96-.23-.42-.34-.96-.34-1.64v-7.93h-2.24v-2.47h2.24v-4.03h3.69v4.03h2.7Z" fill="#7b4dff"/>
    <path d="M524.47,32.85c.05-.87.27-1.59.65-2.16.38-.57.87-1.03,1.46-1.38.59-.35,1.25-.59,1.99-.74s1.48-.22,2.22-.22c.68,0,1.36.05,2.05.14.69.1,1.33.28,1.9.56.57.28,1.04.66,1.4,1.16s.55,1.15.55,1.96v6.99c0,.61.04,1.19.1,1.74.07.55.19.97.36,1.25h-3.74c-.07-.21-.13-.42-.17-.64-.04-.22-.07-.44-.09-.66-.59.61-1.28,1.03-2.08,1.27-.8.24-1.61.36-2.44.36-.64,0-1.24-.08-1.79-.23-.56-.16-1.04-.4-1.46-.73s-.74-.75-.98-1.25c-.23-.5-.35-1.1-.35-1.79,0-.76.13-1.39.4-1.88.27-.49.61-.89,1.04-1.18.42-.29.91-.52,1.46-.66.55-.15,1.1-.26,1.65-.35s1.1-.16,1.64-.21,1.01-.13,1.43-.23c.42-.1.75-.25.99-.45.24-.2.35-.49.34-.87,0-.4-.07-.72-.2-.95-.13-.23-.3-.42-.52-.55s-.47-.22-.75-.26c-.29-.04-.59-.06-.92-.06-.73,0-1.3.16-1.72.47-.42.31-.66.83-.73,1.56h-3.69ZM533,35.58c-.16.14-.35.25-.58.33-.23.08-.49.14-.75.2-.27.05-.55.09-.84.13s-.59.08-.88.13c-.28.05-.55.12-.82.21s-.5.2-.7.35c-.2.15-.36.33-.48.56s-.18.51-.18.86.06.61.18.83c.12.23.29.4.49.53s.45.22.73.27c.28.05.56.08.86.08.73,0,1.29-.12,1.69-.36.4-.24.69-.53.88-.87.19-.34.31-.68.35-1.03s.07-.62.07-.83v-1.38Z" fill="#7b4dff"/>
    <path d="M546.85,32.53c.33-.88.8-1.62,1.4-2.24s1.33-1.09,2.18-1.43c.85-.34,1.8-.51,2.86-.51s2.02.17,2.87.51c.86.34,1.59.81,2.2,1.43.61.62,1.07,1.36,1.4,2.24.33.88.49,1.85.49,2.92s-.17,2.05-.49,2.91c-.33.87-.8,1.61-1.4,2.22-.61.62-1.34,1.09-2.2,1.42-.86.33-1.82.49-2.87.49s-2.01-.17-2.86-.49c-.85-.33-1.58-.8-2.18-1.42s-1.07-1.36-1.4-2.22c-.33-.87-.49-1.84-.49-2.91s.16-2.05.49-2.92ZM550.21,37.02c.1.51.28.97.53,1.38.25.41.58.73,1,.97.42.24.94.36,1.56.36s1.15-.12,1.57-.36c.42-.24.76-.57,1.01-.97s.43-.87.53-1.38c.1-.51.16-1.04.16-1.57s-.05-1.07-.16-1.59c-.1-.52-.28-.98-.53-1.38s-.59-.72-1.01-.98c-.42-.25-.95-.38-1.57-.38s-1.14.13-1.56.38c-.42.25-.75.58-1,.98-.25.4-.43.86-.53,1.38-.1.52-.16,1.05-.16,1.59s.05,1.06.16,1.57Z" fill="#7b4dff"/>
    <path d="M566.17,28.72v1.87h.08c.47-.78,1.07-1.35,1.82-1.7.75-.35,1.51-.53,2.29-.53.99,0,1.8.13,2.43.4.63.27,1.13.64,1.5,1.12.36.48.62,1.06.77,1.74s.22,1.44.22,2.28v8.27h-3.69v-7.59c0-1.11-.17-1.94-.52-2.48s-.96-.82-1.85-.82c-1.01,0-1.73.3-2.18.9-.45.6-.68,1.58-.68,2.95v7.05h-3.69v-13.44h3.51Z" fill="#7b4dff"/>
    <path d="M592.69,28.72v2.47h-2.7v6.66c0,.62.1,1.04.31,1.25.21.21.62.31,1.25.31.21,0,.41,0,.6-.03.19-.02.37-.04.55-.08v2.86c-.31.05-.66.09-1.04.1-.38.02-.75.03-1.12.03-.57,0-1.11-.04-1.62-.12-.51-.08-.96-.23-1.35-.46-.39-.22-.7-.55-.92-.96-.23-.42-.34-.96-.34-1.64v-7.93h-2.24v-2.47h2.24v-4.03h3.69v4.03h2.7Z" fill="#7b4dff"/>
    <path d="M598.15,23.59v6.99h.08c.47-.78,1.07-1.35,1.79-1.7.73-.35,1.44-.53,2.13-.53.99,0,1.8.13,2.43.4.63.27,1.13.64,1.5,1.12.36.48.62,1.06.77,1.74s.22,1.44.22,2.28v8.27h-3.69v-7.59c0-1.11-.17-1.94-.52-2.48s-.96-.82-1.85-.82c-1.01,0-1.73.3-2.18.9-.45.6-.68,1.58-.68,2.95v7.05h-3.69v-18.56h3.69Z" fill="#7b4dff"/>
    <path d="M613.83,38.93c.55.54,1.35.81,2.39.81.75,0,1.39-.19,1.92-.56.54-.37.87-.77.99-1.18h3.25c-.52,1.61-1.32,2.76-2.39,3.46-1.07.69-2.38,1.04-3.9,1.04-1.06,0-2.01-.17-2.86-.51s-1.57-.82-2.16-1.44c-.59-.62-1.04-1.37-1.36-2.24-.32-.87-.48-1.82-.48-2.86s.17-1.94.49-2.81c.33-.87.8-1.62,1.4-2.25.61-.63,1.33-1.13,2.17-1.5.84-.36,1.77-.55,2.79-.55,1.14,0,2.14.22,2.99.66.85.44,1.55,1.04,2.09,1.78.55.75.94,1.6,1.18,2.55.24.95.33,1.95.26,2.99h-9.7c.05,1.2.35,2.06.91,2.6ZM618,31.86c-.44-.49-1.11-.73-2.02-.73-.59,0-1.08.1-1.47.3s-.7.45-.94.74c-.23.29-.4.61-.49.94-.1.33-.15.62-.17.88h6.01c-.17-.94-.48-1.65-.92-2.13Z" fill="#7b4dff"/>
    <path d="M643.6,42.16l-2.39-9.02h-.05l-2.29,9.02h-3.82l-4.26-13.44h3.9l2.47,9.13h.05l2.24-9.13h3.59l2.29,9.1h.05l2.47-9.1h3.8l-4.24,13.44h-3.8Z" fill="#7b4dff"/>
    <path d="M657.14,38.93c.55.54,1.35.81,2.39.81.75,0,1.39-.19,1.92-.56.54-.37.87-.77.99-1.18h3.25c-.52,1.61-1.32,2.76-2.39,3.46-1.07.69-2.38,1.04-3.9,1.04-1.06,0-2.01-.17-2.86-.51s-1.57-.82-2.16-1.44c-.59-.62-1.04-1.37-1.36-2.24-.32-.87-.48-1.82-.48-2.86s.17-1.94.49-2.81c.33-.87.8-1.62,1.4-2.25.61-.63,1.33-1.13,2.17-1.5.84-.36,1.77-.55,2.79-.55,1.14,0,2.14.22,2.99.66.85.44,1.55,1.04,2.09,1.78.55.75.94,1.6,1.18,2.55.24.95.33,1.95.26,2.99h-9.7c.05,1.2.35,2.06.91,2.6ZM661.32,31.86c-.44-.49-1.11-.73-2.02-.73-.59,0-1.08.1-1.47.3s-.7.45-.94.74c-.23.29-.4.61-.49.94-.1.33-.15.62-.17.88h6.01c-.17-.94-.48-1.65-.92-2.13Z" fill="#7b4dff"/>
    <path d="M671.81,23.59v6.76h.05c.45-.69,1.06-1.2,1.83-1.52.77-.32,1.57-.48,2.4-.48.68,0,1.34.14,2,.42.66.28,1.25.7,1.78,1.27.53.57.96,1.3,1.29,2.2s.49,1.95.49,3.18-.17,2.29-.49,3.19-.76,1.62-1.29,2.2c-.53.57-1.12,1-1.78,1.27-.66.28-1.33.42-2,.42-.99,0-1.87-.16-2.65-.47-.78-.31-1.37-.84-1.77-1.59h-.05v1.72h-3.51v-18.56h3.69ZM677.79,33.81c-.12-.52-.31-.98-.57-1.38s-.58-.72-.97-.95c-.39-.23-.86-.35-1.42-.35s-1.01.12-1.4.35c-.4.23-.73.55-.99.95-.26.4-.45.86-.57,1.38-.12.52-.18,1.07-.18,1.64s.06,1.09.18,1.61c.12.52.31.98.57,1.38.26.4.59.71.99.95.4.23.87.35,1.4.35s1.03-.12,1.42-.35c.39-.23.71-.55.97-.95s.45-.86.57-1.38c.12-.52.18-1.06.18-1.61s-.06-1.12-.18-1.64Z" fill="#7b4dff"/>
    <path d="M485.07,79.16l-3.31-12.49h-.07l-3.17,12.49h-5.29l-5.9-18.61h5.4l3.42,12.64h.07l3.1-12.64h4.97l3.17,12.6h.07l3.42-12.6h5.26l-5.87,18.61h-5.26Z" fill="#7b4dff"/>
    <path d="M498.49,57.67v-4.21h5.11v4.21h-5.11ZM503.61,60.55v18.61h-5.11v-18.61h5.11Z" fill="#7b4dff"/>
    <path d="M517.86,60.55v3.42h-3.74v9.22c0,.86.14,1.44.43,1.73.29.29.86.43,1.73.43.29,0,.56-.01.83-.04.26-.02.52-.06.76-.11v3.96c-.43.07-.91.12-1.44.14-.53.02-1.04.04-1.55.04-.79,0-1.54-.05-2.25-.16-.71-.11-1.33-.32-1.87-.63-.54-.31-.97-.76-1.28-1.33-.31-.58-.47-1.33-.47-2.27v-10.98h-3.1v-3.42h3.1v-5.58h5.11v5.58h3.74Z" fill="#7b4dff"/>
    <path d="M525.42,53.45v9.68h.11c.65-1.08,1.48-1.87,2.48-2.36,1.01-.49,1.99-.74,2.95-.74,1.37,0,2.49.19,3.37.56s1.57.89,2.07,1.55.86,1.46,1.06,2.41.31,2,.31,3.15v11.45h-5.11v-10.51c0-1.54-.24-2.68-.72-3.44-.48-.76-1.33-1.13-2.56-1.13-1.39,0-2.4.41-3.02,1.24-.62.83-.94,2.19-.94,4.09v9.76h-5.11v-25.7h5.11Z" fill="#7b4dff"/>
    <path d="M556.53,72.82c.31.6.73,1.09,1.24,1.46.52.37,1.12.65,1.82.83.7.18,1.42.27,2.16.27.5,0,1.04-.04,1.62-.13.58-.08,1.12-.25,1.62-.49s.92-.57,1.26-.99c.33-.42.5-.95.5-1.6,0-.7-.22-1.26-.67-1.69-.44-.43-1.03-.79-1.75-1.08s-1.54-.54-2.45-.76-1.84-.46-2.77-.72c-.96-.24-1.9-.53-2.81-.88-.91-.35-1.73-.8-2.45-1.35-.72-.55-1.3-1.24-1.75-2.07s-.67-1.83-.67-3.01c0-1.32.28-2.47.85-3.44.56-.97,1.3-1.78,2.21-2.43.91-.65,1.94-1.13,3.1-1.44,1.15-.31,2.3-.47,3.46-.47,1.34,0,2.63.15,3.87.45,1.24.3,2.33.79,3.29,1.46.96.67,1.72,1.53,2.29,2.57.56,1.04.85,2.31.85,3.8h-5.47c-.05-.77-.21-1.4-.49-1.91s-.64-.9-1.1-1.19c-.46-.29-.98-.49-1.57-.61s-1.23-.18-1.93-.18c-.46,0-.91.05-1.37.14-.46.1-.87.26-1.24.5-.37.24-.68.54-.92.9s-.36.82-.36,1.37c0,.5.1.91.29,1.22.19.31.57.6,1.13.86.56.26,1.34.53,2.34.79,1,.26,2.3.6,3.91,1.01.48.1,1.15.27,2,.52.85.25,1.7.65,2.54,1.21.84.55,1.57,1.29,2.18,2.21s.92,2.11.92,3.55c0,1.18-.23,2.27-.68,3.28-.46,1.01-1.13,1.88-2.03,2.61-.9.73-2.02,1.3-3.35,1.71-1.33.41-2.87.61-4.63.61-1.42,0-2.79-.17-4.12-.52s-2.51-.89-3.53-1.64c-1.02-.74-1.83-1.69-2.43-2.84-.6-1.15-.89-2.52-.86-4.1h5.47c0,.86.16,1.6.47,2.2Z" fill="#7b4dff"/>
    <path d="M575.14,65.82c.46-1.21,1.1-2.24,1.94-3.1.84-.85,1.85-1.51,3.02-1.98s2.5-.7,3.96-.7,2.79.23,3.98.7,2.2,1.13,3.04,1.98c.84.85,1.49,1.88,1.94,3.1.46,1.21.68,2.56.68,4.05s-.23,2.83-.68,4.03c-.46,1.2-1.1,2.23-1.94,3.08-.84.85-1.85,1.51-3.04,1.96-1.19.46-2.51.68-3.98.68s-2.79-.23-3.96-.68c-1.18-.46-2.18-1.11-3.02-1.96-.84-.85-1.49-1.88-1.94-3.08s-.68-2.54-.68-4.03.23-2.84.68-4.05ZM579.78,72.05c.14.71.39,1.34.74,1.91.35.56.81,1.01,1.39,1.35s1.3.5,2.16.5,1.59-.17,2.18-.5c.59-.34,1.06-.79,1.4-1.35.35-.56.59-1.2.74-1.91.14-.71.22-1.43.22-2.18s-.07-1.48-.22-2.2c-.14-.72-.39-1.36-.74-1.91s-.82-1-1.4-1.35c-.59-.35-1.31-.52-2.18-.52s-1.58.17-2.16.52c-.58.35-1.04.8-1.39,1.35s-.59,1.19-.74,1.91c-.14.72-.22,1.45-.22,2.2s.07,1.47.22,2.18Z" fill="#7b4dff"/>
    <path d="M602.28,53.45v25.7h-5.11v-25.7h5.11Z" fill="#7b4dff"/>
    <path d="M606.46,57.67v-4.21h5.11v4.21h-5.11ZM611.57,60.55v18.61h-5.11v-18.61h5.11Z" fill="#7b4dff"/>
    <path d="M628.81,76.78c-.6,1.01-1.39,1.73-2.36,2.18-.97.44-2.07.67-3.29.67-1.39,0-2.62-.27-3.67-.81-1.06-.54-1.93-1.27-2.61-2.2-.68-.92-1.2-1.99-1.55-3.19s-.52-2.45-.52-3.74.17-2.45.52-3.62.86-2.19,1.55-3.08c.68-.89,1.54-1.6,2.57-2.14,1.03-.54,2.23-.81,3.6-.81,1.1,0,2.15.23,3.15.7s1.78,1.16,2.36,2.07h.07v-9.36h5.11v25.7h-4.86v-2.38h-.07ZM628.6,67.58c-.14-.71-.39-1.33-.74-1.87-.35-.54-.8-.98-1.35-1.31-.55-.34-1.25-.5-2.09-.5s-1.55.17-2.12.5c-.58.34-1.04.78-1.39,1.33s-.6,1.18-.76,1.89-.23,1.45-.23,2.21c0,.72.08,1.44.25,2.16s.44,1.36.81,1.93c.37.56.84,1.02,1.4,1.37.56.35,1.24.52,2.03.52.84,0,1.54-.17,2.11-.5.56-.34,1.01-.79,1.35-1.35.34-.56.58-1.21.72-1.93.14-.72.22-1.46.22-2.23s-.07-1.51-.22-2.21Z" fill="#7b4dff"/>
  </g>
  <path id="m" d="M404.78,161.77v-26.16h2.36v-3.57c0-1.96,1.61-3.57,3.57-3.57h11.8c1.96,0,3.55,1.59,3.55,3.55v3.59h2.36v26.16h-23.65ZM411.87,135.6h9.46v-2.38h-9.46v2.38ZM401.23,161.77c-1.96,0-3.55-1.59-3.55-3.55v-19.07c0-1.96,1.59-3.55,3.55-3.55h1.18v26.16h-1.18ZM430.79,161.77v-26.16h1.18c1.96,0,3.55,1.59,3.55,3.55v19.07c0,1.96-1.59,3.55-3.55,3.55h-1.18ZM415.43,154.63h2.36c.65,0,1.18-.53,1.18-1.18v-3.57h3.55c.65,0,1.18-.53,1.18-1.18v-2.39c0-.65-.54-1.19-1.19-1.19h-3.54v-3.57c0-.65-.54-1.19-1.19-1.19h-2.36c-.65,0-1.18.53-1.18,1.18v3.57h-3.55c-.65,0-1.18.53-1.18,1.18v2.39c0,.65.54,1.19,1.19,1.19h3.54v3.57c0,.66.53,1.19,1.19,1.19Z" fill="#7b4dff"/>
  <path id="m-2" data-name="m" d="M440.15,207.45c5.48,0,9.92-4.44,9.92-9.92v-85.98c0-5.48-4.44-9.92-9.92-9.92h-46.3c-5.48,0-9.92,4.44-9.92,9.92v85.98c0,5.48,4.44,9.92,9.92,9.92h46.3ZM439.91,199.95h-45.83c-.72,0-1.3-.58-1.3-1.3v-88.22c0-.71.58-1.3,1.3-1.3h45.83c.72,0,1.31.59,1.31,1.31v88.19c0,.72-.59,1.31-1.31,1.31ZM416.14,194.17c4.33.54,7.96-3.09,7.42-7.42-.37-2.94-2.77-5.34-5.7-5.7-4.33-.54-7.96,3.09-7.42,7.42.37,2.94,2.77,5.34,5.7,5.7Z" fill="#7b4dff"/>
  <path id="m-3" data-name="m" d="M705.72,453.96c5.48,0,9.92-4.44,9.92-9.92v-85.98c0-5.48-4.44-9.92-9.92-9.92h-46.3c-5.48,0-9.92,4.44-9.92,9.92v85.98c0,5.48,4.44,9.92,9.92,9.92h46.3ZM705.48,446.46h-45.83c-.72,0-1.3-.58-1.3-1.3v-88.22c0-.71.58-1.3,1.3-1.3h45.83c.72,0,1.31.59,1.31,1.31v88.19c0,.72-.59,1.31-1.31,1.31ZM681.72,440.68c4.33.54,7.96-3.09,7.42-7.42-.37-2.94-2.77-5.34-5.7-5.7-4.33-.54-7.96,3.09-7.42,7.42.37,2.94,2.77,5.34,5.7,5.7Z" fill="#7b4dff"/>
  <path id="c" d="M694.12,414.37c.44,0,.84-.34.84-.84v-3.65h2.25c2.48,0,4.5-2.02,4.5-4.5v-11.24c0-2.48-2.02-4.5-4.5-4.5h-6.74v-6.74c0-2.48-2.02-4.5-4.5-4.5h-20.23c-2.48,0-4.5,2.02-4.5,4.5v11.24c0,2.48,2.02,4.5,4.5,4.5h2.25v3.65c0,.5.41.84.84.84.17,0,.34-.05.5-.17l5.4-3.06v5.47c0,2.48,2.02,4.5,4.5,4.5h6.74l7.65,4.33c.15.11.33.17.5.17ZM671.36,397.94v-2.68h-5.62c-.62,0-1.12-.51-1.12-1.12v-11.24c0-.62.51-1.12,1.12-1.12h20.23c.62,0,1.12.51,1.12,1.12v11.24c0,.62-.51,1.12-1.12,1.12h-9.88l-.77.44-3.96,2.24ZM691.59,409.18l-3.96-2.24-.77-.44h-7.63c-.62,0-1.12-.51-1.12-1.12v-6.74h7.87c2.48,0,4.5-2.02,4.5-4.5v-1.12h6.74c.62,0,1.12.51,1.12,1.12v11.24c0,.62-.51,1.12-1.12,1.12h-5.62v2.68Z" fill="#7b4dff"/>
  <line x1="446.93" y1="173.79" x2="651.31" y2="391.39" fill="none" stroke="#7b4dff" stroke-dasharray="0 8.3" stroke-linecap="round" stroke-linejoin="round" stroke-width="4.15"/>
  <line x1="100.61" y1="343.09" x2="138.65" y2="295.85" fill="none" stroke="#7b4dff" stroke-dasharray="0 5.67" stroke-linecap="round" stroke-linejoin="round" stroke-width="2.83"/>
  <line x1="263.63" y1="344.76" x2="225.6" y2="297.52" fill="none" stroke="#7b4dff" stroke-dasharray="0 5.67" stroke-linecap="round" stroke-linejoin="round" stroke-width="2.83"/>
  <line x1="100.61" y1="191.35" x2="138.65" y2="238.58" fill="none" stroke="#7b4dff" stroke-dasharray="0 5.67" stroke-linecap="round" stroke-linejoin="round" stroke-width="2.83"/>
  <line x1="263.63" y1="189.68" x2="225.6" y2="236.91" fill="none" stroke="#7b4dff" stroke-dasharray="0 5.67" stroke-linecap="round" stroke-linejoin="round" stroke-width="2.83"/>
  <g id="humaaan-3">
    <g id="Mask">
      <g id="path-4-link">
        <g id="path-4">
          <ellipse cx="183.18" cy="268.14" rx="41.8" ry="41.22"/>
        </g>
      </g>
      <g id="Oval">
        <g id="path-7">
          <ellipse cx="183.18" cy="268.14" rx="43.54" ry="42.96" fill="#bfb0ff"/>
          <path d="M183.18,236.75c-17.63,0-31.97,14.08-31.97,31.39s14.34,31.39,31.97,31.39,31.97-14.08,31.97-31.39-14.34-31.39-31.97-31.39Z" fill="#fff"/>
        </g>
        <g id="path-7-2" data-name="path-7">
          <path d="M183.18,317.78c-27.69,0-50.22-22.27-50.22-49.64s22.53-49.64,50.22-49.64,50.22,22.27,50.22,49.64-22.53,49.64-50.22,49.64ZM183.18,231.86c-20.33,0-36.87,16.28-36.87,36.29s16.54,36.29,36.87,36.29,36.87-16.28,36.87-36.29-16.54-36.29-36.87-36.29Z" fill="#7b4dff"/>
        </g>
      </g>
    </g>
    <g id="Clipped">
      <g id="Group">
        <g id="Mask-2" data-name="Mask">
          <ellipse id="path-8" cx="183.18" cy="268.14" rx="43.54" ry="42.96" fill="#fff"/>
        </g>
        <g mask="url(#mask)">
          <g>
            <g id="Head_Front_Short-Beard" data-name="Head/Front/Short-Beard">
              <g id="Head">
                <g id="Path">
                  <path d="M168.6,239.78c-5.07,7.73-6.35,28.33-.84,30.27,2.19.77,7.1-.22,12.22-2.73l-4.94,21.31,18.04,1.58-3.68-29.45c3.82-3.76,6.6-8.53,6.69-14.13.28-16.16-22.43-14.59-27.49-6.86Z" fill="#b28b67"/>
                </g>
              </g>
              <g id="Hair">
                <path d="M179.07,232.74c-5.1,0-9.75,1.14-11.12,1.94-.42,4.78.39,6.29,8.33,6.85,1.86,1.2,3.2,3.1,4.56,5.56-1.53,9.54-3.78,14.19-6.74,13.93-4.44-.39-7.97-3.54-9.92-3.71-1.42-.12-1.26,1.68-.43,3.08.68,1.15,4.38,2.53,4.23,4.22-.15,1.68-3.02.12-3.11,1.12-.14,1.65-.94,4.71,1.93,4.96,2.91.25,11.34-.07,13.14-4.26,1.17-2.7,2.27-8.41,3.3-17.12.18,0,.36,0,.54.01,2.49.22,4.33,2.41,4.12,4.9-.11,1.26-.73,2.36-1.64,3.1.91,1.56,1.95,3.2,3.15,4.9,5.3-2.58,9.81-11.08,5.63-19.99-1-4.27-3.88-6.76-7.43-8.11-2.84-1.49-5.89-1.89-8.53-1.38Z" fill="#7b4dff"/>
              </g>
            </g>
            <g id="Body_Hoodie" data-name="Body/Hoodie">
              <g id="Skin">
                <path d="M227.85,344.94l-15.77.06c9.74,31.38,14.99,48.03,15.77,49.95,1.75,4.32-1.95,10.9-3.53,14.44,5.15,2.3,4.6-6.22,11.09-3.2,5.93,2.75,10.43,7.74,17.28,3.52.84-.52,1.76-2.47-.46-4-5.55-3.8-13.55-10.45-14.63-12.64-1.47-2.99-4.72-19.03-9.74-48.13h0ZM135.43,344.33l-24.07,17.65c-6.53,1.76-11.98,3.95-16.36,6.56-1.03.94-2.29,2.85,2.01,2.52,4.29-.33,8.82-.48,9.41.98s-2,3.21-.81,5.18c.8,1.31,4.57-1.98,11.31-9.89l23.84-9.87-5.32-13.13Z" fill="#b28b67"/>
              </g>
              <g id="Coat-Back">
                <path d="M183.04,278.88l-6.52-1.12c-24.21,20.88-34.15,60.99-63.83,82.24l7.14,8.84c51.48-6.36,64.24-55.29,63.21-89.96Z" fill="#7b4dff"/>
              </g>
              <g id="Shirt">
                <path d="M211.48,360.75h-57.73c-2.64,0-2.14-3.8-1.76-5.72,4.4-22.15,21.58-46.03,21.58-77.56l16.65-2.61c13.77,22.12,18.54,49.35,21.26,85.89Z" fill="#7b4dff"/>
              </g>
              <g id="Coat-Front">
                <path d="M191.48,274.86c-.56,0-1.08.04-1.55.11l-5.22.3c-14.96,50.61-19.08,84.38-12.38,101.3h45.44c2.69,6.27,5.27,11.54,7.73,15.82h12.38c1.17-37.62-7.79-69.55-26.87-95.79,2.42-.69,4.33-2.31,5.75-4.86,6.09-10.97,3.89-17-2.62-18.99-6.5-1.98-12.31,2.1-22.67,2.1Z" fill="#7b4dff"/>
              </g>
              <g id="Shade" opacity=".1">
                <path d="M200.92,376.57h16.86c-3.14-7.31-6.44-15.98-9.9-25.99-1.43,11.94-3.75,20.6-6.97,25.99Z"/>
              </g>
            </g>
          </g>
        </g>
      </g>
    </g>
  </g>
  <g>
    <line x1="31.06" y1="132.92" x2="136.71" y2="197.99" fill="none" stroke="#ffab50" stroke-dasharray="0 5.67" stroke-linecap="round" stroke-linejoin="round" stroke-width="2.83"/>
    <line x1="141.35" y1="134.95" x2="36.57" y2="196.25" fill="none" stroke="#ffab50" stroke-dasharray="0 5.67" stroke-linecap="round" stroke-linejoin="round" stroke-width="2.83"/>
    <line x1="85.38" y1="99.08" x2="85.38" y2="224.59" fill="none" stroke="#ffab50" stroke-dasharray="0 5.67" stroke-linecap="round" stroke-linejoin="round" stroke-width="2.83"/>
    <g>
      <g id="Oval-Copy-4">
        <path d="M85.12,121c-11.64,0-21.1-9.47-21.1-21.1s9.47-21.1,21.1-21.1,21.1,9.47,21.1,21.1-9.47,21.1-21.1,21.1Z" fill="#b094ff" fill-rule="evenodd"/>
        <path d="M85.12,80.21c10.87,0,19.68,8.81,19.68,19.68s-8.81,19.68-19.68,19.68-19.68-8.81-19.68-19.68,8.81-19.68,19.68-19.68M85.12,77.38c-12.42,0-22.52,10.1-22.52,22.52s10.1,22.52,22.52,22.52,22.52-10.1,22.52-22.52-10.1-22.52-22.52-22.52h0Z" fill="#fff"/>
      </g>
      <path id="h" d="M85.95,103.86l1.96-3.92.87,1.74h5.21c.95-1.1,1.49-2.48,1.49-3.95,0-3.91-3.4-6.16-6.21-6.16-1.44,0-2.8.49-3.9,1.38-1.09-.89-2.46-1.38-3.9-1.38-2.81,0-6.21,2.25-6.21,6.16,0,1.47.54,2.85,1.49,3.95h4.61l1.18-2.83,2.25,4.99c.22.49.9.5,1.14.02ZM85.41,102.11l-2.3-5.1c-.22-.51-.95-.49-1.16.02l-1.42,3.4h-2.36c-2.32-2.74-.28-6.95,3.31-6.95,1.22,0,2.01.24,3.9,2.11,2.02-1.99,2.73-2.11,3.9-2.11,3.6,0,5.63,4.2,3.31,6.95h-3.03l-1.09-2.18c-.23-.47-.9-.47-1.13,0l-1.93,3.87ZM87.13,108.54l5.66-5.6h-2.69l-4.3,4.25c-.23.23-.6.23-.83,0l-4.3-4.25h-2.69l5.66,5.6c.97.96,2.52.96,3.49,0Z" fill="#fff"/>
    </g>
    <g>
      <g id="Oval-Copy-4-2" data-name="Oval-Copy-4">
        <path d="M85.03,247.29c-11.64,0-21.1-9.47-21.1-21.1s9.47-21.1,21.1-21.1,21.1,9.47,21.1,21.1-9.47,21.1-21.1,21.1Z" fill="#b094ff" fill-rule="evenodd"/>
        <path d="M85.03,206.51c10.87,0,19.68,8.81,19.68,19.68s-8.81,19.68-19.68,19.68-19.68-8.81-19.68-19.68,8.81-19.68,19.68-19.68M85.03,203.67c-12.42,0-22.52,10.1-22.52,22.52s10.1,22.52,22.52,22.52,22.52-10.1,22.52-22.52-10.1-22.52-22.52-22.52h0Z" fill="#fff"/>
      </g>
      <path id="r" d="M87.46,218.98c1.39,0,2.52-1.13,2.52-2.52s-1.13-2.52-2.52-2.52-2.52,1.13-2.52,2.52,1.13,2.52,2.52,2.52ZM86.2,240.84c.55,0,1.05-.36,1.21-.91l1.75-5.49c.36-1.27-.17-2.64-1.31-3.33l-2.72-1.64,2.2-5.51c.14.19.27.4.34.63l.73,2.41c.38,1.24,1.51,2.08,2.81,2.09h2.54s0,0,0,0c.7,0,1.26-.56,1.26-1.26,0-.7-.56-1.26-1.26-1.27h-2.54c-.19,0-.35-.13-.4-.31l-.73-2.41c-.48-1.59-1.79-2.8-3.41-3.17l-4.11-.93c-1.35-.31-2.76,0-3.85.85l-2.54,1.96c-.55.43-.65,1.22-.23,1.77.42.55,1.22.65,1.77.23l2.54-1.96c.5-.39,1.14-.52,1.75-.39l.78.18-1.85,4.59c-.54,1.35-.04,2.87,1.21,3.62l4.4,2.66c.11.07.2.23.2.36,0,.03,0,.08-.02.12l-1.75,5.49c-.19.67.2,1.37.87,1.56.12.03.23.05.35.05ZM78.36,235.8c1.18,0,2.24-.7,2.71-1.78l.71-1.66-.5-.3c-.62-.38-1.12-.89-1.49-1.46l-1.04,2.43c-.07.16-.22.26-.39.26h-3.94c-.7,0-1.26.56-1.26,1.26s.57,1.26,1.26,1.26h3.94Z" fill="#fff"/>
    </g>
    <g>
      <g id="Oval-2" data-name="Oval">
        <path d="M137.16,158.12c-11.64,0-21.1-9.47-21.1-21.1s9.47-21.1,21.1-21.1,21.1,9.47,21.1,21.1-9.47,21.1-21.1,21.1Z" fill="#b094ff" fill-rule="evenodd"/>
        <path d="M137.16,117.33c10.87,0,19.68,8.81,19.68,19.68s-8.81,19.68-19.68,19.68-19.68-8.81-19.68-19.68,8.81-19.68,19.68-19.68M137.16,114.5c-12.42,0-22.52,10.1-22.52,22.52s10.1,22.52,22.52,22.52,22.52-10.1,22.52-22.52-10.1-22.52-22.52-22.52h0Z" fill="#fff"/>
      </g>
      <path id="i" d="M146.43,141.44c1.05,0,1.89-.85,1.89-1.89v-10.11c0-1.05-.85-1.89-1.89-1.89h-15.16c-1.05,0-1.89.85-1.89,1.89v10.11c0,1.05.85,1.89,1.89,1.89h15.16ZM146.19,139.54h-14.69c-.13,0-.24-.11-.24-.24v-9.63c0-.13.11-.24.24-.24h14.69c.13,0,.24.11.24.24v9.63c0,.13-.11.24-.24.24ZM134.43,133.54c.87,0,1.58-.71,1.58-1.58s-.71-1.58-1.58-1.58-1.58.71-1.58,1.58.71,1.58,1.58,1.58ZM142.64,145.23c1.05,0,1.89-.85,1.89-1.89v-.63h-1.89v.39c0,.13-.11.24-.24.24h-14.69c-.13,0-.24-.11-.24-.24v-9.63c0-.13.11-.24.24-.24h.39v-1.89h-.63c-1.05,0-1.89.85-1.89,1.89v10.11c0,1.05.85,1.89,1.89,1.89h15.16ZM144.53,137.65v-3.16l-2.82-2.82c-.19-.19-.49-.19-.67,0l-4.09,4.09-1.56-1.56c-.19-.19-.49-.19-.67,0l-1.56,1.56v1.89h11.37Z" fill="#fff"/>
    </g>
    <g>
      <g id="Oval-Copy-3">
        <path d="M135.07,215.31c-11.63,0-21.1-9.47-21.1-21.1s9.47-21.1,21.1-21.1,21.1,9.47,21.1,21.1-9.47,21.1-21.1,21.1Z" fill="#b094ff" fill-rule="evenodd"/>
        <path d="M135.07,174.52c10.87,0,19.68,8.81,19.68,19.68s-8.81,19.68-19.68,19.68-19.68-8.81-19.68-19.68,8.81-19.68,19.68-19.68M135.07,171.69c-12.42,0-22.52,10.1-22.52,22.52s10.1,22.52,22.52,22.52,22.52-10.1,22.52-22.52-10.1-22.52-22.52-22.52h0Z" fill="#fff"/>
      </g>
      <path id="m-4" data-name="m" d="M127.86,203.68c1.95,0,3.54-1.23,3.75-2.81.03-.11.04-.22.04-.34,0,0,0,0,0-.01v-6.95l10.74-3.39v5.09c-.56-.27-1.2-.44-1.89-.44-2.09,0-3.79,1.41-3.79,3.16s1.7,3.16,3.79,3.16c1.95,0,3.54-1.23,3.75-2.81.02-.1.04-.21.04-.32v-.03h0s0,0,0,0v-13.26c0-.72-.59-1.26-1.26-1.26-.13,0-.25.02-.38.06l-12,3.79c-.52.17-.88.65-.88,1.2v9.28c-.56-.27-1.2-.44-1.89-.44-2.09,0-3.79,1.41-3.79,3.16s1.7,3.16,3.79,3.16ZM131.65,191.58v-2.6l10.74-3.39v2.6l-10.74,3.39ZM140.5,199.26c-1.12,0-1.89-.67-1.89-1.26s.78-1.26,1.89-1.26,1.89.67,1.89,1.26h0c0,.6-.78,1.26-1.89,1.26ZM127.86,201.78c-1.12,0-1.89-.67-1.89-1.26s.78-1.26,1.89-1.26,1.89.67,1.89,1.26-.78,1.26-1.89,1.26Z" fill="#fff"/>
    </g>
    <g>
      <g id="Oval-Copy">
        <path d="M37.2,216.72c-11.64,0-21.1-9.47-21.1-21.1s9.47-21.1,21.1-21.1,21.1,9.47,21.1,21.1-9.47,21.1-21.1,21.1Z" fill="#b094ff" fill-rule="evenodd"/>
        <path d="M37.2,175.94c10.87,0,19.68,8.81,19.68,19.68s-8.81,19.68-19.68,19.68-19.68-8.81-19.68-19.68,8.81-19.68,19.68-19.68M37.2,173.1c-12.42,0-22.52,10.1-22.52,22.52s10.1,22.52,22.52,22.52,22.52-10.1,22.52-22.52-10.1-22.52-22.52-22.52h0Z" fill="#fff"/>
      </g>
      <path id="f" d="M43.52,205.1c1.05,0,1.9-.85,1.9-1.89v-13.11c0-.5-.21-.99-.56-1.34l-3.31-3.31c-.36-.36-.84-.56-1.34-.56h-8.05c-1.05,0-1.89.85-1.89,1.9v16.42c0,1.05.85,1.89,1.89,1.89h11.37ZM43.52,203.2h-11.37v-16.42h6.32v4.11c0,.53.42.95.95.95h4.11v11.37ZM43.36,189.94h-3v-3l3,3ZM38.78,201.31c.17,0,.32-.14.32-.32v-2.21h2.21c.17,0,.32-.14.32-.32v-1.89c0-.17-.14-.32-.32-.32h-2.21v-2.21c0-.17-.14-.32-.32-.32h-1.89c-.17,0-.32.14-.32.32v2.21h-2.21c-.17,0-.32.14-.32.32v1.89c0,.17.14.32.32.32h2.21v2.21c0,.17.14.32.32.32h1.89Z" fill="#fff"/>
    </g>
    <g>
      <g id="Oval-Copy-5">
        <path d="M33.84,157.14c-11.64,0-21.1-9.47-21.1-21.1s9.47-21.1,21.1-21.1,21.1,9.47,21.1,21.1-9.47,21.1-21.1,21.1Z" fill="#b094ff" fill-rule="evenodd"/>
        <path d="M33.84,116.35c10.87,0,19.68,8.81,19.68,19.68s-8.81,19.68-19.68,19.68-19.68-8.81-19.68-19.68,8.81-19.68,19.68-19.68M33.84,113.52c-12.42,0-22.52,10.1-22.52,22.52s10.1,22.52,22.52,22.52,22.52-10.1,22.52-22.52-10.1-22.52-22.52-22.52h0Z" fill="#fff"/>
      </g>
      <path id="c-2" data-name="c" d="M40.17,144.72c.96,0,1.73-.78,1.73-1.73v-12.7c0-.96-.78-1.73-1.73-1.73h-1.73v-1.88c0-.24-.19-.43-.43-.43h-1.44c-.24,0-.43.19-.43.43v1.88h-4.62v-1.88c0-.24-.19-.43-.43-.43h-1.44c-.24,0-.43.19-.43.43v1.88h-1.73c-.96,0-1.73.78-1.73,1.73v12.7c0,.96.78,1.73,1.73,1.73h12.7ZM39.95,142.98h-12.27c-.12,0-.22-.1-.22-.22v-10.75h12.7v10.75c0,.12-.1.22-.22.22Z" fill="#fff"/>
    </g>
    <g>
      <rect x="72.46" y="137.94" width="26.04" height="46.59" fill="#fff"/>
      <path d="M97.16,187.38c2.64,0,4.79-2.14,4.79-4.79v-41.51c0-2.64-2.14-4.79-4.79-4.79h-22.35c-2.64,0-4.79,2.14-4.79,4.79v41.51c0,2.64,2.14,4.79,4.79,4.79h22.35ZM97.04,183.76h-22.12c-.35,0-.63-.28-.63-.63v-42.59c0-.34.28-.63.63-.63h22.12c.35,0,.63.28.63.63v42.58c0,.35-.28.63-.63.63ZM85.57,180.97c2.09.26,3.84-1.49,3.58-3.58-.18-1.42-1.34-2.58-2.75-2.75-2.09-.26-3.84,1.49-3.58,3.58.18,1.42,1.34,2.58,2.75,2.75Z" fill="#ffab50"/>
    </g>
  </g>
  <g>
    <line x1="219.78" y1="132.92" x2="325.43" y2="197.99" fill="none" stroke="#362b48" stroke-dasharray="0 5.67" stroke-linecap="round" stroke-linejoin="round" stroke-width="2.83"/>
    <line x1="330.07" y1="134.95" x2="225.29" y2="196.25" fill="none" stroke="#362b48" stroke-dasharray="0 5.67" stroke-linecap="round" stroke-linejoin="round" stroke-width="2.83"/>
    <line x1="274.1" y1="99.08" x2="274.1" y2="224.59" fill="none" stroke="#362b48" stroke-dasharray="0 5.67" stroke-linecap="round" stroke-linejoin="round" stroke-width="2.83"/>
    <g>
      <g id="Oval-Copy-4-3" data-name="Oval-Copy-4">
        <path d="M273.84,121c-11.63,0-21.1-9.47-21.1-21.1s9.47-21.1,21.1-21.1,21.1,9.47,21.1,21.1-9.47,21.1-21.1,21.1Z" fill="#b094ff" fill-rule="evenodd"/>
        <path d="M273.84,80.21c10.87,0,19.68,8.81,19.68,19.68s-8.81,19.68-19.68,19.68-19.68-8.81-19.68-19.68,8.81-19.68,19.68-19.68M273.84,77.38c-12.42,0-22.52,10.1-22.52,22.52s10.1,22.52,22.52,22.52,22.52-10.1,22.52-22.52-10.1-22.52-22.52-22.52h0Z" fill="#fff"/>
      </g>
      <path id="h-2" data-name="h" d="M274.67,103.86l1.96-3.92.87,1.74h5.21c.95-1.1,1.49-2.48,1.49-3.95,0-3.91-3.4-6.16-6.21-6.16-1.44,0-2.8.49-3.9,1.38-1.09-.89-2.46-1.38-3.9-1.38-2.81,0-6.21,2.25-6.21,6.16,0,1.47.54,2.85,1.49,3.95h4.61l1.18-2.83,2.25,4.99c.22.49.9.5,1.14.02ZM274.13,102.11l-2.3-5.1c-.22-.51-.95-.49-1.16.02l-1.42,3.4h-2.36c-2.32-2.74-.28-6.95,3.31-6.95,1.22,0,2.01.24,3.9,2.11,2.02-1.99,2.73-2.11,3.9-2.11,3.6,0,5.63,4.2,3.31,6.95h-3.03l-1.09-2.18c-.23-.47-.9-.47-1.13,0l-1.93,3.87ZM275.85,108.54l5.66-5.6h-2.69l-4.3,4.25c-.23.23-.6.23-.83,0l-4.3-4.25h-2.69l5.66,5.6c.97.96,2.52.96,3.49,0Z" fill="#fff"/>
    </g>
    <g>
      <g id="Oval-Copy-4-4" data-name="Oval-Copy-4">
        <path d="M273.75,247.29c-11.63,0-21.1-9.47-21.1-21.1s9.47-21.1,21.1-21.1,21.1,9.47,21.1,21.1-9.47,21.1-21.1,21.1Z" fill="#b094ff" fill-rule="evenodd"/>
        <path d="M273.75,206.51c10.87,0,19.68,8.81,19.68,19.68s-8.81,19.68-19.68,19.68-19.68-8.81-19.68-19.68,8.81-19.68,19.68-19.68M273.75,203.67c-12.42,0-22.52,10.1-22.52,22.52s10.1,22.52,22.52,22.52,22.52-10.1,22.52-22.52-10.1-22.52-22.52-22.52h0Z" fill="#fff"/>
      </g>
      <path id="r-2" data-name="r" d="M276.18,218.98c1.39,0,2.52-1.13,2.52-2.52s-1.13-2.52-2.52-2.52-2.52,1.13-2.52,2.52,1.13,2.52,2.52,2.52ZM274.92,240.84c.55,0,1.05-.36,1.21-.91l1.75-5.49c.36-1.27-.17-2.64-1.31-3.33l-2.72-1.64,2.2-5.51c.14.19.27.4.34.63l.73,2.41c.38,1.24,1.51,2.08,2.81,2.09h2.54s0,0,0,0c.7,0,1.26-.56,1.26-1.26,0-.7-.56-1.26-1.26-1.27h-2.54c-.19,0-.35-.13-.4-.31l-.73-2.41c-.48-1.59-1.79-2.8-3.41-3.17l-4.11-.93c-1.35-.31-2.76,0-3.85.85l-2.54,1.96c-.55.43-.65,1.22-.23,1.77.42.55,1.22.65,1.77.23l2.54-1.96c.5-.39,1.14-.52,1.75-.39l.78.18-1.85,4.59c-.54,1.35-.04,2.87,1.21,3.62l4.4,2.66c.11.07.2.23.2.36,0,.03,0,.08-.02.12l-1.75,5.49c-.19.67.2,1.37.87,1.56.12.03.23.05.35.05ZM267.08,235.8c1.18,0,2.24-.7,2.71-1.78l.71-1.66-.5-.3c-.62-.38-1.12-.89-1.49-1.46l-1.04,2.43c-.07.16-.22.26-.39.26h-3.94c-.7,0-1.26.56-1.26,1.26s.57,1.26,1.26,1.26h3.94Z" fill="#fff"/>
    </g>
    <g>
      <g id="Oval-3" data-name="Oval">
        <path d="M325.88,158.12c-11.63,0-21.1-9.47-21.1-21.1s9.47-21.1,21.1-21.1,21.1,9.47,21.1,21.1-9.47,21.1-21.1,21.1Z" fill="#b094ff" fill-rule="evenodd"/>
        <path d="M325.88,117.33c10.87,0,19.68,8.81,19.68,19.68s-8.81,19.68-19.68,19.68-19.68-8.81-19.68-19.68,8.81-19.68,19.68-19.68M325.88,114.5c-12.42,0-22.52,10.1-22.52,22.52s10.1,22.52,22.52,22.52,22.52-10.1,22.52-22.52-10.1-22.52-22.52-22.52h0Z" fill="#fff"/>
      </g>
      <path id="i-2" data-name="i" d="M335.15,141.44c1.05,0,1.89-.85,1.89-1.89v-10.11c0-1.05-.85-1.89-1.89-1.89h-15.16c-1.05,0-1.89.85-1.89,1.89v10.11c0,1.05.85,1.89,1.89,1.89h15.16ZM334.91,139.54h-14.69c-.13,0-.24-.11-.24-.24v-9.63c0-.13.11-.24.24-.24h14.69c.13,0,.24.11.24.24v9.63c0,.13-.11.24-.24.24ZM323.15,133.54c.87,0,1.58-.71,1.58-1.58s-.71-1.58-1.58-1.58-1.58.71-1.58,1.58.71,1.58,1.58,1.58ZM331.36,145.23c1.05,0,1.89-.85,1.89-1.89v-.63h-1.89v.39c0,.13-.11.24-.24.24h-14.69c-.13,0-.24-.11-.24-.24v-9.63c0-.13.11-.24.24-.24h.39v-1.89h-.63c-1.05,0-1.89.85-1.89,1.89v10.11c0,1.05.85,1.89,1.89,1.89h15.16ZM333.25,137.65v-3.16l-2.82-2.82c-.19-.19-.49-.19-.67,0l-4.09,4.09-1.56-1.56c-.19-.19-.49-.19-.67,0l-1.56,1.56v1.89h11.37Z" fill="#fff"/>
    </g>
    <g>
      <g id="Oval-Copy-3-2" data-name="Oval-Copy-3">
        <path d="M323.79,215.31c-11.63,0-21.1-9.47-21.1-21.1s9.47-21.1,21.1-21.1,21.1,9.47,21.1,21.1-9.47,21.1-21.1,21.1Z" fill="#b094ff" fill-rule="evenodd"/>
        <path d="M323.79,174.52c10.87,0,19.68,8.81,19.68,19.68s-8.81,19.68-19.68,19.68-19.68-8.81-19.68-19.68,8.81-19.68,19.68-19.68M323.79,171.69c-12.42,0-22.52,10.1-22.52,22.52s10.1,22.52,22.52,22.52,22.52-10.1,22.52-22.52-10.1-22.52-22.52-22.52h0Z" fill="#fff"/>
      </g>
      <path id="m-5" data-name="m" d="M316.58,203.68c1.95,0,3.54-1.23,3.75-2.81.03-.11.04-.22.04-.34,0,0,0,0,0-.01v-6.95l10.74-3.39v5.09c-.56-.27-1.2-.44-1.89-.44-2.09,0-3.79,1.41-3.79,3.16s1.7,3.16,3.79,3.16c1.95,0,3.54-1.23,3.75-2.81.02-.1.04-.21.04-.32v-.03h0s0,0,0,0v-13.26c0-.72-.59-1.26-1.26-1.26-.13,0-.25.02-.38.06l-12,3.79c-.52.17-.88.65-.88,1.2v9.28c-.56-.27-1.2-.44-1.89-.44-2.09,0-3.79,1.41-3.79,3.16s1.7,3.16,3.79,3.16ZM320.37,191.58v-2.6l10.74-3.39v2.6l-10.74,3.39ZM329.22,199.26c-1.12,0-1.89-.67-1.89-1.26s.78-1.26,1.89-1.26,1.89.67,1.89,1.26h0c0,.6-.78,1.26-1.89,1.26ZM316.58,201.78c-1.12,0-1.89-.67-1.89-1.26s.78-1.26,1.89-1.26,1.89.67,1.89,1.26-.78,1.26-1.89,1.26Z" fill="#fff"/>
    </g>
    <g>
      <g id="Oval-Copy-2" data-name="Oval-Copy">
        <path d="M225.92,216.72c-11.63,0-21.1-9.47-21.1-21.1s9.47-21.1,21.1-21.1,21.1,9.47,21.1,21.1-9.47,21.1-21.1,21.1Z" fill="#b094ff" fill-rule="evenodd"/>
        <path d="M225.92,175.94c10.87,0,19.68,8.81,19.68,19.68s-8.81,19.68-19.68,19.68-19.68-8.81-19.68-19.68,8.81-19.68,19.68-19.68M225.92,173.1c-12.42,0-22.52,10.1-22.52,22.52s10.1,22.52,22.52,22.52,22.52-10.1,22.52-22.52-10.1-22.52-22.52-22.52h0Z" fill="#fff"/>
      </g>
      <path id="f-2" data-name="f" d="M232.24,205.1c1.05,0,1.9-.85,1.9-1.89v-13.11c0-.5-.21-.99-.56-1.34l-3.31-3.31c-.36-.36-.84-.56-1.34-.56h-8.05c-1.05,0-1.89.85-1.89,1.9v16.42c0,1.05.85,1.89,1.89,1.89h11.37ZM232.24,203.2h-11.37v-16.42h6.32v4.11c0,.53.42.95.95.95h4.11v11.37ZM232.08,189.94h-3v-3l3,3ZM227.5,201.31c.17,0,.32-.14.32-.32v-2.21h2.21c.17,0,.32-.14.32-.32v-1.89c0-.17-.14-.32-.32-.32h-2.21v-2.21c0-.17-.14-.32-.32-.32h-1.89c-.17,0-.32.14-.32.32v2.21h-2.21c-.17,0-.32.14-.32.32v1.89c0,.17.14.32.32.32h2.21v2.21c0,.17.14.32.32.32h1.89Z" fill="#fff"/>
    </g>
    <g>
      <g id="Oval-Copy-5-2" data-name="Oval-Copy-5">
        <path d="M222.56,157.14c-11.64,0-21.1-9.47-21.1-21.1s9.47-21.1,21.1-21.1,21.1,9.47,21.1,21.1-9.47,21.1-21.1,21.1Z" fill="#b094ff" fill-rule="evenodd"/>
        <path d="M222.56,116.35c10.87,0,19.68,8.81,19.68,19.68s-8.81,19.68-19.68,19.68-19.68-8.81-19.68-19.68,8.81-19.68,19.68-19.68M222.56,113.52c-12.42,0-22.52,10.1-22.52,22.52s10.1,22.52,22.52,22.52,22.52-10.1,22.52-22.52-10.1-22.52-22.52-22.52h0Z" fill="#fff"/>
      </g>
      <path id="c-3" data-name="c" d="M228.89,144.72c.96,0,1.73-.78,1.73-1.73v-12.7c0-.96-.78-1.73-1.73-1.73h-1.73v-1.88c0-.24-.19-.43-.43-.43h-1.44c-.24,0-.43.19-.43.43v1.88h-4.62v-1.88c0-.24-.19-.43-.43-.43h-1.44c-.24,0-.43.19-.43.43v1.88h-1.73c-.96,0-1.73.78-1.73,1.73v12.7c0,.96.78,1.73,1.73,1.73h12.7ZM228.67,142.98h-12.27c-.12,0-.22-.1-.22-.22v-10.75h12.7v10.75c0,.12-.1.22-.22.22Z" fill="#fff"/>
    </g>
    <g>
      <rect x="261.18" y="137.94" width="26.04" height="46.59" fill="#fff"/>
      <path d="M285.88,187.38c2.64,0,4.79-2.14,4.79-4.79v-41.51c0-2.64-2.14-4.79-4.79-4.79h-22.35c-2.64,0-4.79,2.14-4.79,4.79v41.51c0,2.64,2.14,4.79,4.79,4.79h22.35ZM285.76,183.76h-22.12c-.35,0-.63-.28-.63-.63v-42.59c0-.34.28-.63.63-.63h22.12c.35,0,.63.28.63.63v42.58c0,.35-.28.63-.63.63ZM274.29,180.97c2.09.26,3.84-1.49,3.58-3.58-.18-1.42-1.34-2.58-2.75-2.75-2.09-.26-3.84,1.49-3.58,3.58.18,1.42,1.34,2.58,2.75,2.75Z" fill="#362b48"/>
    </g>
  </g>
  <g>
    <line x1="31.06" y1="338.92" x2="136.71" y2="404" fill="none" stroke="#d4cde0" stroke-dasharray="0 5.67" stroke-linecap="round" stroke-linejoin="round" stroke-width="2.83"/>
    <line x1="141.35" y1="340.95" x2="36.57" y2="402.26" fill="none" stroke="#d4cde0" stroke-dasharray="0 5.67" stroke-linecap="round" stroke-linejoin="round" stroke-width="2.83"/>
    <line x1="85.38" y1="305.08" x2="85.38" y2="430.59" fill="none" stroke="#d4cde0" stroke-dasharray="0 5.67" stroke-linecap="round" stroke-linejoin="round" stroke-width="2.83"/>
    <g>
      <g id="Oval-Copy-4-5" data-name="Oval-Copy-4">
        <path d="M85.12,327c-11.64,0-21.1-9.47-21.1-21.1s9.47-21.1,21.1-21.1,21.1,9.47,21.1,21.1-9.47,21.1-21.1,21.1Z" fill="#b094ff" fill-rule="evenodd"/>
        <path d="M85.12,286.21c10.87,0,19.68,8.81,19.68,19.68s-8.81,19.68-19.68,19.68-19.68-8.81-19.68-19.68,8.81-19.68,19.68-19.68M85.12,283.38c-12.42,0-22.52,10.1-22.52,22.52s10.1,22.52,22.52,22.52,22.52-10.1,22.52-22.52-10.1-22.52-22.52-22.52h0Z" fill="#fff"/>
      </g>
      <path id="h-3" data-name="h" d="M85.95,309.87l1.96-3.92.87,1.74h5.21c.95-1.1,1.49-2.48,1.49-3.95,0-3.91-3.4-6.16-6.21-6.16-1.44,0-2.8.49-3.9,1.38-1.09-.89-2.46-1.38-3.9-1.38-2.81,0-6.21,2.25-6.21,6.16,0,1.47.54,2.85,1.49,3.95h4.61l1.18-2.83,2.25,4.99c.22.49.9.5,1.14.02ZM85.41,308.11l-2.3-5.1c-.22-.51-.95-.49-1.16.02l-1.42,3.4h-2.36c-2.32-2.74-.28-6.95,3.31-6.95,1.22,0,2.01.24,3.9,2.11,2.02-1.99,2.73-2.11,3.9-2.11,3.6,0,5.63,4.2,3.31,6.95h-3.03l-1.09-2.18c-.23-.47-.9-.47-1.13,0l-1.93,3.87ZM87.13,314.55l5.66-5.6h-2.69l-4.3,4.25c-.23.23-.6.23-.83,0l-4.3-4.25h-2.69l5.66,5.6c.97.96,2.52.96,3.49,0Z" fill="#fff"/>
    </g>
    <g>
      <g id="Oval-Copy-4-6" data-name="Oval-Copy-4">
        <path d="M85.03,453.29c-11.64,0-21.1-9.47-21.1-21.1s9.47-21.1,21.1-21.1,21.1,9.47,21.1,21.1-9.47,21.1-21.1,21.1Z" fill="#b094ff" fill-rule="evenodd"/>
        <path d="M85.03,412.51c10.87,0,19.68,8.81,19.68,19.68s-8.81,19.68-19.68,19.68-19.68-8.81-19.68-19.68,8.81-19.68,19.68-19.68M85.03,409.67c-12.42,0-22.52,10.1-22.52,22.52s10.1,22.52,22.52,22.52,22.52-10.1,22.52-22.52-10.1-22.52-22.52-22.52h0Z" fill="#fff"/>
      </g>
      <path id="r-3" data-name="r" d="M87.46,424.98c1.39,0,2.52-1.13,2.52-2.52s-1.13-2.52-2.52-2.52-2.52,1.13-2.52,2.52,1.13,2.52,2.52,2.52ZM86.2,446.84c.55,0,1.05-.36,1.21-.91l1.75-5.49c.36-1.27-.17-2.64-1.31-3.33l-2.72-1.64,2.2-5.51c.14.19.27.4.34.63l.73,2.41c.38,1.24,1.51,2.08,2.81,2.09h2.54s0,0,0,0c.7,0,1.26-.56,1.26-1.26,0-.7-.56-1.26-1.26-1.27h-2.54c-.19,0-.35-.13-.4-.31l-.73-2.41c-.48-1.59-1.79-2.8-3.41-3.17l-4.11-.93c-1.35-.31-2.76,0-3.85.85l-2.54,1.96c-.55.43-.65,1.22-.23,1.77.42.55,1.22.65,1.77.23l2.54-1.96c.5-.39,1.14-.52,1.75-.39l.78.18-1.85,4.59c-.54,1.35-.04,2.87,1.21,3.62l4.4,2.66c.11.07.2.23.2.36,0,.03,0,.08-.02.12l-1.75,5.49c-.19.67.2,1.37.87,1.56.12.03.23.05.35.05ZM78.36,441.8c1.18,0,2.24-.7,2.71-1.78l.71-1.66-.5-.3c-.62-.38-1.12-.89-1.49-1.46l-1.04,2.43c-.07.16-.22.26-.39.26h-3.94c-.7,0-1.26.56-1.26,1.26s.57,1.26,1.26,1.26h3.94Z" fill="#fff"/>
    </g>
    <g>
      <g id="Oval-4" data-name="Oval">
        <path d="M137.16,364.12c-11.64,0-21.1-9.47-21.1-21.1s9.47-21.1,21.1-21.1,21.1,9.47,21.1,21.1-9.47,21.1-21.1,21.1Z" fill="#b094ff" fill-rule="evenodd"/>
        <path d="M137.16,323.34c10.87,0,19.68,8.81,19.68,19.68s-8.81,19.68-19.68,19.68-19.68-8.81-19.68-19.68,8.81-19.68,19.68-19.68M137.16,320.5c-12.42,0-22.52,10.1-22.52,22.52s10.1,22.52,22.52,22.52,22.52-10.1,22.52-22.52-10.1-22.52-22.52-22.52h0Z" fill="#fff"/>
      </g>
      <path id="i-3" data-name="i" d="M146.43,347.44c1.05,0,1.89-.85,1.89-1.89v-10.11c0-1.05-.85-1.89-1.89-1.89h-15.16c-1.05,0-1.89.85-1.89,1.89v10.11c0,1.05.85,1.89,1.89,1.89h15.16ZM146.19,345.55h-14.69c-.13,0-.24-.11-.24-.24v-9.63c0-.13.11-.24.24-.24h14.69c.13,0,.24.11.24.24v9.63c0,.13-.11.24-.24.24ZM134.43,339.54c.87,0,1.58-.71,1.58-1.58s-.71-1.58-1.58-1.58-1.58.71-1.58,1.58.71,1.58,1.58,1.58ZM142.64,351.23c1.05,0,1.89-.85,1.89-1.89v-.63h-1.89v.39c0,.13-.11.24-.24.24h-14.69c-.13,0-.24-.11-.24-.24v-9.63c0-.13.11-.24.24-.24h.39v-1.89h-.63c-1.05,0-1.89.85-1.89,1.89v10.11c0,1.05.85,1.89,1.89,1.89h15.16ZM144.53,343.65v-3.16l-2.82-2.82c-.19-.19-.49-.19-.67,0l-4.09,4.09-1.56-1.56c-.19-.19-.49-.19-.67,0l-1.56,1.56v1.89h11.37Z" fill="#fff"/>
    </g>
    <g>
      <g id="Oval-Copy-3-3" data-name="Oval-Copy-3">
        <path d="M135.07,421.31c-11.63,0-21.1-9.47-21.1-21.1s9.47-21.1,21.1-21.1,21.1,9.47,21.1,21.1-9.47,21.1-21.1,21.1Z" fill="#b094ff" fill-rule="evenodd"/>
        <path d="M135.07,380.52c10.87,0,19.68,8.81,19.68,19.68s-8.81,19.68-19.68,19.68-19.68-8.81-19.68-19.68,8.81-19.68,19.68-19.68M135.07,377.69c-12.42,0-22.52,10.1-22.52,22.52s10.1,22.52,22.52,22.52,22.52-10.1,22.52-22.52-10.1-22.52-22.52-22.52h0Z" fill="#fff"/>
      </g>
      <path id="m-6" data-name="m" d="M127.86,409.68c1.95,0,3.54-1.23,3.75-2.81.03-.11.04-.22.04-.34,0,0,0,0,0-.01v-6.95l10.74-3.39v5.09c-.56-.27-1.2-.44-1.89-.44-2.09,0-3.79,1.41-3.79,3.16s1.7,3.16,3.79,3.16c1.95,0,3.54-1.23,3.75-2.81.02-.1.04-.21.04-.32v-.03h0s0,0,0,0v-13.26c0-.72-.59-1.26-1.26-1.26-.13,0-.25.02-.38.06l-12,3.79c-.52.17-.88.65-.88,1.2v9.28c-.56-.27-1.2-.44-1.89-.44-2.09,0-3.79,1.41-3.79,3.16s1.7,3.16,3.79,3.16ZM131.65,397.59v-2.6l10.74-3.39v2.6l-10.74,3.39ZM140.5,405.26c-1.12,0-1.89-.67-1.89-1.26s.78-1.26,1.89-1.26,1.89.67,1.89,1.26h0c0,.6-.78,1.26-1.89,1.26ZM127.86,407.79c-1.12,0-1.89-.67-1.89-1.26s.78-1.26,1.89-1.26,1.89.67,1.89,1.26-.78,1.26-1.89,1.26Z" fill="#fff"/>
    </g>
    <g>
      <g id="Oval-Copy-3" data-name="Oval-Copy">
        <path d="M37.2,422.73c-11.64,0-21.1-9.47-21.1-21.1s9.47-21.1,21.1-21.1,21.1,9.47,21.1,21.1-9.47,21.1-21.1,21.1Z" fill="#b094ff" fill-rule="evenodd"/>
        <path d="M37.2,381.94c10.87,0,19.68,8.81,19.68,19.68s-8.81,19.68-19.68,19.68-19.68-8.81-19.68-19.68,8.81-19.68,19.68-19.68M37.2,379.11c-12.42,0-22.52,10.1-22.52,22.52s10.1,22.52,22.52,22.52,22.52-10.1,22.52-22.52-10.1-22.52-22.52-22.52h0Z" fill="#fff"/>
      </g>
      <path id="f-3" data-name="f" d="M43.52,411.1c1.05,0,1.9-.85,1.9-1.89v-13.11c0-.5-.21-.99-.56-1.34l-3.31-3.31c-.36-.36-.84-.56-1.34-.56h-8.05c-1.05,0-1.89.85-1.89,1.9v16.42c0,1.05.85,1.89,1.89,1.89h11.37ZM43.52,409.2h-11.37v-16.42h6.32v4.11c0,.53.42.95.95.95h4.11v11.37ZM43.36,395.94h-3v-3l3,3ZM38.78,407.31c.17,0,.32-.14.32-.32v-2.21h2.21c.17,0,.32-.14.32-.32v-1.89c0-.17-.14-.32-.32-.32h-2.21v-2.21c0-.17-.14-.32-.32-.32h-1.89c-.17,0-.32.14-.32.32v2.21h-2.21c-.17,0-.32.14-.32.32v1.89c0,.17.14.32.32.32h2.21v2.21c0,.17.14.32.32.32h1.89Z" fill="#fff"/>
    </g>
    <g>
      <g id="Oval-Copy-5-3" data-name="Oval-Copy-5">
        <path d="M33.84,363.14c-11.64,0-21.1-9.47-21.1-21.1s9.47-21.1,21.1-21.1,21.1,9.47,21.1,21.1-9.47,21.1-21.1,21.1Z" fill="#b094ff" fill-rule="evenodd"/>
        <path d="M33.84,322.36c10.87,0,19.68,8.81,19.68,19.68s-8.81,19.68-19.68,19.68-19.68-8.81-19.68-19.68,8.81-19.68,19.68-19.68M33.84,319.52c-12.42,0-22.52,10.1-22.52,22.52s10.1,22.52,22.52,22.52,22.52-10.1,22.52-22.52-10.1-22.52-22.52-22.52h0Z" fill="#fff"/>
      </g>
      <path id="c-4" data-name="c" d="M40.17,350.72c.96,0,1.73-.78,1.73-1.73v-12.7c0-.96-.78-1.73-1.73-1.73h-1.73v-1.88c0-.24-.19-.43-.43-.43h-1.44c-.24,0-.43.19-.43.43v1.88h-4.62v-1.88c0-.24-.19-.43-.43-.43h-1.44c-.24,0-.43.19-.43.43v1.88h-1.73c-.96,0-1.73.78-1.73,1.73v12.7c0,.96.78,1.73,1.73,1.73h12.7ZM39.95,348.99h-12.27c-.12,0-.22-.1-.22-.22v-10.75h12.7v10.75c0,.12-.1.22-.22.22Z" fill="#fff"/>
    </g>
    <g>
      <rect x="72.46" y="343.94" width="26.04" height="46.59" fill="#fff"/>
      <path d="M97.16,393.38c2.64,0,4.79-2.14,4.79-4.79v-41.51c0-2.64-2.14-4.79-4.79-4.79h-22.35c-2.64,0-4.79,2.14-4.79,4.79v41.51c0,2.64,2.14,4.79,4.79,4.79h22.35ZM97.04,389.76h-22.12c-.35,0-.63-.28-.63-.63v-42.59c0-.34.28-.63.63-.63h22.12c.35,0,.63.28.63.63v42.58c0,.35-.28.63-.63.63ZM85.57,386.97c2.09.26,3.84-1.49,3.58-3.58-.18-1.42-1.34-2.58-2.75-2.75-2.09-.26-3.84,1.49-3.58,3.58.18,1.42,1.34,2.58,2.75,2.75Z" fill="#d4cde0"/>
    </g>
  </g>
  <g>
    <line x1="223.96" y1="338.92" x2="329.61" y2="404" fill="none" stroke="#ff527f" stroke-dasharray="0 5.67" stroke-linecap="round" stroke-linejoin="round" stroke-width="2.83"/>
    <line x1="334.25" y1="340.95" x2="229.47" y2="402.26" fill="none" stroke="#ff527f" stroke-dasharray="0 5.67" stroke-linecap="round" stroke-linejoin="round" stroke-width="2.83"/>
    <line x1="278.28" y1="305.08" x2="278.28" y2="430.59" fill="none" stroke="#ff527f" stroke-dasharray="0 5.67" stroke-linecap="round" stroke-linejoin="round" stroke-width="2.83"/>
    <g>
      <g id="Oval-Copy-4-7" data-name="Oval-Copy-4">
        <path d="M278.02,327c-11.64,0-21.1-9.47-21.1-21.1s9.47-21.1,21.1-21.1,21.1,9.47,21.1,21.1-9.47,21.1-21.1,21.1Z" fill="#ff97b2" fill-rule="evenodd"/>
        <path d="M278.02,286.21c10.87,0,19.68,8.81,19.68,19.68s-8.81,19.68-19.68,19.68-19.68-8.81-19.68-19.68,8.81-19.68,19.68-19.68M278.02,283.38c-12.42,0-22.52,10.1-22.52,22.52s10.1,22.52,22.52,22.52,22.52-10.1,22.52-22.52-10.1-22.52-22.52-22.52h0Z" fill="#fff"/>
      </g>
      <path id="h-4" data-name="h" d="M278.85,309.87l1.96-3.92.87,1.74h5.21c.95-1.1,1.49-2.48,1.49-3.95,0-3.91-3.4-6.16-6.21-6.16-1.44,0-2.8.49-3.9,1.38-1.09-.89-2.46-1.38-3.9-1.38-2.81,0-6.21,2.25-6.21,6.16,0,1.47.54,2.85,1.49,3.95h4.61l1.18-2.83,2.25,4.99c.22.49.9.5,1.14.02ZM278.31,308.11l-2.3-5.1c-.22-.51-.95-.49-1.16.02l-1.42,3.4h-2.36c-2.32-2.74-.28-6.95,3.31-6.95,1.22,0,2.01.24,3.9,2.11,2.02-1.99,2.73-2.11,3.9-2.11,3.6,0,5.63,4.2,3.31,6.95h-3.03l-1.09-2.18c-.23-.47-.9-.47-1.13,0l-1.93,3.87ZM280.03,314.55l5.66-5.6h-2.69l-4.3,4.25c-.23.23-.6.23-.83,0l-4.3-4.25h-2.69l5.66,5.6c.97.96,2.52.96,3.49,0Z" fill="#fff"/>
    </g>
    <g>
      <g id="Oval-Copy-4-8" data-name="Oval-Copy-4">
        <path d="M277.93,453.29c-11.64,0-21.1-9.47-21.1-21.1s9.47-21.1,21.1-21.1,21.1,9.47,21.1,21.1-9.47,21.1-21.1,21.1Z" fill="#ff97b2" fill-rule="evenodd"/>
        <path d="M277.93,412.51c10.87,0,19.68,8.81,19.68,19.68s-8.81,19.68-19.68,19.68-19.68-8.81-19.68-19.68,8.81-19.68,19.68-19.68M277.93,409.67c-12.42,0-22.52,10.1-22.52,22.52s10.1,22.52,22.52,22.52,22.52-10.1,22.52-22.52-10.1-22.52-22.52-22.52h0Z" fill="#fff"/>
      </g>
      <path id="r-4" data-name="r" d="M280.36,424.98c1.39,0,2.52-1.13,2.52-2.52s-1.13-2.52-2.52-2.52-2.52,1.13-2.52,2.52,1.13,2.52,2.52,2.52ZM279.1,446.84c.55,0,1.05-.36,1.21-.91l1.75-5.49c.36-1.27-.17-2.64-1.31-3.33l-2.72-1.64,2.2-5.51c.14.19.27.4.34.63l.73,2.41c.38,1.24,1.51,2.08,2.81,2.09h2.54s0,0,0,0c.7,0,1.26-.56,1.26-1.26,0-.7-.56-1.26-1.26-1.27h-2.54c-.19,0-.35-.13-.4-.31l-.73-2.41c-.48-1.59-1.79-2.8-3.41-3.17l-4.11-.93c-1.35-.31-2.76,0-3.85.85l-2.54,1.96c-.55.43-.65,1.22-.23,1.77.42.55,1.22.65,1.77.23l2.54-1.96c.5-.39,1.14-.52,1.75-.39l.78.18-1.85,4.59c-.54,1.35-.04,2.87,1.21,3.62l4.4,2.66c.11.07.2.23.2.36,0,.03,0,.08-.02.12l-1.75,5.49c-.19.67.2,1.37.87,1.56.12.03.23.05.35.05ZM271.26,441.8c1.18,0,2.24-.7,2.71-1.78l.71-1.66-.5-.3c-.62-.38-1.12-.89-1.49-1.46l-1.04,2.43c-.07.16-.22.26-.39.26h-3.94c-.7,0-1.26.56-1.26,1.26s.57,1.26,1.26,1.26h3.94Z" fill="#fff"/>
    </g>
    <g>
      <g id="Oval-5" data-name="Oval">
        <path d="M330.06,364.12c-11.63,0-21.1-9.47-21.1-21.1s9.47-21.1,21.1-21.1,21.1,9.47,21.1,21.1-9.47,21.1-21.1,21.1Z" fill="#ff97b2" fill-rule="evenodd"/>
        <path d="M330.06,323.34c10.87,0,19.68,8.81,19.68,19.68s-8.81,19.68-19.68,19.68-19.68-8.81-19.68-19.68,8.81-19.68,19.68-19.68M330.06,320.5c-12.42,0-22.52,10.1-22.52,22.52s10.1,22.52,22.52,22.52,22.52-10.1,22.52-22.52-10.1-22.52-22.52-22.52h0Z" fill="#fff"/>
      </g>
      <path id="i-4" data-name="i" d="M339.33,347.44c1.05,0,1.89-.85,1.89-1.89v-10.11c0-1.05-.85-1.89-1.89-1.89h-15.16c-1.05,0-1.89.85-1.89,1.89v10.11c0,1.05.85,1.89,1.89,1.89h15.16ZM339.09,345.55h-14.69c-.13,0-.24-.11-.24-.24v-9.63c0-.13.11-.24.24-.24h14.69c.13,0,.24.11.24.24v9.63c0,.13-.11.24-.24.24ZM327.33,339.54c.87,0,1.58-.71,1.58-1.58s-.71-1.58-1.58-1.58-1.58.71-1.58,1.58.71,1.58,1.58,1.58ZM335.54,351.23c1.05,0,1.89-.85,1.89-1.89v-.63h-1.89v.39c0,.13-.11.24-.24.24h-14.69c-.13,0-.24-.11-.24-.24v-9.63c0-.13.11-.24.24-.24h.39v-1.89h-.63c-1.05,0-1.89.85-1.89,1.89v10.11c0,1.05.85,1.89,1.89,1.89h15.16ZM337.43,343.65v-3.16l-2.82-2.82c-.19-.19-.49-.19-.67,0l-4.09,4.09-1.56-1.56c-.19-.19-.49-.19-.67,0l-1.56,1.56v1.89h11.37Z" fill="#fff"/>
    </g>
    <g>
      <g id="Oval-Copy-3-4" data-name="Oval-Copy-3">
        <path d="M327.97,421.31c-11.63,0-21.1-9.47-21.1-21.1s9.47-21.1,21.1-21.1,21.1,9.47,21.1,21.1-9.47,21.1-21.1,21.1Z" fill="#ff97b2" fill-rule="evenodd"/>
        <path d="M327.97,380.52c10.87,0,19.68,8.81,19.68,19.68s-8.81,19.68-19.68,19.68-19.68-8.81-19.68-19.68,8.81-19.68,19.68-19.68M327.97,377.69c-12.42,0-22.52,10.1-22.52,22.52s10.1,22.52,22.52,22.52,22.52-10.1,22.52-22.52-10.1-22.52-22.52-22.52h0Z" fill="#fff"/>
      </g>
      <path id="m-7" data-name="m" d="M320.76,409.68c1.95,0,3.54-1.23,3.75-2.81.03-.11.04-.22.04-.34,0,0,0,0,0-.01v-6.95l10.74-3.39v5.09c-.56-.27-1.2-.44-1.89-.44-2.09,0-3.79,1.41-3.79,3.16s1.7,3.16,3.79,3.16c1.95,0,3.54-1.23,3.75-2.81.02-.1.04-.21.04-.32v-.03h0s0,0,0,0v-13.26c0-.72-.59-1.26-1.26-1.26-.13,0-.25.02-.38.06l-12,3.79c-.52.17-.88.65-.88,1.2v9.28c-.56-.27-1.2-.44-1.89-.44-2.09,0-3.79,1.41-3.79,3.16s1.7,3.16,3.79,3.16ZM324.55,397.59v-2.6l10.74-3.39v2.6l-10.74,3.39ZM333.4,405.26c-1.12,0-1.89-.67-1.89-1.26s.78-1.26,1.89-1.26,1.89.67,1.89,1.26h0c0,.6-.78,1.26-1.89,1.26ZM320.76,407.79c-1.12,0-1.89-.67-1.89-1.26s.78-1.26,1.89-1.26,1.89.67,1.89,1.26-.78,1.26-1.89,1.26Z" fill="#fff"/>
    </g>
    <g>
      <g id="Oval-Copy-4" data-name="Oval-Copy">
        <path d="M230.1,422.73c-11.64,0-21.1-9.47-21.1-21.1s9.47-21.1,21.1-21.1,21.1,9.47,21.1,21.1-9.47,21.1-21.1,21.1Z" fill="#ff97b2" fill-rule="evenodd"/>
        <path d="M230.1,381.94c10.87,0,19.68,8.81,19.68,19.68s-8.81,19.68-19.68,19.68-19.68-8.81-19.68-19.68,8.81-19.68,19.68-19.68M230.1,379.11c-12.42,0-22.52,10.1-22.52,22.52s10.1,22.52,22.52,22.52,22.52-10.1,22.52-22.52-10.1-22.52-22.52-22.52h0Z" fill="#fff"/>
      </g>
      <path id="f-4" data-name="f" d="M236.42,411.1c1.05,0,1.9-.85,1.9-1.89v-13.11c0-.5-.21-.99-.56-1.34l-3.31-3.31c-.36-.36-.84-.56-1.34-.56h-8.05c-1.05,0-1.89.85-1.89,1.9v16.42c0,1.05.85,1.89,1.89,1.89h11.37ZM236.42,409.2h-11.37v-16.42h6.32v4.11c0,.53.42.95.95.95h4.11v11.37ZM236.26,395.94h-3v-3l3,3ZM231.68,407.31c.17,0,.32-.14.32-.32v-2.21h2.21c.17,0,.32-.14.32-.32v-1.89c0-.17-.14-.32-.32-.32h-2.21v-2.21c0-.17-.14-.32-.32-.32h-1.89c-.17,0-.32.14-.32.32v2.21h-2.21c-.17,0-.32.14-.32.32v1.89c0,.17.14.32.32.32h2.21v2.21c0,.17.14.32.32.32h1.89Z" fill="#fff"/>
    </g>
    <g>
      <g id="Oval-Copy-5-4" data-name="Oval-Copy-5">
        <path d="M226.74,363.14c-11.63,0-21.1-9.47-21.1-21.1s9.47-21.1,21.1-21.1,21.1,9.47,21.1,21.1-9.47,21.1-21.1,21.1Z" fill="#ff97b2" fill-rule="evenodd"/>
        <path d="M226.74,322.36c10.87,0,19.68,8.81,19.68,19.68s-8.81,19.68-19.68,19.68-19.68-8.81-19.68-19.68,8.81-19.68,19.68-19.68M226.74,319.52c-12.42,0-22.52,10.1-22.52,22.52s10.1,22.52,22.52,22.52,22.52-10.1,22.52-22.52-10.1-22.52-22.52-22.52h0Z" fill="#fff"/>
      </g>
      <path id="c-5" data-name="c" d="M233.07,350.72c.96,0,1.73-.78,1.73-1.73v-12.7c0-.96-.78-1.73-1.73-1.73h-1.73v-1.88c0-.24-.19-.43-.43-.43h-1.44c-.24,0-.43.19-.43.43v1.88h-4.62v-1.88c0-.24-.19-.43-.43-.43h-1.44c-.24,0-.43.19-.43.43v1.88h-1.73c-.96,0-1.73.78-1.73,1.73v12.7c0,.96.78,1.73,1.73,1.73h12.7ZM232.85,348.99h-12.27c-.12,0-.22-.1-.22-.22v-10.75h12.7v10.75c0,.12-.1.22-.22.22Z" fill="#fff"/>
    </g>
    <g>
      <rect x="265.36" y="343.94" width="26.04" height="46.59" fill="#fff"/>
      <path d="M290.06,393.38c2.64,0,4.79-2.14,4.79-4.79v-41.51c0-2.64-2.14-4.79-4.79-4.79h-22.35c-2.64,0-4.79,2.14-4.79,4.79v41.51c0,2.64,2.14,4.79,4.79,4.79h22.35ZM289.94,389.76h-22.12c-.35,0-.63-.28-.63-.63v-42.59c0-.34.28-.63.63-.63h22.12c.35,0,.63.28.63.63v42.58c0,.35-.28.63-.63.63ZM278.47,386.97c2.09.26,3.84-1.49,3.58-3.58-.18-1.42-1.34-2.58-2.75-2.75-2.09-.26-3.84,1.49-3.58,3.58.18,1.42,1.34,2.58,2.75,2.75Z" fill="#ff527f"/>
    </g>
  </g>
  <g>
    <circle cx="279.05" cy="366.83" r="9.99" fill="#ff527f" stroke="#fff" stroke-width="1.46"/>
    <g id="LXdBHS">
      <g>
        <path d="M279,360.05c.34-.04.6.21.76.48l5.14,10.24c.22.54.02.98-.56,1.09-3.46.04-6.93,0-10.39.02-.65-.05-.96-.48-.71-1.11l5.14-10.24c.13-.22.35-.45.61-.49ZM275.11,370.4h7.95l-3.98-8.5-3.97,8.5Z" fill="#fff"/>
        <path d="M279.58,367.45h-1s-.02-.04-.02-.04l-.23-2.24c.12-.95,1.46-.89,1.48.07l-.24,2.2Z" fill="#fff"/>
        <path d="M278.96,368.19c.82-.1,1.18.92.54,1.34-.57.39-1.32-.15-1.13-.82.07-.25.33-.49.59-.52Z" fill="#fff"/>
      </g>
    </g>
  </g>
  <g>
    <circle cx="279.3" cy="363.01" r="15.63" fill="#ff527f" stroke="#fff" stroke-width="2.28"/>
    <g id="LXdBHS-2" data-name="LXdBHS">
      <g>
        <path d="M279.21,352.41c.52-.07.94.33,1.19.74l8.05,16.03c.34.84.03,1.54-.88,1.7-5.41.07-10.83,0-16.25.03-1.01-.08-1.5-.76-1.1-1.73l8.04-16.01c.2-.34.55-.71.96-.76ZM273.12,368.59h12.43l-6.23-13.29-6.2,13.29Z" fill="#fff"/>
        <path d="M280.12,363.97h-1.56s-.03-.06-.03-.06l-.35-3.5c.18-1.49,2.29-1.39,2.32.12l-.37,3.44Z" fill="#fff"/>
        <path d="M279.14,365.14c1.28-.15,1.84,1.43.85,2.1-.9.6-2.06-.24-1.77-1.28.11-.39.51-.77.92-.82Z" fill="#fff"/>
      </g>
    </g>
  </g>
  <g id="Polygon">
    <path d="M607.42,181.19l47.76,82.72c2.13,3.7,2.13,8.25,0,11.95l-47.76,82.72c-2.13,3.7-6.08,5.97-10.34,5.97h-95.52c-4.27,0-8.21-2.28-10.34-5.97l-47.76-82.72c-2.13-3.7-2.13-8.25,0-11.95l47.76-82.72c2.13-3.7,6.08-5.97,10.34-5.97h95.52c4.27,0,8.21,2.28,10.34,5.97Z" fill="#fff" fill-rule="evenodd"/>
    <path d="M597.07,367.11h-95.52c-5.16,0-9.97-2.78-12.55-7.25l-47.76-82.72c-2.58-4.47-2.58-10.03,0-14.5l47.76-82.72c2.58-4.47,7.39-7.25,12.55-7.25h95.52c5.16,0,9.97,2.78,12.55,7.25l47.76,82.72c2.58,4.47,2.58,10.03,0,14.5l-47.76,82.72c-2.58,4.47-7.39,7.25-12.55,7.25ZM501.55,177.77c-3.35,0-6.46,1.8-8.14,4.7l-47.76,82.72c-1.67,2.9-1.67,6.5,0,9.4l47.76,82.72c1.67,2.9,4.79,4.7,8.14,4.7h95.52c3.35,0,6.46-1.8,8.14-4.7l47.76-82.72c1.67-2.9,1.67-6.5,0-9.4l-47.76-82.72c-1.67-2.9-4.79-4.7-8.14-4.7h-95.52Z" fill="#7b4dff"/>
  </g>
  <g id="Group-2" data-name="Group">
    <polygon id="Path-25" points="549.79 340.71 553.88 342.11 582.23 287.1 607.24 215.76 602.76 217.23 578.2 284.77 549.79 340.71" fill="#bfb0ff" fill-rule="evenodd" stroke="#fff" stroke-width=".82"/>
    <g id="Path-24">
      <polygon points="497.75 323.04 573.12 282.01 627.56 270.75 627.56 275.83 573.12 286.37 497.75 328.8 497.75 323.04" fill="#bfb0ff" fill-rule="evenodd"/>
      <path d="M497.34,329.5v-6.71l.21-.12,75.43-41.06h.06s54.94-11.36,54.94-11.36v5.91l-.33.06-54.38,10.52-75.92,42.75ZM498.16,323.28v4.83l74.82-42.13h.07s54.12-10.48,54.12-10.48v-4.24l-53.9,11.14-75.11,40.89Z" fill="#fff"/>
    </g>
    <g id="Path-24-2" data-name="Path-24">
      <polygon points="472.94 270.06 573.12 282.01 627.56 270.75 627.56 275.83 573.12 286.37 472.94 274.2 472.94 270.06" fill="#bfb0ff" fill-rule="evenodd"/>
      <path d="M573.13,286.78h-.06s-100.54-12.22-100.54-12.22v-4.96l.46.05,100.12,11.93,54.87-11.34v5.91l-.33.06-54.51,10.55ZM473.35,273.84l99.76,12.12,54.05-10.46v-4.24l-54.02,11.16h-.07s-99.72-11.9-99.72-11.9v3.31Z" fill="#fff"/>
    </g>
    <g id="Path-24-3" data-name="Path-24">
      <polygon points="541.74 245.6 550.29 345.6 546.71 349.96 538.16 245.6 541.74 245.6" fill="#bfb0ff" fill-rule="evenodd"/>
      <path d="M546.39,351l-8.67-105.81h4.4l.03.37,8.56,100.16-4.32,5.27ZM538.61,246.01l8.43,102.91,2.83-3.45-8.5-99.46h-2.76Z" fill="#fff"/>
    </g>
    <g id="Path-24-4" data-name="Path-24">
      <polygon points="476.51 273.32 597.58 322.77 595.63 327.13 476.2 278.22 476.51 273.32" fill="#bfb0ff" fill-rule="evenodd"/>
      <path d="M595.84,327.66l-.37-.15-119.71-49.03.37-5.75.53.21,121.45,49.61-2.28,5.11ZM476.62,277.95l118.8,48.65,1.61-3.61-120.15-49.07-.26,4.03Z" fill="#fff"/>
    </g>
    <g id="Combined-Shape" isolation="isolate" opacity=".32">
      <path d="M548.8,186.53l58.78,24.5,24.35,59.15-24.35,59.15-58.78,24.5-58.78-24.5-24.35-59.15,24.35-59.15,58.78-24.5ZM548.8,190.92l-55.7,23.22-23.07,56.05,23.07,56.05,55.7,23.22,55.7-23.22,23.07-56.05-23.07-56.05-55.7-23.22Z" fill="#7b4dff" fill-rule="evenodd"/>
    </g>
    <g id="Combined-Shape-2" data-name="Combined-Shape">
      <path d="M548.8,186.53l57.63,25.43-3.06,1.27-54.57-22.32-55.7,23.22-22.18,53.88-5.25,2.17,24.35-59.15,58.78-24.5Z" fill="#7b4dff" fill-rule="evenodd"/>
    </g>
    <g id="Path-2">
      <polygon points="625.1 274.37 605.06 321.5 607.75 326.07 631.92 272.74 625.1 274.37" fill="#bfb0ff" fill-rule="evenodd"/>
      <path d="M607.84,327.84l-3.69-6.29.16-.38,20.2-47.51,8.84-2.11-25.51,56.28ZM605.97,321.44l1.68,2.87,22.84-50.38-4.8,1.14-19.72,46.37Z" fill="#fff"/>
    </g>
    <g id="Polygon-Copy-8">
      <path d="M633.73,264.52c2.92,1.7,4.72,4.82,4.72,8.19v.05c0,3.38-1.8,6.5-4.72,8.19-2.92,1.69-6.52,1.69-9.43,0-2.92-1.7-4.72-4.82-4.72-8.19v-.05c0-3.38,1.8-6.5,4.72-8.19,2.92-1.69,6.52-1.69,9.43,0Z" fill="#bfb0ff" fill-rule="evenodd"/>
      <path d="M629.02,283.92c-1.92,0-3.85-.5-5.56-1.5-3.43-1.99-5.56-5.69-5.56-9.65s2.13-7.71,5.56-9.7c3.43-1.99,7.69-1.99,11.13,0h0c3.43,1.99,5.55,5.69,5.55,9.65s-2.13,7.71-5.55,9.7c-1.72,1-3.64,1.5-5.56,1.5ZM629.02,264.94c-1.34,0-2.67.35-3.87,1.04-2.39,1.39-3.88,3.97-3.88,6.73s1.49,5.4,3.88,6.78c2.39,1.39,5.35,1.39,7.74,0,2.39-1.39,3.88-3.97,3.88-6.73s-1.49-5.4-3.88-6.78c-1.19-.69-2.53-1.04-3.87-1.04Z" fill="#fff"/>
    </g>
    <g id="Polygon-Copy">
      <path d="M552.43,338.31c2.92,1.7,4.72,4.82,4.72,8.19v.05c0,3.38-1.8,6.5-4.72,8.19-2.92,1.69-6.52,1.69-9.43,0-2.92-1.7-4.72-4.82-4.72-8.19v-.05c0-3.38,1.8-6.5,4.72-8.19,2.92-1.69,6.52-1.69,9.43,0Z" fill="#bfb0ff" fill-rule="evenodd"/>
      <path d="M547.71,357.7c-1.92,0-3.85-.5-5.56-1.5-3.43-1.99-5.56-5.69-5.56-9.65s2.13-7.71,5.55-9.7c3.43-2,7.7-1.99,11.13,0h0c3.43,1.99,5.55,5.69,5.55,9.65s-2.13,7.71-5.56,9.71c-1.72,1-3.64,1.5-5.56,1.5ZM547.71,338.73c-1.34,0-2.67.35-3.87,1.04-2.39,1.39-3.88,3.97-3.88,6.73s1.49,5.4,3.88,6.79c2.39,1.39,5.35,1.39,7.74,0,2.39-1.39,3.88-3.97,3.88-6.73s-1.49-5.4-3.88-6.79h0c-1.19-.69-2.53-1.04-3.87-1.04Z" fill="#fff"/>
    </g>
    <path id="Combined-Shape-3" data-name="Combined-Shape" d="M553.15,182.7c2.92,1.7,4.72,4.82,4.72,8.19v.05c0,3.38-1.8,6.5-4.72,8.19-1.39.81-2.94,1.23-4.49,1.27l-8.64,24.42c1.37.37,2.71.92,3.97,1.64l.76.44c1.16.67,2.18,1.5,3.05,2.46l47.84-14.54v-.23c.14-3.22,1.91-6.16,4.71-7.79,2.92-1.69,6.52-1.69,9.43,0,2.92,1.7,4.72,4.82,4.72,8.19v.05c0,3.38-1.8,6.5-4.72,8.19-2.92,1.69-6.52,1.69-9.43,0-1.23-.71-2.25-1.68-3.03-2.8l-46.44,15.02c.31,1.56.33,3.19.03,4.81l-.62,3.34c-.3,1.64-.88,3.18-1.68,4.58l21.01,27.43c2.66-1.07,5.69-.87,8.21.6,2.92,1.7,4.72,4.82,4.72,8.19v.05c0,2.06-.67,4.02-1.85,5.62l20.36,26.57c1.98-.23,4.02.17,5.81,1.21,2.92,1.7,4.72,4.82,4.72,8.19v.05c0,3.38-1.8,6.5-4.72,8.19-2.92,1.69-6.52,1.69-9.43,0-2.92-1.7-4.72-4.82-4.72-8.19v-.05c0-2.26.81-4.41,2.21-6.09l-19.76-26.27c-2.28.51-4.7.16-6.77-1.04-2.92-1.7-4.72-4.82-4.72-8.19v-.05c0-1.59.4-3.13,1.13-4.48l-20.42-27.14c-1.06.74-2.22,1.34-3.48,1.78-.65.23-1.32.41-1.99.55l-35.81,63.41c1.23,1.62,1.93,3.62,1.93,5.73v.05c0,3.38-1.8,6.5-4.72,8.19-2.92,1.69-6.52,1.69-9.43,0-2.92-1.7-4.72-4.82-4.72-8.19v-.05c0-3.38,1.8-6.5,4.72-8.19,1.86-1.08,4-1.47,6.06-1.17l33.69-60.41c-1.47-.55-2.87-1.32-4.13-2.32l-.66-.53c-1.31-1.04-2.42-2.28-3.29-3.64l-40.21,23.1c0,.06,0,.11,0,.17v.05c0,3.38-1.8,6.5-4.72,8.19-2.92,1.69-6.52,1.69-9.43,0-2.92-1.7-4.72-4.82-4.72-8.19v-.05c0-3.38,1.8-6.5,4.72-8.19,2.92-1.69,6.52-1.69,9.43,0,.82.48,1.55,1.07,2.18,1.74l40.5-23.01c-.18-1.44-.15-2.92.11-4.4l.13-.73c.22-1.24.59-2.44,1.09-3.56l-21.73-10.71c-.38.31-.79.59-1.22.85-2.92,1.69-6.52,1.69-9.43,0-2.92-1.7-4.72-4.82-4.72-8.19v-.05c0-3.38,1.8-6.5,4.72-8.19,2.92-1.69,6.52-1.69,9.43,0,2.92,1.7,4.72,4.82,4.72,8.19v.05c0,.92-.13,1.81-.38,2.67l23.2,9.66c.98-.74,2.06-1.36,3.21-1.84.96-.4,1.94-.7,2.94-.91l9.27-27.1c-1.68-1.74-2.65-4.09-2.65-6.58v-.05c0-3.38,1.8-6.5,4.72-8.19,2.92-1.69,6.52-1.69,9.43,0Z" fill="#7b4dff" fill-rule="evenodd" stroke="#fff" stroke-width="3.38"/>
  </g>
  <g>
    <g id="Oval-Copy-4-9" data-name="Oval-Copy-4">
      <path d="M472.5,288.47c-9.16,0-16.6-7.45-16.6-16.6s7.45-16.6,16.6-16.6,16.6,7.45,16.6,16.6-7.45,16.6-16.6,16.6Z" fill="#362b48" fill-rule="evenodd"/>
      <path d="M472.5,256.38c8.55,0,15.49,6.93,15.49,15.49s-6.93,15.49-15.49,15.49-15.49-6.93-15.49-15.49,6.93-15.49,15.49-15.49M472.5,254.15c-9.77,0-17.72,7.95-17.72,17.72s7.95,17.72,17.72,17.72,17.72-7.95,17.72-17.72-7.95-17.72-17.72-17.72h0Z" fill="#fff"/>
    </g>
    <path id="h-5" data-name="h" d="M473.16,274.99l1.54-3.09.69,1.37h4.1c.75-.87,1.17-1.95,1.17-3.11,0-3.08-2.67-4.85-4.88-4.85-1.13,0-2.21.38-3.07,1.08-.86-.7-1.93-1.08-3.07-1.08-2.21,0-4.89,1.77-4.89,4.85,0,1.16.43,2.24,1.17,3.11h3.63l.93-2.23,1.77,3.92c.17.38.71.39.9.02ZM472.74,273.61l-1.81-4.02c-.18-.4-.75-.39-.91.01l-1.12,2.68h-1.86c-1.83-2.16-.22-5.47,2.61-5.47.96,0,1.58.19,3.07,1.66,1.59-1.57,2.15-1.66,3.07-1.66,2.83,0,4.43,3.31,2.61,5.47h-2.38l-.86-1.71c-.18-.37-.71-.37-.89,0l-1.52,3.04ZM474.09,278.67l4.45-4.41h-2.12l-3.38,3.35c-.18.18-.47.18-.65,0l-3.38-3.35h-2.12l4.45,4.41c.76.75,1.99.75,2.75,0Z" fill="#fff"/>
  </g>
  <g>
    <g id="Oval-Copy-3-5" data-name="Oval-Copy-3">
      <path d="M604.64,231.41c-9.16,0-16.6-7.45-16.6-16.6s7.45-16.6,16.6-16.6,16.6,7.45,16.6,16.6-7.45,16.6-16.6,16.6Z" fill="#362b48" fill-rule="evenodd"/>
      <path d="M604.64,199.32c8.55,0,15.49,6.93,15.49,15.49s-6.93,15.49-15.49,15.49-15.49-6.93-15.49-15.49,6.93-15.49,15.49-15.49M604.64,197.09c-9.77,0-17.72,7.95-17.72,17.72s7.95,17.72,17.72,17.72,17.72-7.95,17.72-17.72-7.95-17.72-17.72-17.72h0Z" fill="#fff"/>
    </g>
    <path id="m-8" data-name="m" d="M598.96,222.26c1.53,0,2.78-.97,2.95-2.21.02-.08.03-.17.03-.27,0,0,0,0,0,0v-5.47l8.45-2.67v4.01c-.44-.21-.94-.34-1.49-.34-1.65,0-2.98,1.11-2.98,2.49s1.34,2.49,2.98,2.49c1.53,0,2.78-.97,2.95-2.21.02-.08.03-.17.03-.26v-.02h0s0,0,0,0v-10.44c0-.57-.46-.99-.99-.99-.1,0-.2.01-.3.05l-9.44,2.98c-.41.13-.7.51-.7.95v7.3c-.44-.21-.95-.34-1.49-.34-1.65,0-2.98,1.11-2.98,2.49s1.34,2.49,2.98,2.49ZM601.95,212.74v-2.05l8.45-2.67v2.05l-8.45,2.67ZM608.9,218.78c-.88,0-1.49-.52-1.49-.99s.61-.99,1.49-.99,1.49.52,1.49.99h0c0,.47-.61.99-1.49.99ZM598.96,220.77c-.88,0-1.49-.52-1.49-.99s.61-.99,1.49-.99,1.49.52,1.49.99-.61.99-1.49.99Z" fill="#fff"/>
  </g>
  <g>
    <g id="Oval-Copy-5" data-name="Oval-Copy">
      <path d="M497.09,339.5c-9.16,0-16.6-7.45-16.6-16.6s7.45-16.6,16.6-16.6,16.6,7.45,16.6,16.6-7.45,16.6-16.6,16.6Z" fill="#ffab50" fill-rule="evenodd"/>
      <path d="M497.09,307.41c8.55,0,15.49,6.93,15.49,15.49s-6.93,15.49-15.49,15.49-15.49-6.93-15.49-15.49,6.93-15.49,15.49-15.49M497.09,305.18c-9.77,0-17.72,7.95-17.72,17.72s7.95,17.72,17.72,17.72,17.72-7.95,17.72-17.72-7.95-17.72-17.72-17.72h0Z" fill="#fff"/>
    </g>
    <path id="f-5" data-name="f" d="M502.06,330.35c.82,0,1.49-.67,1.49-1.49v-10.31c0-.39-.16-.78-.44-1.06l-2.61-2.61c-.28-.28-.66-.44-1.05-.44h-6.34c-.82,0-1.49.67-1.49,1.49v12.92c0,.82.67,1.49,1.49,1.49h8.94ZM502.07,328.86h-8.95v-12.92h4.97v3.23c0,.41.33.75.75.75h3.23v8.94ZM501.94,318.43h-2.36v-2.36l2.36,2.36ZM498.34,327.37c.14,0,.25-.11.25-.25v-1.74h1.74c.14,0,.25-.11.25-.25v-1.49c0-.14-.11-.25-.25-.25h-1.74v-1.74c0-.14-.11-.25-.25-.25h-1.49c-.14,0-.25.11-.25.25v1.74h-1.74c-.14,0-.25.11-.25.25v1.49c0,.14.11.25.25.25h1.74v1.74c0,.14.11.25.25.25h1.49Z" fill="#fff"/>
  </g>
  <g>
    <g id="Oval-6" data-name="Oval">
      <path d="M548.95,210.74c-9.16,0-16.6-7.45-16.6-16.6s7.45-16.6,16.6-16.6,16.6,7.45,16.6,16.6-7.45,16.6-16.6,16.6Z" fill="#ffab50" fill-rule="evenodd"/>
      <path d="M548.95,178.65c8.55,0,15.49,6.93,15.49,15.49s-6.93,15.49-15.49,15.49-15.49-6.93-15.49-15.49,6.93-15.49,15.49-15.49M548.95,176.42c-9.77,0-17.72,7.95-17.72,17.72s7.95,17.72,17.72,17.72,17.72-7.95,17.72-17.72-7.95-17.72-17.72-17.72h0Z" fill="#fff"/>
    </g>
    <path id="i-5" data-name="i" d="M556.24,197.61c.82,0,1.49-.67,1.49-1.49v-7.95c0-.82-.67-1.49-1.49-1.49h-11.93c-.82,0-1.49.67-1.49,1.49v7.95c0,.82.67,1.49,1.49,1.49h11.93ZM556.06,196.12h-11.56c-.1,0-.19-.08-.19-.19v-7.58c0-.1.08-.19.19-.19h11.56c.1,0,.19.08.19.19v7.58c0,.1-.08.19-.19.19ZM546.8,191.4c.69,0,1.24-.56,1.24-1.24s-.56-1.24-1.24-1.24-1.24.56-1.24,1.24.56,1.24,1.24,1.24ZM553.26,200.6c.82,0,1.49-.67,1.49-1.49v-.5h-1.49v.31c0,.1-.08.19-.19.19h-11.56c-.1,0-.19-.08-.19-.19v-7.58c0-.1.08-.19.19-.19h.31v-1.49h-.5c-.82,0-1.49.67-1.49,1.49v7.95c0,.82.67,1.49,1.49,1.49h11.93ZM554.75,194.63v-2.49l-2.22-2.22c-.15-.15-.38-.15-.53,0l-3.22,3.22-1.23-1.23c-.15-.15-.38-.15-.53,0l-1.23,1.23v1.49h8.95Z" fill="#fff"/>
  </g>
  <g>
    <g id="Oval-Copy-2">
      <path d="M548.57,361.73c-9.16,0-16.6-7.45-16.6-16.6s7.45-16.6,16.6-16.6,16.6,7.45,16.6,16.6-7.45,16.6-16.6,16.6Z" fill="#ff527f" fill-rule="evenodd"/>
      <path d="M548.57,329.64c8.55,0,15.49,6.93,15.49,15.49s-6.93,15.49-15.49,15.49-15.49-6.93-15.49-15.49,6.93-15.49,15.49-15.49M548.57,327.41c-9.77,0-17.72,7.95-17.72,17.72s7.95,17.72,17.72,17.72,17.72-7.95,17.72-17.72-7.95-17.72-17.72-17.72h0Z" fill="#fff"/>
    </g>
    <path id="v" d="M550.78,351.05c.89,0,1.61-.66,1.61-1.48v-1.81l3.41,2.12c.18.12.38.18.57.18.52,0,1-.4,1-.98v-7.98c0-.57-.48-.98-1-.98-.19,0-.39.06-.57.18l-3.41,2.12v-1.81c0-.82-.72-1.48-1.61-1.48h-9.7c-.89,0-1.61.66-1.61,1.48v8.96c0,.82.72,1.48,1.61,1.48h9.7ZM550.78,349.56h-9.7c-.06,0-.1-.02-.12-.03v-8.88s.06-.03.12-.03h9.7c.06,0,.1.02.12.03v8.88s-.06.03-.12.03ZM555.86,348.16l-3.48-2.17v-1.82l3.48-2.17v6.16Z" fill="#fff"/>
  </g>
  <g>
    <g id="Oval-Copy-5-5" data-name="Oval-Copy-5">
      <path d="M602.89,342.97c-9.16,0-16.6-7.45-16.6-16.6s7.45-16.6,16.6-16.6,16.6,7.45,16.6,16.6-7.45,16.6-16.6,16.6Z" fill="#d4cde0" fill-rule="evenodd"/>
      <path d="M602.89,310.87c8.55,0,15.49,6.93,15.49,15.49s-6.93,15.49-15.49,15.49-15.49-6.93-15.49-15.49,6.93-15.49,15.49-15.49M602.89,308.64c-9.77,0-17.72,7.95-17.72,17.72s7.95,17.72,17.72,17.72,17.72-7.95,17.72-17.72-7.95-17.72-17.72-17.72h0Z" fill="#fff"/>
    </g>
    <path id="c-6" data-name="c" d="M607.87,333.19c.75,0,1.36-.61,1.36-1.36v-10c0-.75-.61-1.36-1.36-1.36h-1.36v-1.48c0-.19-.15-.34-.34-.34h-1.14c-.19,0-.34.15-.34.34v1.48h-3.63v-1.48c0-.19-.15-.34-.34-.34h-1.14c-.19,0-.34.15-.34.34v1.48h-1.36c-.75,0-1.36.61-1.36,1.36v10c0,.75.61,1.36,1.36,1.36h10ZM607.7,331.83h-9.65c-.09,0-.17-.08-.17-.17v-8.46h10v8.46c0,.09-.08.17-.17.17Z" fill="#fff"/>
  </g>
  <g>
    <g id="Oval-Copy-4-10" data-name="Oval-Copy-4">
      <path d="M493.78,233.09c-9.16,0-16.6-7.45-16.6-16.6s7.45-16.6,16.6-16.6,16.6,7.45,16.6,16.6-7.45,16.6-16.6,16.6Z" fill="#ff527f" fill-rule="evenodd"/>
      <path d="M493.78,201c8.55,0,15.49,6.93,15.49,15.49s-6.93,15.49-15.49,15.49-15.49-6.93-15.49-15.49,6.93-15.49,15.49-15.49M493.78,198.77c-9.77,0-17.72,7.95-17.72,17.72s7.95,17.72,17.72,17.72,17.72-7.95,17.72-17.72-7.95-17.72-17.72-17.72h0Z" fill="#fff"/>
    </g>
    <path id="r-5" data-name="r" d="M495.69,210.82c1.1,0,1.99-.89,1.99-1.98s-.89-1.98-1.99-1.98-1.99.89-1.99,1.98.89,1.98,1.99,1.98ZM494.7,228.02c.43,0,.83-.28.95-.72l1.38-4.32c.29-1-.14-2.08-1.03-2.62l-2.14-1.29,1.73-4.33c.11.15.21.31.27.5l.58,1.9c.3.98,1.19,1.64,2.21,1.64h2s0,0,0,0c.55,0,.99-.44.99-.99,0-.55-.44-.99-.99-1h-2c-.15,0-.27-.1-.31-.24l-.58-1.9c-.38-1.25-1.41-2.2-2.68-2.49l-3.24-.73c-1.06-.24-2.17,0-3.03.67l-2,1.54c-.43.33-.51.96-.18,1.39.33.43.96.51,1.39.18l2-1.54c.39-.3.9-.41,1.38-.31l.62.14-1.46,3.61c-.43,1.06-.03,2.26.95,2.85l3.46,2.09c.09.05.16.18.16.28,0,.03,0,.07-.01.09l-1.38,4.32c-.15.53.15,1.08.68,1.23.09.03.18.04.27.04ZM488.53,224.05c.93,0,1.76-.55,2.13-1.4l.56-1.31-.4-.24c-.49-.3-.88-.7-1.17-1.15l-.82,1.91c-.05.12-.17.2-.3.2h-3.1c-.55,0-.99.44-.99.99s.44.99.99.99h3.1Z" fill="#fff"/>
  </g>
  <g>
    <g id="Oval-Copy-2-2" data-name="Oval-Copy-2">
      <path d="M549.31,314.84c-24.78,0-44.95-20.16-44.95-44.94s20.16-44.95,44.95-44.95,44.95,20.16,44.95,44.95-20.16,44.94-44.95,44.94Z" fill="#7b4dff" fill-rule="evenodd"/>
      <path d="M549.31,227.44c23.44,0,42.45,19.01,42.45,42.45s-19.01,42.45-42.45,42.45-42.45-19.01-42.45-42.45,19.01-42.45,42.45-42.45M549.31,222.45c-26.16,0-47.44,21.28-47.44,47.44s21.28,47.44,47.44,47.44,47.44-21.28,47.44-47.44-21.28-47.44-47.44-47.44h0Z" fill="#fff"/>
    </g>
    <g>
      <path d="M572.68,270c-.05-2.18-.11-4.44-.02-6.66.12-.78-.33-1.53-.62-1.93-.51-.69-1.08-1.04-1.7-1.04h-1.78c.06-3.98-.23-8.14-2.41-12.22-4.38-8.21-13.06-12.06-22.1-9.8-7.53,1.88-15.13,8.55-15.15,19.22v2.8s-1.72,0-1.72,0c-.58,0-1.15.3-1.64.87-.21.24-.89,1.12-.76,1.93.09,2.27.04,4.57-.02,6.79-.17,7.1-.35,14.44,4.33,21.12,4.56,6.51,11.71,10.24,19.63,10.24,7.92,0,15.07-3.73,19.62-10.24,4.67-6.67,4.5-13.99,4.33-21.07ZM534.89,254.57c.95-4.52,4.07-8.3,8.35-10.12,4.28-1.82,8.98-1.46,12.89.99,3.3,2.06,5.63,5.38,6.41,9.12.31,1.5.29,3.07.26,4.74,0,.35-.01.7-.01,1.05h-28.15c0-.35,0-.71-.02-1.06-.03-1.66-.06-3.23.26-4.72ZM567.03,278.16c-.37,7.52-5.03,13.81-12.16,16.4-7.02,2.55-14.49.75-19.52-4.7-5.24-5.67-5.11-11.97-4.95-19.26.03-1.52.06-3.09.05-4.68h36.59v12.24Z" fill="#fff" stroke="#7b4dff" stroke-width="1.62"/>
      <path d="M545.89,284.34c0,.49-.02.99-.04,1.51-.03.96-.07,1.95.02,2.92.09.97.51,1.77,1.18,2.27.35.26.89.52,1.64.52.23,0,.47-.02.74-.08,1.22-.26,2.03-1.31,2.15-2.8.08-.94.04-1.91.01-2.84-.02-.51-.04-1.01-.04-1.49,2.15-.82,3.85-2.52,4.65-4.71.93-2.55.5-5.37-1.15-7.56-1.49-1.99-3.8-3.12-6.35-3.12h-.06c-2.55.02-4.85,1.18-6.32,3.18-1.61,2.2-2.02,5.02-1.09,7.53.8,2.17,2.49,3.85,4.64,4.67ZM548.37,274.61c.94-.11,1.66.15,2.13.77.53.7.64,1.77.29,2.61-.21.49-.67,1.1-1.7,1.22-2.24.26-2.58-1.63-2.63-2.02-.1-.86.18-2.37,1.91-2.58Z" fill="#fff" stroke="#7b4dff" stroke-width="1.62"/>
    </g>
  </g>
  <g id="humaaan-3-2" data-name="humaaan-3">
    <g id="Mask-3" data-name="Mask">
      <g id="path-4-link-2" data-name="path-4-link">
        <g id="path-4-2" data-name="path-4">
          <ellipse cx="653.48" cy="271.01" rx="47.42" ry="46.77"/>
        </g>
      </g>
      <g id="Oval-7" data-name="Oval">
        <g id="path-7-3" data-name="path-7">
          <ellipse cx="653.48" cy="271.01" rx="49.4" ry="48.74" fill="#bfb0ff"/>
          <path d="M653.48,332.87c-34.48,0-62.53-27.75-62.53-61.87s28.05-61.87,62.53-61.87,62.53,27.75,62.53,61.87-28.05,61.87-62.53,61.87ZM653.48,235.39c-20,0-36.28,15.98-36.28,35.62s16.27,35.62,36.28,35.62,36.28-15.98,36.28-35.62-16.27-35.62-36.28-35.62Z" fill="#fff"/>
        </g>
        <g id="path-7-4" data-name="path-7">
          <path d="M653.48,327.32c-31.42,0-56.98-25.26-56.98-56.32s25.56-56.32,56.98-56.32,56.98,25.26,56.98,56.32-25.56,56.32-56.98,56.32ZM653.48,229.84c-23.06,0-41.83,18.47-41.83,41.17s18.76,41.17,41.83,41.17,41.83-18.47,41.83-41.17-18.76-41.17-41.83-41.17Z" fill="#7b4dff"/>
        </g>
      </g>
    </g>
    <g id="Clipped-2" data-name="Clipped">
      <g id="Group-3" data-name="Group">
        <g id="Mask-4" data-name="Mask">
          <ellipse id="path-8-3" data-name="path-8" cx="653.48" cy="271.01" rx="49.4" ry="48.74" fill="#fff"/>
        </g>
        <g mask="url(#mask-1)">
          <g>
            <g id="Head_Front_Short-Beard-2" data-name="Head/Front/Short-Beard">
              <g id="Head-2" data-name="Head">
                <g id="Path-2" data-name="Path">
                  <path d="M656.81,239.65c-5.75,8.76-7.2,32.14-.96,34.35,2.49.88,8.06-.25,13.87-3.09l-5.61,24.18,20.47,1.79-4.18-33.41c4.33-4.26,7.49-9.67,7.59-16.03.31-18.33-25.44-16.55-31.19-7.78Z" fill="#b28b67"/>
                </g>
              </g>
              <g id="Hair-2" data-name="Hair">
                <path d="M668.69,231.67c-5.79-.01-11.07,1.29-12.61,2.2-.47,5.43.44,7.13,9.45,7.78,2.11,1.36,3.63,3.52,5.17,6.3-1.74,10.83-4.29,16.09-7.65,15.8-5.04-.44-9.04-4.01-11.25-4.21-1.61-.14-1.43,1.91-.49,3.49.77,1.31,4.97,2.87,4.8,4.78-.17,1.91-3.43.14-3.53,1.27-.16,1.87-1.07,5.35,2.19,5.63,3.3.29,12.86-.08,14.91-4.83,1.32-3.06,2.57-9.54,3.74-19.43.2,0,.41,0,.61.01,2.83.25,4.92,2.73,4.67,5.56-.13,1.43-.83,2.68-1.86,3.52,1.04,1.77,2.21,3.63,3.58,5.56,6.01-2.92,11.13-12.57,6.38-22.68-1.13-4.85-4.41-7.67-8.43-9.2-3.22-1.69-6.68-2.15-9.68-1.57Z" fill="#7b4dff"/>
              </g>
            </g>
            <g id="Body_Hoodie-2" data-name="Body/Hoodie">
              <g id="Skin-2" data-name="Skin">
                <path d="M724.03,358.97l-17.89.07c11.05,35.6,17.01,54.49,17.89,56.67,1.98,4.9-2.21,12.37-4,16.38,5.84,2.61,5.22-7.05,12.58-3.63,6.72,3.12,11.84,8.78,19.6,4,.95-.59,2-2.8-.53-4.53-6.3-4.31-15.38-11.86-16.6-14.34-1.67-3.39-5.36-21.59-11.05-54.61h0ZM619.18,358.28l-27.31,20.02c-7.41,2-13.59,4.48-18.56,7.45-1.17,1.07-2.59,3.23,2.28,2.86,4.87-.37,10.01-.55,10.68,1.11s-2.27,3.64-.92,5.88c.91,1.49,5.18-2.25,12.83-11.22l27.04-11.2-6.04-14.9Z" fill="#b28b67"/>
              </g>
              <g id="Coat-Back-2" data-name="Coat-Back">
                <path d="M673.19,284.02l-7.4-1.27c-27.47,23.69-38.75,69.2-72.41,93.31l8.1,10.03c58.41-7.22,72.88-62.73,71.71-102.07Z" fill="#7b4dff"/>
              </g>
              <g id="Shirt-2" data-name="Shirt">
                <path d="M705.46,376.9h-65.5c-2.99,0-2.43-4.31-2-6.49,4.99-25.13,24.49-52.22,24.49-87.99l18.89-2.96c15.63,25.09,21.03,55.99,24.12,97.44Z" fill="#7b4dff"/>
              </g>
              <g id="Coat-Front-2" data-name="Coat-Front">
                <path d="M682.76,279.46c-.64,0-1.22.04-1.75.12l-5.92.34c-16.97,57.42-21.65,95.73-14.04,114.93h51.55c3.05,7.11,5.98,13.09,8.77,17.95h14.05c1.32-42.68-8.84-78.9-30.49-108.67,2.74-.79,4.92-2.62,6.52-5.51,6.91-12.44,4.41-19.29-2.97-21.54-7.38-2.25-13.96,2.39-25.72,2.39Z" fill="#7b4dff"/>
              </g>
              <g id="Shade-2" data-name="Shade" opacity=".1">
                <path d="M693.47,394.85h19.13c-3.56-8.29-7.3-18.12-11.23-29.49-1.62,13.54-4.26,23.37-7.91,29.49Z"/>
              </g>
            </g>
          </g>
        </g>
      </g>
    </g>
  </g>
  <g>
    <path d="M628.73,281.64c-1.19.14-1.39,1.19-1.32,1.79.03.27.27,1.58,1.82,1.4.71-.08,1.03-.5,1.18-.84.25-.58.17-1.32-.2-1.81-.33-.43-.83-.61-1.48-.53Z" fill="none"/>
    <path d="M616.3,275.62c.01,1.1,0,2.19-.03,3.24-.11,5.05-.2,9.42,3.43,13.35,3.49,3.77,8.67,5.02,13.53,3.25,4.94-1.8,8.17-6.15,8.43-11.36v-8.48h-25.35ZM634.15,285.12c-.55,1.52-1.73,2.7-3.22,3.26,0,.33.01.68.03,1.03.02.65.05,1.32,0,1.97-.09,1.03-.65,1.76-1.49,1.94-.18.04-.36.06-.51.06-.52,0-.89-.18-1.14-.36-.46-.34-.76-.9-.82-1.57-.06-.67-.04-1.36-.01-2.02.01-.36.03-.71.03-1.05-1.49-.57-2.66-1.74-3.21-3.24-.64-1.74-.36-3.69.75-5.22,1.02-1.39,2.61-2.19,4.38-2.21h.04c1.76,0,3.36.79,4.4,2.16,1.14,1.51,1.43,3.47.79,5.23Z" fill="none"/>
    <path d="M638.72,271.76h0s-19.5,0-19.5,0c0-.25,0-.49-.01-.74-.02-1.15-.04-2.24.18-3.27.66-3.13,2.82-5.75,5.79-7.01,2.96-1.26,6.22-1.01,8.93.69,1.63,1.02,2.91,2.49,3.72,4.19h4.18c-.24-.78-.55-1.56-.96-2.33-3.04-5.69-9.05-8.35-15.31-6.79-5.22,1.3-10.48,5.92-10.49,13.32v1.94s-1.19,0-1.19,0c-.4,0-.8.21-1.14.6-.15.17-.62.77-.53,1.33.06,1.57.03,3.17-.01,4.71-.12,4.92-.24,10,3,14.63,3.16,4.51,8.11,7.09,13.6,7.09,5.49,0,10.44-2.59,13.6-7.09,3.24-4.62,3.12-9.69,3-14.59-.04-1.51-.07-3.07-.01-4.62.08-.54-.23-1.06-.43-1.34-.36-.48-.75-.72-1.18-.72h-1.23s-4,0-4,0ZM641.65,275.62v8.48c-.25,5.21-3.48,9.56-8.42,11.36-4.86,1.76-10.04.52-13.53-3.25-3.63-3.93-3.54-8.29-3.43-13.35.02-1.06.04-2.14.03-3.24" fill="#7b4dff"/>
    <path d="M628.96,277.72h-.04c-1.77.01-3.36.82-4.38,2.21-1.11,1.53-1.4,3.48-.75,5.22.55,1.5,1.73,2.67,3.21,3.24,0,.34-.01.69-.03,1.05-.02.67-.05,1.35.01,2.02.06.67.35,1.23.82,1.57.24.18.62.36,1.14.36.16,0,.33-.02.51-.06.84-.18,1.4-.91,1.49-1.94.06-.65.03-1.32,0-1.97-.01-.36-.03-.7-.03-1.03,1.49-.56,2.67-1.74,3.22-3.26.64-1.76.34-3.72-.79-5.23-1.03-1.38-2.64-2.16-4.4-2.16ZM630.4,283.98c-.15.34-.47.76-1.18.84-1.55.18-1.79-1.13-1.82-1.4-.07-.6.13-1.64,1.32-1.79.65-.08,1.15.1,1.48.53.36.49.45,1.23.2,1.81Z" fill="#7b4dff"/>
  </g>
  <path d="M639.95,240.51c-3.25,0-5.96,2.31-6.6,5.36h-17.17c-.8,0-1.44.65-1.44,1.44s.65,1.44,1.44,1.44h.76v2.94c0,.8.65,1.44,1.44,1.44s1.44-.65,1.44-1.44v-2.94h13.55c.69,2.99,3.37,5.23,6.56,5.23,3.72,0,6.74-3.02,6.74-6.74s-3.02-6.74-6.74-6.74ZM639.95,251.34c-2.26,0-4.09-1.83-4.09-4.09s1.84-4.09,4.09-4.09,4.09,1.83,4.09,4.09-1.83,4.09-4.09,4.09Z" fill="#7b4dff"/>
</svg>