<svg xmlns="http://www.w3.org/2000/svg" xmlns:xlink="http://www.w3.org/1999/xlink" viewBox="0 0 441.963 308.776">
  <defs>
    <ellipse id="a" cx="27.768" cy="27.382" rx="27.768" ry="27.382"/>
    <ellipse id="c" cx="28.399" cy="27.61" rx="28.399" ry="27.61"/>
    <ellipse id="e" cx="26.697" cy="26.345" rx="26.345" ry="25.994"/>
    <ellipse id="f" cx="26.384" cy="25.994" rx="26.345" ry="25.994"/>
    <ellipse id="h" cx="29.31" cy="28.925" rx="28.925" ry="28.539"/>
    <ellipse id="i" cx="27.768" cy="27.382" rx="27.768" ry="27.382"/>
    <ellipse id="k" cx="27.768" cy="26.996" rx="27.768" ry="26.996"/>
  </defs>
  <g fill="none" fill-rule="evenodd">
    <path stroke="#bfb0ff" stroke-dasharray="8, 8" stroke-linecap="round" stroke-linejoin="round" stroke-width="4" d="M222.925 294.732c78.093 0 141.4-63.307 141.4-141.4s-63.307-141.4-141.4-141.4-141.4 63.307-141.4 141.4 63.307 141.4 141.4 141.4z"/>
    <path stroke="#8559ff" stroke-dasharray="0, 6" stroke-linecap="round" stroke-linejoin="round" stroke-width="3" d="m122.025 89.432 196.542 126.62M318.287 89.432l-196.542 126.62"/>
    <path fill="#fff" stroke="#235367" stroke-opacity=".185" stroke-width="3.824" d="m403.045 169.39 35.808 62.02a8.956 8.956 0 0 1 0 8.956l-35.808 62.02a8.956 8.956 0 0 1-7.756 4.478h-71.615a8.956 8.956 0 0 1-7.756-4.477l-35.807-62.021a8.956 8.956 0 0 1 0-8.956l35.807-62.02a8.956 8.956 0 0 1 7.756-4.478h71.615c3.2 0 6.156 1.707 7.756 4.478z"/>
    <path fill="#f7a2e6" stroke="#fff" stroke-width=".5" d="m380.257 246.375 15.313-43.68-2.743.904-15.037 41.352-17.396 34.25 2.506.857z"/>
    <path fill="#f7a2e6" stroke="#fff" stroke-width=".5" d="M408.015 236.369v3.108l-33.336 6.45-46.148 25.984v-3.532l46.148-25.122z"/>
    <path fill="#f7a2e6" stroke="#fff" stroke-width=".5" d="M408.015 236.369v3.108l-33.336 6.45-61.338-7.45v-2.532l61.338 7.312z"/>
    <path fill="#f7a2e6" stroke="#fff" stroke-width=".5" d="m358.512 284.865-5.235-63.896h2.19l5.235 61.226z"/>
    <path fill="#f7a2e6" stroke="#fff" stroke-width=".5" d="m388.464 270.888-73.126-29.951.193-2.995 74.124 30.275z"/>
    <path fill="#d8d8d8" d="m359.79 184.802 35.986 15.001 14.906 36.216-14.906 36.216-35.987 15.001-35.986-15-14.907-36.217 14.907-36.216Zm0 2.684-34.102 14.215-14.125 34.318 14.125 34.319 34.101 14.215 34.101-14.215 14.125-34.319-14.125-34.318Z" opacity=".321"/>
    <path fill="#ec59ce" d="m359.79 184.802 35.285 15.573-1.875.775-33.41-13.664-34.102 14.215-13.579 32.99-3.213 1.328 14.907-36.216Z"/>
    <path fill="#ec59ce" stroke="#fff" stroke-width=".998" d="m395.882 270.239 14.8-32.654-4.178.996-12.268 28.856z"/>
    <path fill="#f7aae7" stroke="#fff" stroke-width="2.067" d="M411.791 232.553a5.802 5.802 0 0 1 2.887 5.016v.032c0 2.067-1.1 3.978-2.887 5.016a5.747 5.747 0 0 1-5.774 0 5.802 5.802 0 0 1-2.887-5.016v-.032c0-2.067 1.1-3.978 2.887-5.016a5.747 5.747 0 0 1 5.774 0zM362.01 277.731a5.802 5.802 0 0 1 2.886 5.016v.032c0 2.067-1.1 3.978-2.886 5.017a5.747 5.747 0 0 1-5.774 0 5.802 5.802 0 0 1-2.887-5.017v-.032c0-2.067 1.1-3.977 2.887-5.016a5.747 5.747 0 0 1 5.774 0z"/>
    <path fill="#ec59ce" stroke="#fff" stroke-width="2.067" d="M362.454 182.454a5.802 5.802 0 0 1 2.887 5.016v.032c0 2.067-1.1 3.978-2.887 5.016-.852.496-1.8.754-2.752.777l-5.29 14.951c.842.225 1.659.562 2.43 1.007l.466.27c.71.41 1.336.92 1.868 1.504l29.288-8.905.004-.138a5.802 5.802 0 0 1 2.881-4.769 5.747 5.747 0 0 1 5.774 0 5.802 5.802 0 0 1 2.887 5.017v.031c0 2.067-1.1 3.978-2.887 5.017a5.747 5.747 0 0 1-5.774 0 5.797 5.797 0 0 1-1.857-1.717l-28.431 9.195c.19.953.204 1.951.02 2.947l-.376 2.042a8.796 8.796 0 0 1-1.031 2.802l12.866 16.796a5.747 5.747 0 0 1 5.026.365 5.802 5.802 0 0 1 2.887 5.016v.032a5.8 5.8 0 0 1-1.13 3.44l12.466 16.27a5.745 5.745 0 0 1 3.556.738 5.802 5.802 0 0 1 2.887 5.017v.032c0 2.067-1.1 3.977-2.887 5.016a5.747 5.747 0 0 1-5.773 0 5.802 5.802 0 0 1-2.887-5.016v-.032c0-1.385.493-2.699 1.355-3.728l-12.101-16.083a5.747 5.747 0 0 1-4.147-.638 5.802 5.802 0 0 1-2.887-5.016v-.032c0-.975.245-1.915.69-2.745l-12.5-16.616a8.798 8.798 0 0 1-2.128 1.092c-.401.14-.808.253-1.218.337l-21.925 38.824a5.8 5.8 0 0 1 1.18 3.506v.032c0 2.067-1.1 3.978-2.888 5.016a5.747 5.747 0 0 1-5.774 0 5.802 5.802 0 0 1-2.886-5.016v-.032c0-2.067 1.1-3.978 2.886-5.016a5.746 5.746 0 0 1 3.712-.718l20.63-36.987a9.241 9.241 0 0 1-2.53-1.423l-.406-.322a9.12 9.12 0 0 1-2.017-2.23l-24.617 14.143.001.103v.032c0 2.067-1.1 3.978-2.887 5.017a5.747 5.747 0 0 1-5.774 0 5.802 5.802 0 0 1-2.887-5.017v-.032c0-2.067 1.1-3.977 2.887-5.016a5.747 5.747 0 0 1 5.774 0c.503.292.95.653 1.335 1.067l24.797-14.092a9.121 9.121 0 0 1 .064-2.692l.078-.445a9.063 9.063 0 0 1 .669-2.18l-13.304-6.554a5.747 5.747 0 0 1-6.523.518 5.802 5.802 0 0 1-2.887-5.017v-.031c0-2.067 1.1-3.978 2.887-5.017a5.747 5.747 0 0 1 5.774 0 5.802 5.802 0 0 1 2.887 5.017v.031c0 .56-.08 1.11-.234 1.633l14.205 5.911a9.063 9.063 0 0 1 1.968-1.128 10.045 10.045 0 0 1 1.8-.56l5.675-16.59a5.802 5.802 0 0 1-1.626-4.027v-.032c0-2.067 1.1-3.978 2.887-5.016a5.747 5.747 0 0 1 5.774 0z"/>
    <ellipse cx="27.768" cy="27.382" fill="#000" fill-rule="nonzero" rx="27.768" ry="27.382" transform="translate(332.892 207.034)"/>
    <g transform="translate(331.35 205.492)">
      <ellipse cx="29.31" cy="28.925" fill="#ec59ce" stroke="#fff" stroke-width="9" rx="33.425" ry="33.039"/>
      <ellipse cx="29.31" cy="28.925" stroke="#d6dfe3" stroke-width="5.68" rx="31.765" ry="31.379"/>
    </g>
    <g transform="translate(332.892 208.634)">
      <mask id="b" fill="#fff">
        <use xlink:href="#a"/>
      </mask>
      <g fill-rule="nonzero" mask="url(#b)">
        <path fill="#d4a181" d="M14.952 15.702c-1.083 4.608 1.912 14.757 4.9 14.728 1.191-.011 3.377-1.35 5.403-3.454l1.357 11.131 8.954-2.4-6.93-13.536c1.178-2.477 1.68-5.261.743-7.98-2.7-7.83-13.344-3.097-14.427 1.511Z"/>
        <path fill="#191847" d="M15.605 7.479a3.862 3.862 0 0 0 1.796 7.508c1.218.045 2.731-.087 4.363-.41.001.627.095 1.314.296 2.066.178.663.44 1.347.766 2.026.236-.507.629-.902 1.101-1.028 1.32-.354 2.53.485 2.838 1.638.392 1.462-.17 2.747-1.38 3.162 1.682 1.833 3.648 3.026 5.182 2.614 2.914-.78 3.943-5.23 2.82-9.418-.038-.146-.08-.291-.125-.434 3.649 1.287 7.142 4.818 11.22 3.725 5.55-1.487 4.756-13.266-2.997-11.188-5.273 1.413-7.661 2.876-9.592 4.611-.773-1.124-1.725-1.988-2.742-2.497-.257-.17-.62-.302-1.068-.395a4.266 4.266 0 0 0-.816-.118c-1.48-.135-3.529.04-5.733.548-.411.095-.812.198-1.201.308a3.862 3.862 0 0 0-4.728-2.718z"/>
        <path fill="#d4a181" d="M-10.813 54.908c-1.708-.049-6.258-2.33-6.844-1.6-.868 1.079.533 3.676 1.853 4.858 2.465 2.21 4.287 2.793 8.61 3.214 2.26.221 4.802 1.014 7.625 2.379l-.695-5.876-6.362-2.162c-1.36-2.952-2.607-4.338-3.742-4.158-.94-.25 1.263 3.393-.445 3.345zm7.645-15.018c1.398 1.701 2.792 3.554 2.352 4.232-.44.678-1.936.103-2.413 1.184-.318.721 2.173 1.332 7.473 1.833l11.142 7.09 3.954-6.092-14.479-4.9c-2.655-2.22-5.175-3.862-7.56-4.928-.7-.157-1.867-.12-.47 1.58z"/>
        <path fill="#2026a2" d="M25.486 45.393c-4.633.767-10.973.878-18.29-2.137l-1.568 6.216c5.333 3.703 12.368 6.277 17.921 5.136 4.376-.899 5.686-6.612 1.937-9.215z"/>
        <path fill="#005eb8" d="M22.6 30.821c.736 7.582-.742 16.341-1.712 24.909-4.694 2.09-13.182 2.098-25.464.025-1.821 6.433-2.401 10.893-1.74 13.38 10.829 3.429 19.734 4.238 26.762 3.155.507 4.191 1.709 8.054 4.044 11.365 4.8 6.806 24.036-3.673 31.149-3.532 1.841-14.735-7.485-18.947-9.068-27.889-1.734-9.791-12.26-23.478-13.417-23.274z"/>
      </g>
    </g>
    <path fill="#fff" stroke="#235367" stroke-opacity=".185" stroke-width="3.824" d="m403.045 6.39 35.808 62.02a8.956 8.956 0 0 1 0 8.956l-35.808 62.02a8.956 8.956 0 0 1-7.756 4.478h-71.615a8.956 8.956 0 0 1-7.756-4.477l-35.807-62.021a8.956 8.956 0 0 1 0-8.956l35.807-62.02a8.956 8.956 0 0 1 7.756-4.478h71.615c3.2 0 6.156 1.707 7.756 4.478z"/>
    <path fill="#98d9e8" stroke="#fff" stroke-width=".5" d="m380.257 83.375 15.313-43.68-2.743.904L377.79 81.95l-17.396 34.25 2.506.857z"/>
    <path fill="#98d9e8" stroke="#fff" stroke-width=".5" d="M408.015 73.369v3.108l-33.336 6.45-46.148 25.984v-3.532l46.148-25.122z"/>
    <path fill="#98d9e8" stroke="#fff" stroke-width=".5" d="M408.015 73.369v3.108l-33.336 6.45-61.338-7.45v-2.532l61.338 7.312z"/>
    <path fill="#98d9e8" stroke="#fff" stroke-width=".5" d="m358.512 121.865-5.235-63.896h2.19l5.235 61.226z"/>
    <path fill="#98d9e8" stroke="#fff" stroke-width=".5" d="m388.464 107.888-73.126-29.951.193-2.995 74.124 30.275z"/>
    <path fill="#d8d8d8" d="m359.79 21.802 35.986 15.001 14.906 36.216-14.906 36.216-35.987 15.001-35.986-15-14.907-36.217 14.907-36.216Zm0 2.684-34.102 14.215-14.125 34.318 14.125 34.319 34.101 14.215 34.101-14.215 14.125-34.319-14.125-34.318Z" opacity=".321"/>
    <path fill="#00a9ce" d="m359.79 21.802 35.285 15.573-1.875.775-33.41-13.664-34.102 14.215-13.579 32.99-3.213 1.328 14.907-36.216Z"/>
    <path fill="#98d9e8" stroke="#fff" stroke-width=".998" d="m395.882 107.239 14.8-32.654-4.178.996-12.268 28.856z"/>
    <path fill="#85def1" stroke="#fff" stroke-width="2.067" d="M411.791 69.553a5.802 5.802 0 0 1 2.887 5.016v.032c0 2.067-1.1 3.978-2.887 5.016a5.747 5.747 0 0 1-5.774 0 5.802 5.802 0 0 1-2.887-5.016v-.032c0-2.067 1.1-3.978 2.887-5.016a5.747 5.747 0 0 1 5.774 0zM362.01 114.731a5.802 5.802 0 0 1 2.886 5.016v.032c0 2.067-1.1 3.978-2.886 5.017a5.747 5.747 0 0 1-5.774 0 5.802 5.802 0 0 1-2.887-5.017v-.032c0-2.067 1.1-3.977 2.887-5.016a5.747 5.747 0 0 1 5.774 0z"/>
    <path fill="#00a9ce" stroke="#fff" stroke-width="2.067" d="M362.454 19.454a5.802 5.802 0 0 1 2.887 5.016v.032c0 2.067-1.1 3.978-2.887 5.016-.852.496-1.8.754-2.752.777l-5.29 14.951c.842.225 1.659.562 2.43 1.007l.466.27c.71.41 1.336.92 1.868 1.504l29.288-8.905.004-.138a5.802 5.802 0 0 1 2.881-4.769 5.747 5.747 0 0 1 5.774 0 5.802 5.802 0 0 1 2.887 5.017v.031c0 2.067-1.1 3.978-2.887 5.017a5.747 5.747 0 0 1-5.774 0 5.797 5.797 0 0 1-1.857-1.717l-28.431 9.195c.19.953.204 1.951.02 2.947l-.376 2.042a8.796 8.796 0 0 1-1.031 2.802l12.866 16.796a5.747 5.747 0 0 1 5.026.365 5.802 5.802 0 0 1 2.887 5.016v.032a5.8 5.8 0 0 1-1.13 3.44l12.466 16.27a5.745 5.745 0 0 1 3.556.738 5.802 5.802 0 0 1 2.887 5.017v.032c0 2.067-1.1 3.977-2.887 5.016a5.747 5.747 0 0 1-5.773 0 5.802 5.802 0 0 1-2.887-5.016v-.032c0-1.385.493-2.699 1.355-3.728L375.94 87.412a5.747 5.747 0 0 1-4.147-.638 5.802 5.802 0 0 1-2.887-5.016v-.032c0-.975.245-1.915.69-2.745l-12.5-16.616a8.798 8.798 0 0 1-2.128 1.092c-.401.14-.808.253-1.218.337l-21.925 38.824a5.8 5.8 0 0 1 1.18 3.506v.032c0 2.067-1.1 3.978-2.888 5.016a5.747 5.747 0 0 1-5.774 0 5.802 5.802 0 0 1-2.886-5.016v-.032c0-2.067 1.1-3.978 2.886-5.016a5.746 5.746 0 0 1 3.712-.718l20.63-36.987a9.241 9.241 0 0 1-2.53-1.423l-.406-.322a9.12 9.12 0 0 1-2.017-2.23L319.114 73.57l.001.103v.032c0 2.067-1.1 3.978-2.887 5.017a5.747 5.747 0 0 1-5.774 0 5.802 5.802 0 0 1-2.887-5.017v-.032c0-2.067 1.1-3.977 2.887-5.016a5.747 5.747 0 0 1 5.774 0c.503.292.95.653 1.335 1.067l24.797-14.092a9.121 9.121 0 0 1 .064-2.692l.078-.445a9.063 9.063 0 0 1 .669-2.18l-13.304-6.554a5.747 5.747 0 0 1-6.523.518 5.802 5.802 0 0 1-2.887-5.017v-.031c0-2.067 1.1-3.978 2.887-5.017a5.747 5.747 0 0 1 5.774 0 5.802 5.802 0 0 1 2.887 5.017v.031c0 .56-.08 1.11-.234 1.633l14.205 5.911a9.063 9.063 0 0 1 1.968-1.128 10.045 10.045 0 0 1 1.8-.56l5.675-16.59a5.802 5.802 0 0 1-1.626-4.027v-.032c0-2.067 1.1-3.978 2.887-5.016a5.747 5.747 0 0 1 5.774 0z"/>
    <ellipse cx="28.399" cy="27.61" fill="#000" fill-rule="nonzero" rx="28.399" ry="27.61" transform="translate(331.833 44.055)"/>
    <g transform="translate(331.11 43.332)">
      <ellipse cx="29.122" cy="28.334" fill="#00a9ce" stroke="#fff" stroke-width="9" rx="33.442" ry="32.653"/>
      <ellipse cx="29.122" cy="28.334" stroke="#d6dfe3" stroke-width="5.68" rx="31.782" ry="30.993"/>
    </g>
    <g transform="translate(331.833 44.855)">
      <mask id="d" fill="#fff">
        <use xlink:href="#c"/>
      </mask>
      <g fill-rule="nonzero" mask="url(#d)">
        <path fill="#b28b67" d="M21.592 11.16c-1.677 3.122-1.477 11.04.69 11.598.864.223 2.706-.322 4.58-1.45l-1.176 8.31h6.946l-2.392-11.13c1.334-1.562 2.237-3.478 2.086-5.625-.435-6.184-9.057-4.824-10.734-1.702Z"/>
        <path fill="#191847" d="M18.515 6.833c.144-.505.53-.937 1.052-1.065.127-.031.257-.044.387-.039.047.002.06.016.082-.017.016-.024.017-.083.023-.111.02-.089.047-.176.079-.26.109-.29.292-.547.513-.763a2.586 2.586 0 0 1 1.552-.733c.318-.028.633.024.934.127.155.053.306.12.453.193.044.022.187.13.232.124.049-.008.147-.13.187-.16.492-.377 1.1-.526 1.714-.521.692.005 1.359.04 1.936.461a3.871 3.871 0 0 1 .518.459c.033.035.064.071.095.108.052.063.043.084.116.04.278-.169.6-.248.924-.208.193.024.38.082.558.158.06.025.2.129.265.13.064 0 .203-.095.269-.12.356-.13.74-.163 1.114-.102.387.062.766.216 1.094.429.157.102.295.216.405.368.047.065.09.135.145.196.031.035.094.072.11.117-.01-.027.423-.193.464-.204.218-.057.44-.045.652.025.4.131.745.426 1.028.73a2.915 2.915 0 0 1 .523.78c.021.044.035.1.063.14.035.052.06.053.124.075.328.115.626.31.854.571.23.266.38.593.442.937.004.02.006.104.018.115.016.015.082.008.107.011a2.12 2.12 0 0 1 .708.207c.56.277.96.796 1.156 1.379a2.793 2.793 0 0 1-.044 1.914 1.87 1.87 0 0 1-.142.28c-.034.055-.045.056-.023.113.025.064.07.126.099.188a2.7 2.7 0 0 1 .204.64c.07.362.104.742.036 1.107-.032.17-.087.335-.172.485a1.393 1.393 0 0 1-.243.318c-.019.018-.043.034-.06.055-.038.05-.046.009-.026.082.028.102.091.203.13.303.04.102.077.206.11.311.067.213.123.43.159.65.068.423.056.873-.144 1.261a1.262 1.262 0 0 1-.593.568c-.042.02-.097.029-.116.07-.02.044.01.132.017.181.062.43.093.882-.035 1.303a1.8 1.8 0 0 1-.715.958c-.654.44-1.536.416-2.223.063a2.333 2.333 0 0 1-.496-.34c-.38.511-1.164.495-1.72.35a2.47 2.47 0 0 1-1.57-1.296c-.438.533-1.358.36-1.661-.218a1.381 1.381 0 0 1-.14-.455c-.012-.083-.005-.166-.013-.249-.011-.104-.081-.206-.122-.308a1.699 1.699 0 0 1-.129-.614c-.001-.111.013-.22.024-.33.01-.099-.018-.191-.034-.29.178.03.394-.018.562-.07.164-.05.318-.183.434-.305.27-.282.434-.652.546-1.02.247-.807.146-1.777-.668-2.22-.379-.207-1.514-.206-1.966-.104-.474.108-1.013 1.154-1.04 1.252-.015.06-.007.136-.063.177-.123.089-.326-.066-.417-.142a1.641 1.641 0 0 1-.365-.485 5.993 5.993 0 0 1-.5-1.226c-.093-.327-.152-.664-.273-.983-.12-.317-.31-.6-.605-.78-.321-.195-.689-.297-1.041-.42-.35-.122-.693-.27-.963-.529a1.33 1.33 0 0 1-.166-.183c-.037-.053-.075-.154-.132-.188-.09-.052-.22.084-.298.133-.382.242-.701.58-.958.95-.256.367-.466.72-.636 1.13-.127.304-.206.694-.428.943-.1.111-.838.179-1.077.082-.239-.098-.507-.35-.587-.508a.787.787 0 0 1-.067-.517c.021-.104.063-.201.086-.304.02-.086.037-.167.08-.246a.608.608 0 0 1 .378-.301 1.777 1.777 0 0 1-.41-.554 2.376 2.376 0 0 1-.211-.722.875.875 0 0 1 .117-.563c.112-.175.31-.29.481-.398a3.125 3.125 0 0 1-.67-.728c-.357-.535-.579-1.21-.397-1.848Z"/>
        <path fill="#c5cfd6" d="M18.74 65.744a4.63 4.63 0 0 0-4.631 4.63V96.95a4.63 4.63 0 0 0 4.63 4.63h33.284a4.63 4.63 0 0 0 4.63-4.63V70.375a4.63 4.63 0 0 0-4.63-4.63Zm4.63 8.092h24.022c.64 0 1.158.519 1.158 1.158v17.337c0 .64-.519 1.158-1.158 1.158H23.37c-.639 0-1.157-.519-1.157-1.158V74.994c0-.64.518-1.158 1.157-1.158z"/>
        <path fill="#b28b67" d="M-2.993 64.444c-1.47 3.8-4.035 16.286-7.118 35.145l3.524 1.027C-2.879 92.42-.197 85.283.88 81.518c1.843-6.447 3.245-12.12 3.6-14.238.844-5.052-6.502-5.347-7.473-2.836ZM8.124 75.038c10.728 1.542 25.937 3.134 27.238 3.313 1.824.25 3.203-2.612 1.064-3.456-3.402-1.343-15.317-5.546-21.063-6.734a311.681 311.681 0 0 0-4.757-.946c-4.472-.853-6.79 7.204-2.482 7.823z"/>
        <path fill="#005eb8" d="M24.076 53.606c-17.804 4.53-26.902 7.434-27.294 8.71l-.012.042a2.174 2.174 0 0 0-.026.035c-3.528 4.845-5.642 28.502-6.335 30.274l6.761 1.007c2.587-9.577 10.861-16.249 10.641-27.72.06-.336.075-.655.05-.956l18.403-9.356v-2.036Z"/>
        <path fill="#0072c3" d="M23.098 53.606c-2.58.74-15.985 6.354-22.94 9.34-4.604 1.976-3.153 9.1-.546 10.954.014.113.06.19.145.225 14.023 5.804 25.117 2.759 28.823 3.732l1.714-5.4-5.558-1.904c1.684-.336 3.234-.637 4.56-.87 8.571-1.5 11.07-6.081 9.593-16.077Z"/>
        <path fill="#e4e4e4" d="M35.261 74.027c.918.087 1.57.225 1.954.412.469.229 1.114.64 1.937 1.235l-7.156 14.671c-1.445-.232-2.017-.784-1.717-1.654.3-.87.543-1.597.727-2.18l.29-8.3a.29.29 0 0 1 .307-.279l1.276.08c.725-.588 1.204-1.12 1.436-1.595.188-.386.292-.996.313-1.828a.579.579 0 0 1 .633-.562ZM-4.9 99.096c.325.863.486 1.509.486 1.937 0 .522-.087 1.282-.26 2.282h-16.324c-.424-1.4-.18-2.156.735-2.268a90.525 90.525 0 0 0 2.277-.303l7.588-3.377a.29.29 0 0 1 .385.154l.487 1.181c.846.394 1.534.591 2.063.591.43 0 1.023-.173 1.78-.52a.579.579 0 0 1 .784.323Z"/>
        <path fill="#b28b67" d="m45.856 50.144-6.048.023c3.734 12.038 5.75 18.426 6.048 19.162.67 1.658-.748 4.182-1.354 5.538 1.974.882 1.764-2.384 4.254-1.227 2.272 1.055 4.001 2.969 6.627 1.35.323-.198.676-.947-.178-1.532-2.13-1.458-5.198-4.01-5.613-4.85-.565-1.146-1.81-7.3-3.736-18.464Zm-36.39-1.127-8.199 7.987c-2.386 1.016-4.34 2.138-5.864 3.366-.342.413-.715 1.203.897.85 1.612-.354 3.324-.654 3.627-.13.303.523-.59 1.325-.03 2.01.373.457 1.628-.996 3.766-4.359l8.526-5.019z"/>
        <path fill="#191847" d="m28.668 24.801-2.503-.428C21.857 35.12 14.335 44.887 3.598 53.67l8.113 9.842c10.735-12.507 17.352-25.41 16.957-38.712Z"/>
        <path fill="#dde3e9" d="M39.578 56.207H17.293c5.163-12.536 7.744-23.184 7.744-31.947l6.722-1c5.283 8.485 6.775 18.931 7.819 32.947z"/>
        <path fill="#2f3676" d="M31.46 23.26c-.525.018-1.325.05-2.4.098l-1.623 4.635c-.172 5.652-1.176 17.042-3.01 34.17h14.608a88.519 88.519 0 0 1-.19 3.581h10.862c-1.625-18.304-7.558-32.466-17.8-42.484l-.005.005-.003-.005Z"/>
        <path fill="#000" fill-opacity=".1" d="M34.947 62.276h4.084c.179-5.305-.142-10.388-.961-15.249-.416 7.374-1.457 12.457-3.123 15.25z"/>
        <path fill="#fff" fill-opacity=".2" d="M28.58 53.317h7.203l-7.203-3.344z"/>
      </g>
    </g>
    <path fill="#fff" stroke="#235367" stroke-opacity=".185" stroke-width="3.824" d="m264.741 85.99 35.808 62.02a8.956 8.956 0 0 1 0 8.956l-35.808 62.02a8.956 8.956 0 0 1-7.756 4.478H185.37a8.956 8.956 0 0 1-7.756-4.477l-35.807-62.021a8.956 8.956 0 0 1 0-8.956l35.807-62.02a8.956 8.956 0 0 1 7.756-4.478h71.615c3.2 0 6.156 1.707 7.756 4.478z"/>
    <path fill="#bfb0ff" stroke="#fff" stroke-width=".5" d="m241.953 162.975 15.313-43.68-2.743.904-15.037 41.352-17.396 34.25 2.506.857z"/>
    <path fill="#bfb0ff" stroke="#fff" stroke-width=".5" d="M269.711 152.969v3.108l-33.336 6.45-46.148 25.984v-3.532l46.148-25.122z"/>
    <path fill="#bfb0ff" stroke="#fff" stroke-width=".5" d="M269.711 152.969v3.108l-33.336 6.45-61.338-7.45v-2.532l61.338 7.312z"/>
    <path fill="#bfb0ff" stroke="#fff" stroke-width=".5" d="m220.208 201.465-5.235-63.896h2.19l5.235 61.226z"/>
    <path fill="#bfb0ff" stroke="#fff" stroke-width=".5" d="m250.16 187.488-73.126-29.951.193-2.995 74.124 30.275z"/>
    <path fill="#d8d8d8" d="m221.485 101.402 35.987 15.001 14.906 36.216-14.906 36.216-35.987 15.001-35.986-15-14.907-36.217 14.907-36.216Zm0 2.684-34.1 14.215-14.126 34.318 14.125 34.319 34.101 14.215 34.101-14.215 14.125-34.319-14.125-34.318Z" opacity=".321"/>
    <path fill="#8559ff" d="m221.485 101.402 35.286 15.573-1.875.775-33.41-13.664-34.102 14.215-13.579 32.99-3.213 1.328 14.907-36.216Z"/>
    <path fill="#bfb0ff" stroke="#fff" stroke-width=".998" d="m257.578 186.839 14.8-32.654-4.178.996-12.268 28.856z"/>
    <path fill="#bfb0ff" stroke="#fff" stroke-width="2.067" d="M273.487 149.153a5.802 5.802 0 0 1 2.887 5.016v.032c0 2.067-1.1 3.978-2.887 5.016a5.747 5.747 0 0 1-5.774 0 5.802 5.802 0 0 1-2.887-5.016v-.032c0-2.067 1.1-3.978 2.887-5.016a5.747 5.747 0 0 1 5.774 0zM223.706 194.331a5.802 5.802 0 0 1 2.886 5.016v.032c0 2.067-1.1 3.978-2.886 5.017a5.747 5.747 0 0 1-5.774 0 5.802 5.802 0 0 1-2.887-5.017v-.032c0-2.067 1.1-3.977 2.887-5.016a5.747 5.747 0 0 1 5.774 0z"/>
    <path fill="#8559ff" stroke="#fff" stroke-width="2.067" d="M224.15 99.054a5.802 5.802 0 0 1 2.887 5.016v.032c0 2.067-1.1 3.978-2.887 5.016-.852.496-1.8.754-2.752.777l-5.29 14.951c.842.225 1.659.562 2.43 1.007l.466.27c.71.41 1.336.92 1.868 1.504l29.288-8.905.004-.138a5.802 5.802 0 0 1 2.881-4.769 5.747 5.747 0 0 1 5.774 0 5.802 5.802 0 0 1 2.887 5.017v.031c0 2.067-1.1 3.978-2.887 5.017a5.747 5.747 0 0 1-5.774 0 5.797 5.797 0 0 1-1.857-1.717l-28.431 9.195c.19.953.204 1.951.02 2.947l-.376 2.042a8.796 8.796 0 0 1-1.031 2.802l12.866 16.796a5.747 5.747 0 0 1 5.026.365 5.802 5.802 0 0 1 2.887 5.016v.032a5.8 5.8 0 0 1-1.13 3.44l12.466 16.27a5.745 5.745 0 0 1 3.556.738 5.802 5.802 0 0 1 2.887 5.017v.032c0 2.067-1.1 3.977-2.887 5.016a5.747 5.747 0 0 1-5.773 0 5.802 5.802 0 0 1-2.887-5.016v-.032c0-1.385.493-2.699 1.355-3.728l-12.101-16.083a5.747 5.747 0 0 1-4.147-.638 5.802 5.802 0 0 1-2.887-5.016v-.032c0-.975.245-1.915.69-2.745l-12.5-16.616a8.798 8.798 0 0 1-2.128 1.092c-.401.14-.808.253-1.218.337l-21.925 38.824a5.8 5.8 0 0 1 1.18 3.506v.032c0 2.067-1.1 3.978-2.888 5.016a5.747 5.747 0 0 1-5.774 0 5.802 5.802 0 0 1-2.886-5.016v-.032c0-2.067 1.1-3.978 2.886-5.016a5.746 5.746 0 0 1 3.712-.718l20.63-36.987a9.241 9.241 0 0 1-2.53-1.423l-.406-.322a9.12 9.12 0 0 1-2.017-2.23L180.81 153.17l.001.103v.032c0 2.067-1.1 3.978-2.887 5.017a5.747 5.747 0 0 1-5.774 0 5.802 5.802 0 0 1-2.887-5.017v-.032c0-2.067 1.1-3.977 2.887-5.016a5.747 5.747 0 0 1 5.774 0c.503.292.95.653 1.335 1.067l24.797-14.092a9.121 9.121 0 0 1 .064-2.692l.078-.445a9.063 9.063 0 0 1 .669-2.18l-13.304-6.554a5.747 5.747 0 0 1-6.523.518 5.802 5.802 0 0 1-2.887-5.017v-.031c0-2.067 1.1-3.978 2.887-5.017a5.747 5.747 0 0 1 5.774 0 5.802 5.802 0 0 1 2.887 5.017v.031c0 .56-.08 1.11-.234 1.633l14.205 5.911a9.063 9.063 0 0 1 1.968-1.128 10.045 10.045 0 0 1 1.8-.56l5.675-16.59a5.802 5.802 0 0 1-1.626-4.027v-.032c0-2.067 1.1-3.978 2.887-5.016a5.747 5.747 0 0 1 5.774 0z"/>
    <ellipse cx="25.292" cy="24.94" fill="#000" fill-rule="nonzero" rx="25.292" ry="24.94" transform="translate(195.974 126.94)"/>
    <g transform="translate(194.569 125.536)">
      <use xlink:href="#e" fill="#bfb0ff" stroke="#fff" stroke-width="14"/>
      <use xlink:href="#e" stroke="#d6dfe3" stroke-width="8.08"/>
    </g>
    <g transform="translate(194.882 125.887)">
      <mask id="g" fill="#fff">
        <use xlink:href="#f"/>
      </mask>
      <use xlink:href="#f" fill="#8559ff"/>
      <g fill-rule="nonzero" mask="url(#g)">
        <path fill="#b28b67" d="M17.963 11.973c-3.064 4.674-3.84 17.142-.51 18.317 1.328.468 4.296-.135 7.396-1.65l-2.99 12.896 10.915.955-2.227-17.816c2.31-2.273 3.992-5.158 4.05-8.551.167-9.778-13.569-8.826-16.634-4.151Z"/>
        <path fill="#191847" d="M24.299 7.716c-3.086-.005-5.902.688-6.726 1.174-.253 2.895.234 3.803 5.039 4.147 1.125.725 1.938 1.875 2.759 3.361-.926 5.774-2.286 8.583-4.079 8.426-2.689-.235-4.821-2.139-6.001-2.242-.86-.075-.762 1.016-.262 1.863.413.698 2.648 1.532 2.56 2.552-.09 1.019-1.83.072-1.884.676-.087 1-.57 2.852 1.168 3.004 1.76.154 6.859-.045 7.951-2.575.705-1.634 1.37-5.087 1.997-10.362a2.737 2.737 0 0 1 2.818 2.971 2.725 2.725 0 0 1-.993 1.878c.553.945 1.18 1.936 1.907 2.966 3.206-1.558 5.934-6.702 3.404-12.094-.603-2.586-2.35-4.092-4.496-4.908-1.717-.9-3.56-1.146-5.162-.837Z"/>
        <path fill="#997659" d="m15.41 188.758-5.844 1.03 4.482-106.9 20.086-3.542-12.235 59.657z"/>
        <path fill="#b28b67" d="M38.577 78.563c3.69 19.555 11.77 45.334 12.533 46.459.508.75 14.935 8.884 43.28 24.402l-3.267 5.01c-32.313-11.892-49.348-18.856-51.106-20.892-2.635-3.055-14.796-33.294-23.418-51.104Z"/>
        <path fill="#e4e4e4" d="M94.67 147.879c1.435.238 2.444.526 3.03.864.711.411 1.682 1.13 2.91 2.156l-12.875 22.3c-2.247-.525-3.087-1.456-2.519-2.792.569-1.337 1.03-2.454 1.384-3.35l1.37-13.03a.457.457 0 0 1 .515-.404l1.998.265c1.206-.845 2.017-1.629 2.434-2.351.34-.587.57-1.535.695-2.843a.913.913 0 0 1 1.058-.815zM17.42 186.16c.74 1.251 1.168 2.21 1.285 2.876.143.809.216 2.014.22 3.615l-25.36 4.471c-1.042-2.059-.868-3.3.52-3.724 1.39-.424 2.542-.788 3.456-1.094l10.862-7.324a.457.457 0 0 1 .64.133l1.082 1.702c1.422.38 2.544.498 3.366.353.668-.118 1.543-.55 2.624-1.296a.913.913 0 0 1 1.305.288z"/>
        <path fill="#69a1ac" d="m12.103 83.23 24.889-4.388-.406 101.175-28.319 1.889z"/>
        <path fill="#89c5cc" d="m87.419 143.499-14.43 24.754c-22.89-17.55-36.49-29.236-40.803-35.059-4.313-5.823-10.228-22.615-17.745-50.375l28.02-4.941c5.765 24.572 8.991 37.393 9.678 38.462.688 1.07 12.448 10.123 35.28 27.159Z"/>
        <path fill="#b28b67" d="m53.81 75.603-9.54.038c5.89 18.986 9.071 29.06 9.54 30.222 1.057 2.614-1.179 6.595-2.135 8.735 3.114 1.39 2.782-3.76 6.71-1.936 3.585 1.665 6.313 4.682 10.455 2.13.509-.313 1.067-1.494-.281-2.418-3.36-2.3-8.2-6.324-8.854-7.649-.892-1.807-2.857-11.514-5.894-29.122Zm-55.915-.368-14.563 10.677c-3.95 1.064-7.25 2.388-9.9 3.972-.626.569-1.382 1.722 1.214 1.523 2.596-.2 5.336-.292 5.694.592.358.884-1.213 1.941-.489 3.134.483.795 2.764-1.199 6.842-5.982l14.422-5.97Z"/>
        <path fill="#e87613" d="m26.697 35.633-3.947-.676C8.102 47.59 2.086 71.86-15.87 84.717l4.322 5.348C19.6 86.215 27.32 56.611 26.697 35.633Z"/>
        <path fill="#dde3e9" d="M43.907 85.166H8.976c-1.596 0-1.296-2.3-1.065-3.462C10.574 68.303 20.97 53.856 20.97 34.78l10.076-1.578c8.334 13.383 11.216 29.859 12.862 51.964Z"/>
        <path fill="#ff9b21" d="M31.804 33.202c-.34 0-.652.022-.936.064l-3.156.18C18.662 64.07 16.167 84.5 20.225 94.74h27.494c1.628 3.792 3.187 6.983 4.676 9.572h7.491c.705-22.76-4.715-42.079-16.26-57.954 1.463-.42 2.622-1.4 3.477-2.94 3.683-6.634 2.353-10.287-1.583-11.487-3.936-1.2-7.446 1.272-13.716 1.272Z"/>
        <path fill="#000" fill-opacity=".1" d="M37.515 94.739H47.72c-1.9-4.424-3.896-9.666-5.987-15.727-.865 7.222-2.27 12.465-4.217 15.727z"/>
      </g>
    </g>
    <path fill="#fff" stroke="#235367" stroke-opacity=".185" stroke-width="3.824" d="m126.045 6.39 35.808 62.02a8.956 8.956 0 0 1 0 8.956l-35.808 62.02a8.956 8.956 0 0 1-7.756 4.478H46.674a8.956 8.956 0 0 1-7.756-4.477L3.111 77.366a8.956 8.956 0 0 1 0-8.956L38.918 6.39a8.956 8.956 0 0 1 7.756-4.478h71.615c3.2 0 6.156 1.707 7.756 4.478z"/>
    <path fill="#ffe9b8" stroke="#fff" stroke-width=".5" d="m103.257 83.375 15.313-43.68-2.743.904L100.79 81.95 83.394 116.2l2.506.857z"/>
    <path fill="#ffe9b8" stroke="#fff" stroke-width=".5" d="M131.015 73.369v3.108l-33.336 6.45-46.148 25.984v-3.532L97.68 80.257z"/>
    <path fill="#ffe9b8" stroke="#fff" stroke-width=".5" d="M131.015 73.369v3.108l-33.336 6.45-61.338-7.45v-2.532l61.338 7.312z"/>
    <path fill="#ffe9b8" stroke="#fff" stroke-width=".5" d="m81.512 121.865-5.235-63.896h2.19l5.235 61.226z"/>
    <path fill="#ffe9b8" stroke="#fff" stroke-width=".5" d="M111.464 107.888 38.338 77.937l.193-2.995 74.124 30.275z"/>
    <path fill="#d8d8d8" d="m82.79 21.802 35.986 15.001 14.906 36.216-14.906 36.216-35.987 15.001-35.986-15-14.907-36.217 14.907-36.216Zm0 2.684L48.687 38.701 34.563 73.02l14.125 34.319 34.101 14.215 34.101-14.215 14.125-34.319-14.125-34.318Z" opacity=".321"/>
    <path fill="#fbc245" d="m82.79 21.802 35.285 15.573-1.875.775-33.41-13.664-34.102 14.215-13.579 32.99-3.213 1.328 14.907-36.216Z"/>
    <path fill="#fbc245" stroke="#fff" stroke-width=".998" d="m118.882 107.239 14.8-32.654-4.178.996-12.268 28.856z"/>
    <path fill="#ffe5ae" stroke="#fff" stroke-width="2.067" d="M134.791 69.553a5.802 5.802 0 0 1 2.887 5.016v.032c0 2.067-1.1 3.978-2.887 5.016a5.747 5.747 0 0 1-5.774 0 5.802 5.802 0 0 1-2.887-5.016v-.032c0-2.067 1.1-3.978 2.887-5.016a5.747 5.747 0 0 1 5.774 0z"/>
    <path fill="#ffe3a4" stroke="#fff" stroke-width="2.067" d="M85.01 114.731a5.802 5.802 0 0 1 2.886 5.016v.032c0 2.067-1.1 3.978-2.886 5.017a5.747 5.747 0 0 1-5.774 0 5.802 5.802 0 0 1-2.887-5.017v-.032c0-2.067 1.1-3.977 2.887-5.016a5.747 5.747 0 0 1 5.774 0z"/>
    <path fill="#fbc245" stroke="#fff" stroke-width="2.067" d="M85.454 19.454a5.802 5.802 0 0 1 2.887 5.016v.032c0 2.067-1.1 3.978-2.887 5.016-.852.496-1.8.754-2.752.777l-5.29 14.951c.842.225 1.659.562 2.43 1.007l.466.27c.71.41 1.336.92 1.868 1.504l29.288-8.905.004-.138a5.802 5.802 0 0 1 2.881-4.769 5.747 5.747 0 0 1 5.774 0 5.802 5.802 0 0 1 2.887 5.017v.031c0 2.067-1.1 3.978-2.887 5.017a5.747 5.747 0 0 1-5.774 0 5.797 5.797 0 0 1-1.857-1.717l-28.431 9.195c.19.953.204 1.951.02 2.947l-.376 2.042a8.796 8.796 0 0 1-1.031 2.802L95.54 76.345a5.747 5.747 0 0 1 5.026.365 5.802 5.802 0 0 1 2.887 5.016v.032a5.8 5.8 0 0 1-1.13 3.44l12.466 16.27a5.745 5.745 0 0 1 3.556.738 5.802 5.802 0 0 1 2.887 5.017v.032c0 2.067-1.1 3.977-2.887 5.016a5.747 5.747 0 0 1-5.773 0 5.802 5.802 0 0 1-2.887-5.016v-.032c0-1.385.493-2.699 1.355-3.728L98.94 87.412a5.747 5.747 0 0 1-4.147-.638 5.802 5.802 0 0 1-2.887-5.016v-.032c0-.975.245-1.915.69-2.745l-12.5-16.616a8.798 8.798 0 0 1-2.128 1.092c-.401.14-.808.253-1.218.337l-21.925 38.824a5.8 5.8 0 0 1 1.18 3.506v.032c0 2.067-1.1 3.978-2.888 5.016a5.747 5.747 0 0 1-5.774 0 5.802 5.802 0 0 1-2.886-5.016v-.032c0-2.067 1.1-3.978 2.886-5.016a5.746 5.746 0 0 1 3.712-.718l20.63-36.987a9.241 9.241 0 0 1-2.53-1.423l-.406-.322a9.12 9.12 0 0 1-2.017-2.23L42.114 73.57l.001.103v.032c0 2.067-1.1 3.978-2.887 5.017a5.747 5.747 0 0 1-5.774 0 5.802 5.802 0 0 1-2.887-5.017v-.032c0-2.067 1.1-3.977 2.887-5.016a5.747 5.747 0 0 1 5.774 0c.503.292.95.653 1.335 1.067L65.36 55.633a9.121 9.121 0 0 1 .064-2.692l.078-.445a9.063 9.063 0 0 1 .669-2.18l-13.304-6.554a5.747 5.747 0 0 1-6.523.518 5.802 5.802 0 0 1-2.887-5.017v-.031c0-2.067 1.1-3.978 2.887-5.017a5.747 5.747 0 0 1 5.774 0 5.802 5.802 0 0 1 2.887 5.017v.031c0 .56-.08 1.11-.234 1.633l14.205 5.911a9.063 9.063 0 0 1 1.968-1.128 10.045 10.045 0 0 1 1.8-.56l5.675-16.59a5.802 5.802 0 0 1-1.626-4.027v-.032c0-2.067 1.1-3.978 2.887-5.016a5.747 5.747 0 0 1 5.774 0z"/>
    <ellipse cx="27.768" cy="27.382" fill="#000" fill-rule="nonzero" rx="27.768" ry="27.382" transform="translate(55.372 45.475)"/>
    <g stroke="#fff" transform="translate(53.83 43.932)">
      <use xlink:href="#h" fill="#fae100" stroke-width="15"/>
      <use xlink:href="#h" stroke-width="1.68"/>
    </g>
    <g transform="translate(55.372 45.475)">
      <mask id="j" fill="#fff">
        <use xlink:href="#i"/>
      </mask>
      <ellipse cx="27.768" cy="27.382" stroke="#d6dfe3" stroke-width="5.68" rx="30.608" ry="30.222"/>
      <g fill-rule="nonzero" mask="url(#j)">
        <path fill="#b28b67" d="M41.146 12.856c1.26 5.375-2.234 17.216-5.715 17.184-1.388-.013-3.934-1.574-6.294-4.027L27.551 39l-10.433-2.796 8.081-15.795c-1.372-2.89-1.955-6.138-.862-9.309 3.148-9.137 15.55-3.618 16.809 1.757Z"/>
        <path fill="#2c2c2c" d="M39.625 9.127c-.2-.207-.62-.642-.844-.82-.053-.042-.392-.454-.404-.453-.347.022-1.373.172-1.544.493a1.36 1.36 0 0 1-.055.062c-.194.202-.379.413-.559.629-.395.473-.763.98-1.12 1.484a49.252 49.252 0 0 0-1.963 3.04c-.632 1.05-1.219 2.129-1.836 3.19-.888 1.525-1.89 2.977-2.775 4.504-.565.974-1.008 1.995-1.223 3.096l-.008.04-.003.016c-.032.17-.058.341-.079.515-.017.148-.035.297-.05.447.622-.701 1.17-1.51 1.726-2.269.055-.074.108-.15.16-.225.152-.144.306-.285.46-.426.976-.886 1.954-1.768 2.906-2.68 1.714-1.643 3.428-3.33 5.319-4.753.558-.42 1.124-.83 1.679-1.256.315-.243.626-.492.93-.749.219-.183 1.114-.786.993-1.326-.062-.275-1.19-2.023-1.71-2.56Z"/>
        <path fill="#8991dc" d="M38.846 8.367c.211.14.228-.374.049-.604-.832-1.069-4.742-2.424-8.405-2.632-2.453-.14-5.478.338-7.749 1.385-2.047.945-3.796 2.87-4.967 4.869-1.229 2.099-1.956 4.435-2.232 6.851-.06.531-.027 1.061-.07 1.585-.048.59-.14 1.146-.104 1.742.022.365.125.745.13 1.107.006.414-.156.752-.34 1.122-.3.602-.632 1.195-1.024 1.743-.588.822-1.234 1.567-1.75 2.445-.685 1.17-3.24 4.887-2.477 6.291L30.13 39.69c-.137-1.527-1.227-3.573-1.137-5.144.052-.926.479-2.864.478-2.938.387-3.267-.1-5.007-.512-5.701-.411-.695-1.108-1.061-1.02-1.544.366-1.997 1.644-3.663 2.703-5.335 1.261-1.992 2.356-4.088 3.636-6.067.567-.877 3.47-5.323 4.568-4.594z"/>
        <path fill="#000" fill-opacity=".2" d="M18.82 23.545c3.825 2.428 2.636 5.007 7.163 9.155l-.511.148c-4.097-3.137-4.08-7.506-7.058-9.013Zm7.208-13.267c-.668 5.072-1.23 7.92.697 14.18l-.387.014c-2.21-5.593-1.738-9.548-.652-14.257Zm-6.78 1.948c.496 3.832.598 6.044 3.818 9.9l-.364.133c-3.341-3.29-3.774-6.264-3.792-9.97Zm11.905-3.51c-1.412 2.218-1.922 3.467-2.645 6.82l-.374-.1c.138-3.31 1.548-6.083 2.549-6.845z"/>
        <path fill="#b28b67" d="M3.903 76.023c.812 11.086 53.09 43.726 53.395 44.642.136.407-5.288 13.273-16.272 38.598l4.57 1.778c16.847-26.822 24.838-41.661 23.973-44.52-1.24-4.09-14.76-17.551-40.562-40.38z"/>
        <path fill="#2f3676" d="m42.229 153.544 7.46 2.718c15.734-17.768 21.9-32.428 20.776-39.898-.75-4.98-14.224-18.418-40.422-40.314H3.368c.91 25.674 49.366 44.712 50.014 45.806.648 1.095-5.73 11.81-11.153 31.688Z"/>
        <path fill="#e4e4e4" d="M39.343 158.395c-.933 1.092-1.513 1.951-1.742 2.579-.278.763-.556 1.923-.835 3.48l23.853 8.682c1.367-1.825 1.412-3.063.136-3.713a140.455 140.455 0 0 1-3.167-1.654l-9.286-8.982a.45.45 0 0 0-.646.02l-1.342 1.47c-1.446.128-2.556.051-3.329-.23-.628-.229-1.402-.798-2.324-1.708a.9.9 0 0 0-1.318.056z"/>
        <path fill="#997659" d="M-36.264 179.297h5.4L28.22 76.022H9.914l-23.289 55.963z"/>
        <path fill="#e4e4e4" d="M-36.587 177.114c-.503 1.345-.755 2.352-.755 3.02 0 .812.135 1.997.406 3.556h25.384c.66-2.183.279-3.362-1.142-3.536a140.455 140.455 0 0 1-3.542-.471l-11.798-5.265a.45.45 0 0 0-.6.24l-.758 1.841c-1.316.615-2.385.922-3.208.922-.668 0-1.59-.27-2.767-.81a.9.9 0 0 0-1.22.503z"/>
        <path fill="#5c63ab" d="m-34.197 169.47 12 2.252c9.278-13.654 48.107-69.638 52.364-95.7H3.453c-14.217 18.84-28.806 79.568-37.65 93.447Z"/>
        <path fill="#b28b67" d="m-7.504 65.964 9.256 1.67c-8.977 17.47-13.794 26.732-14.449 27.782-1.474 2.363.013 6.62.574 8.866-3.262.821-2.055-4.136-6.182-3.033-3.766 1.007-6.931 3.477-10.515.285-.44-.393-.78-1.638.688-2.306 3.656-1.663 9.046-4.752 9.908-5.929 1.176-1.606 4.75-10.717 10.72-27.335Zm56.034 8.098 10.394 14.474c3.378 2.204 6.067 4.454 8.068 6.75.413.726.77 2.04-1.602 1.062-2.373-.978-4.914-1.9-5.52-1.179-.605.722.545 2.194-.498 3.095-.695.6-2.225-1.969-4.588-7.708L43.086 80.549z"/>
        <path fill="#191847" d="m25.677 31.703 3.949.018c3.69 17.663 12.566 34.686 26.63 51.069L41.168 95.708C28.113 73.61 21.472 52.014 25.678 31.703Z"/>
        <path fill="#dde3e9" d="m.47 76.967 34.127 6.018c-4.513-20.637-5.584-37.681-3.213-51.132l-10.024-3.35C10.973 40.1 5.86 55.734.47 76.967Z"/>
        <path fill="#2f3676" d="M21.819 28.584c.799.17 2.015.435 3.647.797l1.233 7.555c-1.266 8.722-2.813 26.477-4.638 53.264L-.311 86.256a138.287 138.287 0 0 0-.68 5.55l-16.634-2.934c7.443-27.66 20.363-47.796 38.76-60.409l.006.009.006-.007Z"/>
        <path fill="#000" fill-opacity=".1" d="m5.918 87.534-6.254-1.103C.826 78.24 2.692 70.524 5.263 63.284c-1.359 11.43-1.14 19.514.655 24.25z"/>
        <path fill="#fff" fill-opacity=".2" d="M18.094 75.5 7.063 73.557l11.936-3.19z"/>
      </g>
    </g>
    <path fill="#fff" stroke="#235367" stroke-opacity=".185" stroke-width="3.824" d="m126.045 169.39 35.808 62.02a8.956 8.956 0 0 1 0 8.956l-35.808 62.02a8.956 8.956 0 0 1-7.756 4.478H46.674a8.956 8.956 0 0 1-7.756-4.477L3.111 240.366a8.956 8.956 0 0 1 0-8.956l35.807-62.02a8.956 8.956 0 0 1 7.756-4.478h71.615c3.2 0 6.156 1.707 7.756 4.478z"/>
    <path fill="#d6e1c7" stroke="#fff" stroke-width=".5" d="m103.257 246.375 15.313-43.68-2.743.904-15.037 41.352-17.396 34.25 2.506.857z"/>
    <path fill="#d6e1c7" stroke="#fff" stroke-width=".5" d="M131.015 236.369v3.108l-33.336 6.45-46.148 25.984v-3.532l46.148-25.122z"/>
    <path fill="#d6e1c7" stroke="#fff" stroke-width=".5" d="M131.015 236.369v3.108l-33.336 6.45-61.338-7.45v-2.532l61.338 7.312z"/>
    <path fill="#d6e1c7" stroke="#fff" stroke-width=".5" d="m81.512 284.865-5.235-63.896h2.19l5.235 61.226z"/>
    <path fill="#d6e1c7" stroke="#fff" stroke-width=".5" d="m111.464 270.888-73.126-29.951.193-2.995 74.124 30.275z"/>
    <path fill="#d8d8d8" d="m82.79 184.802 35.986 15.001 14.906 36.216-14.906 36.216-35.987 15.001-35.986-15-14.907-36.217 14.907-36.216Zm0 2.684-34.102 14.215-14.125 34.318 14.125 34.319 34.101 14.215 34.101-14.215 14.125-34.319-14.125-34.318Z" opacity=".321"/>
    <path fill="#a6cf74" d="m82.79 184.802 35.285 15.573-1.875.775-33.41-13.664-34.102 14.215-13.579 32.99-3.213 1.328 14.907-36.216Z"/>
    <path fill="#cee5b2" stroke="#fff" stroke-width=".998" d="m118.882 270.239 14.8-32.654-4.178.996-12.268 28.856z"/>
    <path fill="#d4eeb4" stroke="#fff" stroke-width="2.067" d="M134.791 232.553a5.802 5.802 0 0 1 2.887 5.016v.032c0 2.067-1.1 3.978-2.887 5.016a5.747 5.747 0 0 1-5.774 0 5.802 5.802 0 0 1-2.887-5.016v-.032c0-2.067 1.1-3.978 2.887-5.016a5.747 5.747 0 0 1 5.774 0zM85.01 277.731a5.802 5.802 0 0 1 2.886 5.016v.032c0 2.067-1.1 3.978-2.886 5.017a5.747 5.747 0 0 1-5.774 0 5.802 5.802 0 0 1-2.887-5.017v-.032c0-2.067 1.1-3.977 2.887-5.016a5.747 5.747 0 0 1 5.774 0z"/>
    <path fill="#a6cf74" stroke="#fff" stroke-width="2.067" d="M85.454 182.454a5.802 5.802 0 0 1 2.887 5.016v.032c0 2.067-1.1 3.978-2.887 5.016-.852.496-1.8.754-2.752.777l-5.29 14.951c.842.225 1.659.562 2.43 1.007l.466.27c.71.41 1.336.92 1.868 1.504l29.288-8.905.004-.138a5.802 5.802 0 0 1 2.881-4.769 5.747 5.747 0 0 1 5.774 0 5.802 5.802 0 0 1 2.887 5.017v.031c0 2.067-1.1 3.978-2.887 5.017a5.747 5.747 0 0 1-5.774 0 5.797 5.797 0 0 1-1.857-1.717l-28.431 9.195c.19.953.204 1.951.02 2.947l-.376 2.042a8.796 8.796 0 0 1-1.031 2.802l12.866 16.796a5.747 5.747 0 0 1 5.026.365 5.802 5.802 0 0 1 2.887 5.016v.032a5.8 5.8 0 0 1-1.13 3.44l12.466 16.27a5.745 5.745 0 0 1 3.556.738 5.802 5.802 0 0 1 2.887 5.017v.032c0 2.067-1.1 3.977-2.887 5.016a5.747 5.747 0 0 1-5.773 0 5.802 5.802 0 0 1-2.887-5.016v-.032c0-1.385.493-2.699 1.355-3.728L98.94 250.412a5.747 5.747 0 0 1-4.147-.638 5.802 5.802 0 0 1-2.887-5.016v-.032c0-.975.245-1.915.69-2.745l-12.5-16.616a8.798 8.798 0 0 1-2.128 1.092c-.401.14-.808.253-1.218.337l-21.925 38.824a5.8 5.8 0 0 1 1.18 3.506v.032c0 2.067-1.1 3.978-2.888 5.016a5.747 5.747 0 0 1-5.774 0 5.802 5.802 0 0 1-2.886-5.016v-.032c0-2.067 1.1-3.978 2.886-5.016a5.746 5.746 0 0 1 3.712-.718l20.63-36.987a9.241 9.241 0 0 1-2.53-1.423l-.406-.322a9.12 9.12 0 0 1-2.017-2.23L42.114 236.57l.001.103v.032c0 2.067-1.1 3.978-2.887 5.017a5.747 5.747 0 0 1-5.774 0 5.802 5.802 0 0 1-2.887-5.017v-.032c0-2.067 1.1-3.977 2.887-5.016a5.747 5.747 0 0 1 5.774 0c.503.292.95.653 1.335 1.067l24.797-14.092a9.121 9.121 0 0 1 .064-2.692l.078-.445a9.063 9.063 0 0 1 .669-2.18l-13.304-6.554a5.747 5.747 0 0 1-6.523.518 5.802 5.802 0 0 1-2.887-5.017v-.031c0-2.067 1.1-3.978 2.887-5.017a5.747 5.747 0 0 1 5.774 0 5.802 5.802 0 0 1 2.887 5.017v.031c0 .56-.08 1.11-.234 1.633l14.205 5.911a9.063 9.063 0 0 1 1.968-1.128 10.045 10.045 0 0 1 1.8-.56l5.675-16.59a5.802 5.802 0 0 1-1.626-4.027v-.032c0-2.067 1.1-3.978 2.887-5.016a5.747 5.747 0 0 1 5.774 0z"/>
    <ellipse cx="27.768" cy="26.996" fill="#000" fill-rule="nonzero" rx="27.768" ry="26.996" transform="translate(54.812 209.994)"/>
    <g transform="translate(53.27 206.852)">
      <ellipse cx="29.31" cy="28.539" fill="#a6cf74" stroke="#fff" stroke-width="9" rx="33.425" ry="32.653"/>
      <ellipse cx="29.31" cy="28.539" stroke="#d6dfe3" stroke-width="5.68" rx="31.765" ry="30.993"/>
    </g>
    <g transform="translate(54.812 209.994)">
      <mask id="l" fill="#fff">
        <use xlink:href="#k"/>
      </mask>
      <g fill-rule="nonzero" mask="url(#l)">
        <path fill="#915b3c" d="M35.28 16.086c3.099 5.782 2.73 20.45-1.275 21.483-1.597.412-5-.598-8.463-2.687l2.174 15.394H14.881l4.42-20.616c-2.465-2.895-4.133-6.444-3.855-10.42.803-11.457 16.735-8.936 19.834-3.154Z"/>
        <path fill="#191847" d="M18.314 32.239c-1.611-7.174-6.2-12.064-5.5-15.271.468-2.138 1.713-3.467 3.737-3.988 1.046-4.238 4.421-6.04 10.125-5.408 8.556.95 13.778 4.506 11.523 12.333-2.073 0-4.575-.75-8.036.535-1.098.408-1.883 1.673-2.356 3.796h-1.564c-1.518-2.519-3.014-3.444-4.49-2.777-1.475.668-1.81 2.29-1.005 4.865l-.77 5.915z"/>
        <path fill="#c5cfd6" d="M40.555 117.193a8.552 8.552 0 0 1 8.552 8.552v49.277a8.552 8.552 0 0 1-8.552 8.552h-61.508a8.552 8.552 0 0 1-8.553-8.552v-49.277a8.552 8.552 0 0 1 8.553-8.552Zm-8.56 14.99h-44.389c-1.18 0-2.138.956-2.138 2.137v32.127c0 1.18.958 2.138 2.138 2.138h44.39c1.18 0 2.138-.957 2.138-2.138V134.32c0-1.18-.958-2.138-2.139-2.138z"/>
        <path fill="#b28b67" d="M102.136 180.898c-10.544-12.889-17.678-22.444-21.402-28.666-6.378-10.652-11.597-20.131-13.244-23.752-3.928-8.635 9.042-12.678 11.978-8.65 4.443 6.095 13.931 25.277 28.465 57.544z"/>
        <path fill="#2f3676" d="m80.53 177.15-19.623-49.445c-4.196-9.014 16.071-14.938 19.155-10.744 7.003 9.524 23.646 47.092 25.732 49.93z"/>
        <path fill="#915b3c" d="M28.251 167.24c3.827-5.582 17.746-24.36 25.325-32.13a576.36 576.36 0 0 1 6.314-6.372c5.975-5.936 17.862 4.03 11.898 9.437-14.851 13.466-36.52 31.645-38.33 33.266-2.538 2.272-7.612-.694-5.207-4.202Z"/>
        <path fill="#5c63ab" d="M53.847 130.175c-16.31-2.66-27.234-4.479-32.773-5.457C5.286 121.932.682 113.427 3.404 94.87h29.09c3.85 1.113 19.935 7.996 48.255 20.648 5.096 2.532 4.147 9.998 3.215 12.457-.038.1-8.628 14.835-25.77 44.203l-23.796-15.175 19.493-25.04c.515-1.038.5-1.634-.044-1.788z"/>
        <path fill="#915b3c" d="m-9.554 88.295 11.176.044c-6.9 22.299-10.626 34.13-11.176 35.495-1.237 3.07 1.381 7.745 2.501 10.258-3.647 1.633-3.259-4.417-7.86-2.274-4.199 1.956-7.394 5.5-12.245 2.502-.597-.368-1.25-1.755.329-2.84 3.935-2.7 9.605-7.427 10.371-8.983 1.045-2.122 3.346-13.522 6.904-34.202Zm65.497-.433L73 100.402c4.627 1.25 8.492 2.805 11.596 4.665.734.668 1.62 2.023-1.421 1.789-3.041-.234-6.25-.344-6.67.695-.42 1.038 1.42 2.28.573 3.68-.566.935-3.237-1.407-8.015-7.025l-16.892-7.012Z"/>
        <path fill="#e87613" d="m22.205 41.353 4.625-.794c17.157 14.837 24.204 43.34 45.235 58.44l-5.062 6.281c-36.485-4.522-45.528-39.29-44.798-63.927Z"/>
        <path fill="#dde3e9" d="M2.047 99.527h40.917c1.87 0 1.517-2.703 1.247-4.067-3.12-15.739-15.296-32.705-15.296-55.109l-11.803-1.853C7.35 54.215 3.974 73.565 2.047 99.527Z"/>
        <path fill="#ff9b21" d="M16.224 38.498c.397 0 .762.025 1.093.075l3.7.212c10.6 35.964 13.523 59.958 8.77 71.984H-2.418c-1.908 4.454-3.734 8.201-5.478 11.242h-8.775c-.826-26.732 5.523-49.42 19.047-68.065-1.714-.492-3.072-1.642-4.073-3.45C-6.01 42.704-4.453 38.414.157 37.004c4.61-1.41 8.722 1.494 16.067 1.494Z"/>
        <path fill="#000" fill-opacity=".1" d="M9.534 110.769H-2.418c2.226-5.195 4.563-11.352 7.013-18.471 1.013 8.483 2.659 14.64 4.939 18.47z"/>
      </g>
    </g>
  </g>
</svg>
