<?xml version="1.0" encoding="UTF-8"?>
<svg id="Layer_1" data-name="Layer 1" xmlns="http://www.w3.org/2000/svg" xmlns:xlink="http://www.w3.org/1999/xlink" viewBox="0 0 1110 452">
  <defs>
    <mask id="mask" x="901.87" y="301.5" width="109.6" height="127.64" maskUnits="userSpaceOnUse">
      <g id="mask-3">
        <ellipse id="path-2" cx="969.73" cy="342.16" rx="41.23" ry="40.66" fill="#fff"/>
      </g>
    </mask>
    <mask id="mask-1" x="854.21" y="71.59" width="181.05" height="240.41" maskUnits="userSpaceOnUse">
      <g id="mask-6">
        <ellipse id="path-5" cx="969.09" cy="112.59" rx="42.17" ry="41" fill="#fff"/>
      </g>
    </mask>
    <mask id="mask-2" x="420.14" y="164.81" width="298.65" height="460.7" maskUnits="userSpaceOnUse">
      <g id="mask-9">
        <ellipse id="path-8-2" data-name="path-8" cx="545.32" cy="225.57" rx="61.57" ry="60.75" fill="#fff"/>
      </g>
    </mask>
    <mask id="mask-3-2" data-name="mask-3" x="35.94" y="72.51" width="160.28" height="272.78" maskUnits="userSpaceOnUse">
      <g id="mask-12">
        <ellipse id="path-11" cx="132.62" cy="113.17" rx="41.23" ry="40.66" fill="#fff"/>
      </g>
    </mask>
    <mask id="mask-4" x="46.74" y="303.52" width="204.1" height="272.61" maskUnits="userSpaceOnUse">
      <g id="mask-15">
        <ellipse id="path-14" cx="131.79" cy="343.61" rx="41.23" ry="40.09" fill="#fff"/>
      </g>
    </mask>
    <mask id="mask-5" x="584.09" y="-338.99" width="298.65" height="460.7" maskUnits="userSpaceOnUse"/>
    <mask id="mask-6-2" data-name="mask-6" x="134.87" y="-200.29" width="204.1" height="272.61" maskUnits="userSpaceOnUse"/>
  </defs>
  <line id="Path-14" x1="251.59" y1="112.23" x2="848.37" y2="342.02" fill="none" stroke="#8559ff" stroke-dasharray="0 8.91" stroke-linecap="round" stroke-linejoin="round" stroke-width="4.45"/>
  <line id="Path-14-2" data-name="Path-14" x1="848.21" y1="113.86" x2="252.09" y2="342.45" fill="none" stroke="#8559ff" stroke-dasharray="0 8.91" stroke-linecap="round" stroke-linejoin="round" stroke-width="4.45"/>
  <g id="Group-15">
    <g id="Pod-base-Copy-2">
      <g id="Polygon">
        <path d="M1032.67,243.22l53.17,92.1c2.38,4.11,2.38,9.18,0,13.3l-53.17,92.1c-2.38,4.11-6.77,6.65-11.52,6.65h-106.35c-4.75,0-9.14-2.53-11.52-6.65l-53.17-92.1c-2.38-4.11-2.38-9.18,0-13.3l53.17-92.1c2.38-4.11,6.77-6.65,11.52-6.65h106.35c4.75,0,9.14,2.53,11.52,6.65Z" fill="#fff" fill-rule="evenodd"/>
        <path d="M1021.15,450.21h-106.35c-5.75,0-11.1-3.09-13.98-8.07l-53.18-92.1c-2.87-4.98-2.87-11.16,0-16.14l53.17-92.1c2.87-4.98,8.23-8.07,13.98-8.07h106.35c5.75,0,11.1,3.09,13.98,8.07l53.17,92.1c2.87,4.98,2.87,11.16,0,16.14l-53.17,92.1c-2.87,4.98-8.23,8.07-13.98,8.07ZM914.8,239.41c-3.73,0-7.2,2-9.06,5.23l-53.17,92.1c-1.86,3.23-1.86,7.23,0,10.46l53.17,92.1c1.86,3.23,5.33,5.23,9.06,5.23h106.35c3.73,0,7.2-2,9.06-5.23l53.17-92.1c1.86-3.23,1.86-7.23,0-10.46l-53.17-92.1c-1.86-3.23-5.33-5.23-9.06-5.23h-106.35Z" fill="#ff527f"/>
      </g>
      <g id="Group">
        <polygon id="Path-25" points="960.44 408.19 964.16 409.47 989.93 359.45 1012.67 294.58 1008.6 295.93 986.27 357.33 960.44 408.19" fill="#ffbacc" fill-rule="evenodd" stroke="#fff" stroke-width=".74"/>
        <polygon id="Path-24" points="913.12 392.12 981.65 354.82 1031.16 344.59 1031.16 349.2 981.65 358.78 913.12 397.37 913.12 392.12" fill="#ffbacc" fill-rule="evenodd" stroke="#fff" stroke-width=".74"/>
        <polygon id="Path-24-2" data-name="Path-24" points="890.57 343.96 981.65 354.82 1031.16 344.59 1031.16 349.2 981.65 358.78 890.57 347.72 890.57 343.96" fill="#ffbacc" fill-rule="evenodd" stroke="#fff" stroke-width=".74"/>
        <polygon id="Path-24-3" data-name="Path-24" points="953.12 321.72 960.9 412.64 957.64 416.6 949.87 321.72 953.12 321.72" fill="#ffbacc" fill-rule="evenodd" stroke="#fff" stroke-width=".74"/>
        <polygon id="Path-24-4" data-name="Path-24" points="893.82 346.92 1003.89 391.88 1002.12 395.85 893.53 351.37 893.82 346.92" fill="#ffbacc" fill-rule="evenodd" stroke="#fff" stroke-width=".74"/>
        <path id="Combined-Shape" d="M968.43,266.11l53.44,22.28,22.14,53.78-22.14,53.78-53.44,22.28-53.44-22.28-22.14-53.78,22.14-53.78,53.44-22.28ZM968.43,270.09l-50.64,21.11-20.98,50.96,20.98,50.96,50.64,21.11,50.64-21.11,20.98-50.96-20.98-50.96-50.64-21.11Z" fill="#ff527f" fill-rule="evenodd" isolation="isolate" opacity=".32"/>
        <path id="Combined-Shape-2" data-name="Combined-Shape" d="M968.43,266.11l52.4,23.13-2.78,1.15-49.62-20.29-50.64,21.11-20.16,48.99-4.77,1.97,22.14-53.78,53.44-22.28Z" fill="#ff527f" fill-rule="evenodd"/>
        <polygon id="Path-2" points="1037.81 345.97 1019.59 388.82 1022.03 392.98 1044.01 344.49 1037.81 345.97" fill="#ff527f" fill-rule="evenodd" stroke="#fff" stroke-width="1.48"/>
        <path id="Polygon-Copy-8" d="M1045.66,337.02c2.65,1.54,4.29,4.38,4.29,7.45v.05c0,3.07-1.63,5.91-4.29,7.45-2.65,1.54-5.92,1.54-8.57,0-2.65-1.54-4.29-4.38-4.29-7.45v-.05c0-3.07,1.63-5.91,4.29-7.45,2.65-1.54,5.92-1.54,8.57,0Z" fill="#ffbacc" fill-rule="evenodd" stroke="#fff" stroke-width="3.07"/>
        <path id="Polygon-Copy" d="M971.73,404.11c2.65,1.54,4.29,4.38,4.29,7.45v.05c0,3.07-1.63,5.91-4.29,7.45-2.65,1.54-5.92,1.54-8.57,0-2.65-1.54-4.29-4.38-4.29-7.45v-.05c0-3.07,1.63-5.91,4.29-7.45,2.65-1.54,5.92-1.54,8.57,0Z" fill="#ffbacc" fill-rule="evenodd" stroke="#fff" stroke-width="3.07"/>
        <path id="Combined-Shape-3" data-name="Combined-Shape" d="M972.39,262.62c2.65,1.54,4.29,4.38,4.29,7.45v.05c0,3.07-1.63,5.91-4.29,7.45-1.27.74-2.67,1.12-4.09,1.15l-7.85,22.2c1.25.33,2.46.83,3.61,1.5l.69.4c1.05.61,1.98,1.37,2.77,2.23l43.49-13.22v-.2c.13-2.93,1.74-5.6,4.28-7.08,2.65-1.54,5.92-1.54,8.57,0,2.65,1.54,4.29,4.38,4.29,7.45v.05c0,3.07-1.63,5.91-4.29,7.45-2.65,1.54-5.92,1.54-8.57,0-1.11-.65-2.05-1.52-2.76-2.55l-42.22,13.65c.28,1.42.3,2.9.03,4.38l-.56,3.03c-.27,1.49-.8,2.89-1.53,4.16l19.11,24.94c2.42-.97,5.17-.79,7.46.54,2.65,1.54,4.29,4.38,4.29,7.45v.05c0,1.87-.61,3.65-1.68,5.11l18.51,24.16c1.8-.21,3.66.15,5.28,1.1,2.65,1.54,4.29,4.38,4.29,7.45v.05c0,3.07-1.63,5.91-4.29,7.45-2.65,1.54-5.92,1.54-8.57,0-2.65-1.54-4.29-4.38-4.29-7.45v-.05c0-2.06.73-4.01,2.01-5.54l-17.97-23.88c-2.07.46-4.27.15-6.16-.95-2.65-1.54-4.29-4.38-4.29-7.45v-.05c0-1.45.36-2.84,1.03-4.08l-18.56-24.68c-.96.67-2.02,1.22-3.16,1.62-.6.21-1.2.38-1.81.5l-32.56,57.65c1.12,1.47,1.75,3.3,1.75,5.21v.05c0,3.07-1.63,5.91-4.29,7.45-2.65,1.54-5.92,1.54-8.57,0-2.65-1.54-4.29-4.38-4.29-7.45v-.05c0-3.07,1.63-5.91,4.29-7.45,1.69-.98,3.64-1.34,5.51-1.07l30.63-54.92c-1.34-.5-2.61-1.2-3.75-2.11l-.6-.48c-1.19-.95-2.2-2.07-3-3.31l-36.56,21c0,.05,0,.1,0,.15v.05c0,3.07-1.63,5.91-4.29,7.45-2.65,1.54-5.92,1.54-8.57,0-2.65-1.54-4.29-4.38-4.29-7.45v-.05c0-3.07,1.63-5.91,4.29-7.45,2.65-1.54,5.92-1.54,8.57,0,.75.43,1.41.97,1.98,1.58l36.82-20.93c-.16-1.31-.14-2.66.1-4l.11-.66c.2-1.13.53-2.22.99-3.24l-19.76-9.73c-.35.28-.72.54-1.11.77-2.65,1.54-5.92,1.54-8.57,0-2.65-1.54-4.29-4.38-4.29-7.45v-.05c0-3.07,1.63-5.91,4.29-7.45,2.65-1.54,5.92-1.54,8.57,0,2.65,1.54,4.29,4.38,4.29,7.45v.05c0,.83-.12,1.65-.35,2.42l21.09,8.78c.89-.67,1.87-1.24,2.92-1.68.87-.36,1.77-.64,2.67-.83l8.43-24.64c-1.53-1.58-2.41-3.72-2.41-5.98v-.05c0-3.07,1.63-5.91,4.29-7.45,2.65-1.54,5.92-1.54,8.57,0Z" fill="#ff527f" fill-rule="evenodd" stroke="#fff" stroke-width="3.07"/>
      </g>
    </g>
    <g id="humaaan-12">
      <g id="Mask">
        <g id="path-13-link">
          <ellipse id="path-13" cx="969.73" cy="339.78" rx="41.23" ry="40.66"/>
        </g>
        <g id="Oval">
          <ellipse cx="969.73" cy="339.78" rx="49.64" ry="49.06" fill="#fff" stroke="#fff" stroke-width="13.36"/>
          <ellipse cx="969.73" cy="339.78" rx="47.17" ry="46.6" fill="none" stroke="#ff527f" stroke-width="8.43"/>
        </g>
      </g>
      <g id="Clipped">
        <g mask="url(#mask)">
          <g id="Group-2" data-name="Group">
            <g>
              <g id="Head_Front_Pony" data-name="Head/Front/Pony">
                <g id="Head">
                  <path id="Path" d="M950.7,324.81c-1.61,6.84,2.84,21.91,7.28,21.87,1.77-.02,5.01-2.01,8.02-5.13l2.01,16.53,13.3-3.56-10.29-20.1c1.75-3.68,2.49-7.81,1.1-11.85-4.01-11.63-19.82-4.6-21.42,2.24Z" fill="#d4a181"/>
                </g>
                <path id="hair" d="M951.67,312.6c-3.06.82-4.88,3.96-4.06,7.02s3.76,4.75,6.72,4.13c1.81.07,4.06-.13,6.48-.61,0,.93.14,1.95.44,3.07.26.99.65,2,1.14,3.01.35-.75.93-1.34,1.63-1.53,1.96-.53,3.76.72,4.21,2.43.58,2.17-.25,4.08-2.05,4.7,2.5,2.72,5.42,4.49,7.69,3.88,4.33-1.16,5.86-7.77,4.19-13.99-.06-.22-.12-.43-.19-.64,5.42,1.91,10.61,7.16,16.66,5.53,8.24-2.21,7.06-19.7-4.45-16.62-7.83,2.1-11.38,4.27-14.24,6.85-1.15-1.67-2.56-2.95-4.07-3.71-.38-.25-.92-.45-1.59-.59-.4-.1-.81-.16-1.21-.17-2.2-.2-5.24.06-8.51.81-.61.14-1.21.29-1.78.46-.83-3.05-3.97-4.85-7.02-4.04Z" fill="#ff527f"/>
              </g>
              <g id="Body_Pointing-Forward" data-name="Body/Pointing-Forward">
                <path id="Skin" d="M912.44,383.03c-2.54-.07-9.29-3.46-10.16-2.38-1.29,1.6.79,5.46,2.75,7.21,3.66,3.28,6.37,4.15,12.79,4.77,3.36.33,7.13,1.5,11.32,3.53l-1.03-8.73-9.45-3.21c-2.02-4.38-3.87-6.44-5.56-6.17-1.4-.37,1.88,5.04-.66,4.97ZM923.79,360.73c2.08,2.53,4.15,5.28,3.49,6.28s-2.88.15-3.58,1.76c-.47,1.07,3.23,1.98,11.1,2.72l16.55,10.53,5.87-9.05-21.5-7.28c-3.94-3.3-7.69-5.73-11.23-7.32-1.04-.23-2.77-.18-.7,2.35Z" fill="#d4a181"/>
                <path id="Sleeve" d="M966.34,368.91c-6.88,1.14-16.29,1.3-27.16-3.17l-2.33,9.23c7.92,5.5,18.37,9.32,26.61,7.63,6.5-1.33,8.44-9.82,2.88-13.68Z" fill="#ff527f"/>
                <path id="Clothes" d="M962.05,347.27c1.09,11.26-1.1,24.27-2.54,36.99-6.97,3.1-19.57,3.12-37.81.04-2.7,9.55-3.57,16.18-2.58,19.87,16.08,5.09,29.3,6.29,39.74,4.69.75,6.22,2.54,11.96,6.01,16.88,7.13,10.11,35.69-5.45,46.26-5.25,2.73-21.88-11.12-28.14-13.47-41.41-2.58-14.54-18.2-34.87-19.92-34.56h0l-15.67,2.76Z" fill="#ff527f"/>
              </g>
            </g>
          </g>
        </g>
      </g>
    </g>
  </g>
  <g id="Group-14">
    <g id="Pod-base-Copy-3">
      <g id="Polygon-2" data-name="Polygon">
        <path d="M1032.67,14.47l53.17,92.1c2.38,4.11,2.38,9.18,0,13.3l-53.17,92.1c-2.38,4.11-6.77,6.65-11.52,6.65h-106.35c-4.75,0-9.14-2.53-11.52-6.65l-53.17-92.1c-2.38-4.11-2.38-9.18,0-13.3l53.17-92.1c2.38-4.11,6.77-6.65,11.52-6.65h106.35c4.75,0,9.14,2.53,11.52,6.65Z" fill="#fff" fill-rule="evenodd"/>
        <path d="M1021.15,221.45h-106.35c-5.75,0-11.1-3.09-13.98-8.07l-53.18-92.1c-2.87-4.98-2.87-11.16,0-16.14l53.17-92.1c2.87-4.98,8.23-8.07,13.98-8.07h106.35c5.75,0,11.1,3.09,13.98,8.07l53.17,92.1c2.87,4.98,2.87,11.16,0,16.14l-53.17,92.1c-2.87,4.98-8.23,8.07-13.98,8.07ZM914.8,10.66c-3.73,0-7.2,2-9.06,5.23l-53.17,92.1c-1.86,3.23-1.86,7.23,0,10.46l53.17,92.1c1.86,3.23,5.33,5.23,9.06,5.23h106.35c3.73,0,7.2-2,9.06-5.23l53.17-92.1c1.86-3.23,1.86-7.23,0-10.46l-53.17-92.1c-1.86-3.23-5.33-5.23-9.06-5.23h-106.35Z" fill="#362b48"/>
      </g>
      <g id="Group-3" data-name="Group">
        <polygon id="Path-25-2" data-name="Path-25" points="969.33 177.53 973.06 178.81 998.83 128.79 1021.57 63.92 1017.5 65.27 995.17 126.67 969.33 177.53" fill="#afaab6" fill-rule="evenodd" stroke="#fff" stroke-width=".74"/>
        <polygon id="Path-24-5" data-name="Path-24" points="922.02 161.46 990.55 124.16 1040.05 113.93 1040.05 118.54 990.55 128.12 922.02 166.71 922.02 161.46" fill="#afaab6" fill-rule="evenodd" stroke="#fff" stroke-width=".74"/>
        <polygon id="Path-24-6" data-name="Path-24" points="899.46 113.3 990.55 124.16 1040.05 113.93 1040.05 118.54 990.55 128.12 899.46 117.06 899.46 113.3" fill="#afaab6" fill-rule="evenodd" stroke="#fff" stroke-width=".74"/>
        <polygon id="Path-24-7" data-name="Path-24" points="962.02 91.06 969.79 181.98 966.54 185.95 958.76 91.06 962.02 91.06" fill="#afaab6" fill-rule="evenodd" stroke="#fff" stroke-width=".74"/>
        <polygon id="Path-24-8" data-name="Path-24" points="902.71 116.27 1012.79 161.22 1011.02 165.19 902.42 120.71 902.71 116.27" fill="#afaab6" fill-rule="evenodd" stroke="#fff" stroke-width=".74"/>
        <path id="Combined-Shape-4" data-name="Combined-Shape" d="M968.43,37.35l53.44,22.28,22.14,53.78-22.14,53.78-53.44,22.28-53.44-22.28-22.14-53.78,22.14-53.78,53.44-22.28ZM968.43,41.34l-50.64,21.11-20.98,50.96,20.98,50.96,50.64,21.11,50.64-21.11,20.98-50.96-20.98-50.96-50.64-21.11Z" fill="#362b48" fill-rule="evenodd" isolation="isolate" opacity=".32"/>
        <path id="Combined-Shape-5" data-name="Combined-Shape" d="M968.43,37.35l52.4,23.13-2.78,1.15-49.62-20.29-50.64,21.11-20.16,48.99-4.77,1.97,22.14-53.78,53.44-22.28Z" fill="#362b48" fill-rule="evenodd"/>
        <polygon id="Path-2-2" data-name="Path-2" points="1037.81 117.21 1019.59 160.07 1022.03 164.23 1044.01 115.74 1037.81 117.21" fill="#afaab6" fill-rule="evenodd" stroke="#fff" stroke-width="1.48"/>
        <path id="Polygon-Copy-8-2" data-name="Polygon-Copy-8" d="M1045.66,108.26c2.65,1.54,4.29,4.38,4.29,7.45v.05c0,3.07-1.63,5.91-4.29,7.45-2.65,1.54-5.92,1.54-8.57,0-2.65-1.54-4.29-4.38-4.29-7.45v-.05c0-3.07,1.63-5.91,4.29-7.45,2.65-1.54,5.92-1.54,8.57,0Z" fill="#afaab6" fill-rule="evenodd" stroke="#fff" stroke-width="3.07"/>
        <path id="Polygon-Copy-2" data-name="Polygon-Copy" d="M971.73,175.35c2.65,1.54,4.29,4.38,4.29,7.45v.05c0,3.07-1.63,5.91-4.29,7.45-2.65,1.54-5.92,1.54-8.57,0-2.65-1.54-4.29-4.38-4.29-7.45v-.05c0-3.07,1.63-5.91,4.29-7.45,2.65-1.54,5.92-1.54,8.57,0Z" fill="#afaab6" fill-rule="evenodd" stroke="#fff" stroke-width="3.07"/>
        <path id="Combined-Shape-6" data-name="Combined-Shape" d="M972.39,33.87c2.65,1.54,4.29,4.38,4.29,7.45v.05c0,3.07-1.63,5.91-4.29,7.45-1.27.74-2.67,1.12-4.09,1.15l-7.85,22.2c1.25.33,2.46.83,3.61,1.5l.69.4c1.05.61,1.98,1.37,2.77,2.23l43.49-13.22v-.2c.13-2.93,1.74-5.6,4.28-7.08,2.65-1.54,5.92-1.54,8.57,0,2.65,1.54,4.29,4.38,4.29,7.45v.05c0,3.07-1.63,5.91-4.29,7.45-2.65,1.54-5.92,1.54-8.57,0-1.11-.65-2.05-1.52-2.76-2.55l-42.22,13.65c.28,1.42.3,2.9.03,4.38l-.56,3.03c-.27,1.49-.8,2.89-1.53,4.16l19.11,24.94c2.42-.97,5.17-.79,7.46.54,2.65,1.54,4.29,4.38,4.29,7.45v.05c0,1.87-.61,3.65-1.68,5.11l18.51,24.16c1.8-.21,3.66.15,5.28,1.1,2.65,1.54,4.29,4.38,4.29,7.45v.05c0,3.07-1.63,5.91-4.29,7.45-2.65,1.54-5.92,1.54-8.57,0-2.65-1.54-4.29-4.38-4.29-7.45v-.05c0-2.06.73-4.01,2.01-5.54l-17.97-23.88c-2.07.46-4.27.15-6.16-.95-2.65-1.54-4.29-4.38-4.29-7.45v-.05c0-1.45.36-2.84,1.03-4.08l-18.56-24.68c-.96.67-2.02,1.22-3.16,1.62-.6.21-1.2.38-1.81.5l-32.56,57.65c1.12,1.47,1.75,3.3,1.75,5.21v.05c0,3.07-1.63,5.91-4.29,7.45-2.65,1.54-5.92,1.54-8.57,0-2.65-1.54-4.29-4.38-4.29-7.45v-.05c0-3.07,1.63-5.91,4.29-7.45,1.69-.98,3.64-1.34,5.51-1.07l30.63-54.92c-1.34-.5-2.61-1.2-3.75-2.11l-.6-.48c-1.19-.95-2.2-2.07-3-3.31l-36.56,21c0,.05,0,.1,0,.15v.05c0,3.07-1.63,5.91-4.29,7.45-2.65,1.54-5.92,1.54-8.57,0-2.65-1.54-4.29-4.38-4.29-7.45v-.05c0-3.07,1.63-5.91,4.29-7.45,2.65-1.54,5.92-1.54,8.57,0,.75.43,1.41.97,1.98,1.58l36.82-20.93c-.16-1.31-.14-2.66.1-4l.11-.66c.2-1.13.53-2.22.99-3.24l-19.76-9.73c-.35.28-.72.54-1.11.77-2.65,1.54-5.92,1.54-8.57,0-2.65-1.54-4.29-4.38-4.29-7.45v-.05c0-3.07,1.63-5.91,4.29-7.45,2.65-1.54,5.92-1.54,8.57,0,2.65,1.54,4.29,4.38,4.29,7.45v.05c0,.83-.12,1.65-.35,2.42l21.09,8.78c.89-.67,1.87-1.24,2.92-1.68.87-.36,1.77-.64,2.67-.83l8.43-24.64c-1.53-1.58-2.41-3.72-2.41-5.98v-.05c0-3.07,1.63-5.91,4.29-7.45,2.65-1.54,5.92-1.54,8.57,0Z" fill="#362b48" fill-rule="evenodd" stroke="#fff" stroke-width="3.07"/>
      </g>
    </g>
    <g id="A-Human_Standing" data-name="A-Human/Standing">
      <g id="Mask-2" data-name="Mask">
        <g id="path-10-link">
          <ellipse id="path-10" cx="969.09" cy="111.4" rx="42.17" ry="41"/>
        </g>
        <g id="Oval-2" data-name="Oval">
          <ellipse cx="969.09" cy="111.4" rx="49.66" ry="48.49" fill="#fff" stroke="#fff" stroke-width="13.36"/>
          <ellipse cx="969.09" cy="111.4" rx="47.2" ry="46.02" fill="none" stroke="#726b7f" stroke-width="8.43"/>
        </g>
      </g>
      <g id="A-Human_Sitting-Clipped" data-name="A-Human/Sitting-Clipped">
        <g mask="url(#mask-1)">
          <g id="A-Human_Sitting" data-name="A-Human/Sitting">
            <g id="Group-4" data-name="Group">
              <g>
                <g id="Head_Front_Curly" data-name="Head/Front/Curly">
                  <g id="Head-2" data-name="Head">
                    <path id="Path-2" data-name="Path" d="M953.73,97.69c-3.9,7.26-3.44,25.67,1.6,26.97,2.01.52,6.29-.75,10.65-3.37l-2.74,19.33h16.15l-5.56-25.88c3.1-3.64,5.2-8.09,4.85-13.08-1.01-14.38-21.06-11.22-24.96-3.96Z" fill="#b28b67"/>
                  </g>
                  <path id="hair-2" data-name="hair" d="M946.57,87.62c.33-1.17,1.23-2.18,2.45-2.48.29-.07.6-.1.9-.09.11,0,.14.04.19-.04.04-.06.04-.19.05-.26.05-.21.11-.41.18-.61.25-.67.68-1.27,1.19-1.77.96-.94,2.26-1.59,3.61-1.71.74-.06,1.47.06,2.17.3.36.12.71.28,1.05.45.1.05.44.3.54.29.11-.02.34-.3.44-.37,1.15-.88,2.56-1.22,3.99-1.21,1.61.01,3.16.09,4.5,1.07.28.21.55.43.81.67.14.13.27.26.39.39.08.08.15.17.22.25.12.15.1.19.27.09.65-.39,1.4-.58,2.15-.48.45.05.88.19,1.3.37.14.06.47.3.62.3.15,0,.47-.22.62-.28.83-.31,1.72-.38,2.59-.24.9.15,1.78.5,2.54,1,.37.24.69.5.94.86.11.15.21.31.34.46.07.08.22.17.26.27-.02-.06.98-.45,1.08-.47.51-.13,1.02-.11,1.52.06.93.31,1.73.99,2.39,1.7.34.36.63.76.89,1.19.12.2.23.41.33.63.05.1.08.23.15.33.08.12.14.12.29.18.76.27,1.46.72,1.99,1.33.54.62.88,1.38,1.03,2.18,0,.05.01.24.04.27.04.04.19.02.25.03.2.02.4.06.6.11.36.09.72.21,1.05.38,1.3.64,2.23,1.85,2.69,3.21.48,1.42.47,3.06-.1,4.45-.09.23-.2.44-.33.65-.08.13-.1.13-.05.26.06.15.16.29.23.44.22.47.38.98.48,1.49.16.84.24,1.73.08,2.57-.07.39-.2.78-.4,1.13-.1.18-.22.35-.35.51-.07.08-.14.16-.22.23-.04.04-.1.08-.14.13-.09.12-.11.02-.06.19.07.24.21.47.3.7.09.24.18.48.25.72.16.49.29,1,.37,1.51.16.98.13,2.03-.34,2.93-.2.39-.48.72-.83.99-.17.13-.35.24-.55.33-.1.05-.23.07-.27.16-.05.1.02.31.04.42.14,1,.22,2.05-.08,3.03-.27.9-.88,1.7-1.66,2.23-1.52,1.02-3.57.97-5.17.15-.42-.21-.81-.48-1.15-.79-.89,1.19-2.71,1.15-4,.81-1.61-.42-2.91-1.54-3.65-3.01-1.02,1.24-3.16.84-3.86-.51-.17-.33-.28-.69-.33-1.06-.03-.19,0-.39-.03-.58-.03-.24-.19-.48-.28-.72-.18-.46-.3-.93-.3-1.43,0-.26.03-.51.05-.77.02-.23-.04-.45-.08-.67.41.07.92-.04,1.31-.16.38-.12.74-.43,1.01-.71.63-.66,1.01-1.52,1.27-2.37.57-1.88.34-4.13-1.55-5.16-.88-.48-3.52-.48-4.57-.24-1.1.25-2.36,2.68-2.42,2.91-.04.14-.02.32-.15.41-.29.21-.76-.15-.97-.33-.36-.31-.62-.71-.85-1.13-.49-.9-.89-1.87-1.16-2.85-.22-.76-.35-1.54-.63-2.28-.28-.74-.72-1.4-1.41-1.81-.75-.45-1.6-.69-2.42-.98-.81-.28-1.61-.63-2.24-1.23-.14-.13-.27-.27-.38-.43-.09-.12-.17-.36-.31-.44-.21-.12-.51.19-.69.31-.89.56-1.63,1.35-2.23,2.21-.59.85-1.08,1.68-1.48,2.63-.29.71-.48,1.61-1,2.19-.23.26-1.95.42-2.5.19-.56-.23-1.18-.81-1.37-1.18-.19-.38-.24-.79-.16-1.2.05-.24.15-.47.2-.71.05-.2.09-.39.18-.57.18-.35.5-.6.88-.7-.4-.36-.72-.8-.95-1.29-.24-.51-.44-1.12-.49-1.68-.05-.45.03-.92.27-1.31.26-.41.72-.67,1.12-.93-.61-.48-1.13-1.05-1.56-1.69-.83-1.24-1.35-2.81-.92-4.3Z" fill="#362b48"/>
                </g>
                <g id="Bottom_Sitting_Sweat-Pants" data-name="Bottom/Sitting/Sweat-Pants">
                  <g id="Objects_Seat_Cube-2" data-name="Objects/Seat/Cube-2">
                    <path id="Seat" d="M947.09,224.63c-5.95,0-10.77,4.82-10.77,10.77v61.8c0,5.95,4.82,10.77,10.77,10.77h77.4c5.95,0,10.77-4.82,10.77-10.77v-61.8c0-5.95-4.82-10.77-10.77-10.77h-77.4ZM957.86,243.44h55.86c1.49,0,2.69,1.21,2.69,2.69h0v40.32c0,1.49-1.21,2.69-2.69,2.69h-55.86c-1.49,0-2.69-1.21-2.69-2.69h0v-40.32c0-1.49,1.21-2.69,2.69-2.69h0Z" fill="#c5cfd6"/>
                  </g>
                  <path id="Skin-2" data-name="Skin" d="M896.55,221.6c-3.42,8.84-9.38,37.87-16.55,81.73l8.19,2.39c8.62-19.06,14.86-35.66,17.36-44.41,4.29-14.99,7.55-28.19,8.37-33.11,1.97-11.75-15.12-12.43-17.38-6.59ZM922.41,246.24c24.95,3.59,60.32,7.29,63.34,7.7,4.24.58,7.45-6.07,2.48-8.04-7.91-3.12-35.62-12.9-48.98-15.66-3.84-.79-7.56-1.53-11.06-2.2-10.4-1.98-15.79,16.76-5.77,18.19Z" fill="#b28b67"/>
                  <path id="Leg-Back" d="M959.5,196.4c-41.41,10.54-62.56,17.29-63.47,20.26l-.03.1s-.04.05-.06.08c-8.21,11.27-13.12,66.29-14.73,70.41l15.72,2.34c6.01-22.27,25.26-37.79,24.75-64.46.14-.78.17-1.52.12-2.23l42.8-21.76v-4.74h-5.09Z" fill="#005eb8"/>
                  <path id="Leg-Front" d="M957.23,196.4c-6,1.72-37.17,14.78-53.35,21.72-10.71,4.6-7.33,21.16-1.27,25.47.03.26.14.44.34.53,32.61,13.5,58.41,6.42,67.03,8.68l3.99-12.56-12.93-4.43c3.92-.78,7.52-1.48,10.61-2.02,19.93-3.49,25.74-14.15,22.31-37.39h-36.72Z" fill="#0072c3"/>
                  <g id="Accessories_Shoe_Flat-Sneaker" data-name="Accessories/Shoe/Flat-Sneaker">
                    <path id="shoe" d="M985.52,243.89c2.13.2,3.65.52,4.54.96,1.09.53,2.59,1.49,4.5,2.87-.62,1.27-6.16,12.64-16.64,34.12-3.36-.54-4.69-1.82-3.99-3.85.7-2.02,1.26-3.71,1.69-5.07l.67-19.3c.01-.37.32-.66.7-.65,0,0,.01,0,.02,0l2.97.18h0c1.69-1.37,2.8-2.6,3.34-3.71.44-.9.68-2.32.73-4.25h0c.02-.74.64-1.33,1.38-1.31.03,0,.06,0,.09,0Z" fill="#e4e4e4"/>
                  </g>
                  <g id="Accessories_Shoe_Flat-Sneaker-2" data-name="Accessories/Shoe/Flat-Sneaker">
                    <path id="shoe-2" data-name="shoe" d="M892.12,302.19c.75,2.01,1.13,3.51,1.13,4.51,0,1.21-.2,2.98-.61,5.31h-37.96c-.99-3.26-.42-5.01,1.71-5.27,2.13-.26,3.89-.49,5.3-.7l17.64-7.86c.34-.15.74,0,.89.34,0,0,0,.01,0,.02l1.13,2.75h0c1.97.92,3.57,1.38,4.8,1.38,1,0,2.38-.4,4.14-1.21h0c.68-.31,1.47-.01,1.78.66.01.03.03.06.04.09Z" fill="#e4e4e4"/>
                  </g>
                </g>
                <g id="Body_Jacket" data-name="Body/Jacket">
                  <path id="Skin-3" data-name="Skin" d="M1010.15,188.34l-14.07.06c8.68,28,13.37,42.85,14.07,44.56,1.56,3.85-1.74,9.72-3.15,12.88,4.59,2.05,4.1-5.55,9.89-2.85,5.29,2.46,9.31,6.9,15.41,3.14.75-.46,1.57-2.2-.41-3.57-4.95-3.39-12.09-9.33-13.05-11.28-1.31-2.66-4.21-16.98-8.69-42.94h0ZM925.53,185.73l-19.07,18.57c-5.55,2.36-10.09,4.97-13.64,7.83-.8.96-1.66,2.8,2.08,1.98,3.75-.82,7.73-1.52,8.43-.3.7,1.22-1.37,3.08-.07,4.68.87,1.06,3.79-2.32,8.76-10.14l19.83-11.67-6.33-10.94Z" fill="#b28b67"/>
                  <path id="Coat-Back" d="M970.18,129.41l-5.82-1c-10.02,25-27.51,47.71-52.48,68.14l18.87,22.89c24.97-29.09,40.35-59.1,39.44-90.03Z" fill="#362b48"/>
                  <path id="Shirt" d="M995.55,202.45h-51.83c12.01-29.15,18.01-53.92,18.01-74.29l15.63-2.33c12.29,19.73,15.76,44.03,18.18,76.62Z" fill="#362b48"/>
                  <path id="Coat-Front" d="M976.68,125.83c-1.22.04-3.08.12-5.58.23h0l-3.78,10.78c-.4,13.14-2.73,39.63-7,79.46h33.97c-.09,2.75-.24,5.53-.44,8.33h25.26c-3.78-42.57-17.58-75.5-41.4-98.8h-.01s0,0,0,0h-1.02Z" fill="#362b48"/>
                  <path id="Shade" d="M984.78,216.56h9.5c.42-12.34-.33-24.16-2.23-35.46-.97,17.15-3.39,28.97-7.26,35.46Z"/>
                  <polygon id="Light" points="986.73 195.72 969.98 187.95 969.98 195.72 986.73 195.72" fill="rgba(255, 255, 255, .2)"/>
                </g>
              </g>
            </g>
          </g>
        </g>
      </g>
    </g>
  </g>
  <g id="Group-25">
    <g id="Group-6">
      <g id="Pod-base">
        <g id="Polygon-3" data-name="Polygon">
          <path d="M646.93,71.57l83.69,144.95c3.74,6.48,3.74,14.45,0,20.93l-83.69,144.95c-3.74,6.48-10.65,10.47-18.13,10.47h-167.38c-7.48,0-14.39-3.99-18.13-10.47l-83.69-144.95c-3.74-6.48-3.74-14.45,0-20.93l83.69-144.95c3.74-6.48,10.65-10.47,18.13-10.47h167.38c7.48,0,14.39,3.99,18.13,10.47Z" fill="#fff" fill-rule="evenodd"/>
          <path d="M628.8,397.34h-167.38c-9.05,0-17.47-4.87-22-12.7l-83.69-144.95c-4.52-7.83-4.52-17.57,0-25.4l83.69-144.95c4.52-7.83,12.95-12.7,22-12.7h167.38c9.05,0,17.47,4.87,22,12.7l83.69,144.95c4.52,7.83,4.52,17.57,0,25.4l-83.69,144.95c-4.52,7.83-12.95,12.7-22,12.7ZM461.43,65.57c-5.86,0-11.33,3.15-14.26,8.23l-83.69,144.95c-2.93,5.08-2.93,11.39,0,16.46l83.69,144.95c2.93,5.08,8.39,8.23,14.26,8.23h167.38c5.86,0,11.33-3.15,14.26-8.23l83.69-144.95c2.93-5.08,2.93-11.39,0-16.46l-83.69-144.95c-2.93-5.08-8.39-8.23-14.26-8.23h-167.38Z" fill="#7b4dff"/>
        </g>
        <g id="Group-5" data-name="Group">
          <polygon id="Path-25-3" data-name="Path-25" points="547.25 328.21 553.11 330.22 593.67 251.49 629.46 149.41 623.05 151.52 587.91 248.17 547.25 328.21" fill="#bfb0ff" fill-rule="evenodd" stroke="#fff" stroke-width="1.17"/>
          <polygon id="Path-24-9" data-name="Path-24" points="472.78 302.92 580.63 244.21 658.55 228.11 658.55 235.37 580.63 250.45 472.78 311.17 472.78 302.92" fill="#bfb0ff" fill-rule="evenodd" stroke="#fff" stroke-width="1.17"/>
          <polygon id="Path-24-10" data-name="Path-24" points="437.28 227.12 580.63 244.21 658.55 228.11 658.55 235.37 580.63 250.45 437.28 233.04 437.28 227.12" fill="#bfb0ff" fill-rule="evenodd" stroke="#fff" stroke-width="1.17"/>
          <polygon id="Path-24-11" data-name="Path-24" points="535.73 192.12 547.97 335.21 542.85 341.45 530.61 192.12 535.73 192.12" fill="#bfb0ff" fill-rule="evenodd" stroke="#fff" stroke-width="1.17"/>
          <polygon id="Path-24-12" data-name="Path-24" points="442.4 231.78 615.64 302.54 612.85 308.78 441.95 238.78 442.4 231.78" fill="#bfb0ff" fill-rule="evenodd" stroke="#fff" stroke-width="1.17"/>
          <path id="Combined-Shape-7" data-name="Combined-Shape" d="M545.83,107.59l84.11,35.06,34.84,84.64-34.84,84.64-84.11,35.06-84.11-35.06-34.84-84.64,34.84-84.64,84.11-35.06ZM545.83,113.86l-79.7,33.22-33.01,80.21,33.01,80.21,79.7,33.22,79.7-33.22,33.01-80.21-33.01-80.21-79.7-33.22Z" fill="#7b4dff" fill-rule="evenodd" isolation="isolate" opacity=".32"/>
          <path id="Combined-Shape-8" data-name="Combined-Shape" d="M545.83,107.59l82.47,36.4-4.38,1.81-78.09-31.94-79.7,33.22-31.74,77.1-7.51,3.11,34.84-84.64,84.11-35.06Z" fill="#7b4dff" fill-rule="evenodd"/>
          <polygon id="Path-2-3" data-name="Path-2" points="655.01 233.28 626.34 300.72 630.19 307.27 664.78 230.95 655.01 233.28" fill="#bfb0ff" fill-rule="evenodd" stroke="#fff" stroke-width="2.33"/>
          <path id="Polygon-Copy-8-3" data-name="Polygon-Copy-8" d="M667.37,219.19c4.18,2.43,6.75,6.89,6.75,11.72v.07c0,4.83-2.57,9.3-6.75,11.72-4.17,2.42-9.32,2.42-13.49,0-4.18-2.43-6.75-6.89-6.75-11.72v-.07c0-4.83,2.57-9.3,6.75-11.72,4.17-2.42,9.32-2.42,13.49,0Z" fill="#bfb0ff" fill-rule="evenodd" stroke="#fff" stroke-width="4.83"/>
          <path id="Polygon-Copy-3" data-name="Polygon-Copy" d="M551.02,324.78c4.18,2.43,6.75,6.89,6.75,11.72v.07c0,4.83-2.57,9.3-6.75,11.72-4.17,2.42-9.32,2.42-13.49,0-4.18-2.43-6.75-6.89-6.75-11.72v-.07c0-4.83,2.57-9.3,6.75-11.72,4.17-2.42,9.32-2.42,13.49,0Z" fill="#bfb0ff" fill-rule="evenodd" stroke="#fff" stroke-width="4.83"/>
          <path id="Combined-Shape-9" data-name="Combined-Shape" d="M552.06,102.1c4.18,2.43,6.75,6.89,6.75,11.72v.07c0,4.83-2.57,9.3-6.75,11.72-1.99,1.16-4.21,1.76-6.43,1.81l-12.36,34.94c1.97.53,3.88,1.31,5.68,2.35l1.09.63c1.66.96,3.12,2.15,4.37,3.52l68.45-20.81v-.32c.2-4.61,2.73-8.82,6.74-11.15,4.17-2.42,9.32-2.42,13.49,0,4.18,2.43,6.75,6.89,6.75,11.72v.07c0,4.83-2.57,9.3-6.75,11.72-4.17,2.42-9.32,2.42-13.49,0-1.75-1.02-3.22-2.4-4.34-4.01l-66.45,21.49c.45,2.23.48,4.56.05,6.89l-.88,4.77c-.43,2.34-1.26,4.55-2.41,6.55l30.07,39.25c3.8-1.53,8.14-1.24,11.75.85,4.18,2.43,6.75,6.89,6.75,11.72v.07c0,2.94-.95,5.75-2.64,8.04l29.13,38.03c2.84-.33,5.76.24,8.31,1.73,4.18,2.43,6.75,6.89,6.75,11.72v.07c0,4.83-2.57,9.3-6.75,11.72-4.17,2.42-9.32,2.42-13.49,0-4.18-2.43-6.75-6.89-6.75-11.72v-.07c0-3.24,1.15-6.31,3.17-8.71l-28.28-37.59c-3.26.73-6.72.23-9.69-1.49-4.18-2.43-6.75-6.89-6.75-11.72v-.07c0-2.28.57-4.47,1.61-6.42l-29.22-38.84c-1.51,1.06-3.18,1.92-4.97,2.55-.94.33-1.89.59-2.84.79l-51.24,90.74c1.76,2.32,2.76,5.19,2.76,8.2v.07c0,4.83-2.57,9.3-6.75,11.72-4.17,2.42-9.32,2.42-13.49,0-4.18-2.43-6.75-6.89-6.75-11.72v-.07c0-4.83,2.57-9.3,6.75-11.72,2.66-1.55,5.72-2.11,8.67-1.68l48.21-86.44c-2.1-.78-4.1-1.89-5.91-3.33l-.95-.75c-1.88-1.49-3.46-3.26-4.71-5.21l-57.53,33.06c0,.08,0,.16,0,.24v.07c0,4.83-2.57,9.3-6.75,11.72-4.17,2.42-9.32,2.42-13.49,0-4.18-2.43-6.75-6.89-6.75-11.72v-.07c0-4.83,2.57-9.3,6.75-11.72,4.17-2.42,9.32-2.42,13.49,0,1.17.68,2.22,1.53,3.12,2.49l57.95-32.93c-.26-2.06-.22-4.18.15-6.29l.18-1.04c.31-1.78.84-3.49,1.56-5.09l-31.09-15.32c-.55.44-1.13.85-1.75,1.21-4.17,2.42-9.32,2.42-13.49,0-4.18-2.43-6.75-6.89-6.75-11.72v-.07c0-4.83,2.57-9.3,6.75-11.72,4.17-2.42,9.32-2.42,13.49,0,4.18,2.43,6.75,6.89,6.75,11.72v.07c0,1.31-.19,2.59-.55,3.81l33.2,13.82c1.4-1.06,2.94-1.95,4.6-2.64,1.37-.57,2.78-1.01,4.21-1.31l13.26-38.77c-2.4-2.49-3.8-5.85-3.8-9.41v-.07c0-4.83,2.57-9.3,6.75-11.72,4.17-2.42,9.32-2.42,13.49,0Z" fill="#7b4dff" fill-rule="evenodd" stroke="#fff" stroke-width="4.83"/>
        </g>
      </g>
      <g id="humaaan-3">
        <g id="Mask-3" data-name="Mask">
          <g id="path-4-link">
            <ellipse id="path-4" cx="545.32" cy="225.57" rx="59.11" ry="58.29"/>
          </g>
          <g id="Oval-3" data-name="Oval">
            <ellipse id="path-7" cx="545.32" cy="225.57" rx="61.57" ry="60.75" fill="#bfb0ff" stroke="#fff" stroke-width="32.72"/>
            <ellipse id="path-7-2" data-name="path-7" cx="545.32" cy="225.57" rx="61.57" ry="60.75" fill="none" stroke="#7b4dff" stroke-width="18.88"/>
          </g>
        </g>
        <g id="Clipped-2" data-name="Clipped">
          <g id="Group-6" data-name="Group">
            <g id="Mask-4" data-name="Mask">
              <ellipse id="path-8" cx="545.32" cy="225.57" rx="61.57" ry="60.75" fill="#fff"/>
            </g>
            <g mask="url(#mask-2)">
              <g>
                <g id="Head_Front_Short-Beard" data-name="Head/Front/Short-Beard">
                  <g id="Head-3" data-name="Head">
                    <path id="Path-3" data-name="Path" d="M525.64,192.8c-7.16,10.92-8.97,40.06-1.19,42.81,3.1,1.09,10.04-.31,17.29-3.85l-6.99,30.14,25.51,2.23-5.21-41.64c5.4-5.31,9.33-12.06,9.47-19.99.39-22.85-31.71-20.63-38.87-9.7Z" fill="#b28b67"/>
                  </g>
                  <path id="Hair" d="M540.45,182.85c-7.21-.01-13.79,1.61-15.72,2.74-.59,6.77.55,8.89,11.78,9.69,2.63,1.69,4.53,4.38,6.45,7.86-2.16,13.49-5.34,20.06-9.53,19.69-6.29-.55-11.27-5-14.03-5.24-2.01-.18-1.78,2.38-.61,4.35.96,1.63,6.19,3.58,5.98,5.96s-4.28.17-4.4,1.58c-.2,2.34-1.33,6.67,2.73,7.02,4.11.36,16.03-.1,18.58-6.02,1.65-3.82,3.2-11.89,4.67-24.22.25-.01.51,0,.76.02,3.52.31,6.13,3.41,5.82,6.93-.16,1.79-1.03,3.33-2.32,4.39,1.29,2.21,2.76,4.53,4.46,6.93,7.49-3.64,13.87-15.66,7.96-28.27-1.41-6.04-5.49-9.56-10.51-11.47-4.01-2.1-8.32-2.68-12.07-1.96Z" fill="#7b4dff"/>
                </g>
                <g id="Bottom_Standing_Baggy-Pants" data-name="Bottom/Standing/Baggy-Pants">
                  <polygon id="Leg" points="563.43 350.26 534.84 489.68 519.67 605.97 506.01 608.38 516.49 358.54 563.43 350.26" fill="#997659"/>
                  <path id="Leg-2" data-name="Leg" d="M573.82,348.43c8.62,45.7,27.51,105.95,29.29,108.58,1.19,1.75,34.91,20.76,101.15,57.03l-7.64,11.71c-75.52-27.79-115.33-44.07-119.44-48.83-6.16-7.14-34.58-77.81-54.73-119.44l51.37-9.06Z" fill="#b28b67"/>
                  <polygon id="Pant" points="569.16 585.54 502.98 589.95 511.94 359.34 570.11 349.08 569.16 585.54" fill="#69a1ac"/>
                  <path id="Pant-2" data-name="Pant" d="M687.97,500.19l-33.72,57.86c-53.5-41.02-85.29-68.33-95.37-81.94-10.08-13.61-23.9-52.85-41.47-117.74l65.49-11.55c13.47,57.43,21.01,87.39,22.62,89.89,1.61,2.5,29.09,23.66,82.45,63.47Z" fill="#89c5cc"/>
                </g>
                <g id="Body_Hoodie" data-name="Body/Hoodie">
                  <path id="Skin-4" data-name="Skin" d="M609.42,341.51l-22.3.09c13.77,44.37,21.2,67.92,22.3,70.64,2.47,6.11-2.76,15.41-4.99,20.41,7.28,3.25,6.5-8.79,15.68-4.53,8.38,3.89,14.75,10.94,24.43,4.98,1.19-.73,2.49-3.49-.66-5.65-7.85-5.37-19.16-14.78-20.69-17.88-2.08-4.22-6.68-26.91-13.78-68.06h0ZM478.74,340.65l-34.04,24.95c-9.23,2.49-16.94,5.58-23.14,9.28-1.46,1.33-3.23,4.03,2.84,3.56,6.07-.47,12.47-.68,13.31,1.38.84,2.07-2.83,4.54-1.14,7.33,1.13,1.86,6.46-2.8,15.99-13.98l33.7-13.95-7.52-18.57Z" fill="#b28b67"/>
                  <path id="Coat-Back-2" data-name="Coat-Back" d="M546.05,248.09l-9.23-1.58c-34.23,29.53-48.29,86.25-90.26,116.3l10.1,12.5c72.8-9,90.84-78.19,89.38-127.22Z" fill="#7b4dff"/>
                  <path id="Shirt-2" data-name="Shirt" d="M586.27,363.86h-81.64c-3.73,0-3.03-5.38-2.49-8.09,6.22-31.32,30.52-65.08,30.52-109.67l23.55-3.69c19.48,31.28,26.21,69.78,30.06,121.45Z" fill="#7b4dff"/>
                  <path id="Coat-Front-2" data-name="Coat-Front" d="M557.99,242.41c-.8,0-1.52.05-2.19.15l-7.38.42c-21.15,71.57-26.98,119.32-17.5,143.25h64.26c3.81,8.86,7.45,16.32,10.93,22.37h17.51c1.65-53.2-11.02-98.34-38-135.45,3.42-.98,6.13-3.27,8.13-6.87,8.61-15.51,5.5-24.04-3.7-26.85-9.2-2.81-17.4,2.97-32.06,2.97Z" fill="#7b4dff"/>
                  <path id="Shade-2" data-name="Shade" d="M571.34,386.23h23.85c-4.44-10.34-9.1-22.59-13.99-36.76-2.02,16.88-5.31,29.13-9.85,36.76Z"/>
                </g>
              </g>
            </g>
          </g>
        </g>
      </g>
    </g>
  </g>
  <g id="Group-17">
    <g id="Pod-base-2" data-name="Pod-base">
      <g id="Polygon-4" data-name="Polygon">
        <path d="M196.34,14.47l53.17,92.1c2.38,4.11,2.38,9.18,0,13.3l-53.17,92.1c-2.38,4.11-6.77,6.65-11.52,6.65h-106.35c-4.75,0-9.14-2.53-11.52-6.65L13.78,119.87c-2.38-4.11-2.38-9.18,0-13.3L66.96,14.47c2.38-4.11,6.77-6.65,11.52-6.65h106.35c4.75,0,9.14,2.53,11.52,6.65Z" fill="#fff" fill-rule="evenodd"/>
        <path d="M184.82,221.45h-106.35c-5.75,0-11.1-3.09-13.98-8.07L11.32,121.29c-2.87-4.98-2.87-11.16,0-16.14L64.5,13.05c2.87-4.98,8.23-8.07,13.98-8.07h106.35c5.75,0,11.1,3.09,13.98,8.07l53.17,92.1c2.87,4.98,2.87,11.16,0,16.14l-53.17,92.1c-2.87,4.98-8.23,8.07-13.98,8.07ZM78.47,10.66c-3.73,0-7.2,2-9.06,5.23L16.24,107.99c-1.86,3.23-1.86,7.23,0,10.46l53.17,92.1c1.86,3.23,5.33,5.23,9.06,5.23h106.35c3.72,0,7.2-2,9.06-5.23l53.17-92.1c1.86-3.23,1.86-7.23,0-10.46L193.88,15.89c-1.86-3.23-5.33-5.23-9.06-5.23h-106.35Z" fill="#ffab50"/>
      </g>
      <g id="Group-7" data-name="Group">
        <polygon id="Path-25-4" data-name="Path-25" points="133 177.53 136.72 178.81 162.5 128.79 185.24 63.92 181.17 65.27 158.84 126.67 133 177.53" fill="#ffddb9" fill-rule="evenodd" stroke="#fff" stroke-width=".74"/>
        <polygon id="Path-24-13" data-name="Path-24" points="85.69 161.46 154.22 124.16 203.72 113.93 203.72 118.54 154.22 128.12 85.69 166.71 85.69 161.46" fill="#ffddb9" fill-rule="evenodd" stroke="#fff" stroke-width=".74"/>
        <polygon id="Path-24-14" data-name="Path-24" points="63.13 113.3 154.22 124.16 203.72 113.93 203.72 118.54 154.22 128.12 63.13 117.06 63.13 113.3" fill="#ffddb9" fill-rule="evenodd" stroke="#fff" stroke-width=".74"/>
        <polygon id="Path-24-15" data-name="Path-24" points="125.69 91.06 133.46 181.98 130.21 185.95 122.43 91.06 125.69 91.06" fill="#ffddb9" fill-rule="evenodd" stroke="#fff" stroke-width=".74"/>
        <polygon id="Path-24-16" data-name="Path-24" points="66.38 116.27 176.45 161.22 174.69 165.19 66.09 120.71 66.38 116.27" fill="#ffddb9" fill-rule="evenodd" stroke="#fff" stroke-width=".74"/>
        <path id="Combined-Shape-10" data-name="Combined-Shape" d="M132.1,37.35l53.44,22.28,22.14,53.78-22.14,53.78-53.44,22.28-53.44-22.28-22.14-53.78,22.14-53.78,53.44-22.28ZM132.1,41.34l-50.64,21.11-20.98,50.96,20.98,50.96,50.64,21.11,50.64-21.11,20.98-50.96-20.98-50.96-50.64-21.11Z" fill="#ffab50" fill-rule="evenodd" isolation="isolate" opacity=".32"/>
        <path id="Combined-Shape-11" data-name="Combined-Shape" d="M132.1,37.35l52.4,23.13-2.78,1.15-49.62-20.29-50.64,21.11-20.16,48.99-4.77,1.97,22.14-53.78,53.44-22.28Z" fill="#ffab50" fill-rule="evenodd"/>
        <polygon id="Path-2-4" data-name="Path-2" points="201.48 117.21 183.26 160.07 185.7 164.23 207.68 115.74 201.48 117.21" fill="#fbc245" fill-rule="evenodd" stroke="#fff" stroke-width="1.48"/>
        <path id="Polygon-Copy-8-4" data-name="Polygon-Copy-8" d="M209.33,108.26c2.65,1.54,4.29,4.38,4.29,7.45v.05c0,3.07-1.63,5.91-4.29,7.45-2.65,1.54-5.92,1.54-8.57,0-2.65-1.54-4.29-4.38-4.29-7.45v-.05c0-3.07,1.63-5.91,4.29-7.45,2.65-1.54,5.92-1.54,8.57,0Z" fill="#ffddb9" fill-rule="evenodd" stroke="#fff" stroke-width="3.07"/>
        <path id="Polygon-Copy-4" data-name="Polygon-Copy" d="M135.4,175.35c2.65,1.54,4.29,4.38,4.29,7.45v.05c0,3.07-1.63,5.91-4.29,7.45-2.65,1.54-5.92,1.54-8.57,0-2.65-1.54-4.29-4.38-4.29-7.45v-.05c0-3.07,1.63-5.91,4.29-7.45,2.65-1.54,5.92-1.54,8.57,0Z" fill="#ffddb9" fill-rule="evenodd" stroke="#fff" stroke-width="3.07"/>
        <path id="Combined-Shape-12" data-name="Combined-Shape" d="M136.06,33.87c2.65,1.54,4.29,4.38,4.29,7.45v.05c0,3.07-1.63,5.91-4.29,7.45-1.27.74-2.67,1.12-4.09,1.15l-7.85,22.2c1.25.33,2.46.83,3.61,1.5l.69.4c1.05.61,1.98,1.37,2.77,2.23l43.49-13.22v-.2c.13-2.93,1.74-5.6,4.28-7.08,2.65-1.54,5.92-1.54,8.57,0,2.65,1.54,4.29,4.38,4.29,7.45v.05c0,3.07-1.63,5.91-4.29,7.45-2.65,1.54-5.92,1.54-8.57,0-1.11-.65-2.05-1.52-2.76-2.55l-42.22,13.65c.28,1.42.3,2.9.03,4.38l-.56,3.03c-.27,1.49-.8,2.89-1.53,4.16l19.11,24.94c2.42-.97,5.17-.79,7.46.54,2.65,1.54,4.29,4.38,4.29,7.45v.05c0,1.87-.61,3.65-1.68,5.11l18.51,24.16c1.8-.21,3.66.15,5.28,1.1,2.65,1.54,4.29,4.38,4.29,7.45v.05c0,3.07-1.63,5.91-4.29,7.45-2.65,1.54-5.92,1.54-8.57,0-2.65-1.54-4.29-4.38-4.29-7.45v-.05c0-2.06.73-4.01,2.01-5.54l-17.97-23.88c-2.07.46-4.27.15-6.16-.95-2.65-1.54-4.29-4.38-4.29-7.45v-.05c0-1.45.36-2.84,1.03-4.08l-18.56-24.68c-.96.67-2.02,1.22-3.16,1.62-.6.21-1.2.38-1.81.5l-32.56,57.65c1.12,1.47,1.75,3.3,1.75,5.21v.05c0,3.07-1.63,5.91-4.29,7.45-2.65,1.54-5.92,1.54-8.57,0-2.65-1.54-4.29-4.38-4.29-7.45v-.05c0-3.07,1.63-5.91,4.29-7.45,1.69-.98,3.64-1.34,5.51-1.07l30.63-54.92c-1.34-.5-2.61-1.2-3.75-2.11l-.6-.48c-1.19-.95-2.2-2.07-3-3.31l-36.56,21c0,.05,0,.1,0,.15v.05c0,3.07-1.63,5.91-4.29,7.45-2.65,1.54-5.92,1.54-8.57,0-2.65-1.54-4.29-4.38-4.29-7.45v-.05c0-3.07,1.63-5.91,4.29-7.45,2.65-1.54,5.92-1.54,8.57,0,.75.43,1.41.97,1.98,1.58l36.82-20.93c-.16-1.31-.14-2.66.1-4l.11-.66c.2-1.13.53-2.22.99-3.24l-19.76-9.73c-.35.28-.72.54-1.11.77-2.65,1.54-5.92,1.54-8.57,0-2.65-1.54-4.29-4.38-4.29-7.45v-.05c0-3.07,1.63-5.91,4.29-7.45,2.65-1.54,5.92-1.54,8.57,0,2.65,1.54,4.29,4.38,4.29,7.45v.05c0,.83-.12,1.65-.35,2.42l21.09,8.78c.89-.67,1.87-1.24,2.92-1.68.87-.36,1.77-.64,2.67-.83l8.43-24.64c-1.53-1.58-2.41-3.72-2.41-5.98v-.05c0-3.07,1.63-5.91,4.29-7.45,2.65-1.54,5.92-1.54,8.57,0Z" fill="#ffab50" fill-rule="evenodd" stroke="#fff" stroke-width="3.07"/>
      </g>
    </g>
    <g id="humaaan-9">
      <g id="Mask-5" data-name="Mask">
        <g id="path-1-link">
          <ellipse id="path-1" cx="132.62" cy="113.17" rx="41.23" ry="40.66"/>
        </g>
        <g id="Oval-4" data-name="Oval">
          <ellipse id="path-10-2" data-name="path-10" cx="132.62" cy="113.17" rx="42.95" ry="42.38" fill="#fff"/>
          <ellipse id="path-10-3" data-name="path-10" cx="132.62" cy="113.17" rx="42.95" ry="42.38" fill="none"/>
        </g>
      </g>
      <g id="Clipped-3" data-name="Clipped">
        <ellipse cx="132.62" cy="113.17" rx="45.45" ry="44.88" fill="none" stroke="#ffab50" stroke-width="8.43"/>
        <g mask="url(#mask-3-2)">
          <g id="Group-8" data-name="Group">
            <g>
              <g id="Head_Front_Hijab-1" data-name="Head/Front/Hijab-1">
                <g id="Head-4" data-name="Head">
                  <path id="Path-4" data-name="Path" d="M152.49,91.6c1.87,7.98-3.32,25.57-8.49,25.52-2.06-.02-5.84-2.34-9.35-5.98l-2.36,19.28-15.49-4.15,12-23.46c-2.04-4.29-2.9-9.11-1.28-13.82,4.67-13.57,23.09-5.37,24.96,2.61Z" fill="#b28b67"/>
                </g>
                <g id="Hijab">
                  <path id="Front" d="M150.23,86.06c-.3-.31-.92-.95-1.25-1.22-.08-.06-.58-.67-.6-.67-.51.03-2.04.26-2.29.73-.03.03-.06.07-.08.09-.29.3-.56.61-.83.93-.59.7-1.13,1.46-1.66,2.2-1.03,1.46-1.99,2.98-2.92,4.51-.94,1.56-1.81,3.16-2.73,4.74-1.32,2.27-2.81,4.42-4.12,6.69-.84,1.45-1.5,2.96-1.82,4.6,0,.02,0,.04-.01.06,0,0,0,.02,0,.02-.05.25-.09.51-.12.76-.03.22-.05.44-.07.66.92-1.04,1.74-2.24,2.56-3.37.08-.11.16-.22.24-.33.23-.21.45-.42.68-.63,1.45-1.32,2.9-2.63,4.32-3.98,2.54-2.44,5.09-4.94,7.9-7.06.83-.62,1.67-1.23,2.49-1.86.47-.36.93-.73,1.38-1.11.32-.27,1.65-1.17,1.47-1.97-.09-.41-1.77-3-2.54-3.8Z" fill="#2c2c2c"/>
                  <path id="Turban" d="M149.08,84.93c.31.21.34-.56.07-.9-1.23-1.59-7.04-3.6-12.48-3.91-3.64-.21-8.14.5-11.51,2.06-3.04,1.4-5.64,4.26-7.38,7.23-1.83,3.12-2.91,6.59-3.31,10.17-.09.79-.04,1.58-.1,2.35-.07.88-.21,1.7-.15,2.59.03.54.19,1.11.19,1.64,0,.61-.23,1.12-.51,1.67-.45.89-.94,1.78-1.52,2.59-.87,1.22-1.83,2.33-2.6,3.63-1.02,1.74-4.81,7.26-3.68,9.34l30.03,8.05c-.2-2.27-1.82-5.31-1.69-7.64.08-1.37.71-4.25.71-4.36.57-4.85-.15-7.43-.76-8.47-.61-1.03-1.65-1.58-1.52-2.29.54-2.97,2.44-5.44,4.01-7.92,1.87-2.96,3.5-6.07,5.4-9.01.84-1.3,5.15-7.9,6.78-6.82Z" fill="#ffab50"/>
                  <path id="Shade-3" data-name="Shade" d="M119.34,107.47c5.68,3.61,3.91,7.44,10.64,13.59l-.76.22c-6.08-4.66-6.06-11.15-10.48-13.38l.6-.43ZM130.04,87.77c-.99,7.53-1.82,11.76,1.04,21.06l-.57.02c-3.28-8.31-2.58-14.18-.97-21.17l.51.09ZM119.97,90.66c.74,5.69.89,8.98,5.67,14.7l-.54.2c-4.96-4.89-5.6-9.3-5.63-14.8l.5-.09ZM137.65,85.45c-2.1,3.29-2.85,5.15-3.93,10.13l-.56-.15c.2-4.92,2.3-9.03,3.78-10.17l.7.19Z"/>
                </g>
              </g>
              <g id="Bottom_Standing_Sprint" data-name="Bottom/Standing/Sprint">
                <path id="Leg-3" data-name="Leg" d="M97.19,185.4c1.21,16.46,78.84,64.93,79.29,66.29.2.6-7.85,19.71-24.16,57.32l6.79,2.64c25.02-39.83,36.88-61.87,35.6-66.11-1.84-6.08-21.92-26.06-60.23-59.97l-37.28-.18Z" fill="#b28b67"/>
                <path id="Pant-3" data-name="Pant" d="M154.1,300.52l11.08,4.04c23.36-26.39,32.52-48.16,30.85-59.25-1.11-7.4-21.12-27.35-60.03-59.87h-39.61c1.35,38.13,73.31,66.4,74.27,68.02.96,1.62-8.51,17.54-16.56,47.06Z" fill="#2f3676"/>
                <g id="Accessories_Shoe_Flat-Sneaker-3" data-name="Accessories/Shoe/Flat-Sneaker">
                  <path id="shoe-3" data-name="shoe" d="M149.81,307.72c-1.39,1.62-2.25,2.9-2.59,3.83-.41,1.13-.83,2.86-1.24,5.17,1.31.48,13.12,4.78,35.42,12.89,2.03-2.71,2.1-4.55.2-5.51-1.89-.96-3.46-1.78-4.7-2.46l-13.79-13.34c-.27-.26-.69-.25-.95.02,0,0,0,0-.01.01l-1.99,2.18h0c-2.15.19-3.8.07-4.94-.34-.93-.34-2.08-1.18-3.45-2.54h0c-.53-.52-1.37-.51-1.89.01-.02.02-.04.05-.07.07Z" fill="#e4e4e4"/>
                </g>
                <polygon id="Leg-4" data-name="Leg" points="106.11 185.4 71.53 268.5 37.54 338.76 45.56 338.76 133.3 185.4 106.11 185.4" fill="#997659"/>
                <g id="Accessories_Shoe_Flat-Sneaker-4" data-name="Accessories/Shoe/Flat-Sneaker">
                  <path id="shoe-4" data-name="shoe" d="M37.06,335.52c-.75,2-1.12,3.49-1.12,4.48,0,1.21.2,2.97.6,5.28h37.7c.98-3.24.41-4.99-1.7-5.25-2.11-.26-3.86-.49-5.26-.7l-17.52-7.82c-.34-.15-.73,0-.88.34,0,0,0,.01,0,.02l-1.13,2.73h0c-1.95.91-3.54,1.37-4.76,1.37-.99,0-2.36-.4-4.11-1.2h0c-.67-.31-1.47-.01-1.77.66-.01.03-.03.06-.04.09Z" fill="#e4e4e4"/>
                </g>
                <path id="Pant-4" data-name="Pant" d="M40.61,324.17l17.82,3.34c13.78-20.28,71.44-103.41,77.76-142.11h-39.67c-21.11,27.98-42.78,118.16-55.91,138.77Z" fill="#5c63ab"/>
              </g>
              <g id="Body_Jacket-2" data-name="Body/Jacket">
                <path id="Skin-5" data-name="Skin" d="M80.25,170.46l13.74,2.48c-13.33,25.94-20.48,39.7-21.46,41.26-2.19,3.51.02,9.83.85,13.17-4.84,1.22-3.05-6.14-9.18-4.5-5.59,1.5-10.29,5.16-15.61.42-.65-.58-1.16-2.43,1.02-3.42,5.43-2.47,13.43-7.06,14.71-8.81,1.75-2.38,7.05-15.92,15.92-40.59h0ZM163.46,182.49l15.43,21.49c5.02,3.27,9.01,6.61,11.98,10.02.61,1.08,1.14,3.03-2.38,1.58-3.52-1.45-7.3-2.82-8.2-1.75s.81,3.26-.74,4.6c-1.03.89-3.3-2.92-6.81-11.45l-17.37-14.86,8.08-9.63Z" fill="#b28b67"/>
                <path id="Coat-Back-3" data-name="Coat-Back" d="M129.52,119.59l5.86.03c5.48,26.23,18.66,51.51,39.55,75.84l-22.41,19.18c-19.39-32.82-29.25-64.89-23-95.05Z" fill="#ffab50"/>
                <path id="Shirt-3" data-name="Shirt" d="M92.09,186.8l50.68,8.94c-6.7-30.65-8.29-55.96-4.77-75.93l-14.89-4.98c-15.43,17.22-23.02,40.44-31.02,71.97Z" fill="#ffab50"/>
                <path id="Coat-Front-3" data-name="Coat-Front" d="M123.79,114.95c1.19.25,2.99.65,5.42,1.18h0l1.83,11.22c-1.88,12.95-4.18,39.32-6.89,79.1h0l-33.22-5.86c-.39,2.71-.72,5.46-1.01,8.24h0l-24.7-4.36c11.05-41.07,30.24-70.98,57.56-89.71h0s0,0,0,0l1,.18Z" fill="#ffab50"/>
                <path id="Shade-4" data-name="Shade" d="M100.18,202.49l-9.29-1.64c1.73-12.16,4.5-23.62,8.31-34.37-2.02,16.97-1.69,28.98.97,36.01Z"/>
                <polygon id="Light-2" data-name="Light" points="101.88 181.74 119.6 177 118.26 184.62 101.88 181.74" fill="rgba(255, 255, 255, .2)"/>
              </g>
            </g>
          </g>
        </g>
      </g>
    </g>
  </g>
  <g id="Group-16">
    <g id="Pod-base-Copy">
      <g id="Polygon-5" data-name="Polygon">
        <path d="M196.34,243.22l53.17,92.1c2.38,4.11,2.38,9.18,0,13.3l-53.17,92.1c-2.38,4.11-6.77,6.65-11.52,6.65h-106.35c-4.75,0-9.14-2.53-11.52-6.65l-53.17-92.1c-2.38-4.11-2.38-9.18,0-13.3l53.17-92.1c2.38-4.11,6.77-6.65,11.52-6.65h106.35c4.75,0,9.14,2.53,11.52,6.65Z" fill="#fff" fill-rule="evenodd"/>
        <path d="M184.82,450.21h-106.35c-5.75,0-11.1-3.09-13.98-8.07l-53.17-92.1c-2.87-4.98-2.87-11.16,0-16.14l53.17-92.1c2.87-4.98,8.23-8.07,13.98-8.07h106.35c5.75,0,11.1,3.09,13.98,8.07l53.17,92.1c2.87,4.98,2.87,11.16,0,16.14l-53.17,92.1c-2.87,4.98-8.23,8.07-13.98,8.07ZM78.47,239.41c-3.73,0-7.2,2-9.06,5.23l-53.17,92.1c-1.86,3.23-1.86,7.23,0,10.46l53.17,92.1c1.86,3.23,5.33,5.23,9.06,5.23h106.35c3.72,0,7.2-2,9.06-5.23l53.17-92.1c1.86-3.23,1.86-7.23,0-10.46l-53.17-92.1c-1.86-3.23-5.33-5.23-9.06-5.23h-106.35Z" fill="#9a95a3"/>
      </g>
      <g id="Group-9" data-name="Group">
        <polygon id="Path-25-5" data-name="Path-25" points="133 406.29 136.72 407.56 162.5 357.54 185.24 292.68 181.17 294.02 158.84 355.43 133 406.29" fill="#c3bfc8" fill-rule="evenodd" stroke="#fff" stroke-width=".74"/>
        <polygon id="Path-24-17" data-name="Path-24" points="85.69 390.22 154.22 352.91 203.72 342.68 203.72 347.3 154.22 356.88 85.69 395.46 85.69 390.22" fill="#c3bfc8" fill-rule="evenodd" stroke="#fff" stroke-width=".74"/>
        <polygon id="Path-24-18" data-name="Path-24" points="63.13 342.05 154.22 352.91 203.72 342.68 203.72 347.3 154.22 356.88 63.13 345.81 63.13 342.05" fill="#c3bfc8" fill-rule="evenodd" stroke="#fff" stroke-width=".74"/>
        <polygon id="Path-24-19" data-name="Path-24" points="125.69 319.81 133.46 410.73 130.21 414.7 122.43 319.81 125.69 319.81" fill="#c3bfc8" fill-rule="evenodd" stroke="#fff" stroke-width=".74"/>
        <polygon id="Path-24-20" data-name="Path-24" points="66.38 345.02 176.45 389.98 174.69 393.94 66.09 349.47 66.38 345.02" fill="#c3bfc8" fill-rule="evenodd" stroke="#fff" stroke-width=".74"/>
        <path id="Combined-Shape-13" data-name="Combined-Shape" d="M132.1,266.11l53.44,22.28,22.14,53.78-22.14,53.78-53.44,22.28-53.44-22.28-22.14-53.78,22.14-53.78,53.44-22.28ZM132.1,270.09l-50.64,21.11-20.98,50.96,20.98,50.96,50.64,21.11,50.64-21.11,20.98-50.96-20.98-50.96-50.64-21.11Z" fill="#362b48" fill-rule="evenodd" isolation="isolate" opacity=".32"/>
        <path id="Combined-Shape-14" data-name="Combined-Shape" d="M132.1,266.11l52.4,23.13-2.78,1.15-49.62-20.29-50.64,21.11-20.16,48.99-4.77,1.97,22.14-53.78,53.44-22.28Z" fill="#868091" fill-rule="evenodd"/>
        <polygon id="Path-2-5" data-name="Path-2" points="201.48 345.97 183.26 388.82 185.7 392.98 207.68 344.49 201.48 345.97" fill="#c3bfc8" fill-rule="evenodd" stroke="#fff" stroke-width="1.48"/>
        <path id="Polygon-Copy-8-5" data-name="Polygon-Copy-8" d="M209.33,337.02c2.65,1.54,4.29,4.38,4.29,7.45v.05c0,3.07-1.63,5.91-4.29,7.45-2.65,1.54-5.92,1.54-8.57,0-2.65-1.54-4.29-4.38-4.29-7.45v-.05c0-3.07,1.63-5.91,4.29-7.45,2.65-1.54,5.92-1.54,8.57,0Z" fill="#c3bfc8" fill-rule="evenodd" stroke="#fff" stroke-width="3.07"/>
        <path id="Polygon-Copy-5" data-name="Polygon-Copy" d="M135.4,404.11c2.65,1.54,4.29,4.38,4.29,7.45v.05c0,3.07-1.63,5.91-4.29,7.45-2.65,1.54-5.92,1.54-8.57,0-2.65-1.54-4.29-4.38-4.29-7.45v-.05c0-3.07,1.63-5.91,4.29-7.45,2.65-1.54,5.92-1.54,8.57,0Z" fill="#c3bfc8" fill-rule="evenodd" stroke="#fff" stroke-width="3.07"/>
        <path id="Combined-Shape-15" data-name="Combined-Shape" d="M136.06,262.62c2.65,1.54,4.29,4.38,4.29,7.45v.05c0,3.07-1.63,5.91-4.29,7.45-1.27.74-2.67,1.12-4.09,1.15l-7.85,22.2c1.25.33,2.46.83,3.61,1.5l.69.4c1.05.61,1.98,1.37,2.77,2.23l43.49-13.22v-.2c.13-2.93,1.74-5.6,4.28-7.08,2.65-1.54,5.92-1.54,8.57,0,2.65,1.54,4.29,4.38,4.29,7.45v.05c0,3.07-1.63,5.91-4.29,7.45-2.65,1.54-5.92,1.54-8.57,0-1.11-.65-2.05-1.52-2.76-2.55l-42.22,13.65c.28,1.42.3,2.9.03,4.38l-.56,3.03c-.27,1.49-.8,2.89-1.53,4.16l19.11,24.94c2.42-.97,5.17-.79,7.46.54,2.65,1.54,4.29,4.38,4.29,7.45v.05c0,1.87-.61,3.65-1.68,5.11l18.51,24.16c1.8-.21,3.66.15,5.28,1.1,2.65,1.54,4.29,4.38,4.29,7.45v.05c0,3.07-1.63,5.91-4.29,7.45-2.65,1.54-5.92,1.54-8.57,0-2.65-1.54-4.29-4.38-4.29-7.45v-.05c0-2.06.73-4.01,2.01-5.54l-17.97-23.88c-2.07.46-4.27.15-6.16-.95-2.65-1.54-4.29-4.38-4.29-7.45v-.05c0-1.45.36-2.84,1.03-4.08l-18.56-24.68c-.96.67-2.02,1.22-3.16,1.62-.6.21-1.2.38-1.81.5l-32.56,57.65c1.12,1.47,1.75,3.3,1.75,5.21v.05c0,3.07-1.63,5.91-4.29,7.45-2.65,1.54-5.92,1.54-8.57,0-2.65-1.54-4.29-4.38-4.29-7.45v-.05c0-3.07,1.63-5.91,4.29-7.45,1.69-.98,3.64-1.34,5.51-1.07l30.63-54.92c-1.34-.5-2.61-1.2-3.75-2.11l-.6-.48c-1.19-.95-2.2-2.07-3-3.31l-36.56,21c0,.05,0,.1,0,.15v.05c0,3.07-1.63,5.91-4.29,7.45-2.65,1.54-5.92,1.54-8.57,0-2.65-1.54-4.29-4.38-4.29-7.45v-.05c0-3.07,1.63-5.91,4.29-7.45,2.65-1.54,5.92-1.54,8.57,0,.75.43,1.41.97,1.98,1.58l36.82-20.93c-.16-1.31-.14-2.66.1-4l.11-.66c.2-1.13.53-2.22.99-3.24l-19.76-9.73c-.35.28-.72.54-1.11.77-2.65,1.54-5.92,1.54-8.57,0-2.65-1.54-4.29-4.38-4.29-7.45v-.05c0-3.07,1.63-5.91,4.29-7.45,2.65-1.54,5.92-1.54,8.57,0,2.65,1.54,4.29,4.38,4.29,7.45v.05c0,.83-.12,1.65-.35,2.42l21.09,8.78c.89-.67,1.87-1.24,2.92-1.68.87-.36,1.77-.64,2.67-.83l8.43-24.64c-1.53-1.58-2.41-3.72-2.41-5.98v-.05c0-3.07,1.63-5.91,4.29-7.45,2.65-1.54,5.92-1.54,8.57,0Z" fill="#868091" fill-rule="evenodd" stroke="#fff" stroke-width="3.07"/>
      </g>
    </g>
    <g id="A-Human_Standing-2" data-name="A-Human/Standing">
      <g id="Mask-6" data-name="Mask">
        <g id="path-7-link">
          <ellipse id="path-7-3" data-name="path-7" cx="131.79" cy="343.61" rx="41.23" ry="40.09"/>
        </g>
        <g id="Oval-5" data-name="Oval">
          <ellipse cx="131.79" cy="341.23" rx="49.64" ry="48.49" fill="#fff" stroke="#fff" stroke-width="13.36"/>
          <ellipse cx="131.79" cy="341.23" rx="47.17" ry="46.02" fill="none" stroke="#726b7f" stroke-width="8.43"/>
        </g>
      </g>
      <g id="A-Human_Sitting-Clipped-2" data-name="A-Human/Sitting-Clipped">
        <g mask="url(#mask-4)">
          <g id="A-Human_Sitting-2" data-name="A-Human/Sitting">
            <g id="Group-10" data-name="Group">
              <g id="Head_Front_Short-2" data-name="Head/Front/Short-2">
                <g id="Head-5" data-name="Head">
                  <path id="Path-5" data-name="Path" d="M142.95,327.4c4.6,8.59,4.06,30.37-1.89,31.9-2.37.61-7.43-.89-12.57-3.99l3.23,22.86h-19.06l6.56-30.61c-3.66-4.3-6.14-9.57-5.72-15.47,1.19-17.01,24.85-13.27,29.45-4.68Z" fill="#b28b67"/>
                </g>
                <path id="Hair-2" data-name="Hair" d="M117.75,351.39c-2.39-10.65-9.21-17.92-8.17-22.68.69-3.17,2.54-5.15,5.55-5.92,1.55-6.29,6.57-8.97,15.04-8.03,12.71,1.41,20.46,6.69,17.11,18.31-3.08,0-6.79-1.11-11.93.79-1.63.61-2.8,2.48-3.5,5.64h-2.32c-2.25-3.74-4.48-5.11-6.67-4.12-2.19.99-2.69,3.4-1.49,7.22l-1.14,8.78h-2.47Z" fill="#726b7f"/>
              </g>
              <g id="Bottom_Sitting_Baggy-Pants" data-name="Bottom/Sitting/Baggy-Pants">
                <path id="Leg-and-Butt" d="M170.52,496.83c-24.22-3.95-40.44-6.65-48.67-8.1-23.45-4.14-30.28-16.77-26.24-44.32h43.2c5.72,1.65,29.6,11.87,71.66,30.66,7.57,3.76,6.16,14.85,4.77,18.5-.06.15-12.81,22.03-38.27,65.64l-35.34-22.54,28.95-37.18c.76-1.54.74-2.43-.07-2.66Z" fill="#5c63ab"/>
              </g>
              <g id="Body_Hoodie-2" data-name="Body/Hoodie">
                <path id="Skin-6" data-name="Skin" d="M76.37,434.63l16.6.07c-10.25,33.11-15.78,50.68-16.6,52.71-1.84,4.56,2.05,11.5,3.71,15.23-5.42,2.43-4.84-6.56-11.67-3.38-6.24,2.9-10.98,8.17-18.19,3.72-.89-.55-1.86-2.61.49-4.22,5.84-4.01,14.26-11.03,15.4-13.34,1.55-3.15,4.97-20.08,10.25-50.79h0ZM173.63,433.99l25.33,18.62c6.87,1.86,12.61,4.16,17.22,6.93,1.09.99,2.4,3-2.11,2.66-4.52-.35-9.28-.51-9.9,1.03-.62,1.54,2.11,3.39.85,5.47-.84,1.39-4.81-2.09-11.9-10.43l-25.09-10.41,5.6-13.86Z" fill="#915b3c"/>
                <path id="Coat-Back-4" data-name="Coat-Back" d="M123.53,364.93l6.87-1.18c25.48,22.03,35.94,64.36,67.18,86.78l-7.52,9.33c-54.18-6.72-67.61-58.35-66.53-94.93Z" fill="#726b7f"/>
                <path id="Shirt-4" data-name="Shirt" d="M93.6,451.31h60.76c2.78,0,2.25-4.01,1.85-6.04-4.63-23.37-22.71-48.57-22.71-81.84l-17.53-2.75c-14.5,23.34-19.51,52.07-22.37,90.63Z" fill="#726b7f"/>
                <path id="Coat-Front-4" data-name="Coat-Front" d="M114.65,360.69c.59,0,1.13.04,1.62.11l5.49.31c15.74,53.41,20.08,89.04,13.02,106.9h-47.82c-2.83,6.61-5.54,12.18-8.13,16.69h-13.03c-1.23-39.7,8.2-73.39,28.28-101.08-2.55-.73-4.56-2.44-6.05-5.12-6.41-11.57-4.09-17.94,2.75-20.04,6.85-2.09,12.95,2.22,23.86,2.22Z" fill="#726b7f"/>
                <path id="Shade-5" data-name="Shade" d="M104.71,468.01h-17.75c3.31-7.71,6.78-16.86,10.41-27.43,1.5,12.6,3.95,21.74,7.33,27.43Z"/>
              </g>
            </g>
          </g>
        </g>
      </g>
    </g>
  </g>
  <g id="Group-25-2" data-name="Group-25">
    <g id="Group-6-2" data-name="Group-6">
      <g id="humaaan-3-2" data-name="humaaan-3">
        <g id="Clipped-4" data-name="Clipped">
          <g id="Group-11" data-name="Group">
            <g mask="url(#mask-5)">
              <g id="Bottom_Standing_Baggy-Pants-2" data-name="Bottom/Standing/Baggy-Pants">
                <polygon id="Leg-5" data-name="Leg" points="727.38 -153.54 698.78 -14.12 683.62 102.17 669.96 104.57 680.43 -145.27 727.38 -153.54" fill="#997659"/>
                <path id="Leg-6" data-name="Leg" d="M737.76-155.38c8.62,45.7,27.51,105.95,29.29,108.58,1.19,1.75,34.91,20.76,101.15,57.03l-7.64,11.71c-75.52-27.79-115.33-44.07-119.44-48.83-6.16-7.14-34.58-77.81-54.73-119.44l51.37-9.06Z" fill="#b28b67"/>
                <g id="Accessories_Shoe_Flat-Sneaker-5" data-name="Accessories/Shoe/Flat-Sneaker">
                  <path id="shoe-5" data-name="shoe" d="M868.86,6.63c3.35.56,5.71,1.23,7.08,2.02,1.66.96,3.93,2.64,6.8,5.04-1.12,1.93-11.15,19.31-30.09,52.12-5.25-1.23-7.21-3.4-5.89-6.53,1.33-3.12,2.41-5.73,3.23-7.83l3.2-30.45c.06-.59.59-1.01,1.17-.95,0,0,.02,0,.03,0l4.67.62h0c2.82-1.97,4.71-3.81,5.69-5.5.79-1.37,1.33-3.59,1.62-6.65h0c.11-1.17,1.15-2.03,2.33-1.92.05,0,.1.01.15.02Z" fill="#e4e4e4"/>
                </g>
                <g id="Accessories_Shoe_Flat-Sneaker-6" data-name="Accessories/Shoe/Flat-Sneaker">
                  <path id="shoe-6" data-name="shoe" d="M688.32,96.09c1.73,2.93,2.73,5.17,3,6.72.33,1.89.5,4.71.51,8.45-2.2.39-21.95,3.87-59.27,10.45-2.44-4.81-2.03-7.71,1.22-8.7,3.25-.99,5.94-1.84,8.08-2.56l25.39-17.12c.49-.33,1.15-.2,1.48.29,0,0,.01.02.02.02l2.53,3.98h0c3.32.89,5.95,1.16,7.87.83,1.56-.28,3.61-1.28,6.13-3.03h0c.97-.67,2.3-.43,2.97.55.03.04.06.08.08.13Z" fill="#e4e4e4"/>
                </g>
                <polygon id="Pant-5" data-name="Pant" points="733.11 81.74 666.92 86.15 675.89 -144.47 734.06 -154.72 733.11 81.74" fill="#69a1ac"/>
                <path id="Pant-6" data-name="Pant" d="M851.91-3.61l-33.72,57.86c-53.5-41.02-85.29-68.33-95.37-81.94-10.08-13.61-23.9-52.85-41.47-117.74l65.49-11.55c13.47,57.43,21.01,87.39,22.62,89.89,1.61,2.5,29.09,23.66,82.45,63.47Z" fill="#89c5cc"/>
              </g>
            </g>
          </g>
        </g>
      </g>
    </g>
  </g>
  <g id="Group-16-2" data-name="Group-16">
    <g id="A-Human_Standing-3" data-name="A-Human/Standing">
      <g id="A-Human_Sitting-Clipped-3" data-name="A-Human/Sitting-Clipped">
        <g mask="url(#mask-6-2)">
          <g id="A-Human_Sitting-3" data-name="A-Human/Sitting">
            <g id="Group-12" data-name="Group">
              <g id="Bottom_Sitting_Baggy-Pants-2" data-name="Bottom/Sitting/Baggy-Pants">
                <g id="Objects_Seat_Cube-2-2" data-name="Objects/Seat/Cube-2">
                  <path id="Seat-2" data-name="Seat" d="M238.91-26.25c7.01,0,12.7,5.69,12.7,12.7V59.62c0,7.01-5.69,12.7-12.7,12.7h-91.34c-7.01,0-12.7-5.69-12.7-12.7V-13.55c0-7.01,5.69-12.7,12.7-12.7h91.34ZM226.2-4h-65.92c-1.75,0-3.18,1.42-3.18,3.18h0v47.71c0,1.75,1.42,3.18,3.18,3.18h65.92c1.75,0,3.18-1.42,3.18-3.18h0V-.82c0-1.75-1.42-3.18-3.18-3.18h0Z" fill="#c5cfd6"/>
                </g>
                <path id="LegLower" d="M330.35,68.35c-15.66-19.14-26.25-33.33-31.78-42.57-9.47-15.82-17.22-29.9-19.67-35.27-5.83-12.82,13.43-18.83,17.79-12.85,6.6,9.05,20.69,37.54,42.27,85.45l-8.61,5.23Z" fill="#b28b67"/>
                <path id="LegLower-2" data-name="LegLower" d="M298.27,62.78l-29.14-73.43c-6.23-13.39,23.86-22.18,28.44-15.95,10.4,14.14,35.11,69.93,38.21,74.14l-37.52,15.24Z" fill="#2f3676"/>
                <g id="Lower-Leg">
                  <path id="LegLower-3" data-name="LegLower" d="M220.64,48.06c5.68-8.29,26.35-36.17,37.61-47.71,3.23-3.32,6.39-6.5,9.38-9.46,8.87-8.82,26.52,5.98,17.67,14.01-22.05,20-54.23,46.99-56.92,49.4-3.77,3.37-11.3-1.03-7.73-6.24Z" fill="#915b3c"/>
                </g>
                <path id="Leg-and-Butt-2" data-name="Leg-and-Butt" d="M258.64-6.98c-24.22-3.95-40.44-6.65-48.67-8.1-23.45-4.14-30.28-16.77-26.24-44.32h43.2c5.72,1.65,29.6,11.87,71.66,30.66,7.57,3.76,6.16,14.85,4.77,18.5-.06.15-12.81,22.03-38.27,65.64l-35.34-22.54,28.95-37.18c.76-1.54.74-2.43-.07-2.66Z" fill="#5c63ab"/>
              </g>
              <g id="Body_Hoodie-3" data-name="Body/Hoodie">
                <path id="Skin-7" data-name="Skin" d="M164.49-69.17l16.6.07c-10.25,33.11-15.78,50.68-16.6,52.71-1.84,4.56,2.05,11.5,3.71,15.23-5.42,2.43-4.84-6.56-11.67-3.38-6.24,2.9-10.98,8.17-18.19,3.72-.89-.55-1.86-2.61.49-4.22,5.84-4.01,14.26-11.03,15.4-13.34,1.55-3.15,4.97-20.08,10.25-50.79h0ZM261.76-69.81l25.33,18.62c6.87,1.86,12.61,4.16,17.22,6.93,1.09.99,2.4,3-2.11,2.66-4.52-.35-9.28-.51-9.9,1.03-.62,1.54,2.11,3.39.85,5.47-.84,1.39-4.81-2.09-11.9-10.43l-25.09-10.41,5.6-13.86Z" fill="#915b3c"/>
              </g>
            </g>
          </g>
        </g>
      </g>
    </g>
  </g>
</svg>