<?xml version="1.0" encoding="UTF-8"?>
<svg width="159px" height="394px" viewBox="0 0 159 394" version="1.1" xmlns="http://www.w3.org/2000/svg" xmlns:xlink="http://www.w3.org/1999/xlink">
    <!-- Generator: Sketch 61 (89581) - https://sketch.com -->
    <title>Group 15</title>
    <desc>Created with Sketch.</desc>
    <defs>
        <filter x="-17.1%" y="-18.8%" width="134.3%" height="137.5%" filterUnits="objectBoundingBox" id="filter-1">
            <feOffset dx="0" dy="2" in="SourceAlpha" result="shadowOffsetOuter1"></feOffset>
            <feGaussianBlur stdDeviation="2" in="shadowOffsetOuter1" result="shadowBlurOuter1"></feGaussianBlur>
            <feColorMatrix values="0 0 0 0 0.2   0 0 0 0 0.2   0 0 0 0 0.2  0 0 0 0.3 0" type="matrix" in="shadowBlurOuter1" result="shadowMatrixOuter1"></feColorMatrix>
            <feMerge>
                <feMergeNode in="shadowMatrixOuter1"></feMergeNode>
                <feMergeNode in="SourceGraphic"></feMergeNode>
            </feMerge>
        </filter>
        <rect id="path-2" x="0" y="0" width="70" height="64" rx="32"></rect>
    </defs>
    <g id="Solid-2.0" stroke="none" stroke-width="1" fill="none" fill-rule="evenodd">
        <g id="Homepage---Light" transform="translate(-235.000000, -2301.000000)">
            <g id="Group-15" transform="translate(236.000000, 2302.000000)">
                <g id="Group-35">
                    <path d="M79,169 L79,169 C72.9495422,169 68,164.049571 68,158.000572 C68,151.950429 72.9495422,147 79,147 C85.0504578,147 90,151.950429 90,158.000572 C90,164.049571 85.0504578,169 79,169" id="Fill-1" fill="#58585B"></path>
                    <path d="M137,80.9869815 C137,48.9616876 111.032484,23 79,23 C46.9675161,23 21,48.9616876 21,80.9869815 C21,106.928318 38.0402636,128.886419 61.539045,136.294353 L61.539045,155.59885 C61.539045,159.670274 64.8706495,163 68.9418566,163 L89.0570125,163 C93.1293505,163 96.4598241,159.670274 96.4598241,155.59885 L96.4598241,136.294353 C119.959736,128.886419 137,106.928318 137,80.9869815" id="Fill-3" fill="#FFFBE1"></path>
                    <path d="M137,80.9869815 C137,48.9616876 111.032484,23 79,23 C46.9675161,23 21,48.9616876 21,80.9869815 C21,106.928318 38.0402636,128.886419 61.539045,136.294353 L61.539045,155.59885 C61.539045,159.670274 64.8706495,163 68.9418566,163 L89.0570125,163 C93.1293505,163 96.4598241,159.670274 96.4598241,155.59885 L96.4598241,136.294353 C119.959736,128.886419 137,106.928318 137,80.9869815 Z" id="Stroke-5" stroke="#FFEEAD"></path>
                    <path d="M96.9928495,151 L61.0082733,151 C60.4536107,151 60,150.58663 60,150.082196 L60,148.917804 C60,148.41337 60.4536107,148 61.0082733,148 L96.9928495,148 C97.5475121,148 98,148.41337 98,148.917804 L98,150.082196 C98,150.58663 97.5475121,151 96.9928495,151" id="Fill-7" fill="#58585B"></path>
                    <path d="M117,80.4994341 C117,101.210475 100.210729,118 79.5,118 C58.7892712,118 42,101.210475 42,80.4994341 C42,59.7883928 58.7892712,43 79.5,43 C100.210729,43 117,59.7883928 117,80.4994341" id="Fill-9" fill="#FFF9BB"></path>
                    <path d="M71.024282,148 C71.789688,137.27645 72.0132641,128.156401 72.0406408,121.147589 C72.062314,115.66312 71.983606,106.808813 70.5816925,95.7460176 C69.3691342,86.1815565 68.5797736,80.2560687 66.5094131,80.0084195 C64.1287836,79.7234533 59.5990857,86.7356575 61.4219155,91.4025446 C64.5554034,99.4290928 85.0046339,96.7151289 90.4947966,96.0083675 C93.9739149,95.5605634 96.5302113,94.9205203 97.5317411,92.9811669 C99.2564712,89.6429913 95.971271,83.2267284 91.6902445,82.4532486 C91.2681875,82.376353 90.2609542,82.2067303 89.1407922,82.6387028 C85.3137621,84.1144207 84.5244015,90.9864035 84.1228771,96.9299844 C83.2274319,110.175259 84.1468316,120.491714 84.2403686,121.551291 C84.7799171,127.61587 85.5339162,136.672593 86.2742269,148" id="Stroke-11" stroke="#6C6E70"></path>
                    <path d="M96.9928495,157 L61.0082733,157 C60.4536107,157 60,156.58663 60,156.082196 L60,154.918827 C60,154.41337 60.4536107,154 61.0082733,154 L96.9928495,154 C97.5475121,154 98,154.41337 98,154.918827 L98,156.082196 C98,156.58663 97.5475121,157 96.9928495,157" id="Fill-13" fill="#58585B"></path>
                    <line x1="79.5" y1="169" x2="79.5" y2="305" id="Stroke-15" stroke="#58585B" stroke-width="3"></line>
                    <g id="Group-3" transform="translate(66.000000, 305.000000)" fill="#58585B">
                        <path d="M7.49199265,22 L6.50800735,22 C5.67839328,22 5,21.2684952 5,20.3739305 L5,14.6249371 C5,13.7315048 5.67839328,13 6.50800735,13 L7.49199265,13 C8.32160672,13 9,13.7315048 9,14.6249371 L9,20.3739305 C9,21.2684952 8.32160672,22 7.49199265,22" id="Fill-17"></path>
                        <path d="M19.4913386,22 L18.5086614,22 C17.6792651,22 17,21.2684952 17,20.3739305 L17,14.6249371 C17,13.7315048 17.6792651,13 18.5086614,13 L19.4913386,13 C20.3207349,13 21,13.7315048 21,14.6249371 L21,20.3739305 C21,21.2684952 20.3207349,22 19.4913386,22" id="Fill-21"></path>
                        <path d="M25.5269988,8.34925172 C25.1370937,7.52981608 21.8078184,0.813657334 14.5336869,0.0653771721 C7.68185944,-0.6381439 3.27671423,4.56194415 3.04321807,4.84771373 C-1.62111905,10.5516285 0.428954869,17.5673288 0.563019649,18 L26.767098,17.830145 C27.0184695,16.3381753 27.4742897,12.4510206 25.5269988,8.34925172" id="Fill-25"></path>
                    </g>
                    <path d="M91.5269988,313.349252 C91.1370937,312.529816 87.8078184,305.813657 80.5336869,305.065377 C73.6818594,304.361856 69.2767142,309.561944 69.0432181,309.847714 C64.3788809,315.551628 66.4289549,322.567329 66.5630196,323 L92.767098,322.830145 C93.0184695,321.338175 93.4742897,317.451021 91.5269988,313.349252 Z" id="Stroke-27" stroke="#58585B"></path>
                    <path d="M10.4874257,121 C6.4864528,113.818429 -0.977537528,98.0280261 0.106368642,77.5676214 C0.827069162,63.9322564 5.05875763,53.6335773 6.71602618,49.9109313 C9.99515644,42.542605 13.8853402,36.9060052 17,33" id="Stroke-29" stroke="#FFF365"></path>
                    <path d="M38,10.4266457 C44.1069334,6.92560163 61.8901515,-2.20034785 85.4351186,0.488598335 C115.819263,3.9603166 133.372735,24.5469968 137,29" id="Stroke-31" stroke="#FFF365"></path>
                    <path d="M153.184964,55 C155.284264,61.58388 162.156467,85.911294 149.871846,111.177328 C143.942325,123.37488 135.68813,131.388125 130,136" id="Stroke-33" stroke="#FFF365"></path>
                </g>
                <g id="Group-14" filter="url(#filter-1)" transform="translate(43.000000, 323.000000)">
                    <g id="Rectangle">
                        <use fill="#01E19A" xlink:href="#path-2"></use>
                        <use fill-opacity="0.9" fill="#FFFFFF" xlink:href="#path-2"></use>
                    </g>
                    <path d="M46.2499303,47.9999905 C46.6374415,47.9999905 46.9999285,47.6937168 46.9999285,47.2499923 L46.9999285,44 L48.9999237,44 C51.2061562,44 52.9999142,42.2062421 52.9999142,40.0000095 L52.9999142,30.0000334 C52.9999142,27.7938008 51.2061562,26.0000429 48.9999237,26.0000429 L42.999938,26.0000429 L42.999938,20.0000668 C42.999938,17.7938247 41.2061801,16.0000668 38.9999475,16.0000668 L21,16.0000668 C18.7937579,16.0000668 17,17.7938247 17,20.0000668 L17,30.0000334 C17,32.2062659 18.7937579,34.0000238 21,34.0000238 L22.9999857,34.0000238 L22.9999857,37.2500161 C22.9999857,37.6937406 23.3624726,38.0000143 23.7499839,38.0000143 C23.900008,38.0000143 24.0562576,37.9562522 24.1937084,37.8499902 L28.9999714,35.1312467 L28.9999714,40.0000095 C28.9999714,42.2062421 30.7937293,44 32.9999619,44 L38.9999475,44 L45.8062057,47.8499664 C45.9436566,47.9500028 46.0999062,47.9999905 46.2499303,47.9999905 Z M25.9999785,33.3812509 L25.9999785,31.000031 L20.9999928,31.000031 C20.450004,31.000031 19.9999928,30.5500199 19.9999928,30.0000334 L19.9999928,20.0000596 C19.9999928,19.4500707 20.450004,19.0000596 20.9999928,19.0000596 L38.9999475,19.0000596 C39.549934,19.0000596 39.9999452,19.4500707 39.9999452,20.0000596 L39.9999452,30.0000334 C39.9999452,30.5500199 39.549934,31.000031 38.9999475,31.000031 L30.2124929,31.000031 L29.5249946,31.3875423 L25.9999785,33.3812509 Z M43.9999356,43.3812271 L40.4749196,41.3875184 L39.7874213,41.0000072 L32.9999642,41.0000072 C32.4499754,41.0000072 31.9999642,40.549996 31.9999642,40.0000095 L31.9999642,34.0000238 L38.9999475,34.0000238 C41.2061801,34.0000238 42.999938,32.2062659 42.999938,30.0000358 L42.999938,29.0000358 L48.9999237,29.0000358 C49.5499102,29.0000358 49.9999213,29.4500469 49.9999213,30.0000358 L49.9999213,40.0000095 C49.9999213,40.549996 49.5499102,41.0000072 48.9999237,41.0000072 L43.9999356,41.0000072 L43.9999356,43.3812271 Z" id="c" fill="#01E19A" fill-rule="nonzero"></path>
                </g>
            </g>
        </g>
    </g>
</svg>