<?xml version="1.0" encoding="UTF-8"?>
<svg id="Layer_1" data-name="Layer 1" xmlns="http://www.w3.org/2000/svg" xmlns:xlink="http://www.w3.org/1999/xlink" viewBox="0 0 734 469">
  <defs>
    <mask id="mask" x="496.39" y="316.65" width="109.6" height="127.64" maskUnits="userSpaceOnUse">
      <g id="mask-3">
        <ellipse id="path-2" cx="564.25" cy="357.31" rx="41.23" ry="40.66" fill="#fff"/>
      </g>
    </mask>
    <mask id="mask-1" x="448.73" y="73.44" width="181.05" height="240.41" maskUnits="userSpaceOnUse">
      <g id="mask-6">
        <ellipse id="path-5" cx="563.61" cy="114.44" rx="42.17" ry="41" fill="#fff"/>
      </g>
    </mask>
    <mask id="mask-2" x="277.71" y="193.77" width="189.76" height="292.73" maskUnits="userSpaceOnUse">
      <g id="mask-9">
        <ellipse id="path-8-2" data-name="path-8" cx="357.25" cy="232.37" rx="39.12" ry="38.6" fill="#fff"/>
      </g>
    </mask>
    <mask id="mask-3-2" data-name="mask-3" x="55.44" y="74.36" width="160.28" height="272.78" maskUnits="userSpaceOnUse">
      <g id="mask-12">
        <ellipse id="path-11" cx="152.13" cy="115.02" rx="41.23" ry="40.66" fill="#fff"/>
      </g>
    </mask>
    <mask id="mask-4" x="66.25" y="318.67" width="204.1" height="272.61" maskUnits="userSpaceOnUse">
      <g id="mask-15">
        <ellipse id="path-14" cx="151.3" cy="358.76" rx="41.23" ry="40.09" fill="#fff"/>
      </g>
    </mask>
  </defs>
  <path id="Oval" d="M359.71,444.5c115.97,0,209.98-94.01,209.98-209.98S475.68,24.55,359.71,24.55s-209.98,94.01-209.98,209.98,94.01,209.98,209.98,209.98Z" fill="none" stroke="#bfb0ff" stroke-dasharray="11.88 11.88" stroke-linecap="round" stroke-linejoin="round" stroke-width="5.94"/>
  <line id="Path-14" x1="209.87" y1="139.63" x2="501.74" y2="327.66" fill="none" stroke="#8559ff" stroke-dasharray="0 8.91" stroke-linecap="round" stroke-linejoin="round" stroke-width="4.45"/>
  <line id="Path-14-2" data-name="Path-14" x1="501.32" y1="139.63" x2="209.46" y2="327.66" fill="none" stroke="#8559ff" stroke-dasharray="0 8.91" stroke-linecap="round" stroke-linejoin="round" stroke-width="4.45"/>
  <g id="Group-15">
    <g id="Pod-base-Copy-2">
      <g id="Polygon">
        <path d="M627.19,258.37l53.17,92.1c2.38,4.11,2.38,9.18,0,13.3l-53.17,92.1c-2.38,4.11-6.77,6.65-11.52,6.65h-106.35c-4.75,0-9.14-2.53-11.52-6.65l-53.17-92.1c-2.38-4.11-2.38-9.18,0-13.3l53.17-92.1c2.38-4.11,6.77-6.65,11.52-6.65h106.35c4.75,0,9.14,2.53,11.52,6.65Z" fill="#fff" fill-rule="evenodd"/>
        <path d="M615.67,465.36h-106.35c-5.75,0-11.1-3.09-13.98-8.07l-53.18-92.1c-2.87-4.98-2.87-11.16,0-16.14l53.17-92.1c2.87-4.98,8.23-8.07,13.98-8.07h106.35c5.75,0,11.1,3.09,13.98,8.07l53.17,92.1c2.87,4.98,2.87,11.16,0,16.14l-53.17,92.1c-2.87,4.98-8.23,8.07-13.98,8.07ZM509.32,254.56c-3.73,0-7.2,2-9.06,5.23l-53.17,92.1c-1.86,3.23-1.86,7.23,0,10.46l53.17,92.1c1.86,3.23,5.33,5.23,9.06,5.23h106.35c3.73,0,7.2-2,9.06-5.23l53.17-92.1c1.86-3.23,1.86-7.23,0-10.46l-53.17-92.1c-1.86-3.23-5.33-5.23-9.06-5.23h-106.35Z" fill="#ff527f"/>
      </g>
      <g id="Group">
        <polygon id="Path-25" points="554.96 423.34 558.68 424.62 584.45 374.6 607.19 309.73 603.12 311.08 580.79 372.48 554.96 423.34" fill="#ffbacc" fill-rule="evenodd" stroke="#fff" stroke-width=".74"/>
        <polygon id="Path-24" points="507.64 407.27 576.17 369.97 625.67 359.74 625.67 364.35 576.17 373.93 507.64 412.52 507.64 407.27" fill="#ffbacc" fill-rule="evenodd" stroke="#fff" stroke-width=".74"/>
        <polygon id="Path-24-2" data-name="Path-24" points="485.08 359.11 576.17 369.97 625.67 359.74 625.67 364.35 576.17 373.93 485.08 362.87 485.08 359.11" fill="#ffbacc" fill-rule="evenodd" stroke="#fff" stroke-width=".74"/>
        <polygon id="Path-24-3" data-name="Path-24" points="547.64 336.87 555.41 427.79 552.16 431.76 544.39 336.87 547.64 336.87" fill="#ffbacc" fill-rule="evenodd" stroke="#fff" stroke-width=".74"/>
        <polygon id="Path-24-4" data-name="Path-24" points="488.34 362.07 598.41 407.03 596.64 411 488.05 366.52 488.34 362.07" fill="#ffbacc" fill-rule="evenodd" stroke="#fff" stroke-width=".74"/>
        <path id="Combined-Shape" d="M562.95,281.26l53.44,22.28,22.14,53.78-22.14,53.78-53.44,22.28-53.44-22.28-22.14-53.78,22.14-53.78,53.44-22.28ZM562.95,285.24l-50.64,21.11-20.98,50.96,20.98,50.96,50.64,21.11,50.64-21.11,20.98-50.96-20.98-50.96-50.64-21.11Z" fill="#ff527f" fill-rule="evenodd" isolation="isolate" opacity=".32"/>
        <path id="Combined-Shape-2" data-name="Combined-Shape" d="M562.95,281.26l52.4,23.13-2.78,1.15-49.62-20.29-50.64,21.11-20.16,48.99-4.77,1.97,22.14-53.78,53.44-22.28Z" fill="#ff527f" fill-rule="evenodd"/>
        <polygon id="Path-2" points="632.33 361.12 614.11 403.97 616.55 408.13 638.53 359.64 632.33 361.12" fill="#ff527f" fill-rule="evenodd" stroke="#fff" stroke-width="1.48"/>
        <path id="Polygon-Copy-8" d="M640.18,352.17c2.65,1.54,4.29,4.38,4.29,7.45v.05c0,3.07-1.63,5.91-4.29,7.45-2.65,1.54-5.92,1.54-8.57,0-2.65-1.54-4.29-4.38-4.29-7.45v-.05c0-3.07,1.63-5.91,4.29-7.45,2.65-1.54,5.92-1.54,8.57,0Z" fill="#ffbacc" fill-rule="evenodd" stroke="#fff" stroke-width="3.07"/>
        <path id="Polygon-Copy" d="M566.25,419.26c2.65,1.54,4.29,4.38,4.29,7.45v.05c0,3.07-1.63,5.91-4.29,7.45-2.65,1.54-5.92,1.54-8.57,0-2.65-1.54-4.29-4.38-4.29-7.45v-.05c0-3.07,1.63-5.91,4.29-7.45,2.65-1.54,5.92-1.54,8.57,0Z" fill="#ffbacc" fill-rule="evenodd" stroke="#fff" stroke-width="3.07"/>
        <path id="Combined-Shape-3" data-name="Combined-Shape" d="M566.91,277.77c2.65,1.54,4.29,4.38,4.29,7.45v.05c0,3.07-1.63,5.91-4.29,7.45-1.27.74-2.67,1.12-4.09,1.15l-7.85,22.2c1.25.33,2.46.83,3.61,1.5l.69.4c1.05.61,1.98,1.37,2.77,2.23l43.49-13.22v-.2c.13-2.93,1.74-5.6,4.28-7.08,2.65-1.54,5.92-1.54,8.57,0,2.65,1.54,4.29,4.38,4.29,7.45v.05c0,3.07-1.63,5.91-4.29,7.45-2.65,1.54-5.92,1.54-8.57,0-1.11-.65-2.05-1.52-2.76-2.55l-42.22,13.65c.28,1.42.3,2.9.03,4.38l-.56,3.03c-.27,1.49-.8,2.89-1.53,4.16l19.11,24.94c2.42-.97,5.17-.79,7.46.54,2.65,1.54,4.29,4.38,4.29,7.45v.05c0,1.87-.61,3.65-1.68,5.11l18.51,24.16c1.8-.21,3.66.15,5.28,1.1,2.65,1.54,4.29,4.38,4.29,7.45v.05c0,3.07-1.63,5.91-4.29,7.45-2.65,1.54-5.92,1.54-8.57,0-2.65-1.54-4.29-4.38-4.29-7.45v-.05c0-2.06.73-4.01,2.01-5.54l-17.97-23.88c-2.07.46-4.27.15-6.16-.95-2.65-1.54-4.29-4.38-4.29-7.45v-.05c0-1.45.36-2.84,1.03-4.08l-18.56-24.68c-.96.67-2.02,1.22-3.16,1.62-.6.21-1.2.38-1.81.5l-32.56,57.65c1.12,1.47,1.75,3.3,1.75,5.21v.05c0,3.07-1.63,5.91-4.29,7.45-2.65,1.54-5.92,1.54-8.57,0-2.65-1.54-4.29-4.38-4.29-7.45v-.05c0-3.07,1.63-5.91,4.29-7.45,1.69-.98,3.64-1.34,5.51-1.07l30.63-54.92c-1.34-.5-2.61-1.2-3.75-2.11l-.6-.48c-1.19-.95-2.2-2.07-3-3.31l-36.56,21c0,.05,0,.1,0,.15v.05c0,3.07-1.63,5.91-4.29,7.45-2.65,1.54-5.92,1.54-8.57,0-2.65-1.54-4.29-4.38-4.29-7.45v-.05c0-3.07,1.63-5.91,4.29-7.45,2.65-1.54,5.92-1.54,8.57,0,.75.43,1.41.97,1.98,1.58l36.82-20.93c-.16-1.31-.14-2.66.1-4l.11-.66c.2-1.13.53-2.22.99-3.24l-19.76-9.73c-.35.28-.72.54-1.11.77-2.65,1.54-5.92,1.54-8.57,0-2.65-1.54-4.29-4.38-4.29-7.45v-.05c0-3.07,1.63-5.91,4.29-7.45,2.65-1.54,5.92-1.54,8.57,0,2.65,1.54,4.29,4.38,4.29,7.45v.05c0,.83-.12,1.65-.35,2.42l21.09,8.78c.89-.67,1.87-1.24,2.92-1.68.87-.36,1.77-.64,2.67-.83l8.43-24.64c-1.53-1.58-2.41-3.72-2.41-5.98v-.05c0-3.07,1.63-5.91,4.29-7.45,2.65-1.54,5.92-1.54,8.57,0Z" fill="#ff527f" fill-rule="evenodd" stroke="#fff" stroke-width="3.07"/>
      </g>
    </g>
    <g id="humaaan-12">
      <g id="Mask">
        <g id="path-13-link">
          <ellipse id="path-13" cx="564.25" cy="354.93" rx="41.23" ry="40.66"/>
        </g>
        <g id="Oval-2" data-name="Oval">
          <ellipse cx="564.25" cy="354.93" rx="49.64" ry="49.06" fill="#fff" stroke="#fff" stroke-width="13.36"/>
          <ellipse cx="564.25" cy="354.93" rx="47.17" ry="46.6" fill="none" stroke="#ff527f" stroke-width="8.43"/>
        </g>
      </g>
      <g id="Clipped">
        <g mask="url(#mask)">
          <g id="Group-2" data-name="Group">
            <g>
              <g id="Head_Front_Pony" data-name="Head/Front/Pony">
                <g id="Head">
                  <path id="Path" d="M545.21,339.97c-1.61,6.84,2.84,21.91,7.28,21.87,1.77-.02,5.01-2.01,8.02-5.13l2.01,16.53,13.3-3.56-10.29-20.1c1.75-3.68,2.49-7.81,1.1-11.85-4.01-11.63-19.82-4.6-21.42,2.24Z" fill="#d4a181"/>
                </g>
                <path id="hair" d="M546.18,327.75c-3.06.82-4.88,3.96-4.06,7.02s3.76,4.75,6.72,4.13c1.81.07,4.06-.13,6.48-.61,0,.93.14,1.95.44,3.07.26.99.65,2,1.14,3.01.35-.75.93-1.34,1.63-1.53,1.96-.53,3.76.72,4.21,2.43.58,2.17-.25,4.08-2.05,4.7,2.5,2.72,5.42,4.49,7.69,3.88,4.33-1.16,5.86-7.77,4.19-13.99-.06-.22-.12-.43-.19-.64,5.42,1.91,10.61,7.16,16.66,5.53,8.24-2.21,7.06-19.7-4.45-16.62-7.83,2.1-11.38,4.27-14.24,6.85-1.15-1.67-2.56-2.95-4.07-3.71-.38-.25-.92-.45-1.59-.59-.4-.1-.81-.16-1.21-.17-2.2-.2-5.24.06-8.51.81-.61.14-1.21.29-1.78.46-.83-3.05-3.97-4.85-7.02-4.04Z" fill="#ff527f"/>
              </g>
              <g id="Body_Pointing-Forward" data-name="Body/Pointing-Forward">
                <path id="Skin" d="M506.95,398.19c-2.54-.07-9.29-3.46-10.16-2.38-1.29,1.6.79,5.46,2.75,7.21,3.66,3.28,6.37,4.15,12.79,4.77,3.36.33,7.13,1.5,11.32,3.53l-1.03-8.73-9.45-3.21c-2.02-4.38-3.87-6.44-5.56-6.17-1.4-.37,1.88,5.04-.66,4.97ZM518.31,375.88c2.08,2.53,4.15,5.28,3.49,6.28s-2.88.15-3.58,1.76c-.47,1.07,3.23,1.98,11.1,2.72l16.55,10.53,5.87-9.05-21.5-7.28c-3.94-3.3-7.69-5.73-11.23-7.32-1.04-.23-2.77-.18-.7,2.35Z" fill="#d4a181"/>
                <path id="Sleeve" d="M560.86,384.06c-6.88,1.14-16.29,1.3-27.16-3.17l-2.33,9.23c7.92,5.5,18.37,9.32,26.61,7.63,6.5-1.33,8.44-9.82,2.88-13.68Z" fill="#ff527f"/>
                <path id="Clothes" d="M556.57,362.42c1.09,11.26-1.1,24.27-2.54,36.99-6.97,3.1-19.57,3.12-37.81.04-2.7,9.55-3.57,16.18-2.58,19.87,16.08,5.09,29.3,6.29,39.74,4.69.75,6.22,2.54,11.96,6.01,16.88,7.13,10.11,35.69-5.45,46.26-5.25,2.73-21.88-11.12-28.14-13.47-41.41-2.58-14.54-18.2-34.87-19.92-34.56h0l-15.67,2.76Z" fill="#ff527f"/>
              </g>
            </g>
          </g>
        </g>
      </g>
    </g>
  </g>
  <g id="Group-14">
    <g id="Pod-base-Copy-3">
      <g id="Polygon-2" data-name="Polygon">
        <path d="M627.19,16.32l53.17,92.1c2.38,4.11,2.38,9.18,0,13.3l-53.17,92.1c-2.38,4.11-6.77,6.65-11.52,6.65h-106.35c-4.75,0-9.14-2.53-11.52-6.65l-53.17-92.1c-2.38-4.11-2.38-9.18,0-13.3l53.17-92.1c2.38-4.11,6.77-6.65,11.52-6.65h106.35c4.75,0,9.14,2.53,11.52,6.65Z" fill="#fff" fill-rule="evenodd"/>
        <path d="M615.67,223.3h-106.35c-5.75,0-11.1-3.09-13.98-8.07l-53.18-92.1c-2.87-4.98-2.87-11.16,0-16.14l53.17-92.1c2.87-4.98,8.23-8.07,13.98-8.07h106.35c5.75,0,11.1,3.09,13.98,8.07l53.17,92.1c2.87,4.98,2.87,11.16,0,16.14l-53.17,92.1c-2.87,4.98-8.23,8.07-13.98,8.07ZM509.32,12.51c-3.73,0-7.2,2-9.06,5.23l-53.17,92.1c-1.86,3.23-1.86,7.23,0,10.46l53.17,92.1c1.86,3.23,5.33,5.23,9.06,5.23h106.35c3.73,0,7.2-2,9.06-5.23l53.17-92.1c1.86-3.23,1.86-7.23,0-10.46l-53.17-92.1c-1.86-3.23-5.33-5.23-9.06-5.23h-106.35Z" fill="#362b48"/>
      </g>
      <g id="Group-3" data-name="Group">
        <polygon id="Path-25-2" data-name="Path-25" points="563.85 179.38 567.57 180.66 593.35 130.64 616.09 65.77 612.01 67.12 589.69 128.52 563.85 179.38" fill="#afaab6" fill-rule="evenodd" stroke="#fff" stroke-width=".74"/>
        <polygon id="Path-24-5" data-name="Path-24" points="516.54 163.31 585.06 126.01 634.57 115.78 634.57 120.39 585.06 129.97 516.54 168.56 516.54 163.31" fill="#afaab6" fill-rule="evenodd" stroke="#fff" stroke-width=".74"/>
        <polygon id="Path-24-6" data-name="Path-24" points="493.98 115.15 585.06 126.01 634.57 115.78 634.57 120.39 585.06 129.97 493.98 118.91 493.98 115.15" fill="#afaab6" fill-rule="evenodd" stroke="#fff" stroke-width=".74"/>
        <polygon id="Path-24-7" data-name="Path-24" points="556.53 92.91 564.31 183.83 561.06 187.79 553.28 92.91 556.53 92.91" fill="#afaab6" fill-rule="evenodd" stroke="#fff" stroke-width=".74"/>
        <polygon id="Path-24-8" data-name="Path-24" points="497.23 118.11 607.3 163.07 605.54 167.04 496.94 122.56 497.23 118.11" fill="#afaab6" fill-rule="evenodd" stroke="#fff" stroke-width=".74"/>
        <path id="Combined-Shape-4" data-name="Combined-Shape" d="M562.95,39.2l53.44,22.28,22.14,53.78-22.14,53.78-53.44,22.28-53.44-22.28-22.14-53.78,22.14-53.78,53.44-22.28ZM562.95,43.19l-50.64,21.11-20.98,50.96,20.98,50.96,50.64,21.11,50.64-21.11,20.98-50.96-20.98-50.96-50.64-21.11Z" fill="#362b48" fill-rule="evenodd" isolation="isolate" opacity=".32"/>
        <path id="Combined-Shape-5" data-name="Combined-Shape" d="M562.95,39.2l52.4,23.13-2.78,1.15-49.62-20.29-50.64,21.11-20.16,48.99-4.77,1.97,22.14-53.78,53.44-22.28Z" fill="#362b48" fill-rule="evenodd"/>
        <polygon id="Path-2-2" data-name="Path-2" points="632.33 119.06 614.11 161.91 616.55 166.08 638.53 117.58 632.33 119.06" fill="#afaab6" fill-rule="evenodd" stroke="#fff" stroke-width="1.48"/>
        <path id="Polygon-Copy-8-2" data-name="Polygon-Copy-8" d="M640.18,110.11c2.65,1.54,4.29,4.38,4.29,7.45v.05c0,3.07-1.63,5.91-4.29,7.45-2.65,1.54-5.92,1.54-8.57,0-2.65-1.54-4.29-4.38-4.29-7.45v-.05c0-3.07,1.63-5.91,4.29-7.45,2.65-1.54,5.92-1.54,8.57,0Z" fill="#afaab6" fill-rule="evenodd" stroke="#fff" stroke-width="3.07"/>
        <path id="Polygon-Copy-2" data-name="Polygon-Copy" d="M566.25,177.2c2.65,1.54,4.29,4.38,4.29,7.45v.05c0,3.07-1.63,5.91-4.29,7.45-2.65,1.54-5.92,1.54-8.57,0-2.65-1.54-4.29-4.38-4.29-7.45v-.05c0-3.07,1.63-5.91,4.29-7.45,2.65-1.54,5.92-1.54,8.57,0Z" fill="#afaab6" fill-rule="evenodd" stroke="#fff" stroke-width="3.07"/>
        <path id="Combined-Shape-6" data-name="Combined-Shape" d="M566.91,35.72c2.65,1.54,4.29,4.38,4.29,7.45v.05c0,3.07-1.63,5.91-4.29,7.45-1.27.74-2.67,1.12-4.09,1.15l-7.85,22.2c1.25.33,2.46.83,3.61,1.5l.69.4c1.05.61,1.98,1.37,2.77,2.23l43.49-13.22v-.2c.13-2.93,1.74-5.6,4.28-7.08,2.65-1.54,5.92-1.54,8.57,0,2.65,1.54,4.29,4.38,4.29,7.45v.05c0,3.07-1.63,5.91-4.29,7.45-2.65,1.54-5.92,1.54-8.57,0-1.11-.65-2.05-1.52-2.76-2.55l-42.22,13.65c.28,1.42.3,2.9.03,4.38l-.56,3.03c-.27,1.49-.8,2.89-1.53,4.16l19.11,24.94c2.42-.97,5.17-.79,7.46.54,2.65,1.54,4.29,4.38,4.29,7.45v.05c0,1.87-.61,3.65-1.68,5.11l18.51,24.16c1.8-.21,3.66.15,5.28,1.1,2.65,1.54,4.29,4.38,4.29,7.45v.05c0,3.07-1.63,5.91-4.29,7.45-2.65,1.54-5.92,1.54-8.57,0-2.65-1.54-4.29-4.38-4.29-7.45v-.05c0-2.06.73-4.01,2.01-5.54l-17.97-23.88c-2.07.46-4.27.15-6.16-.95-2.65-1.54-4.29-4.38-4.29-7.45v-.05c0-1.45.36-2.84,1.03-4.08l-18.56-24.68c-.96.67-2.02,1.22-3.16,1.62-.6.21-1.2.38-1.81.5l-32.56,57.65c1.12,1.47,1.75,3.3,1.75,5.21v.05c0,3.07-1.63,5.91-4.29,7.45-2.65,1.54-5.92,1.54-8.57,0-2.65-1.54-4.29-4.38-4.29-7.45v-.05c0-3.07,1.63-5.91,4.29-7.45,1.69-.98,3.64-1.34,5.51-1.07l30.63-54.92c-1.34-.5-2.61-1.2-3.75-2.11l-.6-.48c-1.19-.95-2.2-2.07-3-3.31l-36.56,21c0,.05,0,.1,0,.15v.05c0,3.07-1.63,5.91-4.29,7.45-2.65,1.54-5.92,1.54-8.57,0-2.65-1.54-4.29-4.38-4.29-7.45v-.05c0-3.07,1.63-5.91,4.29-7.45,2.65-1.54,5.92-1.54,8.57,0,.75.43,1.41.97,1.98,1.58l36.82-20.93c-.16-1.31-.14-2.66.1-4l.11-.66c.2-1.13.53-2.22.99-3.24l-19.76-9.73c-.35.28-.72.54-1.11.77-2.65,1.54-5.92,1.54-8.57,0-2.65-1.54-4.29-4.38-4.29-7.45v-.05c0-3.07,1.63-5.91,4.29-7.45,2.65-1.54,5.92-1.54,8.57,0,2.65,1.54,4.29,4.38,4.29,7.45v.05c0,.83-.12,1.65-.35,2.42l21.09,8.78c.89-.67,1.87-1.24,2.92-1.68.87-.36,1.77-.64,2.67-.83l8.43-24.64c-1.53-1.58-2.41-3.72-2.41-5.98v-.05c0-3.07,1.63-5.91,4.29-7.45,2.65-1.54,5.92-1.54,8.57,0Z" fill="#362b48" fill-rule="evenodd" stroke="#fff" stroke-width="3.07"/>
      </g>
    </g>
    <g id="A-Human_Standing" data-name="A-Human/Standing">
      <g id="Mask-2" data-name="Mask">
        <g id="path-10-link">
          <ellipse id="path-10" cx="563.61" cy="113.25" rx="42.17" ry="41"/>
        </g>
        <g id="Oval-3" data-name="Oval">
          <ellipse cx="563.61" cy="113.25" rx="49.66" ry="48.49" fill="#fff" stroke="#fff" stroke-width="13.36"/>
          <ellipse cx="563.61" cy="113.25" rx="47.2" ry="46.02" fill="none" stroke="#726b7f" stroke-width="8.43"/>
        </g>
      </g>
      <g id="A-Human_Sitting-Clipped" data-name="A-Human/Sitting-Clipped">
        <g mask="url(#mask-1)">
          <g id="A-Human_Sitting" data-name="A-Human/Sitting">
            <g id="Group-4" data-name="Group">
              <g>
                <g id="Head_Front_Curly" data-name="Head/Front/Curly">
                  <g id="Head-2" data-name="Head">
                    <path id="Path-2" data-name="Path" d="M548.25,99.54c-3.9,7.26-3.44,25.67,1.6,26.97,2.01.52,6.29-.75,10.65-3.37l-2.74,19.33h16.15l-5.56-25.88c3.1-3.64,5.2-8.09,4.85-13.08-1.01-14.38-21.06-11.22-24.96-3.96Z" fill="#b28b67"/>
                  </g>
                  <path id="hair-2" data-name="hair" d="M541.09,89.47c.33-1.17,1.23-2.18,2.45-2.48.29-.07.6-.1.9-.09.11,0,.14.04.19-.04.04-.06.04-.19.05-.26.05-.21.11-.41.18-.61.25-.67.68-1.27,1.19-1.77.96-.94,2.26-1.59,3.61-1.71.74-.06,1.47.06,2.17.3.36.12.71.28,1.05.45.1.05.44.3.54.29.11-.02.34-.3.44-.37,1.15-.88,2.56-1.22,3.99-1.21,1.61.01,3.16.09,4.5,1.07.28.21.55.43.81.67.14.13.27.26.39.39.08.08.15.17.22.25.12.15.1.19.27.09.65-.39,1.4-.58,2.15-.48.45.05.88.19,1.3.37.14.06.47.3.62.3.15,0,.47-.22.62-.28.83-.31,1.72-.38,2.59-.24.9.15,1.78.5,2.54,1,.37.24.69.5.94.86.11.15.21.31.34.46.07.08.22.17.26.27-.02-.06.98-.45,1.08-.47.51-.13,1.02-.11,1.52.06.93.31,1.73.99,2.39,1.7.34.36.63.76.89,1.19.12.2.23.41.33.63.05.1.08.23.15.33.08.12.14.12.29.18.76.27,1.46.72,1.99,1.33.54.62.88,1.38,1.03,2.18,0,.05.01.24.04.27.04.04.19.02.25.03.2.02.4.06.6.11.36.09.72.21,1.05.38,1.3.64,2.23,1.85,2.69,3.21.48,1.42.47,3.06-.1,4.45-.09.23-.2.44-.33.65-.08.13-.1.13-.05.26.06.15.16.29.23.44.22.47.38.98.48,1.49.16.84.24,1.73.08,2.57-.07.39-.2.78-.4,1.13-.1.18-.22.35-.35.51-.07.08-.14.16-.22.23-.04.04-.1.08-.14.13-.09.12-.11.02-.06.19.07.24.21.47.3.7.09.24.18.48.25.72.16.49.29,1,.37,1.51.16.98.13,2.03-.34,2.93-.2.39-.48.72-.83.99-.17.13-.35.24-.55.33-.1.05-.23.07-.27.16-.05.1.02.31.04.42.14,1,.22,2.05-.08,3.03-.27.9-.88,1.7-1.66,2.23-1.52,1.02-3.57.97-5.17.15-.42-.21-.81-.48-1.15-.79-.89,1.19-2.71,1.15-4,.81-1.61-.42-2.91-1.54-3.65-3.01-1.02,1.24-3.16.84-3.86-.51-.17-.33-.28-.69-.33-1.06-.03-.19,0-.39-.03-.58-.03-.24-.19-.48-.28-.72-.18-.46-.3-.93-.3-1.43,0-.26.03-.51.05-.77.02-.23-.04-.45-.08-.67.41.07.92-.04,1.31-.16.38-.12.74-.43,1.01-.71.63-.66,1.01-1.52,1.27-2.37.57-1.88.34-4.13-1.55-5.16-.88-.48-3.52-.48-4.57-.24-1.1.25-2.36,2.68-2.42,2.91-.04.14-.02.32-.15.41-.29.21-.76-.15-.97-.33-.36-.31-.62-.71-.85-1.13-.49-.9-.89-1.87-1.16-2.85-.22-.76-.35-1.54-.63-2.28-.28-.74-.72-1.4-1.41-1.81-.75-.45-1.6-.69-2.42-.98-.81-.28-1.61-.63-2.24-1.23-.14-.13-.27-.27-.38-.43-.09-.12-.17-.36-.31-.44-.21-.12-.51.19-.69.31-.89.56-1.63,1.35-2.23,2.21-.59.85-1.08,1.68-1.48,2.63-.29.71-.48,1.61-1,2.19-.23.26-1.95.42-2.5.19-.56-.23-1.18-.81-1.37-1.18-.19-.38-.24-.79-.16-1.2.05-.24.15-.47.2-.71.05-.2.09-.39.18-.57.18-.35.5-.6.88-.7-.4-.36-.72-.8-.95-1.29-.24-.51-.44-1.12-.49-1.68-.05-.45.03-.92.27-1.31.26-.41.72-.67,1.12-.93-.61-.48-1.13-1.05-1.56-1.69-.83-1.24-1.35-2.81-.92-4.3Z" fill="#362b48"/>
                </g>
                <g id="Bottom_Sitting_Sweat-Pants" data-name="Bottom/Sitting/Sweat-Pants">
                  <g id="Objects_Seat_Cube-2" data-name="Objects/Seat/Cube-2">
                    <path id="Seat" d="M541.61,226.47c-5.95,0-10.77,4.82-10.77,10.77v61.8c0,5.95,4.82,10.77,10.77,10.77h77.4c5.95,0,10.77-4.82,10.77-10.77v-61.8c0-5.95-4.82-10.77-10.77-10.77h-77.4ZM552.38,245.29h55.86c1.49,0,2.69,1.21,2.69,2.69h0v40.32c0,1.49-1.21,2.69-2.69,2.69h-55.86c-1.49,0-2.69-1.21-2.69-2.69h0v-40.32c0-1.49,1.21-2.69,2.69-2.69h0Z" fill="#c5cfd6"/>
                  </g>
                  <path id="Skin-2" data-name="Skin" d="M491.07,223.45c-3.42,8.84-9.38,37.87-16.55,81.73l8.19,2.39c8.62-19.06,14.86-35.66,17.36-44.41,4.29-14.99,7.55-28.19,8.37-33.11,1.97-11.75-15.12-12.43-17.38-6.59ZM516.92,248.09c24.95,3.59,60.32,7.29,63.34,7.7,4.24.58,7.45-6.07,2.48-8.04-7.91-3.12-35.62-12.9-48.98-15.66-3.84-.79-7.56-1.53-11.06-2.2-10.4-1.98-15.79,16.76-5.77,18.19Z" fill="#b28b67"/>
                  <path id="Leg-Back" d="M554.02,198.25c-41.41,10.54-62.56,17.29-63.47,20.26l-.03.1s-.04.05-.06.08c-8.21,11.27-13.12,66.29-14.73,70.41l15.72,2.34c6.01-22.27,25.26-37.79,24.75-64.46.14-.78.17-1.52.12-2.23l42.8-21.76v-4.74h-5.09Z" fill="#005eb8"/>
                  <path id="Leg-Front" d="M551.75,198.25c-6,1.72-37.17,14.78-53.35,21.72-10.71,4.6-7.33,21.16-1.27,25.47.03.26.14.44.34.53,32.61,13.5,58.41,6.42,67.03,8.68l3.99-12.56-12.93-4.43c3.92-.78,7.52-1.48,10.61-2.02,19.93-3.49,25.74-14.15,22.31-37.39h-36.72Z" fill="#0072c3"/>
                  <g id="Accessories_Shoe_Flat-Sneaker" data-name="Accessories/Shoe/Flat-Sneaker">
                    <path id="shoe" d="M580.03,245.74c2.13.2,3.65.52,4.54.96,1.09.53,2.59,1.49,4.5,2.87-.62,1.27-6.16,12.64-16.64,34.12-3.36-.54-4.69-1.82-3.99-3.85.7-2.02,1.26-3.71,1.69-5.07l.67-19.3c.01-.37.32-.66.7-.65,0,0,.01,0,.02,0l2.97.18h0c1.69-1.37,2.8-2.6,3.34-3.71.44-.9.68-2.32.73-4.25h0c.02-.74.64-1.33,1.38-1.31.03,0,.06,0,.09,0Z" fill="#e4e4e4"/>
                  </g>
                  <g id="Accessories_Shoe_Flat-Sneaker-2" data-name="Accessories/Shoe/Flat-Sneaker">
                    <path id="shoe-2" data-name="shoe" d="M486.64,304.04c.75,2.01,1.13,3.51,1.13,4.51,0,1.21-.2,2.98-.61,5.31h-37.96c-.99-3.26-.42-5.01,1.71-5.27,2.13-.26,3.89-.49,5.3-.7l17.64-7.86c.34-.15.74,0,.89.34,0,0,0,.01,0,.02l1.13,2.75h0c1.97.92,3.57,1.38,4.8,1.38,1,0,2.38-.4,4.14-1.21h0c.68-.31,1.47-.01,1.78.66.01.03.03.06.04.09Z" fill="#e4e4e4"/>
                  </g>
                </g>
                <g id="Body_Jacket" data-name="Body/Jacket">
                  <path id="Skin-3" data-name="Skin" d="M604.67,190.19l-14.07.06c8.68,28,13.37,42.85,14.07,44.56,1.56,3.85-1.74,9.72-3.15,12.88,4.59,2.05,4.1-5.55,9.89-2.85,5.29,2.46,9.31,6.9,15.41,3.14.75-.46,1.57-2.2-.41-3.57-4.95-3.39-12.09-9.33-13.05-11.28-1.31-2.66-4.21-16.98-8.69-42.94h0ZM520.04,187.57l-19.07,18.57c-5.55,2.36-10.09,4.97-13.64,7.83-.8.96-1.66,2.8,2.08,1.98,3.75-.82,7.73-1.52,8.43-.3.7,1.22-1.37,3.08-.07,4.68.87,1.06,3.79-2.32,8.76-10.14l19.83-11.67-6.33-10.94Z" fill="#b28b67"/>
                  <path id="Coat-Back" d="M564.7,131.26l-5.82-1c-10.02,25-27.51,47.71-52.48,68.14l18.87,22.89c24.97-29.09,40.35-59.1,39.44-90.03Z" fill="#362b48"/>
                  <path id="Shirt" d="M590.07,204.29h-51.83c12.01-29.15,18.01-53.92,18.01-74.29l15.63-2.33c12.29,19.73,15.76,44.03,18.18,76.62Z" fill="#362b48"/>
                  <path id="Coat-Front" d="M571.19,127.67c-1.22.04-3.08.12-5.58.23h0l-3.78,10.78c-.4,13.14-2.73,39.63-7,79.46h33.97c-.09,2.75-.24,5.53-.44,8.33h25.26c-3.78-42.57-17.58-75.5-41.4-98.8h-.01s0,0,0,0h-1.02Z" fill="#362b48"/>
                  <path id="Shade" d="M579.3,218.41h9.5c.42-12.34-.33-24.16-2.23-35.46-.97,17.15-3.39,28.97-7.26,35.46Z"/>
                  <polygon id="Light" points="581.25 197.57 564.5 189.8 564.5 197.57 581.25 197.57" fill="rgba(255, 255, 255, .2)"/>
                </g>
              </g>
            </g>
          </g>
        </g>
      </g>
    </g>
  </g>
  <g id="Group-25">
    <g id="Group-6">
      <g id="Pod-base">
        <g id="Polygon-3" data-name="Polygon">
          <path d="M421.81,134.52l53.17,92.1c2.38,4.11,2.38,9.18,0,13.3l-53.17,92.1c-2.38,4.11-6.77,6.65-11.52,6.65h-106.35c-4.75,0-9.14-2.53-11.52-6.65l-53.17-92.1c-2.38-4.11-2.38-9.18,0-13.3l53.17-92.1c2.38-4.11,6.77-6.65,11.52-6.65h106.35c4.75,0,9.14,2.53,11.52,6.65Z" fill="#fff" fill-rule="evenodd"/>
          <path d="M410.29,341.51h-106.35c-5.75,0-11.1-3.09-13.98-8.07l-53.17-92.1c-2.87-4.98-2.87-11.16,0-16.14l53.17-92.1c2.87-4.98,8.23-8.07,13.98-8.07h106.35c5.75,0,11.1,3.09,13.98,8.07l53.17,92.1c2.87,4.98,2.87,11.16,0,16.14l-53.17,92.1c-2.87,4.98-8.23,8.07-13.98,8.07ZM303.94,130.71c-3.73,0-7.2,2-9.06,5.23l-53.17,92.1c-1.86,3.23-1.86,7.23,0,10.46l53.17,92.1c1.86,3.23,5.33,5.23,9.06,5.23h106.35c3.73,0,7.2-2,9.06-5.23l53.17-92.1c1.86-3.23,1.86-7.23,0-10.46l-53.17-92.1c-1.86-3.23-5.33-5.23-9.06-5.23h-106.35Z" fill="#7b4dff"/>
        </g>
        <g id="Group-5" data-name="Group">
          <polygon id="Path-25-3" data-name="Path-25" points="358.47 297.59 362.19 298.86 387.97 248.84 410.71 183.98 406.63 185.32 384.3 246.73 358.47 297.59" fill="#bfb0ff" fill-rule="evenodd" stroke="#fff" stroke-width=".74"/>
          <polygon id="Path-24-9" data-name="Path-24" points="311.15 281.52 379.68 244.21 429.19 233.98 429.19 238.6 379.68 248.18 311.15 286.76 311.15 281.52" fill="#bfb0ff" fill-rule="evenodd" stroke="#fff" stroke-width=".74"/>
          <polygon id="Path-24-10" data-name="Path-24" points="288.6 233.35 379.68 244.21 429.19 233.98 429.19 238.6 379.68 248.18 288.6 237.12 288.6 233.35" fill="#bfb0ff" fill-rule="evenodd" stroke="#fff" stroke-width=".74"/>
          <polygon id="Path-24-11" data-name="Path-24" points="351.15 211.12 358.93 302.04 355.68 306 347.9 211.12 351.15 211.12" fill="#bfb0ff" fill-rule="evenodd" stroke="#fff" stroke-width=".74"/>
          <polygon id="Path-24-12" data-name="Path-24" points="291.85 236.32 401.92 281.28 400.15 285.24 291.56 240.77 291.85 236.32" fill="#bfb0ff" fill-rule="evenodd" stroke="#fff" stroke-width=".74"/>
          <path id="Combined-Shape-7" data-name="Combined-Shape" d="M357.57,157.41l53.44,22.28,22.14,53.78-22.14,53.78-53.44,22.28-53.44-22.28-22.14-53.78,22.14-53.78,53.44-22.28ZM357.57,161.39l-50.64,21.11-20.98,50.96,20.98,50.96,50.64,21.11,50.64-21.11,20.98-50.96-20.98-50.96-50.64-21.11Z" fill="#7b4dff" fill-rule="evenodd" isolation="isolate" opacity=".32"/>
          <path id="Combined-Shape-8" data-name="Combined-Shape" d="M357.57,157.41l52.4,23.13-2.78,1.15-49.62-20.29-50.64,21.11-20.16,48.99-4.77,1.97,22.14-53.78,53.44-22.28Z" fill="#7b4dff" fill-rule="evenodd"/>
          <polygon id="Path-2-3" data-name="Path-2" points="426.94 237.27 408.73 280.12 411.17 284.28 433.15 235.79 426.94 237.27" fill="#bfb0ff" fill-rule="evenodd" stroke="#fff" stroke-width="1.48"/>
          <path id="Polygon-Copy-8-3" data-name="Polygon-Copy-8" d="M434.8,228.32c2.65,1.54,4.29,4.38,4.29,7.45v.05c0,3.07-1.63,5.91-4.29,7.45-2.65,1.54-5.92,1.54-8.57,0-2.65-1.54-4.29-4.38-4.29-7.45v-.05c0-3.07,1.63-5.91,4.29-7.45,2.65-1.54,5.92-1.54,8.57,0Z" fill="#bfb0ff" fill-rule="evenodd" stroke="#fff" stroke-width="3.07"/>
          <path id="Polygon-Copy-3" data-name="Polygon-Copy" d="M360.87,295.41c2.65,1.54,4.29,4.38,4.29,7.45v.05c0,3.07-1.63,5.91-4.29,7.45-2.65,1.54-5.92,1.54-8.57,0-2.65-1.54-4.29-4.38-4.29-7.45v-.05c0-3.07,1.63-5.91,4.29-7.45,2.65-1.54,5.92-1.54,8.57,0Z" fill="#bfb0ff" fill-rule="evenodd" stroke="#fff" stroke-width="3.07"/>
          <path id="Combined-Shape-9" data-name="Combined-Shape" d="M361.53,153.92c2.65,1.54,4.29,4.38,4.29,7.45v.05c0,3.07-1.63,5.91-4.29,7.45-1.27.74-2.67,1.12-4.09,1.15l-7.85,22.2c1.25.33,2.46.83,3.61,1.5l.69.4c1.05.61,1.98,1.37,2.77,2.23l43.49-13.22v-.2c.13-2.93,1.74-5.6,4.28-7.08,2.65-1.54,5.92-1.54,8.57,0,2.65,1.54,4.29,4.38,4.29,7.45v.05c0,3.07-1.63,5.91-4.29,7.45-2.65,1.54-5.92,1.54-8.57,0-1.11-.65-2.05-1.52-2.76-2.55l-42.22,13.65c.28,1.42.3,2.9.03,4.38l-.56,3.03c-.27,1.49-.8,2.89-1.53,4.16l19.11,24.94c2.42-.97,5.17-.79,7.46.54,2.65,1.54,4.29,4.38,4.29,7.45v.05c0,1.87-.61,3.65-1.68,5.11l18.51,24.16c1.8-.21,3.66.15,5.28,1.1,2.65,1.54,4.29,4.38,4.29,7.45v.05c0,3.07-1.63,5.91-4.29,7.45-2.65,1.54-5.92,1.54-8.57,0-2.65-1.54-4.29-4.38-4.29-7.45v-.05c0-2.06.73-4.01,2.01-5.54l-17.97-23.88c-2.07.46-4.27.15-6.16-.95-2.65-1.54-4.29-4.38-4.29-7.45v-.05c0-1.45.36-2.84,1.03-4.08l-18.56-24.68c-.96.67-2.02,1.22-3.16,1.62-.6.21-1.2.38-1.81.5l-32.56,57.65c1.12,1.47,1.75,3.3,1.75,5.21v.05c0,3.07-1.63,5.91-4.29,7.45-2.65,1.54-5.92,1.54-8.57,0-2.65-1.54-4.29-4.38-4.29-7.45v-.05c0-3.07,1.63-5.91,4.29-7.45,1.69-.98,3.64-1.34,5.51-1.07l30.63-54.92c-1.34-.5-2.61-1.2-3.75-2.11l-.6-.48c-1.19-.95-2.2-2.07-3-3.31l-36.56,21c0,.05,0,.1,0,.15v.05c0,3.07-1.63,5.91-4.29,7.45-2.65,1.54-5.92,1.54-8.57,0-2.65-1.54-4.29-4.38-4.29-7.45v-.05c0-3.07,1.63-5.91,4.29-7.45,2.65-1.54,5.92-1.54,8.57,0,.75.43,1.41.97,1.98,1.58l36.82-20.93c-.16-1.31-.14-2.66.1-4l.11-.66c.2-1.13.53-2.22.99-3.24l-19.76-9.73c-.35.28-.72.54-1.11.77-2.65,1.54-5.92,1.54-8.57,0-2.65-1.54-4.29-4.38-4.29-7.45v-.05c0-3.07,1.63-5.91,4.29-7.45,2.65-1.54,5.92-1.54,8.57,0,2.65,1.54,4.29,4.38,4.29,7.45v.05c0,.83-.12,1.65-.35,2.42l21.09,8.78c.89-.67,1.87-1.24,2.92-1.68.87-.36,1.77-.64,2.67-.83l8.43-24.64c-1.53-1.58-2.41-3.72-2.41-5.98v-.05c0-3.07,1.63-5.91,4.29-7.45,2.65-1.54,5.92-1.54,8.57,0Z" fill="#7b4dff" fill-rule="evenodd" stroke="#fff" stroke-width="3.07"/>
        </g>
      </g>
      <g id="humaaan-3">
        <g id="Mask-3" data-name="Mask">
          <g id="path-4-link">
            <ellipse id="path-4" cx="357.25" cy="232.37" rx="37.56" ry="37.04"/>
          </g>
          <g id="Oval-4" data-name="Oval">
            <ellipse id="path-7" cx="357.25" cy="232.37" rx="39.12" ry="38.6" fill="#bfb0ff" stroke="#fff" stroke-width="20.79"/>
            <ellipse id="path-7-2" data-name="path-7" cx="357.25" cy="232.37" rx="39.12" ry="38.6" fill="none" stroke="#7b4dff" stroke-width="12"/>
          </g>
        </g>
        <g id="Clipped-2" data-name="Clipped">
          <g id="Group-6" data-name="Group">
            <g id="Mask-4" data-name="Mask">
              <ellipse id="path-8" cx="357.25" cy="232.37" rx="39.12" ry="38.6" fill="#fff"/>
            </g>
            <g mask="url(#mask-2)">
              <g>
                <g id="Head_Front_Short-Beard" data-name="Head/Front/Short-Beard">
                  <g id="Head-3" data-name="Head">
                    <path id="Path-3" data-name="Path" d="M344.74,211.55c-4.55,6.94-5.7,25.46-.76,27.2,1.97.7,6.38-.2,10.98-2.45l-4.44,19.15,16.21,1.42-3.31-26.46c3.43-3.37,5.93-7.66,6.01-12.7.25-14.52-20.15-13.11-24.7-6.16Z" fill="#b28b67"/>
                  </g>
                  <path id="Hair" d="M354.15,205.23c-4.58,0-8.76,1.02-9.99,1.74-.38,4.3.35,5.65,7.48,6.16,1.67,1.08,2.88,2.78,4.1,4.99-1.38,8.57-3.39,12.75-6.06,12.51-3.99-.35-7.16-3.18-8.91-3.33-1.28-.11-1.13,1.51-.39,2.77.61,1.04,3.93,2.28,3.8,3.79s-2.72.11-2.8,1.01c-.13,1.48-.85,4.24,1.73,4.46s10.18-.07,11.81-3.83c1.05-2.43,2.04-7.55,2.97-15.39.16,0,.32,0,.49.01,2.24.2,3.89,2.17,3.7,4.4-.1,1.13-.66,2.12-1.47,2.79.82,1.4,1.75,2.88,2.83,4.41,4.76-2.31,8.81-9.95,5.06-17.96-.9-3.84-3.49-6.08-6.68-7.29-2.55-1.34-5.29-1.7-7.67-1.24Z" fill="#7b4dff"/>
                </g>
                <g id="Bottom_Standing_Baggy-Pants" data-name="Bottom/Standing/Baggy-Pants">
                  <polygon id="Leg" points="368.75 311.6 350.59 400.19 340.95 474.07 332.27 475.6 338.93 316.86 368.75 311.6" fill="#997659"/>
                  <path id="Leg-2" data-name="Leg" d="M375.35,310.43c5.48,29.04,17.48,67.32,18.61,68.99.76,1.11,22.18,13.19,64.27,36.24l-4.85,7.44c-47.98-17.66-73.28-28-75.89-31.03-3.91-4.54-21.97-49.44-34.78-75.89l32.64-5.75Z" fill="#b28b67"/>
                  <g id="Accessories_Shoe_Flat-Sneaker-3" data-name="Accessories/Shoe/Flat-Sneaker">
                    <path id="shoe-3" data-name="shoe" d="M458.65,413.37c2.13.35,3.63.78,4.5,1.28,1.06.61,2.5,1.68,4.32,3.2-.71,1.23-7.08,12.27-19.12,33.12-3.34-.78-4.58-2.16-3.74-4.15.84-1.98,1.53-3.64,2.05-4.97l2.04-19.35c.04-.37.37-.64.75-.6,0,0,.01,0,.02,0l2.97.39h0c1.79-1.25,3-2.42,3.62-3.49.5-.87.85-2.28,1.03-4.22h0c.07-.75.73-1.29,1.48-1.22.03,0,.06,0,.09.01Z" fill="#e4e4e4"/>
                  </g>
                  <g id="Accessories_Shoe_Flat-Sneaker-4" data-name="Accessories/Shoe/Flat-Sneaker">
                    <path id="shoe-4" data-name="shoe" d="M343.93,470.21c1.1,1.86,1.73,3.28,1.91,4.27.21,1.2.32,2.99.33,5.37-1.4.25-13.95,2.46-37.66,6.64-1.55-3.06-1.29-4.9.77-5.53,2.06-.63,3.77-1.17,5.13-1.62l16.13-10.88c.31-.21.73-.13.94.18,0,0,0,.01.01.02l1.61,2.53h0c2.11.57,3.78.74,5,.52.99-.17,2.29-.82,3.9-1.92h0c.62-.43,1.46-.27,1.89.35.02.03.04.05.05.08Z" fill="#e4e4e4"/>
                  </g>
                  <polygon id="Pant" points="372.4 461.09 330.34 463.9 336.04 317.37 373 310.85 372.4 461.09" fill="#69a1ac"/>
                  <path id="Pant-2" data-name="Pant" d="M447.88,406.86l-21.43,36.76c-33.99-26.06-54.19-43.42-60.59-52.06-6.4-8.65-15.19-33.58-26.35-74.81l41.61-7.34c8.56,36.49,13.35,55.53,14.37,57.12,1.02,1.59,18.48,15.03,52.39,40.33Z" fill="#89c5cc"/>
                </g>
                <g id="Body_Hoodie" data-name="Body/Hoodie">
                  <path id="Skin-4" data-name="Skin" d="M397.97,306.04l-14.17.06c8.75,28.2,13.47,43.16,14.17,44.88,1.57,3.88-1.75,9.79-3.17,12.97,4.62,2.07,4.13-5.58,9.96-2.88,5.32,2.47,9.37,6.95,15.52,3.16.76-.47,1.58-2.22-.42-3.59-4.99-3.42-12.18-9.39-13.15-11.36-1.32-2.68-4.24-17.1-8.75-43.25h0ZM314.94,305.49l-21.63,15.86c-5.87,1.58-10.77,3.55-14.7,5.9-.93.85-2.05,2.56,1.8,2.26,3.86-.3,7.92-.43,8.46.88s-1.8,2.88-.73,4.65c.72,1.18,4.1-1.78,10.16-8.88l21.42-8.87-4.78-11.8Z" fill="#b28b67"/>
                  <path id="Coat-Back-2" data-name="Coat-Back" d="M357.71,246.68l-5.86-1c-21.75,18.76-30.69,54.8-57.35,73.89l6.42,7.94c46.25-5.72,57.72-49.68,56.79-80.83Z" fill="#7b4dff"/>
                  <path id="Shirt-2" data-name="Shirt" d="M383.27,320.24h-51.87c-2.37,0-1.92-3.42-1.58-5.14,3.95-19.9,19.39-41.35,19.39-69.68l14.96-2.34c12.38,19.87,16.66,44.34,19.1,77.17Z" fill="#7b4dff"/>
                  <path id="Coat-Front-2" data-name="Coat-Front" d="M365.29,243.07c-.51,0-.97.03-1.39.09l-4.69.27c-13.44,45.47-17.15,75.81-11.12,91.02h40.83c2.42,5.63,4.73,10.37,6.94,14.21h11.12c1.05-33.8-7-62.49-24.15-86.06,2.17-.62,3.89-2.08,5.16-4.36,5.47-9.85,3.49-15.28-2.35-17.06-5.84-1.78-11.06,1.89-20.37,1.89Z" fill="#7b4dff"/>
                  <path id="Shade-2" data-name="Shade" d="M373.78,334.45h15.15c-2.82-6.57-5.79-14.35-8.89-23.35-1.28,10.72-3.37,18.51-6.26,23.35Z"/>
                </g>
              </g>
            </g>
          </g>
        </g>
      </g>
    </g>
  </g>
  <g id="Group-17">
    <g id="Pod-base-2" data-name="Pod-base">
      <g id="Polygon-4" data-name="Polygon">
        <path d="M215.84,16.32l53.17,92.1c2.38,4.11,2.38,9.18,0,13.3l-53.17,92.1c-2.38,4.11-6.77,6.65-11.52,6.65h-106.35c-4.75,0-9.14-2.53-11.52-6.65l-53.17-92.1c-2.38-4.11-2.38-9.18,0-13.3L86.46,16.32c2.38-4.11,6.77-6.65,11.52-6.65h106.35c4.75,0,9.14,2.53,11.52,6.65Z" fill="#fff" fill-rule="evenodd"/>
        <path d="M204.33,223.3h-106.35c-5.75,0-11.1-3.09-13.98-8.07L30.83,123.13c-2.87-4.98-2.87-11.16,0-16.14L84,14.9c2.87-4.98,8.23-8.07,13.98-8.07h106.35c5.75,0,11.1,3.09,13.98,8.07l53.17,92.1c2.87,4.98,2.87,11.16,0,16.14l-53.17,92.1c-2.87,4.98-8.23,8.07-13.98,8.07ZM97.98,12.51c-3.73,0-7.2,2-9.06,5.23l-53.17,92.1c-1.86,3.23-1.86,7.23,0,10.46l53.17,92.1c1.86,3.23,5.33,5.23,9.06,5.23h106.35c3.72,0,7.2-2,9.06-5.23l53.17-92.1c1.86-3.23,1.86-7.23,0-10.46l-53.17-92.1c-1.86-3.23-5.33-5.23-9.06-5.23h-106.35Z" fill="#ffab50"/>
      </g>
      <g id="Group-7" data-name="Group">
        <polygon id="Path-25-4" data-name="Path-25" points="152.51 179.38 156.23 180.66 182 130.64 204.74 65.77 200.67 67.12 178.34 128.52 152.51 179.38" fill="#ffddb9" fill-rule="evenodd" stroke="#fff" stroke-width=".74"/>
        <polygon id="Path-24-13" data-name="Path-24" points="105.19 163.31 173.72 126.01 223.22 115.78 223.22 120.39 173.72 129.97 105.19 168.56 105.19 163.31" fill="#ffddb9" fill-rule="evenodd" stroke="#fff" stroke-width=".74"/>
        <polygon id="Path-24-14" data-name="Path-24" points="82.63 115.15 173.72 126.01 223.22 115.78 223.22 120.39 173.72 129.97 82.63 118.91 82.63 115.15" fill="#ffddb9" fill-rule="evenodd" stroke="#fff" stroke-width=".74"/>
        <polygon id="Path-24-15" data-name="Path-24" points="145.19 92.91 152.96 183.83 149.71 187.79 141.94 92.91 145.19 92.91" fill="#ffddb9" fill-rule="evenodd" stroke="#fff" stroke-width=".74"/>
        <polygon id="Path-24-16" data-name="Path-24" points="85.89 118.11 195.96 163.07 194.19 167.04 85.6 122.56 85.89 118.11" fill="#ffddb9" fill-rule="evenodd" stroke="#fff" stroke-width=".74"/>
        <path id="Combined-Shape-10" data-name="Combined-Shape" d="M151.61,39.2l53.44,22.28,22.14,53.78-22.14,53.78-53.44,22.28-53.44-22.28-22.14-53.78,22.14-53.78,53.44-22.28ZM151.61,43.19l-50.64,21.11-20.98,50.96,20.98,50.96,50.64,21.11,50.64-21.11,20.98-50.96-20.98-50.96-50.64-21.11Z" fill="#ffab50" fill-rule="evenodd" isolation="isolate" opacity=".32"/>
        <path id="Combined-Shape-11" data-name="Combined-Shape" d="M151.61,39.2l52.4,23.13-2.78,1.15-49.62-20.29-50.64,21.11-20.16,48.99-4.77,1.97,22.14-53.78,53.44-22.28Z" fill="#ffab50" fill-rule="evenodd"/>
        <polygon id="Path-2-4" data-name="Path-2" points="220.98 119.06 202.76 161.91 205.21 166.08 227.19 117.58 220.98 119.06" fill="#fbc245" fill-rule="evenodd" stroke="#fff" stroke-width="1.48"/>
        <path id="Polygon-Copy-8-4" data-name="Polygon-Copy-8" d="M228.83,110.11c2.65,1.54,4.29,4.38,4.29,7.45v.05c0,3.07-1.63,5.91-4.29,7.45-2.65,1.54-5.92,1.54-8.57,0-2.65-1.54-4.29-4.38-4.29-7.45v-.05c0-3.07,1.63-5.91,4.29-7.45,2.65-1.54,5.92-1.54,8.57,0Z" fill="#ffddb9" fill-rule="evenodd" stroke="#fff" stroke-width="3.07"/>
        <path id="Polygon-Copy-4" data-name="Polygon-Copy" d="M154.91,177.2c2.65,1.54,4.29,4.38,4.29,7.45v.05c0,3.07-1.63,5.91-4.29,7.45-2.65,1.54-5.92,1.54-8.57,0-2.65-1.54-4.29-4.38-4.29-7.45v-.05c0-3.07,1.63-5.91,4.29-7.45,2.65-1.54,5.92-1.54,8.57,0Z" fill="#ffddb9" fill-rule="evenodd" stroke="#fff" stroke-width="3.07"/>
        <path id="Combined-Shape-12" data-name="Combined-Shape" d="M155.57,35.72c2.65,1.54,4.29,4.38,4.29,7.45v.05c0,3.07-1.63,5.91-4.29,7.45-1.27.74-2.67,1.12-4.09,1.15l-7.85,22.2c1.25.33,2.46.83,3.61,1.5l.69.4c1.05.61,1.98,1.37,2.77,2.23l43.49-13.22v-.2c.13-2.93,1.74-5.6,4.28-7.08,2.65-1.54,5.92-1.54,8.57,0,2.65,1.54,4.29,4.38,4.29,7.45v.05c0,3.07-1.63,5.91-4.29,7.45-2.65,1.54-5.92,1.54-8.57,0-1.11-.65-2.05-1.52-2.76-2.55l-42.22,13.65c.28,1.42.3,2.9.03,4.38l-.56,3.03c-.27,1.49-.8,2.89-1.53,4.16l19.11,24.94c2.42-.97,5.17-.79,7.46.54,2.65,1.54,4.29,4.38,4.29,7.45v.05c0,1.87-.61,3.65-1.68,5.11l18.51,24.16c1.8-.21,3.66.15,5.28,1.1,2.65,1.54,4.29,4.38,4.29,7.45v.05c0,3.07-1.63,5.91-4.29,7.45-2.65,1.54-5.92,1.54-8.57,0-2.65-1.54-4.29-4.38-4.29-7.45v-.05c0-2.06.73-4.01,2.01-5.54l-17.97-23.88c-2.07.46-4.27.15-6.16-.95-2.65-1.54-4.29-4.38-4.29-7.45v-.05c0-1.45.36-2.84,1.03-4.08l-18.56-24.68c-.96.67-2.02,1.22-3.16,1.62-.6.21-1.2.38-1.81.5l-32.56,57.65c1.12,1.47,1.75,3.3,1.75,5.21v.05c0,3.07-1.63,5.91-4.29,7.45-2.65,1.54-5.92,1.54-8.57,0-2.65-1.54-4.29-4.38-4.29-7.45v-.05c0-3.07,1.63-5.91,4.29-7.45,1.69-.98,3.64-1.34,5.51-1.07l30.63-54.92c-1.34-.5-2.61-1.2-3.75-2.11l-.6-.48c-1.19-.95-2.2-2.07-3-3.31l-36.56,21c0,.05,0,.1,0,.15v.05c0,3.07-1.63,5.91-4.29,7.45-2.65,1.54-5.92,1.54-8.57,0-2.65-1.54-4.29-4.38-4.29-7.45v-.05c0-3.07,1.63-5.91,4.29-7.45,2.65-1.54,5.92-1.54,8.57,0,.75.43,1.41.97,1.98,1.58l36.82-20.93c-.16-1.31-.14-2.66.1-4l.11-.66c.2-1.13.53-2.22.99-3.24l-19.76-9.73c-.35.28-.72.54-1.11.77-2.65,1.54-5.92,1.54-8.57,0-2.65-1.54-4.29-4.38-4.29-7.45v-.05c0-3.07,1.63-5.91,4.29-7.45,2.65-1.54,5.92-1.54,8.57,0,2.65,1.54,4.29,4.38,4.29,7.45v.05c0,.83-.12,1.65-.35,2.42l21.09,8.78c.89-.67,1.87-1.24,2.92-1.68.87-.36,1.77-.64,2.67-.83l8.43-24.64c-1.53-1.58-2.41-3.72-2.41-5.98v-.05c0-3.07,1.63-5.91,4.29-7.45,2.65-1.54,5.92-1.54,8.57,0Z" fill="#ffab50" fill-rule="evenodd" stroke="#fff" stroke-width="3.07"/>
      </g>
    </g>
    <g id="humaaan-9">
      <g id="Mask-5" data-name="Mask">
        <g id="path-1-link">
          <ellipse id="path-1" cx="152.13" cy="115.02" rx="41.23" ry="40.66"/>
        </g>
        <g id="Oval-5" data-name="Oval">
          <ellipse id="path-10-2" data-name="path-10" cx="152.13" cy="115.02" rx="42.95" ry="42.38" fill="#fff"/>
          <ellipse id="path-10-3" data-name="path-10" cx="152.13" cy="115.02" rx="42.95" ry="42.38" fill="none"/>
        </g>
      </g>
      <g id="Clipped-3" data-name="Clipped">
        <ellipse cx="152.13" cy="115.02" rx="45.45" ry="44.88" fill="none" stroke="#ffab50" stroke-width="8.43"/>
        <g mask="url(#mask-3-2)">
          <g id="Group-8" data-name="Group">
            <g>
              <g id="Head_Front_Hijab-1" data-name="Head/Front/Hijab-1">
                <g id="Head-4" data-name="Head">
                  <path id="Path-4" data-name="Path" d="M172,93.45c1.87,7.98-3.32,25.57-8.49,25.52-2.06-.02-5.84-2.34-9.35-5.98l-2.36,19.28-15.49-4.15,12-23.46c-2.04-4.29-2.9-9.11-1.28-13.82,4.67-13.57,23.09-5.37,24.96,2.61Z" fill="#b28b67"/>
                </g>
                <g id="Hijab">
                  <path id="Front" d="M169.74,87.91c-.3-.31-.92-.95-1.25-1.22-.08-.06-.58-.67-.6-.67-.51.03-2.04.26-2.29.73-.03.03-.06.07-.08.09-.29.3-.56.61-.83.93-.59.7-1.13,1.46-1.66,2.2-1.03,1.46-1.99,2.98-2.92,4.51-.94,1.56-1.81,3.16-2.73,4.74-1.32,2.27-2.81,4.42-4.12,6.69-.84,1.45-1.5,2.96-1.82,4.6,0,.02,0,.04-.01.06,0,0,0,.02,0,.02-.05.25-.09.51-.12.76-.03.22-.05.44-.07.66.92-1.04,1.74-2.24,2.56-3.37.08-.11.16-.22.24-.33.23-.21.45-.42.68-.63,1.45-1.32,2.9-2.63,4.32-3.98,2.54-2.44,5.09-4.94,7.9-7.06.83-.62,1.67-1.23,2.49-1.86.47-.36.93-.73,1.38-1.11.32-.27,1.65-1.17,1.47-1.97-.09-.41-1.77-3-2.54-3.8Z" fill="#2c2c2c"/>
                  <path id="Turban" d="M168.58,86.78c.31.21.34-.56.07-.9-1.23-1.59-7.04-3.6-12.48-3.91-3.64-.21-8.14.5-11.51,2.06-3.04,1.4-5.64,4.26-7.38,7.23-1.83,3.12-2.91,6.59-3.31,10.17-.09.79-.04,1.58-.1,2.35-.07.88-.21,1.7-.15,2.59.03.54.19,1.11.19,1.64,0,.61-.23,1.12-.51,1.67-.45.89-.94,1.78-1.52,2.59-.87,1.22-1.83,2.33-2.6,3.63-1.02,1.74-4.81,7.26-3.68,9.34l30.03,8.05c-.2-2.27-1.82-5.31-1.69-7.64.08-1.37.71-4.25.71-4.36.57-4.85-.15-7.43-.76-8.47-.61-1.03-1.65-1.58-1.52-2.29.54-2.97,2.44-5.44,4.01-7.92,1.87-2.96,3.5-6.07,5.4-9.01.84-1.3,5.15-7.9,6.78-6.82Z" fill="#ffab50"/>
                  <path id="Shade-3" data-name="Shade" d="M138.84,109.32c5.68,3.61,3.91,7.44,10.64,13.59l-.76.22c-6.08-4.66-6.06-11.15-10.48-13.38l.6-.43ZM149.55,89.62c-.99,7.53-1.82,11.76,1.04,21.06l-.57.02c-3.28-8.31-2.58-14.18-.97-21.17l.51.09ZM139.48,92.51c.74,5.69.89,8.98,5.67,14.7l-.54.2c-4.96-4.89-5.6-9.3-5.63-14.8l.5-.09ZM157.16,87.3c-2.1,3.29-2.85,5.15-3.93,10.13l-.56-.15c.2-4.92,2.3-9.03,3.78-10.17l.7.19Z"/>
                </g>
              </g>
              <g id="Bottom_Standing_Sprint" data-name="Bottom/Standing/Sprint">
                <path id="Leg-3" data-name="Leg" d="M116.69,187.25c1.21,16.46,78.84,64.93,79.29,66.29.2.6-7.85,19.71-24.16,57.32l6.79,2.64c25.02-39.83,36.88-61.87,35.6-66.11-1.84-6.08-21.92-26.06-60.23-59.97l-37.28-.18Z" fill="#b28b67"/>
                <path id="Pant-3" data-name="Pant" d="M173.6,302.37l11.08,4.04c23.36-26.39,32.52-48.16,30.85-59.25-1.11-7.4-21.12-27.35-60.03-59.87h-39.61c1.35,38.13,73.31,66.4,74.27,68.02.96,1.62-8.51,17.54-16.56,47.06Z" fill="#2f3676"/>
                <g id="Accessories_Shoe_Flat-Sneaker-5" data-name="Accessories/Shoe/Flat-Sneaker">
                  <path id="shoe-5" data-name="shoe" d="M169.32,309.57c-1.39,1.62-2.25,2.9-2.59,3.83-.41,1.13-.83,2.86-1.24,5.17,1.31.48,13.12,4.78,35.42,12.89,2.03-2.71,2.1-4.55.2-5.51-1.89-.96-3.46-1.78-4.7-2.46l-13.79-13.34c-.27-.26-.69-.25-.95.02,0,0,0,0-.01.01l-1.99,2.18h0c-2.15.19-3.8.07-4.94-.34-.93-.34-2.08-1.18-3.45-2.54h0c-.53-.52-1.37-.51-1.89.01-.02.02-.04.05-.07.07Z" fill="#e4e4e4"/>
                </g>
                <polygon id="Leg-4" data-name="Leg" points="125.62 187.25 91.03 270.35 57.04 340.61 65.06 340.61 152.8 187.25 125.62 187.25" fill="#997659"/>
                <g id="Accessories_Shoe_Flat-Sneaker-6" data-name="Accessories/Shoe/Flat-Sneaker">
                  <path id="shoe-6" data-name="shoe" d="M56.56,337.37c-.75,2-1.12,3.49-1.12,4.48,0,1.21.2,2.97.6,5.28h37.7c.98-3.24.41-4.99-1.7-5.25-2.11-.26-3.86-.49-5.26-.7l-17.52-7.82c-.34-.15-.73,0-.88.34,0,0,0,.01,0,.02l-1.13,2.73h0c-1.95.91-3.54,1.37-4.76,1.37-.99,0-2.36-.4-4.11-1.2h0c-.67-.31-1.47-.01-1.77.66-.01.03-.03.06-.04.09Z" fill="#e4e4e4"/>
                </g>
                <path id="Pant-4" data-name="Pant" d="M60.11,326.02l17.82,3.34c13.78-20.28,71.44-103.41,77.76-142.11h-39.67c-21.11,27.98-42.78,118.16-55.91,138.77Z" fill="#5c63ab"/>
              </g>
              <g id="Body_Jacket-2" data-name="Body/Jacket">
                <path id="Skin-5" data-name="Skin" d="M99.75,172.31l13.74,2.48c-13.33,25.94-20.48,39.7-21.46,41.26-2.19,3.51.02,9.83.85,13.17-4.84,1.22-3.05-6.14-9.18-4.5-5.59,1.5-10.29,5.16-15.61.42-.65-.58-1.16-2.43,1.02-3.42,5.43-2.47,13.43-7.06,14.71-8.81,1.75-2.38,7.05-15.92,15.92-40.59h0ZM182.96,184.34l15.43,21.49c5.02,3.27,9.01,6.61,11.98,10.02.61,1.08,1.14,3.03-2.38,1.58-3.52-1.45-7.3-2.82-8.2-1.75s.81,3.26-.74,4.6c-1.03.89-3.3-2.92-6.81-11.45l-17.37-14.86,8.08-9.63Z" fill="#b28b67"/>
                <path id="Coat-Back-3" data-name="Coat-Back" d="M149.03,121.43l5.86.03c5.48,26.23,18.66,51.51,39.55,75.84l-22.41,19.18c-19.39-32.82-29.25-64.89-23-95.05Z" fill="#ffab50"/>
                <path id="Shirt-3" data-name="Shirt" d="M111.59,188.65l50.68,8.94c-6.7-30.65-8.29-55.96-4.77-75.93l-14.89-4.98c-15.43,17.22-23.02,40.44-31.02,71.97Z" fill="#ffab50"/>
                <path id="Coat-Front-3" data-name="Coat-Front" d="M143.3,116.8c1.19.25,2.99.65,5.42,1.18h0l1.83,11.22c-1.88,12.95-4.18,39.32-6.89,79.1h0l-33.22-5.86c-.39,2.71-.72,5.46-1.01,8.24h0l-24.7-4.36c11.05-41.07,30.24-70.98,57.56-89.71h0s0,0,0,0l1,.18Z" fill="#ffab50"/>
                <path id="Shade-4" data-name="Shade" d="M119.68,204.34l-9.29-1.64c1.73-12.16,4.5-23.62,8.31-34.37-2.02,16.97-1.69,28.98.97,36.01Z"/>
                <polygon id="Light-2" data-name="Light" points="121.38 183.59 139.11 178.85 137.76 186.47 121.38 183.59" fill="rgba(255, 255, 255, .2)"/>
              </g>
            </g>
          </g>
        </g>
      </g>
    </g>
  </g>
  <g id="Group-16">
    <g id="Pod-base-Copy">
      <g id="Polygon-5" data-name="Polygon">
        <path d="M215.84,258.37l53.17,92.1c2.38,4.11,2.38,9.18,0,13.3l-53.17,92.1c-2.38,4.11-6.77,6.65-11.52,6.65h-106.35c-4.75,0-9.14-2.53-11.52-6.65l-53.17-92.1c-2.38-4.11-2.38-9.18,0-13.3l53.17-92.1c2.38-4.11,6.77-6.65,11.52-6.65h106.35c4.75,0,9.14,2.53,11.52,6.65Z" fill="#fff" fill-rule="evenodd"/>
        <path d="M204.33,465.36h-106.35c-5.75,0-11.1-3.09-13.98-8.07l-53.17-92.1c-2.87-4.98-2.87-11.16,0-16.14l53.17-92.1c2.87-4.98,8.23-8.07,13.98-8.07h106.35c5.75,0,11.1,3.09,13.98,8.07l53.17,92.1c2.87,4.98,2.87,11.16,0,16.14l-53.17,92.1c-2.87,4.98-8.23,8.07-13.98,8.07ZM97.98,254.56c-3.73,0-7.2,2-9.06,5.23l-53.17,92.1c-1.86,3.23-1.86,7.23,0,10.46l53.17,92.1c1.86,3.23,5.33,5.23,9.06,5.23h106.35c3.72,0,7.2-2,9.06-5.23l53.17-92.1c1.86-3.23,1.86-7.23,0-10.46l-53.17-92.1c-1.86-3.23-5.33-5.23-9.06-5.23h-106.35Z" fill="#9a95a3"/>
      </g>
      <g id="Group-9" data-name="Group">
        <polygon id="Path-25-5" data-name="Path-25" points="152.51 421.44 156.23 422.71 182 372.69 204.74 307.83 200.67 309.17 178.34 370.58 152.51 421.44" fill="#c3bfc8" fill-rule="evenodd" stroke="#fff" stroke-width=".74"/>
        <polygon id="Path-24-17" data-name="Path-24" points="105.19 405.37 173.72 368.06 223.22 357.83 223.22 362.45 173.72 372.03 105.19 410.61 105.19 405.37" fill="#c3bfc8" fill-rule="evenodd" stroke="#fff" stroke-width=".74"/>
        <polygon id="Path-24-18" data-name="Path-24" points="82.63 357.2 173.72 368.06 223.22 357.83 223.22 362.45 173.72 372.03 82.63 360.96 82.63 357.2" fill="#c3bfc8" fill-rule="evenodd" stroke="#fff" stroke-width=".74"/>
        <polygon id="Path-24-19" data-name="Path-24" points="145.19 334.96 152.96 425.88 149.71 429.85 141.94 334.96 145.19 334.96" fill="#c3bfc8" fill-rule="evenodd" stroke="#fff" stroke-width=".74"/>
        <polygon id="Path-24-20" data-name="Path-24" points="85.89 360.17 195.96 405.13 194.19 409.09 85.6 364.62 85.89 360.17" fill="#c3bfc8" fill-rule="evenodd" stroke="#fff" stroke-width=".74"/>
        <path id="Combined-Shape-13" data-name="Combined-Shape" d="M151.61,281.26l53.44,22.28,22.14,53.78-22.14,53.78-53.44,22.28-53.44-22.28-22.14-53.78,22.14-53.78,53.44-22.28ZM151.61,285.24l-50.64,21.11-20.98,50.96,20.98,50.96,50.64,21.11,50.64-21.11,20.98-50.96-20.98-50.96-50.64-21.11Z" fill="#362b48" fill-rule="evenodd" isolation="isolate" opacity=".32"/>
        <path id="Combined-Shape-14" data-name="Combined-Shape" d="M151.61,281.26l52.4,23.13-2.78,1.15-49.62-20.29-50.64,21.11-20.16,48.99-4.77,1.97,22.14-53.78,53.44-22.28Z" fill="#868091" fill-rule="evenodd"/>
        <polygon id="Path-2-5" data-name="Path-2" points="220.98 361.12 202.76 403.97 205.21 408.13 227.19 359.64 220.98 361.12" fill="#c3bfc8" fill-rule="evenodd" stroke="#fff" stroke-width="1.48"/>
        <path id="Polygon-Copy-8-5" data-name="Polygon-Copy-8" d="M228.83,352.17c2.65,1.54,4.29,4.38,4.29,7.45v.05c0,3.07-1.63,5.91-4.29,7.45-2.65,1.54-5.92,1.54-8.57,0-2.65-1.54-4.29-4.38-4.29-7.45v-.05c0-3.07,1.63-5.91,4.29-7.45,2.65-1.54,5.92-1.54,8.57,0Z" fill="#c3bfc8" fill-rule="evenodd" stroke="#fff" stroke-width="3.07"/>
        <path id="Polygon-Copy-5" data-name="Polygon-Copy" d="M154.91,419.26c2.65,1.54,4.29,4.38,4.29,7.45v.05c0,3.07-1.63,5.91-4.29,7.45-2.65,1.54-5.92,1.54-8.57,0-2.65-1.54-4.29-4.38-4.29-7.45v-.05c0-3.07,1.63-5.91,4.29-7.45,2.65-1.54,5.92-1.54,8.57,0Z" fill="#c3bfc8" fill-rule="evenodd" stroke="#fff" stroke-width="3.07"/>
        <path id="Combined-Shape-15" data-name="Combined-Shape" d="M155.57,277.77c2.65,1.54,4.29,4.38,4.29,7.45v.05c0,3.07-1.63,5.91-4.29,7.45-1.27.74-2.67,1.12-4.09,1.15l-7.85,22.2c1.25.33,2.46.83,3.61,1.5l.69.4c1.05.61,1.98,1.37,2.77,2.23l43.49-13.22v-.2c.13-2.93,1.74-5.6,4.28-7.08,2.65-1.54,5.92-1.54,8.57,0,2.65,1.54,4.29,4.38,4.29,7.45v.05c0,3.07-1.63,5.91-4.29,7.45-2.65,1.54-5.92,1.54-8.57,0-1.11-.65-2.05-1.52-2.76-2.55l-42.22,13.65c.28,1.42.3,2.9.03,4.38l-.56,3.03c-.27,1.49-.8,2.89-1.53,4.16l19.11,24.94c2.42-.97,5.17-.79,7.46.54,2.65,1.54,4.29,4.38,4.29,7.45v.05c0,1.87-.61,3.65-1.68,5.11l18.51,24.16c1.8-.21,3.66.15,5.28,1.1,2.65,1.54,4.29,4.38,4.29,7.45v.05c0,3.07-1.63,5.91-4.29,7.45-2.65,1.54-5.92,1.54-8.57,0-2.65-1.54-4.29-4.38-4.29-7.45v-.05c0-2.06.73-4.01,2.01-5.54l-17.97-23.88c-2.07.46-4.27.15-6.16-.95-2.65-1.54-4.29-4.38-4.29-7.45v-.05c0-1.45.36-2.84,1.03-4.08l-18.56-24.68c-.96.67-2.02,1.22-3.16,1.62-.6.21-1.2.38-1.81.5l-32.56,57.65c1.12,1.47,1.75,3.3,1.75,5.21v.05c0,3.07-1.63,5.91-4.29,7.45-2.65,1.54-5.92,1.54-8.57,0-2.65-1.54-4.29-4.38-4.29-7.45v-.05c0-3.07,1.63-5.91,4.29-7.45,1.69-.98,3.64-1.34,5.51-1.07l30.63-54.92c-1.34-.5-2.61-1.2-3.75-2.11l-.6-.48c-1.19-.95-2.2-2.07-3-3.31l-36.56,21c0,.05,0,.1,0,.15v.05c0,3.07-1.63,5.91-4.29,7.45-2.65,1.54-5.92,1.54-8.57,0-2.65-1.54-4.29-4.38-4.29-7.45v-.05c0-3.07,1.63-5.91,4.29-7.45,2.65-1.54,5.92-1.54,8.57,0,.75.43,1.41.97,1.98,1.58l36.82-20.93c-.16-1.31-.14-2.66.1-4l.11-.66c.2-1.13.53-2.22.99-3.24l-19.76-9.73c-.35.28-.72.54-1.11.77-2.65,1.54-5.92,1.54-8.57,0-2.65-1.54-4.29-4.38-4.29-7.45v-.05c0-3.07,1.63-5.91,4.29-7.45,2.65-1.54,5.92-1.54,8.57,0,2.65,1.54,4.29,4.38,4.29,7.45v.05c0,.83-.12,1.65-.35,2.42l21.09,8.78c.89-.67,1.87-1.24,2.92-1.68.87-.36,1.77-.64,2.67-.83l8.43-24.64c-1.53-1.58-2.41-3.72-2.41-5.98v-.05c0-3.07,1.63-5.91,4.29-7.45,2.65-1.54,5.92-1.54,8.57,0Z" fill="#868091" fill-rule="evenodd" stroke="#fff" stroke-width="3.07"/>
      </g>
    </g>
    <g id="A-Human_Standing-2" data-name="A-Human/Standing">
      <g id="Mask-6" data-name="Mask">
        <g id="path-7-link">
          <ellipse id="path-7-3" data-name="path-7" cx="151.3" cy="358.76" rx="41.23" ry="40.09"/>
        </g>
        <g id="Oval-6" data-name="Oval">
          <ellipse cx="151.3" cy="356.38" rx="49.64" ry="48.49" fill="#fff" stroke="#fff" stroke-width="13.36"/>
          <ellipse cx="151.3" cy="356.38" rx="47.17" ry="46.02" fill="none" stroke="#726b7f" stroke-width="8.43"/>
        </g>
      </g>
      <g id="A-Human_Sitting-Clipped-2" data-name="A-Human/Sitting-Clipped">
        <g mask="url(#mask-4)">
          <g id="A-Human_Sitting-2" data-name="A-Human/Sitting">
            <g id="Group-10" data-name="Group">
              <g id="Head_Front_Short-2" data-name="Head/Front/Short-2">
                <g id="Head-5" data-name="Head">
                  <path id="Path-5" data-name="Path" d="M162.45,342.55c4.6,8.59,4.06,30.37-1.89,31.9-2.37.61-7.43-.89-12.57-3.99l3.23,22.86h-19.06l6.56-30.61c-3.66-4.3-6.14-9.57-5.72-15.47,1.19-17.01,24.85-13.27,29.45-4.68Z" fill="#b28b67"/>
                </g>
                <path id="Hair-2" data-name="Hair" d="M137.26,366.54c-2.39-10.65-9.21-17.92-8.17-22.68.69-3.17,2.54-5.15,5.55-5.92,1.55-6.29,6.57-8.97,15.04-8.03,12.71,1.41,20.46,6.69,17.11,18.31-3.08,0-6.79-1.11-11.93.79-1.63.61-2.8,2.48-3.5,5.64h-2.32c-2.25-3.74-4.48-5.11-6.67-4.12-2.19.99-2.69,3.4-1.49,7.22l-1.14,8.78h-2.47Z" fill="#726b7f"/>
              </g>
              <g id="Bottom_Sitting_Baggy-Pants" data-name="Bottom/Sitting/Baggy-Pants">
                <path id="Leg-and-Butt" d="M190.03,511.98c-24.22-3.95-40.44-6.65-48.67-8.1-23.45-4.14-30.28-16.77-26.24-44.32h43.2c5.72,1.65,29.6,11.87,71.66,30.66,7.57,3.76,6.16,14.85,4.77,18.5-.06.15-12.81,22.03-38.27,65.64l-35.34-22.54,28.95-37.18c.76-1.54.74-2.43-.07-2.66Z" fill="#5c63ab"/>
              </g>
              <g id="Body_Hoodie-2" data-name="Body/Hoodie">
                <path id="Skin-6" data-name="Skin" d="M95.88,449.79l16.6.07c-10.25,33.11-15.78,50.68-16.6,52.71-1.84,4.56,2.05,11.5,3.71,15.23-5.42,2.43-4.84-6.56-11.67-3.38-6.24,2.9-10.98,8.17-18.19,3.72-.89-.55-1.86-2.61.49-4.22,5.84-4.01,14.26-11.03,15.4-13.34,1.55-3.15,4.97-20.08,10.25-50.79h0ZM193.14,449.14l25.33,18.62c6.87,1.86,12.61,4.16,17.22,6.93,1.09.99,2.4,3-2.11,2.66-4.52-.35-9.28-.51-9.9,1.03-.62,1.54,2.11,3.39.85,5.47-.84,1.39-4.81-2.09-11.9-10.43l-25.09-10.41,5.6-13.86Z" fill="#915b3c"/>
                <path id="Coat-Back-4" data-name="Coat-Back" d="M143.04,380.08l6.87-1.18c25.48,22.03,35.94,64.36,67.18,86.78l-7.52,9.33c-54.18-6.72-67.61-58.35-66.53-94.93Z" fill="#726b7f"/>
                <path id="Shirt-4" data-name="Shirt" d="M113.1,466.46h60.76c2.78,0,2.25-4.01,1.85-6.04-4.63-23.37-22.71-48.57-22.71-81.84l-17.53-2.75c-14.5,23.34-19.51,52.07-22.37,90.63Z" fill="#726b7f"/>
                <path id="Coat-Front-4" data-name="Coat-Front" d="M134.16,375.84c.59,0,1.13.04,1.62.11l5.49.31c15.74,53.41,20.08,89.04,13.02,106.9h-47.82c-2.83,6.61-5.54,12.18-8.13,16.69h-13.03c-1.23-39.7,8.2-73.39,28.28-101.08-2.55-.73-4.56-2.44-6.05-5.12-6.41-11.57-4.09-17.94,2.75-20.04,6.85-2.09,12.95,2.22,23.86,2.22Z" fill="#726b7f"/>
                <path id="Shade-5" data-name="Shade" d="M124.22,483.16h-17.75c3.31-7.71,6.78-16.86,10.41-27.43,1.5,12.6,3.95,21.74,7.33,27.43Z"/>
              </g>
            </g>
          </g>
        </g>
      </g>
    </g>
  </g>
</svg>