<?xml version="1.0" encoding="UTF-8"?>
<svg width="1440px" height="425px" viewBox="0 0 1440 425" version="1.1" xmlns="http://www.w3.org/2000/svg" xmlns:xlink="http://www.w3.org/1999/xlink">
    <!-- Generator: Sketch 58 (84663) - https://sketch.com -->
    <title>Group 6</title>
    <desc>Created with Sketch.</desc>
    <g id="Solid-2.0" stroke="none" stroke-width="1" fill="none" fill-rule="evenodd" opacity="0.456542969">
        <g id="Homepage---Light" fill="#FFFFFF">
            <g id="benjamin-davies-361151-unsplash" transform="translate(-22.000000, -1037.000000)">
                <g id="Group-6" style="mix-blend-mode: overlay;" transform="translate(-465.000000, 767.500000)">
                    <path d="M334.729686,73.5801066 L334.729686,121.47473 L293.252409,145.404336 L293.252409,193.582255 L334.977576,217.671215 L376.446,193.732756 L417.648828,217.520714 L417.648828,265.397632 L459.126105,289.336091 L459.126105,336.929713 L417.648828,360.859319 L417.648828,408.736237 L376.446,432.550754 L335.243172,408.736237 L335.243172,360.859319 L293.509152,336.779213 L252.049581,360.717672 L210.829047,336.929713 L210.829047,289.052796 L169.112733,264.963836 L127.644309,288.902295 L86.1847379,264.963836 L44.468424,289.052796 L44.468424,336.929713 L3,360.859319 L3,409.046091 L44.7251671,433.126198 L86.4414809,409.046091 L86.4414809,361.160321 L127.644309,337.363509 L168.864843,361.160321 L168.864843,409.046091 L210.581157,433.126198 L252.049581,409.196592 L293.261262,432.98455 L293.261262,480.861468 L334.729686,504.80878 L334.729686,552.685698 L376.446,576.774657 L418.162314,552.685698 L418.162314,504.80878 L459.621884,480.861468 L459.621884,432.98455 L500.842419,409.196592 L542.0541,432.98455 L542.0541,480.861468 L583.522524,504.80878 L583.522524,552.685698 L625.238838,576.774657 L666.955151,552.685698 L666.955151,504.80878 L708.423576,480.861468 L708.423576,432.98455 L749.635257,409.196592 L790.846938,432.98455 L790.846938,480.56932 L749.387367,504.507779 L749.387367,552.685698 L791.094827,576.774657 L832.828848,552.685698 L832.828848,504.80878 L874.031675,481.003116 L915.25221,504.80878 L915.25221,552.685698 L956.711781,576.615304 L956.711781,624.200073 L915.25221,648.147385 L915.25221,696.316451 L915.385008,696.396128 L956.977377,720.405411 L998.684837,696.316451 L998.684837,648.439533 L1040.15326,624.501074 L1040.15326,576.615304 L1081.61283,552.685698 L1081.61283,504.80878 L1122.82451,481.003116 L1164.04505,504.80878 L1164.04505,552.685698 L1205.77021,576.774657 L1247.22979,552.827345 L1288.44147,576.615304 L1288.44147,624.200073 L1246.9819,648.147385 L1246.9819,696.024303 L1205.77021,719.812261 L1164.30179,695.882655 L1122.57662,719.962762 L1122.57662,767.839679 L1081.11705,791.786991 L1081.11705,839.947204 L1081.241,840.035734 L1122.82451,864.045017 L1164.54968,839.947204 L1164.54968,792.070287 L1205.77021,768.282328 L1247.22979,792.220787 L1288.95495,768.140681 L1288.95495,720.263763 L1330.15778,696.458099 L1371.38717,720.263763 L1371.38717,768.140681 L1371.50226,768.211505 L1412.83789,792.070287 L1412.83789,839.947204 L1412.97068,840.035734 L1454.5542,864.045017 L1496.27937,839.947204 L1496.27937,792.070287 L1537.75664,768.140681 L1537.75664,720.263763 L1578.95062,696.458099 L1620.17115,720.263763 L1620.17115,767.839679 L1578.71158,791.786991 L1578.71158,839.947204 L1578.82667,840.035734 L1620.41904,864.045017 L1662.13536,839.947204 L1662.13536,792.070287 L1703.34704,768.282328 L1744.56757,792.070287 L1744.56757,839.947204 L1744.69152,840.035734 L1786.036,863.903369 L1786.036,911.488139 L1744.56757,935.426598 L1744.56757,983.604517 L1744.69152,983.675341 L1786.28389,1007.67577 L1828.00905,983.604517 L1828.00905,935.718746 L1869.47748,911.771434 L1869.47748,863.903369 L1910.93705,839.947204 L1910.93705,792.070287 L1952.14873,768.282328 L1993.36041,792.070287 L1993.36041,839.947204 L1993.48435,840.035734 L2034.82883,863.903369 L2034.82883,911.488139 L1993.36041,935.426598 L1993.36041,983.604517 L1993.48435,983.675341 L2035.07672,1007.67577 L2076.80189,983.604517 L2076.80189,935.718746 L2118.02242,911.921935 L2159.22525,935.718746 L2159.22525,983.604517 L2159.3492,983.675341 L2200.94157,1007.67577 L2242.40999,983.746164 L2283.63052,1007.52527 L2283.63052,1055.40219 L2283.75447,1055.49072 L2325.34684,1079.5 L2366.80641,1055.56154 L2408.27483,1079.5 L2450,1055.40219 L2450,1007.23312 L2449.85835,1007.17115 L2408.27483,983.153015 L2366.80641,1007.09147 L2325.59473,983.303515 L2325.59473,935.426598 L2325.47078,935.346921 L2283.86956,911.337638 L2242.40999,935.276097 L2201.19831,911.488139 L2201.19831,863.611221 L2201.07436,863.531544 L2159.72988,839.663909 L2159.72988,791.786991 L2159.60594,791.716167 L2118.02242,767.689179 L2076.54515,791.636491 L2035.34232,767.839679 L2035.34232,720.263763 L2076.54515,696.458099 L2118.02242,720.405411 L2159.72988,696.316451 L2159.72988,648.147385 L2118.02242,624.058425 L2076.54515,648.005737 L2035.07672,624.058425 L1993.36041,648.147385 L1993.36041,696.024303 L1952.14873,719.812261 L1910.6803,695.882655 L1868.96399,719.962762 L1868.96399,767.839679 L1827.75231,791.636491 L1786.53177,767.839679 L1786.53177,720.263763 L1828.00905,696.316451 L1828.00905,648.147385 L1786.28389,624.058425 L1744.56757,648.147385 L1744.56757,696.024303 L1703.34704,719.812261 L1662.13536,696.024303 L1662.13536,648.147385 L1620.67579,624.200073 L1620.67579,576.615304 L1662.13536,552.685698 L1662.13536,504.507779 L1620.41904,480.427672 L1578.71158,504.507779 L1578.71158,552.393549 L1537.24316,576.323155 L1537.24316,624.200073 L1495.76588,648.147385 L1495.76588,696.024303 L1454.5542,719.812261 L1413.35137,696.024303 L1413.35137,648.147385 L1371.88295,624.200073 L1371.88295,576.323155 L1330.41452,552.393549 L1330.41452,504.507779 L1288.68936,480.427672 L1247.22979,504.357278 L1206.0181,480.56932 L1206.0181,432.98455 L1247.22979,409.196592 L1288.68936,433.126198 L1330.41452,409.046091 L1330.41452,361.160321 L1371.88295,337.221862 L1371.88295,289.052796 L1330.15778,264.963836 L1288.44147,289.052796 L1288.44147,336.929713 L1247.22979,360.717672 L1205.77021,336.779213 L1164.04505,360.859319 L1164.04505,408.736237 L1122.82451,432.550754 L1081.36494,408.594589 L1039.63978,432.692402 L1039.63978,480.56932 L998.428094,504.357278 L957.225267,480.56932 L957.225267,432.98455 L998.684837,409.046091 L998.684837,360.859319 L956.977377,336.779213 L915.25221,360.859319 L915.25221,408.736237 L874.031675,432.550754 L832.828848,408.736237 L832.828848,360.859319 L791.35157,336.929713 L791.35157,289.336091 L832.828848,265.397632 L832.828848,217.228566 L791.094827,193.139606 L749.387367,217.228566 L749.387367,265.105484 L707.910089,289.052796 L707.910089,336.929713 L666.450519,360.859319 L666.450519,408.736237 L625.238838,432.550754 L584.027157,408.736237 L584.027157,360.859319 L542.567586,336.929713 L542.567586,289.336091 L584.027157,265.397632 L584.027157,217.228566 L542.310843,193.139606 L500.842419,217.078065 L459.621884,193.290107 L459.621884,145.404336 L418.162314,121.47473 L418.162314,73.5801066 L376.446,49.5 L334.729686,73.5801066 Z M335.243172,121.47473 L335.243172,73.8811079 L376.446,50.0931497 L417.648828,73.8811079 L417.648828,121.47473 L397.056267,133.373136 L376.446,145.262689 L335.243172,121.47473 Z M376.702743,193.290107 L376.702743,145.705338 L397.304157,133.815785 L417.905571,121.908526 L459.117252,145.705338 L459.117252,193.290107 L451.034273,197.955628 L417.905571,217.078065 L376.702743,193.290107 Z M293.765895,193.290107 L293.765895,145.705338 L334.977576,121.908526 L371.027837,142.739589 L376.189257,145.705338 L376.189257,193.290107 L334.977576,217.078065 L293.765895,193.290107 Z M770.493413,277.012742 L749.892,265.105484 L749.892,217.520714 L791.094827,193.732756 L832.315362,217.520714 L832.315362,265.105484 L791.094827,288.902295 L770.493413,277.012742 Z M501.099162,265.105484 L501.099162,217.520714 L542.310843,193.732756 L583.522524,217.520714 L583.522524,265.105484 L542.310843,288.902295 L501.099162,265.105484 Z M418.162314,265.105484 L418.162314,217.520714 L459.373995,193.732756 L500.585676,217.520714 L500.585676,265.105484 L495.433109,268.088938 L459.373995,288.902295 L418.162314,265.105484 Z M1309.54751,348.828119 L1288.95495,336.929713 L1288.95495,289.336091 L1330.15778,265.548133 L1371.36946,289.336091 L1371.36946,336.929713 L1330.15778,360.717672 L1309.54751,348.828119 Z M741.145031,355.821973 L708.423576,336.929713 L708.423576,289.336091 L749.635257,265.548133 L770.23667,277.455391 L790.846938,289.336091 L790.846938,336.929713 L770.23667,348.828119 L749.635257,360.717672 L741.145031,355.821973 Z M459.630738,336.929713 L459.630738,289.336091 L500.842419,265.548133 L504.534206,267.681701 L542.0541,289.336091 L542.0541,336.929713 L521.443833,348.828119 L500.842419,360.717672 L459.630738,336.929713 Z M127.901052,336.929713 L127.901052,289.336091 L169.112733,265.548133 L210.324414,289.336091 L210.324414,336.929713 L189.714147,348.828119 L169.112733,360.717672 L127.901052,336.929713 Z M65.5744708,348.828119 L44.9730569,336.929713 L44.9730569,289.336091 L86.1847379,265.548133 L127.396419,289.336091 L127.396419,336.929713 L86.1847379,360.717672 L65.5744708,348.828119 Z M1247.48653,408.736237 L1247.48653,361.160321 L1288.68936,337.363509 L1309.29962,349.270768 L1329.91874,361.160321 L1329.91874,408.736237 L1288.68936,432.550754 L1247.48653,408.736237 Z M1185.15995,420.652349 L1164.54968,408.736237 L1164.54968,361.160321 L1205.77021,337.363509 L1246.9819,361.160321 L1246.9819,408.736237 L1205.77021,432.550754 L1185.15995,420.652349 Z M921.555693,412.091517 L915.756843,408.736237 L915.756843,361.160321 L956.977377,337.363509 L998.171351,361.160321 L998.171351,408.736237 L956.977377,432.550754 L921.555693,412.091517 Z M749.892,408.736237 L749.892,361.160321 L770.493413,349.270768 L791.094827,337.363509 L832.315362,361.160321 L832.315362,408.736237 L824.073025,413.507993 L791.094827,432.550754 L749.892,408.736237 Z M687.574272,420.652349 L666.955151,408.736237 L666.955151,361.160321 L708.166832,337.363509 L749.387367,361.160321 L749.387367,408.736237 L708.166832,432.550754 L687.574272,420.652349 Z M501.099162,408.736237 L501.099162,361.160321 L521.691722,349.270768 L542.310843,337.363509 L583.522524,361.160321 L583.522524,408.736237 L562.92111,420.652349 L542.310843,432.550754 L501.099162,408.736237 Z M438.772581,420.652349 L418.162314,408.736237 L418.162314,361.160321 L459.373995,337.363509 L495.318017,358.123748 L500.585676,361.160321 L500.585676,408.736237 L459.373995,432.550754 L438.772581,420.652349 Z M252.297471,408.736237 L252.297471,361.160321 L293.509152,337.363509 L334.729686,361.160321 L334.729686,408.736237 L320.104187,417.190833 L293.509152,432.550754 L252.297471,408.736237 Z M169.360623,408.736237 L169.360623,361.160321 L189.97089,349.270768 L210.581157,337.363509 L251.792838,361.160321 L251.792838,408.736237 L210.581157,432.550754 L169.360623,408.736237 Z M3.50463283,408.736237 L3.50463283,361.160321 L44.7251671,337.363509 L65.3177278,349.270768 L85.9279949,361.160321 L85.9279949,408.736237 L44.7251671,432.550754 L3.50463283,408.736237 Z M1123.08126,480.56932 L1123.08126,432.98455 L1164.30179,409.196592 L1184.89435,421.086145 L1205.51347,432.98455 L1205.51347,480.56932 L1184.89435,492.467725 L1164.30179,504.357278 L1123.08126,480.56932 Z M1060.76353,492.467725 L1040.15326,480.56932 L1040.15326,432.98455 L1081.36494,409.196592 L1122.57662,432.98455 L1122.57662,480.56932 L1081.36494,504.357278 L1060.76353,492.467725 Z M874.288418,480.56932 L874.288418,432.98455 L915.508953,409.196592 L956.711781,432.98455 L956.711781,480.56932 L936.101513,492.467725 L915.508953,504.357278 L874.288418,480.56932 Z M791.35157,480.56932 L791.35157,432.98455 L832.572105,409.196592 L873.792639,432.98455 L873.792639,480.56932 L832.572105,504.357278 L791.35157,480.56932 Z M633.729064,485.32337 L625.504434,480.56932 L625.504434,432.98455 L666.707262,409.196592 L687.317529,421.086145 L707.910089,432.98455 L707.910089,480.56932 L666.707262,504.357278 L633.729064,485.32337 Z M542.567586,480.56932 L542.567586,432.98455 L563.177853,421.086145 L583.770414,409.196592 L624.990948,432.98455 L624.990948,480.56932 L604.389534,492.467725 L583.770414,504.357278 L542.567586,480.56932 Z M397.31301,492.467725 L376.702743,480.56932 L376.702743,432.98455 L417.905571,409.196592 L438.515838,421.086145 L459.117252,432.98455 L459.117252,480.56932 L417.905571,504.357278 L397.31301,492.467725 Z M293.774748,480.56932 L293.774748,432.98455 L300.193323,429.266299 L334.977576,409.196592 L376.189257,432.98455 L376.189257,480.56932 L372.497469,482.702888 L334.977576,504.357278 L293.774748,480.56932 Z M1584.36878,555.359298 L1579.20736,552.393549 L1579.20736,504.80878 L1620.41904,481.003116 L1661.63958,504.80878 L1661.63958,552.393549 L1620.41904,576.181508 L1584.36878,555.359298 Z M1247.48653,552.393549 L1247.48653,504.80878 L1288.68936,481.003116 L1329.91874,504.80878 L1329.91874,552.393549 L1321.58788,557.191865 L1288.68936,576.181508 L1247.48653,552.393549 Z M1164.54968,552.393549 L1164.54968,504.80878 L1185.15995,492.910374 L1205.77021,481.003116 L1246.9819,504.80878 L1246.9819,552.393549 L1205.77021,576.181508 L1164.54968,552.393549 Z M1019.2951,564.283102 L998.684837,552.393549 L998.684837,504.80878 L1039.89652,481.003116 L1060.50679,492.910374 L1081.11705,504.80878 L1081.11705,552.393549 L1039.89652,576.181508 L1019.2951,564.283102 Z M915.756843,552.393549 L915.756843,504.80878 L936.358256,492.910374 L956.977377,481.003116 L998.171351,504.80878 L998.171351,552.393549 L989.849336,557.191865 L956.977377,576.181508 L915.756843,552.393549 Z M749.892,552.393549 L749.892,504.80878 L791.094827,481.003116 L824.073025,500.054729 L832.315362,504.80878 L832.315362,552.393549 L791.094827,576.181508 L749.892,552.393549 Z M584.027157,552.393549 L584.027157,504.80878 L604.637424,492.910374 L625.238838,481.003116 L666.450519,504.80878 L666.450519,552.393549 L625.238838,576.181508 L584.027157,552.393549 Z M335.243172,552.393549 L335.243172,504.80878 L376.446,481.003116 L397.056267,492.910374 L417.648828,504.80878 L417.648828,552.393549 L376.446,576.181508 L335.243172,552.393549 Z M1573.8069,645.01343 L1537.74779,624.200073 L1537.74779,576.615304 L1578.95062,552.827345 L1620.17115,576.615304 L1620.17115,624.200073 L1599.56089,636.107332 L1578.95062,648.005737 L1573.8069,645.01343 Z M1288.95495,624.200073 L1288.95495,576.615304 L1330.15778,552.827345 L1371.38717,576.615304 L1371.38717,624.200073 L1350.76805,636.107332 L1330.15778,648.005737 L1288.95495,624.200073 Z M961.519072,626.678908 L957.225267,624.200073 L957.225267,576.615304 L998.428094,552.827345 L1019.04721,564.725751 L1039.63978,576.615304 L1039.63978,624.200073 L998.428094,648.005737 L961.519072,626.678908 Z M2076.80189,696.024303 L2076.80189,648.439533 L2118.02242,624.651575 L2159.22525,648.439533 L2159.22525,696.024303 L2118.02242,719.812261 L2076.80189,696.024303 Z M1993.85619,696.024303 L1993.85619,648.439533 L2035.07672,624.651575 L2076.29726,648.439533 L2076.29726,696.024303 L2035.07672,719.812261 L1993.85619,696.024303 Z M1745.08106,696.024303 L1745.08106,648.439533 L1786.28389,624.651575 L1827.49557,648.439533 L1827.49557,696.024303 L1786.28389,719.812261 L1745.08106,696.024303 Z M1579.20736,696.024303 L1579.20736,648.439533 L1599.82648,636.532275 L1620.41904,624.651575 L1661.63958,648.439533 L1661.63958,696.024303 L1620.41904,719.812261 L1579.20736,696.024303 Z M1496.27937,696.024303 L1496.27937,648.439533 L1537.4999,624.651575 L1578.71158,648.439533 L1578.71158,696.024303 L1537.4999,719.812261 L1496.27937,696.024303 Z M1330.41452,696.024303 L1330.41452,648.439533 L1351.03364,636.532275 L1371.6262,624.651575 L1412.83789,648.439533 L1412.83789,696.024303 L1392.23647,707.913855 L1371.6262,719.812261 L1330.41452,696.024303 Z M1247.48653,696.024303 L1247.48653,648.439533 L1288.68936,624.651575 L1321.58788,643.632365 L1329.91874,648.439533 L1329.91874,696.024303 L1288.68936,719.812261 L1247.48653,696.024303 Z M915.765696,696.024303 L915.765696,648.439533 L956.977377,624.651575 L998.171351,648.439533 L998.171351,696.024303 L956.977377,719.812261 L915.765696,696.024303 Z M1952.40547,767.839679 L1952.40547,720.263763 L1993.6083,696.458099 L2034.82883,720.263763 L2034.82883,767.839679 L2014.22742,779.729232 L1993.6083,791.636491 L1952.40547,767.839679 Z M1869.47748,767.839679 L1869.47748,720.263763 L1910.6803,696.458099 L1951.89199,720.263763 L1951.89199,767.839679 L1910.6803,791.636491 L1869.47748,767.839679 Z M1703.60378,767.839679 L1703.60378,720.263763 L1744.82431,696.458099 L1786.036,720.263763 L1786.036,767.839679 L1765.41688,779.729232 L1744.82431,791.636491 L1703.60378,767.839679 Z M1620.67579,767.839679 L1620.67579,720.263763 L1654.8049,700.565882 L1661.88747,696.458099 L1703.09915,720.263763 L1703.09915,767.839679 L1661.88747,791.636491 L1620.67579,767.839679 Z M1454.81094,767.839679 L1454.81094,720.263763 L1496.01377,696.458099 L1537.24316,720.263763 L1537.24316,767.839679 L1496.01377,791.636491 L1454.81094,767.839679 Z M1371.88295,767.839679 L1371.88295,720.263763 L1392.49321,708.37421 L1413.08578,696.458099 L1454.30631,720.263763 L1454.30631,767.839679 L1413.08578,791.636491 L1371.88295,767.839679 Z M1206.02696,767.839679 L1206.02696,720.263763 L1247.22979,696.458099 L1288.44147,720.263763 L1288.44147,767.839679 L1247.22979,791.636491 L1206.02696,767.839679 Z M1123.08126,767.839679 L1123.08126,720.263763 L1164.30179,696.458099 L1205.51347,720.263763 L1205.51347,767.839679 L1164.30179,791.636491 L1123.08126,767.839679 Z M2076.80189,839.663909 L2076.80189,792.070287 L2118.02242,768.282328 L2159.22525,792.070287 L2159.22525,839.663909 L2138.61498,851.571168 L2118.02242,863.46072 L2076.80189,839.663909 Z M1993.85619,839.663909 L1993.85619,792.070287 L2014.47531,780.189587 L2035.07672,768.282328 L2076.29726,792.070287 L2076.29726,839.663909 L2035.07672,863.46072 L1993.85619,839.663909 Z M1828.00905,839.663909 L1828.00905,792.070287 L1869.22073,768.282328 L1910.42356,792.070287 L1910.42356,839.663909 L1869.22073,863.46072 L1828.00905,839.663909 Z M1745.08106,839.663909 L1745.08106,792.070287 L1765.68247,780.189587 L1786.27503,768.282328 L1827.49557,792.070287 L1827.49557,839.663909 L1786.27503,863.46072 L1745.08106,839.663909 Z M1579.20736,839.663909 L1579.20736,792.070287 L1620.41904,768.282328 L1661.63958,792.070287 L1661.63958,839.663909 L1620.41904,863.46072 L1579.20736,839.663909 Z M1413.35137,839.663909 L1413.35137,792.070287 L1446.87847,772.717672 L1454.5542,768.282328 L1495.76588,792.070287 L1495.76588,839.663909 L1454.5542,863.46072 L1413.35137,839.663909 Z M1081.62169,839.663909 L1081.62169,792.070287 L1122.82451,768.282328 L1164.04505,792.070287 L1164.04505,839.663909 L1122.82451,863.46072 L1081.62169,839.663909 Z M2118.27031,911.488139 L2118.27031,863.903369 L2138.88058,852.004964 L2159.47314,840.106558 L2200.69368,863.903369 L2200.69368,911.488139 L2180.09226,923.377691 L2159.47314,935.276097 L2118.27031,911.488139 Z M2035.34232,911.488139 L2035.34232,863.903369 L2065.86818,846.250526 L2076.54515,840.106558 L2117.76568,863.903369 L2117.76568,911.488139 L2076.54515,935.276097 L2035.34232,911.488139 Z M1799.88241,919.190232 L1786.54948,911.488139 L1786.54948,863.903369 L1822.28988,843.267072 L1827.75231,840.106558 L1868.96399,863.903369 L1868.96399,911.488139 L1827.75231,935.276097 L1799.88241,919.190232 Z M2242.66673,983.303515 L2242.66673,935.718746 L2283.86956,911.921935 L2325.0901,935.718746 L2325.0901,983.303515 L2297.45923,999.247733 L2283.86956,1007.10033 L2242.66673,983.303515 Z M2159.72988,983.303515 L2159.72988,935.718746 L2180.34901,923.838046 L2200.94157,911.921935 L2242.1621,935.718746 L2242.1621,983.303515 L2200.94157,1007.10033 L2159.72988,983.303515 Z M1993.85619,983.303515 L1993.85619,935.718746 L2035.07672,911.921935 L2076.29726,935.718746 L2076.29726,983.303515 L2035.07672,1007.10033 L1993.85619,983.303515 Z M1745.08106,983.303515 L1745.08106,935.718746 L1786.28389,911.921935 L1793.89764,916.321866 L1827.49557,935.718746 L1827.49557,983.303515 L1786.28389,1007.10033 L1745.08106,983.303515 Z M2367.0543,1055.11889 L2367.0543,1007.52527 L2408.27483,983.746164 L2449.47766,1007.52527 L2449.47766,1055.11889 L2408.27483,1078.9157 L2367.0543,1055.11889 Z M2284.1263,1055.11889 L2284.1263,1007.52527 L2308.92414,993.227706 L2325.34684,983.746164 L2366.55852,1007.52527 L2366.55852,1055.11889 L2325.34684,1078.9157 L2284.1263,1055.11889 Z" id="Fill-1"></path>
                    <path d="M86.1850389,121.43887 L44.7164648,97.5 L3,121.589374 L3,169.759268 L3.12394535,169.830093 L44.7164648,193.848642 L86.1850389,169.909771 L127.388016,193.698138 L127.388016,241.575879 L127.511961,241.655557 L169.104481,265.665253 L210.581908,241.726382 L251.793738,265.523603 L251.793738,313.401343 L251.917683,313.472169 L293.253459,337.340214 L293.253459,385.217955 L293.386257,385.28878 L334.978777,409.307328 L376.447351,385.368458 L417.650328,409.156825 L417.650328,456.760119 L376.447351,480.539633 L334.978777,456.609616 L293.253459,480.681283 L293.253459,528.868883 L334.978777,552.940551 L376.447351,529.019387 L417.907072,552.940551 L459.623537,528.868883 L459.623537,480.991143 L500.84422,457.185069 L542.312794,481.12394 L584.029259,457.034566 L584.029259,409.156825 L625.241089,385.368458 L666.452919,409.156825 L666.452919,456.742413 L624.993198,480.681283 L624.993198,528.868883 L666.70081,552.940551 L708.426128,528.868883 L708.426128,480.991143 L749.637958,457.185069 L790.849788,480.991143 L790.849788,528.86003 L832.318362,552.798901 L832.318362,600.384488 L790.849788,624.323359 L790.849788,672.502106 L832.575106,696.582626 L874.291571,672.502106 L874.291571,624.624365 L915.760145,600.676641 L915.760145,552.798901 L957.219866,528.86003 L957.219866,480.991143 L998.431696,457.185069 L1039.64353,480.991143 L1039.64353,528.86003 L1081.10325,552.798901 L1081.10325,600.676641 L1122.57182,624.624365 L1122.57182,672.502106 L1164.29714,696.582626 L1205.77457,672.643756 L1246.9864,696.440976 L1246.9864,744.026564 L1205.77457,767.823784 L1164.29714,743.884914 L1122.57182,767.974287 L1122.57182,815.852028 L1081.1121,839.790898 L1081.1121,887.969646 L1122.82856,912.050166 L1164.54503,887.969646 L1164.54503,840.083052 L1205.77457,816.294685 L1247.23429,840.233555 L1288.95075,816.144181 L1288.95075,768.266441 L1330.16258,744.478073 L1371.6223,768.408091 L1413.35647,744.318717 L1413.35647,696.440976 L1454.55945,672.643756 L1495.77128,696.440976 L1495.77128,744.026564 L1454.30271,767.974287 L1454.30271,816.144181 L1496.01917,840.233555 L1537.74449,816.144181 L1537.74449,768.266441 L1578.94747,744.478073 L1620.177,768.266441 L1620.177,816.144181 L1661.63672,840.083052 L1661.63672,887.668639 L1620.177,911.60751 L1620.177,959.777404 L1661.88461,983.866778 L1703.60993,959.777404 L1703.60993,911.899663 L1745.07851,887.969646 L1745.07851,840.083052 L1786.53823,816.144181 L1786.53823,768.266441 L1827.75891,744.478073 L1868.96189,768.266441 L1868.96189,816.144181 L1910.43046,840.083052 L1910.43046,887.668639 L1868.96189,911.60751 L1868.96189,959.777404 L1910.68721,983.866778 L1952.15578,959.93676 L1993.36761,983.733981 L1993.36761,1031.60287 L2034.82733,1055.54174 L2034.82733,1103.43719 L2076.53494,1127.5 L2076.5615,1127.5 L2118.27797,1103.43719 L2118.27797,1055.54174 L2159.73769,1031.60287 L2159.73769,983.424121 L2118.01237,959.3436 L2076.5438,983.282471 L2035.34082,959.485251 L2035.34082,911.60751 L1993.86339,887.668639 L1993.86339,840.083052 L2035.34082,816.144181 L2035.34082,768.266441 L2076.5438,744.478073 L2117.76448,768.266441 L2117.76448,816.144181 L2159.48094,840.233555 L2200.94952,816.294685 L2242.1702,840.083052 L2242.1702,887.969646 L2283.87781,912.050166 L2325.35524,888.111296 L2366.80611,912.050166 L2408.54028,887.969646 L2408.54028,840.083052 L2450,816.144181 L2450,767.974287 L2408.28354,743.884914 L2366.56707,767.974287 L2366.56707,815.852028 L2325.35524,839.631542 L2284.13456,815.852028 L2284.13456,767.974287 L2242.41809,743.884914 L2200.94952,767.823784 L2159.73769,744.017711 L2159.73769,696.148823 L2118.27797,672.218806 L2118.27797,624.323359 L2076.5438,600.242838 L2034.82733,624.323359 L2034.82733,672.218806 L1993.36761,696.148823 L1993.36761,744.026564 L1952.15578,767.823784 L1910.94395,744.026564 L1910.94395,696.148823 L1869.47538,672.218806 L1869.47538,624.323359 L1827.75891,600.242838 L1786.03359,624.323359 L1786.03359,672.218806 L1744.57387,696.148823 L1744.57387,744.026564 L1703.35319,767.823784 L1662.14136,744.017711 L1662.14136,696.440976 L1703.60993,672.502106 L1703.60993,624.323359 L1661.88461,600.242838 L1620.177,624.323359 L1620.177,672.218806 L1578.94747,696.007173 L1537.74449,672.218806 L1537.74449,624.323359 L1496.28477,600.393341 L1496.28477,552.798901 L1537.74449,528.86003 L1537.74449,480.681283 L1537.6294,480.610458 L1496.01917,456.600762 L1454.30271,480.681283 L1454.30271,528.567877 L1412.84299,552.5156 L1412.84299,600.393341 L1371.36556,624.323359 L1371.36556,672.218806 L1330.16258,696.007173 L1288.95075,672.218806 L1288.95075,624.323359 L1247.23429,600.242838 L1205.77457,624.181708 L1164.54503,600.384488 L1164.54503,552.798901 L1206.02246,528.86003 L1206.02246,480.991143 L1247.23429,457.185069 L1288.69401,481.12394 L1330.41933,457.034566 L1330.41933,409.156825 L1371.87905,385.217955 L1371.87905,337.04806 L1371.74625,336.968382 L1330.16258,312.958687 L1288.43726,337.04806 L1288.43726,384.925801 L1247.23429,408.723022 L1205.77457,384.775298 L1164.04039,408.864672 L1164.04039,456.742413 L1122.82856,480.539633 L1081.61673,456.742413 L1081.61673,408.864672 L1081.50164,408.793847 L1040.14816,384.925801 L1040.14816,337.04806 L1040.03307,336.968382 L998.431696,312.958687 L956.715231,337.04806 L956.715231,384.925801 L915.246657,408.864672 L915.246657,456.742413 L874.034827,480.539633 L832.822997,456.742413 L832.822997,409.156825 L874.291571,385.217955 L874.291571,337.04806 L874.158772,336.977235 L832.575106,312.958687 L790.849788,337.04806 L790.849788,384.925801 L749.637958,408.723022 L708.426128,384.925801 L708.426128,337.04806 L708.284476,336.977235 L666.957554,313.10919 L666.957554,265.523603 L708.426128,241.575879 L708.426128,193.405985 L708.284476,193.33516 L666.70081,169.316611 L624.984345,193.405985 L624.984345,241.283726 L583.515771,265.222596 L583.515771,313.10919 L542.05605,337.04806 L542.05605,384.925801 L500.84422,408.723022 L459.623537,384.925801 L459.623537,337.04806 L459.499591,336.977235 L418.163816,313.10919 L418.163816,265.523603 L459.623537,241.575879 L459.623537,193.405985 L459.499591,193.33516 L417.907072,169.316611 L376.181754,193.405985 L376.181754,241.283726 L334.978777,265.080946 L293.766947,241.283726 L293.766947,193.405985 L293.634148,193.33516 L252.041629,169.316611 L210.581908,193.264335 L169.361224,169.467114 L169.361224,121.589374 L169.237279,121.509695 L127.64476,97.5 L86.1850389,121.43887 Z M86.4329296,169.467114 L86.4329296,121.881527 L127.64476,98.0843067 L168.85659,121.881527 L168.85659,169.467114 L144.067519,183.78263 L127.64476,193.264335 L86.4329296,169.467114 Z M3.50463465,169.467114 L3.50463465,121.881527 L44.7164648,98.0843067 L85.9194417,121.881527 L85.9194417,169.467114 L44.7164648,193.264335 L3.50463465,169.467114 Z M659.095877,260.680939 L625.497833,241.283726 L625.497833,193.698138 L666.70081,169.909771 L707.91264,193.698138 L707.91264,241.283726 L666.70081,265.080946 L659.095877,260.680939 Z M376.704095,241.283726 L376.704095,193.698138 L417.907072,169.909771 L459.118902,193.698138 L459.118902,241.283726 L417.907072,265.080946 L376.704095,241.283726 Z M210.829799,241.283726 L210.829799,193.698138 L252.041629,169.909771 L293.253459,193.698138 L293.253459,241.283726 L272.65197,253.191189 L252.041629,265.080946 L210.829799,241.283726 Z M127.901504,241.283726 L127.901504,193.698138 L155.523611,177.744793 L169.104481,169.909771 L210.325164,193.698138 L210.325164,241.283726 L169.104481,265.080946 L127.901504,241.283726 Z M584.029259,313.10919 L584.029259,265.523603 L625.241089,241.726382 L653.111087,257.812524 L666.452919,265.523603 L666.452919,313.10919 L630.712391,333.736989 L625.241089,336.897557 L584.029259,313.10919 Z M335.226668,313.10919 L335.226668,265.523603 L376.447351,241.726382 L417.650328,265.523603 L417.650328,313.10919 L387.106651,330.74463 L376.447351,336.897557 L335.226668,313.10919 Z M252.298373,313.10919 L252.298373,265.523603 L272.899861,253.616139 L293.510203,241.726382 L334.730886,265.523603 L334.730886,313.10919 L314.111691,324.990094 L293.510203,336.897557 L252.298373,313.10919 Z M1288.95075,384.925801 L1288.95075,337.340214 L1330.16258,313.542994 L1371.36556,337.340214 L1371.36556,384.925801 L1330.16258,408.723022 L1288.95075,384.925801 Z M957.219866,384.925801 L957.219866,337.340214 L998.431696,313.542994 L1039.64353,337.340214 L1039.64353,384.925801 L1006.11631,404.278749 L998.431696,408.723022 L957.219866,384.925801 Z M791.354423,384.925801 L791.354423,337.340214 L832.575106,313.542994 L873.778083,337.340214 L873.778083,384.925801 L832.575106,408.723022 L791.354423,384.925801 Z M625.497833,384.925801 L625.497833,337.340214 L666.709663,313.542994 L707.91264,337.340214 L707.91264,384.925801 L687.311151,396.815558 L666.709663,408.723022 L625.497833,384.925801 Z M542.560685,384.925801 L542.560685,337.340214 L583.772515,313.542994 L624.993198,337.340214 L624.993198,384.925801 L583.772515,408.723022 L542.560685,384.925801 Z M376.704095,384.925801 L376.704095,337.340214 L417.907072,313.542994 L459.118902,337.340214 L459.118902,384.925801 L438.517413,396.815558 L417.907072,408.723022 L376.704095,384.925801 Z M293.766947,384.925801 L293.766947,337.340214 L314.368435,325.432751 L334.978777,313.542994 L376.181754,337.340214 L376.181754,384.925801 L334.978777,408.723022 L293.766947,384.925801 Z M1247.48218,456.742413 L1247.48218,409.156825 L1288.69401,385.368458 L1329.90584,409.156825 L1329.90584,456.742413 L1288.69401,480.539633 L1247.48218,456.742413 Z M1164.54503,456.742413 L1164.54503,409.156825 L1205.77457,385.368458 L1246.97754,409.156825 L1246.97754,456.742413 L1205.77457,480.539633 L1164.54503,456.742413 Z M998.68844,456.742413 L998.68844,409.156825 L1039.90027,385.368458 L1081.10325,409.156825 L1081.10325,456.742413 L1060.50176,468.641023 L1039.90027,480.539633 L998.68844,456.742413 Z M915.760145,456.742413 L915.760145,409.156825 L956.963122,385.368458 L998.174952,409.156825 L998.174952,456.742413 L956.963122,480.539633 L915.760145,456.742413 Z M749.885849,456.742413 L749.885849,409.156825 L791.097679,385.368458 L832.318362,409.156825 L832.318362,456.742413 L798.189124,476.449486 L791.097679,480.539633 L749.885849,456.742413 Z M666.957554,456.742413 L666.957554,409.156825 L687.567895,397.249362 L708.169384,385.368458 L749.381214,409.156825 L749.381214,456.742413 L708.169384,480.539633 L666.957554,456.742413 Z M501.092111,456.742413 L501.092111,409.156825 L542.312794,385.368458 L583.515771,409.156825 L583.515771,456.742413 L542.312794,480.539633 L501.092111,456.742413 Z M418.163816,456.742413 L418.163816,409.156825 L438.774157,397.249362 L459.366793,385.368458 L500.587476,409.156825 L500.587476,456.742413 L459.366793,480.539633 L418.163816,456.742413 Z M1454.81619,528.559024 L1454.81619,480.982289 L1496.01917,457.185069 L1537.23986,480.982289 L1537.23986,528.559024 L1496.01917,552.356244 L1454.81619,528.559024 Z M1131.41621,533.383981 L1123.08531,528.567877 L1123.08531,480.991143 L1164.29714,457.185069 L1205.50897,480.991143 L1205.50897,528.567877 L1164.29714,552.356244 L1131.41621,533.383981 Z M1040.14816,528.567877 L1040.14816,480.991143 L1060.7585,469.083679 L1081.35999,457.185069 L1122.57182,480.991143 L1122.57182,528.567877 L1101.97919,540.457634 L1081.35999,552.356244 L1040.14816,528.567877 Z M874.291571,528.567877 L874.291571,480.991143 L915.503401,457.185069 L956.715231,480.991143 L956.715231,528.567877 L915.503401,552.356244 L874.291571,528.567877 Z M791.354423,528.567877 L791.354423,480.991143 L832.575106,457.185069 L873.778083,480.991143 L873.778083,528.567877 L853.167741,540.457634 L832.575106,552.356244 L791.354423,528.567877 Z M625.497833,528.567877 L625.497833,480.991143 L666.70081,457.193922 L707.91264,480.991143 L707.91264,528.567877 L666.70081,552.356244 L625.497833,528.567877 Z M376.704095,528.567877 L376.704095,480.991143 L417.907072,457.193922 L459.118902,480.991143 L459.118902,528.567877 L417.907072,552.356244 L376.704095,528.567877 Z M293.766947,528.567877 L293.766947,480.991143 L334.978777,457.193922 L376.181754,480.991143 L376.181754,528.567877 L334.978777,552.356244 L293.766947,528.567877 Z M1433.95796,612.291951 L1413.35647,600.393341 L1413.35647,552.798901 L1454.55945,529.010534 L1491.47746,550.320024 L1495.77128,552.798901 L1495.77128,600.393341 L1454.55945,624.181708 L1433.95796,612.291951 Z M1081.61673,600.384488 L1081.61673,552.798901 L1102.22708,540.909144 L1122.82856,529.010534 L1164.04039,552.798901 L1164.04039,600.384488 L1122.82856,624.181708 L1081.61673,600.384488 Z M832.822997,600.384488 L832.822997,552.798901 L853.424485,540.909144 L874.034827,529.010534 L879.187412,531.976333 L915.25551,552.798901 L915.25551,600.384488 L874.034827,624.181708 L832.822997,600.384488 Z M2055.94231,684.082003 L2035.34082,672.218806 L2035.34082,624.624365 L2076.5438,600.827145 L2117.75563,624.624365 L2117.75563,672.218806 L2076.5438,696.007173 L2055.94231,684.082003 Z M1786.53823,672.218806 L1786.53823,624.624365 L1827.75891,600.827145 L1868.96189,624.624365 L1868.96189,672.218806 L1848.35155,684.082003 L1827.75891,696.007173 L1786.53823,672.218806 Z M1628.924,676.964085 L1620.68164,672.218806 L1620.68164,624.624365 L1661.88461,600.827145 L1703.1053,624.624365 L1703.1053,672.218806 L1661.88461,696.007173 L1628.924,676.964085 Z M1454.81619,672.218806 L1454.81619,624.624365 L1463.14709,619.799408 L1496.01917,600.827145 L1537.24871,624.624365 L1537.24871,672.218806 L1516.62951,684.082003 L1496.01917,696.007173 L1454.81619,672.218806 Z M1392.48054,684.082003 L1371.8879,672.218806 L1371.8879,624.624365 L1413.09088,600.827145 L1433.70122,612.716902 L1454.30271,624.624365 L1454.30271,672.218806 L1413.09088,696.007173 L1392.48054,684.082003 Z M1206.02246,672.218806 L1206.02246,624.624365 L1247.23429,600.827145 L1288.43726,624.624365 L1288.43726,672.218806 L1267.83578,684.082003 L1247.23429,696.007173 L1206.02246,672.218806 Z M1123.08531,672.218806 L1123.08531,624.624365 L1131.41621,619.799408 L1164.29714,600.827145 L1205.50897,624.624365 L1205.50897,672.218806 L1164.29714,696.007173 L1123.08531,672.218806 Z M791.354423,672.218806 L791.354423,624.624365 L832.575106,600.827145 L868.634351,621.640859 L873.778083,624.624365 L873.778083,672.218806 L832.575106,696.007173 L791.354423,672.218806 Z M2076.80939,744.026564 L2076.80939,696.440976 L2080.49234,694.307371 L2118.01237,672.643756 L2159.23305,696.440976 L2159.23305,744.026564 L2152.79675,747.736026 L2118.01237,767.823784 L2076.80939,744.026564 Z M2014.48259,755.916321 L1993.8811,744.026564 L1993.8811,696.440976 L2035.08408,672.643756 L2055.69442,684.542366 L2076.29591,696.440976 L2076.29591,744.026564 L2035.08408,767.823784 L2014.48259,755.916321 Z M1828.01566,744.026564 L1828.01566,696.440976 L1848.61714,684.542366 L1869.21863,672.643756 L1910.43046,696.440976 L1910.43046,744.026564 L1889.82897,755.916321 L1869.21863,767.823784 L1828.01566,744.026564 Z M1765.68885,755.916321 L1745.07851,744.026564 L1745.07851,696.440976 L1786.28148,672.643756 L1819.2598,691.677991 L1827.50217,696.440976 L1827.50217,744.026564 L1786.28148,767.823784 L1765.68885,755.916321 Z M1579.21306,744.026564 L1579.21306,696.440976 L1620.42489,672.643756 L1661.63672,696.440976 L1661.63672,744.026564 L1620.42489,767.823784 L1579.21306,744.026564 Z M1496.28477,744.026564 L1496.28477,696.440976 L1516.88626,684.542366 L1537.48775,672.643756 L1578.69958,696.440976 L1578.69958,744.026564 L1537.48775,767.823784 L1496.28477,744.026564 Z M1330.41933,744.026564 L1330.41933,696.440976 L1371.6223,672.643756 L1392.2415,684.542366 L1412.84299,696.440976 L1412.84299,744.026564 L1371.6223,767.823784 L1330.41933,744.026564 Z M1268.08367,755.916321 L1247.48218,744.026564 L1247.48218,696.440976 L1268.08367,684.542366 L1288.69401,672.643756 L1329.90584,696.440976 L1329.90584,744.026564 L1288.69401,767.823784 L1268.08367,755.916321 Z M2387.68205,827.741785 L2367.06285,815.852028 L2367.06285,768.266441 L2408.28354,744.478073 L2449.48651,768.266441 L2449.48651,815.852028 L2408.28354,839.631542 L2387.68205,827.741785 Z M2201.20626,815.852028 L2201.20626,768.266441 L2242.41809,744.478073 L2283.62992,768.266441 L2283.62992,815.852028 L2263.01958,827.741785 L2242.41809,839.631542 L2201.20626,815.852028 Z M2118.27797,815.852028 L2118.27797,768.266441 L2132.88581,759.820552 L2159.48094,744.478073 L2200.70163,768.266441 L2200.70163,815.852028 L2159.48094,839.631542 L2118.27797,815.852028 Z M1957.6802,818.888653 L1952.41252,815.852028 L1952.41252,768.266441 L1993.6155,744.478073 L2014.22584,756.358977 L2034.82733,768.266441 L2034.82733,815.852028 L1993.6155,839.640395 L1957.6802,818.888653 Z M1869.47538,815.852028 L1869.47538,768.266441 L1890.08572,756.358977 L1910.68721,744.478073 L1951.89904,768.266441 L1951.89904,815.852028 L1931.28869,827.741785 L1910.68721,839.640395 L1869.47538,815.852028 Z M1703.60993,815.852028 L1703.60993,768.266441 L1744.83062,744.478073 L1765.42325,756.358977 L1786.03359,768.266441 L1786.03359,815.852028 L1744.83062,839.640395 L1703.60993,815.852028 Z M1620.68164,815.852028 L1620.68164,768.266441 L1628.924,763.503455 L1661.88461,744.478073 L1703.1053,768.266441 L1703.1053,815.852028 L1682.49496,827.741785 L1661.88461,839.640395 L1620.68164,815.852028 Z M1454.81619,815.852028 L1454.81619,768.266441 L1496.01917,744.478073 L1531.44098,764.911103 L1537.24871,768.266441 L1537.24871,815.852028 L1496.01917,839.640395 L1454.81619,815.852028 Z M1206.02246,815.852028 L1206.02246,768.266441 L1247.23429,744.478073 L1267.83578,756.358977 L1288.43726,768.266441 L1288.43726,815.852028 L1247.23429,839.640395 L1206.02246,815.852028 Z M1143.69565,827.741785 L1123.08531,815.852028 L1123.08531,768.266441 L1164.29714,744.478073 L1205.50897,768.266441 L1205.50897,815.852028 L1164.29714,839.640395 L1143.69565,827.741785 Z M2325.60313,887.668639 L2325.60313,840.083052 L2366.80611,816.294685 L2387.41645,828.175589 L2408.01794,840.083052 L2408.01794,887.668639 L2366.80611,911.46586 L2325.60313,887.668639 Z M2242.66598,887.668639 L2242.66598,840.083052 L2263.28518,828.175589 L2283.87781,816.294685 L2325.0985,840.083052 L2325.0985,887.668639 L2283.87781,911.46586 L2242.66598,887.668639 Z M1948.47283,909.332255 L1910.94395,887.668639 L1910.94395,840.083052 L1931.54544,828.175589 L1952.15578,816.294685 L1993.35876,840.083052 L1993.35876,887.668639 L1952.15578,911.46586 L1948.47283,909.332255 Z M1682.76055,899.558396 L1662.14136,887.668639 L1662.14136,840.083052 L1682.76055,828.175589 L1703.35319,816.294685 L1711.83459,821.172761 L1744.57387,840.083052 L1744.57387,887.668639 L1703.35319,911.46586 L1682.76055,899.558396 Z M1081.61673,887.668639 L1081.61673,840.083052 L1122.82856,816.294685 L1143.43891,828.175589 L1164.04039,840.083052 L1164.04039,887.668639 L1122.82856,911.46586 L1081.61673,887.668639 Z M1952.41252,959.485251 L1952.41252,911.899663 L1957.56511,908.933864 L1993.6155,888.111296 L2034.82733,911.899663 L2034.82733,959.485251 L1993.6155,983.282471 L1952.41252,959.485251 Z M1869.47538,959.485251 L1869.47538,911.899663 L1910.68721,888.111296 L1951.89904,911.899663 L1951.89904,959.485251 L1910.68721,983.282471 L1869.47538,959.485251 Z M1620.68164,959.485251 L1620.68164,911.899663 L1661.88461,888.111296 L1682.49496,900.001053 L1703.1053,911.899663 L1703.1053,959.485251 L1661.88461,983.282471 L1620.68164,959.485251 Z M2081.96198,1034.27651 L2076.80939,1031.30186 L2076.80939,983.733981 L2118.01237,959.93676 L2159.23305,983.733981 L2159.23305,1031.30186 L2118.01237,1055.09908 L2081.96198,1034.27651 Z M1993.8811,1031.30186 L1993.8811,983.733981 L2001.95525,979.050673 L2035.08408,959.93676 L2076.29591,983.733981 L2076.29591,1031.30186 L2055.69442,1043.20047 L2035.08408,1055.09908 L1993.8811,1031.30186 Z M2035.34082,1103.12733 L2035.34082,1055.54174 L2055.95116,1043.64313 L2076.5438,1031.74452 L2117.76448,1055.54174 L2117.76448,1103.12733 L2076.5438,1126.9334 L2035.34082,1103.12733 Z" id="Fill-2"></path>
                    <g id="Group-5" transform="translate(0.000000, 0.500000)">
                        <path d="M3.23497391,360.180947 L3.23497391,315.296048 C4.71331973,315.1632 5.86412786,313.940999 5.86412786,312.426532 C5.86412786,311.992562 5.76675178,311.585161 5.58970438,311.213187 L44.4516096,288.770737 L83.29581,311.213187 C83.127615,311.585161 83.0302389,311.992562 83.0302389,312.426532 C83.0302389,313.932142 84.181047,315.1632 85.6505405,315.296048 L85.6505405,360.180947 L46.7974877,382.61454 C46.2840502,381.879448 45.4253703,381.401196 44.4516096,381.401196 C43.4689965,381.401196 42.6103166,381.879448 42.0880267,382.61454 L3.23497391,360.180947 Z M88.2619897,310.770361 C87.7396999,310.035269 86.88102,309.548159 85.9072592,309.548159 C84.9334985,309.548159 84.0748186,310.035269 83.5613811,310.770361 L44.7083283,288.336767 L44.7083283,240.732913 L83.5613811,218.290463 C84.0748186,219.025555 84.9334985,219.512665 85.9072592,219.512665 C86.88102,219.512665 87.7396999,219.025555 88.2619897,218.290463 L127.123895,240.732913 L127.123895,288.336767 L88.2619897,310.770361 Z M171.430008,361.535997 C171.615908,361.172879 171.713284,360.765478 171.713284,360.331508 C171.713284,358.817042 170.553623,357.603697 169.08413,357.470849 L169.08413,312.577093 L189.683595,300.665059 L210.300765,288.770737 L249.144966,311.213187 C248.976771,311.585161 248.879395,311.992562 248.879395,312.426532 C248.879395,313.940999 250.030203,315.1632 251.499696,315.296048 L251.499696,360.180947 L210.300765,383.987303 L171.430008,361.535997 Z M290.866187,382.61454 L252.013134,360.180947 L252.013134,315.296048 C253.482627,315.1632 254.633435,313.940999 254.633435,312.426532 C254.633435,311.992562 254.527207,311.585161 254.367864,311.213187 L293.212065,288.770737 L332.07397,311.222044 C331.896922,311.585161 331.799546,311.992562 331.799546,312.426532 C331.799546,313.940999 332.959207,315.1632 334.4287,315.296048 L334.4287,360.180947 L321.220964,367.815277 L295.575647,382.61454 C295.053358,381.879448 294.194678,381.401196 293.220917,381.401196 C292.238304,381.401196 291.379624,381.879448 290.866187,382.61454 L290.866187,382.61454 Z M293.477636,432.033984 L293.477636,387.131371 C294.947129,387.00738 296.097937,385.785179 296.097937,384.279568 C296.097937,383.836742 296.000561,383.429341 295.823514,383.066224 L334.685419,360.623774 L375.88435,384.421273 L375.88435,432.033984 L337.04015,454.476433 C336.509007,453.732485 335.65918,453.245376 334.676567,453.245376 C333.702806,453.245376 332.844126,453.732485 332.321836,454.476433 L293.477636,432.033984 Z M334.942138,503.88702 L334.942138,458.984408 C336.402779,458.860416 337.562439,457.638215 337.562439,456.123748 C337.562439,455.689778 337.456211,455.282378 337.288016,454.91926 L370.873908,435.5146 L376.149921,432.47681 L417.348852,456.283166 L417.348852,503.88702 L378.495799,526.320613 C377.982362,525.585521 377.114829,525.089555 376.149921,525.089555 C375.167308,525.089555 374.308628,525.585521 373.786338,526.320613 L334.942138,503.88702 Z M456.1842,432.175688 C456.1842,432.618515 456.290429,433.025915 456.458624,433.39789 L417.605571,455.840339 L376.397787,432.033984 L376.397787,384.421273 L415.25084,361.98768 C415.781982,362.731628 416.63181,363.209881 417.605571,363.209881 C418.579331,363.209881 419.438011,362.731628 419.960301,361.98768 L458.804502,384.421273 L458.804502,429.323885 C457.343861,429.447877 456.1842,430.678934 456.1842,432.175688 L456.1842,432.175688 Z M500.277856,360.180947 L459.06122,383.987303 L420.208168,361.535997 C420.385215,361.172879 420.482591,360.765478 420.482591,360.331508 C420.482591,358.817042 419.331783,357.603697 417.853437,357.470849 L417.853437,312.577093 L456.715342,290.1435 C457.237632,290.878592 458.096312,291.356845 459.070073,291.356845 C460.043833,291.356845 460.902513,290.878592 461.424803,290.1435 L500.277856,312.577093 L500.277856,360.180947 Z M539.635494,382.61454 L500.791294,360.180947 L500.791294,312.577093 L521.381907,300.665059 L539.635494,290.1435 C540.157784,290.878592 541.016464,291.356845 541.990224,291.356845 C542.963985,291.356845 543.822665,290.878592 544.344955,290.1435 L583.20686,312.577093 L583.20686,360.180947 L562.598542,372.075269 L544.344955,382.61454 C543.822665,381.879448 542.963985,381.401196 541.990224,381.401196 C541.016464,381.401196 540.157784,381.879448 539.635494,382.61454 L539.635494,382.61454 Z M542.246943,432.033984 L542.246943,387.131371 C543.716437,387.00738 544.876097,385.794035 544.876097,384.279568 C544.876097,383.845598 544.761016,383.429341 544.601674,383.066224 L562.846409,372.518095 L583.445874,360.623774 L622.316632,383.066224 C622.139584,383.429341 622.033356,383.845598 622.033356,384.279568 C622.033356,385.794035 623.193016,387.00738 624.66251,387.131371 L624.66251,432.033984 L604.063044,443.937161 L585.809457,454.476433 C585.287167,453.732485 584.428487,453.245376 583.445874,453.245376 C582.480966,453.245376 581.622286,453.732485 581.099996,454.476433 L542.246943,432.033984 Z M583.702593,503.88702 L583.702593,458.984408 C585.180939,458.860416 586.331747,457.638215 586.331747,456.132605 C586.331747,455.689778 586.234371,455.282378 586.057323,454.91926 L604.310911,444.379988 L624.919229,432.47681 L666.118159,456.283166 L666.118159,501.168065 C664.648666,501.300913 663.497858,502.523114 663.497858,504.028725 C663.497858,504.462695 663.595234,504.870095 663.772281,505.242069 L624.919229,527.684519 L583.702593,503.88702 Z M704.96236,432.175688 C704.96236,432.618515 705.059736,433.025915 705.227931,433.39789 L666.383731,455.840339 L625.175947,432.033984 L625.175947,387.131371 C626.636588,387.00738 627.796249,385.794035 627.796249,384.279568 C627.796249,383.845598 627.698873,383.429341 627.512973,383.066224 L666.383731,360.623774 L707.582661,384.421273 L707.582661,429.323885 C706.12202,429.447877 704.96236,430.678934 704.96236,432.175688 L704.96236,432.175688 Z M749.056016,360.180947 L707.83938,383.987303 L666.631597,360.180947 L666.631597,312.577093 L707.83938,288.770737 L733.281092,303.463722 L746.701285,311.213187 C746.524238,311.585161 746.426862,311.992562 746.426862,312.426532 C746.426862,313.940999 747.57767,315.1632 749.056016,315.296048 L749.056016,360.180947 Z M788.413654,382.61454 L749.551749,360.180947 L749.551749,315.296048 C751.030094,315.1632 752.180903,313.940999 752.180903,312.426532 C752.180903,311.992562 752.083527,311.585161 751.906479,311.213187 L770.160066,300.665059 L790.768384,288.770737 L829.621437,311.213187 C829.453242,311.585161 829.347014,311.992562 829.347014,312.426532 C829.347014,313.940999 830.497822,315.1632 831.967315,315.296048 L831.967315,360.180947 L793.123115,382.61454 C792.591973,381.879448 791.733293,381.401196 790.768384,381.401196 C789.794624,381.401196 788.927091,381.879448 788.413654,382.61454 L788.413654,382.61454 Z M749.551749,456.283166 L790.768384,432.47681 L829.621437,454.91926 C829.453242,455.282378 829.347014,455.689778 829.347014,456.132605 C829.347014,457.638215 830.497822,458.860416 831.967315,458.984408 L831.967315,503.88702 L790.768384,527.684519 L751.906479,505.242069 C752.083527,504.870095 752.180903,504.462695 752.180903,504.028725 C752.180903,502.523114 751.030094,501.30977 749.551749,501.176922 L749.551749,456.283166 Z M834.578764,454.476433 C834.065327,453.732485 833.197795,453.245376 832.224034,453.245376 C831.250273,453.245376 830.391593,453.732485 829.869303,454.476433 L791.025103,432.033984 L791.025103,387.131371 C792.485744,387.00738 793.645405,385.794035 793.645405,384.279568 C793.645405,383.845598 793.539176,383.429341 793.370981,383.066224 L821.707418,366.699354 L832.224034,360.623774 L871.077087,383.066224 C870.908892,383.429341 870.811516,383.845598 870.811516,384.279568 C870.811516,385.794035 871.962324,387.00738 873.431817,387.131371 L873.431817,432.033984 L834.578764,454.476433 Z M915.400904,456.283166 L936.009222,444.379988 L954.253957,433.83186 C954.776247,434.575808 955.634927,435.062917 956.61754,435.062917 C957.591301,435.062917 958.449981,434.575808 958.963418,433.83186 L997.816471,456.283166 L997.816471,501.176922 C996.346978,501.30977 995.196169,502.523114 995.196169,504.028725 C995.196169,504.462695 995.293545,504.870095 995.46174,505.242069 L956.61754,527.684519 L915.400904,503.88702 L915.400904,456.283166 Z M918.030058,599.829821 C918.030058,599.386994 917.932682,598.979594 917.764487,598.60762 L956.61754,576.174027 L997.816471,599.971525 L997.816471,644.874138 C996.35583,644.989273 995.196169,646.211474 995.196169,647.725941 C995.196169,648.159911 995.293545,648.576168 995.46174,648.939286 L956.61754,671.381735 L915.409757,647.57538 L915.409757,602.672767 C916.87925,602.548776 918.030058,601.335431 918.030058,599.829821 L918.030058,599.829821 Z M1036.66067,575.872904 C1036.66067,576.306875 1036.75805,576.714275 1036.92624,577.086249 L998.07319,599.528699 L966.709242,581.417093 L956.874259,575.7312 L956.874259,528.127346 L979.837307,514.860262 L995.718459,505.684896 C996.240749,506.428845 997.099429,506.907097 998.07319,506.907097 C999.04695,506.907097 999.90563,506.428845 1000.41907,505.684896 L1011.81207,512.256442 L1039.28097,528.127346 L1039.28097,573.012245 C1037.81148,573.153949 1036.66067,574.376151 1036.66067,575.872904 L1036.66067,575.872904 Z M1080.74548,503.88702 L1039.52884,527.684519 L1000.67579,505.242069 C1000.84398,504.870095 1000.95906,504.462695 1000.95906,504.028725 C1000.95906,502.523114 999.79055,501.30977 998.329908,501.176922 L998.329908,456.283166 L1039.52884,432.47681 L1078.3996,454.91926 C1078.22255,455.282378 1078.11632,455.689778 1078.11632,456.132605 C1078.11632,457.638215 1079.27598,458.860416 1080.74548,458.984408 L1080.74548,503.88702 Z M1083.35692,454.476433 C1082.82578,453.732485 1081.9671,453.245376 1081.00219,453.245376 C1080.01958,453.245376 1079.1609,453.732485 1078.63861,454.476433 L1039.78556,432.033984 L1039.78556,384.421273 L1081.00219,360.623774 L1119.85525,383.066224 C1119.6782,383.429341 1119.58082,383.836742 1119.58082,384.279568 C1119.58082,385.785179 1120.73163,387.00738 1122.20112,387.131371 L1122.20112,432.033984 L1083.35692,454.476433 Z M1161.56761,454.476433 L1122.70571,432.033984 L1122.70571,387.131371 C1124.18406,387.00738 1125.34372,385.785179 1125.34372,384.279568 C1125.34372,383.836742 1125.23749,383.429341 1125.06044,383.066224 L1163.92235,360.623774 L1202.78425,383.066224 C1202.6072,383.429341 1202.50097,383.836742 1202.50097,384.279568 C1202.50097,385.785179 1203.65178,387.00738 1205.13013,387.131371 L1205.13013,432.033984 L1184.53066,443.937161 L1166.26822,454.476433 C1165.75479,453.732485 1164.89611,453.245376 1163.92235,453.245376 C1162.94858,453.245376 1162.0899,453.732485 1161.56761,454.476433 L1161.56761,454.476433 Z M1164.17906,503.88702 L1164.17906,458.984408 C1165.63971,458.860416 1166.79937,457.638215 1166.79937,456.123748 C1166.79937,455.689778 1166.70199,455.282378 1166.52494,454.91926 L1184.77853,444.379988 L1205.38685,432.47681 L1246.59463,456.283166 L1246.59463,501.168065 C1245.11628,501.300913 1243.96548,502.523114 1243.96548,504.028725 C1243.96548,504.462695 1244.06285,504.870095 1244.23105,505.242069 L1205.38685,527.684519 L1164.17906,503.88702 Z M1249.44509,505.242069 C1249.63099,504.870095 1249.72837,504.462695 1249.72837,504.028725 C1249.72837,502.523114 1248.57756,501.300913 1247.09922,501.168065 L1247.09922,456.283166 L1285.95227,433.83186 C1286.47456,434.566952 1287.32439,435.062917 1288.307,435.062917 C1289.27191,435.062917 1290.13944,434.566952 1290.66173,433.83186 L1329.52363,456.283166 L1329.52363,501.168065 C1328.03644,501.300913 1326.87678,502.523114 1326.87678,504.028725 C1326.87678,504.462695 1326.99186,504.870095 1327.17776,505.242069 L1288.307,527.684519 L1249.44509,505.242069 Z M1249.73722,599.829821 C1249.73722,599.386994 1249.63099,598.979594 1249.44509,598.60762 L1288.307,576.174027 L1321.19355,595.153573 L1329.52363,599.971525 L1329.52363,647.57538 L1288.307,671.381735 L1267.69868,659.469701 L1247.09922,647.57538 L1247.09922,602.672767 C1248.57756,602.548776 1249.73722,601.326575 1249.73722,599.829821 L1249.73722,599.829821 Z M1205.64357,671.824562 L1246.8425,648.018206 L1267.45967,659.912528 L1288.05028,671.824562 L1288.05028,716.718318 C1286.59849,716.842309 1285.42113,718.055654 1285.42113,719.570121 C1285.42113,720.004091 1285.52735,720.411491 1285.69555,720.783466 L1246.8425,743.225915 L1207.98944,720.783466 C1208.15764,720.411491 1208.26387,720.004091 1208.26387,719.570121 C1208.26387,718.055654 1207.11306,716.842309 1205.64357,716.718318 L1205.64357,671.824562 Z M1166.26822,649.373256 L1205.13013,671.824562 L1205.13013,716.718318 C1203.65178,716.842309 1202.50097,718.055654 1202.50097,719.570121 C1202.50097,720.004091 1202.6072,720.411491 1202.78425,720.783466 L1163.92235,743.225915 L1132.5584,725.105453 L1122.70571,719.428416 L1122.70571,671.824562 L1161.56761,649.373256 C1162.0899,650.117204 1162.94858,650.604313 1163.92235,650.604313 C1164.89611,650.604313 1165.75479,650.117204 1166.26822,649.373256 L1166.26822,649.373256 Z M1083.87921,743.518181 C1083.87921,743.075354 1083.78184,742.67681 1083.60479,742.304836 L1122.45784,719.862386 L1163.66563,743.668742 L1163.66563,788.562498 C1162.19613,788.695346 1161.04533,789.90869 1161.04533,791.414301 C1161.04533,791.857127 1161.1427,792.255671 1161.3109,792.627645 L1122.45784,815.070095 L1081.25891,791.272596 L1081.25891,746.361127 C1082.71955,746.254849 1083.87921,745.023791 1083.87921,743.518181 L1083.87921,743.518181 Z M1368.88127,670.008973 L1330.02822,647.57538 L1330.02822,599.971525 L1350.63654,588.068348 L1368.88127,577.529076 C1369.39471,578.273024 1370.26224,578.760134 1371.22715,578.760134 C1372.21862,578.760134 1373.06844,578.273024 1373.58188,577.529076 L1412.43493,599.971525 L1412.43493,647.57538 L1391.83547,659.469701 L1373.59073,670.008973 C1373.06844,669.273881 1372.21862,668.795628 1371.22715,668.795628 C1370.26224,668.795628 1369.39471,669.273881 1368.88127,670.008973 L1368.88127,670.008973 Z M1371.48387,719.428416 L1371.48387,674.516947 C1372.95336,674.401812 1374.11302,673.179611 1374.11302,671.674001 C1374.11302,671.231174 1374.01565,670.823774 1373.8386,670.4518 L1392.09219,659.912528 L1412.69165,648.018206 L1451.53585,670.4518 C1451.38536,670.823774 1451.27913,671.231174 1451.27913,671.674001 C1451.27913,673.179611 1452.42994,674.401812 1453.89944,674.516947 L1453.89944,719.428416 L1448.15425,722.749615 L1415.04638,741.862009 C1414.52409,741.126917 1413.65656,740.639808 1412.69165,740.639808 C1411.71789,740.639808 1410.85921,741.126917 1410.33692,741.862009 L1371.48387,719.428416 Z M1412.94837,791.272596 L1412.94837,746.361127 C1414.41787,746.254849 1415.57753,745.023791 1415.57753,743.518181 C1415.57753,743.075354 1415.4713,742.67681 1415.3031,742.304836 L1454.1473,719.862386 L1493.00921,742.304836 C1492.83216,742.67681 1492.74364,743.075354 1492.74364,743.518181 C1492.74364,745.023791 1493.9033,746.254849 1495.36394,746.361127 L1495.36394,791.272596 L1456.51974,813.715046 C1455.9886,812.971097 1455.13877,812.483988 1454.1473,812.483988 C1453.18239,812.483988 1452.31486,812.971097 1451.80142,813.715046 L1412.94837,791.272596 Z M1497.96654,741.862009 C1497.4531,741.126917 1496.59442,740.639808 1495.6118,740.639808 C1494.6469,740.639808 1493.78822,741.126917 1493.25707,741.862009 L1457.44924,721.182009 L1454.41287,719.428416 L1454.41287,674.516947 C1455.88237,674.401812 1457.04203,673.179611 1457.04203,671.674001 C1457.04203,671.231174 1456.9358,670.823774 1456.75875,670.4518 L1495.6118,648.018206 L1516.22012,659.912528 L1534.48256,670.4518 C1534.30551,670.823774 1534.19043,671.231174 1534.19043,671.674001 C1534.19043,673.179611 1535.35895,674.401812 1536.82844,674.516947 L1536.82844,719.428416 L1497.96654,741.862009 Z M1539.43989,670.008973 C1538.90875,669.273881 1538.05007,668.795628 1537.09401,668.795628 C1536.10255,668.795628 1535.24387,669.273881 1534.72158,670.008973 L1516.46799,659.469701 L1495.86852,647.57538 L1495.86852,602.672767 C1497.33802,602.548776 1498.49768,601.326575 1498.49768,599.829821 C1498.49768,599.386994 1498.39145,598.979594 1498.22325,598.60762 L1537.09401,576.174027 L1575.92936,598.60762 C1575.77002,598.979594 1575.66379,599.386994 1575.66379,599.829821 C1575.66379,601.326575 1576.82345,602.548776 1578.29294,602.672767 L1578.29294,647.57538 L1539.43989,670.008973 Z M1617.65058,670.008973 L1578.78868,647.57538 L1578.78868,602.672767 C1580.26702,602.548776 1581.41783,601.326575 1581.41783,599.829821 C1581.41783,599.386994 1581.32045,598.979594 1581.14341,598.60762 L1599.40585,588.068348 L1620.00531,576.174027 L1658.85836,598.60762 C1658.69017,598.979594 1658.58394,599.386994 1658.58394,599.829821 C1658.58394,601.326575 1659.7436,602.548776 1661.21309,602.672767 L1661.21309,647.57538 L1656.16724,650.489179 L1622.35119,670.008973 C1621.8289,669.273881 1620.97907,668.795628 1620.00531,668.795628 C1619.0227,668.795628 1618.16402,669.273881 1617.65058,670.008973 L1617.65058,670.008973 Z M1581.41783,743.518181 C1581.41783,743.075354 1581.32045,742.67681 1581.14341,742.304836 L1620.00531,719.862386 L1655.91938,740.604382 L1661.21309,743.668742 L1661.21309,788.562498 C1659.7436,788.695346 1658.58394,789.90869 1658.58394,791.414301 C1658.58394,791.848271 1658.69017,792.255671 1658.85836,792.627645 L1620.00531,815.070095 L1578.78868,791.272596 L1578.78868,746.361127 C1580.26702,746.254849 1581.41783,745.023791 1581.41783,743.518181 L1581.41783,743.518181 Z M1700.04844,719.570121 C1700.04844,720.004091 1700.14582,720.411491 1700.32287,720.783466 L1661.46096,743.225915 L1620.25318,719.428416 L1620.25318,674.516947 C1621.72267,674.401812 1622.88233,673.179611 1622.88233,671.674001 C1622.88233,671.231174 1622.7761,670.823774 1622.60791,670.4518 L1661.46096,648.018206 L1702.6776,671.824562 L1702.6776,716.718318 C1701.2081,716.842309 1700.04844,718.055654 1700.04844,719.570121 L1700.04844,719.570121 Z M1705.52806,720.783466 C1705.69625,720.411491 1705.81134,720.004091 1705.81134,719.570121 C1705.81134,718.055654 1704.66053,716.842309 1703.17333,716.718318 L1703.17333,671.824562 L1744.38996,648.018206 L1785.59775,671.824562 L1785.59775,716.718318 C1784.12825,716.842309 1782.96859,718.055654 1782.96859,719.570121 C1782.96859,720.004091 1783.07482,720.411491 1783.24302,720.783466 L1764.98943,731.313881 L1744.38996,743.225915 L1705.52806,720.783466 Z M1744.64668,791.272596 L1744.64668,743.668742 L1765.24615,731.756707 L1783.49088,721.226292 C1784.02203,721.970241 1784.88071,722.448493 1785.84561,722.448493 C1786.81937,722.448493 1787.68691,721.970241 1788.2092,721.226292 L1827.0534,743.668742 L1827.0534,791.272596 L1823.62753,793.247603 L1788.2092,813.715046 C1787.68691,812.971097 1786.81937,812.483988 1785.84561,812.483988 C1784.88071,812.483988 1784.02203,812.971097 1783.49088,813.715046 L1744.64668,791.272596 Z M1747.27584,887.224254 C1747.27584,886.781427 1747.17846,886.374027 1746.99256,886.002052 L1785.85447,863.568459 L1792.92751,867.65132 L1824.70752,886.002052 C1824.53047,886.374027 1824.4331,886.781427 1824.4331,887.224254 C1824.4331,888.703294 1825.5839,889.934352 1827.0534,890.058343 L1827.0534,934.969812 L1788.2092,957.412262 C1787.68691,956.67717 1786.81937,956.190061 1785.85447,956.190061 C1784.88071,956.190061 1784.02203,956.67717 1783.49088,957.412262 L1744.64668,934.969812 L1744.64668,890.058343 C1746.12503,889.934352 1747.27584,888.703294 1747.27584,887.224254 L1747.27584,887.224254 Z M1829.66485,885.559226 C1829.15141,884.815277 1828.29273,884.337024 1827.31897,884.337024 C1826.33636,884.337024 1825.48653,884.815277 1824.96424,885.559226 L1786.11119,863.116776 L1786.11119,818.22302 C1787.58068,818.090172 1788.73149,816.867971 1788.73149,815.371217 C1788.73149,814.928391 1788.64296,814.529847 1788.45706,814.157872 L1827.31897,791.715423 L1847.91843,803.600887 L1868.5179,815.512922 L1868.5179,863.116776 L1829.66485,885.559226 Z M1907.35325,791.414301 C1907.35325,791.848271 1907.45948,792.255671 1907.62767,792.627645 L1868.77462,815.070095 L1848.1663,803.18463 L1827.56683,791.272596 L1827.56683,743.668742 L1866.42874,721.226292 C1866.94218,721.970241 1867.80086,722.448493 1868.77462,722.448493 C1869.75723,722.448493 1870.60706,721.970241 1871.12935,721.226292 L1889.37408,731.756707 L1909.9824,743.668742 L1909.9824,788.562498 C1908.51291,788.695346 1907.35325,789.90869 1907.35325,791.414301 L1907.35325,791.414301 Z M1951.43805,719.428416 L1910.23912,743.225915 L1889.6308,731.313881 L1871.38607,720.783466 C1871.55426,720.411491 1871.65164,720.004091 1871.65164,719.570121 C1871.65164,718.055654 1870.50083,716.842309 1869.04019,716.718318 L1869.04019,671.824562 L1910.23912,648.018206 L1949.09217,670.4518 C1948.91513,670.823774 1948.8089,671.231174 1948.8089,671.674001 C1948.8089,673.179611 1949.97741,674.401812 1951.43805,674.516947 L1951.43805,719.428416 Z M1990.80454,741.862009 L1951.96034,719.428416 L1951.96034,674.516947 C1953.42098,674.401812 1954.58949,673.179611 1954.58949,671.674001 C1954.58949,671.231174 1954.48327,670.823774 1954.30622,670.4518 L1993.15927,648.018206 L2034.36706,671.824562 L2034.36706,719.428416 L2013.76759,731.313881 L1995.52285,741.862009 C1994.99171,741.126917 1994.12418,740.639808 1993.15927,740.639808 C1992.19436,740.639808 1991.32683,741.126917 1990.80454,741.862009 L1990.80454,741.862009 Z M1993.41599,791.272596 L1993.41599,746.361127 C1994.88548,746.254849 1996.04514,745.023791 1996.04514,743.518181 C1996.04514,743.075354 1995.93892,742.67681 1995.77072,742.304836 L2014.01546,731.756707 L2034.62377,719.862386 L2073.47683,742.304836 C2073.30863,742.67681 2073.2024,743.075354 2073.2024,743.518181 C2073.2024,745.023791 2074.37092,746.254849 2075.83156,746.361127 L2075.83156,791.272596 L2067.82016,795.904562 L2036.98736,813.715046 C2036.46507,812.971097 2035.60639,812.483988 2034.62377,812.483988 C2033.65001,812.483988 2032.79133,812.971097 2032.26904,813.715046 L1993.41599,791.272596 Z M1993.41599,887.365958 L2034.62377,863.568459 L2055.23209,875.453924 L2073.47683,886.002052 C2073.30863,886.374027 2073.2024,886.781427 2073.2024,887.224254 C2073.2024,888.703294 2074.37092,889.934352 2075.83156,890.058343 L2075.83156,934.969812 L2034.62377,958.767311 L1995.77072,936.333718 C1995.93892,935.952887 1996.04514,935.554343 1996.04514,935.10266 C1996.04514,933.605907 1994.88548,932.383705 1993.41599,932.250857 L1993.41599,887.365958 Z M2078.43415,885.559226 C2077.91186,884.815277 2077.07089,884.337024 2076.07942,884.337024 C2075.10566,884.337024 2074.24698,884.815277 2073.73355,885.559226 L2055.48881,875.02881 L2034.88049,863.116776 L2034.88049,818.22302 C2036.34999,818.090172 2037.50965,816.867971 2037.50965,815.371217 C2037.50965,814.928391 2037.40342,814.529847 2037.23522,814.157872 L2076.07942,791.715423 L2096.68774,803.600887 L2114.95018,814.157872 C2114.77313,814.529847 2114.66691,814.928391 2114.66691,815.371217 C2114.66691,816.867971 2115.81771,818.099029 2117.29606,818.22302 L2117.29606,863.116776 L2078.43415,885.559226 Z M2159.26515,934.969812 L2159.26515,887.365958 L2179.87346,875.453924 L2198.1182,864.923508 C2198.63164,865.6586 2199.49917,866.154566 2200.47293,866.154566 C2201.43784,866.154566 2202.29652,865.6586 2202.82766,864.923508 L2241.68071,887.365958 L2241.68071,932.250857 C2240.21122,932.383705 2239.05156,933.605907 2239.05156,935.10266 C2239.05156,935.554343 2239.15779,935.952887 2239.33483,936.333718 L2200.47293,958.767311 L2159.26515,934.969812 Z M2244.54003,936.333718 C2244.70822,935.952887 2244.81445,935.554343 2244.81445,935.10266 C2244.81445,933.605907 2243.66364,932.383705 2242.1853,932.250857 L2242.1853,887.365958 L2283.39308,863.568459 L2322.25499,886.002052 C2322.07794,886.374027 2321.98056,886.781427 2321.98056,887.224254 C2321.98056,888.703294 2323.13137,889.934352 2324.60086,890.058343 L2324.60086,934.969812 L2309.90593,943.454369 L2283.39308,958.767311 L2244.54003,936.333718 Z M2285.99568,1008.16904 C2286.17273,1007.80592 2286.2701,1007.38081 2286.2701,1006.9557 C2286.2701,1005.45009 2285.11929,1004.23674 2283.64095,1004.11275 L2283.64095,959.210138 L2290.51924,955.233555 L2324.86644,935.412639 L2363.71064,957.846232 C2363.54244,958.20935 2363.43621,958.625607 2363.43621,959.059577 C2363.43621,960.565187 2364.59587,961.796245 2366.06537,961.91138 L2366.06537,1006.81399 L2324.86644,1030.62035 L2285.99568,1008.16904 Z M2405.43186,1029.25644 L2366.56995,1006.81399 L2366.56995,961.91138 C2368.05715,961.796245 2369.20796,960.565187 2369.20796,959.059577 C2369.20796,958.625607 2369.09288,958.20935 2368.91583,957.846232 L2407.77774,935.412639 L2448.98552,959.210138 L2448.98552,1006.81399 L2410.13247,1029.25644 C2409.61018,1028.51249 2408.7692,1028.02538 2407.77774,1028.02538 C2406.81283,1028.02538 2405.94529,1028.51249 2405.43186,1029.25644 L2405.43186,1029.25644 Z M2200.22506,815.512922 L2200.22506,860.397821 C2198.75557,860.539525 2197.59591,861.761727 2197.59591,863.267337 C2197.59591,863.701307 2197.70214,864.108707 2197.87033,864.471825 L2179.6256,875.02881 L2158.99958,886.923131 L2117.80064,863.116776 L2117.80064,818.22302 C2119.27014,818.090172 2120.4298,816.867971 2120.4298,815.371217 C2120.4298,814.928391 2120.32357,814.529847 2120.15537,814.157872 L2138.40896,803.600887 L2158.99958,791.715423 L2200.22506,815.512922 Z M2156.39698,742.304836 C2156.21993,742.67681 2156.13141,743.075354 2156.13141,743.518181 C2156.13141,745.023791 2157.29107,746.254849 2158.75171,746.361127 L2158.75171,791.272596 L2138.15224,803.18463 L2119.90751,813.715046 C2119.37637,812.971097 2118.51769,812.483988 2117.54393,812.483988 C2116.57016,812.483988 2115.71148,812.971097 2115.1892,813.715046 L2096.94446,803.18463 L2076.34499,791.272596 L2076.34499,746.361127 C2077.81449,746.254849 2078.95644,745.023791 2078.95644,743.518181 C2078.95644,743.075354 2078.86792,742.67681 2078.69087,742.304836 L2117.54393,719.862386 L2156.39698,742.304836 Z M2073.2024,647.725941 C2073.2024,648.159911 2073.30863,648.567311 2073.47683,648.939286 L2034.62377,671.381735 L1995.6999,648.90386 L1993.41599,647.57538 L1993.41599,599.971525 L2032.26904,577.529076 C2032.79133,578.264168 2033.65001,578.760134 2034.62377,578.760134 C2035.60639,578.760134 2036.46507,578.264168 2036.96965,577.529076 L2075.83156,599.971525 L2075.83156,644.874138 C2074.37092,644.989273 2073.2024,646.211474 2073.2024,647.725941 L2073.2024,647.725941 Z M2078.69087,648.939286 C2078.86792,648.567311 2078.95644,648.159911 2078.95644,647.725941 C2078.95644,646.211474 2077.81449,644.989273 2076.34499,644.874138 L2076.34499,599.971525 L2117.54393,576.174027 L2156.39698,598.60762 C2156.23764,598.979594 2156.13141,599.386994 2156.13141,599.829821 C2156.13141,601.335431 2157.29107,602.548776 2158.75171,602.672767 L2158.75171,647.57538 L2117.54393,671.381735 L2078.69087,648.939286 Z M1824.4331,647.725941 C1824.4331,648.159911 1824.53047,648.567311 1824.70752,648.939286 L1785.85447,671.381735 L1746.08962,648.390181 L1744.64668,647.57538 L1744.64668,599.971525 L1783.49088,577.529076 C1784.02203,578.264168 1784.88071,578.760134 1785.85447,578.760134 C1786.81937,578.760134 1787.68691,578.264168 1788.2092,577.529076 L1827.0534,599.971525 L1827.0534,644.874138 C1825.5839,644.989273 1824.4331,646.211474 1824.4331,647.725941 L1824.4331,647.725941 Z M1622.35119,526.320613 C1621.8289,525.585521 1620.97907,525.098412 1620.00531,525.098412 C1619.0227,525.098412 1618.17287,525.585521 1617.65058,526.320613 L1578.78868,503.88702 L1578.78868,456.283166 L1617.65058,433.83186 C1618.17287,434.566952 1619.0227,435.062917 1620.00531,435.062917 C1620.97907,435.062917 1621.8289,434.566952 1622.35119,433.83186 L1661.21309,456.283166 L1661.21309,503.88702 L1622.35119,526.320613 Z M1539.96218,527.976785 C1539.96218,527.533958 1539.85595,527.135414 1539.68776,526.772296 L1578.53196,504.32099 L1617.40271,526.772296 C1617.22567,527.135414 1617.12829,527.533958 1617.12829,527.976785 C1617.12829,529.482395 1618.2791,530.704596 1619.74859,530.837444 L1619.74859,575.7312 L1599.14027,587.634378 L1580.89554,598.164793 C1580.3644,597.429701 1579.51457,596.942592 1578.53196,596.942592 C1577.56705,596.942592 1576.70837,597.429701 1576.18608,598.164793 L1573.38873,596.544048 L1537.33303,575.7312 L1537.33303,530.837444 C1538.80252,530.704596 1539.96218,529.482395 1539.96218,527.976785 L1539.96218,527.976785 Z M1370.98814,528.127346 L1370.98814,573.012245 C1369.50979,573.153949 1368.35898,574.376151 1368.35898,575.872904 C1368.35898,576.306875 1368.45636,576.714275 1368.6157,577.086249 L1350.37982,587.634378 L1329.7715,599.528699 L1288.56372,575.7312 L1288.56372,528.127346 L1311.54447,514.860262 L1327.41677,505.684896 C1327.93906,506.428845 1328.79774,506.907097 1329.7715,506.907097 C1330.74526,506.907097 1331.60394,506.428845 1332.12623,505.684896 L1370.98814,528.127346 Z M1207.74158,382.61454 C1207.21929,381.879448 1206.36061,381.401196 1205.38685,381.401196 C1204.40423,381.401196 1203.54555,381.879448 1203.03212,382.61454 L1164.17906,360.180947 L1164.17906,312.577093 L1205.38685,288.770737 L1244.23105,311.213187 C1244.06285,311.585161 1243.96548,311.992562 1243.96548,312.426532 C1243.96548,313.940999 1245.11628,315.1632 1246.59463,315.296048 L1246.59463,360.180947 L1207.74158,382.61454 Z M1288.307,383.987303 L1247.09922,360.180947 L1247.09922,315.296048 C1248.56871,315.1632 1249.72837,313.940999 1249.72837,312.426532 C1249.72837,311.992562 1249.63099,311.585161 1249.44509,311.213187 L1288.307,288.770737 L1329.52363,312.577093 L1329.52363,357.470849 C1328.03644,357.603697 1326.87678,358.817042 1326.87678,360.331508 C1326.87678,360.765478 1326.99186,361.172879 1327.17776,361.535997 L1288.307,383.987303 Z M1368.35898,288.478472 C1368.35898,288.921299 1368.45636,289.328699 1368.6157,289.700673 L1329.7715,312.134266 L1288.56372,288.336767 L1288.56372,243.443012 C1290.02436,243.310164 1291.18402,242.087962 1291.18402,240.582352 C1291.18402,240.139525 1291.08664,239.732125 1290.91845,239.360151 L1329.7715,216.926558 L1370.97043,240.732913 L1370.97043,285.626669 C1369.50979,285.75066 1368.35898,286.964005 1368.35898,288.478472 L1368.35898,288.478472 Z M995.196169,360.331508 C995.196169,360.765478 995.293545,361.172879 995.46174,361.535997 L956.61754,383.987303 L915.400904,360.180947 L915.400904,315.296048 C916.87925,315.1632 918.030058,313.940999 918.030058,312.426532 C918.030058,311.992562 917.932682,311.585161 917.755635,311.213187 L956.61754,288.770737 L997.816471,312.577093 L997.816471,357.470849 C996.35583,357.603697 995.196169,358.817042 995.196169,360.331508 L995.196169,360.331508 Z M876.565556,384.279568 C876.565556,383.845598 876.46818,383.429341 876.291133,383.066224 L915.153038,360.623774 L956.351969,384.421273 L956.351969,429.323885 C954.882475,429.456733 953.731667,430.678934 953.731667,432.184545 C953.731667,432.618515 953.829043,433.025915 954.006091,433.39789 L935.752503,443.937161 L915.153038,455.840339 L873.936402,432.033984 L873.936402,387.131371 C875.414748,387.00738 876.565556,385.794035 876.565556,384.279568 L876.565556,384.279568 Z M829.347014,216.634292 C829.347014,217.077119 829.453242,217.475663 829.621437,217.847637 L790.768384,240.290087 L749.551749,216.483731 L749.551749,168.879877 L788.404801,146.437427 C788.927091,147.181376 789.794624,147.668485 790.768384,147.668485 C791.742145,147.668485 792.600825,147.181376 793.123115,146.446284 L831.967315,168.879877 L831.967315,213.782489 C830.497822,213.897624 829.347014,215.128682 829.347014,216.634292 L829.347014,216.634292 Z M710.716401,240.582352 C710.716401,240.139525 710.619024,239.732125 710.441977,239.360151 L749.29503,216.926558 L790.511666,240.732913 L790.511666,288.336767 L769.903348,300.222232 L751.658613,310.770361 C751.136323,310.035269 750.277643,309.548159 749.303882,309.548159 C748.321269,309.548159 747.471442,310.035269 746.949152,310.770361 L738.3535,305.810703 L708.096099,288.336767 L708.096099,243.443012 C709.55674,243.31902 710.716401,242.096819 710.716401,240.582352 L710.716401,240.582352 Z M580.568854,216.634292 C580.568854,217.068262 580.675082,217.484519 580.843277,217.847637 L541.990224,240.290087 L507.226967,220.212331 L500.791294,216.483731 L500.791294,171.598832 C502.251935,171.465984 503.411595,170.243782 503.411595,168.738172 C503.411595,168.295346 503.305367,167.887945 503.137172,167.515971 L541.990224,145.082378 L583.20686,168.879877 L583.20686,213.782489 C581.728514,213.897624 580.568854,215.119825 580.568854,216.634292 L580.568854,216.634292 Z M497.923126,167.515971 C497.746078,167.887945 497.648702,168.295346 497.648702,168.738172 C497.648702,170.243782 498.79951,171.457127 500.277856,171.598832 L500.277856,216.483731 L459.06122,240.290087 L420.208168,217.847637 C420.385215,217.484519 420.482591,217.068262 420.482591,216.634292 C420.482591,215.119825 419.331783,213.897624 417.853437,213.782489 L417.853437,168.879877 L448.49149,151.184528 L459.06122,145.082378 L497.923126,167.515971 Z M456.458624,95.671791 C456.290429,96.0437653 456.1842,96.4511657 456.1842,96.8851358 C456.1842,98.390746 457.343861,99.6129473 458.804502,99.7369388 L458.804502,144.639551 L417.605571,168.445907 L378.752518,145.9946 C378.920713,145.631483 379.026941,145.224082 379.026941,144.790112 C379.026941,143.275645 377.867281,142.053444 376.397787,141.929453 L376.397787,97.0356968 L396.997253,85.1325191 L417.605571,73.2381979 L456.458624,95.671791 Z M414.994122,23.8276111 C414.825927,24.1995854 414.719698,24.6069859 414.719698,25.0409559 C414.719698,26.5465662 415.879359,27.7599109 417.348852,27.8927589 L417.348852,72.7865148 L396.749387,84.698549 L376.149921,96.5840137 L337.279164,74.1504206 C337.456211,73.7784463 337.562439,73.3710458 337.562439,72.9370758 C337.562439,71.422609 336.402779,70.2092642 334.942138,70.0852728 L334.942138,25.1826604 L376.149921,1.38516146 L414.994122,23.8276111 Z M332.321836,74.5932471 C332.844126,75.3371957 333.702806,75.8154484 334.685419,75.8154484 C335.65918,75.8154484 336.509007,75.3371957 337.04015,74.5932471 L375.88435,97.0356968 L375.88435,141.929453 C374.414857,142.053444 373.264048,143.275645 373.264048,144.790112 C373.264048,145.224082 373.361424,145.631483 373.538472,145.9946 L334.676567,168.445907 L295.823514,145.9946 C296.000561,145.631483 296.097937,145.224082 296.097937,144.790112 C296.097937,143.275645 294.947129,142.053444 293.468783,141.929453 L293.468783,97.0356968 L332.321836,74.5932471 Z M521.125188,300.222232 L500.534575,312.134266 L461.67267,289.700673 C461.849717,289.328699 461.947093,288.921299 461.947093,288.478472 C461.947093,286.964005 460.796285,285.75066 459.326792,285.626669 L459.326792,240.732913 L493.479236,220.991705 L500.534575,216.926558 L503.066353,218.396742 L541.733506,240.732913 L541.733506,285.626669 C540.272865,285.75066 539.113204,286.964005 539.113204,288.478472 C539.113204,288.921299 539.21058,289.328699 539.378775,289.700673 L521.125188,300.222232 Z M207.689316,239.360151 C207.512269,239.732125 207.414893,240.139525 207.414893,240.582352 C207.414893,242.087962 208.565701,243.310164 210.044047,243.443012 L210.044047,288.336767 L189.435729,300.222232 L168.827411,312.134266 L127.619628,288.336767 L127.619628,240.732913 L168.827411,216.926558 L207.689316,239.360151 Z M2.7303888,315.296048 L2.7303888,360.473213 L2.86317436,360.552922 L41.8401604,383.066224 C41.663113,383.429341 41.5657369,383.845598 41.5657369,384.279568 C41.5657369,385.864887 42.8581829,387.157941 44.4516096,387.157941 C46.0361838,387.157941 47.3286299,385.864887 47.3286299,384.279568 C47.3286299,383.845598 47.2224014,383.429341 47.0542064,383.066224 L86.163978,360.473213 L86.163978,315.296048 C87.6246191,315.1632 88.7931319,313.940999 88.7931319,312.426532 C88.7931319,311.992562 88.6780511,311.585161 88.5187084,311.213187 L127.362909,288.770737 L168.579545,312.577093 L168.579545,357.470849 C167.110051,357.603697 165.950391,358.817042 165.950391,360.331508 C165.950391,361.916827 167.242837,363.209881 168.836263,363.209881 C169.810024,363.209881 170.668704,362.722772 171.190994,361.98768 L210.300765,384.571834 L251.756415,360.623774 L290.609468,383.066224 C290.441273,383.429341 290.343897,383.836742 290.343897,384.279568 C290.343897,385.785179 291.494705,387.00738 292.973051,387.131371 L292.973051,432.326249 L293.096984,432.397101 L332.07397,454.91926 C331.896922,455.282378 331.799546,455.689778 331.799546,456.123748 C331.799546,457.638215 332.959207,458.860416 334.4287,458.984408 L334.4287,504.179286 L334.552633,504.250138 L373.538472,526.772296 C373.361424,527.135414 373.264048,527.533958 373.264048,527.976785 C373.264048,529.57096 374.547642,530.855157 376.149921,530.855157 C377.734495,530.855157 379.026941,529.57096 379.026941,527.976785 C379.026941,527.533958 378.920713,527.135414 378.752518,526.772296 L417.853437,504.179286 L417.853437,456.283166 L456.715342,433.83186 C457.237632,434.566952 458.096312,435.062917 459.06122,435.062917 C460.654647,435.062917 461.947093,433.77872 461.947093,432.175688 C461.947093,430.678934 460.796285,429.456733 459.317939,429.323885 L459.317939,384.421273 L500.534575,360.623774 L539.378775,383.066224 C539.21058,383.429341 539.113204,383.845598 539.113204,384.279568 C539.113204,385.794035 540.272865,387.00738 541.733506,387.131371 L541.733506,432.326249 L541.866291,432.397101 L580.843277,454.91926 C580.675082,455.282378 580.577706,455.689778 580.577706,456.132605 C580.577706,457.638215 581.728514,458.860416 583.20686,458.984408 L583.20686,504.179286 L583.321941,504.250138 L624.919229,528.26905 L664.020148,505.684896 C664.542438,506.428845 665.401117,506.907097 666.383731,506.907097 C667.968305,506.907097 669.260751,505.6229 669.260751,504.028725 C669.260751,502.523114 668.092238,501.300913 666.622745,501.168065 L666.622745,456.283166 L705.48465,433.83186 C706.00694,434.566952 706.86562,435.062917 707.83938,435.062917 C709.432807,435.062917 710.716401,433.77872 710.716401,432.175688 C710.716401,430.678934 709.55674,429.456733 708.096099,429.323885 L708.096099,384.421273 L749.29503,360.623774 L788.156935,383.066224 C787.979888,383.429341 787.882512,383.845598 787.882512,384.279568 C787.882512,385.794035 789.042172,387.00738 790.511666,387.131371 L790.511666,432.033984 L749.056016,455.982044 L749.056016,501.176922 C747.57767,501.30977 746.426862,502.523114 746.426862,504.028725 C746.426862,505.6229 747.710456,506.907097 749.29503,506.907097 C750.277643,506.907097 751.136323,506.428845 751.658613,505.684896 L790.768384,528.26905 L832.480753,504.179286 L832.480753,458.984408 C833.941394,458.860416 835.109907,457.638215 835.109907,456.132605 C835.109907,455.689778 834.994826,455.282378 834.835483,454.91926 L873.688536,432.47681 L914.896319,456.283166 L914.896319,504.179286 L915.020252,504.250138 L956.351969,528.127346 L956.351969,575.7312 L917.507768,598.164793 C916.976626,597.429701 916.126799,596.942592 915.153038,596.942592 C913.559611,596.942592 912.267165,598.235645 912.267165,599.829821 C912.267165,601.335431 913.435678,602.548776 914.896319,602.672767 L914.896319,647.867645 L956.61754,671.966266 L995.718459,649.373256 C996.240749,650.117204 997.099429,650.604313 998.07319,650.604313 C999.666616,650.604313 1000.95906,649.31126 1000.95906,647.725941 C1000.95906,646.211474 999.799402,644.989273 998.329908,644.874138 L998.329908,599.971525 L1037.18296,577.529076 C1037.70525,578.273024 1038.56393,578.760134 1039.52884,578.760134 C1041.13112,578.760134 1042.41471,577.46708 1042.41471,575.872904 C1042.41471,574.376151 1041.2639,573.153949 1039.78556,573.012245 L1039.78556,528.127346 L1081.25006,504.179286 L1081.25006,458.984408 C1082.71955,458.860416 1083.87921,457.638215 1083.87921,456.132605 C1083.87921,455.689778 1083.78184,455.282378 1083.60479,454.91926 L1122.45784,432.47681 L1161.3109,454.91926 C1161.1427,455.282378 1161.04533,455.689778 1161.04533,456.123748 C1161.04533,457.638215 1162.19613,458.860416 1163.66563,458.984408 L1163.66563,504.179286 L1163.79841,504.250138 L1205.38685,528.26905 L1244.49662,505.684896 C1245.01006,506.428845 1245.87759,506.907097 1246.8425,506.907097 C1247.82511,506.907097 1248.67494,506.428845 1249.19723,505.684896 L1288.05028,528.127346 L1288.05028,575.7312 L1249.19723,598.164793 C1248.67494,597.429701 1247.82511,596.942592 1246.8425,596.942592 C1245.25792,596.942592 1243.96548,598.235645 1243.96548,599.829821 C1243.96548,601.326575 1245.11628,602.548776 1246.59463,602.672767 L1246.59463,647.57538 L1205.38685,671.381735 L1166.52494,648.939286 C1166.70199,648.567311 1166.79937,648.159911 1166.79937,647.725941 C1166.79937,646.131765 1165.50692,644.838712 1163.92235,644.838712 C1162.33777,644.838712 1161.04533,646.131765 1161.04533,647.725941 C1161.04533,648.159911 1161.1427,648.567311 1161.3109,648.939286 L1122.20112,671.52344 L1122.20112,719.428416 L1083.35692,741.862009 C1082.83463,741.126917 1081.97595,740.639808 1081.00219,740.639808 C1079.41762,740.639808 1078.11632,741.932862 1078.11632,743.518181 C1078.11632,745.023791 1079.28483,746.254849 1080.74548,746.361127 L1080.74548,791.564862 L1122.45784,815.672339 L1161.56761,793.070472 C1162.09876,793.814421 1162.94858,794.30153 1163.92235,794.30153 C1165.51577,794.30153 1166.79937,793.008476 1166.79937,791.414301 C1166.79937,789.90869 1165.64856,788.695346 1164.17906,788.562498 L1164.17906,743.668742 L1203.03212,721.226292 C1203.54555,721.970241 1204.40423,722.448493 1205.38685,722.448493 C1206.36061,722.448493 1207.21929,721.970241 1207.74158,721.226292 L1246.8425,743.810446 L1285.95227,721.226292 C1286.47456,721.970241 1287.32439,722.448493 1288.307,722.448493 C1289.90043,722.448493 1291.18402,721.164296 1291.18402,719.570121 C1291.18402,718.055654 1290.02436,716.842309 1288.56372,716.718318 L1288.56372,671.824562 L1329.7715,648.018206 L1368.6157,670.4518 C1368.45636,670.823774 1368.35898,671.231174 1368.35898,671.674001 C1368.35898,673.179611 1369.50979,674.401812 1370.98814,674.516947 L1370.98814,719.720682 L1410.08906,742.304836 C1409.91201,742.67681 1409.82348,743.075354 1409.82348,743.518181 C1409.82348,745.023791 1410.96544,746.254849 1412.43493,746.361127 L1412.43493,791.564862 L1451.53585,814.157872 C1451.38536,814.529847 1451.27913,814.928391 1451.27913,815.371217 C1451.27913,816.956536 1452.56273,818.24959 1454.1473,818.24959 C1455.74958,818.24959 1457.04203,816.956536 1457.04203,815.371217 C1457.04203,814.928391 1456.9358,814.529847 1456.75875,814.157872 L1495.86852,791.564862 L1495.86852,746.361127 C1497.33802,746.254849 1498.49768,745.023791 1498.49768,743.518181 C1498.49768,743.075354 1498.39145,742.67681 1498.22325,742.304836 L1537.34188,719.720682 L1537.34188,674.516947 C1538.80252,674.401812 1539.96218,673.179611 1539.96218,671.674001 C1539.96218,671.231174 1539.85595,670.823774 1539.68776,670.4518 L1578.53196,648.018206 L1617.40271,670.4518 C1617.22567,670.823774 1617.12829,671.231174 1617.12829,671.674001 C1617.12829,673.179611 1618.2791,674.401812 1619.74859,674.516947 L1619.74859,719.428416 L1580.90439,741.862009 C1580.3821,741.126917 1579.51457,740.639808 1578.54081,740.639808 C1576.94738,740.639808 1575.66379,741.932862 1575.66379,743.518181 C1575.66379,745.023791 1576.82345,746.254849 1578.29294,746.361127 L1578.29294,791.564862 L1620.00531,815.672339 L1659.10623,793.070472 C1659.62852,793.814421 1660.4872,794.30153 1661.46096,794.30153 C1663.06324,794.30153 1664.34683,793.008476 1664.34683,791.414301 C1664.34683,789.90869 1663.19602,788.695346 1661.71768,788.562498 L1661.71768,743.668742 L1700.57073,721.226292 C1701.10187,721.970241 1701.96055,722.448493 1702.92546,722.448493 C1703.89922,722.448493 1704.7579,721.970241 1705.28905,721.226292 L1744.13325,743.668742 L1744.13325,791.564862 L1783.24302,814.157872 C1783.07482,814.529847 1782.96859,814.928391 1782.96859,815.371217 C1782.96859,816.867971 1784.12825,818.099029 1785.6066,818.22302 L1785.6066,863.116776 L1746.74469,885.559226 C1746.23126,884.815277 1745.36373,884.337024 1744.38996,884.337024 C1742.80539,884.337024 1741.50409,885.621221 1741.50409,887.224254 C1741.50409,888.729864 1742.66375,889.943209 1744.13325,890.058343 L1744.13325,935.270934 L1783.24302,957.846232 C1783.07482,958.20935 1782.96859,958.625607 1782.96859,959.059577 C1782.96859,960.662609 1784.26104,961.946806 1785.85447,961.946806 C1787.44789,961.946806 1788.73149,960.662609 1788.73149,959.059577 C1788.73149,958.625607 1788.64296,958.20935 1788.45706,957.846232 L1827.56683,935.270934 L1827.56683,890.058343 C1829.04518,889.934352 1830.19599,888.703294 1830.19599,887.224254 C1830.19599,886.781427 1830.09861,886.374027 1829.92157,886.002052 L1869.04019,863.417898 L1869.04019,815.512922 L1907.88439,793.070472 C1908.40668,793.814421 1909.26536,794.30153 1910.23912,794.30153 C1911.83255,794.30153 1913.12499,793.008476 1913.12499,791.414301 C1913.12499,789.90869 1911.95648,788.695346 1910.48699,788.562498 L1910.48699,743.668742 L1951.69477,719.862386 L1990.54782,742.304836 C1990.38848,742.67681 1990.2911,743.075354 1990.2911,743.518181 C1990.2911,745.023791 1991.43306,746.254849 1992.91141,746.361127 L1992.91141,791.564862 L2032.01232,814.157872 C2031.84413,814.529847 2031.74675,814.928391 2031.74675,815.371217 C2031.74675,816.867971 2032.89756,818.099029 2034.36706,818.22302 L2034.36706,863.116776 L1992.91141,887.064836 L1992.91141,932.250857 C1991.43306,932.383705 1990.2911,933.605907 1990.2911,935.10266 C1990.2911,936.705693 1991.56585,937.998746 1993.15927,937.998746 C1994.12418,937.998746 1994.99171,937.520493 1995.52285,936.776545 L2034.62377,959.351842 L2076.34499,935.262078 L2076.34499,890.058343 C2077.81449,889.934352 2078.95644,888.703294 2078.95644,887.224254 C2078.95644,886.781427 2078.86792,886.374027 2078.69087,886.002052 L2117.54393,863.568459 L2158.75171,887.365958 L2158.75171,935.262078 L2200.47293,959.351842 L2239.57385,936.776545 C2240.10499,937.520493 2240.95482,937.998746 2241.93743,937.998746 C2242.91119,937.998746 2243.76987,937.520493 2244.28331,936.776545 L2283.14521,959.210138 L2283.14521,1004.11275 C2281.67572,1004.23674 2280.51606,1005.45009 2280.51606,1006.9557 C2280.51606,1008.54987 2281.80851,1009.84293 2283.39308,1009.84293 C2284.37569,1009.84293 2285.22552,1009.35582 2285.75666,1008.61187 L2324.86644,1031.20488 L2366.32209,1007.25682 L2405.17514,1029.69927 C2404.99809,1030.07124 2404.90957,1030.47864 2404.90957,1030.88604 C2404.90957,1032.49793 2406.19316,1033.79984 2407.77774,1033.79984 C2409.37116,1033.79984 2410.67246,1032.49793 2410.67246,1030.88604 C2410.67246,1030.47864 2410.56623,1030.07124 2410.38918,1029.69927 L2449.49896,1007.10626 L2449.49896,958.917872 L2407.77774,934.828108 L2368.67682,957.412262 C2368.15453,956.67717 2367.29585,956.190061 2366.32209,956.190061 C2365.34832,956.190061 2364.48964,956.67717 2363.96735,957.412262 L2325.1143,934.969812 L2325.1143,890.058343 C2326.57494,889.934352 2327.7346,888.703294 2327.7346,887.224254 C2327.7346,885.621221 2326.44216,884.337024 2324.86644,884.337024 C2323.87497,884.337024 2323.02514,884.815277 2322.50285,885.559226 L2283.39308,862.975072 L2241.93743,886.923131 L2203.07553,864.471825 C2203.24372,864.108707 2203.34995,863.701307 2203.34995,863.267337 C2203.34995,861.761727 2202.19029,860.539525 2200.7208,860.397821 L2200.7208,815.220656 L2159.26515,791.272596 L2159.26515,746.361127 C2160.73464,746.254849 2161.8943,745.023791 2161.8943,743.518181 C2161.8943,741.932862 2160.593,740.639808 2158.99958,740.639808 C2158.03467,740.639808 2157.17599,741.126917 2156.6537,741.862009 L2117.54393,719.277855 L2078.43415,741.862009 C2077.91186,741.126917 2077.07089,740.639808 2076.07942,740.639808 C2075.10566,740.639808 2074.24698,741.126917 2073.73355,741.862009 L2034.88049,719.428416 L2034.88049,671.824562 L2073.73355,649.373256 C2074.24698,650.117204 2075.10566,650.604313 2076.07942,650.604313 C2077.07089,650.604313 2077.91186,650.117204 2078.43415,649.373256 L2117.54393,671.95741 L2159.26515,647.867645 L2159.26515,602.672767 C2160.73464,602.548776 2161.8943,601.326575 2161.8943,599.829821 C2161.8943,598.235645 2160.593,596.942592 2158.99958,596.942592 C2158.03467,596.942592 2157.17599,597.429701 2156.6537,598.164793 L2117.54393,575.580639 L2076.07942,599.528699 L2037.23522,577.086249 C2037.40342,576.714275 2037.50965,576.306875 2037.50965,575.872904 C2037.50965,574.287585 2036.2172,572.985675 2034.62377,572.985675 C2033.03035,572.985675 2031.74675,574.287585 2031.74675,575.872904 C2031.74675,576.306875 2031.85298,576.714275 2032.01232,577.086249 L1992.91141,599.67926 L1992.91141,647.57538 L1954.0495,670.008973 C1953.52721,669.273881 1952.67738,668.795628 1951.69477,668.795628 C1950.72986,668.795628 1949.86233,669.273881 1949.34889,670.008973 L1910.23912,647.433675 L1868.5179,671.52344 L1868.5179,716.718318 C1867.04841,716.842309 1865.88875,718.055654 1865.88875,719.570121 C1865.88875,720.004091 1865.99497,720.411491 1866.16317,720.783466 L1827.31897,743.225915 L1788.45706,720.783466 C1788.62526,720.411491 1788.73149,720.004091 1788.73149,719.570121 C1788.73149,718.055654 1787.58068,716.842309 1786.09348,716.718318 L1786.09348,671.824562 L1824.96424,649.373256 C1825.48653,650.117204 1826.34521,650.604313 1827.31897,650.604313 C1828.90354,650.604313 1830.19599,649.31126 1830.19599,647.725941 C1830.19599,646.211474 1829.04518,644.989273 1827.56683,644.874138 L1827.56683,599.67926 L1788.45706,577.086249 C1788.64296,576.714275 1788.73149,576.306875 1788.73149,575.872904 C1788.73149,574.287585 1787.44789,572.985675 1785.85447,572.985675 C1784.26104,572.985675 1782.96859,574.287585 1782.96859,575.872904 C1782.96859,576.306875 1783.07482,576.714275 1783.25187,577.086249 L1744.13325,599.67926 L1744.13325,647.57538 L1702.92546,671.381735 L1661.71768,647.57538 L1661.71768,602.672767 C1663.19602,602.548776 1664.34683,601.326575 1664.34683,599.829821 C1664.34683,598.235645 1663.06324,596.942592 1661.46096,596.942592 C1660.4872,596.942592 1659.62852,597.429701 1659.10623,598.164793 L1620.25318,575.7312 L1620.25318,530.837444 C1621.72267,530.704596 1622.88233,529.482395 1622.88233,527.976785 C1622.88233,527.533958 1622.7761,527.135414 1622.60791,526.772296 L1661.71768,504.179286 L1661.71768,455.982044 L1661.59375,455.911191 L1622.60791,433.39789 C1622.7761,433.025915 1622.88233,432.618515 1622.88233,432.175688 C1622.88233,430.590369 1621.58103,429.297316 1620.00531,429.297316 C1618.41188,429.297316 1617.12829,430.590369 1617.12829,432.175688 C1617.12829,432.618515 1617.22567,433.025915 1617.40271,433.39789 L1578.29294,455.982044 L1578.29294,503.88702 L1539.43989,526.320613 C1538.90875,525.585521 1538.05007,525.098412 1537.09401,525.098412 C1535.48288,525.098412 1534.19043,526.382609 1534.19043,527.976785 C1534.19043,529.482395 1535.35895,530.704596 1536.82844,530.837444 L1536.82844,575.7312 L1497.96654,598.164793 C1497.4531,597.429701 1496.59442,596.942592 1495.6118,596.942592 C1494.02723,596.942592 1492.74364,598.235645 1492.74364,599.829821 C1492.74364,601.326575 1493.9033,602.548776 1495.36394,602.672767 L1495.36394,647.57538 L1456.51974,670.008973 C1455.9886,669.273881 1455.13877,668.795628 1454.1473,668.795628 C1453.18239,668.795628 1452.31486,669.273881 1451.80142,670.008973 L1412.94837,647.57538 L1412.94837,599.67926 L1373.8386,577.086249 C1374.01565,576.714275 1374.11302,576.306875 1374.11302,575.872904 C1374.11302,574.376151 1372.95336,573.153949 1371.48387,573.012245 L1371.48387,527.83508 L1332.38295,505.242069 C1332.54229,504.870095 1332.65737,504.462695 1332.65737,504.028725 C1332.65737,502.523114 1331.49771,501.300913 1330.02822,501.168065 L1330.02822,455.982044 L1329.89543,455.911191 L1290.91845,433.39789 C1291.07779,433.025915 1291.18402,432.618515 1291.18402,432.175688 C1291.18402,430.590369 1289.90043,429.297316 1288.307,429.297316 C1286.70472,429.297316 1285.42113,430.590369 1285.42113,432.175688 C1285.42113,432.618515 1285.52735,433.025915 1285.69555,433.39789 L1246.8425,455.840339 L1205.64357,432.033984 L1205.64357,387.131371 C1207.11306,387.00738 1208.26387,385.785179 1208.26387,384.279568 C1208.26387,383.836742 1208.15764,383.429341 1207.98944,383.066224 L1246.8425,360.623774 L1288.307,384.571834 L1327.41677,361.98768 C1327.93906,362.731628 1328.79774,363.209881 1329.7715,363.209881 C1331.35608,363.209881 1332.65737,361.916827 1332.65737,360.331508 C1332.65737,358.817042 1331.49771,357.603697 1330.02822,357.470849 L1330.02822,312.577093 L1368.88127,290.1435 C1369.39471,290.878592 1370.26224,291.356845 1371.22715,291.356845 C1372.82058,291.356845 1374.11302,290.072648 1374.11302,288.478472 C1374.11302,286.964005 1372.95336,285.75066 1371.48387,285.626669 L1371.48387,240.431791 L1371.35994,240.360939 L1329.7715,216.342027 L1290.66173,238.926181 C1290.13944,238.191089 1289.27191,237.703979 1288.307,237.703979 C1286.70472,237.703979 1285.42113,238.988176 1285.42113,240.582352 C1285.42113,242.087962 1286.59849,243.310164 1288.05028,243.443012 L1288.05028,288.336767 L1249.19723,310.770361 C1248.67494,310.035269 1247.82511,309.548159 1246.8425,309.548159 C1245.87759,309.548159 1245.01006,310.035269 1244.49662,310.770361 L1205.38685,288.186206 L1163.66563,312.284827 L1163.66563,360.180947 L1124.82143,382.61454 C1124.29914,381.879448 1123.4316,381.401196 1122.45784,381.401196 C1121.48408,381.401196 1120.6254,381.879448 1120.10311,382.61454 L1081.00219,360.030386 L1039.28097,384.129007 L1039.28097,432.033984 L998.07319,455.840339 L959.220137,433.39789 C959.388332,433.025915 959.485708,432.618515 959.485708,432.184545 C959.485708,430.678934 958.3349,429.456733 956.865406,429.323885 L956.865406,384.421273 L995.718459,361.98768 C996.240749,362.722772 997.099429,363.209881 998.07319,363.209881 C999.666616,363.209881 1000.95906,361.916827 1000.95906,360.331508 C1000.95906,358.817042 999.79055,357.603697 998.329908,357.470849 L998.329908,312.284827 L998.205975,312.213975 L956.61754,288.186206 L917.507768,310.770361 C916.976626,310.035269 916.126799,309.548159 915.153038,309.548159 C913.559611,309.548159 912.267165,310.841213 912.267165,312.426532 C912.267165,313.940999 913.426826,315.1632 914.896319,315.296048 L914.896319,360.180947 L876.043266,382.61454 C875.520977,381.879448 874.662297,381.401196 873.688536,381.401196 C872.714775,381.401196 871.856095,381.879448 871.333806,382.61454 L832.480753,360.180947 L832.480753,315.296048 C833.941394,315.1632 835.109907,313.940999 835.109907,312.426532 C835.109907,310.841213 833.808608,309.548159 832.224034,309.548159 C831.250273,309.548159 830.391593,310.035269 829.869303,310.770361 L791.016251,288.336767 L791.016251,240.732913 L829.869303,218.290463 C830.391593,219.025555 831.250273,219.512665 832.224034,219.512665 C833.817461,219.512665 835.109907,218.219611 835.109907,216.634292 C835.109907,215.119825 833.950246,213.897624 832.480753,213.782489 L832.480753,168.587611 L832.35682,168.507902 L793.370981,145.9946 C793.539176,145.631483 793.645405,145.224082 793.645405,144.790112 C793.645405,143.195937 792.361811,141.902883 790.768384,141.902883 C789.174958,141.902883 787.882512,143.195937 787.882512,144.790112 C787.882512,145.224082 787.979888,145.631483 788.156935,145.9946 L749.056016,168.587611 L749.056016,216.483731 L710.185258,238.926181 C709.671821,238.191089 708.813141,237.703979 707.83938,237.703979 C706.245954,237.703979 704.96236,238.988176 704.96236,240.582352 C704.96236,242.087962 706.113168,243.31902 707.582661,243.443012 L707.582661,288.336767 L666.118159,312.284827 L666.118159,360.180947 L627.273959,382.61454 C626.742817,381.879448 625.884137,381.401196 624.919229,381.401196 C623.945468,381.401196 623.086788,381.879448 622.564498,382.61454 L583.702593,360.180947 L583.702593,312.284827 L583.57866,312.213975 L544.601674,289.700673 C544.761016,289.328699 544.876097,288.921299 544.876097,288.478472 C544.876097,286.972862 543.716437,285.759517 542.246943,285.626669 L542.246943,240.732913 L581.099996,218.290463 C581.613433,219.025555 582.480966,219.512665 583.445874,219.512665 C585.048153,219.512665 586.331747,218.219611 586.331747,216.634292 C586.331747,215.119825 585.180939,213.897624 583.702593,213.782489 L583.702593,168.587611 L583.57866,168.507902 L541.990224,144.48899 L502.880453,167.073144 C502.358163,166.329196 501.508336,165.8598 500.534575,165.8598 C499.551962,165.8598 498.693282,166.329196 498.170992,167.073144 L459.317939,144.639551 L459.317939,99.7369388 C460.796285,99.6129473 461.947093,98.390746 461.947093,96.8851358 C461.947093,95.2998167 460.654647,94.0067632 459.06122,94.0067632 C458.096312,94.0067632 457.237632,94.4850158 456.715342,95.2289645 L417.853437,72.7865148 L417.853437,27.8927589 C419.331783,27.7599109 420.482591,26.5465662 420.482591,25.0409559 C420.482591,23.4467803 419.198997,22.1537268 417.605571,22.1537268 C416.63181,22.1537268 415.77313,22.640836 415.25084,23.3847846 L376.149921,0.791773876 L334.4287,24.8903949 L334.4287,70.0852728 C332.959207,70.2092642 331.790694,71.422609 331.790694,72.9370758 C331.790694,73.3710458 331.896922,73.7784463 332.07397,74.1504206 L292.964198,96.7434313 L292.964198,141.929453 C291.494705,142.053444 290.343897,143.275645 290.343897,144.790112 C290.343897,146.366575 291.62749,147.668485 293.220917,147.668485 C294.194678,147.668485 295.053358,147.181376 295.575647,146.446284 L334.676567,169.030438 L373.786338,146.446284 C374.308628,147.181376 375.167308,147.668485 376.149921,147.668485 C377.114829,147.668485 377.982362,147.181376 378.495799,146.446284 L417.348852,168.879877 L417.348852,213.782489 C415.879359,213.897624 414.719698,215.119825 414.719698,216.634292 C414.719698,218.219611 416.012144,219.512665 417.605571,219.512665 C418.579331,219.512665 419.438011,219.025555 419.960301,218.290463 L458.813354,240.732913 L458.813354,285.626669 C457.343861,285.759517 456.1842,286.972862 456.1842,288.478472 C456.1842,288.921299 456.290429,289.328699 456.458624,289.700673 L417.348852,312.284827 L417.348852,357.470849 C415.879359,357.603697 414.719698,358.817042 414.719698,360.331508 C414.719698,360.765478 414.825927,361.172879 414.994122,361.535997 L376.149921,383.987303 L334.942138,360.180947 L334.942138,315.296048 C336.402779,315.1632 337.562439,313.940999 337.562439,312.426532 C337.562439,310.841213 336.278846,309.548159 334.685419,309.548159 C333.711658,309.548159 332.844126,310.035269 332.321836,310.770361 L293.212065,288.186206 L254.111145,310.770361 C253.588856,310.035269 252.739028,309.548159 251.756415,309.548159 C250.782654,309.548159 249.923974,310.035269 249.401685,310.770361 L210.539779,288.336767 L210.539779,243.443012 C212.018125,243.31902 213.168933,242.087962 213.168933,240.582352 C213.168933,238.988176 211.88534,237.703979 210.300765,237.703979 C209.318152,237.703979 208.459472,238.191089 207.937182,238.926181 L168.827411,216.342027 L127.362909,240.290087 L88.5187084,217.847637 C88.6780511,217.484519 88.7931319,217.068262 88.7931319,216.634292 C88.7931319,215.040116 87.5006859,213.755919 85.9072592,213.755919 C84.3138326,213.755919 83.0302389,215.040116 83.0302389,216.634292 C83.0302389,217.068262 83.127615,217.484519 83.29581,217.847637 L44.1948908,240.431791 L44.1948908,288.336767 L5.34183801,310.770361 C4.81954817,310.035269 3.96086826,309.548159 2.97825517,309.548159 C1.3936809,309.548159 0.101234853,310.841213 0.101234853,312.426532 C0.101234853,313.940999 1.26089535,315.1632 2.7303888,315.296048 L2.7303888,315.296048 Z" id="Fill-3"></path>
                    </g>
                </g>
            </g>
        </g>
    </g>
</svg>