<?xml version="1.0" encoding="UTF-8"?>
<svg width="468px" height="374px" viewBox="0 0 468 374" version="1.1" xmlns="http://www.w3.org/2000/svg" xmlns:xlink="http://www.w3.org/1999/xlink">
    <title>store-anything-icon</title>
    <defs>
        <ellipse id="path-1" cx="27.767545" cy="27.3818847" rx="27.767545" ry="27.3818847"></ellipse>
    </defs>
    <g id="Page-1" stroke="none" stroke-width="1" fill="none" fill-rule="evenodd">
        <g id="solid-homepage-new-scaled-graphics-V2" transform="translate(-154.000000, -1014.000000)">
            <g id="store-anything-icon" transform="translate(154.000000, 1014.000000)">
                <g id="Group-5">
                    <path d="M241.253802,54.305633 L344.621527,113.985017 C349.239672,116.651304 352.084567,121.578806 352.084567,126.911381 L352.084567,246.270149 C352.084567,251.602724 349.239672,256.530226 344.621527,259.196513 L241.253802,318.875897 C236.635657,321.542185 230.945867,321.542185 226.327722,318.875897 L122.959997,259.196513 C118.341852,256.530226 115.496957,251.602724 115.496957,246.270149 L115.496957,126.911381 C115.496957,121.578806 118.341852,116.651304 122.959997,113.985017 L226.327722,54.305633 C230.945867,51.6393456 236.635657,51.6393456 241.253802,54.305633 Z" id="Polygon" stroke-opacity="0.184877622" stroke="#235367" stroke-width="6.37312007" transform="translate(233.790762, 186.590765) rotate(30.000000) translate(-233.790762, -186.590765) "></path>
                    <g id="humaaan-9" transform="translate(204.799988, 31.999998)">
                        <g id="Mask">
                            <g id="path-1-link" transform="translate(1.542641, 1.542641)" fill="#000000" fill-rule="nonzero">
                                <ellipse id="path-1" cx="27.767545" cy="27.3818847" rx="27.767545" ry="27.3818847"></ellipse>
                            </g>
                            <ellipse id="Oval" stroke="#FFFFFF" stroke-width="1.67999987" fill="#FAE100" cx="29.3101864" cy="28.9245261" rx="28.9245261" ry="28.5388657"></ellipse>
                        </g>
                        <g id="Clipped" transform="translate(1.542641, 1.542641)">
                            <mask id="mask-2" fill="white">
                                <use xlink:href="#path-1"></use>
                            </mask>
                            <ellipse stroke="#D6DFE3" stroke-width="5.67999966" cx="27.767545" cy="27.3818847" rx="30.6075449" ry="30.2218845"></ellipse>
                            <g id="Group" mask="url(#mask-2)">
                                <g transform="translate(-37.794714, 0.771321)">
                                    <g id="Head/Front/Hijab-1" transform="translate(64.879186, 21.010452) rotate(15.000000) translate(-64.879186, -21.010452) translate(50.879186, 3.010452)">
                                        <g id="Head" transform="translate(8.105360, 1.624028)" fill="#B28B67" fill-rule="nonzero">
                                            <path d="M17.1666893,4.11473645 C19.7746861,8.98052319 19.4647883,21.3229946 16.0941847,22.1926465 C14.7500826,22.5394392 11.8868472,21.6900159 8.97264484,19.9319269 L10.8013752,32.885698 L0,32.885698 L3.71786589,15.5366821 C1.64438874,13.1002349 0.24109013,10.1144353 0.475609904,6.76880192 C1.15139519,-2.87187674 14.5586924,-0.751050266 17.1666893,4.11473645 Z" id="Path"></path>
                                        </g>
                                        <g id="Hijab" transform="translate(0.004328, 0.272562)" fill-rule="nonzero">
                                            <path d="M22.8336572,2.25761301 C22.5862475,2.10980572 22.0686231,1.7980361 21.8063898,1.68504081 C21.7443339,1.65785056 21.3098355,1.34757224 21.2981509,1.35143069 C20.9691821,1.46259396 20.0165815,1.87274545 19.9348189,2.2271563 C19.9221461,2.25401385 19.9097058,2.27920793 19.8975854,2.30122629 C19.7626028,2.54684589 19.6387527,2.79857497 19.5205994,3.05335881 C19.2613309,3.61264924 19.0375227,4.19719425 18.8237714,4.77714202 C18.4074302,5.90661108 18.045733,7.0623933 17.713189,8.22080686 C17.3746284,9.40005917 17.087282,10.5930729 16.7656087,11.7771947 C16.3027328,13.4810767 15.7103098,15.1431602 15.2506312,16.8463465 C14.9570938,17.9338658 14.7938301,19.0341485 14.8709131,20.1534552 C14.8716688,20.1669142 14.8721048,20.1801918 14.8733256,20.1938625 C14.8737906,20.1994578 14.8744882,20.2049927 14.8749823,20.210588 C14.8880911,20.3826517 14.9067806,20.555139 14.9316901,20.7281403 C14.9534896,20.8760686 14.9753472,21.0245413 14.9986581,21.1729837 C15.4185454,20.3348949 15.7391142,19.4114245 16.0793026,18.5349246 C16.1125831,18.4491195 16.1443232,18.3626793 16.1753366,18.2759669 C16.2850316,18.098217 16.3968776,17.9217376 16.5099733,17.7459234 C17.2231946,16.6372629 17.9392352,15.5326855 18.6231579,14.4039725 C19.8532888,12.3738982 21.0719385,10.3009063 22.5303536,8.43672582 C22.9609953,7.88623671 23.4016647,7.34418591 23.8269002,6.78919026 C24.0688746,6.47337203 24.3045707,6.15226093 24.5326224,5.82543352 C24.6956535,5.59173045 25.4044434,4.77714202 25.147775,4.28771752 C25.0164526,4.03730721 23.4754633,2.64108929 22.8336572,2.25761301 Z" id="Front" fill="#2C2C2C"></path>
                                            <path d="M21.884494,1.72589819 C22.1250949,1.80682999 22.0080399,1.30567966 21.7749984,1.12932384 C20.6953667,0.312304971 16.5678032,0.0158256615 12.9759095,0.762175055 C10.5696772,1.26215921 7.77116831,2.50659424 5.84923919,4.10641377 C4.11667171,5.54865483 2.92514042,7.86064275 2.31168443,10.0944115 C1.66757636,12.4399121 1.57002282,14.8851874 1.92887414,17.2903847 C2.00771067,17.8187007 2.17711148,18.3221706 2.27149616,18.8392804 C2.37778628,19.4216147 2.43230847,19.9822876 2.62178859,20.5488491 C2.73782222,20.895702 2.9350024,21.2357349 3.03400709,21.5845707 C3.14701995,21.9826178 3.07813423,22.3508617 2.99571422,22.7557287 C2.86140781,23.4156054 2.69487971,24.0741302 2.45822205,24.704354 C2.10283574,25.6507261 1.67157446,26.5370712 1.40118471,27.519135 C1.0414153,28.8258496 -0.463520266,33.0781182 0.636285948,34.2371651 L21.5723226,34.2371651 C21.0451366,32.7977481 19.4626869,31.1036922 19.1423357,29.5628181 C18.9536552,28.6551121 18.8638906,26.672808 18.844137,26.6007635 C18.372341,23.3453936 17.4511186,21.790813 16.874152,21.2266362 C16.2971854,20.6624594 15.5287085,20.4889722 15.4891126,19.9995927 C15.3254572,17.9755581 16.1295483,16.0362163 16.7191638,14.1472275 C17.421881,11.8958533 17.9368654,9.58862811 18.6613203,7.344885 C18.9821158,6.35131444 20.6352328,1.30567966 21.884494,1.72589819 Z" id="Turban" fill="#8991DC"></path>
                                            <path d="M6.46890895,21.5696092 C10.7927608,22.9252351 10.3111257,25.7239892 15.7570496,28.5583519 L15.3019482,28.8343668 C10.5333333,26.864491 9.41860465,22.6394753 6.15203734,21.9551757 L6.46890895,21.5696092 Z M9.99732788,6.88901561 C10.6655544,11.9609644 10.8606423,14.8580656 14.341757,20.4061874 L13.9713645,20.5194278 C10.3887291,15.6887955 9.82082641,11.7460944 9.65156471,6.91687113 L9.99732788,6.88901561 Z M3.95244387,10.5253642 C5.42366867,14.0986734 6.0944646,16.2087652 10.2028637,19.1003515 L9.88561874,19.3227018 C5.80714551,17.009049 4.61945199,14.2492422 3.64299011,10.6742257 L3.95244387,10.5253642 Z M14.5440678,4.05440113 C13.7545804,6.56180093 13.5847792,7.90024181 13.7545804,11.3262437 L13.3672959,11.3262437 C12.6438079,8.09312768 13.2877179,5.04948951 14.0572959,4.05440113 L14.5440678,4.05440113 Z" id="Shade" fill-opacity="0.2" fill="#000000"></path>
                                        </g>
                                    </g>
                                    <g id="Bottom/Standing/Sprint" transform="translate(0.000000, 62.139084)">
                                        <path d="M82.6077755,8.78245491 C73.9918109,15.8060799 77.2406306,77.3514108 76.6654013,78.1265437 C76.4097432,78.4710473 62.7592129,81.4076378 35.7138096,86.9363152 L36.8789407,91.6993475 C68.512975,90.1156403 85.2523634,88.1497474 87.0971072,85.801669 C89.7382519,82.4398932 93.0091623,63.6438233 96.909839,29.4134592 L82.6077755,8.78245491 Z" id="Leg" fill="#B28B67" fill-rule="nonzero" transform="translate(66.311824, 50.240901) rotate(-55.000000) translate(-66.311824, -50.240901) "></path>
                                        <path d="M40.2684645,81.9218082 L42.3210395,89.5929369 C65.900038,92.28903 81.4464511,88.931659 86.9203683,83.7260924 C90.5696462,80.2557146 93.8489354,61.5107209 96.7582345,27.4911111 L81.4583781,5.64065186 C60.9492007,21.1124166 73.1471307,71.7246826 72.6226689,72.8831145 C72.0982071,74.0415464 59.662194,74.9629639 40.2684645,81.9218082 Z" id="Pant" fill="#2F3676" fill-rule="nonzero" transform="translate(68.513349, 48.093515) rotate(-55.000000) translate(-68.513349, -48.093515) "></path>
                                        <g id="Accessories/Shoe/Flat-Sneaker" transform="translate(87.993545, 101.606973) rotate(20.000000) translate(-87.993545, -101.606973) translate(74.493545, 96.606973)" fill="#E4E4E4" fill-rule="nonzero">
                                            <path d="M1.20504907,2.9594648 C0.701721224,4.30449113 0.4500573,5.31091099 0.4500573,5.97872438 C0.4500573,6.79108497 0.585260906,7.97652119 0.855668115,9.53503296 C1.79716034,9.53503296 10.2585094,9.53503296 26.2397154,9.53503296 C26.8993569,7.35219169 26.5185736,6.17374595 25.0973656,5.99969566 C23.6761576,5.82564545 22.4955361,5.66849202 21.5555009,5.52823537 L9.75785147,0.263739382 C9.5306585,0.162358456 9.26429678,0.264349266 9.16291585,0.491542239 C9.16113904,0.495524105 9.15942007,0.499531579 9.15775957,0.503563349 L8.39951531,2.34464036 L8.39951531,2.34464036 C7.08384844,2.95908808 6.01473254,3.2663119 5.19216757,3.2663119 C4.52407899,3.2663119 3.60152904,2.9963249 2.42451775,2.4563509 L2.42452039,2.45634519 C1.9722654,2.24886547 1.43744476,2.44729505 1.22996507,2.89954999 C1.22094298,2.91921597 1.21263226,2.9392005 1.20504907,2.9594648 Z" id="shoe"></path>
                                        </g>
                                        <polygon id="Leg" fill="#997659" fill-rule="nonzero" points="47.7089593 13.1124518 24.4203112 69.0753097 1.53119484 116.387189 6.93147821 116.387189 66.0144494 13.1124518"></polygon>
                                        <g id="Accessories/Shoe/Flat-Sneaker" transform="translate(0.002886, 111.244293)" fill="#E4E4E4" fill-rule="nonzero">
                                            <path d="M1.20504907,2.9594648 C0.701721224,4.30449113 0.4500573,5.31091099 0.4500573,5.97872438 C0.4500573,6.79108497 0.585260906,7.97652119 0.855668115,9.53503296 C1.79716034,9.53503296 10.2585094,9.53503296 26.2397154,9.53503296 C26.8993569,7.35219169 26.5185736,6.17374595 25.0973656,5.99969566 C23.6761576,5.82564545 22.4955361,5.66849202 21.5555009,5.52823537 L9.75785147,0.263739382 C9.5306585,0.162358456 9.26429678,0.264349266 9.16291585,0.491542239 C9.16113904,0.495524105 9.15942007,0.499531579 9.15775957,0.503563349 L8.39951531,2.34464036 L8.39951531,2.34464036 C7.08384844,2.95908808 6.01473254,3.2663119 5.19216757,3.2663119 C4.52407899,3.2663119 3.60152904,2.9963249 2.42451775,2.4563509 L2.42452039,2.45634519 C1.9722654,2.24886547 1.43744476,2.44729505 1.22996507,2.89954999 C1.22094298,2.91921597 1.21263226,2.9392005 1.20504907,2.9594648 Z" id="shoe"></path>
                                        </g>
                                        <path d="M3.59819014,106.55869 L15.5976796,108.811135 C24.8756512,95.1577069 63.7043409,39.1740698 67.9615378,13.1124518 L41.2479696,13.1124518 C27.0310229,31.9523628 12.4420132,92.679408 3.59819014,106.55869 Z" id="Pant" fill="#5C63AB" fill-rule="nonzero"></path>
                                    </g>
                                    <g id="Body/Jacket" transform="translate(61.875789, 69.843750) rotate(10.000000) translate(-61.875789, -69.843750) translate(13.875789, 28.843750)">
                                        <path d="M16.0873885,41.9044393 L25.4924122,41.9414603 C19.685244,60.7059801 16.5502361,70.6623168 16.0873885,71.8104703 C15.0459813,74.3938158 17.2497389,78.3282059 18.1921531,80.4425178 C15.1227414,81.8173059 15.4497905,76.7259055 11.5778102,78.5290162 C8.04364614,80.1748125 5.35521634,83.1568841 1.27200039,80.6349978 C0.769993021,80.324947 0.219874683,79.1575485 1.54903009,78.2452882 C4.86044103,75.9725159 9.63238467,71.9947543 10.2771495,70.6854434 C11.1564014,68.8999639 13.0931477,59.3062959 16.0873885,41.9044393 L16.0873885,41.9044393 Z M72.6760095,40.1487124 L85.4251901,52.5979867 C89.1347313,54.1818209 92.1741722,55.9306936 94.5435128,57.844605 C95.0763419,58.4879357 95.6564128,59.7205906 93.1494779,59.1689952 C90.6425437,58.6173997 87.9808409,58.1500585 87.5096673,58.9661141 C87.0384937,59.7821697 88.4268455,61.0326567 87.5560584,62.1006636 C86.9755332,62.8126681 85.0231816,60.5479211 81.6990046,55.3064226 L68.441543,47.4826534 L72.6760095,40.1487124 Z" id="Skin" fill="#B28B67" fill-rule="nonzero"></path>
                                        <path d="M40.2579543,4.15728618 L44.0766129,3.15249366 C52.2115527,19.2585659 65.1917336,33.4040423 83.0171562,45.5889226 L71.7862687,61.9721203 C53.4569695,44.0055403 41.4530491,24.8646792 40.2579543,4.15728618 Z" id="Coat-Back" fill="#191847" fill-rule="nonzero" transform="translate(61.637555, 32.562307) rotate(5.000000) translate(-61.637555, -32.562307) "></path>
                                        <path d="M25.8500638,51.3557477 L60.5044759,51.3557477 C52.475845,31.8158528 48.4615295,15.2169439 48.4615295,1.55902098 L38.0080053,0 C29.7925176,13.2256397 27.4724422,29.5090802 25.8500638,51.3557477 Z" id="Shirt" fill="#DDE3E9" fill-rule="nonzero"></path>
                                        <path d="M38.4731594,-1.92055018e-14 C39.2896659,0.0281434614 40.5333102,0.0788494953 42.2040922,0.1521181 L42.2040922,0.1521181 L44.7300387,7.37760457 C44.9972278,16.1871618 46.5575718,33.9407967 49.4110706,60.6385091 L49.4110706,60.6385091 L26.6944097,60.6385615 C26.7539614,62.4824452 26.8521518,64.3435531 26.988981,66.2218852 L26.988981,66.2218852 L10.0980583,66.2218852 C12.6246424,37.6896964 21.8514115,15.6157347 37.7783657,-1.92055018e-14 L37.7783657,-1.92055018e-14 L37.7861573,0.00771320696 L37.7907962,-1.92055018e-14 L38.4731594,-1.92055018e-14 Z" id="Coat-Front" fill="#2F3676" fill-rule="nonzero"></path>
                                        <path d="M33.0509806,60.816017 L26.7002416,60.8155149 C26.4222754,52.546914 26.9203788,44.624266 28.1945518,37.0475708 C28.8417878,48.5407529 30.4603977,56.4632929 33.0509806,60.816017 Z" id="Shade" fill-opacity="0.1" fill="#000000" fill-rule="nonzero"></path>
                                        <polygon id="Light" fill-opacity="0.2" fill="#FFFFFF" fill-rule="nonzero" points="31.7507195 46.8508576 42.9522412 41.6383716 42.9522412 46.8508576"></polygon>
                                    </g>
                                </g>
                            </g>
                        </g>
                    </g>
                    <circle id="Oval" fill="#FE6B6B" cx="397.599976" cy="103.999994" r="27.1999984"></circle>
                    <circle id="Oval-Copy-4" fill="#FFC92D" cx="27.1999984" cy="183.199989" r="27.1999984"></circle>
                    <path d="M410.40436,110.108553 C411.850568,110.108553 413.022941,108.93618 413.022941,107.489973 L413.022941,93.5242111 C413.022941,92.0780038 411.850568,90.9056308 410.40436,90.9056308 L389.455718,90.9056308 C388.009511,90.9056308 386.837138,92.0780038 386.837138,93.5242111 L386.837138,107.489973 C386.837138,108.93618 388.009511,110.108553 389.455718,110.108553 L410.40436,110.108553 Z M410.077038,107.489973 L389.783041,107.489973 C389.602385,107.489973 389.455718,107.343306 389.455718,107.16265 L389.455718,93.8515336 C389.455718,93.6708776 389.602385,93.5242111 389.783041,93.5242111 L410.077038,93.5242111 C410.257694,93.5242111 410.40436,93.6708776 410.40436,93.8515336 L410.40436,107.16265 C410.40436,107.343306 410.257694,107.489973 410.077038,107.489973 Z M393.820019,99.1978017 C395.025156,99.1978017 396.002169,98.2207887 396.002169,97.0156515 C396.002169,95.8105143 395.025156,94.8335013 393.820019,94.8335013 C392.614881,94.8335013 391.637868,95.8105143 391.637868,97.0156515 C391.637868,98.2207887 392.614881,99.1978017 393.820019,99.1978017 Z M405.1672,115.345713 C406.613407,115.345713 407.78578,114.17334 407.78578,112.727133 L407.78578,111.854273 L405.1672,111.854273 L405.1672,112.399811 C405.1672,112.580467 405.020533,112.727133 404.839877,112.727133 L384.54588,112.727133 C384.365224,112.727133 384.218558,112.580467 384.218558,112.399811 L384.218558,99.0886942 C384.218558,98.9080382 384.365224,98.7613717 384.54588,98.7613717 L385.091418,98.7613717 L385.091418,96.1427914 L384.218558,96.1427914 C382.77235,96.1427914 381.599977,97.3151644 381.599977,98.7613717 L381.599977,112.727133 C381.599977,114.17334 382.77235,115.345713 384.218558,115.345713 L405.1672,115.345713 Z M407.78578,104.871392 L407.78578,100.507092 L403.884441,96.6056992 C403.62872,96.3500317 403.214239,96.3500317 402.958572,96.6056992 L397.311459,102.252812 L395.15584,100.09714 C394.900119,99.8414721 394.485638,99.8414721 394.229971,100.09714 L392.074298,102.252812 L392.074298,104.871392 L407.78578,104.871392 Z" id="i" fill="#FFFFFF" fill-rule="nonzero"></path>
                    <path d="M28.3458687,188.682765 L31.057201,183.260101 L32.2628177,185.671387 L39.4639135,185.671387 C40.778691,184.149316 41.5260928,182.250856 41.5260928,180.216012 C41.5315221,174.809756 36.8289777,171.705626 32.950227,171.705626 C30.9590149,171.705626 29.0769103,172.376627 27.5657607,173.609573 C26.054611,172.376627 24.1725064,171.705626 22.1812943,171.705626 C18.3025436,171.705626 13.5999992,174.809756 13.5999992,180.216012 C13.5999992,182.250856 14.3473963,184.149316 15.6621205,185.671387 L22.0339885,185.671387 L23.6651671,181.759873 L26.7692971,188.650001 C27.0693428,189.321055 28.0185462,189.342845 28.3458687,188.682765 Z M27.609393,186.255123 L24.4343538,179.201333 C24.12344,178.503003 23.1250636,178.519411 22.8305053,179.223123 L20.8720042,183.925667 L17.6042662,183.925667 C14.3964627,180.134181 17.2223899,174.324206 22.1812943,174.324206 C23.8724607,174.324206 24.9635359,174.66245 27.5657607,177.237398 C30.3534363,174.482434 31.3354039,174.324206 32.950227,174.324206 C37.9255402,174.324206 40.7350586,180.134181 37.5272551,183.925667 L33.3430247,183.925667 L31.8373091,180.914289 C31.5154739,180.270566 30.5989282,180.270566 30.277093,180.914289 L27.609393,186.255123 Z M29.9770473,195.15282 L37.7945899,187.417108 L34.0740131,187.417108 L28.133141,193.292558 C27.8166866,193.603525 27.3093474,193.603525 26.9929462,193.292558 L21.0575083,187.417108 L17.3369315,187.417108 L25.154474,195.15282 C26.491041,196.473031 28.6404803,196.478465 29.9770473,195.15282 Z" id="h" fill="#FFFFFF" fill-rule="nonzero"></path>
                    <line x1="68.3999959" y1="101.999994" x2="176.399989" y2="130.799992" id="Path-7" stroke="#1DE1B9" stroke-width="1.5999999" stroke-linecap="round" stroke-linejoin="round" stroke-dasharray="3.199999809265137,3.199999809265137"></line>
                    <circle id="Oval-Copy-3" fill="#1DE1B9" cx="63.9999962" cy="95.9999943" r="27.1999984"></circle>
                    <path d="M54.0371576,109.091434 C56.7299502,109.091434 58.9224358,107.391531 59.2153959,105.212683 C59.2508771,105.064845 59.2710684,104.908269 59.2721339,104.741838 C59.2721339,104.736936 59.2737854,104.732035 59.2737854,104.727134 L59.2737854,95.1256726 L74.112407,90.4394837 L74.112407,97.4763854 C73.3399173,97.1021807 72.452886,96.8713928 71.4943595,96.8713928 C68.6019449,96.8713928 66.2571989,98.8255254 66.2571989,101.235693 C66.2571989,103.645861 68.6019449,105.599994 71.4943595,105.599994 C74.1876848,105.599994 76.3801704,103.899025 76.6731305,101.719591 C76.7069602,101.578306 76.7249672,101.428816 76.7276842,101.271174 L76.7320528,101.235693 L76.7320528,101.235693 C76.73152,101.234042 76.7309873,101.232976 76.7309873,101.231325 L76.7309873,82.9061641 C76.7309873,81.9094925 75.9148652,81.1599111 74.9890496,81.1599111 C74.8155857,81.1599111 74.638286,81.1861225 74.4615191,81.2422745 L57.8771773,86.4794351 C57.1521558,86.7085715 56.6557379,87.3790393 56.6557379,88.1427919 L56.6557379,100.968359 C55.8827155,100.593621 54.9962169,100.362833 54.0371576,100.362833 C51.1447431,100.362833 48.7999971,102.316966 48.7999971,104.727134 C48.7999971,107.137301 51.1447431,109.091434 54.0371576,109.091434 Z M59.2743182,92.3794451 L59.2743182,88.7843312 L74.112407,84.0987283 L74.112407,87.6937889 L59.2743182,92.3794451 Z M71.4943595,102.981413 C69.9510316,102.981413 68.8757792,102.061085 68.8757792,101.235693 C68.8757792,100.409769 69.9510316,99.4899731 71.4943595,99.4899731 C73.0371546,99.4899731 74.112407,100.409183 74.1129398,101.23516 L74.1129398,101.236226 C74.112407,102.061618 73.0371546,102.981413 71.4943595,102.981413 Z M54.0371576,106.472854 C52.4938298,106.472854 51.4185774,105.552526 51.4185774,104.727134 C51.4185774,103.901209 52.4938298,102.981413 54.0371576,102.981413 C55.5804855,102.981413 56.6557379,103.901209 56.6557379,104.727134 C56.6557379,105.553058 55.5804855,106.472854 54.0371576,106.472854 Z" id="m" fill="#FFFFFF" fill-rule="nonzero"></path>
                    <line x1="47.1999972" y1="182.399989" x2="156.889864" y2="186.709199" id="Path-8" stroke="#FFC92D" stroke-width="1.5999999" stroke-linecap="round" stroke-linejoin="round" stroke-dasharray="3.199999809265137,3.199999809265137"></line>
                    <line x1="86.9989854" y1="264.715966" x2="180.037038" y2="240.799986" id="Path-9" stroke="#8559FF" stroke-width="1.5999999" stroke-linecap="round" stroke-linejoin="round" stroke-dasharray="3.199999809265137,3.199999809265137"></line>
                    <circle id="Oval-Copy" fill="#B094FF" cx="63.9999962" cy="267.999984" r="27.1999984"></circle>
                    <path d="M72.7246246,281.091424 C74.1702991,281.091424 75.348639,279.918518 75.348639,278.472844 L75.348639,260.360997 C75.348639,259.668153 75.0649488,258.997153 74.573965,258.506169 L69.9969368,253.929088 C69.505953,253.438104 68.8403866,253.159901 68.1475432,253.159901 L57.018577,253.159901 C55.5729025,253.165335 54.3999968,254.338241 54.3999968,255.783915 L54.3999968,278.472844 C54.3999968,279.918518 55.5729025,281.091424 57.018577,281.091424 L72.7246246,281.091424 Z M72.7300587,278.472844 L57.018577,278.472844 L57.018577,255.783915 L65.747178,255.783915 L65.747178,261.457506 C65.747178,262.183113 66.3309138,262.766796 67.0564681,262.766796 L72.7300587,262.766796 L72.7300587,278.472844 Z M72.5118437,260.148216 L68.3603242,260.148216 L68.3603242,255.996696 L72.5118437,260.148216 Z M66.183608,275.854263 C66.4236658,275.854263 66.620038,275.657891 66.620038,275.417833 L66.620038,272.362823 L69.6750484,272.362823 C69.9151062,272.362823 70.1114784,272.166451 70.1114784,271.926393 L70.1114784,269.307813 C70.1114784,269.067755 69.9151062,268.871383 69.6750484,268.871383 L66.620038,268.871383 L66.620038,265.816372 C66.620038,265.576314 66.4236658,265.379942 66.183608,265.379942 L63.5650277,265.379942 C63.3249699,265.379942 63.1285977,265.576314 63.1285977,265.816372 L63.1285977,268.871383 L60.0735874,268.871383 C59.8335295,268.871383 59.6371573,269.067755 59.6371573,269.307813 L59.6371573,271.926393 C59.6371573,272.166451 59.8335295,272.362823 60.0735874,272.362823 L63.1285977,272.362823 L63.1285977,275.417833 C63.1285977,275.657891 63.3249699,275.854263 63.5650277,275.854263 L66.183608,275.854263 Z" id="f" fill="#FFFFFF" fill-rule="nonzero"></path>
                    <line x1="390.477913" y1="271.999984" x2="288.037214" y2="243.841473" id="Path-10" stroke="#D6DFE3" stroke-width="1.5999999" stroke-linecap="round" stroke-linejoin="round" stroke-dasharray="3.199999809265137,3.199999809265137"></line>
                    <circle id="Oval-Copy-2" fill="#D6DFE3" cx="397.599976" cy="271.999984" r="27.1999984"></circle>
                    <path d="M401.468466,282.399983 C403.028682,282.399983 404.29434,281.232511 404.29434,279.792324 L404.29434,276.611851 L410.278897,280.337862 C410.589864,280.556077 410.938976,280.648829 411.271786,280.648829 C412.177357,280.648829 413.022941,279.93963 413.022941,278.930386 L413.022941,264.915504 C413.022941,263.90626 412.177357,263.197061 411.271786,263.197061 C410.933542,263.197061 410.589864,263.295247 410.278897,263.508028 L404.29434,267.239473 L404.29434,264.059 C404.29434,262.618813 403.028682,261.451341 401.468466,261.451341 L384.425851,261.451341 C382.865635,261.451341 381.599977,262.618813 381.599977,264.059 L381.599977,279.792324 C381.599977,281.232511 382.865635,282.399983 384.425851,282.399983 L401.468466,282.399983 Z M401.468466,279.781403 L384.425851,279.781403 C384.316744,279.781403 384.251268,279.748692 384.218558,279.721415 L384.218558,264.129909 C384.251268,264.10812 384.316744,264.069921 384.425851,264.069921 L401.468466,264.069921 C401.577573,264.069921 401.643048,264.102632 401.675759,264.129909 L401.675759,279.721415 C401.643048,279.743205 401.577573,279.781403 401.468466,279.781403 Z M410.40436,277.337405 L404.29434,273.529564 L404.29434,270.327248 L410.40436,266.519406 L410.40436,277.337405 Z" id="v" fill="#FFFFFF" fill-rule="nonzero"></path>
                    <line x1="439.999974" y1="183.599989" x2="314.680069" y2="188.755934" id="Path-11" stroke="#79B2FD" stroke-width="1.5999999" stroke-linecap="round" stroke-linejoin="round" stroke-dasharray="3.199999809265137,3.199999809265137"></line>
                    <line x1="377.340021" y1="104.461794" x2="291.715297" y2="129.241448" id="Path-12" stroke="#FE6B6B" stroke-width="1.5999999" stroke-linecap="round" stroke-linejoin="round" stroke-dasharray="3.199999809265137,3.199999809265137"></line>
                    <g id="Group" transform="translate(147.266602, 96.017965)">
                        <polygon id="Path-25" stroke="#FFFFFF" stroke-width="0.832000009" fill="#BFB0FF" points="88.0446515 162.759319 92.2223603 164.189136 121.149202 108.049757 146.671093 35.25036 142.100347 36.7574647 117.03913 105.677166"></polygon>
                        <polygon id="Path-24" stroke="#FFFFFF" stroke-width="0.832000009" fill="#BFB0FF" points="34.9403484 144.723455 111.853536 102.853966 167.413467 91.3728626 167.413467 96.5525813 111.853536 107.304239 34.9403484 150.609211"></polygon>
                        <polygon id="Path-24" stroke="#FFFFFF" stroke-width="0.832000009" fill="#BFB0FF" points="9.62326239 90.6668257 111.853536 102.853966 167.413467 91.3728626 167.413467 96.5525813 111.853536 107.304239 9.62326239 94.8885812"></polygon>
                        <polygon id="Path-24" stroke="#FFFFFF" stroke-width="0.832000009" fill="#BFB0FF" points="79.8326892 65.7068254 88.557536 167.749967 84.9081098 172.20024 76.1832631 65.7068254"></polygon>
                        <polygon id="Path-24" stroke="#FFFFFF" stroke-width="0.832000009" fill="#BFB0FF" points="13.2726886 93.9948257 136.813536 144.453966 134.82811 148.90424 12.9512624 98.9868258"></polygon>
                        <path d="M87.0367667,5.429658 L147.014621,30.4315385 L171.858262,90.7914174 L147.014621,151.151296 L87.0367667,176.153177 L27.0589123,151.151296 L2.21527155,90.7914174 L27.0589123,30.4315385 L87.0367667,5.429658 Z M87.0367667,9.9027633 L30.2018566,33.5945016 L6.66006605,90.7914174 L30.2018566,147.988333 L87.0367667,171.680072 L143.871677,147.988333 L167.413467,90.7914174 L143.871677,33.5945016 L87.0367667,9.9027633 Z" id="Combined-Shape" fill="#D8D8D8" opacity="0.321196057"></path>
                        <path d="M87.0367667,5.429658 L145.846568,31.3846722 L142.721272,32.676658 L87.0367667,9.9027633 L30.2018566,33.5945016 L7.57127155,88.575658 L2.21527155,90.7914174 L27.0589123,30.4315385 L87.0367667,5.429658 Z" id="Combined-Shape" fill="#8559FF"></path>
                        <polygon id="Path-2" stroke="#FFFFFF" stroke-width="1.66400002" fill="#BFB0FF" points="164.895512 95.0605096 144.448696 143.154035 147.19094 147.823508 171.858262 93.4007289"></polygon>
                        <path d="M173.706697,85.0136564 C176.685411,86.7443717 178.518328,89.9291958 178.518328,93.3742086 L178.518328,93.4272491 C178.518328,96.872262 176.685411,100.057086 173.706697,101.787801 C170.731794,103.516302 167.058337,103.516302 164.083434,101.787801 C161.10472,100.057086 159.271803,96.872262 159.271803,93.4272491 L159.271803,93.3742086 C159.271803,89.9291958 161.10472,86.7443717 164.083434,85.0136564 C167.058337,83.2851555 170.731794,83.2851555 173.706697,85.0136564 Z" id="Polygon-Copy-8" stroke="#FFFFFF" stroke-width="3.44447982" fill="#BFB0FF"></path>
                        <path d="M90.7371993,160.310929 C93.7159134,162.041644 95.5488305,165.226468 95.5488305,168.671481 L95.5488305,168.724522 C95.5488305,172.169534 93.7159134,175.354359 90.7371993,177.085074 C87.7622962,178.813575 84.08884,178.813575 81.1139369,177.085074 C78.1352227,175.354359 76.3023057,172.169534 76.3023057,168.724522 L76.3023057,168.671481 C76.3023057,165.226468 78.1352227,162.041644 81.1139369,160.310929 C84.08884,158.582428 87.7622962,158.582428 90.7371993,160.310929 Z" id="Polygon-Copy" stroke="#FFFFFF" stroke-width="3.44447982" fill="#BFB0FF"></path>
                        <path d="M91.4779983,1.51569087 C94.4567125,3.24640617 96.2896295,6.43123021 96.2896295,9.87624303 L96.2896295,9.92928357 C96.2896295,13.3742964 94.4567125,16.5591204 91.4779983,18.2898357 C90.0573633,19.115264 88.4774271,19.5465173 86.8903351,19.5835956 L78.0758302,44.5025611 C79.4778926,44.8780874 80.8396282,45.4382909 82.1238615,46.1807727 L82.9018441,46.6305646 C84.0839448,47.3139982 85.1277684,48.1634538 86.0140411,49.1371392 L134.828,34.2973151 L134.830464,34.1658892 C134.937571,30.841625 136.748614,27.7960394 139.637065,26.11777 C142.611968,24.389269 146.285424,24.389269 149.260327,26.11777 C152.239041,27.8484853 154.071958,31.0333094 154.071958,34.4783222 L154.071958,34.5313627 C154.071958,37.9763755 152.239041,41.1611996 149.260327,42.8919149 C146.285424,44.6204159 142.611968,44.6204159 139.637065,42.8919149 C138.38647,42.1652851 137.337845,41.1823416 136.542037,40.0314407 L89.1558732,55.3576194 C89.473077,56.9456958 89.4968851,58.6085826 89.1909569,60.2674814 L88.5631986,63.6715075 C88.2553221,65.3409714 87.6666555,66.916045 86.8436815,68.3423811 L108.28904,96.3333707 C111.001644,95.2453132 114.094259,95.4481687 116.665167,96.9419372 C119.643881,98.6726525 121.476798,101.857477 121.476798,105.302489 L121.476798,105.35553 C121.476798,107.452907 120.797416,109.453843 119.593708,111.088918 L140.368578,138.205338 C142.392866,137.967887 144.475902,138.378253 146.297131,139.436438 C149.275845,141.167153 151.108762,144.351977 151.108762,147.79699 L151.108762,147.85003 C151.108762,151.295043 149.275845,154.479867 146.297131,156.210582 C143.322227,157.939083 139.648771,157.939083 136.673868,156.210582 C133.695154,154.479867 131.862237,151.295043 131.862237,147.85003 L131.862237,147.79699 C131.862237,145.489016 132.684901,143.297823 134.12362,141.58241 L113.955725,114.779103 C111.633233,115.301349 109.160438,114.947008 107.041905,113.716082 C104.063191,111.985367 102.230274,108.800543 102.230274,105.35553 L102.230274,105.302489 C102.230274,103.677535 102.63807,102.110469 103.381555,100.726583 L82.5446434,73.0341279 C81.4653938,73.7893085 80.2756857,74.4050571 78.9990624,74.853847 C78.3313515,75.0885771 77.6537805,75.2753022 76.9710072,75.414803 L40.4273479,140.121524 C41.6829413,141.776697 42.3936982,143.821063 42.3936982,145.966323 L42.3936982,146.019364 C42.3936982,149.464377 40.5607812,152.649201 37.582067,154.379916 C34.607164,156.108417 30.9337077,156.108417 27.9588047,154.379916 C24.9800905,152.649201 23.1471735,149.464377 23.1471735,146.019364 L23.1471735,145.966323 C23.1471735,142.521311 24.9800905,139.336486 27.9588047,137.605771 C29.8579414,136.50232 32.0417642,136.103297 34.1467939,136.408701 L68.5270204,74.7646076 C67.0263738,74.2082492 65.602153,73.4142765 64.3128492,72.3924923 L63.6353367,71.855558 C62.2960242,70.7941415 61.167527,69.5342438 60.2739509,68.1390768 L19.2449934,91.7107447 C19.2460133,91.7681447 19.2465248,91.8256228 19.2465248,91.8831735 L19.2465248,91.936214 C19.2465248,95.3812269 17.4136077,98.5660509 14.4348936,100.296766 C11.4599905,102.025267 7.78653428,102.025267 4.8116312,100.296766 C1.83291706,98.5660509 1.36466395e-12,95.3812269 1.36424205e-12,91.936214 L1.36424205e-12,91.8831735 C1.36382016e-12,88.4381607 1.83291706,85.2533366 4.8116312,83.5226213 C7.78653428,81.7941204 11.4599905,81.7941204 14.4348936,83.5226213 C15.2717418,84.0088533 16.0181535,84.6098563 16.6588923,85.2991559 L57.9872493,61.8149855 C57.8034628,60.3430456 57.8336586,58.8321386 58.0950444,57.3273882 L58.2239419,56.5853491 C58.4443299,55.3166154 58.8224464,54.0978408 59.3398199,52.952162 L37.1670115,42.0286084 C36.7774632,42.3458361 36.3603984,42.6349081 35.918067,42.8919149 C32.9431639,44.6204159 29.2697077,44.6204159 26.2948046,42.8919149 C23.3160905,41.1611996 21.4831734,37.9763755 21.4831734,34.5313627 L21.4831734,34.4783222 C21.4831734,31.0333094 23.3160905,27.8484853 26.2948046,26.11777 C29.2697077,24.389269 32.9431639,24.389269 35.918067,26.11777 C38.8967812,27.8484853 40.7296982,31.0333094 40.7296982,34.4783222 L40.7296982,34.5313627 C40.7296982,35.4655854 40.5949069,36.380674 40.3390271,37.2528189 L64.0136125,47.1053161 C65.0122895,46.3520032 66.1119864,45.7172299 67.2945053,45.22379 C68.2714736,44.8161221 69.2756525,44.5055855 70.2935315,44.2913085 L79.7519001,16.6412855 C78.0375704,14.8632125 77.0431048,12.4668319 77.0431048,9.92928357 L77.0431048,9.87624303 C77.0431048,6.43123021 78.8760218,3.24640617 81.854736,1.51569087 C84.829639,-0.212810107 88.5030953,-0.212810107 91.4779983,1.51569087 Z" id="Combined-Shape" stroke="#FFFFFF" stroke-width="3.44447982" fill="#8559FF"></path>
                    </g>
                    <circle id="Oval-Copy-5" fill="#79B2FD" cx="439.999974" cy="183.199989" r="27.1999984"></circle>
                    <path d="M448.746481,195.19143 C450.067937,195.19143 451.140062,194.119305 451.140062,192.797849 L451.140062,175.244923 C451.140062,173.923467 450.067937,172.851342 448.746481,172.851342 L446.3529,172.851342 L446.3529,170.258296 C446.3529,169.929198 446.083603,169.659901 445.754505,169.659901 L443.759855,169.659901 C443.430757,169.659901 443.161459,169.929198 443.161459,170.258296 L443.161459,172.851342 L436.778577,172.851342 L436.778577,170.258296 C436.778577,169.929198 436.50928,169.659901 436.180182,169.659901 L434.185531,169.659901 C433.856433,169.659901 433.587136,169.929198 433.587136,170.258296 L433.587136,172.851342 L431.193555,172.851342 C429.872099,172.851342 428.799974,173.923467 428.799974,175.244923 L428.799974,192.797849 C428.799974,194.119305 429.872099,195.19143 431.193555,195.19143 L448.746481,195.19143 Z M448.447284,192.797849 L431.492753,192.797849 C431.328204,192.797849 431.193555,192.6632 431.193555,192.498651 L431.193555,177.638504 L448.746481,177.638504 L448.746481,192.498651 C448.746481,192.6632 448.611833,192.797849 448.447284,192.797849 Z" id="c" fill="#FFFFFF" fill-rule="nonzero"></path>
                </g>
                <circle id="Oval" stroke="#FFFFFF" stroke-width="3.19999981" fill="#FE6B6B" cx="291.599983" cy="130.799992" r="9.9999994"></circle>
                <circle id="Oval-Copy-6" stroke="#FFFFFF" stroke-width="3.19999981" fill="#79B2FD" cx="315.599981" cy="189.999989" r="9.9999994"></circle>
                <circle id="Oval-Copy-7" stroke="#FFFFFF" stroke-width="3.19999981" fill="#D6DFE3" cx="288.399983" cy="243.599985" r="9.9999994"></circle>
                <circle id="Oval-Copy-8" stroke="#FFFFFF" stroke-width="3.19999981" fill="#B094FF" cx="180.399989" cy="241.999986" r="9.9999994"></circle>
                <circle id="Oval-Copy-9" stroke="#FFFFFF" stroke-width="3.19999981" fill="#FFC92D" cx="157.199991" cy="187.599989" r="9.9999994"></circle>
                <circle id="Oval-Copy-10" stroke="#FFFFFF" stroke-width="2.39999986" fill="#1DE1B9" cx="177.999989" cy="130.799992" r="9.59999943"></circle>
            </g>
        </g>
    </g>
</svg>