<?xml version="1.0" encoding="UTF-8"?>
<svg id="Layer_1" data-name="Layer 1" xmlns="http://www.w3.org/2000/svg" xmlns:xlink="http://www.w3.org/1999/xlink" viewBox="0 0 734 469">
  <defs>
    <mask id="mask" x="264.77" y="29.71" width="164.84" height="280.54" maskUnits="userSpaceOnUse">
      <g id="mask-2">
        <ellipse id="path-1-2" data-name="path-1" cx="364.21" cy="71.52" rx="42.41" ry="41.82" fill="#fff"/>
      </g>
    </mask>
  </defs>
  <g id="Group-5">
    <path id="Polygon" d="M474.61,94.18l91.14,157.87c4.07,7.05,4.07,15.74,0,22.8l-91.14,157.87c-4.07,7.05-11.6,11.4-19.74,11.4h-182.29c-8.14,0-15.67-4.34-19.74-11.4l-91.14-157.87c-4.07-7.05-4.07-15.74,0-22.8l91.14-157.87c4.07-7.05,11.6-11.4,19.74-11.4h182.29c8.14,0,15.67,4.34,19.74,11.4Z" fill="none" stroke="#ffab50" stroke-miterlimit="4" stroke-width="9.73"/>
    <g id="humaaan-9">
      <g id="Mask">
        <g id="path-1-link">
          <ellipse id="path-1" cx="364.21" cy="71.52" rx="42.41" ry="41.82"/>
        </g>
        <ellipse id="Oval" cx="364.21" cy="71.52" rx="44.17" ry="43.59" fill="#fff" stroke="#fff" stroke-width="2.57"/>
      </g>
      <g id="Clipped">
        <path d="M364.21,122.02c-28.17,0-51.08-22.65-51.08-50.49s22.92-50.49,51.08-50.49,51.08,22.65,51.08,50.49-22.92,50.49-51.08,50.49ZM364.21,29.71c-23.38,0-42.41,18.76-42.41,41.82s19.02,41.82,42.41,41.82,42.41-18.76,42.41-41.82-19.02-41.82-42.41-41.82Z" fill="#ffab50"/>
        <g mask="url(#mask)">
          <g id="Group">
            <g>
              <g id="Head_Front_Hijab-1" data-name="Head/Front/Hijab-1">
                <g id="Head">
                  <path id="Path" d="M384.64,49.34c1.92,8.21-3.41,26.29-8.73,26.24-2.12-.02-6.01-2.4-9.61-6.15l-2.42,19.83-15.93-4.27,12.34-24.12c-2.1-4.41-2.99-9.37-1.32-14.22,4.81-13.95,23.75-5.53,25.67,2.68Z" fill="#b28b67"/>
                </g>
                <g id="Hijab">
                  <path id="Front" d="M382.32,43.64c-.31-.32-.95-.98-1.29-1.25-.08-.06-.6-.69-.62-.69-.53.03-2.1.26-2.36.75-.03.03-.06.07-.08.09-.3.31-.58.63-.85.96-.6.72-1.16,1.5-1.71,2.27-1.06,1.5-2.05,3.06-3,4.64-.97,1.61-1.86,3.25-2.8,4.87-1.36,2.33-2.89,4.55-4.24,6.88-.86,1.49-1.54,3.05-1.87,4.73,0,.02,0,.04-.01.06,0,0,0,.02,0,.03-.05.26-.09.52-.12.79-.03.23-.05.45-.08.68.95-1.07,1.79-2.31,2.64-3.46.08-.11.16-.23.24-.34.23-.22.47-.43.7-.65,1.49-1.35,2.98-2.7,4.44-4.09,2.62-2.51,5.23-5.08,8.12-7.26.85-.64,1.72-1.27,2.56-1.92.48-.37.96-.75,1.42-1.14.33-.28,1.7-1.2,1.52-2.03-.09-.42-1.82-3.09-2.61-3.91Z" fill="#2c2c2c"/>
                  <path id="Turban" d="M381.13,42.48c.32.21.35-.57.07-.92-1.27-1.63-7.24-3.7-12.84-4.02-3.75-.21-8.37.52-11.84,2.12-3.13,1.44-5.8,4.38-7.59,7.44-1.88,3.21-2.99,6.77-3.41,10.46-.09.81-.04,1.62-.11,2.42-.07.9-.21,1.75-.16,2.66.03.56.19,1.14.2,1.69,0,.63-.24,1.15-.52,1.71-.46.92-.96,1.83-1.56,2.66-.9,1.26-1.88,2.39-2.67,3.73-1.05,1.79-4.95,7.46-3.78,9.61l30.88,8.28c-.21-2.33-1.87-5.46-1.74-7.86.08-1.41.73-4.37.73-4.49.59-4.99-.15-7.65-.78-8.71-.63-1.06-1.69-1.62-1.56-2.36.56-3.05,2.51-5.59,4.13-8.15,1.93-3.04,3.6-6.24,5.55-9.27.87-1.34,5.3-8.13,6.98-7.02Z" fill="#ffab50"/>
                  <path id="Shade" d="M350.55,65.66c5.84,3.71,4.03,7.65,10.94,13.98l-.78.23c-6.26-4.79-6.23-11.46-10.78-13.76l.62-.44ZM361.55,45.4c-1.02,7.75-1.88,12.1,1.07,21.66l-.59.02c-3.38-8.54-2.65-14.58-1-21.77l.52.1ZM351.2,48.38c.76,5.85.91,9.23,5.83,15.12l-.56.2c-5.1-5.03-5.76-9.57-5.79-15.23l.52-.1ZM369.38,43.02c-2.16,3.39-2.94,5.29-4.04,10.42l-.57-.15c.21-5.06,2.36-9.29,3.89-10.45l.72.19Z"/>
                </g>
              </g>
              <g id="Bottom_Standing_Sprint" data-name="Bottom/Standing/Sprint">
                <path id="Leg" d="M327.77,145.81c1.24,16.93,81.08,66.78,81.55,68.18.21.62-8.08,20.27-24.85,58.95l6.98,2.71c25.73-40.96,37.93-63.63,36.61-67.99-1.89-6.25-22.54-26.81-61.95-61.67l-38.34-.18Z" fill="#b28b67"/>
                <path id="Pant" d="M386.3,264.2l11.39,4.15c24.03-27.14,33.45-49.53,31.73-60.94-1.14-7.61-21.72-28.13-61.73-61.57h-40.74c1.39,39.21,75.39,68.29,76.38,69.96.99,1.67-8.75,18.04-17.03,48.39Z" fill="#2f3676"/>
                <g id="Accessories_Shoe_Flat-Sneaker" data-name="Accessories/Shoe/Flat-Sneaker">
                  <path id="shoe" d="M381.89,271.61c-1.42,1.67-2.31,2.98-2.66,3.94-.42,1.17-.85,2.94-1.28,5.32,1.35.49,13.49,4.91,36.43,13.26,2.09-2.79,2.16-4.68.21-5.67-1.95-.99-3.56-1.83-4.84-2.53l-14.18-13.72c-.27-.26-.71-.26-.97.02,0,0,0,0-.01.01l-2.05,2.25h0c-2.21.19-3.9.08-5.08-.35-.96-.35-2.14-1.22-3.55-2.61h0c-.54-.53-1.41-.53-1.95.01-.02.02-.05.05-.07.07Z" fill="#e4e4e4"/>
                </g>
                <polygon id="Leg-2" data-name="Leg" points="336.95 145.81 301.38 231.28 266.42 303.54 274.67 303.54 364.9 145.81 336.95 145.81" fill="#997659"/>
                <g id="Accessories_Shoe_Flat-Sneaker-2" data-name="Accessories/Shoe/Flat-Sneaker">
                  <path id="shoe-2" data-name="shoe" d="M265.93,300.2c-.77,2.05-1.15,3.59-1.15,4.61,0,1.24.21,3.05.62,5.43h38.77c1.01-3.33.43-5.13-1.74-5.4-2.17-.27-3.97-.51-5.41-.72l-18.02-8.04c-.35-.15-.75,0-.91.35,0,0,0,.01,0,.02l-1.16,2.81h0c-2.01.94-3.64,1.41-4.9,1.41-1.02,0-2.43-.41-4.23-1.24h0c-.69-.32-1.51-.01-1.82.68-.01.03-.03.06-.04.09Z" fill="#e4e4e4"/>
                </g>
                <path id="Pant-2" data-name="Pant" d="M269.58,288.53l18.33,3.44c14.17-20.85,73.47-106.35,79.97-146.16h-40.8c-21.71,28.77-43.99,121.52-57.5,142.72Z" fill="#5c63ab"/>
              </g>
              <g id="Body_Jacket" data-name="Body/Jacket">
                <path id="Skin" d="M310.34,130.45l14.14,2.55c-13.71,26.68-21.07,40.83-22.07,42.43-2.25,3.61.02,10.11.88,13.54-4.98,1.25-3.14-6.32-9.44-4.63-5.75,1.54-10.59,5.31-16.06.43-.67-.6-1.19-2.5,1.05-3.52,5.58-2.54,13.82-7.26,15.13-9.06,1.8-2.45,7.25-16.37,16.37-41.75h0ZM395.92,142.82l15.87,22.11c5.16,3.37,9.27,6.8,12.32,10.31.63,1.11,1.18,3.12-2.45,1.62-3.62-1.49-7.5-2.9-8.43-1.8s.83,3.35-.76,4.73c-1.06.92-3.4-3.01-7.01-11.77l-17.86-15.28,8.31-9.91Z" fill="#b28b67"/>
                <path id="Coat-Back" d="M361.02,78.12l6.03.03c5.63,26.98,19.19,52.97,40.67,77.99l-23.04,19.73c-19.94-33.75-30.08-66.73-23.66-97.75Z" fill="#ffab50"/>
                <path id="Shirt" d="M322.52,147.25l52.12,9.19c-6.89-31.52-8.53-57.55-4.91-78.09l-15.31-5.12c-15.86,17.71-23.67,41.59-31.91,74.02Z" fill="#ffab50"/>
                <path id="Coat-Front" d="M355.13,73.36c1.22.26,3.08.66,5.57,1.22h0l1.88,11.54c-1.93,13.32-4.3,40.44-7.08,81.35h0l-34.17-6.02c-.4,2.79-.75,5.61-1.04,8.48h0l-25.4-4.48c11.37-42.24,31.1-73,59.19-92.26h0s0,0,0,0l1.03.18Z" fill="#ffab50"/>
                <path id="Shade-2" data-name="Shade" d="M330.84,163.39l-9.55-1.68c1.77-12.51,4.63-24.29,8.55-35.35-2.07,17.46-1.74,29.8,1,37.04Z"/>
                <polygon id="Light" points="332.59 142.04 350.82 137.17 349.44 145.01 332.59 142.04" fill="rgba(255, 255, 255, .2)"/>
              </g>
            </g>
          </g>
        </g>
      </g>
    </g>
    <circle id="Oval-2" data-name="Oval" cx="613.9" cy="137.31" r="41.54" fill="#ff527f"/>
    <circle id="Oval-Copy-4" cx="48.21" cy="258.27" r="41.54" fill="#ff527f"/>
    <path id="i" d="M633.46,146.64c2.21,0,4-1.79,4-4v-21.33c0-2.21-1.79-4-4-4h-31.99c-2.21,0-4,1.79-4,4v21.33c0,2.21,1.79,4,4,4h31.99ZM632.96,142.64h-30.99c-.28,0-.5-.22-.5-.5v-20.33c0-.28.22-.5.5-.5h30.99c.28,0,.5.22.5.5v20.33c0,.28-.22.5-.5.5ZM608.13,129.98c1.84,0,3.33-1.49,3.33-3.33s-1.49-3.33-3.33-3.33-3.33,1.49-3.33,3.33,1.49,3.33,3.33,3.33ZM625.46,154.64c2.21,0,4-1.79,4-4v-1.33h-4v.83c0,.28-.22.5-.5.5h-30.99c-.28,0-.5-.22-.5-.5v-20.33c0-.28.22-.5.5-.5h.83v-4h-1.33c-2.21,0-4,1.79-4,4v21.33c0,2.21,1.79,4,4,4h31.99ZM629.46,138.64v-6.67l-5.96-5.96c-.39-.39-1.02-.39-1.41,0l-8.62,8.62-3.29-3.29c-.39-.39-1.02-.39-1.41,0l-3.29,3.29v4h24Z" fill="#fff"/>
    <path id="h" d="M49.96,266.64l4.14-8.28,1.84,3.68h11c2.01-2.32,3.15-5.22,3.15-8.33,0-8.26-7.17-13-13.1-13-3.04,0-5.92,1.02-8.22,2.91-2.31-1.88-5.18-2.91-8.22-2.91-5.92,0-13.11,4.74-13.11,13,0,3.11,1.14,6.01,3.15,8.33h9.73l2.49-5.97,4.74,10.52c.46,1.02,1.91,1.06,2.41.05ZM48.84,262.93l-4.85-10.77c-.47-1.07-2-1.04-2.45.03l-2.99,7.18h-4.99c-4.9-5.79-.58-14.66,6.99-14.66,2.58,0,4.25.52,8.22,4.45,4.26-4.21,5.76-4.45,8.22-4.45,7.6,0,11.89,8.87,6.99,14.66h-6.39l-2.3-4.6c-.49-.98-1.89-.98-2.38,0l-4.07,8.16ZM52.45,276.52l11.94-11.81h-5.68l-9.07,8.97c-.48.47-1.26.47-1.74,0l-9.06-8.97h-5.68l11.94,11.81c2.04,2.02,5.32,2.02,7.37,0Z" fill="#fff"/>
    <line id="Path-7" x1="111.13" y1="134.26" x2="276.07" y2="178.24" fill="none" stroke="#726b7f" stroke-dasharray="4.89 4.89" stroke-linecap="round" stroke-linejoin="round" stroke-width="2.44"/>
    <circle id="Oval-Copy-3" cx="104.41" cy="125.09" r="41.54" fill="#7c7588"/>
    <path id="m" d="M89.2,145.09c4.11,0,7.46-2.6,7.91-5.92.05-.23.09-.46.09-.72,0,0,0-.01,0-.02v-14.66l22.66-7.16v10.75c-1.18-.57-2.53-.92-4-.92-4.42,0-8,2.98-8,6.67s3.58,6.67,8,6.67c4.11,0,7.46-2.6,7.91-5.93.05-.22.08-.44.08-.68v-.05h0s0,0,0,0v-27.99c0-1.52-1.25-2.67-2.66-2.67-.26,0-.54.04-.81.13l-25.33,8c-1.11.35-1.87,1.37-1.87,2.54v19.59c-1.18-.57-2.53-.92-4-.92-4.42,0-8,2.98-8,6.67s3.58,6.67,8,6.67ZM97.2,119.56v-5.49l22.66-7.16v5.49l-22.66,7.16ZM115.86,135.76c-2.36,0-4-1.41-4-2.67s1.64-2.67,4-2.67,4,1.4,4,2.67h0c0,1.26-1.64,2.67-4,2.67ZM89.2,141.09c-2.36,0-4-1.41-4-2.67s1.64-2.67,4-2.67,4,1.4,4,2.67-1.64,2.67-4,2.67Z" fill="#fff"/>
    <line id="Path-8" x1="78.76" y1="257.05" x2="246.28" y2="263.63" fill="none" stroke="#ff527f" stroke-dasharray="4.89 4.89" stroke-linecap="round" stroke-linejoin="round" stroke-width="2.44"/>
    <line id="Path-9" x1="139.54" y1="382.76" x2="281.63" y2="346.24" fill="none" stroke="#7b4dff" stroke-dasharray="4.89 4.89" stroke-linecap="round" stroke-linejoin="round" stroke-width="2.44"/>
    <circle id="Oval-Copy" cx="104.41" cy="387.78" r="41.54" fill="#7b4dff"/>
    <path id="f" d="M117.74,407.77c2.21,0,4.01-1.79,4.01-4v-27.66c0-1.06-.43-2.08-1.18-2.83l-6.99-6.99c-.75-.75-1.77-1.17-2.82-1.17h-17c-2.21,0-4,1.8-4,4.01v34.65c0,2.21,1.79,4,4,4h23.99ZM117.75,403.77h-24v-34.65h13.33v8.66c0,1.11.89,2,2,2h8.66v23.99ZM117.41,375.79h-6.34v-6.34l6.34,6.34ZM107.75,399.77c.37,0,.67-.3.67-.67v-4.67h4.67c.37,0,.67-.3.67-.67v-4c0-.37-.3-.67-.67-.67h-4.67v-4.67c0-.37-.3-.67-.67-.67h-4c-.37,0-.67.3-.67.67v4.67h-4.67c-.37,0-.67.3-.67.67v4c0,.37.3.67.67.67h4.67v4.67c0,.37.3.67.67.67h4Z" fill="#fff"/>
    <line id="Path-10" x1="603.02" y1="393.89" x2="446.57" y2="350.88" fill="none" stroke="#d4cde0" stroke-dasharray="4.89 4.89" stroke-linecap="round" stroke-linejoin="round" stroke-width="2.44"/>
    <circle id="Oval-Copy-2" cx="613.9" cy="393.89" r="41.54" fill="#d4cde0"/>
    <path id="v" d="M619.81,409.77c2.38,0,4.32-1.78,4.32-3.98v-4.86l9.14,5.69c.47.33,1.01.47,1.52.47,1.38,0,2.67-1.08,2.67-2.62v-21.4c0-1.54-1.29-2.62-2.67-2.62-.52,0-1.04.15-1.52.47l-9.14,5.7v-4.86c0-2.2-1.93-3.98-4.32-3.98h-26.03c-2.38,0-4.32,1.78-4.32,3.98v24.03c0,2.2,1.93,3.98,4.32,3.98h26.03ZM619.81,405.77h-26.03c-.17,0-.27-.05-.32-.09v-23.81s.15-.09.32-.09h26.03c.17,0,.27.05.32.09v23.81s-.15.09-.32.09ZM633.46,402.04l-9.33-5.82v-4.89l9.33-5.82v16.52Z" fill="#fff"/>
    <line id="Path-11" x1="678.66" y1="258.88" x2="487.26" y2="266.75" fill="none" stroke="#726b7f" stroke-dasharray="4.89 4.89" stroke-linecap="round" stroke-linejoin="round" stroke-width="2.44"/>
    <line id="Path-12" x1="582.96" y1="138.02" x2="452.19" y2="175.86" fill="none" stroke="#ff527f" stroke-dasharray="4.89 4.89" stroke-linecap="round" stroke-linejoin="round" stroke-width="2.44"/>
    <g id="Group-2" data-name="Group">
      <polygon id="Path-25" points="366.05 373.69 372.43 375.88 416.61 290.14 455.58 178.96 448.6 181.26 410.33 286.52 366.05 373.69" fill="#ffd5a7" fill-rule="evenodd" stroke="#fff" stroke-width="1.27"/>
      <polygon id="Path-24" points="284.94 346.15 402.41 282.2 487.26 264.67 487.26 272.58 402.41 289 284.94 355.14 284.94 346.15" fill="#ffd5a7" fill-rule="evenodd" stroke="#fff" stroke-width="1.27"/>
      <polygon id="Path-24-2" data-name="Path-24" points="246.28 263.59 402.41 282.2 487.26 264.67 487.26 272.58 402.41 289 246.28 270.04 246.28 263.59" fill="#ffd5a7" fill-rule="evenodd" stroke="#fff" stroke-width="1.27"/>
      <polygon id="Path-24-3" data-name="Path-24" points="353.5 225.47 366.83 381.32 361.26 388.11 347.93 225.47 353.5 225.47" fill="#ffe6ca" fill-rule="evenodd" stroke="#fff" stroke-width="1.27"/>
      <polygon id="Path-24-4" data-name="Path-24" points="251.85 268.67 440.53 345.74 437.5 352.53 251.36 276.3 251.85 268.67" fill="#ffd5a7" fill-rule="evenodd" stroke="#fff" stroke-width="1.27"/>
      <path id="Combined-Shape" d="M364.51,133.41l91.6,38.18,37.94,92.18-37.94,92.18-91.6,38.18-91.6-38.18-37.94-92.18,37.94-92.18,91.6-38.18ZM364.51,140.24l-86.8,36.18-35.95,87.35,35.95,87.35,86.8,36.18,86.8-36.18,35.95-87.35-35.95-87.35-86.8-36.18Z" fill="#ffab50" fill-rule="evenodd" isolation="isolate" opacity=".32"/>
      <path id="Combined-Shape-2" data-name="Combined-Shape" d="M364.51,133.41l89.82,39.64-4.77,1.97-85.04-34.78-86.8,36.18-34.56,83.97-8.18,3.38,37.94-92.18,91.6-38.18Z" fill="#ffab50" fill-rule="evenodd"/>
      <polygon id="Path-2" points="483.42 270.3 452.19 343.75 456.38 350.88 494.05 267.77 483.42 270.3" fill="#ffe6ca" fill-rule="evenodd" stroke="#fff" stroke-width="2.54"/>
      <path id="Polygon-Copy-8" d="M496.87,254.96c4.55,2.64,7.35,7.51,7.35,12.77v.08c0,5.26-2.8,10.13-7.35,12.77-4.54,2.64-10.15,2.64-14.7,0-4.55-2.64-7.35-7.51-7.35-12.77v-.08c0-5.26,2.8-10.13,7.35-12.77,4.54-2.64,10.15-2.64,14.7,0Z" fill="#bfb0ff" fill-rule="evenodd" stroke="#fff" stroke-width="5.26"/>
      <path id="Polygon-Copy" d="M370.16,369.95c4.55,2.64,7.35,7.51,7.35,12.77v.08c0,5.26-2.8,10.13-7.35,12.77-4.54,2.64-10.15,2.64-14.7,0-4.55-2.64-7.35-7.51-7.35-12.77v-.08c0-5.26,2.8-10.13,7.35-12.77,4.54-2.64,10.15-2.64,14.7,0Z" fill="#ffd5a7" fill-rule="evenodd" stroke="#fff" stroke-width="5.26"/>
      <path id="Combined-Shape-3" data-name="Combined-Shape" d="M371.29,127.44c4.55,2.64,7.35,7.51,7.35,12.77v.08c0,5.26-2.8,10.13-7.35,12.77-2.17,1.26-4.58,1.92-7.01,1.98l-13.46,38.06c2.14.57,4.22,1.43,6.18,2.56l1.19.69c1.81,1.04,3.4,2.34,4.75,3.83l74.55-22.66v-.2c.17-5.08,2.93-9.73,7.34-12.29,4.54-2.64,10.15-2.64,14.7,0,4.55,2.64,7.35,7.51,7.35,12.77v.08c0,5.26-2.8,10.13-7.35,12.77-4.54,2.64-10.15,2.64-14.7,0-1.91-1.11-3.51-2.61-4.73-4.37l-72.37,23.41c.48,2.43.52,4.97.05,7.5l-.96,5.2c-.47,2.55-1.37,4.96-2.63,7.13l32.75,42.75c4.14-1.66,8.87-1.35,12.79.93,4.55,2.64,7.35,7.51,7.35,12.77v.08c0,3.2-1.04,6.26-2.88,8.76l31.73,41.41c3.09-.36,6.27.26,9.05,1.88,4.55,2.64,7.35,7.51,7.35,12.77v.08c0,5.26-2.8,10.13-7.35,12.77-4.54,2.64-10.15,2.64-14.7,0-4.55-2.64-7.35-7.51-7.35-12.77v-.08c0-3.52,1.26-6.87,3.45-9.49l-30.8-40.94c-3.55.8-7.32.26-10.56-1.62-4.55-2.64-7.35-7.51-7.35-12.77v-.08c0-2.48.62-4.87,1.76-6.99l-31.82-42.29c-1.65,1.15-3.47,2.09-5.41,2.78-1.02.36-2.05.64-3.1.86l-55.81,98.82c1.92,2.53,3,5.65,3,8.93v.08c0,5.26-2.8,10.13-7.35,12.77-4.54,2.64-10.15,2.64-14.7,0-4.55-2.64-7.35-7.51-7.35-12.77v-.08c0-5.26,2.8-10.13,7.35-12.77,2.9-1.69,6.24-2.29,9.45-1.83l52.51-94.15c-2.29-.85-4.47-2.06-6.44-3.62l-1.03-.82c-2.05-1.62-3.77-3.55-5.13-5.68l-62.66,36c0,.09,0,.18,0,.26v.08c0,5.26-2.8,10.13-7.35,12.77-4.54,2.64-10.15,2.64-14.7,0-4.55-2.64-7.35-7.51-7.35-12.77v-.08c0-5.26,2.8-10.13,7.35-12.77,4.54-2.64,10.15-2.64,14.7,0,1.28.74,2.42,1.66,3.4,2.71l63.12-35.87c-.28-2.25-.23-4.56.16-6.85l.2-1.13c.34-1.94.91-3.8,1.7-5.55l-33.86-16.68c-.59.48-1.23.93-1.91,1.32-4.54,2.64-10.15,2.64-14.7,0-4.55-2.64-7.35-7.51-7.35-12.77v-.08c0-5.26,2.8-10.13,7.35-12.77,4.54-2.64,10.15-2.64,14.7,0,4.55,2.64,7.35,7.51,7.35,12.77v.08c0,1.43-.21,2.82-.6,4.16l36.16,15.05c1.53-1.15,3.2-2.12,5.01-2.87,1.49-.62,3.03-1.1,4.58-1.42l14.45-42.23c-2.62-2.72-4.14-6.38-4.14-10.25v-.08c0-5.26,2.8-10.13,7.35-12.77,4.54-2.64,10.15-2.64,14.7,0Z" fill="#ffab50" fill-rule="evenodd" stroke="#fff" stroke-width="5.26"/>
    </g>
    <circle id="Oval-Copy-5" cx="678.66" cy="258.27" r="41.54" fill="#362b48"/>
    <path id="c" d="M692.01,276.58c2.02,0,3.66-1.64,3.66-3.66v-26.81c0-2.02-1.64-3.66-3.66-3.66h-3.66v-3.96c0-.5-.41-.91-.91-.91h-3.05c-.5,0-.91.41-.91.91v3.96h-9.75v-3.96c0-.5-.41-.91-.91-.91h-3.05c-.5,0-.91.41-.91.91v3.96h-3.66c-2.02,0-3.66,1.64-3.66,3.66v26.81c0,2.02,1.64,3.66,3.66,3.66h26.81ZM691.56,272.93h-25.89c-.25,0-.46-.21-.46-.46v-22.7h26.81v22.7c0,.25-.21.46-.46.46Z" fill="#fff"/>
  </g>
  <circle id="Oval-3" data-name="Oval" cx="452.01" cy="178.24" r="15.27" fill="#ff527f" stroke="#fff" stroke-width="4.89"/>
  <circle id="Oval-Copy-6" cx="488.67" cy="268.65" r="15.27" fill="#362b48" stroke="#fff" stroke-width="4.89"/>
  <circle id="Oval-Copy-7" cx="447.13" cy="350.51" r="15.27" fill="#d4cde0" stroke="#fff" stroke-width="4.89"/>
  <circle id="Oval-Copy-8" cx="282.18" cy="348.07" r="15.27" fill="#7b4dff" stroke="#fff" stroke-width="4.89"/>
  <circle id="Oval-Copy-9" cx="246.75" cy="264.99" r="15.27" fill="#ff527f" stroke="#fff" stroke-width="4.89"/>
  <circle id="Oval-Copy-10" cx="278.52" cy="178.24" r="14.66" fill="#7c7588" stroke="#fff" stroke-width="3.67"/>
</svg>