<svg xmlns="http://www.w3.org/2000/svg" data-name="Layer 1" viewBox="0 0 1094.88 414.81">
  <defs>
    <mask id="a" width="220.44" height="379.36" x="591" y="-325.45" maskUnits="userSpaceOnUse"/>
    <mask id="b" width="220.44" height="375.16" x="420.37" y="167.2" maskUnits="userSpaceOnUse">
      <ellipse cx="553.35" cy="223.13" fill="#fff" data-name="path-1" rx="56.71" ry="55.92"/>
    </mask>
  </defs>
  <g mask="url(#a)" transform="translate(-4.64 -19.6)">
    <g data-name="Bottom/Standing/Sprint">
      <path fill="#b28b67" d="M675.24-180.62c1.66 22.64 108.43 89.3 109.05 91.17.28.83-10.8 41.74-33.23 93.46l9.33 3.63c34.41-54.78 50.73-99.72 48.96-105.56-2.53-8.36-30.14-35.85-82.84-82.47l-51.27-.24z"/>
      <path fill="#e4e4e4" d="M747.62 2.25c-1.91 2.23-3.09 3.99-3.56 5.27-.57 1.56-1.14 3.93-1.71 7.11 1.81.66 18.05 6.57 48.72 17.73 2.79-3.73 2.88-6.26.28-7.58-2.61-1.33-4.76-2.45-6.47-3.38L765.92 3.06a.927.927 0 0 0-1.3.02l-.02.02-2.74 3c-2.95.26-5.22.1-6.8-.47-1.28-.47-2.86-1.63-4.75-3.49-.72-.71-1.89-.71-2.6.02-.03.03-.06.06-.09.1z" data-name="Accessories/Shoe/Flat-Sneaker"/>
      <path fill="#997659" d="M593.2 44.94h11.03L724.9-180.62h-37.39L639.95-51.69z" data-name="Leg"/>
      <g data-name="Accessories/Shoe/Flat-Sneaker">
        <path fill="#e4e4e4" d="M592.54 40.48c-1.03 2.75-1.54 4.8-1.54 6.17 0 1.66.28 4.08.83 7.26h51.84c1.35-4.46.57-6.86-2.33-7.22-2.9-.36-5.31-.68-7.23-.96l-24.1-10.75a.922.922 0 0 0-1.22.47s0 .02-.01.02l-1.55 3.76c-2.69 1.25-4.87 1.88-6.55 1.88-1.36 0-3.25-.55-5.65-1.65a1.84 1.84 0 0 0-2.44.91c-.02.04-.04.08-.05.12z" data-name="shoe"/>
      </g>
      <path fill="#5c63ab" d="m597.42 24.87 24.51 4.6c18.95-27.89 98.25-156.86 106.95-210.08h-54.56c-29.04 38.48-58.83 177.14-76.89 205.48z"/>
    </g>
  </g>
  <path fill="none" stroke="#726b7f" stroke-dasharray="4.89, 4.89" stroke-linecap="round" stroke-linejoin="round" stroke-width="2.44" d="m185.78 57.54 266.57 66.93"/>
  <path fill="none" stroke="#ff527f" stroke-dasharray="4.89, 4.89" stroke-linecap="round" stroke-linejoin="round" stroke-width="2.44" d="m63.43 206.33 359.13 3.53"/>
  <path fill="none" stroke="#7b4dff" stroke-dasharray="4.89, 4.89" stroke-linecap="round" stroke-linejoin="round" stroke-width="2.44" d="m190.61 355.52 267.3-63.05"/>
  <circle cx="59.9" cy="208.05" r="59.9" fill="#ff527f"/>
  <path fill="#fff" d="m62.43 220.12 5.97-11.94 2.66 5.31h15.86c2.9-3.35 4.54-7.53 4.54-12.01.01-11.91-10.34-18.74-18.89-18.74-4.39 0-8.53 1.48-11.86 4.19-3.33-2.72-7.47-4.19-11.86-4.19-8.54 0-18.9 6.84-18.9 18.74 0 4.48 1.65 8.66 4.54 12.01h14.03l3.59-8.61 6.84 15.17c.66 1.48 2.75 1.53 3.47.07zm-1.62-5.34-6.99-15.54c-.68-1.54-2.88-1.5-3.53.05l-4.31 10.36h-7.2c-7.06-8.35-.84-21.15 10.08-21.15 3.72 0 6.13.74 11.86 6.42 6.14-6.07 8.3-6.42 11.86-6.42 10.96 0 17.15 12.8 10.08 21.15h-9.22l-3.32-6.63c-.71-1.42-2.73-1.42-3.44 0l-5.88 11.76zm5.21 19.59 17.22-17.04h-8.19l-13.08 12.94a1.8 1.8 0 0 1-2.51 0l-13.07-12.94H38.2l17.22 17.04c2.94 2.91 7.68 2.92 10.62 0z"/>
  <circle cx="187.84" cy="59.9" r="59.9" fill="#7c7588"/>
  <path fill="#fff" d="M165.9 88.73c5.93 0 10.76-3.74 11.4-8.54.08-.33.12-.67.12-1.04V57.97l32.68-10.32v15.5a13.24 13.24 0 0 0-5.77-1.33c-6.37 0-11.53 4.3-11.53 9.61s5.16 9.61 11.53 9.61c5.93 0 10.76-3.75 11.41-8.55.07-.31.11-.64.12-.99V31.06c0-2.2-1.8-3.85-3.84-3.85-.38 0-.77.06-1.16.18l-36.53 11.53c-1.6.5-2.69 1.98-2.69 3.66v28.25a13.1 13.1 0 0 0-5.77-1.33c-6.37 0-11.53 4.3-11.53 9.61s5.16 9.61 11.53 9.61zm11.54-36.81V44l32.68-10.32v7.92zm26.91 23.35c-3.4 0-5.77-2.03-5.77-3.84s2.37-3.84 5.77-3.84c3.4 0 5.77 2.02 5.77 3.84 0 1.82-2.37 3.85-5.77 3.85zm-38.45 7.69c-3.4 0-5.77-2.03-5.77-3.84s2.37-3.84 5.77-3.84c3.4 0 5.77 2.03 5.77 3.84s-2.37 3.84-5.77 3.84z"/>
  <circle cx="187.84" cy="354.91" r="59.9" fill="#7b4dff"/>
  <path fill="#fff" d="M207.06 383.74c3.18 0 5.78-2.58 5.78-5.77v-39.89c0-1.53-.62-3-1.71-4.09l-10.08-10.08a5.77 5.77 0 0 0-4.07-1.69h-24.51c-3.18.01-5.77 2.6-5.77 5.78v49.97c0 3.18 2.58 5.77 5.77 5.77zm.01-5.77h-34.6V328h19.22v12.5c0 1.6 1.29 2.88 2.88 2.88h12.5zm-.48-40.36h-9.14v-9.14zm-13.94 34.59c.53 0 .96-.43.96-.96v-6.73h6.73c.53 0 .96-.43.96-.96v-5.77a.96.96 0 0 0-.96-.96h-6.73v-6.73a.96.96 0 0 0-.96-.96h-5.77a.96.96 0 0 0-.96.96v6.73h-6.73a.96.96 0 0 0-.96.96v5.77c0 .53.43.96.96.96h6.73v6.73c0 .53.43.96.96.96z"/>
  <path fill="none" stroke="#d4cde0" stroke-dasharray="4.89, 4.89" stroke-linecap="round" stroke-linejoin="round" stroke-width="2.44" d="m894.09 348.13-271.24-51.02"/>
  <path fill="none" stroke="#726b7f" stroke-dasharray="4.89, 4.89" stroke-linecap="round" stroke-linejoin="round" stroke-width="2.44" d="m1034.61 209.32-371.07 3.66"/>
  <path fill="none" stroke="#ff527f" stroke-dasharray="4.89, 4.89" stroke-linecap="round" stroke-linejoin="round" stroke-width="2.44" d="m897.68 63.85-269.21 58.24"/>
  <circle cx="895.04" cy="64.3" r="59.9" fill="#ff527f"/>
  <path fill="#fff" d="M923.24 77.75c3.19 0 5.77-2.58 5.77-5.77V41.22c0-3.19-2.58-5.77-5.77-5.77H877.1c-3.19 0-5.77 2.58-5.77 5.77v30.76c0 3.19 2.58 5.77 5.77 5.77zm-.72-5.76h-44.7c-.4 0-.72-.32-.72-.72V41.95c0-.4.32-.72.72-.72h44.7c.4 0 .72.32.72.72v29.32c0 .4-.32.72-.72.72zm-35.8-18.27c2.65 0 4.81-2.15 4.81-4.81 0-2.66-2.15-4.81-4.81-4.81-2.66 0-4.81 2.15-4.81 4.81 0 2.66 2.15 4.81 4.81 4.81zm24.99 35.57c3.19 0 5.77-2.58 5.77-5.77V81.6h-5.77v1.2c0 .4-.32.72-.72.72h-44.7c-.4 0-.72-.32-.72-.72V53.48c0-.4.32-.72.72-.72h1.2v-5.77h-1.92c-3.19 0-5.77 2.58-5.77 5.77v30.76c0 3.19 2.58 5.77 5.77 5.77zm5.77-23.07v-9.61l-8.59-8.59c-.56-.56-1.48-.56-2.04 0l-12.44 12.44-4.75-4.75c-.56-.56-1.48-.56-2.04 0l-4.75 4.75v5.77h34.6z"/>
  <circle cx="895.04" cy="350.5" r="59.9" fill="#d4cde0"/>
  <path fill="#fff" d="M903.56 373.41c3.44 0 6.22-2.57 6.22-5.74v-7l13.18 8.21c.68.48 1.45.68 2.19.68 1.99 0 3.86-1.56 3.86-3.78v-30.87c0-2.22-1.86-3.78-3.86-3.78-.74 0-1.5.22-2.19.68l-13.18 8.22v-7c0-3.17-2.79-5.74-6.22-5.74h-37.53c-3.44 0-6.22 2.57-6.22 5.74v34.65c0 3.17 2.79 5.74 6.22 5.74h37.53zm0-5.77h-37.53c-.24 0-.38-.07-.46-.13v-34.34c.07-.05.22-.13.46-.13h37.53c.24 0 .38.07.46.13v34.34c-.07.05-.22.13-.46.13zm19.68-5.38-13.46-8.39v-7.05l13.46-8.39z"/>
  <circle cx="1034.98" cy="207.68" r="59.9" fill="#362b48"/>
  <path fill="#fff" d="M1054.24 234.09a5.27 5.27 0 0 0 5.27-5.27v-38.66a5.27 5.27 0 0 0-5.27-5.27h-5.27v-5.71c0-.72-.59-1.32-1.32-1.32h-4.39c-.72 0-1.32.59-1.32 1.32v5.71h-14.06v-5.71c0-.72-.59-1.32-1.32-1.32h-4.39c-.72 0-1.32.59-1.32 1.32v5.71h-5.27a5.27 5.27 0 0 0-5.27 5.27v38.66a5.27 5.27 0 0 0 5.27 5.27zm-.66-5.27h-37.34c-.36 0-.66-.3-.66-.66v-32.73h38.66v32.73c0 .36-.3.66-.66.66z"/>
  <path fill="none" stroke="#ffab50" stroke-width="9.73" d="m657.93 40.41 91.14 157.87a22.814 22.814 0 0 1 0 22.8l-91.14 157.87a22.804 22.804 0 0 1-19.74 11.4H455.9c-8.14 0-15.67-4.34-19.74-11.4l-91.14-157.87a22.814 22.814 0 0 1 0-22.8l91.14-157.87c4.07-7.05 11.6-11.4 19.74-11.4h182.29c8.14 0 15.67 4.34 19.74 11.4z"/>
  <g fill-rule="evenodd" data-name="Group">
    <path fill="#ffd5a7" stroke="#fff" stroke-width="1.27" d="m599.93 236.37 38.97-111.18-6.98 2.3-38.27 105.26-44.28 87.17 6.38 2.19z"/>
    <path fill="#ffd5a7" stroke="#fff" stroke-width="1.27" d="M670.58 210.9v7.91l-84.85 16.42-117.47 66.14v-8.99l117.47-63.95z"/>
    <path fill="#ffd5a7" stroke="#fff" stroke-width="1.27" d="M670.58 210.9v7.91l-84.85 16.42-156.13-18.96v-6.45l156.13 18.61z" data-name="Path-24"/>
    <path fill="#ffe6ca" stroke="#fff" stroke-width="1.27" d="M544.58 334.34 531.25 171.7h5.58l13.32 155.85z" data-name="Path-24"/>
    <path fill="#ffd5a7" stroke="#fff" stroke-width="1.27" d="m620.82 298.76-186.14-76.23.49-7.63 188.68 77.07z" data-name="Path-24"/>
    <path fill="#ffab50" d="m547.83 79.64 91.6 38.18L677.37 210l-37.94 92.18-91.6 38.18-91.6-38.18L418.29 210l37.94-92.18zm0 6.84-86.8 36.18-35.95 87.35 35.95 87.35 86.8 36.18 86.8-36.18 35.95-87.35-35.95-87.35z" opacity=".32"/>
    <path fill="#ffab50" d="m547.83 79.64 89.82 39.64-4.77 1.97-85.04-34.78-86.8 36.18-34.56 83.97-8.18 3.38 37.94-92.18 91.6-38.18z" data-name="Combined-Shape"/>
    <path fill="#ffe6ca" stroke="#fff" stroke-width="2.54" d="M639.7 297.11 677.37 214l-10.63 2.53-31.23 73.45z"/>
    <path fill="#bfb0ff" stroke="#fff" stroke-width="5.26" d="M680.19 201.19c4.55 2.64 7.35 7.51 7.35 12.77v.08c0 5.26-2.8 10.13-7.35 12.77a14.632 14.632 0 0 1-14.7 0 14.767 14.767 0 0 1-7.35-12.77v-.08c0-5.26 2.8-10.13 7.35-12.77a14.632 14.632 0 0 1 14.7 0z"/>
    <path fill="#ffd5a7" stroke="#fff" stroke-width="5.26" d="M553.48 316.19c4.55 2.64 7.35 7.51 7.35 12.77v.08c0 5.26-2.8 10.13-7.35 12.77a14.632 14.632 0 0 1-14.7 0 14.767 14.767 0 0 1-7.35-12.77v-.08c0-5.26 2.8-10.13 7.35-12.77a14.632 14.632 0 0 1 14.7 0z"/>
    <path fill="#ffab50" stroke="#fff" stroke-width="5.26" d="M554.61 73.67c4.55 2.64 7.35 7.51 7.35 12.77v.08c0 5.26-2.8 10.13-7.35 12.77a14.661 14.661 0 0 1-7.01 1.98l-13.46 38.06c2.14.57 4.22 1.43 6.18 2.56l1.19.69c1.81 1.04 3.4 2.34 4.75 3.83l74.55-22.66v-.2c.17-5.08 2.93-9.73 7.34-12.29a14.632 14.632 0 0 1 14.7 0c4.55 2.64 7.35 7.51 7.35 12.77v.08c0 5.26-2.8 10.13-7.35 12.77a14.632 14.632 0 0 1-14.7 0 14.794 14.794 0 0 1-4.73-4.37l-72.37 23.41c.48 2.43.52 4.97.05 7.5l-.96 5.2c-.47 2.55-1.37 4.96-2.63 7.13l32.75 42.75c4.14-1.66 8.87-1.35 12.79.93 4.55 2.64 7.35 7.51 7.35 12.77v.08c0 3.2-1.04 6.26-2.88 8.76l31.73 41.41c3.09-.36 6.27.26 9.05 1.88 4.55 2.64 7.35 7.51 7.35 12.77v.08c0 5.26-2.8 10.13-7.35 12.77a14.632 14.632 0 0 1-14.7 0 14.767 14.767 0 0 1-7.35-12.77v-.08c0-3.52 1.26-6.87 3.45-9.49l-30.8-40.94c-3.55.8-7.32.26-10.56-1.62a14.767 14.767 0 0 1-7.35-12.77v-.08c0-2.48.62-4.87 1.76-6.99l-31.82-42.29a22.867 22.867 0 0 1-5.41 2.78c-1.02.36-2.05.64-3.1.86l-55.81 98.82c1.92 2.53 3 5.65 3 8.93v.08c0 5.26-2.8 10.13-7.35 12.77a14.632 14.632 0 0 1-14.7 0 14.767 14.767 0 0 1-7.35-12.77v-.08c0-5.26 2.8-10.13 7.35-12.77a14.64 14.64 0 0 1 9.45-1.83l52.51-94.15c-2.29-.85-4.47-2.06-6.44-3.62l-1.03-.82a23.026 23.026 0 0 1-5.13-5.68l-62.66 36v.34c0 5.26-2.8 10.13-7.35 12.77a14.632 14.632 0 0 1-14.7 0 14.767 14.767 0 0 1-7.35-12.77v-.08c0-5.26 2.8-10.13 7.35-12.77a14.632 14.632 0 0 1 14.7 0c1.28.74 2.42 1.66 3.4 2.71l63.12-35.87c-.28-2.25-.23-4.56.16-6.85l.2-1.13c.34-1.94.91-3.8 1.7-5.55l-33.86-16.68a14.632 14.632 0 0 1-16.61 1.32 14.767 14.767 0 0 1-7.35-12.77v-.08c0-5.26 2.8-10.13 7.35-12.77a14.632 14.632 0 0 1 14.7 0c4.55 2.64 7.35 7.51 7.35 12.77v.08c0 1.43-.21 2.82-.6 4.16l36.16 15.05c1.53-1.15 3.2-2.12 5.01-2.87 1.49-.62 3.03-1.1 4.58-1.42l14.45-42.23a14.778 14.778 0 0 1-4.14-10.25v-.08c0-5.26 2.8-10.13 7.35-12.77a14.632 14.632 0 0 1 14.7 0z" data-name="Combined-Shape"/>
  </g>
  <circle cx="635.33" cy="124.47" r="15.27" fill="#ff527f" stroke="#fff" stroke-width="4.89" data-name="Oval"/>
  <circle cx="671.99" cy="214.88" r="15.27" fill="#362b48" stroke="#fff" stroke-width="4.89"/>
  <circle cx="630.45" cy="296.74" r="15.27" fill="#d4cde0" stroke="#fff" stroke-width="4.89"/>
  <circle cx="465.5" cy="294.3" r="15.27" fill="#7b4dff" stroke="#fff" stroke-width="4.89"/>
  <circle cx="430.07" cy="211.22" r="15.27" fill="#ff527f" stroke="#fff" stroke-width="4.89"/>
  <circle cx="461.84" cy="124.47" r="14.66" fill="#7c7588" stroke="#fff" stroke-width="3.67"/>
  <g data-name="humaaan-9">
    <g transform="translate(-4.64 -19.6)">
      <ellipse cx="553.35" cy="223.13" rx="56.71" ry="55.92"/>
      <ellipse cx="553.35" cy="223.13" fill="#fff" stroke="#fff" stroke-width="3.43" data-name="Oval" rx="59.07" ry="58.29"/>
    </g>
    <g data-name="Clipped">
      <path fill="#ffab50" d="M548.71 271.05c-37.67 0-68.31-30.29-68.31-67.52s30.64-67.52 68.31-67.52 68.31 30.29 68.31 67.52-30.64 67.52-68.31 67.52zm0-123.45c-31.27 0-56.71 25.09-56.71 55.92 0 30.83 25.44 55.92 56.71 55.92s56.71-25.09 56.71-55.92c0-30.83-25.44-55.92-56.71-55.92z"/>
      <g mask="url(#b)" transform="translate(-4.64 -19.6)">
        <g data-name="Group">
          <g data-name="Head/Front/Hijab-1">
            <path fill="#b28b67" d="M580.67 193.46c2.57 10.98-4.56 35.16-11.67 35.1-2.83-.03-8.03-3.22-12.85-8.22l-3.24 26.52-21.31-5.71 16.51-32.26c-2.8-5.9-3.99-12.53-1.76-19.01 6.43-18.66 31.76-7.39 34.33 3.59z"/>
            <path fill="#2c2c2c" d="M577.57 185.84c-.41-.42-1.27-1.31-1.72-1.67-.11-.09-.8-.93-.83-.93-.71.05-2.8.35-3.15 1.01-.04.05-.08.09-.11.13-.4.41-.77.84-1.14 1.28-.81.97-1.56 2-2.29 3.03-1.42 2.01-2.74 4.1-4.01 6.21-1.29 2.15-2.49 4.35-3.75 6.52-1.81 3.12-3.86 6.08-5.67 9.2-1.15 1.99-2.06 4.07-2.5 6.32 0 .03-.01.05-.02.08v.03c-.07.35-.12.7-.16 1.05-.04.3-.07.61-.1.91 1.27-1.43 2.39-3.08 3.53-4.63.11-.15.22-.31.33-.46.31-.29.62-.58.94-.87 1.99-1.81 3.99-3.61 5.94-5.48 3.5-3.35 7-6.8 10.86-9.71 1.14-.86 2.3-1.69 3.43-2.56.64-.5 1.28-1 1.9-1.53.45-.37 2.27-1.61 2.03-2.71-.13-.56-2.43-4.13-3.49-5.23z"/>
            <path fill="#ffab50" d="M575.98 184.29c.43.29.47-.76.1-1.23-1.7-2.18-9.68-4.95-17.16-5.38-5.01-.29-11.19.69-15.83 2.83-4.18 1.93-7.75 5.86-10.14 9.94-2.51 4.29-4 9.06-4.56 13.99-.12 1.08-.06 2.17-.14 3.24-.1 1.2-.29 2.34-.21 3.56.05.75.25 1.52.27 2.26.01.84-.32 1.54-.69 2.29-.61 1.23-1.29 2.44-2.09 3.56-1.2 1.68-2.52 3.2-3.57 4.99-1.4 2.39-6.62 9.98-5.06 12.85l41.3 11.07c-.28-3.12-2.51-7.3-2.32-10.51.11-1.89.98-5.85.98-6 .79-6.67-.21-10.23-1.05-11.64-.84-1.42-2.26-2.17-2.08-3.15.75-4.08 3.36-7.48 5.52-10.9 2.58-4.07 4.81-8.35 7.43-12.39 1.16-1.79 7.09-10.87 9.33-9.38z"/>
            <path d="M535.07 215.29c7.81 4.96 5.38 10.23 14.63 18.7l-1.04.3c-8.37-6.41-8.33-15.33-14.41-18.41l.83-.59zm14.73-27.09c-1.36 10.36-2.51 16.18 1.43 28.96l-.79.03c-4.51-11.42-3.55-19.5-1.33-29.12l.7.13zm-13.85 3.97c1.01 7.83 1.22 12.34 7.8 20.22l-.74.27c-6.82-6.72-7.71-12.79-7.74-20.36l.69-.13zm24.31-7.16c-2.88 4.53-3.93 7.08-5.4 13.93l-.76-.2c.28-6.76 3.16-12.42 5.21-13.98l.96.26z"/>
          </g>
          <g data-name="Bottom/Standing/Sprint">
            <path fill="#b28b67" d="M504.61 322.47c1.66 22.64 108.43 89.3 109.05 91.17.28.83-10.8 27.11-33.23 78.83l9.33 3.63c34.41-54.78 50.73-85.09 48.96-90.92-2.53-8.36-30.14-35.85-82.84-82.47z" data-name="Leg"/>
            <path fill="#2f3676" d="m582.88 480.8 15.24 5.55c32.13-36.29 44.73-66.23 42.43-81.49-1.53-10.17-29.05-37.62-82.56-82.34h-54.48c1.86 52.44 100.82 91.32 102.15 93.55 1.32 2.23-11.7 24.12-22.78 64.72z" data-name="Pant"/>
            <path fill="#997659" d="M422.57 533.39h11.03l120.67-210.92h-37.38l-47.57 114.3z" data-name="Leg"/>
            <path fill="#5c63ab" d="m426.8 513.32 24.51 4.6c18.95-27.89 98.25-142.22 106.95-195.45H503.7c-29.04 38.48-58.83 162.5-76.89 190.85z" data-name="Pant"/>
          </g>
          <g data-name="Body/Jacket">
            <path fill="#b28b67" d="m481.31 301.93 18.9 3.41c-18.33 35.68-28.17 54.6-29.51 56.74-3.01 4.83.03 13.52 1.17 18.11-6.66 1.68-4.2-8.45-12.62-6.19-7.69 2.06-14.16 7.1-21.48.58-.9-.8-1.59-3.34 1.4-4.71 7.47-3.4 18.48-9.71 20.24-12.11 2.4-3.28 9.7-21.89 21.89-55.83zm114.44 16.53 21.23 29.56c6.9 4.5 12.39 9.1 16.48 13.79.84 1.48 1.57 4.17-3.27 2.17-4.85-2-10.03-3.88-11.27-2.41-1.24 1.47 1.11 4.48-1.02 6.32-1.42 1.23-4.54-4.02-9.37-15.74l-23.89-20.44 11.12-13.25z"/>
            <path fill="#ffab50" d="m549.08 231.95 8.06.04c7.53 36.07 25.66 70.84 54.39 104.3l-30.82 26.38c-26.66-45.13-40.23-89.24-31.64-130.72Z"/>
            <path fill="#ffab50" d="m497.6 324.4 69.7 12.29c-9.22-42.15-11.41-76.96-6.56-104.43l-20.47-6.84c-21.21 23.69-31.66 55.62-42.67 98.98z"/>
            <path fill="#ffab50" d="M541.2 225.58c1.63.35 4.12.89 7.45 1.63l2.52 15.43c-2.59 17.81-5.74 54.08-9.47 108.79l-45.69-8.06c-.53 3.73-1 7.51-1.39 11.33l-33.97-5.99c15.2-56.49 41.59-97.62 79.16-123.38v.02l.02-.01z"/>
            <path d="m508.72 345.98-12.77-2.25c2.37-16.73 6.19-32.49 11.43-47.28-2.77 23.35-2.33 39.85 1.34 49.53z" data-name="Shade"/>
            <path fill="rgba(255, 255, 255, .2)" d="m533.59 321.4-22.53-3.97 24.38-6.51z"/>
          </g>
        </g>
      </g>
    </g>
  </g>
</svg>
