<svg xmlns="http://www.w3.org/2000/svg" xmlns:xlink="http://www.w3.org/1999/xlink" viewBox="0 0 467.2 280.209">
  <defs>
    <ellipse id="a" cx="27.768" cy="27.382" rx="27.768" ry="27.382"/>
  </defs>
  <g fill="none" fill-rule="evenodd" transform="translate(0 -27.863)">
    <path stroke="#235367" stroke-opacity=".185" stroke-width="6.373" d="m306.397 75.76 59.679 103.368a14.926 14.926 0 0 1 0 14.926l-59.68 103.368a14.926 14.926 0 0 1-12.926 7.463H174.111a14.926 14.926 0 0 1-12.926-7.463l-59.68-103.368a14.926 14.926 0 0 1 0-14.926l59.68-103.368a14.926 14.926 0 0 1 12.926-7.463h119.36c5.332 0 10.26 2.845 12.926 7.463z"/>
    <g transform="translate(204.8 32)">
      <ellipse cx="27.768" cy="27.382" fill="#000" fill-rule="nonzero" rx="27.768" ry="27.382" transform="translate(1.543 1.543)"/>
      <ellipse cx="29.31" cy="28.925" fill="#fae100" stroke="#fff" stroke-width="1.68" rx="28.925" ry="28.539"/>
    </g>
    <g transform="translate(206.343 33.543)">
      <mask id="b" fill="#fff">
        <use xlink:href="#a"/>
      </mask>
      <ellipse cx="27.768" cy="27.382" stroke="#d6dfe3" stroke-width="5.68" rx="30.608" ry="30.222"/>
      <g fill-rule="nonzero" mask="url(#b)">
        <path fill="#b28b67" d="M41.146 12.856c1.26 5.375-2.234 17.216-5.715 17.184-1.388-.013-3.934-1.574-6.294-4.027L27.551 39l-10.433-2.796 8.081-15.795c-1.372-2.89-1.955-6.138-.862-9.309 3.148-9.137 15.55-3.618 16.809 1.757Z"/>
        <path fill="#2c2c2c" d="M39.625 9.127c-.2-.207-.62-.642-.844-.82-.053-.042-.392-.454-.404-.453-.347.022-1.373.172-1.544.493a1.36 1.36 0 0 1-.055.062c-.194.202-.379.413-.559.629-.395.473-.763.98-1.12 1.484a49.252 49.252 0 0 0-1.963 3.04c-.632 1.05-1.219 2.129-1.836 3.19-.888 1.525-1.89 2.977-2.775 4.504-.565.974-1.008 1.995-1.223 3.096l-.008.04-.003.016c-.032.17-.058.341-.079.515-.017.148-.035.297-.05.447.622-.701 1.17-1.51 1.726-2.269.055-.074.108-.15.16-.225.152-.144.306-.285.46-.426.976-.886 1.954-1.768 2.906-2.68 1.714-1.643 3.428-3.33 5.319-4.753.558-.42 1.124-.83 1.679-1.256.315-.243.626-.492.93-.749.219-.183 1.114-.786.993-1.326-.062-.275-1.19-2.023-1.71-2.56Z"/>
        <path fill="#8991dc" d="M38.846 8.367c.211.14.228-.374.049-.604-.832-1.069-4.742-2.424-8.405-2.632-2.453-.14-5.478.338-7.749 1.385-2.047.945-3.796 2.87-4.967 4.869-1.229 2.099-1.956 4.435-2.232 6.851-.06.531-.027 1.061-.07 1.585-.048.59-.14 1.146-.104 1.742.022.365.125.745.13 1.107.006.414-.156.752-.34 1.122-.3.602-.632 1.195-1.024 1.743-.588.822-1.234 1.567-1.75 2.445-.685 1.17-3.24 4.887-2.477 6.291L30.13 39.69c-.137-1.527-1.227-3.573-1.137-5.144.052-.926.479-2.864.478-2.938.387-3.267-.1-5.007-.512-5.701-.411-.695-1.108-1.061-1.02-1.544.366-1.997 1.644-3.663 2.703-5.335 1.261-1.992 2.356-4.088 3.636-6.067.567-.877 3.47-5.323 4.568-4.594z"/>
        <path fill="#000" fill-opacity=".2" d="M18.82 23.545c3.825 2.428 2.636 5.007 7.163 9.155l-.511.148c-4.097-3.137-4.08-7.506-7.058-9.013Zm7.208-13.267c-.668 5.072-1.23 7.92.697 14.18l-.387.014c-2.21-5.593-1.738-9.548-.652-14.257Zm-6.78 1.948c.496 3.832.598 6.044 3.818 9.9l-.364.133c-3.341-3.29-3.774-6.264-3.792-9.97Zm11.905-3.51c-1.412 2.218-1.922 3.467-2.645 6.82l-.374-.1c.138-3.31 1.548-6.083 2.549-6.845z"/>
        <path fill="#b28b67" d="M3.903 76.023c.812 11.086 53.09 43.726 53.395 44.642.136.407-5.288 13.273-16.272 38.598l4.57 1.778c16.847-26.822 24.838-41.661 23.973-44.52-1.24-4.09-14.76-17.551-40.562-40.38z"/>
        <path fill="#2f3676" d="m42.229 153.544 7.46 2.718c15.734-17.768 21.9-32.428 20.776-39.898-.75-4.98-14.224-18.418-40.422-40.314H3.368c.91 25.674 49.366 44.712 50.014 45.806.648 1.095-5.73 11.81-11.153 31.688Z"/>
        <path fill="#e4e4e4" d="M39.343 158.395c-.933 1.092-1.513 1.951-1.742 2.579-.278.763-.556 1.923-.835 3.48l23.853 8.682c1.367-1.825 1.412-3.063.136-3.713a140.455 140.455 0 0 1-3.167-1.654l-9.286-8.982a.45.45 0 0 0-.646.02l-1.342 1.47c-1.446.128-2.556.051-3.329-.23-.628-.229-1.402-.798-2.324-1.708a.9.9 0 0 0-1.318.056z"/>
        <path fill="#997659" d="M-36.264 179.297h5.4L28.22 76.022H9.914l-23.289 55.963z"/>
        <path fill="#e4e4e4" d="M-36.587 177.114c-.503 1.345-.755 2.352-.755 3.02 0 .812.135 1.997.406 3.556h25.384c.66-2.183.279-3.362-1.142-3.536a140.455 140.455 0 0 1-3.542-.471l-11.798-5.265a.45.45 0 0 0-.6.24l-.758 1.841c-1.316.615-2.385.922-3.208.922-.668 0-1.59-.27-2.767-.81a.9.9 0 0 0-1.22.503z"/>
        <path fill="#5c63ab" d="m-34.197 169.47 12 2.252c9.278-13.654 48.107-69.638 52.364-95.7H3.453c-14.217 18.84-28.806 79.568-37.65 93.447Z"/>
        <path fill="#b28b67" d="m-7.504 65.964 9.256 1.67c-8.977 17.47-13.794 26.732-14.449 27.782-1.474 2.363.013 6.62.574 8.866-3.262.821-2.055-4.136-6.182-3.033-3.766 1.007-6.931 3.477-10.515.285-.44-.393-.78-1.638.688-2.306 3.656-1.663 9.046-4.752 9.908-5.929 1.176-1.606 4.75-10.717 10.72-27.335Zm56.034 8.098 10.394 14.474c3.378 2.204 6.067 4.454 8.068 6.75.413.726.77 2.04-1.602 1.062-2.373-.978-4.914-1.9-5.52-1.179-.605.722.545 2.194-.498 3.095-.695.6-2.225-1.969-4.588-7.708L43.086 80.549z"/>
        <path fill="#191847" d="m25.677 31.703 3.949.018c3.69 17.663 12.566 34.686 26.63 51.069L41.168 95.708C28.113 73.61 21.472 52.014 25.678 31.703Z"/>
        <path fill="#dde3e9" d="m.47 76.967 34.127 6.018c-4.513-20.637-5.584-37.681-3.213-51.132l-10.024-3.35C10.973 40.1 5.86 55.734.47 76.967Z"/>
        <path fill="#2f3676" d="M21.819 28.584c.799.17 2.015.435 3.647.797l1.233 7.555c-1.266 8.722-2.813 26.477-4.638 53.264L-.311 86.256a138.287 138.287 0 0 0-.68 5.55l-16.634-2.934c7.443-27.66 20.363-47.796 38.76-60.409l.006.009.006-.007Z"/>
        <path fill="#000" fill-opacity=".1" d="m5.918 87.534-6.254-1.103C.826 78.24 2.692 70.524 5.263 63.284c-1.359 11.43-1.14 19.514.655 24.25z"/>
        <path fill="#fff" fill-opacity=".2" d="M18.094 75.5 7.063 73.557l11.936-3.19z"/>
      </g>
    </g>
    <circle cx="397.6" cy="104" r="27.2" fill="#fe6b6b"/>
    <circle cx="27.2" cy="183.2" r="27.2" fill="#ffc92d"/>
    <path fill="#fff" fill-rule="nonzero" d="M410.404 110.109a2.619 2.619 0 0 0 2.619-2.619V93.524a2.619 2.619 0 0 0-2.619-2.618h-20.948a2.619 2.619 0 0 0-2.619 2.618v13.966a2.619 2.619 0 0 0 2.619 2.619zm-.327-2.619h-20.294a.327.327 0 0 1-.327-.327V93.852c0-.181.146-.328.327-.328h20.294c.18 0 .327.147.327.328v13.31c0 .181-.146.328-.327.328zm-16.257-8.292a2.182 2.182 0 1 0 0-4.365 2.182 2.182 0 0 0 0 4.365zm11.347 16.148a2.619 2.619 0 0 0 2.619-2.619v-.873h-2.619v.546c0 .18-.146.327-.327.327h-20.294a.327.327 0 0 1-.327-.327V99.089c0-.181.146-.328.327-.328h.545v-2.618h-.872a2.619 2.619 0 0 0-2.619 2.618v13.966a2.619 2.619 0 0 0 2.619 2.619zm2.619-10.475v-4.364l-3.902-3.901a.655.655 0 0 0-.925 0l-5.648 5.647-2.155-2.156a.655.655 0 0 0-.926 0l-2.156 2.156v2.618zM28.346 188.683l2.711-5.423 1.206 2.411h7.2c1.316-1.522 2.063-3.42 2.063-5.455.005-5.406-4.697-8.51-8.576-8.51a8.47 8.47 0 0 0-5.384 1.904 8.47 8.47 0 0 0-5.385-1.904c-3.878 0-8.581 3.104-8.581 8.51 0 2.035.747 3.933 2.062 5.455h6.372l1.631-3.911 3.104 6.89a.872.872 0 0 0 1.577.033zm-.737-2.428-3.175-7.054c-.31-.698-1.309-.682-1.603.022l-1.959 4.703h-3.268c-3.208-3.792-.382-9.602 4.577-9.602 1.691 0 2.783.338 5.385 2.913 2.787-2.755 3.77-2.913 5.384-2.913 4.976 0 7.785 5.81 4.577 9.602h-4.184l-1.506-3.012a.872.872 0 0 0-1.56 0zm2.368 8.898 7.818-7.736h-3.721l-5.94 5.876a.813.813 0 0 1-1.141 0l-5.935-5.876h-3.721l7.817 7.736a3.426 3.426 0 0 0 4.823 0z"/>
    <path stroke="#1de1b9" stroke-dasharray="3.2, 3.2" stroke-linecap="round" stroke-linejoin="round" stroke-width="1.6" d="m68.4 102 108 28.8"/>
    <circle cx="64" cy="96" r="27.2" fill="#1de1b9"/>
    <path fill="#fff" fill-rule="nonzero" d="M54.037 109.091c2.693 0 4.885-1.7 5.178-3.878.036-.148.056-.305.057-.471l.002-.015v-9.601l14.838-4.687v7.037a5.993 5.993 0 0 0-2.618-.605c-2.892 0-5.237 1.955-5.237 4.365s2.345 4.364 5.237 4.364c2.694 0 4.886-1.701 5.18-3.88.033-.142.051-.291.054-.449l.004-.035-.001-.004V82.906a1.746 1.746 0 0 0-2.27-1.664L57.878 86.48c-.725.23-1.221.9-1.221 1.664v12.825a5.988 5.988 0 0 0-2.619-.605c-2.892 0-5.237 1.954-5.237 4.364s2.345 4.364 5.237 4.364zm5.237-16.712v-3.595L74.112 84.1v3.595zm12.22 10.602c-1.543 0-2.618-.92-2.618-1.745 0-.826 1.075-1.746 2.618-1.746s2.618.92 2.619 1.745v.001c0 .826-1.076 1.745-2.619 1.745zm-17.457 3.492c-1.543 0-2.618-.92-2.618-1.746s1.075-1.746 2.618-1.746 2.619.92 2.619 1.746-1.076 1.746-2.619 1.746z"/>
    <path stroke="#ffc92d" stroke-dasharray="3.2, 3.2" stroke-linecap="round" stroke-linejoin="round" stroke-width="1.6" d="m47.2 182.4 109.69 4.309"/>
    <path stroke="#8559ff" stroke-dasharray="3.2, 3.2" stroke-linecap="round" stroke-linejoin="round" stroke-width="1.6" d="m86.999 264.716 93.038-23.916"/>
    <circle cx="64" cy="268" r="27.2" fill="#b094ff"/>
    <path fill="#fff" fill-rule="nonzero" d="M72.725 281.091a2.624 2.624 0 0 0 2.624-2.618V260.36c0-.693-.284-1.364-.775-1.855l-4.577-4.577a2.619 2.619 0 0 0-1.85-.77H57.02a2.627 2.627 0 0 0-2.619 2.625v22.689a2.62 2.62 0 0 0 2.619 2.618zm.005-2.618H57.019v-22.69h8.728v5.675c0 .725.584 1.309 1.31 1.309h5.673zm-.218-18.325H68.36v-4.151zm-6.328 15.706c.24 0 .436-.196.436-.436v-3.055h3.055c.24 0 .436-.197.436-.437v-2.618a.438.438 0 0 0-.436-.437H66.62v-3.055a.438.438 0 0 0-.436-.436h-2.619a.438.438 0 0 0-.436.436v3.055h-3.055a.438.438 0 0 0-.437.437v2.618c0 .24.196.437.437.437h3.055v3.055c0 .24.196.436.436.436z"/>
    <path stroke="#d6dfe3" stroke-dasharray="3.2, 3.2" stroke-linecap="round" stroke-linejoin="round" stroke-width="1.6" d="m390.478 272-102.441-28.159"/>
    <circle cx="397.6" cy="272" r="27.2" fill="#d6dfe3"/>
    <path fill="#fff" fill-rule="nonzero" d="M401.468 282.4c1.56 0 2.826-1.167 2.826-2.608v-3.18l5.985 3.726c.31.218.66.31.993.31.905 0 1.75-.708 1.75-1.718v-14.014c0-1.01-.845-1.719-1.75-1.719-.338 0-.682.098-.993.311l-5.985 3.731v-3.18c0-1.44-1.265-2.608-2.826-2.608h-17.042c-1.56 0-2.826 1.168-2.826 2.608v15.733c0 1.44 1.266 2.608 2.826 2.608zm0-2.619h-17.042a.32.32 0 0 1-.207-.06V264.13a.357.357 0 0 1 .207-.06h17.042a.32.32 0 0 1 .208.06v15.591a.357.357 0 0 1-.208.06zm8.936-2.444-6.11-3.807v-3.203l6.11-3.808z"/>
    <path stroke="#79b2fd" stroke-dasharray="3.2, 3.2" stroke-linecap="round" stroke-linejoin="round" stroke-width="1.6" d="m440 183.6-125.32 5.156"/>
    <path stroke="#fe6b6b" stroke-dasharray="3.2, 3.2" stroke-linecap="round" stroke-linejoin="round" stroke-width="1.6" d="m377.34 104.462-85.625 24.779"/>
    <path fill="#bfb0ff" stroke="#fff" stroke-width=".832" d="m268.416 204.068 25.522-72.8-4.571 1.507-25.061 68.92-28.994 57.082 4.177 1.43z"/>
    <path fill="#bfb0ff" stroke="#fff" stroke-width=".832" d="M314.68 187.391v5.18l-55.56 10.751-76.913 43.305v-5.886l76.914-41.869z"/>
    <path fill="#bfb0ff" stroke="#fff" stroke-width=".832" d="M314.68 187.391v5.18l-55.56 10.751-102.23-12.415v-4.222l102.23 12.187z"/>
    <path fill="#bfb0ff" stroke="#fff" stroke-width=".832" d="m232.175 268.218-8.725-106.493h3.65l8.725 102.043z"/>
    <path fill="#bfb0ff" stroke="#fff" stroke-width=".832" d="m282.095 244.922-121.877-49.917.322-4.992 123.54 50.459z"/>
    <path fill="#d8d8d8" d="m234.303 101.448 59.978 25.002 24.844 60.36-24.844 60.36-59.978 25.001-59.977-25.002-24.844-60.36 24.844-60.36Zm0 4.473-56.835 23.691-23.541 57.197 23.541 57.197 56.835 23.692 56.835-23.692 23.542-57.197-23.542-57.197z" opacity=".321"/>
    <path fill="#8559ff" d="m234.303 101.448 58.81 25.955-3.125 1.292-55.685-22.774-56.835 23.691-22.63 54.982-5.356 2.215 24.844-60.36Z"/>
    <path fill="#bfb0ff" stroke="#fff" stroke-width="1.664" d="m294.458 243.842 24.667-54.423-6.962 1.66-20.447 48.093z"/>
    <path fill="#bfb0ff" stroke="#fff" stroke-width="3.444" d="M320.973 181.032a9.67 9.67 0 0 1 4.812 8.36v.053a9.67 9.67 0 0 1-4.812 8.36 9.578 9.578 0 0 1-9.623 0 9.67 9.67 0 0 1-4.812-8.36v-.053a9.67 9.67 0 0 1 4.812-8.36 9.578 9.578 0 0 1 9.623 0zM238.004 256.329a9.67 9.67 0 0 1 4.811 8.36v.053a9.67 9.67 0 0 1-4.811 8.361 9.578 9.578 0 0 1-9.623 0 9.67 9.67 0 0 1-4.812-8.36v-.054a9.67 9.67 0 0 1 4.812-8.36 9.578 9.578 0 0 1 9.623 0z"/>
    <path fill="#8559ff" stroke="#fff" stroke-width="3.444" d="M238.745 97.534a9.67 9.67 0 0 1 4.811 8.36v.053a9.67 9.67 0 0 1-4.811 8.36 9.57 9.57 0 0 1-4.588 1.295l-8.815 24.919c1.402.375 2.764.935 4.048 1.678l.778.45a13.008 13.008 0 0 1 3.113 2.506l48.814-14.84.002-.131a9.67 9.67 0 0 1 4.806-8.048 9.578 9.578 0 0 1 9.623 0 9.67 9.67 0 0 1 4.812 8.36v.053a9.67 9.67 0 0 1-4.812 8.36 9.578 9.578 0 0 1-9.623 0 9.66 9.66 0 0 1-3.095-2.86l-47.386 15.327c.318 1.588.341 3.25.036 4.91l-.628 3.403a14.66 14.66 0 0 1-1.72 4.671l21.446 27.991a9.578 9.578 0 0 1 8.376.609 9.67 9.67 0 0 1 4.811 8.36v.053c0 2.098-.679 4.099-1.883 5.734l20.775 27.116a9.575 9.575 0 0 1 5.929 1.231 9.67 9.67 0 0 1 4.811 8.36v.054a9.67 9.67 0 0 1-4.811 8.36 9.578 9.578 0 0 1-9.624 0 9.67 9.67 0 0 1-4.811-8.36v-.053c0-2.308.823-4.5 2.261-6.215l-20.168-26.803a9.577 9.577 0 0 1-6.913-1.063 9.67 9.67 0 0 1-4.812-8.36v-.054c0-1.624.408-3.192 1.151-4.575l-20.837-27.693a14.664 14.664 0 0 1-3.545 1.82c-.668.235-1.346.421-2.028.56l-36.544 64.707a9.667 9.667 0 0 1 1.966 5.845v.053a9.67 9.67 0 0 1-4.811 8.36 9.578 9.578 0 0 1-9.624 0 9.67 9.67 0 0 1-4.811-8.36v-.053a9.67 9.67 0 0 1 4.811-8.36 9.576 9.576 0 0 1 6.188-1.197l34.38-61.644a15.402 15.402 0 0 1-4.214-2.373l-.677-.536a15.2 15.2 0 0 1-3.361-3.717l-41.03 23.572c.002.057.002.115.002.172v.053a9.67 9.67 0 0 1-4.812 8.36 9.578 9.578 0 0 1-9.623 0 9.67 9.67 0 0 1-4.811-8.36v-.053a9.67 9.67 0 0 1 4.811-8.36 9.578 9.578 0 0 1 9.623 0 9.661 9.661 0 0 1 2.224 1.776l41.329-23.484a15.202 15.202 0 0 1 .108-4.488l.129-.742c.22-1.268.598-2.487 1.115-3.633l-22.172-10.923a9.578 9.578 0 0 1-10.872.863 9.67 9.67 0 0 1-4.812-8.36v-.054a9.67 9.67 0 0 1 4.811-8.36 9.578 9.578 0 0 1 9.624 0 9.67 9.67 0 0 1 4.811 8.36v.053c0 .935-.134 1.85-.39 2.722l23.674 9.852a15.105 15.105 0 0 1 3.281-1.881 16.742 16.742 0 0 1 3-.933l9.458-27.65a9.67 9.67 0 0 1-2.71-6.712v-.053a9.67 9.67 0 0 1 4.812-8.36 9.578 9.578 0 0 1 9.624 0z"/>
    <circle cx="440" cy="183.2" r="27.2" fill="#79b2fd"/>
    <path fill="#fff" fill-rule="nonzero" d="M448.746 195.191a2.394 2.394 0 0 0 2.394-2.393v-17.553a2.394 2.394 0 0 0-2.394-2.394h-2.393v-2.593a.6.6 0 0 0-.598-.598h-1.995a.6.6 0 0 0-.599.598v2.593h-6.382v-2.593a.6.6 0 0 0-.599-.598h-1.994a.6.6 0 0 0-.599.598v2.593h-2.393a2.394 2.394 0 0 0-2.394 2.394v17.553a2.394 2.394 0 0 0 2.394 2.393zm-.299-2.393h-16.954a.3.3 0 0 1-.3-.3v-14.86h17.553v14.86a.3.3 0 0 1-.299.3z"/>
    <circle cx="291.6" cy="130.8" r="10" fill="#fe6b6b" stroke="#fff" stroke-width="3.2"/>
    <circle cx="315.6" cy="190" r="10" fill="#79b2fd" stroke="#fff" stroke-width="3.2"/>
    <circle cx="288.4" cy="243.6" r="10" fill="#d6dfe3" stroke="#fff" stroke-width="3.2"/>
    <circle cx="180.4" cy="242" r="10" fill="#b094ff" stroke="#fff" stroke-width="3.2"/>
    <circle cx="157.2" cy="187.6" r="10" fill="#ffc92d" stroke="#fff" stroke-width="3.2"/>
    <circle cx="178" cy="130.8" r="9.6" fill="#1de1b9" stroke="#fff" stroke-width="2.4"/>
  </g>
</svg>
