<?xml version="1.0" encoding="UTF-8"?>
<svg id="Layer_1" data-name="Layer 1" xmlns="http://www.w3.org/2000/svg" xmlns:xlink="http://www.w3.org/1999/xlink" viewBox="0 0 1441 452">
  <defs>
    <mask id="mask" x="600.87" y="177.35" width="220.44" height="379.36" maskUnits="userSpaceOnUse">
      <g id="mask-2">
        <ellipse id="path-1-2" data-name="path-1" cx="733.85" cy="237.47" rx="56.71" ry="55.92" fill="#fff"/>
      </g>
    </mask>
  </defs>
  <path id="Polygon" d="M841.99,57.35l91.14,157.87c4.07,7.05,4.07,15.74,0,22.8l-91.14,157.87c-4.07,7.05-11.6,11.4-19.74,11.4h-182.29c-8.14,0-15.67-4.34-19.74-11.4l-91.14-157.87c-4.07-7.05-4.07-15.74,0-22.8l91.14-157.87c4.07-7.05,11.6-11.4,19.74-11.4h182.29c8.14,0,15.67,4.34,19.74,11.4Z" fill="none" stroke="#ffab50" stroke-miterlimit="4" stroke-width="9.73"/>
  <line id="Path-7" x1="201.14" y1="86.35" x2="643.45" y2="141.41" fill="none" stroke="#726b7f" stroke-dasharray="4.89 4.89" stroke-linecap="round" stroke-linejoin="round" stroke-width="2.44"/>
  <line id="Path-8" x1="129.38" y1="216.96" x2="613.65" y2="226.8" fill="none" stroke="#ff527f" stroke-dasharray="4.89 4.89" stroke-linecap="round" stroke-linejoin="round" stroke-width="2.44"/>
  <line id="Path-9" x1="211.97" y1="363.76" x2="649" y2="309.41" fill="none" stroke="#7b4dff" stroke-dasharray="4.89 4.89" stroke-linecap="round" stroke-linejoin="round" stroke-width="2.44"/>
  <circle id="Oval-Copy-4" cx="68.77" cy="217.01" r="59.9" fill="#ff527f"/>
  <path id="h" d="M71.29,229.08l5.97-11.94,2.66,5.31h15.86c2.9-3.35,4.54-7.53,4.54-12.01.01-11.91-10.34-18.74-18.89-18.74-4.39,0-8.53,1.48-11.86,4.19-3.33-2.72-7.47-4.19-11.86-4.19-8.54,0-18.9,6.84-18.9,18.74,0,4.48,1.65,8.66,4.54,12.01h14.03l3.59-8.61,6.84,15.17c.66,1.48,2.75,1.53,3.47.07ZM69.67,223.73l-6.99-15.54c-.68-1.54-2.88-1.5-3.53.05l-4.31,10.36h-7.2c-7.06-8.35-.84-21.15,10.08-21.15,3.72,0,6.13.74,11.86,6.42,6.14-6.07,8.3-6.42,11.86-6.42,10.96,0,17.15,12.8,10.08,21.15h-9.22l-3.32-6.63c-.71-1.42-2.73-1.42-3.44,0l-5.88,11.76ZM74.88,243.33l17.22-17.04h-8.19l-13.08,12.94c-.7.68-1.81.68-2.51,0l-13.07-12.94h-8.19l17.22,17.04c2.94,2.91,7.68,2.92,10.62,0Z" fill="#fff"/>
  <circle id="Oval-Copy-3" cx="196.71" cy="68.85" r="59.9" fill="#7c7588"/>
  <path id="m" d="M174.77,97.69c5.93,0,10.76-3.74,11.4-8.54.08-.33.12-.67.12-1.04,0-.01,0-.02,0-.03v-21.15l32.68-10.32v15.5c-1.7-.82-3.65-1.33-5.77-1.33-6.37,0-11.53,4.3-11.53,9.61s5.16,9.61,11.53,9.61c5.93,0,10.76-3.75,11.41-8.55.07-.31.11-.64.12-.99v-.08h0s0,0,0,0v-40.36c0-2.2-1.8-3.85-3.84-3.85-.38,0-.77.06-1.16.18l-36.53,11.53c-1.6.5-2.69,1.98-2.69,3.66v28.25c-1.7-.83-3.65-1.33-5.77-1.33-6.37,0-11.53,4.3-11.53,9.61s5.16,9.61,11.53,9.61ZM186.3,60.88v-7.92l32.68-10.32v7.92l-32.68,10.32ZM213.22,84.23c-3.4,0-5.77-2.03-5.77-3.84s2.37-3.84,5.77-3.84,5.77,2.02,5.77,3.84h0c0,1.82-2.37,3.85-5.77,3.85ZM174.77,91.92c-3.4,0-5.77-2.03-5.77-3.84s2.37-3.84,5.77-3.84,5.77,2.03,5.77,3.84-2.37,3.84-5.77,3.84Z" fill="#fff"/>
  <circle id="Oval-Copy" cx="196.71" cy="363.86" r="59.9" fill="#7b4dff"/>
  <path id="f" d="M215.92,392.7c3.18,0,5.78-2.58,5.78-5.77v-39.89c0-1.53-.62-3-1.71-4.09l-10.08-10.08c-1.08-1.08-2.55-1.69-4.07-1.69h-24.51c-3.18.01-5.77,2.6-5.77,5.78v49.97c0,3.18,2.58,5.77,5.77,5.77h34.59ZM215.94,386.93h-34.6v-49.97h19.22v12.5c0,1.6,1.29,2.88,2.88,2.88h12.5v34.59ZM215.46,346.57h-9.14v-9.14l9.14,9.14ZM201.52,381.16c.53,0,.96-.43.96-.96v-6.73h6.73c.53,0,.96-.43.96-.96v-5.77c0-.53-.43-.96-.96-.96h-6.73v-6.73c0-.53-.43-.96-.96-.96h-5.77c-.53,0-.96.43-.96.96v6.73h-6.73c-.53,0-.96.43-.96.96v5.77c0,.53.43.96.96.96h6.73v6.73c0,.53.43.96.96.96h5.77Z" fill="#fff"/>
  <line id="Path-10" x1="1219.06" y1="360.88" x2="813.95" y2="314.05" fill="none" stroke="#d4cde0" stroke-dasharray="4.89 4.89" stroke-linecap="round" stroke-linejoin="round" stroke-width="2.44"/>
  <line id="Path-11" x1="1311.21" y1="217.19" x2="854.64" y2="229.92" fill="none" stroke="#726b7f" stroke-dasharray="4.89 4.89" stroke-linecap="round" stroke-linejoin="round" stroke-width="2.44"/>
  <line id="Path-12" x1="1225.92" y1="89.93" x2="819.56" y2="139.03" fill="none" stroke="#ff527f" stroke-dasharray="4.89 4.89" stroke-linecap="round" stroke-linejoin="round" stroke-width="2.44"/>
  <g id="Group">
    <polygon id="Path-25" points="733.42 336.86 739.8 339.05 783.98 253.31 822.96 142.13 815.98 144.43 777.7 249.69 733.42 336.86" fill="#ffd5a7" fill-rule="evenodd" stroke="#fff" stroke-width="1.27"/>
    <polygon id="Path-24" points="652.32 309.32 769.78 245.37 854.64 227.84 854.64 235.75 769.78 252.17 652.32 318.31 652.32 309.32" fill="#ffd5a7" fill-rule="evenodd" stroke="#fff" stroke-width="1.27"/>
    <polygon id="Path-24-2" data-name="Path-24" points="613.65 226.76 769.78 245.37 854.64 227.84 854.64 235.75 769.78 252.17 613.65 233.21 613.65 226.76" fill="#ffd5a7" fill-rule="evenodd" stroke="#fff" stroke-width="1.27"/>
    <polygon id="Path-24-3" data-name="Path-24" points="720.88 188.64 734.2 344.49 728.63 351.28 715.31 188.64 720.88 188.64" fill="#ffe6ca" fill-rule="evenodd" stroke="#fff" stroke-width="1.27"/>
    <polygon id="Path-24-4" data-name="Path-24" points="619.23 231.84 807.9 308.91 804.87 315.7 618.74 239.47 619.23 231.84" fill="#ffd5a7" fill-rule="evenodd" stroke="#fff" stroke-width="1.27"/>
    <path id="Combined-Shape" d="M731.88,96.58l91.6,38.18,37.94,92.18-37.94,92.18-91.6,38.18-91.6-38.18-37.94-92.18,37.94-92.18,91.6-38.18ZM731.88,103.42l-86.8,36.18-35.95,87.35,35.95,87.35,86.8,36.18,86.8-36.18,35.95-87.35-35.95-87.35-86.8-36.18Z" fill="#ffab50" fill-rule="evenodd" isolation="isolate" opacity=".32"/>
    <path id="Combined-Shape-2" data-name="Combined-Shape" d="M731.88,96.58l89.82,39.64-4.77,1.97-85.04-34.78-86.8,36.18-34.56,83.97-8.18,3.38,37.94-92.18,91.6-38.18Z" fill="#ffab50" fill-rule="evenodd"/>
    <polygon id="Path-2" points="850.79 233.47 819.56 306.92 823.75 314.05 861.42 230.94 850.79 233.47" fill="#ffe6ca" fill-rule="evenodd" stroke="#fff" stroke-width="2.54"/>
    <path id="Polygon-Copy-8" d="M864.25,218.13c4.55,2.64,7.35,7.51,7.35,12.77v.08c0,5.26-2.8,10.13-7.35,12.77-4.54,2.64-10.15,2.64-14.7,0-4.55-2.64-7.35-7.51-7.35-12.77v-.08c0-5.26,2.8-10.13,7.35-12.77,4.54-2.64,10.15-2.64,14.7,0Z" fill="#bfb0ff" fill-rule="evenodd" stroke="#fff" stroke-width="5.26"/>
    <path id="Polygon-Copy" d="M737.53,333.12c4.55,2.64,7.35,7.51,7.35,12.77v.08c0,5.26-2.8,10.13-7.35,12.77-4.54,2.64-10.15,2.64-14.7,0-4.55-2.64-7.35-7.51-7.35-12.77v-.08c0-5.26,2.8-10.13,7.35-12.77,4.54-2.64,10.15-2.64,14.7,0Z" fill="#ffd5a7" fill-rule="evenodd" stroke="#fff" stroke-width="5.26"/>
    <path id="Combined-Shape-3" data-name="Combined-Shape" d="M738.66,90.61c4.55,2.64,7.35,7.51,7.35,12.77v.08c0,5.26-2.8,10.13-7.35,12.77-2.17,1.26-4.58,1.92-7.01,1.98l-13.46,38.06c2.14.57,4.22,1.43,6.18,2.56l1.19.69c1.81,1.04,3.4,2.34,4.75,3.83l74.55-22.66v-.2c.17-5.08,2.93-9.73,7.34-12.29,4.54-2.64,10.15-2.64,14.7,0,4.55,2.64,7.35,7.51,7.35,12.77v.08c0,5.26-2.8,10.13-7.35,12.77-4.54,2.64-10.15,2.64-14.7,0-1.91-1.11-3.51-2.61-4.73-4.37l-72.37,23.41c.48,2.43.52,4.97.05,7.5l-.96,5.2c-.47,2.55-1.37,4.96-2.63,7.13l32.75,42.75c4.14-1.66,8.87-1.35,12.79.93,4.55,2.64,7.35,7.51,7.35,12.77v.08c0,3.2-1.04,6.26-2.88,8.76l31.73,41.41c3.09-.36,6.27.26,9.05,1.88,4.55,2.64,7.35,7.51,7.35,12.77v.08c0,5.26-2.8,10.13-7.35,12.77-4.54,2.64-10.15,2.64-14.7,0-4.55-2.64-7.35-7.51-7.35-12.77v-.08c0-3.52,1.26-6.87,3.45-9.49l-30.8-40.94c-3.55.8-7.32.26-10.56-1.62-4.55-2.64-7.35-7.51-7.35-12.77v-.08c0-2.48.62-4.87,1.76-6.99l-31.82-42.29c-1.65,1.15-3.47,2.09-5.41,2.78-1.02.36-2.05.64-3.1.86l-55.81,98.82c1.92,2.53,3,5.65,3,8.93v.08c0,5.26-2.8,10.13-7.35,12.77-4.54,2.64-10.15,2.64-14.7,0-4.55-2.64-7.35-7.51-7.35-12.77v-.08c0-5.26,2.8-10.13,7.35-12.77,2.9-1.69,6.24-2.29,9.45-1.83l52.51-94.15c-2.29-.85-4.47-2.06-6.44-3.62l-1.03-.82c-2.05-1.62-3.77-3.55-5.13-5.68l-62.66,36c0,.09,0,.18,0,.26v.08c0,5.26-2.8,10.13-7.35,12.77-4.54,2.64-10.15,2.64-14.7,0-4.55-2.64-7.35-7.51-7.35-12.77v-.08c0-5.26,2.8-10.13,7.35-12.77,4.54-2.64,10.15-2.64,14.7,0,1.28.74,2.42,1.66,3.4,2.71l63.12-35.87c-.28-2.25-.23-4.56.16-6.85l.2-1.13c.34-1.94.91-3.8,1.7-5.55l-33.86-16.68c-.59.48-1.23.93-1.91,1.32-4.54,2.64-10.15,2.64-14.7,0-4.55-2.64-7.35-7.51-7.35-12.77v-.08c0-5.26,2.8-10.13,7.35-12.77,4.54-2.64,10.15-2.64,14.7,0,4.55,2.64,7.35,7.51,7.35,12.77v.08c0,1.43-.21,2.82-.6,4.16l36.16,15.05c1.53-1.15,3.2-2.12,5.01-2.87,1.49-.62,3.03-1.1,4.58-1.42l14.45-42.23c-2.62-2.72-4.14-6.38-4.14-10.25v-.08c0-5.26,2.8-10.13,7.35-12.77,4.54-2.64,10.15-2.64,14.7,0Z" fill="#ffab50" fill-rule="evenodd" stroke="#fff" stroke-width="5.26"/>
  </g>
  <circle id="Oval" cx="1232.46" cy="73.26" r="59.9" fill="#ff527f"/>
  <path id="i" d="M1260.66,86.71c3.19,0,5.77-2.58,5.77-5.77v-30.76c0-3.19-2.58-5.77-5.77-5.77h-46.14c-3.19,0-5.77,2.58-5.77,5.77v30.76c0,3.19,2.58,5.77,5.77,5.77h46.14ZM1259.94,80.94h-44.7c-.4,0-.72-.32-.72-.72v-29.32c0-.4.32-.72.72-.72h44.7c.4,0,.72.32.72.72v29.32c0,.4-.32.72-.72.72ZM1224.13,62.68c2.65,0,4.81-2.15,4.81-4.81s-2.15-4.81-4.81-4.81-4.81,2.15-4.81,4.81,2.15,4.81,4.81,4.81ZM1249.12,98.25c3.19,0,5.77-2.58,5.77-5.77v-1.92h-5.77v1.2c0,.4-.32.72-.72.72h-44.7c-.4,0-.72-.32-.72-.72v-29.32c0-.4.32-.72.72-.72h1.2v-5.77h-1.92c-3.19,0-5.77,2.58-5.77,5.77v30.76c0,3.19,2.58,5.77,5.77,5.77h46.14ZM1254.89,75.18v-9.61l-8.59-8.59c-.56-.56-1.48-.56-2.04,0l-12.44,12.44-4.75-4.75c-.56-.56-1.48-.56-2.04,0l-4.75,4.75v5.77h34.6Z" fill="#fff"/>
  <circle id="Oval-Copy-2" cx="1232.46" cy="359.46" r="59.9" fill="#d4cde0"/>
  <path id="v" d="M1240.98,382.36c3.44,0,6.22-2.57,6.22-5.74v-7l13.18,8.21c.68.48,1.45.68,2.19.68,1.99,0,3.86-1.56,3.86-3.78v-30.87c0-2.22-1.86-3.78-3.86-3.78-.74,0-1.5.22-2.19.68l-13.18,8.22v-7c0-3.17-2.79-5.74-6.22-5.74h-37.53c-3.44,0-6.22,2.57-6.22,5.74v34.65c0,3.17,2.79,5.74,6.22,5.74h37.53ZM1240.98,376.6h-37.53c-.24,0-.38-.07-.46-.13v-34.34c.07-.05.22-.13.46-.13h37.53c.24,0,.38.07.46.13v34.34c-.07.05-.22.13-.46.13ZM1260.66,371.21l-13.46-8.39v-7.05l13.46-8.39v23.83Z" fill="#fff"/>
  <circle id="Oval-Copy-5" cx="1372.4" cy="216.64" r="59.9" fill="#362b48"/>
  <path id="c" d="M1391.66,243.05c2.91,0,5.27-2.36,5.27-5.27v-38.66c0-2.91-2.36-5.27-5.27-5.27h-5.27v-5.71c0-.72-.59-1.32-1.32-1.32h-4.39c-.72,0-1.32.59-1.32,1.32v5.71h-14.06v-5.71c0-.72-.59-1.32-1.32-1.32h-4.39c-.72,0-1.32.59-1.32,1.32v5.71h-5.27c-2.91,0-5.27,2.36-5.27,5.27v38.66c0,2.91,2.36,5.27,5.27,5.27h38.66ZM1391,237.78h-37.34c-.36,0-.66-.3-.66-.66v-32.73h38.66v32.73c0,.36-.3.66-.66.66Z" fill="#fff"/>
  <circle id="Oval-2" data-name="Oval" cx="819.39" cy="141.41" r="15.27" fill="#ff527f" stroke="#fff" stroke-width="4.89"/>
  <circle id="Oval-Copy-6" cx="856.04" cy="231.82" r="15.27" fill="#362b48" stroke="#fff" stroke-width="4.89"/>
  <circle id="Oval-Copy-7" cx="814.5" cy="313.68" r="15.27" fill="#d4cde0" stroke="#fff" stroke-width="4.89"/>
  <circle id="Oval-Copy-8" cx="649.56" cy="311.24" r="15.27" fill="#7b4dff" stroke="#fff" stroke-width="4.89"/>
  <circle id="Oval-Copy-9" cx="614.13" cy="228.16" r="15.27" fill="#ff527f" stroke="#fff" stroke-width="4.89"/>
  <circle id="Oval-Copy-10" cx="645.89" cy="141.41" r="14.66" fill="#7c7588" stroke="#fff" stroke-width="3.67"/>
  <g id="humaaan-9">
    <g id="Mask">
      <g id="path-1-link">
        <ellipse id="path-1" cx="733.85" cy="222.84" rx="56.71" ry="55.92"/>
      </g>
      <ellipse id="Oval-3" data-name="Oval" cx="733.85" cy="222.84" rx="59.07" ry="58.29" fill="#fff" stroke="#fff" stroke-width="3.43"/>
    </g>
    <g id="Clipped">
      <path d="M733.85,290.37c-37.67,0-68.31-30.29-68.31-67.52s30.64-67.52,68.31-67.52,68.31,30.29,68.31,67.52-30.64,67.52-68.31,67.52ZM733.85,166.92c-31.27,0-56.71,25.09-56.71,55.92s25.44,55.92,56.71,55.92,56.71-25.09,56.71-55.92-25.44-55.92-56.71-55.92Z" fill="#ffab50"/>
      <g mask="url(#mask)">
        <g id="Group-2" data-name="Group">
          <g>
            <g id="Head_Front_Hijab-1" data-name="Head/Front/Hijab-1">
              <g id="Head">
                <path id="Path" d="M761.17,193.18c2.57,10.98-4.56,35.16-11.67,35.1-2.83-.03-8.03-3.22-12.85-8.22l-3.24,26.52-21.31-5.71,16.51-32.26c-2.8-5.9-3.99-12.53-1.76-19.01,6.43-18.66,31.76-7.39,34.33,3.59Z" fill="#b28b67"/>
              </g>
              <g id="Hijab">
                <path id="Front" d="M758.06,185.56c-.41-.42-1.27-1.31-1.72-1.67-.11-.09-.8-.93-.83-.93-.71.05-2.8.35-3.15,1.01-.04.05-.08.09-.11.13-.4.41-.77.84-1.14,1.28-.81.97-1.56,2-2.29,3.03-1.42,2.01-2.74,4.1-4.01,6.21-1.29,2.15-2.49,4.35-3.75,6.52-1.81,3.12-3.86,6.08-5.67,9.2-1.15,1.99-2.06,4.07-2.5,6.32,0,.03-.01.05-.02.08,0,.01,0,.02,0,.03-.07.35-.12.7-.16,1.05-.04.3-.07.61-.1.91,1.27-1.43,2.39-3.08,3.53-4.63.11-.15.22-.31.33-.46.31-.29.62-.58.94-.87,1.99-1.81,3.99-3.61,5.94-5.48,3.5-3.35,7-6.8,10.86-9.71,1.14-.86,2.3-1.69,3.43-2.56.64-.5,1.28-1,1.9-1.53.45-.37,2.27-1.61,2.03-2.71-.13-.56-2.43-4.13-3.49-5.23Z" fill="#2c2c2c"/>
                <path id="Turban" d="M756.47,184.01c.43.29.47-.76.1-1.23-1.7-2.18-9.68-4.95-17.16-5.38-5.01-.29-11.19.69-15.83,2.83-4.18,1.93-7.75,5.86-10.14,9.94-2.51,4.29-4,9.06-4.56,13.99-.12,1.08-.06,2.17-.14,3.24-.1,1.2-.29,2.34-.21,3.56.05.75.25,1.52.27,2.26.01.84-.32,1.54-.69,2.29-.61,1.23-1.29,2.44-2.09,3.56-1.2,1.68-2.52,3.2-3.57,4.99-1.4,2.39-6.62,9.98-5.06,12.85l41.3,11.07c-.28-3.12-2.51-7.3-2.32-10.51.11-1.89.98-5.85.98-6,.79-6.67-.21-10.23-1.05-11.64-.84-1.42-2.26-2.17-2.08-3.15.75-4.08,3.36-7.48,5.52-10.9,2.58-4.07,4.81-8.35,7.43-12.39,1.16-1.79,7.09-10.87,9.33-9.38Z" fill="#ffab50"/>
                <path id="Shade" d="M715.57,215.01c7.81,4.96,5.38,10.23,14.63,18.7l-1.04.3c-8.37-6.41-8.33-15.33-14.41-18.41l.83-.59ZM730.29,187.91c-1.36,10.36-2.51,16.18,1.43,28.96l-.79.03c-4.51-11.42-3.55-19.5-1.33-29.12l.7.13ZM716.45,191.89c1.01,7.83,1.22,12.34,7.8,20.22l-.74.27c-6.82-6.72-7.71-12.79-7.74-20.36l.69-.13ZM740.76,184.72c-2.88,4.53-3.93,7.08-5.4,13.93l-.76-.2c.28-6.76,3.16-12.42,5.21-13.98l.96.26Z"/>
              </g>
            </g>
            <g id="Bottom_Standing_Sprint" data-name="Bottom/Standing/Sprint">
              <path id="Leg" d="M685.11,322.19c1.66,22.64,108.43,89.3,109.05,91.17.28.83-10.8,41.74-33.23,93.46l9.33,3.63c34.41-54.78,50.73-99.72,48.96-105.56-2.53-8.36-30.14-35.85-82.84-82.47l-51.27-.24Z" fill="#b28b67"/>
              <path id="Pant" d="M763.38,495.14l15.24,5.55c32.13-36.29,44.73-80.86,42.43-96.12-1.53-10.17-29.05-37.62-82.56-82.34h-54.48c1.86,52.44,100.82,91.32,102.15,93.55,1.32,2.23-11.7,38.75-22.78,79.35Z" fill="#2f3676"/>
              <polygon id="Leg-2" data-name="Leg" points="697.38 322.19 649.82 451.11 603.07 547.74 614.1 547.74 734.77 322.19 697.38 322.19" fill="#997659"/>
              <path id="Pant-2" data-name="Pant" d="M607.29,527.67l24.51,4.6c18.95-27.89,98.25-156.86,106.95-210.08h-54.56c-29.04,38.48-58.83,177.14-76.89,205.48Z" fill="#5c63ab"/>
            </g>
            <g id="Body_Jacket" data-name="Body/Jacket">
              <path id="Skin" d="M661.81,301.64l18.9,3.41c-18.33,35.68-28.17,54.6-29.51,56.74-3.01,4.83.03,13.52,1.17,18.11-6.66,1.68-4.2-8.45-12.62-6.19-7.69,2.06-14.16,7.1-21.48.58-.9-.8-1.59-3.34,1.4-4.71,7.47-3.4,18.48-9.71,20.24-12.11,2.4-3.28,9.7-21.89,21.89-55.83h0ZM776.25,318.18l21.23,29.56c6.9,4.5,12.39,9.1,16.48,13.79.84,1.48,1.57,4.17-3.27,2.17-4.85-2-10.03-3.88-11.27-2.41-1.24,1.47,1.11,4.48-1.02,6.32-1.42,1.23-4.54-4.02-9.37-15.74l-23.89-20.44,11.12-13.25Z" fill="#b28b67"/>
              <path id="Coat-Back" d="M729.58,231.67l8.06.04c7.53,36.07,25.66,70.84,54.39,104.3l-30.82,26.38c-26.66-45.13-40.23-89.24-31.64-130.72Z" fill="#ffab50"/>
              <path id="Shirt" d="M678.09,324.11l69.7,12.29c-9.22-42.15-11.41-76.96-6.56-104.43l-20.47-6.84c-21.21,23.69-31.66,55.62-42.67,98.98Z" fill="#ffab50"/>
              <path id="Coat-Front" d="M721.7,225.3c1.63.35,4.12.89,7.45,1.63h0l2.52,15.43c-2.59,17.81-5.74,54.08-9.47,108.79h0l-45.69-8.06c-.53,3.73-1,7.51-1.39,11.33h0l-33.97-5.99c15.2-56.49,41.59-97.62,79.16-123.38h0v.02s.02-.01.02-.01l1.37.24Z" fill="#ffab50"/>
              <path id="Shade-2" data-name="Shade" d="M689.22,345.7l-12.77-2.25c2.37-16.73,6.19-32.49,11.43-47.28-2.77,23.35-2.33,39.85,1.34,49.53Z"/>
              <polygon id="Light" points="691.56 317.15 715.94 310.63 714.09 321.12 691.56 317.15" fill="rgba(255, 255, 255, .2)"/>
            </g>
          </g>
        </g>
      </g>
    </g>
  </g>
</svg>