<?xml version="1.0" encoding="UTF-8"?>
<svg xmlns="http://www.w3.org/2000/svg" xmlns:xlink="http://www.w3.org/1999/xlink" viewBox="0 0 787.46 516.1">
  <defs>
    <clipPath id="clippath">
      <path d="M511.48,93.18c-3.52-6.1-10.09-9.89-17.14-9.89h-201.22c-7.05,0-13.62,3.79-17.14,9.89l-100.61,174.27c-3.52,6.1-3.52,13.69,0,19.79l100.61,174.27c3.52,6.1,10.09,9.89,17.14,9.89h201.22c7.05,0,13.62-3.79,17.14-9.89l100.61-174.27c3.52-6.1,3.52-13.69,0-19.79l-100.61-174.27Z" fill="none"/>
    </clipPath>
    <clipPath id="clippath-1">
      <path d="M612.09,287.24l-100.61,174.27c-3.52,6.1-10.09,9.89-17.14,9.89h-201.22c-7.05,0-13.62-3.79-17.14-9.89l-100.61-174.27c-3.52-6.1-3.52-13.69,0-19.79l100.61-174.27c3.52-6.1,10.09-9.89,17.14-9.89h201.22c7.05,0,13.62,3.79,17.14,9.89l100.61,174.27c3.52,6.1,3.52,13.69,0,19.79Z" clip-path="url(#clippath)" fill="none"/>
    </clipPath>
    <clipPath id="clippath-2">
      <path d="M412.11,449.94h-40.14c-5.27,0-9.55-4.28-9.55-9.55l4.71-51.14c0-5.27,4.28-9.55,9.55-9.55h29.98c5.27,0,9.55,4.28,9.55,9.55l5.44,51.14c0,5.27-4.28,9.55-9.55,9.55Z" fill="#e1dce9" stroke="#726b7f" stroke-miterlimit="10" stroke-width="3.94"/>
    </clipPath>
    <clipPath id="clippath-3">
      <path d="M482.46,449.94h-40.14c-5.27,0-9.55-4.28-9.55-9.55l4.71-51.14c0-5.27,4.28-9.55,9.55-9.55h29.98c5.27,0,9.55,4.28,9.55,9.55l5.44,51.14c0,5.27-4.28,9.55-9.55,9.55Z" fill="#e1dce9" stroke="#726b7f" stroke-miterlimit="10" stroke-width="3.94"/>
    </clipPath>
    <clipPath id="clippath-4">
      <path d="M344.14,369.72h-37.71c-4.95,0-8.97-4.02-8.97-8.97l4.43-48.04c0-4.95,4.02-8.97,8.97-8.97h28.17c4.95,0,8.97,4.02,8.97,8.97l5.11,48.04c0,4.95-4.02,8.97-8.97,8.97Z" fill="#e1dce9" stroke="#726b7f" stroke-miterlimit="10" stroke-width="3.7"/>
    </clipPath>
    <clipPath id="clippath-5">
      <path d="M410.87,369.72h-37.71c-4.95,0-8.97-4.02-8.97-8.97l4.43-48.04c0-4.95,4.02-8.97,8.97-8.97h28.17c4.95,0,8.97,4.02,8.97,8.97l5.11,48.04c0,4.95-4.02,8.97-8.97,8.97Z" fill="#e1dce9" stroke="#726b7f" stroke-miterlimit="10" stroke-width="3.7"/>
    </clipPath>
    <clipPath id="clippath-6">
      <path d="M299.33,373.21h44.46v30.83h-46.33s1.87-31.17,1.87-30.83Z" fill="none"/>
    </clipPath>
    <clipPath id="clippath-7">
      <path d="M436.9,297.37h42.67v29.59h-44.47s1.8-29.92,1.8-29.59Z" fill="none"/>
    </clipPath>
  </defs>
  <g isolation="isolate">
    <g id="Layer_1" data-name="Layer 1">
      <path id="m" d="M64.45,274.46v-26.16h2.36v-3.57c0-1.96,1.61-3.57,3.57-3.57h11.8c1.96,0,3.55,1.59,3.55,3.55v3.59h2.36v26.16h-23.65ZM71.54,248.3h9.46v-2.38h-9.46v2.38ZM60.9,274.46c-1.96,0-3.55-1.59-3.55-3.55v-19.07c0-1.96,1.59-3.55,3.55-3.55h1.18v26.16h-1.18ZM90.46,274.46v-26.16h1.18c1.96,0,3.55,1.59,3.55,3.55v19.07c0,1.96-1.59,3.55-3.55,3.55h-1.18ZM75.09,267.32h2.36c.65,0,1.18-.53,1.18-1.18v-3.57h3.55c.65,0,1.18-.53,1.18-1.18v-2.39c0-.65-.54-1.19-1.19-1.19h-3.54v-3.57c0-.65-.54-1.19-1.19-1.19h-2.36c-.65,0-1.18.53-1.18,1.18v3.57h-3.55c-.65,0-1.18.53-1.18,1.18v2.39c0,.65.54,1.19,1.19,1.19h3.54v3.57c0,.66.53,1.19,1.19,1.19Z" fill="#7b4dff"/>
      <path id="m-2" data-name="m" d="M99.82,320.14c5.48,0,9.92-4.44,9.92-9.92v-85.98c0-5.48-4.44-9.92-9.92-9.92h-46.3c-5.48,0-9.92,4.44-9.92,9.92v85.98c0,5.48,4.44,9.92,9.92,9.92h46.3ZM99.58,312.64h-45.83c-.72,0-1.3-.58-1.3-1.3v-88.22c0-.71.58-1.3,1.3-1.3h45.83c.72,0,1.31.59,1.31,1.31v88.19c0,.72-.59,1.31-1.31,1.31ZM75.81,306.86c4.33.54,7.96-3.09,7.42-7.42-.37-2.94-2.77-5.34-5.7-5.7-4.33-.54-7.96,3.09-7.42,7.42.37,2.94,2.77,5.34,5.7,5.7Z" fill="#7b4dff"/>
      <path id="m-3" data-name="m" d="M734.04,320.14c5.48,0,9.92-4.44,9.92-9.92v-85.98c0-5.48-4.44-9.92-9.92-9.92h-46.3c-5.48,0-9.92,4.44-9.92,9.92v85.98c0,5.48,4.44,9.92,9.92,9.92h46.3ZM733.8,312.64h-45.83c-.72,0-1.3-.58-1.3-1.3v-88.22c0-.71.58-1.3,1.3-1.3h45.83c.72,0,1.31.59,1.31,1.31v88.19c0,.72-.59,1.31-1.31,1.31ZM710.03,306.86c4.33.54,7.96-3.09,7.42-7.42-.37-2.94-2.77-5.34-5.7-5.7-4.33-.54-7.96,3.09-7.42,7.42.37,2.94,2.77,5.34,5.7,5.7Z" fill="#7b4dff"/>
      <g>
        <g>
          <path d="M293.12,474.08c-8,0-15.46-4.3-19.46-11.24l-100.61-174.27c-4-6.93-4-15.54,0-22.47l100.61-174.27c4-6.93,11.46-11.24,19.46-11.24h201.22c8,0,15.46,4.3,19.46,11.24l100.61,174.27c4,6.93,4,15.54,0,22.47l-100.61,174.27c-4,6.93-11.46,11.24-19.46,11.24h-201.22Z" fill="#fff"/>
          <path d="M494.34,83.28c7.05,0,13.62,3.79,17.14,9.89l100.61,174.27c3.52,6.1,3.52,13.69,0,19.79l-100.61,174.27c-3.52,6.1-10.09,9.89-17.14,9.89h-201.22c-7.05,0-13.62-3.79-17.14-9.89l-100.61-174.27c-3.52-6.1-3.52-13.69,0-19.79l100.61-174.27c3.52-6.1,10.09-9.89,17.14-9.89h201.22M494.34,77.92h-201.22c-8.96,0-17.31,4.82-21.79,12.58l-100.61,174.26c-4.48,7.76-4.48,17.4,0,25.16l100.61,174.27c4.48,7.76,12.83,12.58,21.78,12.58h201.22c8.96,0,17.31-4.82,21.78-12.58l100.61-174.27c4.48-7.76,4.48-17.4,0-25.15l-100.61-174.27c-4.48-7.76-12.83-12.58-21.79-12.58h0Z" fill="#ffab50"/>
        </g>
        <g>
          <path d="M293.12,484.82c-11.83,0-22.85-6.36-28.77-16.61l-100.61-174.26c-5.92-10.25-5.92-22.97,0-33.22l100.61-174.26c5.91-10.24,16.94-16.61,28.77-16.61h201.22c11.83,0,22.85,6.36,28.77,16.61l100.61,174.26c5.91,10.25,5.91,22.97,0,33.22l-100.61,174.26c-5.92,10.24-16.94,16.61-28.77,16.61h-201.22ZM293.12,80.59c-8.01,0-15.47,4.31-19.47,11.24l-100.61,174.27c-4,6.93-4,15.55,0,22.48l100.61,174.27c4,6.93,11.46,11.24,19.47,11.24h201.23c8.01,0,15.47-4.31,19.47-11.24l100.61-174.27c4-6.93,4-15.55,0-22.48l-100.61-174.27c-4-6.93-11.46-11.24-19.47-11.24h-201.23Z" fill="#ffab50"/>
          <path d="M494.34,72.54c10.87,0,21.01,5.85,26.44,15.27l100.61,174.27c5.44,9.42,5.44,21.12,0,30.54l-100.61,174.27c-5.44,9.42-15.57,15.27-26.44,15.27h-201.22c-10.88,0-21.01-5.85-26.44-15.27l-100.61-174.27c-5.44-9.42-5.44-21.12,0-30.54l100.61-174.27c5.44-9.42,15.57-15.27,26.44-15.27h201.22M293.12,476.77h201.22c8.99,0,17.3-4.8,21.79-12.58l100.61-174.27c4.5-7.79,4.5-17.38,0-25.16l-100.61-174.27c-4.5-7.79-12.8-12.58-21.79-12.58h-201.22c-8.99,0-17.3,4.8-21.79,12.58l-100.61,174.27c-4.49,7.79-4.49,17.38,0,25.16l100.61,174.27c4.49,7.79,12.8,12.58,21.79,12.58M494.34,67.17h-201.22c-12.79,0-24.7,6.88-31.09,17.95l-100.61,174.26c-6.39,11.07-6.39,24.83,0,35.9l100.61,174.27c6.39,11.07,18.3,17.95,31.09,17.95h201.22c12.78,0,24.7-6.88,31.09-17.95l100.61-174.27c6.39-11.07,6.39-24.83,0-35.9l-100.61-174.27c-6.39-11.07-18.31-17.95-31.09-17.95h0ZM293.12,471.41c-7.05,0-13.62-3.79-17.15-9.9l-100.61-174.27c-3.53-6.11-3.53-13.69,0-19.8l100.61-174.27c3.53-6.11,10.1-9.9,17.15-9.9h201.22c7.05,0,13.62,3.79,17.15,9.9l100.61,174.27c3.53,6.11,3.53,13.69,0,19.8l-100.61,174.27c-3.53,6.11-10.1,9.9-17.15,9.9h-201.22Z" fill="#ffab50"/>
        </g>
        <g>
          <path d="M293.12,479.45c-9.92,0-19.16-5.33-24.11-13.92l-100.61-174.27c-4.96-8.59-4.96-19.26,0-27.84l100.61-174.27c4.96-8.59,14.2-13.92,24.11-13.92h201.23c9.92,0,19.16,5.33,24.11,13.92l100.61,174.27c4.96,8.59,4.96,19.26,0,27.84l-100.61,174.27c-4.96,8.59-14.2,13.92-24.11,13.92h-201.23ZM293.12,85.96c-6.09,0-11.77,3.28-14.82,8.55l-100.61,174.27c-3.05,5.28-3.05,11.83,0,17.11l100.61,174.27c3.04,5.28,8.72,8.55,14.82,8.55h201.22c6.09,0,11.77-3.28,14.82-8.55l100.61-174.27c3.05-5.28,3.05-11.83,0-17.11l-100.61-174.27c-3.05-5.28-8.73-8.55-14.82-8.55h-201.22Z" fill="#ffab50"/>
          <path d="M494.34,77.91c8.99,0,17.3,4.8,21.79,12.58l100.61,174.27c4.49,7.79,4.49,17.38,0,25.16l-100.61,174.27c-4.49,7.79-12.8,12.58-21.79,12.58h-201.22c-8.99,0-17.3-4.8-21.79-12.58l-100.61-174.27c-4.49-7.79-4.49-17.38,0-25.16l100.61-174.27c4.49-7.79,12.8-12.58,21.79-12.58h201.22M293.12,471.4h201.22c7.05,0,13.62-3.79,17.14-9.89l100.61-174.27c3.52-6.1,3.52-13.69,0-19.79l-100.61-174.27c-3.52-6.1-10.09-9.89-17.14-9.89h-201.22c-7.05,0-13.62,3.79-17.14,9.89l-100.61,174.27c-3.52,6.1-3.52,13.69,0,19.79l100.61,174.27c3.52,6.1,10.09,9.89,17.14,9.89M494.34,72.55h-201.22c-10.87,0-21,5.85-26.44,15.26l-100.61,174.27c-5.44,9.41-5.44,21.11,0,30.53l100.61,174.27c5.44,9.41,15.57,15.26,26.44,15.26h201.22c10.87,0,21-5.85,26.44-15.26l100.61-174.27c5.44-9.41,5.44-21.11,0-30.53l-100.61-174.27c-5.44-9.41-15.57-15.26-26.44-15.26h0ZM293.12,466.03c-5.14,0-9.93-2.76-12.49-7.21l-100.61-174.27c-2.57-4.45-2.57-9.98,0-14.43l100.61-174.27c2.57-4.45,7.36-7.21,12.5-7.21h201.22c5.14,0,9.93,2.76,12.5,7.21l100.61,174.27c2.57,4.45,2.57,9.98,0,14.43l-100.61,174.26c-2.57,4.45-7.36,7.21-12.5,7.21h-201.22Z" fill="#ffab50"/>
        </g>
      </g>
      <g clip-path="url(#clippath-1)">
        <path d="M502.47,337.6l-45.22.18c27.92,89.99,42.99,137.74,45.22,143.25,5.01,12.39-5.59,31.26-10.12,41.4,14.76,6.59,13.19-17.82,31.8-9.18,16.99,7.89,29.92,22.19,49.55,10.1,2.41-1.49,5.06-7.09-1.33-11.46-15.92-10.9-38.87-29.98-41.97-36.26-4.23-8.56-13.54-54.57-27.94-138.03h0Z" fill="#b28b67"/>
        <path d="M282.5,337.6c-14.4,83.46-23.71,129.47-27.94,138.03-3.1,6.28-26.04,25.36-41.97,36.26-6.39,4.38-3.75,9.97-1.33,11.46,19.63,12.09,32.56-2.21,49.55-10.1,18.62-8.65,17.04,15.77,31.8,9.18-4.53-10.14-15.13-29.01-10.12-41.4,2.23-5.51,17.3-53.26,45.22-143.25l-45.22-.18h0Z" fill="#b28b67"/>
        <path d="M454.2,198.98c6.93-1.99,12.71-6.48,16.48-13.93,7.21-14.24,11.88-27.41-6.77-33.1-18.65-5.69-35.29,6.03-65.01,6.03-1.61,0-3.09.1-4.43.3l-14.96.85c-.04.12-.07.24-.1.36-24.98-1.72-40.31-10.91-57.27-5.74-18.65,5.69-17.08,20.43-8.24,33.1,4.77,6.84,9.54,11.94,16.48,13.93-54.72,75.25-80.41,166.81-77.07,274.69h35.51c7.06-12.27,7.5,21.08,15.22,3.1h130.31c.23-.59.44-1.21.66-1.81h31.65c7.72,17.97,22.05-15.37,29.1-3.1h35.51c3.34-107.88-22.35-199.44-77.07-274.69Z" fill="#ffab50"/>
      </g>
      <g id="Head">
        <path id="Path" d="M340.3,54.33c-13.71,21.54-16.49,78.53-1.21,83.69,6.09,2.06,19.61-.88,33.68-7.99l-7.03,29.26,13.42,1.75c3.19.42,6.42.37,9.59-.13l16.14-2.57-6.35-46.77c10.41-10.52,17.92-23.8,17.97-39.31.17-44.67-62.5-39.48-76.21-17.94Z" fill="#b28b67"/>
      </g>
      <path d="M439.51,76.28c-.18-.46-.47-.93-.61-1.41-.13-.42-.05-.42.22-.79.45-.61.84-1.26,1.17-1.94,2.08-4.19,2.48-9.22,1.33-13.73-1.1-4.3-3.7-8.23-7.57-10.52-.99-.59-2.06-1.06-3.16-1.4-.6-.19-1.21-.34-1.82-.46-.18-.03-.65-.02-.76-.14-.08-.09-.05-.69-.07-.84-.27-2.51-1.17-4.93-2.68-6.96-1.5-2.01-3.54-3.56-5.83-4.56-.45-.2-.62-.22-.85-.61-.18-.3-.25-.71-.37-1.04-.26-.68-.55-1.36-.88-2.02-.68-1.37-1.5-2.67-2.46-3.87-1.87-2.32-4.19-4.63-7-5.79-1.49-.62-3.08-.82-4.67-.52-.3.05-3.5,1.02-3.44,1.22-.1-.33-.53-.63-.74-.9-.36-.47-.63-.99-.94-1.49-.71-1.15-1.64-2.04-2.72-2.86-2.24-1.7-4.88-3.01-7.63-3.67-2.66-.64-5.44-.61-8.07.15-.49.14-1.53.75-1.99.71-.46-.04-1.42-.86-1.84-1.08-1.24-.64-2.55-1.16-3.92-1.43-.65-.13-1.3-.17-1.94-.17l.1-.18c-3.7-1.73-7.94-2.17-11.67-1.46-2,.38-3.88,1.11-5.41,2.27-.45.34-.87.71-1.26,1.11-.13.13-.3.44-.48.51-.23.1-.27-.02-.55-.19-.78-.48-1.61-.86-2.48-1.13-3.57-1.11-7.22-.15-9.61,2.03-3.02,2.76-3.68,7.09-3.09,11.16.3,2.09.93,4.18,1.91,6.16-1.37-.01-2.92-.09-4.13.46-1.15.52-1.94,1.48-2.4,2.58-.57,1.35-.83,3.05-.86,4.56-.03,1.45.27,2.93.84,4.35-1.13-.33-2.28-.22-3.22.29-.49.27-.84.64-1.22,1.03-.45.46-1,.83-1.43,1.32-.74.82-1.16,1.83-1.14,2.97.02,1.11.9,3.38,2.07,4.71,1.17,1.34,5.88,3.52,6.82,3.27.03,0,.07-.02.1-.03,2.46,1.06,5.04,2,7.23,3.57,2.02,1.45,3.24,3.58,3.93,5.92.7,2.35.95,4.8,1.44,7.2.64,3.11,1.64,6.18,2.94,9.08.6,1.33,1.31,2.65,2.36,3.68.61.6,1.99,1.82,2.92,1.24.42-.26.4-.81.55-1.24.24-.69,4.67-7.92,8.13-8.44,3.3-.49,11.46.11,14.07,1.79,5.61,3.62,5.82,10.64,3.62,16.31-1,2.58-2.38,5.15-4.47,7.04-.9.81-2.07,1.68-3.28,1.96-1.23.28-2.81.51-4.07.2.06.71.21,1.39.09,2.1-.13.79-.29,1.56-.35,2.36-.1,1.53.14,3.02.6,4.48.24.75.69,1.52.71,2.28.02.6-.08,1.19-.04,1.79.07,1.14.31,2.29.77,3.34,1.88,4.31,8.39,6.04,11.82,2.45,1.97,4.71,5.71,8.47,10.59,10.14,3.92,1.34,9.54,1.88,12.55-1.6,1,1.05,2.15,1.95,3.38,2.71,4.75,2.9,11.07,3.54,16,.73,2.54-1.45,4.59-3.78,5.64-6.5,1.14-2.96,1.16-6.22.95-9.34-.02-.36-.2-1.01-.03-1.31.16-.29.56-.32.87-.44.62-.24,1.21-.54,1.76-.9,1.13-.73,2.09-1.72,2.79-2.86,1.65-2.68,1.97-5.91,1.71-8.99-.14-1.6-.43-3.19-.8-4.75-.18-.77-.39-1.54-.62-2.3-.23-.74-.63-1.5-.78-2.25-.11-.54-.07-.24.24-.58.13-.14.31-.24.45-.36.25-.21.49-.44.72-.67.44-.45.84-.95,1.19-1.48.69-1.04,1.17-2.2,1.49-3.4.68-2.58.64-5.33.34-7.97-.19-1.61-.55-3.19-1.13-4.71Z" fill="#362b48"/>
      <path d="M340.25,147.15h10.13c3.01,0,5.45,2.44,5.45,5.45v65.78c0,5.62-4.56,10.18-10.18,10.18h-.92c-5.48,0-9.92-4.45-9.92-9.92v-66.04c0-3.01,2.44-5.45,5.45-5.45Z" fill="#726b7f" stroke="#726b7f" stroke-miterlimit="10" stroke-width="3.57"/>
      <path d="M425.82,147.15h10.13c3.01,0,5.45,2.44,5.45,5.45v65.78c0,5.62-4.56,10.18-10.18,10.18h-.92c-5.48,0-9.92-4.45-9.92-9.92v-66.04c0-3.01,2.44-5.45,5.45-5.45Z" fill="#726b7f" stroke="#726b7f" stroke-miterlimit="10" stroke-width="3.57"/>
      <path d="M472.1,466.44h-158.71c-20.85,0-37.76-16.9-37.76-37.76l21.91-182.47c3.21-21.18,16.9-37.76,37.76-37.76h109.44c20.85,0,35,17.5,37.76,37.76l27.35,182.47c0,20.85-16.9,37.76-37.76,37.76Z" fill="#f9f8fb" stroke="#726b7f" stroke-miterlimit="10" stroke-width="7.63"/>
      <g>
        <path d="M318.2,266.62h5.49l5.2,8.79,5.17-8.79h5.45l-8.26,13.71v8.54h-4.89v-8.66l-8.16-13.59Z" fill="#7b4dff"/>
        <path d="M337.56,277.33c.39-1.05.96-1.94,1.68-2.68s1.6-1.31,2.62-1.71c1.02-.41,2.16-.61,3.43-.61s2.41.2,3.44.61,1.91.98,2.63,1.71c.73.74,1.29,1.63,1.68,2.68s.59,2.22.59,3.51-.2,2.45-.59,3.49c-.39,1.04-.96,1.93-1.68,2.66-.73.74-1.6,1.3-2.63,1.7s-2.18.59-3.44.59-2.41-.2-3.43-.59c-1.02-.39-1.89-.96-2.62-1.7s-1.29-1.62-1.68-2.66c-.39-1.04-.59-2.2-.59-3.49s.2-2.46.59-3.51ZM341.58,282.72c.12.61.34,1.16.64,1.65.3.49.7.88,1.2,1.17.5.29,1.12.44,1.87.44s1.38-.15,1.89-.44c.51-.29.91-.68,1.22-1.17s.51-1.04.64-1.65c.12-.61.19-1.24.19-1.89s-.06-1.28-.19-1.9c-.13-.62-.34-1.17-.64-1.65s-.71-.87-1.22-1.17c-.51-.3-1.14-.45-1.89-.45s-1.37.15-1.87.45c-.5.3-.9.69-1.2,1.17-.3.48-.52,1.03-.64,1.65-.13.62-.19,1.26-.19,1.9s.06,1.27.19,1.89Z" fill="#7b4dff"/>
        <path d="M367.41,288.88v-2.24h-.09c-.56.94-1.29,1.61-2.18,2.03-.89.41-1.81.62-2.74.62-1.18,0-2.16-.16-2.91-.47s-1.36-.75-1.79-1.33c-.44-.57-.74-1.27-.92-2.09-.18-.82-.27-1.73-.27-2.73v-9.91h4.43v9.1c0,1.33.21,2.32.62,2.98.41.65,1.15.98,2.21.98,1.2,0,2.08-.36,2.62-1.08.54-.72.81-1.9.81-3.54v-8.45h4.43v16.11h-4.21Z" fill="#7b4dff"/>
        <path d="M379.19,272.76v2.99h.06c.21-.5.49-.96.84-1.39s.76-.79,1.22-1.09c.46-.3.95-.53,1.47-.7.52-.17,1.06-.25,1.62-.25.29,0,.61.05.97.16v4.11c-.21-.04-.46-.08-.75-.11-.29-.03-.57-.05-.84-.05-.81,0-1.5.14-2.06.41-.56.27-1.01.64-1.36,1.11-.34.47-.59,1.01-.73,1.64-.15.62-.22,1.3-.22,2.03v7.26h-4.42v-16.11h4.21Z" fill="#7b4dff"/>
        <path d="M405.84,266.62c1.43,0,2.77.23,4,.69,1.24.46,2.31,1.14,3.21,2.06.9.92,1.61,2.06,2.12,3.43s.76,2.98.76,4.83c0,1.62-.21,3.12-.62,4.49-.42,1.37-1.04,2.56-1.89,3.55s-1.89,1.78-3.15,2.35-2.74.86-4.44.86h-9.6v-22.25h9.6ZM405.49,284.76c.71,0,1.39-.11,2.06-.34.66-.23,1.26-.61,1.78-1.14s.94-1.22,1.25-2.07c.31-.85.47-1.89.47-3.12,0-1.12-.11-2.14-.33-3.04s-.58-1.68-1.08-2.32-1.16-1.14-1.98-1.48c-.82-.34-1.83-.51-3.04-.51h-3.49v14.02h4.36Z" fill="#7b4dff"/>
        <path d="M418.68,277.72c.06-1.04.32-1.9.78-2.59.46-.69,1.04-1.24,1.74-1.65.71-.42,1.5-.71,2.38-.89s1.77-.26,2.67-.26c.81,0,1.63.06,2.46.17.83.11,1.59.34,2.27.67.69.33,1.25.79,1.68,1.39s.65,1.38.65,2.35v8.38c0,.73.04,1.42.13,2.09.08.66.23,1.16.44,1.5h-4.49c-.08-.25-.15-.5-.2-.76-.05-.26-.09-.52-.11-.79-.71.73-1.54,1.24-2.49,1.53-.96.29-1.93.44-2.93.44-.77,0-1.49-.09-2.15-.28-.67-.19-1.25-.48-1.75-.87s-.89-.89-1.17-1.5c-.28-.6-.42-1.32-.42-2.15,0-.91.16-1.67.48-2.26.32-.59.74-1.07,1.25-1.42.51-.35,1.09-.62,1.75-.79.65-.18,1.31-.32,1.98-.42s1.32-.19,1.96-.25c.64-.06,1.22-.16,1.71-.28.5-.12.89-.31,1.18-.54.29-.24.42-.59.41-1.04,0-.48-.08-.86-.23-1.14-.16-.28-.36-.5-.62-.65s-.56-.26-.9-.31c-.34-.05-.71-.08-1.11-.08-.87,0-1.56.19-2.06.56-.5.37-.79,1-.87,1.87h-4.43ZM428.9,280.99c-.19.17-.42.3-.7.39-.28.09-.58.17-.9.23-.32.06-.66.11-1.01.16s-.71.09-1.06.16c-.33.06-.66.15-.98.25s-.6.24-.84.42c-.24.18-.43.4-.58.67s-.22.61-.22,1.03.07.73.22,1c.15.27.34.48.59.64s.54.26.87.33c.33.06.68.09,1.03.09.87,0,1.55-.15,2.03-.44.48-.29.83-.64,1.06-1.04.23-.41.37-.82.42-1.23s.08-.75.08-1v-1.65Z" fill="#7b4dff"/>
        <path d="M445.6,272.76v2.96h-3.24v7.98c0,.75.13,1.25.37,1.5.25.25.75.37,1.49.37.25,0,.49-.01.72-.03.23-.02.45-.05.65-.09v3.43c-.37.06-.79.1-1.25.12-.46.02-.9.03-1.34.03-.69,0-1.34-.05-1.95-.14-.61-.09-1.15-.28-1.62-.55-.47-.27-.84-.65-1.11-1.15-.27-.5-.41-1.15-.41-1.96v-9.51h-2.68v-2.96h2.68v-4.83h4.43v4.83h3.24Z" fill="#7b4dff"/>
        <path d="M447.54,277.72c.06-1.04.32-1.9.78-2.59.46-.69,1.04-1.24,1.74-1.65.71-.42,1.5-.71,2.38-.89.88-.18,1.77-.26,2.67-.26.81,0,1.63.06,2.46.17.83.11,1.59.34,2.27.67.69.33,1.25.79,1.68,1.39s.65,1.38.65,2.35v8.38c0,.73.04,1.42.13,2.09.08.66.23,1.16.44,1.5h-4.49c-.08-.25-.15-.5-.2-.76-.05-.26-.09-.52-.11-.79-.71.73-1.54,1.24-2.49,1.53-.96.29-1.93.44-2.93.44-.77,0-1.49-.09-2.15-.28-.67-.19-1.25-.48-1.75-.87s-.89-.89-1.17-1.5c-.28-.6-.42-1.32-.42-2.15,0-.91.16-1.67.48-2.26.32-.59.74-1.07,1.25-1.42.51-.35,1.09-.62,1.75-.79.65-.18,1.31-.32,1.98-.42s1.32-.19,1.96-.25c.64-.06,1.22-.16,1.71-.28.5-.12.89-.31,1.18-.54.29-.24.42-.59.41-1.04,0-.48-.08-.86-.23-1.14-.16-.28-.36-.5-.62-.65s-.56-.26-.9-.31c-.34-.05-.71-.08-1.11-.08-.87,0-1.56.19-2.06.56-.5.37-.79,1-.87,1.87h-4.43ZM457.76,280.99c-.19.17-.42.3-.7.39-.28.09-.58.17-.9.23-.32.06-.66.11-1.01.16s-.71.09-1.06.16c-.33.06-.66.15-.98.25s-.6.24-.84.42c-.24.18-.43.4-.58.67s-.22.61-.22,1.03.07.73.22,1c.15.27.34.48.59.64s.54.26.87.33c.33.06.68.09,1.03.09.87,0,1.55-.15,2.03-.44.48-.29.83-.64,1.06-1.04.23-.41.37-.82.42-1.23s.08-.75.08-1v-1.65Z" fill="#7b4dff"/>
      </g>
      <path d="M311.21,416.41c-.1.25-.21.5-.31.76-.08.2-.16.4-.24.6l15.82,6.48c.08-.2.17-.39.25-.59.4-.93.77-1.8.95-2.72.17-.9.14-1.82.01-2.72-2.13.99-4.43,1.5-6.74,1.5-3.44,0-6.87-1.11-9.73-3.31Z" fill="none"/>
      <path d="M305.91,422.55c-1.77,4.06-3.29,7.58-1.65,11.97,1.57,4.22,5.36,6.95,9.89,7.14,4.61.19,8.67-2.27,10.61-6.41l2.82-6.88-20.56-8.43c-.36.9-.74,1.77-1.1,2.62Z" fill="none"/>
      <path d="M315.9,408.2c0,1.12.4,2.14,1.05,2.95-1.31.36-2.5,1.05-3.5,1.96,3.7,2.95,8.69,3.41,12.81,1.39-.03-.05-.05-.11-.09-.15-.71-.99-1.63-1.76-2.63-2.35.94-.71,1.6-1.74,1.82-2.94,1.53.87,2.8,2.05,3.78,3.48.11-.1.24-.18.35-.28l15.98-15.98c2.28-2.28,3.54-5.32,3.54-8.55s-1.26-6.26-3.54-8.55l-15.98-15.98c-2.36-2.35-5.45-3.53-8.55-3.53s-6.19,1.18-8.55,3.53l-15.98,15.98c-4.71,4.71-4.71,12.38,0,17.09l14.47,14.47c1.48-1.41,3.22-2.34,5.04-2.84,0,.1-.03.19-.03.29Z" fill="none"/>
      <path d="M467.67,220.01h-159.55c-10.23,0-18.52-9.31-18.52-20.79h0c0-11.48,8.29-20.79,18.52-20.79,0,0,43.78,12.44,78.74,12.44s80.81-12.44,80.81-12.44c10.23,0,18.52,9.31,18.52,20.79h0c0,11.48-8.29,20.79-18.52,20.79Z" fill="#bda6ff" stroke="#726b7f" stroke-miterlimit="10" stroke-width="4.77"/>
      <path d="M383.66,182.26h10.13c3.01,0,5.45,2.44,5.45,5.45v65.78c0,5.62-4.56,10.18-10.18,10.18h-.92c-5.48,0-9.92-4.45-9.92-9.92v-66.04c0-3.01,2.44-5.45,5.45-5.45Z" fill="#d7caff" stroke="#726b7f" stroke-miterlimit="10" stroke-width="3.57"/>
      <g>
        <g id="Polygon">
          <path d="M374.65,196.31c-1,0-1.92.54-2.42,1.4l-14.22,24.63c-.5.86-.5,1.93,0,2.8l14.22,24.63c.5.86,1.43,1.4,2.42,1.4h28.44c1,0,1.92-.54,2.42-1.4l14.22-24.63c.5-.86.5-1.93,0-2.8l-14.22-24.63c-.5-.86-1.43-1.4-2.42-1.4h-28.44Z" fill="#fff" stroke="#726b7f" stroke-miterlimit="10" stroke-width="3"/>
        </g>
        <g>
          <path d="M372.74,245.92l-11.13-19.31c-1.03-1.79-1.03-3.99,0-5.78l11.13-19.29c1.03-1.79,2.95-2.89,5.01-2.89h22.25c2.07,0,3.98,1.1,5.01,2.89l11.14,19.3c1.03,1.79,1.03,3.99,0,5.78l-11.13,19.31c-1.03,1.79-2.95,2.89-5.01,2.89h-22.24c-2.07,0-3.98-1.12-5.02-2.9Z" fill="#fff"/>
          <path d="M373.68,244.61l-10.47-18.16c-.97-1.68-.97-3.76,0-5.44l10.47-18.16c.98-1.69,2.78-2.72,4.72-2.72h20.94c1.94,0,3.74,1.03,4.72,2.72l10.48,18.15c.97,1.68.97,3.76,0,5.44l-10.47,18.17c-.98,1.69-2.78,2.72-4.72,2.72h-20.93c-1.95,0-3.75-1.04-4.73-2.73Z" fill="#7c4dff"/>
          <path d="M378.32,220.24h21.54c.27,0,.49-.22.49-.49v-4.04c0-2.69-2.18-4.86-4.86-4.86h-12.93c-3.76,0-6.81,3.04-6.81,6.81,0,1.44,1.15,2.58,2.58,2.58ZM380.44,238.09h12.87c3.89,0,7.04-3.16,7.04-7.04,0-1.3-1.05-2.35-2.35-2.35h-21.79c-.27,0-.47.21-.47.47v4.23c0,2.6,2.1,4.7,4.69,4.7Z" fill="#f7f7f7"/>
          <path d="M376.7,219.71l16.07,16.07c1.06,1.06,2.79,1.06,3.85,0l2.79-2.79c1.06-1.06,1.06-2.79,0-3.85l-16.06-16.07c-1.06-1.06-2.79-1.06-3.85,0l-2.79,2.79c-1.07,1.06-1.07,2.79,0,3.85h0Z" fill="#f7f7f7"/>
          <path d="M393.03,236.05l-9.44-7.35h2.09l7.35,7.35ZM383.07,212.81l7.44,7.44h2.52l-9.96-7.44Z" fill="#444" isolation="isolate" opacity=".3"/>
        </g>
      </g>
      <path d="M412.11,449.94h-40.14c-5.27,0-9.55-4.28-9.55-9.55l4.71-51.14c0-5.27,4.28-9.55,9.55-9.55h29.98c5.27,0,9.55,4.28,9.55,9.55l5.44,51.14c0,5.27-4.28,9.55-9.55,9.55Z" fill="#fff" stroke="#7b4dff" stroke-miterlimit="10" stroke-width="3.94"/>
      <g>
        <path d="M412.11,449.94h-40.14c-5.27,0-9.55-4.28-9.55-9.55l4.71-51.14c0-5.27,4.28-9.55,9.55-9.55h29.98c5.27,0,9.55,4.28,9.55,9.55l5.44,51.14c0,5.27-4.28,9.55-9.55,9.55Z" fill="#e1dce9"/>
        <g clip-path="url(#clippath-2)">
          <rect x="366.62" y="362.35" width="50.71" height="50.71" rx="14.06" ry="14.06" transform="translate(-159.34 390.72) rotate(-45)" fill="none" stroke="#726b7f" stroke-miterlimit="10" stroke-width="3.94"/>
        </g>
        <path d="M412.11,449.94h-40.14c-5.27,0-9.55-4.28-9.55-9.55l4.71-51.14c0-5.27,4.28-9.55,9.55-9.55h29.98c5.27,0,9.55,4.28,9.55,9.55l5.44,51.14c0,5.27-4.28,9.55-9.55,9.55Z" fill="none" stroke="#726b7f" stroke-miterlimit="10" stroke-width="3.94"/>
      </g>
      <path d="M382.24,416.41c-.1.25-.21.5-.31.76-.08.2-.16.4-.24.6l15.82,6.48c.08-.2.17-.39.25-.59.4-.93.77-1.8.95-2.72.17-.9.14-1.82.01-2.72-2.13.99-4.43,1.5-6.74,1.5-3.44,0-6.87-1.11-9.73-3.31Z" fill="none"/>
      <path d="M376.94,422.55c-1.77,4.06-3.29,7.58-1.65,11.97,1.57,4.22,5.36,6.95,9.89,7.14,4.61.19,8.67-2.27,10.61-6.41l2.82-6.88-20.56-8.43c-.36.9-.74,1.77-1.1,2.62Z" fill="none"/>
      <path d="M386.93,408.2c0,1.12.4,2.14,1.05,2.95-1.31.36-2.5,1.05-3.5,1.96,3.7,2.95,8.69,3.41,12.81,1.39-.03-.05-.05-.11-.09-.15-.71-.99-1.63-1.76-2.63-2.35.94-.71,1.6-1.74,1.82-2.94,1.53.87,2.8,2.05,3.78,3.48.11-.1.24-.18.35-.28l15.98-15.98c2.28-2.28,3.54-5.32,3.54-8.55s-1.26-6.26-3.54-8.55l-15.98-15.98c-2.36-2.35-5.45-3.53-8.55-3.53s-6.19,1.18-8.55,3.53l-15.98,15.98c-4.71,4.71-4.71,12.38,0,17.09l14.47,14.47c1.48-1.41,3.22-2.34,5.04-2.84,0,.1-.03.19-.03.29Z" fill="none"/>
      <path d="M482.46,449.94h-40.14c-5.27,0-9.55-4.28-9.55-9.55l4.71-51.14c0-5.27,4.28-9.55,9.55-9.55h29.98c5.27,0,9.55,4.28,9.55,9.55l5.44,51.14c0,5.27-4.28,9.55-9.55,9.55Z" fill="#fff" stroke="#7b4dff" stroke-miterlimit="10" stroke-width="3.94"/>
      <g>
        <path d="M482.46,449.94h-40.14c-5.27,0-9.55-4.28-9.55-9.55l4.71-51.14c0-5.27,4.28-9.55,9.55-9.55h29.98c5.27,0,9.55,4.28,9.55,9.55l5.44,51.14c0,5.27-4.28,9.55-9.55,9.55Z" fill="#e1dce9"/>
        <g clip-path="url(#clippath-3)">
          <g mix-blend-mode="multiply" opacity=".5">
            <g id="Oval-Copy-5">
              <circle cx="461.85" cy="409.73" r="22.17" fill="#d4cde0"/>
            </g>
          </g>
          <rect x="436.97" y="362.35" width="50.71" height="50.71" rx="14.06" ry="14.06" transform="translate(-138.73 440.47) rotate(-45)" fill="none" stroke="#726b7f" stroke-miterlimit="10" stroke-width="3.94"/>
        </g>
        <path d="M482.46,449.94h-40.14c-5.27,0-9.55-4.28-9.55-9.55l4.71-51.14c0-5.27,4.28-9.55,9.55-9.55h29.98c5.27,0,9.55,4.28,9.55,9.55l5.44,51.14c0,5.27-4.28,9.55-9.55,9.55Z" fill="none" stroke="#726b7f" stroke-miterlimit="10" stroke-width="3.94"/>
      </g>
      <path d="M452.59,416.41c-.1.25-.21.5-.31.76-.08.2-.16.4-.24.6l15.82,6.48c.08-.2.17-.39.25-.59.4-.93.77-1.8.95-2.72.17-.9.14-1.82.01-2.72-2.13.99-4.43,1.5-6.74,1.5-3.44,0-6.87-1.11-9.73-3.31Z" fill="none"/>
      <path d="M447.29,422.55c-1.77,4.06-3.29,7.58-1.65,11.97,1.57,4.22,5.36,6.95,9.89,7.14,4.61.19,8.67-2.27,10.61-6.41l2.82-6.88-20.56-8.43c-.36.9-.74,1.77-1.1,2.62Z" fill="none"/>
      <path d="M457.28,408.2c0,1.12.4,2.14,1.05,2.95-1.31.36-2.5,1.05-3.5,1.96,3.7,2.95,8.69,3.41,12.81,1.39-.03-.05-.05-.11-.09-.15-.71-.99-1.63-1.76-2.63-2.35.94-.71,1.6-1.74,1.82-2.94,1.53.87,2.8,2.05,3.78,3.48.11-.1.24-.18.35-.28l15.98-15.98c2.28-2.28,3.54-5.32,3.54-8.55s-1.26-6.26-3.54-8.55l-15.98-15.98c-2.36-2.35-5.45-3.53-8.55-3.53s-6.19,1.18-8.55,3.53l-15.98,15.98c-4.71,4.71-4.71,12.38,0,17.09l14.47,14.47c1.48-1.41,3.22-2.34,5.04-2.84,0,.1-.03.19-.03.29Z" fill="none"/>
      <path d="M344.14,369.72h-37.71c-4.95,0-8.97-4.02-8.97-8.97l4.43-48.04c0-4.95,4.02-8.97,8.97-8.97h28.17c4.95,0,8.97,4.02,8.97,8.97l5.11,48.04c0,4.95-4.02,8.97-8.97,8.97Z" fill="#fff" stroke="#7b4dff" stroke-miterlimit="10" stroke-width="3.7"/>
      <g>
        <path d="M344.14,369.72h-37.71c-4.95,0-8.97-4.02-8.97-8.97l4.43-48.04c0-4.95,4.02-8.97,8.97-8.97h28.17c4.95,0,8.97,4.02,8.97,8.97l5.11,48.04c0,4.95-4.02,8.97-8.97,8.97Z" fill="#e1dce9"/>
        <g clip-path="url(#clippath-4)">
          <rect x="301.41" y="287.44" width="47.63" height="47.63" rx="13.2" ry="13.2" transform="translate(-124.83 321.14) rotate(-45)" fill="none" stroke="#726b7f" stroke-miterlimit="10" stroke-width="3.7"/>
        </g>
        <path d="M344.14,369.72h-37.71c-4.95,0-8.97-4.02-8.97-8.97l4.43-48.04c0-4.95,4.02-8.97,8.97-8.97h28.17c4.95,0,8.97,4.02,8.97,8.97l5.11,48.04c0,4.95-4.02,8.97-8.97,8.97Z" fill="none" stroke="#726b7f" stroke-miterlimit="10" stroke-width="3.7"/>
      </g>
      <path d="M316.09,338.23c-.1.24-.2.47-.29.71-.07.19-.15.38-.22.57l14.86,6.09c.08-.18.16-.37.24-.55.37-.87.73-1.69.89-2.56.16-.85.13-1.71.01-2.56-2,.93-4.17,1.41-6.33,1.41-3.23,0-6.45-1.04-9.14-3.11Z" fill="none"/>
      <path d="M311.11,343.99c-1.66,3.82-3.09,7.12-1.55,11.24,1.48,3.96,5.04,6.53,9.29,6.7,4.33.17,8.15-2.13,9.97-6.03l2.65-6.46-19.32-7.91c-.33.84-.69,1.66-1.04,2.46Z" fill="none"/>
      <path d="M320.5,330.51c0,1.05.38,2.01.98,2.77-1.23.34-2.35.98-3.29,1.84,3.48,2.77,8.17,3.21,12.04,1.31-.03-.05-.05-.1-.08-.15-.67-.93-1.53-1.65-2.47-2.2.88-.66,1.51-1.63,1.71-2.76,1.43.81,2.63,1.93,3.55,3.26.1-.1.23-.17.33-.27l15.01-15.01c2.15-2.15,3.33-5,3.33-8.03s-1.18-5.88-3.33-8.03l-15.01-15.01c-2.21-2.21-5.12-3.32-8.03-3.32s-5.81,1.11-8.03,3.32l-15.01,15.01c-4.43,4.43-4.43,11.63,0,16.06l13.59,13.59c1.39-1.32,3.03-2.2,4.73-2.66,0,.09-.03.18-.03.27Z" fill="none"/>
      <path d="M410.87,369.72h-37.71c-4.95,0-8.97-4.02-8.97-8.97l4.43-48.04c0-4.95,4.02-8.97,8.97-8.97h28.17c4.95,0,8.97,4.02,8.97,8.97l5.11,48.04c0,4.95-4.02,8.97-8.97,8.97Z" fill="#fff" stroke="#7b4dff" stroke-miterlimit="10" stroke-width="3.7"/>
      <g>
        <path d="M410.87,369.72h-37.71c-4.95,0-8.97-4.02-8.97-8.97l4.43-48.04c0-4.95,4.02-8.97,8.97-8.97h28.17c4.95,0,8.97,4.02,8.97,8.97l5.11,48.04c0,4.95-4.02,8.97-8.97,8.97Z" fill="#e1dce9"/>
        <g clip-path="url(#clippath-5)">
          <rect x="368.14" y="287.44" width="47.63" height="47.63" rx="13.2" ry="13.2" transform="translate(-105.29 368.32) rotate(-45)" fill="none" stroke="#726b7f" stroke-miterlimit="10" stroke-width="3.7"/>
        </g>
        <path d="M410.87,369.72h-37.71c-4.95,0-8.97-4.02-8.97-8.97l4.43-48.04c0-4.95,4.02-8.97,8.97-8.97h28.17c4.95,0,8.97,4.02,8.97,8.97l5.11,48.04c0,4.95-4.02,8.97-8.97,8.97Z" fill="none" stroke="#726b7f" stroke-miterlimit="10" stroke-width="3.7"/>
      </g>
      <path d="M382.81,338.23c-.1.24-.2.47-.29.71-.07.19-.15.38-.22.57l14.86,6.09c.08-.18.16-.37.24-.55.37-.87.73-1.69.89-2.56.16-.85.13-1.71.01-2.56-2,.93-4.17,1.41-6.33,1.41-3.23,0-6.45-1.04-9.14-3.11Z" fill="none"/>
      <path d="M377.84,343.99c-1.66,3.82-3.09,7.12-1.55,11.24,1.48,3.96,5.04,6.53,9.29,6.7,4.33.17,8.15-2.13,9.97-6.03l2.65-6.46-19.32-7.91c-.33.84-.69,1.66-1.04,2.46Z" fill="none"/>
      <path d="M387.22,330.51c0,1.05.38,2.01.98,2.77-1.23.34-2.35.98-3.29,1.84,3.48,2.77,8.17,3.21,12.04,1.31-.03-.05-.05-.1-.08-.15-.67-.93-1.53-1.65-2.47-2.2.88-.66,1.51-1.63,1.71-2.76,1.43.81,2.63,1.93,3.55,3.26.1-.1.23-.17.33-.27l15.01-15.01c2.15-2.15,3.33-5,3.33-8.03s-1.18-5.88-3.33-8.03l-15.01-15.01c-2.21-2.21-5.12-3.32-8.03-3.32s-5.81,1.11-8.03,3.32l-15.01,15.01c-4.43,4.43-4.43,11.63,0,16.06l13.59,13.59c1.39-1.32,3.03-2.2,4.73-2.66,0,.09-.03.18-.03.27Z" fill="none"/>
      <path d="M345.11,390.32c.42-3.39-.66-6.92-3.26-9.52l-13.04-13.04c-4.48-4.48-11.74-4.48-16.22,0l-13.04,13.04c-1.27,1.27-2.17,2.77-2.72,4.36-.59,1.24-.93,2.63-.93,4.09l-4.71,51.14c0,5.27,4.28,9.55,9.55,9.55h40.14c5.27,0,9.55-4.28,9.55-9.55l-5.33-50.07Z" fill="#d4cde0" stroke="#726b7f" stroke-miterlimit="10" stroke-width="3.21"/>
      <g>
        <polygon points="310.4 429.1 330.94 420.62 335.65 428.73 334.96 437.19 328.64 442.59 321.25 444.51 313.66 441.65 310 434.91 310.24 429.91 310.4 429.1" fill="#fff"/>
        <g>
          <path d="M326.68,419.63l-15.64,6.46M326.83,419.56l-.16.06M330.07,418.22c-.89-2.25-2.02-4.52-4.19-6.3-.5-.41-1.02-.76-1.55-1.08-1.22-.73-2.52-1.23-3.85-1.48-1.7-.32-3.44-.27-5.13.19-1.44.39-2.84,1.03-4.14,1.99-1.32.97-2.49,2.29-3.37,3.83.06.07.11.16.18.23.79.8,1.79,1.23,2.82,1.36.37-.64.8-1.25,1.33-1.79,1.12-1.13,2.48-1.87,3.94-2.25,1.13-.29,2.32-.39,3.52-.19.06.01.11.04.17.05,1.34.25,2.57.83,3.63,1.64.73.55,1.39,1.18,1.91,1.94.53.77.87,1.66,1.24,2.6.08.2.16.4.24.59M307.81,427.42l-.97.4c-.33.14-.58.44-.72.87-.06.19-.24.83.02,1.26.58,1.25,1.08,2.56,1.57,3.82,1.55,4.02,3.16,8.19,7.33,10.85,4.07,2.6,8.95,3.03,13.39,1.19,4.44-1.84,7.59-5.59,8.64-10.3,1.07-4.83-.72-8.9-2.45-12.83-.54-1.21-1.09-2.47-1.56-3.74-.12-.46-.54-.78-.8-.94-.45-.27-.85-.33-1.19-.19l-1,.41M333.34,428.57c1.54,4.31.38,8.92-3.02,12.03-3.35,3.06-7.96,3.78-12.05,1.89-4.25-1.97-5.64-5.53-7.25-9.66-.34-.86-.68-1.75-1.06-2.64l20.54-8.49,2.84,6.87Z" fill="#7b4dff"/>
          <g>
            <path d="M323.51,433.32c.55-.31.67-.75.67-1.08,0-.55-.31-1.13-.77-1.4-.41-.24-.87-.22-1.37.06-.92.52-.73,1.43-.47,1.89.12.21.75,1.19,1.94.52Z" fill="none"/>
            <path d="M311.02,432.83c1.61,4.13,2.99,7.7,7.25,9.66,4.09,1.89,8.7,1.16,12.05-1.89,3.4-3.11,4.56-7.72,3.02-12.03l-2.84-6.87-20.54,8.49c.38.89.72,1.78,1.06,2.64ZM318.08,430.92c.36-1.47,1.38-2.65,2.81-3.25.01,0,.02,0,.03-.01,1.43-.59,2.99-.49,4.29.28,1.43.85,2.32,2.33,2.4,3.98.06,1.42-.5,2.77-1.52,3.72.11.27.24.54.37.83.24.52.48,1.05.65,1.6.27.87.06,1.64-.56,2.07-.14.09-.27.16-.4.22-.42.17-.79.15-1.04.09-.49-.12-.91-.48-1.19-1-.27-.52-.48-1.09-.69-1.63-.11-.3-.22-.59-.33-.86-1.39.04-2.74-.52-3.69-1.55-1.1-1.2-1.53-2.87-1.14-4.48Z" fill="none"/>
            <path d="M323.23,437.8c.2.55.41,1.11.69,1.63.28.52.7.88,1.19,1,.26.06.62.09,1.04-.09.13-.05.26-.12.4-.22.62-.43.83-1.2.56-2.07-.17-.55-.42-1.08-.65-1.6-.13-.28-.26-.56-.37-.83,1.02-.96,1.58-2.31,1.52-3.72-.07-1.64-.97-3.13-2.4-3.98-1.3-.77-2.86-.87-4.29-.28-.01,0-.02,0-.03.01-1.43.6-2.45,1.79-2.81,3.25-.39,1.61.03,3.28,1.14,4.48.95,1.03,2.29,1.59,3.69,1.55.11.27.22.56.33.86ZM321.57,432.8c-.26-.46-.45-1.37.47-1.89.5-.28.96-.3,1.37-.06.46.27.77.85.77,1.4,0,.32-.12.77-.67,1.08-1.2.67-1.83-.32-1.94-.52Z" fill="#7b4dff"/>
          </g>
        </g>
      </g>
      <g clip-path="url(#clippath-6)">
        <g>
          <g id="Oval-Copy-5-2" data-name="Oval-Copy-5">
            <circle cx="320.7" cy="396.16" r="22.17" fill="#ff527f"/>
          </g>
          <path id="m-4" data-name="m" d="M311.67,406.57c2.31,0,4.19-1.46,4.45-3.33.03-.13.05-.26.05-.4,0,0,0,0,0-.01v-8.24l12.74-4.02v6.04c-.66-.32-1.42-.52-2.25-.52-2.48,0-4.5,1.68-4.5,3.75s2.01,3.75,4.5,3.75c2.31,0,4.19-1.46,4.45-3.33.03-.12.04-.25.05-.39v-.03h0s0,0,0,0v-15.73c0-.86-.7-1.5-1.5-1.5-.15,0-.3.02-.45.07l-14.24,4.5c-.62.2-1.05.77-1.05,1.43v11.01c-.66-.32-1.42-.52-2.25-.52-2.48,0-4.5,1.68-4.5,3.75s2.01,3.75,4.5,3.75ZM316.17,392.22v-3.09l12.74-4.02v3.09l-12.74,4.02ZM326.66,401.32c-1.33,0-2.25-.79-2.25-1.5s.92-1.5,2.25-1.5,2.25.79,2.25,1.5h0c0,.71-.92,1.5-2.25,1.5ZM311.67,404.32c-1.33,0-2.25-.79-2.25-1.5s.92-1.5,2.25-1.5,2.25.79,2.25,1.5-.92,1.5-2.25,1.5Z" fill="#fff"/>
        </g>
      </g>
      <line x1="345.18" y1="404.7" x2="294.96" y2="404.7" fill="none" stroke="#726b7f" stroke-miterlimit="10" stroke-width="3.94"/>
      <g>
        <path d="M448.3,338.84c-.1.24-.2.48-.3.73-.08.19-.15.39-.23.58l15.18,6.22c.08-.19.16-.38.24-.57.38-.89.74-1.73.91-2.61.16-.87.13-1.75.01-2.62-2.05.95-4.26,1.44-6.47,1.44-3.3,0-6.6-1.07-9.34-3.17Z" fill="none"/>
        <path d="M443.21,344.72c-1.69,3.9-3.16,7.27-1.59,11.49,1.51,4.05,5.15,6.67,9.49,6.85,4.42.18,8.32-2.18,10.18-6.16l2.7-6.61-19.74-8.09c-.34.86-.71,1.7-1.06,2.52Z" fill="none"/>
        <path d="M452.8,330.95c0,1.07.39,2.05,1,2.83-1.26.35-2.4,1-3.36,1.88,3.55,2.83,8.34,3.28,12.3,1.34-.03-.05-.05-.1-.09-.15-.68-.95-1.56-1.69-2.53-2.25.9-.68,1.54-1.67,1.75-2.82,1.46.83,2.69,1.97,3.63,3.34.11-.1.23-.17.34-.27l15.34-15.34c2.19-2.19,3.4-5.11,3.4-8.2s-1.21-6.01-3.4-8.2l-15.34-15.34c-2.26-2.26-5.23-3.39-8.2-3.39s-5.94,1.13-8.2,3.39l-15.34,15.34c-4.52,4.52-4.52,11.88,0,16.41l13.89,13.89c1.42-1.35,3.1-2.25,4.84-2.72,0,.09-.03.18-.03.28Z" fill="none"/>
        <path d="M480.84,313.79c.4-3.25-.63-6.64-3.13-9.14l-12.51-12.51c-4.3-4.3-11.27-4.3-15.56,0l-12.51,12.51c-1.22,1.22-2.08,2.66-2.61,4.19-.57,1.19-.89,2.52-.89,3.93l-4.53,49.09c0,5.06,4.1,9.17,9.17,9.17h38.53c5.06,0,9.17-4.1,9.17-9.17l-5.11-48.06Z" fill="#d4cde0" stroke="#726b7f" stroke-miterlimit="10" stroke-width="3.08"/>
        <g>
          <polygon points="447.52 351.02 467.23 342.87 471.76 350.66 471.1 358.78 465.03 363.96 457.93 365.81 450.65 363.06 447.14 356.59 447.37 351.79 447.52 351.02" fill="#fff"/>
          <g>
            <path d="M463.14,341.92l-15.01,6.2M463.29,341.86l-.15.06M466.4,340.57c-.85-2.16-1.94-4.34-4.02-6.05-.48-.39-.98-.73-1.49-1.03-1.18-.71-2.42-1.18-3.7-1.42-1.63-.31-3.3-.26-4.93.19-1.38.37-2.73.99-3.97,1.91-1.26.94-2.39,2.2-3.24,3.67.06.07.11.15.18.22.76.76,1.72,1.18,2.71,1.3.35-.62.77-1.2,1.28-1.72,1.07-1.09,2.38-1.79,3.79-2.16,1.09-.28,2.22-.38,3.38-.18.06,0,.11.03.17.05,1.29.24,2.47.8,3.49,1.57.7.53,1.34,1.14,1.83,1.87.5.74.84,1.59,1.19,2.49.07.19.15.38.23.57M445.04,349.4l-.93.38c-.31.13-.55.42-.69.83-.06.18-.23.8.02,1.21.55,1.2,1.04,2.45,1.5,3.66,1.49,3.86,3.03,7.86,7.04,10.41,3.9,2.49,8.59,2.91,12.86,1.15,4.27-1.76,7.29-5.37,8.29-9.89,1.03-4.63-.69-8.54-2.36-12.31-.51-1.16-1.04-2.37-1.49-3.59-.11-.45-.52-.75-.77-.9-.43-.26-.82-.32-1.15-.18l-.96.4M469.54,350.51c1.48,4.13.36,8.56-2.9,11.54-3.21,2.93-7.64,3.63-11.56,1.82-4.08-1.89-5.42-5.31-6.96-9.28-.32-.83-.65-1.68-1.02-2.53l19.71-8.15,2.73,6.6Z" fill="#7b4dff"/>
            <g>
              <path d="M460.11,355.07c.52-.29.64-.72.64-1.03,0-.53-.3-1.08-.73-1.34-.39-.23-.84-.21-1.32.06-.88.5-.7,1.37-.45,1.81.11.2.72,1.14,1.86.5Z" fill="none"/>
              <path d="M448.12,354.59c1.54,3.96,2.87,7.39,6.96,9.28,3.92,1.81,8.35,1.12,11.56-1.82,3.27-2.98,4.38-7.41,2.9-11.54l-2.73-6.6-19.71,8.15c.36.85.7,1.7,1.02,2.53ZM454.89,352.76c.34-1.41,1.33-2.55,2.7-3.12.01,0,.02,0,.03-.01,1.37-.57,2.87-.47,4.12.27,1.37.81,2.23,2.24,2.3,3.82.06,1.36-.48,2.65-1.46,3.57.11.26.23.52.35.8.23.5.46,1.01.63,1.53.26.83.06,1.58-.54,1.99-.13.09-.26.16-.38.21-.4.17-.75.14-1,.08-.47-.12-.88-.46-1.14-.96-.26-.5-.46-1.04-.66-1.57-.11-.29-.21-.56-.32-.82-1.34.04-2.63-.49-3.54-1.48-1.06-1.15-1.47-2.75-1.09-4.3Z" fill="none"/>
              <path d="M459.84,359.37c.2.53.4,1.07.66,1.57.26.5.67.84,1.14.96.25.06.6.08,1-.08.12-.05.25-.12.38-.21.6-.41.8-1.16.54-1.99-.17-.52-.4-1.04-.63-1.53-.12-.27-.25-.54-.35-.8.98-.92,1.51-2.21,1.46-3.57-.07-1.58-.93-3-2.3-3.82-1.25-.74-2.74-.84-4.12-.27-.01,0-.02,0-.03.01-1.37.58-2.35,1.72-2.7,3.12-.38,1.55.03,3.15,1.09,4.3.91.99,2.2,1.52,3.54,1.48.11.26.21.54.32.82ZM458.24,354.56c-.25-.44-.43-1.32.45-1.81.48-.27.93-.29,1.32-.06.44.26.74.81.73,1.34,0,.31-.12.74-.64,1.03-1.15.64-1.75-.31-1.86-.5Z" fill="#7b4dff"/>
            </g>
          </g>
        </g>
        <g clip-path="url(#clippath-7)">
          <g>
            <g id="Oval-Copy-5-3" data-name="Oval-Copy-5">
              <circle cx="457.4" cy="319.66" r="21.28" fill="#362b48"/>
            </g>
            <path id="i" d="M469.61,326.92c1.4,0,2.54-1.14,2.54-2.54v-13.53c0-1.4-1.14-2.54-2.54-2.54h-20.29c-1.4,0-2.54,1.14-2.54,2.54v13.53c0,1.4,1.14,2.54,2.54,2.54h20.29ZM469.29,324.38h-19.66c-.17,0-.32-.14-.32-.32v-12.89c0-.17.14-.32.32-.32h19.66c.17,0,.32.14.32.32v12.89c0,.17-.14.32-.32.32ZM453.55,316.35c1.17,0,2.11-.95,2.11-2.11s-.95-2.11-2.11-2.11-2.11.95-2.11,2.11.95,2.11,2.11,2.11ZM464.54,331.99c1.4,0,2.54-1.14,2.54-2.54v-.85h-2.54v.53c0,.17-.14.32-.32.32h-19.66c-.17,0-.32-.14-.32-.32v-12.89c0-.17.14-.32.32-.32h.53v-2.54h-.85c-1.4,0-2.54,1.14-2.54,2.54v13.53c0,1.4,1.14,2.54,2.54,2.54h20.29ZM467.07,321.84v-4.23l-3.78-3.78c-.25-.25-.65-.25-.9,0l-5.47,5.47-2.09-2.09c-.25-.25-.65-.25-.9,0l-2.09,2.09v2.54h15.22Z" fill="#fff"/>
          </g>
        </g>
        <line x1="480.9" y1="327.59" x2="432.71" y2="327.59" fill="none" stroke="#726b7f" stroke-miterlimit="10" stroke-width="3.78"/>
      </g>
      <path id="c" d="M722.43,280.55c.44,0,.84-.34.84-.84v-3.65h2.25c2.48,0,4.5-2.02,4.5-4.5v-11.24c0-2.48-2.02-4.5-4.5-4.5h-6.74v-6.74c0-2.48-2.02-4.5-4.5-4.5h-20.23c-2.48,0-4.5,2.02-4.5,4.5v11.24c0,2.48,2.02,4.5,4.5,4.5h2.25v3.65c0,.5.41.84.84.84.17,0,.34-.05.5-.17l5.4-3.06v5.47c0,2.48,2.02,4.5,4.5,4.5h6.74l7.65,4.33c.15.11.33.17.5.17ZM699.67,264.12v-2.68h-5.62c-.62,0-1.12-.51-1.12-1.12v-11.24c0-.62.51-1.12,1.12-1.12h20.23c.62,0,1.12.51,1.12,1.12v11.24c0,.62-.51,1.12-1.12,1.12h-9.88l-.77.44-3.96,2.24ZM719.9,275.36l-3.96-2.24-.77-.44h-7.63c-.62,0-1.12-.51-1.12-1.12v-6.74h7.87c2.48,0,4.5-2.02,4.5-4.5v-1.12h6.74c.62,0,1.12.51,1.12,1.12v11.24c0,.62-.51,1.12-1.12,1.12h-5.62v2.68Z" fill="#7b4dff"/>
      <g mix-blend-mode="multiply" opacity=".5">
        <g id="Oval-Copy-5-4" data-name="Oval-Copy-5">
          <path d="M325,358.77c-12.5,0-22.67-10.17-22.67-22.67s10.17-22.67,22.67-22.67,22.67,10.17,22.67,22.67-10.17,22.67-22.67,22.67Z" fill="#d4cde0" fill-rule="evenodd"/>
          <path d="M325,313.93c12.25,0,22.17,9.93,22.17,22.17s-9.93,22.17-22.17,22.17-22.17-9.93-22.17-22.17,9.93-22.17,22.17-22.17M325,312.93c-12.78,0-23.17,10.4-23.17,23.17s10.4,23.17,23.17,23.17,23.17-10.4,23.17-23.17-10.4-23.17-23.17-23.17h0Z" fill="#d4cde0"/>
        </g>
      </g>
      <g mix-blend-mode="multiply" opacity=".5">
        <g id="Oval-Copy-5-5" data-name="Oval-Copy-5">
          <circle cx="391.79" cy="336.1" r="22.17" fill="#d4cde0"/>
        </g>
      </g>
      <g mix-blend-mode="multiply" opacity=".5">
        <g id="Oval-Copy-5-6" data-name="Oval-Copy-5">
          <circle cx="391.72" cy="410.46" r="22.17" fill="#d4cde0"/>
        </g>
      </g>
      <g>
        <circle cx="325" cy="330.51" r="4.48" fill="#362b48"/>
        <polygon points="313.16 341.09 332.47 349.01 330.26 357.54 324.2 362.73 316.41 362.15 310.21 358.55 307.04 351.63 309.06 344.7 312.52 341.53 313.16 341.09" fill="#fff"/>
        <path d="M335.09,348.14c-.12-.48-.35-.79-.67-.92l-.94-.38c.89-2.09,1.64-4.35,1.37-6.98-.06-.6-.18-1.18-.32-1.75-.33-1.3-.87-2.49-1.59-3.53-.92-1.34-2.12-2.45-3.55-3.26-1.22-.69-2.58-1.19-4.08-1.41-1.52-.22-3.17-.12-4.78.32,0,.09-.03.18-.03.27,0,1.05.38,2.01.98,2.77.67-.19,1.36-.3,2.07-.31,1.5-.02,2.89.39,4.12,1.11.95.55,1.8,1.27,2.47,2.2.03.05.05.1.08.15.73,1.06,1.16,2.26,1.34,3.5.12.85.15,1.71-.01,2.56-.16.86-.51,1.69-.89,2.56-.08.18-.16.37-.24.55l-14.86-6.09c.08-.19.15-.38.22-.57.1-.25.2-.48.29-.71-.52-.4-1.02-.82-1.5-1.29l-1.02-1.02c-.14.28-.29.56-.42.87l-.6,1.48-.91-.37c-.31-.13-.67-.09-1.06.1-.16.08-.71.4-.82.85-.44,1.22-.97,2.42-1.48,3.58-1.63,3.71-3.31,7.55-2.28,12.09,1,4.42,3.97,7.94,8.15,9.65,4.18,1.71,8.76,1.29,12.57-1.16,3.91-2.51,5.4-6.41,6.84-10.18.44-1.16.9-2.37,1.43-3.52.23-.39.16-.88.09-1.16ZM328.82,355.91c-1.82,3.89-5.64,6.2-9.97,6.03-4.25-.17-7.81-2.74-9.29-6.7-1.54-4.12-.11-7.42,1.55-11.24.35-.8.7-1.62,1.04-2.46l19.32,7.91-2.65,6.46Z" fill="#7b4dff"/>
        <g>
          <path d="M321.48,333.28c-1.83.51-3.44,1.63-4.52,3.22-.49.72-.81,1.55-1.16,2.44-.07.19-.15.38-.22.57l14.86,6.09c.08-.18.16-.37.24-.55.37-.87.73-1.69.89-2.56.4-2.14-.12-4.4-1.41-6.2-.67-.93-1.53-1.65-2.47-2.2-.75.57-1.68.92-2.69.92-1.42,0-2.68-.68-3.5-1.71Z" fill="none"/>
          <path d="M319.12,352.58c.57.16.94-.06,1.16-.28.37-.36.54-.95.41-1.44-.11-.43-.44-.72-.96-.87-.96-.26-1.43.47-1.57.95-.06.21-.29,1.29.95,1.63Z" fill="none"/>
          <path d="M311.11,343.99c-1.66,3.82-3.09,7.12-1.55,11.24,1.48,3.96,5.04,6.53,9.29,6.7,4.33.17,8.15-2.13,9.97-6.03l2.65-6.46-19.32-7.91c-.33.84-.69,1.66-1.04,2.46ZM317.08,347.39c1.21-.74,2.68-.86,4.03-.31,0,0,.02,0,.03.01,1.34.55,2.32,1.65,2.68,3.02.39,1.51.01,3.09-1.03,4.24-.9.99-2.16,1.52-3.47,1.48-.1.25-.2.52-.3.8-.18.5-.38,1.02-.62,1.5-.39.76-1.04,1.14-1.74,1.01-.15-.03-.29-.07-.41-.12-.39-.16-.62-.42-.75-.63-.25-.41-.29-.92-.13-1.45.16-.53.4-1.04.62-1.54.12-.27.24-.53.35-.79-.96-.9-1.49-2.15-1.44-3.47.05-1.53.88-2.92,2.2-3.74Z" fill="none"/>
          <path d="M315.97,355.39c-.23.5-.46,1.02-.62,1.54-.16.53-.11,1.05.13,1.45.13.21.36.47.75.63.12.05.26.09.41.12.7.13,1.35-.25,1.74-1.01.25-.48.44-1,.62-1.5.1-.28.2-.54.3-.8,1.31.04,2.58-.5,3.47-1.48,1.04-1.14,1.42-2.73,1.03-4.24-.36-1.37-1.33-2.47-2.68-3.02,0,0-.02,0-.03-.01-1.35-.54-2.82-.43-4.03.31-1.33.82-2.15,2.21-2.2,3.74-.05,1.32.48,2.57,1.44,3.47-.1.26-.22.52-.35.79ZM318.17,350.94c.13-.48.61-1.21,1.57-.95.52.14.84.44.96.87.13.49-.04,1.08-.41,1.44-.22.21-.59.43-1.16.28-1.24-.34-1.01-1.42-.95-1.63Z" fill="#7b4dff"/>
          <path d="M321.48,333.28c.82,1.04,2.08,1.71,3.5,1.71,1.01,0,1.94-.35,2.69-.92-1.23-.72-2.62-1.13-4.12-1.11-.71,0-1.4.13-2.07.31Z" fill="#362b48"/>
        </g>
      </g>
      <g>
        <circle cx="391.73" cy="330.51" r="4.48" fill="#362b48"/>
        <polygon points="379.88 341.09 399.2 349.01 396.98 357.54 390.93 362.73 383.14 362.15 376.94 358.55 373.76 351.63 375.78 344.7 379.24 341.53 379.88 341.09" fill="#fff"/>
        <path d="M401.81,348.14c-.12-.48-.35-.79-.67-.92l-.94-.38c.89-2.09,1.64-4.35,1.37-6.98-.06-.6-.18-1.18-.32-1.75-.33-1.3-.87-2.49-1.59-3.53-.92-1.34-2.12-2.45-3.55-3.26-1.22-.69-2.58-1.19-4.08-1.41-1.52-.22-3.17-.12-4.78.32,0,.09-.03.18-.03.27,0,1.05.38,2.01.98,2.77.67-.19,1.36-.3,2.07-.31,1.5-.02,2.89.39,4.12,1.11.95.55,1.8,1.27,2.47,2.2.03.05.05.1.08.15.73,1.06,1.16,2.26,1.34,3.5.12.85.15,1.71-.01,2.56-.16.86-.51,1.69-.89,2.56-.08.18-.16.37-.24.55l-14.86-6.09c.08-.19.15-.38.22-.57.1-.25.2-.48.29-.71-.52-.4-1.02-.82-1.5-1.29l-1.02-1.02c-.14.28-.29.56-.42.87l-.6,1.48-.91-.37c-.31-.13-.67-.09-1.06.1-.16.08-.71.4-.82.85-.44,1.22-.97,2.42-1.48,3.58-1.63,3.71-3.31,7.55-2.28,12.09,1,4.42,3.97,7.94,8.15,9.65,4.18,1.71,8.76,1.29,12.57-1.16,3.91-2.51,5.4-6.41,6.84-10.18.44-1.16.9-2.37,1.43-3.52.23-.39.16-.88.09-1.16ZM395.54,355.91c-1.82,3.89-5.64,6.2-9.97,6.03-4.25-.17-7.81-2.74-9.29-6.7-1.54-4.12-.11-7.42,1.55-11.24.35-.8.7-1.62,1.04-2.46l19.32,7.91-2.65,6.46Z" fill="#7b4dff"/>
        <g>
          <path d="M388.2,333.28c-1.83.51-3.44,1.63-4.52,3.22-.49.72-.81,1.55-1.16,2.44-.07.19-.15.38-.22.57l14.86,6.09c.08-.18.16-.37.24-.55.37-.87.73-1.69.89-2.56.4-2.14-.12-4.4-1.41-6.2-.67-.93-1.53-1.65-2.47-2.2-.75.57-1.68.92-2.69.92-1.42,0-2.68-.68-3.5-1.71Z" fill="none"/>
          <path d="M385.85,352.58c.57.16.94-.06,1.16-.28.37-.36.54-.95.41-1.44-.11-.43-.44-.72-.96-.87-.96-.26-1.43.47-1.57.95-.06.21-.29,1.29.95,1.63Z" fill="none"/>
          <path d="M377.84,343.99c-1.66,3.82-3.09,7.12-1.55,11.24,1.48,3.96,5.04,6.53,9.29,6.7,4.33.17,8.15-2.13,9.97-6.03l2.65-6.46-19.32-7.91c-.33.84-.69,1.66-1.04,2.46ZM383.81,347.39c1.21-.74,2.68-.86,4.03-.31,0,0,.02,0,.03.01,1.34.55,2.32,1.65,2.68,3.02.39,1.51.01,3.09-1.03,4.24-.9.99-2.16,1.52-3.47,1.48-.1.25-.2.52-.3.8-.18.5-.38,1.02-.62,1.5-.39.76-1.04,1.14-1.74,1.01-.15-.03-.29-.07-.41-.12-.39-.16-.62-.42-.75-.63-.25-.41-.29-.92-.13-1.45.16-.53.4-1.04.62-1.54.12-.27.24-.53.35-.79-.96-.9-1.49-2.15-1.44-3.47.05-1.53.88-2.92,2.2-3.74Z" fill="none"/>
          <path d="M382.7,355.39c-.23.5-.46,1.02-.62,1.54-.16.53-.11,1.05.13,1.45.13.21.36.47.75.63.12.05.26.09.41.12.7.13,1.35-.25,1.74-1.01.25-.48.44-1,.62-1.5.1-.28.2-.54.3-.8,1.31.04,2.58-.5,3.47-1.48,1.04-1.14,1.42-2.73,1.03-4.24-.36-1.37-1.33-2.47-2.68-3.02,0,0-.02,0-.03-.01-1.35-.54-2.82-.43-4.03.31-1.33.82-2.15,2.21-2.2,3.74-.05,1.32.48,2.57,1.44,3.47-.1.26-.22.52-.35.79ZM384.9,350.94c.13-.48.61-1.21,1.57-.95.52.14.84.44.96.87.13.49-.04,1.08-.41,1.44-.22.21-.59.43-1.16.28-1.24-.34-1.01-1.42-.95-1.63Z" fill="#7b4dff"/>
          <path d="M388.2,333.28c.82,1.04,2.08,1.71,3.5,1.71,1.01,0,1.94-.35,2.69-.92-1.23-.72-2.62-1.13-4.12-1.11-.71,0-1.4.13-2.07.31Z" fill="#362b48"/>
        </g>
      </g>
      <g>
        <circle cx="462.08" cy="408.2" r="4.77" fill="#362b48"/>
        <polygon points="449.47 419.47 470.04 427.89 467.68 436.97 461.23 442.5 452.94 441.89 446.34 438.05 442.96 430.68 445.11 423.31 448.79 419.93 449.47 419.47" fill="#fff"/>
        <path d="M472.82,426.97c-.13-.51-.37-.84-.71-.98l-1-.41c.95-2.22,1.75-4.63,1.46-7.43-.07-.64-.19-1.26-.35-1.86-.35-1.38-.93-2.65-1.69-3.76-.98-1.42-2.26-2.61-3.78-3.48-1.29-.73-2.74-1.27-4.34-1.5-1.62-.24-3.38-.12-5.09.34,0,.1-.03.19-.03.29,0,1.12.4,2.14,1.05,2.95.71-.2,1.45-.32,2.21-.33,1.59-.02,3.08.42,4.38,1.18,1.01.59,1.92,1.35,2.63,2.35.04.05.06.11.09.15.77,1.12,1.24,2.4,1.43,3.72.13.9.16,1.82-.01,2.72-.17.92-.55,1.79-.95,2.72-.08.2-.17.39-.25.59l-15.82-6.48c.08-.2.16-.4.24-.6.1-.26.21-.51.31-.76-.55-.42-1.09-.87-1.6-1.38l-1.09-1.09c-.15.3-.31.6-.45.93l-.64,1.58-.97-.4c-.33-.13-.72-.1-1.12.11-.17.09-.76.42-.87.91-.47,1.3-1.03,2.58-1.57,3.81-1.73,3.95-3.52,8.04-2.43,12.87,1.06,4.71,4.22,8.45,8.67,10.28,4.45,1.82,9.33,1.37,13.39-1.24,4.16-2.67,5.75-6.83,7.29-10.84.47-1.24.96-2.52,1.52-3.75.24-.41.17-.94.09-1.23ZM466.14,435.23c-1.94,4.14-6.01,6.6-10.61,6.41-4.53-.18-8.32-2.92-9.89-7.14-1.64-4.39-.11-7.9,1.65-11.97.37-.85.75-1.72,1.1-2.62l20.56,8.43-2.82,6.88Z" fill="#7b4dff"/>
        <g>
          <path d="M458.33,411.15c-1.94.54-3.66,1.73-4.82,3.43-.52.77-.87,1.65-1.23,2.59-.08.2-.16.4-.24.6l15.82,6.48c.08-.2.17-.39.25-.59.4-.93.77-1.8.95-2.72.42-2.28-.13-4.68-1.5-6.6-.71-.99-1.63-1.76-2.63-2.35-.8.6-1.78.97-2.86.97-1.52,0-2.85-.72-3.73-1.82Z" fill="none"/>
          <path d="M455.82,431.69c.6.17,1-.07,1.23-.29.39-.39.57-1.02.44-1.53-.12-.46-.47-.77-1.02-.92-1.02-.28-1.53.5-1.67,1.01-.06.23-.31,1.37,1.01,1.74Z" fill="none"/>
          <path d="M447.29,422.55c-1.77,4.06-3.29,7.58-1.65,11.97,1.57,4.22,5.36,6.95,9.89,7.14,4.61.19,8.67-2.27,10.61-6.41l2.82-6.88-20.56-8.43c-.36.9-.74,1.77-1.1,2.62ZM453.65,426.16c1.29-.79,2.85-.91,4.29-.33.01,0,.02,0,.03.01,1.43.59,2.47,1.76,2.85,3.22.42,1.61.01,3.29-1.1,4.51-.95,1.05-2.3,1.61-3.7,1.58-.11.27-.22.55-.32.85-.2.53-.4,1.09-.66,1.6-.42.81-1.11,1.21-1.86,1.08-.16-.03-.31-.07-.43-.13-.42-.17-.66-.45-.8-.67-.26-.43-.31-.98-.14-1.55.17-.56.42-1.11.66-1.64.13-.29.26-.57.37-.84-1.02-.95-1.58-2.29-1.53-3.69.06-1.63.93-3.11,2.35-3.98Z" fill="none"/>
          <path d="M452.47,434.68c-.24.53-.49,1.08-.66,1.64-.17.57-.12,1.11.14,1.55.14.23.38.5.8.67.13.05.27.1.43.13.75.13,1.44-.27,1.86-1.08.26-.51.46-1.06.66-1.6.11-.29.21-.58.32-.85,1.4.04,2.74-.53,3.7-1.58,1.11-1.22,1.52-2.9,1.1-4.51-.38-1.46-1.42-2.63-2.85-3.22-.01,0-.02,0-.03-.01-1.44-.58-3-.46-4.29.33-1.41.87-2.29,2.36-2.35,3.98-.05,1.4.51,2.74,1.53,3.69-.11.27-.24.55-.37.84ZM454.81,429.95c.14-.51.65-1.29,1.67-1.01.55.15.9.46,1.02.92.13.52-.05,1.15-.44,1.53-.23.23-.63.46-1.23.29-1.32-.37-1.07-1.51-1.01-1.74Z" fill="#7b4dff"/>
          <path d="M458.33,411.15c.87,1.1,2.21,1.82,3.73,1.82,1.08,0,2.06-.37,2.86-.97-1.31-.76-2.79-1.2-4.38-1.18-.76,0-1.49.13-2.21.33Z" fill="#362b48"/>
        </g>
      </g>
      <g>
        <g>
          <circle cx="391.73" cy="408.2" r="4.77" fill="#362b48"/>
          <polygon points="379.12 419.47 399.68 427.89 397.32 436.97 390.88 442.5 382.59 441.89 375.98 438.05 372.61 430.68 374.76 423.31 378.44 419.93 379.12 419.47" fill="#fff"/>
          <path d="M402.46,426.97c-.13-.51-.37-.84-.71-.98l-1-.41c.95-2.22,1.75-4.63,1.46-7.43-.07-.64-.19-1.26-.35-1.86-.35-1.38-.93-2.65-1.69-3.76-.98-1.42-2.26-2.61-3.78-3.48-1.29-.73-2.74-1.27-4.34-1.5-1.62-.24-3.38-.12-5.09.34,0,.1-.03.19-.03.29,0,1.12.4,2.14,1.05,2.95.71-.2,1.45-.32,2.21-.33,1.59-.02,3.08.42,4.38,1.18,1.01.59,1.92,1.35,2.63,2.35.04.05.06.11.09.15.77,1.12,1.24,2.4,1.43,3.72.13.9.16,1.82-.01,2.72-.17.92-.55,1.79-.95,2.72-.08.2-.17.39-.25.59l-15.82-6.48c.08-.2.16-.4.24-.6.1-.26.21-.51.31-.76-.55-.42-1.09-.87-1.6-1.38l-1.09-1.09c-.15.3-.31.6-.45.93l-.64,1.58-.97-.4c-.33-.13-.72-.1-1.12.11-.17.09-.76.42-.87.91-.47,1.3-1.03,2.58-1.57,3.81-1.73,3.95-3.52,8.04-2.43,12.87,1.06,4.71,4.22,8.45,8.67,10.28,4.45,1.82,9.33,1.37,13.39-1.24,4.16-2.67,5.75-6.83,7.29-10.84.47-1.24.96-2.52,1.52-3.75.24-.41.17-.94.09-1.23ZM395.79,435.23c-1.94,4.14-6.01,6.6-10.61,6.41-4.53-.18-8.32-2.92-9.89-7.14-1.64-4.39-.11-7.9,1.65-11.97.37-.85.75-1.72,1.1-2.62l20.56,8.43-2.82,6.88Z" fill="#7b4dff"/>
        </g>
        <g>
          <path d="M387.98,411.15c-1.94.54-3.66,1.73-4.82,3.43-.52.77-.87,1.65-1.23,2.59-.08.2-.16.4-.24.6l15.82,6.48c.08-.2.17-.39.25-.59.4-.93.77-1.8.95-2.72.42-2.28-.13-4.68-1.5-6.6-.71-.99-1.63-1.76-2.63-2.35-.8.6-1.78.97-2.86.97-1.52,0-2.85-.72-3.73-1.82Z" fill="none"/>
          <path d="M385.47,431.69c.6.17,1-.07,1.23-.29.39-.39.57-1.02.44-1.53-.12-.46-.47-.77-1.02-.92-1.02-.28-1.53.5-1.67,1.01-.06.23-.31,1.37,1.01,1.74Z" fill="none"/>
          <path d="M376.94,422.55c-1.77,4.06-3.29,7.58-1.65,11.97,1.57,4.22,5.36,6.95,9.89,7.14,4.61.19,8.67-2.27,10.61-6.41l2.82-6.88-20.56-8.43c-.36.9-.74,1.77-1.1,2.62ZM383.3,426.16c1.29-.79,2.85-.91,4.29-.33.01,0,.02,0,.03.01,1.43.59,2.47,1.76,2.85,3.22.42,1.61.01,3.29-1.1,4.51-.95,1.05-2.3,1.61-3.7,1.58-.11.27-.22.55-.32.85-.2.53-.4,1.09-.66,1.6-.42.81-1.11,1.21-1.86,1.08-.16-.03-.31-.07-.43-.13-.42-.17-.66-.45-.8-.67-.26-.43-.31-.98-.14-1.55.17-.56.42-1.11.66-1.64.13-.29.26-.57.37-.84-1.02-.95-1.58-2.29-1.53-3.69.06-1.63.93-3.11,2.35-3.98Z" fill="none"/>
          <path d="M382.12,434.68c-.24.53-.49,1.08-.66,1.64-.17.57-.12,1.11.14,1.55.14.23.38.5.8.67.13.05.27.1.43.13.75.13,1.44-.27,1.86-1.08.26-.51.46-1.06.66-1.6.11-.29.21-.58.32-.85,1.4.04,2.74-.53,3.7-1.58,1.11-1.22,1.52-2.9,1.1-4.51-.38-1.46-1.42-2.63-2.85-3.22-.01,0-.02,0-.03-.01-1.44-.58-3-.46-4.29.33-1.41.87-2.29,2.36-2.35,3.98-.05,1.4.51,2.74,1.53,3.69-.11.27-.24.55-.37.84ZM384.46,429.95c.14-.51.65-1.29,1.67-1.01.55.15.9.46,1.02.92.13.52-.05,1.15-.44,1.53-.23.23-.63.46-1.23.29-1.32-.37-1.07-1.51-1.01-1.74Z" fill="#7b4dff"/>
          <path d="M387.98,411.15c.87,1.1,2.21,1.82,3.73,1.82,1.08,0,2.06-.37,2.86-.97-1.31-.76-2.79-1.2-4.38-1.18-.76,0-1.49.13-2.21.33Z" fill="#362b48"/>
        </g>
      </g>
      <line x1="119.52" y1="270.24" x2="279.66" y2="270.24" fill="none" stroke="#7b4dff" stroke-dasharray="0 8.3" stroke-linecap="round" stroke-linejoin="round" stroke-width="4.15"/>
      <line x1="504.99" y1="270.24" x2="676.83" y2="270.24" fill="none" stroke="#7b4dff" stroke-dasharray="0 8.91" stroke-linecap="round" stroke-linejoin="round" stroke-width="4.45"/>
    </g>
  </g>
</svg>