<?xml version="1.0" encoding="UTF-8"?>
<svg xmlns="http://www.w3.org/2000/svg" xmlns:xlink="http://www.w3.org/1999/xlink" viewBox="0 0 1110 452">
  <defs>
    <clipPath id="clippath">
      <path d="M661.63,88.3c-3.19-5.53-9.14-8.96-15.53-8.96h-182.29c-6.39,0-12.34,3.43-15.53,8.96l-91.15,157.87c-3.19,5.53-3.19,12.4,0,17.93l91.15,157.87c3.19,5.53,9.14,8.96,15.53,8.96h182.29c6.38,0,12.33-3.43,15.53-8.96l91.15-157.87c3.19-5.53,3.19-12.4,0-17.93l-91.15-157.87Z" fill="none"/>
    </clipPath>
    <clipPath id="clippath-1">
      <path d="M752.77,264.1l-91.15,157.87c-3.19,5.53-9.14,8.96-15.53,8.96h-182.29c-6.39,0-12.34-3.43-15.53-8.96l-91.15-157.87c-3.19-5.53-3.19-12.4,0-17.93l91.15-157.87c3.19-5.53,9.14-8.96,15.53-8.96h182.29c6.38,0,12.33,3.43,15.53,8.96l91.15,157.87c3.19,5.53,3.19,12.4,0,17.93Z" clip-path="url(#clippath)" fill="none"/>
    </clipPath>
    <clipPath id="clippath-2">
      <path d="M571.6,411.5h-36.36c-4.78,0-8.65-3.87-8.65-8.65l4.27-46.33c0-4.78,3.87-8.65,8.65-8.65h27.16c4.78,0,8.65,3.87,8.65,8.65l4.93,46.33c0,4.78-3.87,8.65-8.65,8.65Z" fill="#e1dce9" stroke="#726b7f" stroke-miterlimit="10" stroke-width="3.57"/>
    </clipPath>
    <clipPath id="clippath-3">
      <path d="M635.34,411.5h-36.36c-4.78,0-8.65-3.87-8.65-8.65l4.27-46.33c0-4.78,3.87-8.65,8.65-8.65h27.16c4.78,0,8.65,3.87,8.65,8.65l4.93,46.33c0,4.78-3.87,8.65-8.65,8.65Z" fill="#e1dce9" stroke="#726b7f" stroke-miterlimit="10" stroke-width="3.57"/>
    </clipPath>
    <clipPath id="clippath-4">
      <path d="M510.04,338.83h-34.16c-4.49,0-8.13-3.64-8.13-8.13l4.01-43.52c0-4.49,3.64-8.13,8.13-8.13h25.52c4.49,0,8.13,3.64,8.13,8.13l4.63,43.52c0,4.49-3.64,8.13-8.13,8.13Z" fill="#e1dce9" stroke="#726b7f" stroke-miterlimit="10" stroke-width="3.35"/>
    </clipPath>
    <clipPath id="clippath-5">
      <path d="M570.48,338.83h-34.16c-4.49,0-8.13-3.64-8.13-8.13l4.01-43.52c0-4.49,3.64-8.13,8.13-8.13h25.52c4.49,0,8.13,3.64,8.13,8.13l4.63,43.52c0,4.49-3.64,8.13-8.13,8.13Z" fill="#e1dce9" stroke="#726b7f" stroke-miterlimit="10" stroke-width="3.35"/>
    </clipPath>
    <clipPath id="clippath-6">
      <path d="M469.44,341.98h40.28v27.93h-41.98s1.7-28.24,1.7-27.93Z" fill="none"/>
    </clipPath>
    <clipPath id="clippath-7">
      <path d="M594.06,273.28h38.66v26.81h-40.29s1.63-27.11,1.63-26.81Z" fill="none"/>
    </clipPath>
  </defs>
  <g isolation="isolate">
    <g id="Layer_1" data-name="Layer 1">
      <g>
        <g>
          <path d="M463.81,433.36c-7.25,0-14.01-3.9-17.63-10.18l-91.14-157.87c-3.63-6.28-3.63-14.08,0-20.36l91.15-157.87c3.62-6.28,10.38-10.18,17.63-10.18h182.29c7.25,0,14.01,3.9,17.63,10.18l91.14,157.87c3.63,6.28,3.63,14.08,0,20.36l-91.14,157.87c-3.62,6.28-10.38,10.18-17.63,10.18h-182.29Z" fill="#fff"/>
          <path d="M646.1,79.34c6.38,0,12.33,3.43,15.53,8.96l91.15,157.87c3.19,5.53,3.19,12.4,0,17.93l-91.15,157.87c-3.19,5.53-9.14,8.96-15.53,8.96h-182.29c-6.39,0-12.34-3.43-15.53-8.96l-91.15-157.87c-3.19-5.53-3.19-12.4,0-17.93l91.15-157.87c3.19-5.53,9.14-8.96,15.53-8.96h182.29M646.1,74.48h-182.29c-8.12,0-15.68,4.37-19.74,11.39l-91.15,157.87c-4.06,7.03-4.06,15.76,0,22.79l91.15,157.87c4.06,7.03,11.62,11.39,19.74,11.39h182.29c8.11,0,15.68-4.37,19.74-11.39l91.15-157.87c4.06-7.03,4.06-15.76,0-22.79l-91.15-157.87c-4.06-7.03-11.62-11.39-19.74-11.39h0Z" fill="#ffab50"/>
        </g>
        <g>
          <path d="M463.81,443.1c-10.72,0-20.7-5.77-26.06-15.05l-91.14-157.87c-5.36-9.28-5.36-20.81,0-30.09l91.14-157.87c5.36-9.28,15.34-15.04,26.06-15.04h182.29c10.71,0,20.7,5.76,26.06,15.04l91.15,157.87c5.36,9.28,5.36,20.81,0,30.09l-91.15,157.87c-5.36,9.28-15.34,15.05-26.06,15.05h-182.29ZM463.81,76.9c-7.25,0-14.01,3.9-17.64,10.18l-91.15,157.87c-3.63,6.28-3.63,14.09,0,20.37l91.15,157.87c3.63,6.28,10.38,10.18,17.64,10.18h182.29c7.25,0,14.01-3.9,17.64-10.18l91.15-157.87c3.62-6.28,3.62-14.08,0-20.37l-91.14-157.87c-3.63-6.28-10.38-10.18-17.64-10.18h-182.29Z" fill="#ffab50"/>
          <path d="M646.1,69.61c9.85,0,19.03,5.3,23.96,13.83l91.15,157.87c4.93,8.53,4.93,19.13,0,27.66l-91.15,157.87c-4.93,8.53-14.11,13.83-23.96,13.83h-182.29c-9.85,0-19.03-5.3-23.96-13.83l-91.15-157.87c-4.93-8.53-4.93-19.13,0-27.66l91.15-157.87c4.92-8.53,14.1-13.83,23.96-13.83h182.29M463.81,435.8h182.29c8.14,0,15.67-4.34,19.74-11.4l91.15-157.87c4.07-7.05,4.07-15.74,0-22.8l-91.15-157.87c-4.07-7.05-11.6-11.4-19.74-11.4h-182.29c-8.14,0-15.67,4.34-19.74,11.4l-91.15,157.87c-4.07,7.05-4.07,15.74,0,22.8l91.15,157.87c4.07,7.05,11.6,11.4,19.74,11.4M646.1,64.75h-182.29c-11.58,0-22.38,6.23-28.16,16.26l-91.14,157.87c-5.79,10.03-5.79,22.49,0,32.52l91.15,157.87c5.79,10.03,16.58,16.26,28.16,16.26h182.29c11.58,0,22.37-6.23,28.16-16.26l91.15-157.87c5.79-10.03,5.79-22.49,0-32.52l-91.15-157.87c-5.79-10.03-16.58-16.26-28.16-16.26h0ZM463.81,430.94c-6.39,0-12.34-3.44-15.53-8.97l-91.15-157.87c-3.19-5.53-3.19-12.4,0-17.94l91.15-157.87c3.19-5.53,9.15-8.97,15.53-8.97h182.29c6.39,0,12.34,3.44,15.53,8.97l91.15,157.87c3.19,5.53,3.19,12.4,0,17.94l-91.15,157.87c-3.19,5.53-9.15,8.97-15.53,8.97h-182.29Z" fill="#ffab50"/>
        </g>
        <g>
          <path d="M463.81,438.23c-8.98,0-17.35-4.83-21.84-12.61l-91.15-157.87c-4.49-7.78-4.49-17.45,0-25.23l91.15-157.87c4.49-7.78,12.86-12.61,21.84-12.61h182.29c8.98,0,17.35,4.83,21.84,12.61l91.15,157.87c4.49,7.78,4.49,17.45,0,25.23l-91.15,157.87c-4.49,7.78-12.86,12.61-21.84,12.61h-182.29ZM463.81,81.77c-5.52,0-10.67,2.97-13.42,7.75l-91.15,157.87c-2.76,4.78-2.76,10.72,0,15.5l91.15,157.87c2.76,4.78,7.9,7.75,13.42,7.75h182.29c5.52,0,10.66-2.97,13.42-7.75l91.14-157.87c2.76-4.78,2.76-10.72,0-15.5l-91.14-157.87c-2.76-4.78-7.9-7.75-13.42-7.75h-182.29Z" fill="#ffab50"/>
          <path d="M646.1,74.47c8.14,0,15.67,4.34,19.74,11.4l91.15,157.87c4.07,7.05,4.07,15.74,0,22.8l-91.15,157.87c-4.07,7.05-11.6,11.4-19.74,11.4h-182.29c-8.14,0-15.67-4.34-19.74-11.4l-91.15-157.87c-4.07-7.05-4.07-15.74,0-22.8l91.15-157.87c4.07-7.05,11.6-11.4,19.74-11.4h182.29M463.81,430.93h182.29c6.38,0,12.33-3.43,15.53-8.96l91.15-157.87c3.19-5.53,3.19-12.4,0-17.93l-91.15-157.87c-3.19-5.53-9.14-8.96-15.53-8.96h-182.29c-6.39,0-12.34,3.43-15.53,8.96l-91.15,157.87c-3.19,5.53-3.19,12.4,0,17.93l91.15,157.87c3.19,5.53,9.14,8.96,15.53,8.96M646.1,69.61h-182.29c-9.85,0-19.03,5.3-23.95,13.83l-91.15,157.87c-4.92,8.53-4.92,19.13,0,27.65l91.15,157.87c4.92,8.53,14.1,13.83,23.95,13.83h182.29c9.85,0,19.03-5.3,23.95-13.83l91.15-157.87c4.92-8.53,4.92-19.13,0-27.65l-91.15-157.87c-4.92-8.53-14.1-13.83-23.95-13.83h0ZM463.81,426.07c-4.66,0-8.99-2.5-11.32-6.53l-91.15-157.87c-2.33-4.03-2.33-9.04,0-13.07l91.15-157.87c2.33-4.03,6.66-6.53,11.32-6.53h182.29c4.65,0,8.99,2.5,11.32,6.53l91.15,157.87c2.33,4.03,2.33,9.04,0,13.07l-91.14,157.87c-2.33,4.03-6.66,6.53-11.32,6.53h-182.29Z" fill="#ffab50"/>
        </g>
      </g>
      <g clip-path="url(#clippath-1)">
        <path d="M653.47,309.73l-40.97.16c25.29,81.52,38.95,124.78,40.97,129.77,4.54,11.22-5.06,28.32-9.17,37.5,13.37,5.97,11.94-16.15,28.81-8.31,15.39,7.15,27.1,20.11,44.89,9.15,2.19-1.35,4.58-6.42-1.21-10.38-14.42-9.87-35.21-27.16-38.02-32.84-3.83-7.76-12.27-49.44-25.31-125.04h0Z" fill="#b28b67"/>
        <path d="M454.2,309.73c-13.04,75.6-21.48,117.28-25.31,125.04-2.81,5.69-23.59,22.97-38.02,32.84-5.79,3.96-3.39,9.04-1.21,10.38,17.79,10.96,29.5-2,44.89-9.15,16.87-7.83,15.44,14.29,28.81,8.31-4.1-9.19-13.7-26.28-9.17-37.5,2.02-4.99,15.67-48.24,40.97-129.77l-40.97-.16h0Z" fill="#b28b67"/>
        <path d="M609.74,184.15c6.28-1.8,11.51-5.87,14.93-12.62,6.53-12.9,10.77-24.83-6.13-29.98-16.9-5.16-31.97,5.46-58.89,5.46-1.46,0-2.8.09-4.02.27l-13.55.77c-.03.11-.06.22-.09.32-22.63-1.55-36.52-9.89-51.88-5.2-16.9,5.16-15.47,18.51-7.46,29.98,4.33,6.2,8.65,10.82,14.93,12.62-49.57,68.17-72.84,151.11-69.82,248.84h32.17c6.39-11.12,6.8,19.09,13.79,2.81h118.05c.21-.53.4-1.1.6-1.64h28.67c6.99,16.28,19.97-13.93,26.37-2.81h32.17c3.03-97.73-20.24-180.67-69.82-248.84Z" fill="#ffab50"/>
      </g>
      <g id="Head">
        <path id="Path" d="M506.55,53.11c-12.42,19.51-14.94,71.14-1.1,75.82,5.52,1.86,17.77-.8,30.51-7.23l-6.37,26.51,12.16,1.59c2.89.38,5.81.34,8.69-.12l14.62-2.33-5.75-42.37c9.43-9.53,16.23-21.56,16.28-35.61.15-40.46-56.62-35.76-69.04-16.25Z" fill="#b28b67"/>
      </g>
      <path d="M596.42,73c-.16-.42-.42-.85-.55-1.27-.12-.38-.04-.38.2-.72.4-.55.76-1.14,1.06-1.76,1.89-3.79,2.25-8.36,1.21-12.44-.99-3.89-3.35-7.46-6.86-9.53-.9-.53-1.86-.96-2.86-1.27-.54-.17-1.09-.31-1.65-.42-.16-.03-.59-.02-.69-.13-.07-.08-.05-.62-.06-.76-.24-2.27-1.06-4.47-2.43-6.31-1.35-1.82-3.21-3.22-5.28-4.13-.41-.18-.56-.2-.77-.55-.16-.27-.22-.64-.34-.95-.24-.62-.5-1.23-.8-1.83-.61-1.24-1.36-2.42-2.23-3.5-1.7-2.11-3.8-4.19-6.34-5.24-1.35-.56-2.79-.74-4.23-.48-.27.05-3.17.93-3.11,1.11-.09-.3-.48-.57-.67-.82-.32-.42-.57-.9-.85-1.35-.64-1.04-1.48-1.85-2.46-2.59-2.03-1.54-4.42-2.73-6.91-3.32-2.41-.58-4.92-.55-7.31.13-.44.13-1.39.68-1.8.65-.42-.04-1.28-.78-1.66-.97-1.12-.58-2.31-1.05-3.56-1.29-.59-.12-1.17-.16-1.76-.16l.09-.16c-3.35-1.57-7.19-1.97-10.58-1.32-1.81.35-3.52,1.01-4.9,2.06-.41.31-.79.65-1.14,1.01-.11.12-.28.4-.43.46-.21.09-.24-.02-.5-.17-.71-.43-1.46-.78-2.25-1.02-3.23-1.01-6.54-.14-8.71,1.84-2.73,2.5-3.33,6.43-2.8,10.11.27,1.9.84,3.79,1.73,5.58-1.24,0-2.65-.08-3.74.42-1.04.47-1.76,1.34-2.17,2.34-.51,1.22-.75,2.77-.78,4.13-.03,1.31.25,2.65.76,3.94-1.03-.29-2.07-.2-2.91.27-.45.25-.76.58-1.1.94-.4.42-.9.76-1.3,1.19-.67.74-1.05,1.66-1.03,2.69.02,1.01.82,3.06,1.88,4.27,1.06,1.21,5.33,3.19,6.18,2.97.03,0,.06-.02.09-.03,2.23.96,4.56,1.81,6.55,3.23,1.83,1.31,2.93,3.25,3.56,5.37.63,2.13.86,4.35,1.3,6.52.58,2.82,1.48,5.6,2.67,8.22.54,1.2,1.19,2.4,2.14,3.33.55.54,1.8,1.65,2.64,1.12.38-.24.37-.73.5-1.12.22-.63,4.23-7.18,7.37-7.65,2.99-.45,10.38.1,12.75,1.62,5.08,3.28,5.27,9.63,3.28,14.77-.91,2.34-2.16,4.67-4.05,6.38-.81.73-1.88,1.53-2.97,1.78-1.11.25-2.55.46-3.69.19.05.65.19,1.26.08,1.9-.12.71-.27,1.41-.31,2.14-.09,1.39.13,2.74.55,4.06.21.68.62,1.38.64,2.06.02.54-.07,1.08-.04,1.63.07,1.04.28,2.07.69,3.03,1.7,3.91,7.6,5.47,10.71,2.22,1.78,4.27,5.17,7.67,9.59,9.19,3.55,1.22,8.64,1.7,11.36-1.45.91.95,1.94,1.77,3.07,2.46,4.3,2.62,10.03,3.21,14.5.66,2.3-1.31,4.16-3.42,5.11-5.89,1.04-2.68,1.05-5.64.86-8.46-.02-.33-.18-.91-.02-1.19.15-.26.5-.29.79-.4.56-.22,1.1-.49,1.6-.81,1.02-.67,1.89-1.55,2.53-2.59,1.49-2.43,1.79-5.36,1.55-8.14-.12-1.45-.39-2.89-.72-4.3-.16-.7-.35-1.39-.56-2.08-.21-.67-.57-1.35-.7-2.03-.1-.49-.06-.22.22-.52.11-.13.28-.22.41-.33.23-.19.45-.4.66-.61.4-.41.76-.86,1.08-1.34.62-.94,1.06-1.99,1.35-3.08.62-2.34.58-4.83.3-7.22-.17-1.46-.5-2.89-1.02-4.26Z" fill="#362b48"/>
      <path d="M506.5,137.2h9.18c2.72,0,4.93,2.21,4.93,4.93v59.59c0,5.09-4.13,9.22-9.22,9.22h-.83c-4.96,0-8.99-4.03-8.99-8.99v-59.83c0-2.72,2.21-4.93,4.93-4.93Z" fill="#726b7f" stroke="#726b7f" stroke-miterlimit="10" stroke-width="3.24"/>
      <path d="M584.02,137.2h9.18c2.72,0,4.93,2.21,4.93,4.93v59.59c0,5.09-4.13,9.22-9.22,9.22h-.83c-4.96,0-8.99-4.03-8.99-8.99v-59.83c0-2.72,2.21-4.93,4.93-4.93Z" fill="#726b7f" stroke="#726b7f" stroke-miterlimit="10" stroke-width="3.24"/>
      <path d="M625.95,426.44h-143.78c-18.89,0-34.2-15.31-34.2-34.2l19.85-165.3c2.91-19.19,15.31-34.2,34.2-34.2h99.15c18.89,0,31.71,15.85,34.2,34.2l24.78,165.3c0,18.89-15.31,34.2-34.2,34.2Z" fill="#f9f8fb" stroke="#726b7f" stroke-miterlimit="10" stroke-width="6.91"/>
      <g>
        <path d="M486.53,245.43h4.97l4.71,7.96,4.69-7.96h4.94l-7.48,12.42v7.74h-4.43v-7.85l-7.4-12.31Z" fill="#7b4dff"/>
        <path d="M504.07,255.13c.36-.95.87-1.76,1.52-2.43s1.45-1.19,2.37-1.55c.92-.37,1.96-.55,3.11-.55s2.19.18,3.12.55,1.73.88,2.39,1.55c.66.67,1.17,1.48,1.52,2.43s.54,2.01.54,3.18-.18,2.22-.54,3.16c-.36.94-.87,1.75-1.52,2.41-.66.67-1.45,1.18-2.39,1.54s-1.97.54-3.12.54-2.18-.18-3.11-.54c-.92-.36-1.71-.87-2.37-1.54s-1.17-1.47-1.52-2.41c-.36-.94-.54-1.99-.54-3.16s.18-2.23.54-3.18ZM507.71,260.01c.11.56.31,1.05.58,1.5.27.44.64.8,1.09,1.06.45.26,1.02.4,1.69.4s1.25-.13,1.71-.4c.46-.26.83-.62,1.1-1.06s.47-.94.58-1.5c.11-.56.17-1.13.17-1.71s-.06-1.16-.17-1.72c-.11-.57-.31-1.06-.58-1.5s-.64-.79-1.1-1.06c-.46-.27-1.03-.41-1.71-.41s-1.24.14-1.69.41c-.45.27-.81.63-1.09,1.06-.27.43-.47.93-.58,1.5-.11.56-.17,1.14-.17,1.72s.06,1.15.17,1.71Z" fill="#7b4dff"/>
        <path d="M531.11,265.59v-2.03h-.08c-.51.85-1.17,1.46-1.98,1.84-.81.38-1.64.56-2.48.56-1.07,0-1.95-.14-2.64-.42s-1.23-.68-1.62-1.2c-.4-.52-.67-1.15-.83-1.89-.16-.74-.24-1.57-.24-2.47v-8.98h4.01v8.24c0,1.2.19,2.1.57,2.7.38.59,1.04.89,2,.89,1.09,0,1.88-.32,2.37-.97.49-.65.73-1.72.73-3.2v-7.65h4.01v14.6h-3.81Z" fill="#7b4dff"/>
        <path d="M541.79,250.99v2.71h.06c.19-.45.44-.87.76-1.26s.69-.72,1.1-.99c.41-.27.86-.48,1.33-.64.47-.15.96-.23,1.47-.23.26,0,.55.05.87.14v3.73c-.19-.04-.41-.07-.68-.1-.26-.03-.52-.04-.76-.04-.73,0-1.36.12-1.86.37-.51.24-.92.58-1.23,1-.31.42-.53.92-.66,1.48-.13.57-.2,1.18-.2,1.84v6.58h-4.01v-14.6h3.81Z" fill="#7b4dff"/>
        <path d="M565.92,245.43c1.3,0,2.51.21,3.63.62,1.12.41,2.09,1.04,2.91,1.86.82.83,1.46,1.86,1.92,3.11s.69,2.7.69,4.38c0,1.47-.19,2.82-.56,4.07-.38,1.24-.95,2.31-1.71,3.22s-1.71,1.61-2.85,2.13-2.48.78-4.02.78h-8.7v-20.16h8.7ZM565.61,261.86c.64,0,1.26-.1,1.86-.31.6-.21,1.14-.55,1.61-1.03s.85-1.11,1.13-1.88c.28-.77.42-1.71.42-2.82,0-1.02-.1-1.93-.3-2.75s-.52-1.52-.97-2.1-1.05-1.03-1.79-1.34c-.74-.31-1.66-.47-2.75-.47h-3.16v12.71h3.95Z" fill="#7b4dff"/>
        <path d="M577.56,255.48c.06-.94.29-1.72.71-2.34.41-.62.94-1.12,1.58-1.5.64-.38,1.36-.64,2.16-.8s1.6-.24,2.41-.24c.73,0,1.48.05,2.23.15.75.1,1.44.31,2.06.61.62.3,1.13.72,1.52,1.26s.59,1.25.59,2.13v7.59c0,.66.04,1.29.11,1.89.07.6.21,1.05.39,1.36h-4.06c-.08-.23-.14-.46-.18-.69-.05-.24-.08-.48-.1-.72-.64.66-1.39,1.12-2.26,1.38-.87.26-1.75.4-2.65.4-.7,0-1.35-.08-1.95-.25-.6-.17-1.13-.43-1.58-.79s-.8-.81-1.06-1.36c-.25-.55-.38-1.2-.38-1.95,0-.83.15-1.51.44-2.05.29-.54.67-.96,1.13-1.29.46-.32.99-.56,1.58-.72.59-.16,1.19-.29,1.79-.38s1.2-.17,1.78-.23c.58-.06,1.1-.14,1.55-.25.45-.11.81-.28,1.07-.49.26-.22.38-.53.37-.95,0-.43-.07-.78-.21-1.03-.14-.25-.33-.45-.57-.59s-.51-.24-.82-.28c-.31-.05-.64-.07-1-.07-.79,0-1.41.17-1.86.51-.45.34-.72.9-.79,1.69h-4.01ZM586.82,258.44c-.17.15-.38.27-.64.35-.25.08-.53.15-.82.21-.29.06-.6.1-.92.14s-.64.08-.96.14c-.3.06-.6.13-.89.23s-.55.22-.76.38c-.22.16-.39.36-.52.61s-.2.55-.2.93.07.66.2.9c.13.24.31.44.54.58s.49.24.79.3c.3.06.61.08.93.08.79,0,1.4-.13,1.83-.39.43-.26.75-.58.96-.95.21-.37.33-.74.38-1.12s.07-.68.07-.9v-1.5Z" fill="#7b4dff"/>
        <path d="M601.95,250.99v2.68h-2.94v7.23c0,.68.11,1.13.34,1.36.22.23.68.34,1.35.34.23,0,.44,0,.65-.03.21-.02.4-.05.59-.08v3.11c-.34.06-.72.09-1.13.11-.41.02-.82.03-1.21.03-.62,0-1.21-.04-1.76-.13-.56-.08-1.04-.25-1.47-.49-.42-.24-.76-.59-1-1.04-.24-.45-.37-1.04-.37-1.78v-8.61h-2.43v-2.68h2.43v-4.38h4.01v4.38h2.94Z" fill="#7b4dff"/>
        <path d="M603.7,255.48c.06-.94.29-1.72.71-2.34.41-.62.94-1.12,1.58-1.5.64-.38,1.36-.64,2.16-.8s1.6-.24,2.41-.24c.73,0,1.48.05,2.23.15.75.1,1.44.31,2.06.61.62.3,1.13.72,1.52,1.26s.59,1.25.59,2.13v7.59c0,.66.04,1.29.11,1.89.07.6.21,1.05.39,1.36h-4.06c-.08-.23-.14-.46-.18-.69-.05-.24-.08-.48-.1-.72-.64.66-1.39,1.12-2.26,1.38-.87.26-1.75.4-2.65.4-.7,0-1.35-.08-1.95-.25-.6-.17-1.13-.43-1.58-.79s-.8-.81-1.06-1.36c-.25-.55-.38-1.2-.38-1.95,0-.83.15-1.51.44-2.05.29-.54.67-.96,1.13-1.29.46-.32.99-.56,1.58-.72.59-.16,1.19-.29,1.79-.38s1.2-.17,1.78-.23c.58-.06,1.1-.14,1.55-.25.45-.11.81-.28,1.07-.49.26-.22.38-.53.37-.95,0-.43-.07-.78-.21-1.03-.14-.25-.33-.45-.57-.59s-.51-.24-.82-.28c-.31-.05-.64-.07-1-.07-.79,0-1.41.17-1.86.51-.45.34-.72.9-.79,1.69h-4.01ZM612.96,258.44c-.17.15-.38.27-.64.35-.25.08-.53.15-.82.21-.29.06-.6.1-.92.14s-.64.08-.96.14c-.3.06-.6.13-.89.23s-.55.22-.76.38c-.22.16-.39.36-.52.61s-.2.55-.2.93.07.66.2.9c.13.24.31.44.54.58s.49.24.79.3c.3.06.61.08.93.08.79,0,1.4-.13,1.83-.39.43-.26.75-.58.96-.95.21-.37.33-.74.38-1.12s.07-.68.07-.9v-1.5Z" fill="#7b4dff"/>
      </g>
      <path d="M480.2,381.12c-.09.23-.19.45-.28.69-.07.18-.14.36-.21.55l14.33,5.87c.07-.18.15-.36.23-.53.36-.84.7-1.63.86-2.46.15-.82.13-1.65.01-2.47-1.93.89-4.02,1.36-6.11,1.36-3.12,0-6.23-1.01-8.82-3Z" fill="none"/>
      <path d="M475.4,386.68c-1.6,3.68-2.98,6.86-1.5,10.84,1.43,3.82,4.86,6.3,8.96,6.46,4.17.17,7.86-2.06,9.61-5.81l2.55-6.23-18.63-7.63c-.32.81-.67,1.6-1,2.37Z" fill="none"/>
      <path d="M484.45,373.68c0,1.01.36,1.93.95,2.67-1.19.33-2.26.95-3.17,1.77,3.35,2.67,7.88,3.09,11.61,1.26-.03-.04-.05-.1-.08-.14-.65-.9-1.47-1.59-2.39-2.13.85-.64,1.45-1.57,1.65-2.66,1.38.78,2.54,1.86,3.43,3.15.1-.09.22-.16.32-.26l14.48-14.48c2.07-2.07,3.21-4.82,3.21-7.74s-1.14-5.67-3.21-7.74l-14.48-14.48c-2.13-2.13-4.94-3.2-7.74-3.2s-5.61,1.07-7.74,3.2l-14.48,14.48c-4.27,4.27-4.27,11.22,0,15.49l13.11,13.11c1.34-1.28,2.92-2.12,4.57-2.57,0,.09-.03.17-.03.26Z" fill="none"/>
      <path d="M621.94,203.2h-144.54c-9.26,0-16.77-8.43-16.77-18.83h0c0-10.4,7.51-18.83,16.77-18.83,0,0,39.66,11.27,71.33,11.27s73.21-11.27,73.21-11.27c9.26,0,16.77,8.43,16.77,18.83h0c0,10.4-7.51,18.83-16.77,18.83Z" fill="#bda6ff" stroke="#726b7f" stroke-miterlimit="10" stroke-width="4.32"/>
      <path d="M545.83,169h9.18c2.72,0,4.93,2.21,4.93,4.93v59.59c0,5.09-4.13,9.22-9.22,9.22h-.83c-4.96,0-8.99-4.03-8.99-8.99v-59.83c0-2.72,2.21-4.93,4.93-4.93Z" fill="#d7caff" stroke="#726b7f" stroke-miterlimit="10" stroke-width="3.24"/>
      <g>
        <g id="Polygon">
          <path d="M537.67,181.73c-.9,0-1.74.49-2.19,1.27l-12.88,22.31c-.45.78-.45,1.75,0,2.53l12.88,22.31c.45.78,1.29,1.27,2.19,1.27h25.77c.9,0,1.74-.49,2.19-1.27l12.88-22.31c.45-.78.45-1.75,0-2.53l-12.88-22.31c-.45-.78-1.29-1.27-2.19-1.27h-25.77Z" fill="#fff" stroke="#726b7f" stroke-miterlimit="10" stroke-width="2.72"/>
        </g>
        <g>
          <path d="M535.94,226.68l-10.08-17.49c-.93-1.62-.93-3.62,0-5.24l10.08-17.48c.94-1.62,2.67-2.62,4.54-2.62h20.15c1.87,0,3.61,1,4.54,2.62l10.09,17.48c.93,1.62.93,3.62,0,5.24l-10.08,17.49c-.94,1.62-2.67,2.62-4.54,2.62h-20.15c-1.88,0-3.61-1.01-4.55-2.63Z" fill="#fff"/>
          <path d="M536.8,225.49l-9.48-16.45c-.88-1.53-.88-3.4,0-4.93l9.48-16.45c.89-1.53,2.51-2.47,4.27-2.47h18.97c1.76,0,3.39.94,4.27,2.47l9.49,16.44c.88,1.53.88,3.4,0,4.93l-9.49,16.46c-.89,1.53-2.51,2.47-4.27,2.47h-18.96c-1.77,0-3.4-.94-4.28-2.47Z" fill="#7c4dff"/>
          <path d="M541,203.41h19.52c.25,0,.44-.2.44-.44v-3.66c0-2.43-1.97-4.41-4.41-4.41h-11.72c-3.41,0-6.17,2.76-6.17,6.17,0,1.3,1.04,2.34,2.34,2.34ZM542.91,219.58h11.66c3.52,0,6.38-2.86,6.38-6.38,0-1.18-.95-2.13-2.13-2.13h-19.74c-.24,0-.42.19-.42.42v3.83c0,2.35,1.91,4.26,4.25,4.26Z" fill="#f7f7f7"/>
          <path d="M539.53,202.93l14.56,14.56c.96.96,2.52.96,3.49,0l2.52-2.52c.96-.96.96-2.52,0-3.49l-14.55-14.56c-.96-.96-2.52-.96-3.49,0l-2.52,2.52c-.97.96-.97,2.53,0,3.49h0Z" fill="#f7f7f7"/>
          <path d="M554.32,217.73l-8.55-6.66h1.89l6.66,6.66ZM545.3,196.67l6.74,6.74h2.29l-9.02-6.74Z" fill="#444" isolation="isolate" opacity=".3"/>
        </g>
      </g>
      <path d="M571.6,411.5h-36.36c-4.78,0-8.65-3.87-8.65-8.65l4.27-46.33c0-4.78,3.87-8.65,8.65-8.65h27.16c4.78,0,8.65,3.87,8.65,8.65l4.93,46.33c0,4.78-3.87,8.65-8.65,8.65Z" fill="#fff" stroke="#7b4dff" stroke-miterlimit="10" stroke-width="3.57"/>
      <g>
        <path d="M571.6,411.5h-36.36c-4.78,0-8.65-3.87-8.65-8.65l4.27-46.33c0-4.78,3.87-8.65,8.65-8.65h27.16c4.78,0,8.65,3.87,8.65,8.65l4.93,46.33c0,4.78-3.87,8.65-8.65,8.65Z" fill="#e1dce9"/>
        <g clip-path="url(#clippath-2)">
          <rect x="530.39" y="332.14" width="45.94" height="45.94" rx="12.73" ry="12.73" transform="translate(-89.03 495.3) rotate(-45)" fill="none" stroke="#726b7f" stroke-miterlimit="10" stroke-width="3.57"/>
        </g>
        <path d="M571.6,411.5h-36.36c-4.78,0-8.65-3.87-8.65-8.65l4.27-46.33c0-4.78,3.87-8.65,8.65-8.65h27.16c4.78,0,8.65,3.87,8.65,8.65l4.93,46.33c0,4.78-3.87,8.65-8.65,8.65Z" fill="none" stroke="#726b7f" stroke-miterlimit="10" stroke-width="3.57"/>
      </g>
      <path d="M544.55,381.12c-.09.23-.19.45-.28.69-.07.18-.14.36-.21.55l14.33,5.87c.07-.18.15-.36.23-.53.36-.84.7-1.63.86-2.46.15-.82.13-1.65.01-2.47-1.93.89-4.02,1.36-6.11,1.36-3.12,0-6.23-1.01-8.82-3Z" fill="none"/>
      <path d="M539.75,386.68c-1.6,3.68-2.98,6.86-1.5,10.84,1.43,3.82,4.86,6.3,8.96,6.46,4.17.17,7.86-2.06,9.61-5.81l2.55-6.23-18.63-7.63c-.32.81-.67,1.6-1,2.37Z" fill="none"/>
      <path d="M548.8,373.68c0,1.01.36,1.93.95,2.67-1.19.33-2.26.95-3.17,1.77,3.35,2.67,7.88,3.09,11.61,1.26-.03-.04-.05-.1-.08-.14-.65-.9-1.47-1.59-2.39-2.13.85-.64,1.45-1.57,1.65-2.66,1.38.78,2.54,1.86,3.43,3.15.1-.09.22-.16.32-.26l14.48-14.48c2.07-2.07,3.21-4.82,3.21-7.74s-1.14-5.67-3.21-7.74l-14.48-14.48c-2.13-2.13-4.94-3.2-7.74-3.2s-5.61,1.07-7.74,3.2l-14.48,14.48c-4.27,4.27-4.27,11.22,0,15.49l13.11,13.11c1.34-1.28,2.92-2.12,4.57-2.57,0,.09-.03.17-.03.26Z" fill="none"/>
      <path d="M635.34,411.5h-36.36c-4.78,0-8.65-3.87-8.65-8.65l4.27-46.33c0-4.78,3.87-8.65,8.65-8.65h27.16c4.78,0,8.65,3.87,8.65,8.65l4.93,46.33c0,4.78-3.87,8.65-8.65,8.65Z" fill="#fff" stroke="#7b4dff" stroke-miterlimit="10" stroke-width="3.57"/>
      <g>
        <path d="M635.34,411.5h-36.36c-4.78,0-8.65-3.87-8.65-8.65l4.27-46.33c0-4.78,3.87-8.65,8.65-8.65h27.16c4.78,0,8.65,3.87,8.65,8.65l4.93,46.33c0,4.78-3.87,8.65-8.65,8.65Z" fill="#e1dce9"/>
        <g clip-path="url(#clippath-3)">
          <g mix-blend-mode="multiply" opacity=".5">
            <g id="Oval-Copy-5">
              <circle cx="616.66" cy="375.07" r="20.09" fill="#d4cde0"/>
            </g>
          </g>
          <rect x="594.13" y="332.14" width="45.94" height="45.94" rx="12.73" ry="12.73" transform="translate(-70.36 540.36) rotate(-45)" fill="none" stroke="#726b7f" stroke-miterlimit="10" stroke-width="3.57"/>
        </g>
        <path d="M635.34,411.5h-36.36c-4.78,0-8.65-3.87-8.65-8.65l4.27-46.33c0-4.78,3.87-8.65,8.65-8.65h27.16c4.78,0,8.65,3.87,8.65,8.65l4.93,46.33c0,4.78-3.87,8.65-8.65,8.65Z" fill="none" stroke="#726b7f" stroke-miterlimit="10" stroke-width="3.57"/>
      </g>
      <path d="M608.28,381.12c-.09.23-.19.45-.28.69-.07.18-.14.36-.21.55l14.33,5.87c.07-.18.15-.36.23-.53.36-.84.7-1.63.86-2.46.15-.82.13-1.65.01-2.47-1.93.89-4.02,1.36-6.11,1.36-3.12,0-6.23-1.01-8.82-3Z" fill="none"/>
      <path d="M603.48,386.68c-1.6,3.68-2.98,6.86-1.5,10.84,1.43,3.82,4.86,6.3,8.96,6.46,4.17.17,7.86-2.06,9.61-5.81l2.55-6.23-18.63-7.63c-.32.81-.67,1.6-1,2.37Z" fill="none"/>
      <path d="M612.53,373.68c0,1.01.36,1.93.95,2.67-1.19.33-2.26.95-3.17,1.77,3.35,2.67,7.88,3.09,11.61,1.26-.03-.04-.05-.1-.08-.14-.65-.9-1.47-1.59-2.39-2.13.85-.64,1.45-1.57,1.65-2.66,1.38.78,2.54,1.86,3.43,3.15.1-.09.22-.16.32-.26l14.48-14.48c2.07-2.07,3.21-4.82,3.21-7.74s-1.14-5.67-3.21-7.74l-14.48-14.48c-2.13-2.13-4.94-3.2-7.74-3.2s-5.61,1.07-7.74,3.2l-14.48,14.48c-4.27,4.27-4.27,11.22,0,15.49l13.11,13.11c1.34-1.28,2.92-2.12,4.57-2.57,0,.09-.03.17-.03.26Z" fill="none"/>
      <path d="M510.04,338.83h-34.16c-4.49,0-8.13-3.64-8.13-8.13l4.01-43.52c0-4.49,3.64-8.13,8.13-8.13h25.52c4.49,0,8.13,3.64,8.13,8.13l4.63,43.52c0,4.49-3.64,8.13-8.13,8.13Z" fill="#fff" stroke="#7b4dff" stroke-miterlimit="10" stroke-width="3.35"/>
      <g>
        <path d="M510.04,338.83h-34.16c-4.49,0-8.13-3.64-8.13-8.13l4.01-43.52c0-4.49,3.64-8.13,8.13-8.13h25.52c4.49,0,8.13,3.64,8.13,8.13l4.63,43.52c0,4.49-3.64,8.13-8.13,8.13Z" fill="#e1dce9"/>
        <g clip-path="url(#clippath-4)">
          <rect x="471.33" y="264.29" width="43.15" height="43.15" rx="11.96" ry="11.96" transform="translate(-57.77 432.26) rotate(-45)" fill="none" stroke="#726b7f" stroke-miterlimit="10" stroke-width="3.35"/>
        </g>
        <path d="M510.04,338.83h-34.16c-4.49,0-8.13-3.64-8.13-8.13l4.01-43.52c0-4.49,3.64-8.13,8.13-8.13h25.52c4.49,0,8.13,3.64,8.13,8.13l4.63,43.52c0,4.49-3.64,8.13-8.13,8.13Z" fill="none" stroke="#726b7f" stroke-miterlimit="10" stroke-width="3.35"/>
      </g>
      <path d="M484.62,310.29c-.09.21-.18.42-.26.65-.07.17-.13.34-.2.51l13.46,5.52c.07-.17.14-.33.21-.5.34-.79.66-1.53.8-2.32.14-.77.12-1.55,0-2.32-1.82.84-3.77,1.28-5.74,1.28-2.93,0-5.85-.95-8.28-2.81Z" fill="none"/>
      <path d="M480.11,315.51c-1.5,3.46-2.8,6.45-1.41,10.18,1.34,3.59,4.56,5.92,8.42,6.07,3.92.16,7.38-1.93,9.03-5.46l2.4-5.86-17.5-7.17c-.3.76-.63,1.51-.94,2.23Z" fill="none"/>
      <path d="M488.61,303.3c0,.95.34,1.82.89,2.51-1.11.31-2.13.89-2.98,1.67,3.15,2.51,7.4,2.91,10.9,1.19-.03-.04-.05-.09-.08-.13-.61-.85-1.38-1.5-2.24-2,.8-.6,1.37-1.48,1.55-2.5,1.3.74,2.38,1.75,3.22,2.96.1-.09.2-.15.3-.24l13.6-13.6c1.94-1.94,3.01-4.53,3.01-7.27s-1.07-5.33-3.01-7.27l-13.6-13.6c-2-2-4.64-3.01-7.27-3.01s-5.27,1-7.27,3.01l-13.6,13.6c-4.01,4.01-4.01,10.54,0,14.55l12.31,12.32c1.26-1.2,2.74-1.99,4.29-2.41,0,.08-.02.16-.02.25Z" fill="none"/>
      <path d="M570.48,338.83h-34.16c-4.49,0-8.13-3.64-8.13-8.13l4.01-43.52c0-4.49,3.64-8.13,8.13-8.13h25.52c4.49,0,8.13,3.64,8.13,8.13l4.63,43.52c0,4.49-3.64,8.13-8.13,8.13Z" fill="#fff" stroke="#7b4dff" stroke-miterlimit="10" stroke-width="3.35"/>
      <g>
        <path d="M570.48,338.83h-34.16c-4.49,0-8.13-3.64-8.13-8.13l4.01-43.52c0-4.49,3.64-8.13,8.13-8.13h25.52c4.49,0,8.13,3.64,8.13,8.13l4.63,43.52c0,4.49-3.64,8.13-8.13,8.13Z" fill="#e1dce9"/>
        <g clip-path="url(#clippath-5)">
          <rect x="531.77" y="264.29" width="43.15" height="43.15" rx="11.96" ry="11.96" transform="translate(-40.06 475) rotate(-45)" fill="none" stroke="#726b7f" stroke-miterlimit="10" stroke-width="3.35"/>
        </g>
        <path d="M570.48,338.83h-34.16c-4.49,0-8.13-3.64-8.13-8.13l4.01-43.52c0-4.49,3.64-8.13,8.13-8.13h25.52c4.49,0,8.13,3.64,8.13,8.13l4.63,43.52c0,4.49-3.64,8.13-8.13,8.13Z" fill="none" stroke="#726b7f" stroke-miterlimit="10" stroke-width="3.35"/>
      </g>
      <path d="M545.07,310.29c-.09.21-.18.42-.26.65-.07.17-.13.34-.2.51l13.46,5.52c.07-.17.14-.33.21-.5.34-.79.66-1.53.8-2.32.14-.77.12-1.55,0-2.32-1.82.84-3.77,1.28-5.74,1.28-2.93,0-5.85-.95-8.28-2.81Z" fill="none"/>
      <path d="M540.56,315.51c-1.5,3.46-2.8,6.45-1.41,10.18,1.34,3.59,4.56,5.92,8.42,6.07,3.92.16,7.38-1.93,9.03-5.46l2.4-5.86-17.5-7.17c-.3.76-.63,1.51-.94,2.23Z" fill="none"/>
      <path d="M549.06,303.3c0,.95.34,1.82.89,2.51-1.11.31-2.13.89-2.98,1.67,3.15,2.51,7.4,2.91,10.9,1.19-.03-.04-.05-.09-.08-.13-.61-.85-1.38-1.5-2.24-2,.8-.6,1.37-1.48,1.55-2.5,1.3.74,2.38,1.75,3.22,2.96.1-.09.2-.15.3-.24l13.6-13.6c1.94-1.94,3.01-4.53,3.01-7.27s-1.07-5.33-3.01-7.27l-13.6-13.6c-2-2-4.64-3.01-7.27-3.01s-5.27,1-7.27,3.01l-13.6,13.6c-4.01,4.01-4.01,10.54,0,14.55l12.31,12.32c1.26-1.2,2.74-1.99,4.29-2.41,0,.08-.02.16-.02.25Z" fill="none"/>
      <path d="M510.91,357.49c.38-3.07-.6-6.27-2.95-8.62l-11.81-11.81c-4.06-4.06-10.63-4.06-14.69,0l-11.81,11.81c-1.15,1.15-1.96,2.51-2.46,3.95-.54,1.12-.84,2.38-.84,3.71l-4.27,46.33c0,4.78,3.87,8.65,8.65,8.65h36.36c4.78,0,8.65-3.87,8.65-8.65l-4.83-45.36Z" fill="#d4cde0" stroke="#726b7f" stroke-miterlimit="10" stroke-width="2.91"/>
      <g>
        <polygon points="479.46 392.62 498.07 384.93 502.34 392.28 501.72 399.95 495.99 404.84 489.29 406.58 482.42 403.99 479.11 397.88 479.32 393.35 479.46 392.62" fill="#fff"/>
        <g>
          <path d="M494.21,384.03l-14.17,5.86M494.35,383.98l-.14.06M497.29,382.76c-.81-2.03-1.83-4.09-3.8-5.71-.45-.37-.93-.69-1.41-.98-1.11-.67-2.28-1.11-3.49-1.34-1.54-.29-3.12-.24-4.65.17-1.3.35-2.57.93-3.75,1.8-1.19.88-2.25,2.08-3.06,3.47.06.07.1.14.17.21.71.72,1.62,1.12,2.55,1.23.33-.58.73-1.13,1.21-1.62,1.01-1.03,2.25-1.69,3.57-2.03,1.02-.26,2.1-.35,3.19-.17.05,0,.1.03.16.04,1.21.23,2.33.76,3.29,1.49.66.5,1.26,1.07,1.73,1.76.48.7.79,1.5,1.13,2.35.07.18.14.36.21.54M477.12,391.1l-.88.36c-.3.12-.52.4-.65.79-.06.17-.22.75.02,1.14.52,1.13.98,2.32,1.42,3.46,1.41,3.65,2.86,7.42,6.64,9.83,3.68,2.35,8.11,2.75,12.13,1.08,4.03-1.66,6.88-5.07,7.83-9.33.97-4.37-.65-8.06-2.22-11.62-.48-1.1-.99-2.23-1.41-3.38-.11-.42-.49-.71-.72-.85-.41-.24-.77-.3-1.08-.17l-.9.37M500.25,392.14c1.39,3.9.34,8.08-2.74,10.89-3.03,2.77-7.21,3.42-10.91,1.71-3.85-1.78-5.11-5.01-6.57-8.75-.3-.78-.62-1.58-.96-2.39l18.6-7.69,2.57,6.23Z" fill="#7b4dff"/>
          <g>
            <path d="M491.35,396.44c.49-.28.6-.68.61-.98,0-.5-.28-1.02-.69-1.27-.37-.22-.79-.2-1.24.06-.83.47-.66,1.3-.43,1.71.1.19.68,1.08,1.76.47Z" fill="none"/>
            <path d="M480.03,395.99c1.46,3.74,2.71,6.97,6.57,8.75,3.7,1.71,7.88,1.06,10.91-1.71,3.08-2.82,4.13-6.99,2.74-10.89l-2.57-6.23-18.6,7.69c.34.81.66,1.61.96,2.39ZM486.42,394.26c.32-1.33,1.25-2.4,2.54-2.95,0,0,.02,0,.03-.01,1.29-.53,2.71-.44,3.88.25,1.29.77,2.11,2.11,2.17,3.6.06,1.28-.45,2.51-1.37,3.37.1.24.21.49.33.75.21.47.44.95.59,1.45.25.79.06,1.49-.51,1.88-.12.08-.24.15-.36.2-.38.16-.71.14-.94.08-.44-.11-.83-.43-1.08-.91-.25-.47-.44-.98-.62-1.48-.1-.27-.2-.53-.3-.78-1.26.04-2.48-.47-3.34-1.4-1-1.08-1.38-2.6-1.03-4.06Z" fill="none"/>
            <path d="M491.09,400.5c.18.5.37,1.01.62,1.48.25.47.63.8,1.08.91.23.06.56.08.94-.08.12-.05.24-.11.36-.2.56-.39.76-1.09.51-1.88-.16-.49-.38-.98-.59-1.45-.12-.26-.23-.51-.33-.75.92-.87,1.43-2.09,1.37-3.37-.06-1.49-.88-2.84-2.17-3.6-1.18-.7-2.59-.79-3.88-.25,0,0-.02,0-.03.01-1.29.54-2.22,1.62-2.54,2.95-.35,1.46.03,2.97,1.03,4.06.86.93,2.08,1.44,3.34,1.4.1.25.2.51.3.78ZM489.59,395.97c-.23-.42-.4-1.24.43-1.71.45-.25.87-.27,1.24-.06.41.25.7.77.69,1.27,0,.29-.11.7-.61.98-1.08.61-1.65-.29-1.76-.47Z" fill="#7b4dff"/>
          </g>
        </g>
      </g>
      <g clip-path="url(#clippath-6)">
        <g>
          <g id="Oval-Copy-5-2" data-name="Oval-Copy-5">
            <circle cx="488.79" cy="362.78" r="20.09" fill="#ff527f"/>
          </g>
          <path id="m" d="M480.62,372.2c2.09,0,3.8-1.32,4.03-3.02.03-.11.04-.24.04-.37,0,0,0,0,0-.01v-7.47l11.54-3.64v5.47c-.6-.29-1.29-.47-2.04-.47-2.25,0-4.07,1.52-4.07,3.39s1.82,3.39,4.07,3.39c2.09,0,3.8-1.32,4.03-3.02.03-.11.04-.23.04-.35v-.03h0s0,0,0,0v-14.25c0-.78-.63-1.36-1.35-1.36-.13,0-.27.02-.41.06l-12.9,4.07c-.56.18-.95.7-.95,1.29v9.98c-.6-.29-1.29-.47-2.04-.47-2.25,0-4.07,1.52-4.07,3.39s1.82,3.39,4.07,3.39ZM484.69,359.2v-2.8l11.54-3.64v2.8l-11.54,3.64ZM494.2,367.45c-1.2,0-2.04-.72-2.04-1.36s.84-1.36,2.04-1.36,2.04.71,2.04,1.36h0c0,.64-.84,1.36-2.04,1.36ZM480.62,370.17c-1.2,0-2.04-.72-2.04-1.36s.84-1.36,2.04-1.36,2.04.72,2.04,1.36-.84,1.36-2.04,1.36Z" fill="#fff"/>
        </g>
      </g>
      <line x1="510.97" y1="370.51" x2="465.48" y2="370.51" fill="none" stroke="#726b7f" stroke-miterlimit="10" stroke-width="3.57"/>
      <g>
        <path d="M604.39,310.85c-.09.22-.18.43-.27.66-.07.17-.14.35-.21.52l13.75,5.64c.07-.17.14-.34.22-.51.35-.81.67-1.57.82-2.37.15-.78.12-1.58,0-2.37-1.86.86-3.86,1.3-5.86,1.3-2.99,0-5.98-.97-8.46-2.88Z" fill="none"/>
        <path d="M599.78,316.18c-1.54,3.53-2.86,6.59-1.44,10.41,1.37,3.67,4.66,6.04,8.6,6.2,4,.16,7.54-1.98,9.23-5.58l2.45-5.98-17.88-7.33c-.31.78-.64,1.54-.96,2.28Z" fill="none"/>
        <path d="M608.47,303.7c0,.97.35,1.86.91,2.57-1.14.32-2.17.91-3.04,1.7,3.22,2.56,7.56,2.97,11.14,1.21-.03-.04-.05-.09-.08-.13-.62-.86-1.41-1.53-2.29-2.04.81-.61,1.4-1.51,1.59-2.55,1.33.75,2.44,1.78,3.29,3.02.1-.09.21-.15.3-.25l13.89-13.9c1.99-1.99,3.08-4.63,3.08-7.43s-1.09-5.45-3.08-7.43l-13.89-13.9c-2.05-2.05-4.74-3.07-7.43-3.07s-5.38,1.03-7.43,3.07l-13.89,13.9c-4.1,4.1-4.1,10.77,0,14.86l12.58,12.58c1.28-1.22,2.8-2.04,4.38-2.47,0,.09-.03.17-.03.25Z" fill="none"/>
        <path d="M633.87,288.16c.36-2.94-.58-6.02-2.84-8.28l-11.34-11.33c-3.89-3.89-10.21-3.89-14.1,0l-11.33,11.33c-1.1,1.11-1.89,2.41-2.36,3.79-.51,1.08-.81,2.28-.81,3.56l-4.1,44.47c0,4.59,3.72,8.3,8.3,8.3h34.9c4.59,0,8.3-3.72,8.3-8.3l-4.63-43.54Z" fill="#d4cde0" stroke="#726b7f" stroke-miterlimit="10" stroke-width="2.79"/>
        <g>
          <polygon points="603.68 321.88 621.54 314.5 625.64 321.55 625.04 328.91 619.55 333.61 613.12 335.28 606.52 332.79 603.34 326.93 603.55 322.59 603.68 321.88" fill="#fff"/>
          <g>
            <path d="M617.84,313.64l-13.6,5.62M617.97,313.58l-.14.06M620.79,312.42c-.77-1.95-1.75-3.93-3.64-5.48-.43-.36-.89-.66-1.35-.94-1.06-.64-2.19-1.07-3.35-1.29-1.48-.28-2.99-.23-4.46.17-1.25.34-2.47.9-3.6,1.73-1.15.85-2.16,1.99-2.93,3.33.06.06.1.14.16.2.69.69,1.56,1.07,2.45,1.18.32-.56.7-1.09,1.16-1.56.97-.99,2.16-1.62,3.43-1.95.98-.25,2.01-.34,3.06-.16.05,0,.1.03.15.04,1.16.22,2.23.73,3.16,1.43.63.48,1.21,1.03,1.66,1.69.46.67.76,1.44,1.08,2.26.07.17.14.35.21.52M601.44,320.42l-.84.35c-.28.12-.5.38-.63.76-.05.16-.21.72.02,1.09.5,1.09.94,2.22,1.36,3.32,1.35,3.5,2.74,7.12,6.37,9.43,3.54,2.26,7.78,2.64,11.65,1.04,3.86-1.6,6.6-4.86,7.51-8.96.93-4.2-.63-7.74-2.13-11.16-.47-1.05-.95-2.14-1.35-3.25-.1-.4-.47-.68-.69-.82-.39-.23-.74-.29-1.04-.17l-.87.36M623.63,321.42c1.34,3.75.33,7.75-2.63,10.46-2.91,2.66-6.92,3.29-10.48,1.65-3.7-1.71-4.91-4.81-6.3-8.4-.29-.75-.59-1.52-.92-2.29l17.86-7.38,2.47,5.98Z" fill="#7b4dff"/>
            <g>
              <path d="M615.09,325.55c.48-.27.58-.66.58-.94,0-.48-.27-.98-.67-1.22-.36-.21-.76-.19-1.19.05-.8.45-.63,1.24-.41,1.64.1.18.65,1.04,1.69.46Z" fill="none"/>
              <path d="M604.22,325.12c1.4,3.59,2.6,6.69,6.3,8.4,3.55,1.64,7.57,1.01,10.48-1.65,2.96-2.7,3.97-6.71,2.63-10.46l-2.47-5.98-17.86,7.38c.33.77.63,1.54.92,2.29ZM610.36,323.46c.31-1.27,1.2-2.31,2.44-2.83,0,0,.02,0,.03-.01,1.24-.51,2.6-.43,3.73.24,1.24.74,2.02,2.03,2.08,3.46.05,1.23-.43,2.41-1.32,3.24.1.23.21.47.32.72.2.45.42.92.57,1.39.24.75.06,1.43-.49,1.8-.12.08-.23.14-.34.19-.36.15-.68.13-.91.08-.43-.11-.79-.41-1.03-.87-.24-.45-.42-.94-.6-1.42-.1-.26-.19-.51-.29-.75-1.21.03-2.38-.45-3.21-1.34-.96-1.04-1.33-2.49-.99-3.89Z" fill="none"/>
              <path d="M614.85,329.44c.18.48.36.97.6,1.42.24.45.61.76,1.03.87.22.05.54.07.91-.08.11-.05.23-.11.34-.19.54-.37.72-1.05.49-1.8-.15-.48-.36-.94-.57-1.39-.11-.25-.22-.49-.32-.72.89-.83,1.37-2.01,1.32-3.24-.06-1.43-.84-2.72-2.08-3.46-1.13-.67-2.49-.76-3.73-.24,0,0-.02,0-.03.01-1.24.52-2.13,1.55-2.44,2.83-.34,1.4.03,2.86.99,3.89.83.9,1.99,1.38,3.21,1.34.1.24.19.49.29.75ZM613.4,325.09c-.22-.4-.39-1.19.41-1.64.44-.24.84-.26,1.19-.05.4.24.67.74.67,1.22,0,.28-.11.67-.58.94-1.04.58-1.59-.28-1.69-.46Z" fill="#7b4dff"/>
            </g>
          </g>
        </g>
        <g clip-path="url(#clippath-7)">
          <g>
            <g id="Oval-Copy-5-3" data-name="Oval-Copy-5">
              <circle cx="612.64" cy="293.47" r="19.28" fill="#362b48"/>
            </g>
            <path id="i" d="M623.69,300.05c1.27,0,2.3-1.03,2.3-2.3v-12.25c0-1.27-1.03-2.3-2.3-2.3h-18.38c-1.27,0-2.3,1.03-2.3,2.3v12.25c0,1.27,1.03,2.3,2.3,2.3h18.38ZM623.41,297.75h-17.81c-.16,0-.29-.13-.29-.29v-11.68c0-.16.13-.29.29-.29h17.81c.16,0,.29.13.29.29v11.68c0,.16-.13.29-.29.29ZM609.14,290.47c1.06,0,1.91-.86,1.91-1.91s-.86-1.91-1.91-1.91-1.91.86-1.91,1.91.86,1.91,1.91,1.91ZM619.1,304.64c1.27,0,2.3-1.03,2.3-2.3v-.77h-2.3v.48c0,.16-.13.29-.29.29h-17.81c-.16,0-.29-.13-.29-.29v-11.68c0-.16.13-.29.29-.29h.48v-2.3h-.77c-1.27,0-2.3,1.03-2.3,2.3v12.25c0,1.27,1.03,2.3,2.3,2.3h18.38ZM621.4,295.45v-3.83l-3.42-3.42c-.22-.22-.59-.22-.81,0l-4.95,4.95-1.89-1.89c-.22-.22-.59-.22-.81,0l-1.89,1.89v2.3h13.79Z" fill="#fff"/>
          </g>
        </g>
        <line x1="633.93" y1="300.66" x2="590.26" y2="300.66" fill="none" stroke="#726b7f" stroke-miterlimit="10" stroke-width="3.42"/>
      </g>
      <g mix-blend-mode="multiply" opacity=".5">
        <g id="Oval-Copy-5-4" data-name="Oval-Copy-5">
          <path d="M492.7,328.91c-11.33,0-20.54-9.21-20.54-20.54s9.21-20.54,20.54-20.54,20.54,9.21,20.54,20.54-9.21,20.54-20.54,20.54Z" fill="#d4cde0" fill-rule="evenodd"/>
          <path d="M492.7,288.28c11.09,0,20.09,8.99,20.09,20.09s-8.99,20.09-20.09,20.09-20.09-8.99-20.09-20.09,8.99-20.09,20.09-20.09M492.7,287.37c-11.58,0-20.99,9.42-20.99,20.99s9.42,20.99,20.99,20.99,20.99-9.42,20.99-20.99-9.42-20.99-20.99-20.99h0Z" fill="#d4cde0"/>
        </g>
      </g>
      <g mix-blend-mode="multiply" opacity=".5">
        <g id="Oval-Copy-5-5" data-name="Oval-Copy-5">
          <circle cx="553.2" cy="308.37" r="20.09" fill="#d4cde0"/>
        </g>
      </g>
      <g mix-blend-mode="multiply" opacity=".5">
        <g id="Oval-Copy-5-6" data-name="Oval-Copy-5">
          <circle cx="553.14" cy="375.73" r="20.09" fill="#d4cde0"/>
        </g>
      </g>
      <g>
        <circle cx="492.69" cy="303.3" r="4.06" fill="#362b48"/>
        <polygon points="481.97 312.89 499.46 320.06 497.46 327.79 491.97 332.49 484.91 331.97 479.3 328.7 476.42 322.43 478.25 316.16 481.39 313.29 481.97 312.89" fill="#fff"/>
        <path d="M501.83,319.28c-.11-.43-.31-.71-.61-.83l-.85-.35c.81-1.89,1.49-3.94,1.24-6.32-.06-.55-.16-1.07-.29-1.58-.3-1.18-.79-2.25-1.44-3.2-.83-1.21-1.92-2.22-3.22-2.96-1.1-.63-2.33-1.08-3.69-1.28-1.38-.2-2.88-.1-4.33.29,0,.08-.02.16-.02.25,0,.95.34,1.82.89,2.51.61-.17,1.23-.27,1.88-.28,1.35-.02,2.62.36,3.73,1.01.86.5,1.64,1.15,2.24,2,.03.04.05.09.08.13.66.96,1.05,2.04,1.21,3.17.11.77.13,1.55,0,2.32-.14.78-.47,1.53-.8,2.32-.07.17-.14.33-.21.5l-13.46-5.52c.07-.17.13-.34.2-.51.09-.22.18-.43.26-.65-.47-.36-.93-.74-1.36-1.17l-.92-.92c-.13.26-.27.51-.38.79l-.55,1.34-.83-.34c-.28-.11-.61-.08-.96.09-.15.08-.64.36-.74.77-.4,1.1-.88,2.19-1.34,3.25-1.47,3.36-2.99,6.84-2.07,10.95.9,4,3.59,7.19,7.38,8.74,3.79,1.55,7.94,1.17,11.39-1.05,3.54-2.28,4.89-5.81,6.2-9.23.4-1.05.82-2.14,1.3-3.19.21-.35.14-.8.08-1.05ZM496.15,326.31c-1.65,3.53-5.11,5.62-9.03,5.46-3.85-.16-7.08-2.48-8.42-6.07-1.39-3.74-.1-6.72,1.41-10.18.31-.72.64-1.46.94-2.23l17.5,7.17-2.4,5.86Z" fill="#7b4dff"/>
        <g>
          <path d="M489.5,305.81c-1.65.46-3.12,1.47-4.1,2.92-.44.65-.74,1.41-1.05,2.21-.07.17-.13.34-.2.51l13.46,5.52c.07-.17.14-.33.21-.5.34-.79.66-1.53.8-2.32.36-1.94-.11-3.99-1.28-5.62-.61-.85-1.38-1.5-2.24-2-.68.51-1.52.83-2.44.83-1.29,0-2.43-.61-3.17-1.55Z" fill="none"/>
          <path d="M487.37,323.3c.51.14.85-.06,1.05-.25.33-.33.49-.86.37-1.3-.1-.39-.4-.66-.87-.79-.87-.24-1.3.43-1.42.86-.05.19-.26,1.17.86,1.48Z" fill="none"/>
          <path d="M480.11,315.51c-1.5,3.46-2.8,6.45-1.41,10.18,1.34,3.59,4.56,5.92,8.42,6.07,3.92.16,7.38-1.93,9.03-5.46l2.4-5.86-17.5-7.17c-.3.76-.63,1.51-.94,2.23ZM485.52,318.59c1.09-.67,2.42-.78,3.65-.28,0,0,.02,0,.03.01,1.22.5,2.1,1.49,2.42,2.74.36,1.37,0,2.8-.93,3.84-.81.89-1.96,1.37-3.15,1.34-.09.23-.18.47-.28.72-.17.45-.34.92-.56,1.36-.35.69-.94,1.03-1.58.92-.14-.02-.26-.06-.37-.11-.36-.15-.57-.38-.68-.57-.22-.37-.27-.84-.12-1.32.15-.48.36-.95.56-1.4.11-.25.22-.48.31-.72-.87-.81-1.35-1.95-1.3-3.14.05-1.38.79-2.65,2-3.39Z" fill="none"/>
          <path d="M484.52,325.84c-.2.45-.42.92-.56,1.4-.15.48-.1.95.12,1.32.12.19.32.42.68.57.11.04.23.08.37.11.63.11,1.22-.23,1.58-.92.22-.43.4-.9.56-1.36.09-.25.18-.49.28-.72,1.19.03,2.34-.45,3.15-1.34.94-1.04,1.29-2.47.93-3.84-.32-1.24-1.21-2.24-2.42-2.74,0,0-.02,0-.03-.01-1.22-.49-2.55-.39-3.65.28-1.2.74-1.95,2-2,3.39-.04,1.19.44,2.33,1.3,3.14-.09.23-.2.47-.31.72ZM486.51,321.82c.12-.43.55-1.1,1.42-.86.47.13.76.39.87.79.11.44-.04.97-.37,1.3-.2.19-.54.39-1.05.25-1.12-.31-.91-1.29-.86-1.48Z" fill="#7b4dff"/>
          <path d="M489.5,305.81c.74.94,1.88,1.55,3.17,1.55.92,0,1.76-.32,2.44-.83-1.11-.65-2.37-1.02-3.73-1.01-.64,0-1.27.11-1.88.28Z" fill="#362b48"/>
        </g>
      </g>
      <g>
        <circle cx="553.14" cy="303.3" r="4.06" fill="#362b48"/>
        <polygon points="542.41 312.89 559.91 320.06 557.9 327.79 552.42 332.49 545.36 331.97 539.74 328.7 536.87 322.43 538.7 316.16 541.83 313.29 542.41 312.89" fill="#fff"/>
        <path d="M562.28,319.28c-.11-.43-.31-.71-.61-.83l-.85-.35c.81-1.89,1.49-3.94,1.24-6.32-.06-.55-.16-1.07-.29-1.58-.3-1.18-.79-2.25-1.44-3.2-.83-1.21-1.92-2.22-3.22-2.96-1.1-.63-2.33-1.08-3.69-1.28-1.38-.2-2.88-.1-4.33.29,0,.08-.02.16-.02.25,0,.95.34,1.82.89,2.51.61-.17,1.23-.27,1.88-.28,1.35-.02,2.62.36,3.73,1.01.86.5,1.64,1.15,2.24,2,.03.04.05.09.08.13.66.96,1.05,2.04,1.21,3.17.11.77.13,1.55,0,2.32-.14.78-.47,1.53-.8,2.32-.07.17-.14.33-.21.5l-13.46-5.52c.07-.17.13-.34.2-.51.09-.22.18-.43.26-.65-.47-.36-.93-.74-1.36-1.17l-.92-.92c-.13.26-.27.51-.38.79l-.55,1.34-.83-.34c-.28-.11-.61-.08-.96.09-.15.08-.64.36-.74.77-.4,1.1-.88,2.19-1.34,3.25-1.47,3.36-2.99,6.84-2.07,10.95.9,4,3.59,7.19,7.38,8.74,3.79,1.55,7.94,1.17,11.39-1.05,3.54-2.28,4.89-5.81,6.2-9.23.4-1.05.82-2.14,1.3-3.19.21-.35.14-.8.08-1.05ZM556.6,326.31c-1.65,3.53-5.11,5.62-9.03,5.46-3.85-.16-7.08-2.48-8.42-6.07-1.39-3.74-.1-6.72,1.41-10.18.31-.72.64-1.46.94-2.23l17.5,7.17-2.4,5.86Z" fill="#7b4dff"/>
        <g>
          <path d="M549.95,305.81c-1.65.46-3.12,1.47-4.1,2.92-.44.65-.74,1.41-1.05,2.21-.07.17-.13.34-.2.51l13.46,5.52c.07-.17.14-.33.21-.5.34-.79.66-1.53.8-2.32.36-1.94-.11-3.99-1.28-5.62-.61-.85-1.38-1.5-2.24-2-.68.51-1.52.83-2.44.83-1.29,0-2.43-.61-3.17-1.55Z" fill="none"/>
          <path d="M547.81,323.3c.51.14.85-.06,1.05-.25.33-.33.49-.86.37-1.3-.1-.39-.4-.66-.87-.79-.87-.24-1.3.43-1.42.86-.05.19-.26,1.17.86,1.48Z" fill="none"/>
          <path d="M540.56,315.51c-1.5,3.46-2.8,6.45-1.41,10.18,1.34,3.59,4.56,5.92,8.42,6.07,3.92.16,7.38-1.93,9.03-5.46l2.4-5.86-17.5-7.17c-.3.76-.63,1.51-.94,2.23ZM545.97,318.59c1.09-.67,2.42-.78,3.65-.28,0,0,.02,0,.03.01,1.22.5,2.1,1.49,2.42,2.74.36,1.37,0,2.8-.93,3.84-.81.89-1.96,1.37-3.15,1.34-.09.23-.18.47-.28.72-.17.45-.34.92-.56,1.36-.35.69-.94,1.03-1.58.92-.14-.02-.26-.06-.37-.11-.36-.15-.57-.38-.68-.57-.22-.37-.27-.84-.12-1.32.15-.48.36-.95.56-1.4.11-.25.22-.48.31-.72-.87-.81-1.35-1.95-1.3-3.14.05-1.38.79-2.65,2-3.39Z" fill="none"/>
          <path d="M544.96,325.84c-.2.45-.42.92-.56,1.4-.15.48-.1.95.12,1.32.12.19.32.42.68.57.11.04.23.08.37.11.63.11,1.22-.23,1.58-.92.22-.43.4-.9.56-1.36.09-.25.18-.49.28-.72,1.19.03,2.34-.45,3.15-1.34.94-1.04,1.29-2.47.93-3.84-.32-1.24-1.21-2.24-2.42-2.74,0,0-.02,0-.03-.01-1.22-.49-2.55-.39-3.65.28-1.2.74-1.95,2-2,3.39-.04,1.19.44,2.33,1.3,3.14-.09.23-.2.47-.31.72ZM546.95,321.82c.12-.43.55-1.1,1.42-.86.47.13.76.39.87.79.11.44-.04.97-.37,1.3-.2.19-.54.39-1.05.25-1.12-.31-.91-1.29-.86-1.48Z" fill="#7b4dff"/>
          <path d="M549.95,305.81c.74.94,1.88,1.55,3.17,1.55.92,0,1.76-.32,2.44-.83-1.11-.65-2.37-1.02-3.73-1.01-.64,0-1.27.11-1.88.28Z" fill="#362b48"/>
        </g>
      </g>
      <g>
        <circle cx="616.87" cy="373.68" r="4.32" fill="#362b48"/>
        <polygon points="605.45 383.89 624.08 391.52 621.94 399.75 616.1 404.76 608.59 404.2 602.61 400.72 599.55 394.05 601.5 387.37 604.84 384.31 605.45 383.89" fill="#fff"/>
        <path d="M626.6,390.69c-.12-.46-.33-.76-.65-.89l-.9-.37c.86-2.01,1.58-4.19,1.32-6.73-.06-.58-.17-1.14-.31-1.68-.32-1.25-.84-2.4-1.53-3.41-.89-1.29-2.04-2.36-3.43-3.15-1.17-.67-2.48-1.15-3.93-1.36-1.47-.21-3.06-.11-4.61.31,0,.09-.03.17-.03.26,0,1.01.36,1.93.95,2.67.65-.18,1.31-.29,2-.3,1.44-.02,2.79.38,3.97,1.07.91.53,1.74,1.23,2.39,2.13.03.04.05.1.08.14.7,1.02,1.12,2.18,1.29,3.37.12.82.14,1.65-.01,2.47-.15.83-.5,1.63-.86,2.46-.08.18-.15.36-.23.53l-14.33-5.87c.07-.18.14-.36.21-.55.09-.24.19-.46.28-.69-.5-.38-.99-.79-1.45-1.25l-.98-.98c-.14.27-.28.54-.4.84l-.58,1.43-.88-.36c-.3-.12-.65-.09-1.02.1-.16.08-.69.38-.79.82-.43,1.17-.93,2.33-1.43,3.46-1.57,3.58-3.19,7.28-2.2,11.66.96,4.26,3.83,7.66,7.86,9.31,4.03,1.65,8.45,1.24,12.13-1.12,3.77-2.42,5.21-6.18,6.6-9.82.43-1.12.87-2.28,1.38-3.4.22-.37.15-.85.09-1.11ZM620.55,398.17c-1.76,3.75-5.44,5.98-9.61,5.81-4.1-.17-7.53-2.64-8.96-6.46-1.48-3.98-.1-7.16,1.5-10.84.33-.77.68-1.56,1-2.37l18.63,7.63-2.55,6.23Z" fill="#7b4dff"/>
        <g>
          <path d="M613.48,376.35c-1.76.49-3.32,1.57-4.36,3.11-.47.69-.78,1.5-1.12,2.35-.07.18-.14.36-.21.55l14.33,5.87c.07-.18.15-.36.23-.53.36-.84.7-1.63.86-2.46.38-2.06-.11-4.24-1.36-5.98-.65-.9-1.47-1.59-2.39-2.13-.72.55-1.62.88-2.59.88-1.37,0-2.58-.65-3.38-1.65Z" fill="none"/>
          <path d="M611.2,394.96c.55.15.91-.06,1.12-.27.36-.35.52-.92.4-1.39-.11-.42-.42-.7-.92-.84-.92-.25-1.38.46-1.51.91-.06.21-.28,1.24.92,1.58Z" fill="none"/>
          <path d="M603.48,386.68c-1.6,3.68-2.98,6.86-1.5,10.84,1.43,3.82,4.86,6.3,8.96,6.46,4.17.17,7.86-2.06,9.61-5.81l2.55-6.23-18.63-7.63c-.32.81-.67,1.6-1,2.37ZM609.24,389.96c1.16-.72,2.58-.83,3.88-.3,0,0,.02,0,.03.01,1.3.53,2.24,1.59,2.58,2.91.38,1.45,0,2.98-.99,4.09-.86.95-2.08,1.46-3.35,1.43-.1.24-.2.5-.29.77-.18.48-.36.98-.6,1.45-.38.73-1.01,1.1-1.68.98-.15-.03-.28-.07-.39-.11-.38-.16-.6-.4-.73-.61-.24-.39-.28-.89-.13-1.4.16-.51.38-1.01.6-1.49.12-.26.23-.51.33-.76-.92-.86-1.43-2.08-1.39-3.35.05-1.47.85-2.82,2.12-3.61Z" fill="none"/>
          <path d="M608.17,397.67c-.22.48-.44.98-.6,1.49-.16.51-.11,1.01.13,1.4.12.2.35.45.73.61.12.05.25.09.39.11.68.12,1.3-.24,1.68-.98.24-.46.42-.96.6-1.45.1-.27.19-.52.29-.77,1.27.03,2.49-.48,3.35-1.43,1-1.1,1.37-2.63.99-4.09-.35-1.32-1.29-2.38-2.58-2.91,0,0-.02,0-.03-.01-1.3-.52-2.72-.41-3.88.3-1.28.79-2.07,2.13-2.12,3.61-.05,1.27.47,2.48,1.39,3.35-.1.25-.22.5-.33.76ZM610.29,393.39c.13-.46.59-1.17,1.51-.91.5.14.81.42.92.84.12.47-.04,1.04-.4,1.39-.21.21-.57.42-1.12.27-1.2-.33-.97-1.37-.92-1.58Z" fill="#7b4dff"/>
          <path d="M613.48,376.35c.79,1,2,1.65,3.38,1.65.98,0,1.87-.34,2.59-.88-1.18-.69-2.53-1.09-3.97-1.07-.69,0-1.35.12-2,.3Z" fill="#362b48"/>
        </g>
      </g>
      <g>
        <g>
          <circle cx="553.14" cy="373.68" r="4.32" fill="#362b48"/>
          <polygon points="541.72 383.89 560.35 391.52 558.21 399.75 552.37 404.76 544.86 404.2 538.88 400.72 535.82 394.05 537.77 387.37 541.1 384.31 541.72 383.89" fill="#fff"/>
          <path d="M562.87,390.69c-.12-.46-.33-.76-.65-.89l-.9-.37c.86-2.01,1.58-4.19,1.32-6.73-.06-.58-.17-1.14-.31-1.68-.32-1.25-.84-2.4-1.53-3.41-.89-1.29-2.04-2.36-3.43-3.15-1.17-.67-2.48-1.15-3.93-1.36-1.47-.21-3.06-.11-4.61.31,0,.09-.03.17-.03.26,0,1.01.36,1.93.95,2.67.65-.18,1.31-.29,2-.3,1.44-.02,2.79.38,3.97,1.07.91.53,1.74,1.23,2.39,2.13.03.04.05.1.08.14.7,1.02,1.12,2.18,1.29,3.37.12.82.14,1.65-.01,2.47-.15.83-.5,1.63-.86,2.46-.08.18-.15.36-.23.53l-14.33-5.87c.07-.18.14-.36.21-.55.09-.24.19-.46.28-.69-.5-.38-.99-.79-1.45-1.25l-.98-.98c-.14.27-.28.54-.4.84l-.58,1.43-.88-.36c-.3-.12-.65-.09-1.02.1-.16.08-.69.38-.79.82-.43,1.17-.93,2.33-1.43,3.46-1.57,3.58-3.19,7.28-2.2,11.66.96,4.26,3.83,7.66,7.86,9.31,4.03,1.65,8.45,1.24,12.13-1.12,3.77-2.42,5.21-6.18,6.6-9.82.43-1.12.87-2.28,1.38-3.4.22-.37.15-.85.09-1.11ZM556.82,398.17c-1.76,3.75-5.44,5.98-9.61,5.81-4.1-.17-7.53-2.64-8.96-6.46-1.48-3.98-.1-7.16,1.5-10.84.33-.77.68-1.56,1-2.37l18.63,7.63-2.55,6.23Z" fill="#7b4dff"/>
        </g>
        <g>
          <path d="M549.74,376.35c-1.76.49-3.32,1.57-4.36,3.11-.47.69-.78,1.5-1.12,2.35-.07.18-.14.36-.21.55l14.33,5.87c.07-.18.15-.36.23-.53.36-.84.7-1.63.86-2.46.38-2.06-.11-4.24-1.36-5.98-.65-.9-1.47-1.59-2.39-2.13-.72.55-1.62.88-2.59.88-1.37,0-2.58-.65-3.38-1.65Z" fill="none"/>
          <path d="M547.47,394.96c.55.15.91-.06,1.12-.27.36-.35.52-.92.4-1.39-.11-.42-.42-.7-.92-.84-.92-.25-1.38.46-1.51.91-.06.21-.28,1.24.92,1.58Z" fill="none"/>
          <path d="M539.75,386.68c-1.6,3.68-2.98,6.86-1.5,10.84,1.43,3.82,4.86,6.3,8.96,6.46,4.17.17,7.86-2.06,9.61-5.81l2.55-6.23-18.63-7.63c-.32.81-.67,1.6-1,2.37ZM545.51,389.96c1.16-.72,2.58-.83,3.88-.3,0,0,.02,0,.03.01,1.3.53,2.24,1.59,2.58,2.91.38,1.45,0,2.98-.99,4.09-.86.95-2.08,1.46-3.35,1.43-.1.24-.2.5-.29.77-.18.48-.36.98-.6,1.45-.38.73-1.01,1.1-1.68.98-.15-.03-.28-.07-.39-.11-.38-.16-.6-.4-.73-.61-.24-.39-.28-.89-.13-1.4.16-.51.38-1.01.6-1.49.12-.26.23-.51.33-.76-.92-.86-1.43-2.08-1.39-3.35.05-1.47.85-2.82,2.12-3.61Z" fill="none"/>
          <path d="M544.44,397.67c-.22.48-.44.98-.6,1.49-.16.51-.11,1.01.13,1.4.12.2.35.45.73.61.12.05.25.09.39.11.68.12,1.3-.24,1.68-.98.24-.46.42-.96.6-1.45.1-.27.19-.52.29-.77,1.27.03,2.49-.48,3.35-1.43,1-1.1,1.37-2.63.99-4.09-.35-1.32-1.29-2.38-2.58-2.91,0,0-.02,0-.03-.01-1.3-.52-2.72-.41-3.88.3-1.28.79-2.07,2.13-2.12,3.61-.05,1.27.47,2.48,1.39,3.35-.1.25-.22.5-.33.76ZM546.55,393.39c.13-.46.59-1.17,1.51-.91.5.14.81.42.92.84.12.47-.04,1.04-.4,1.39-.21.21-.57.42-1.12.27-1.2-.33-.97-1.37-.92-1.58Z" fill="#7b4dff"/>
          <path d="M549.74,376.35c.79,1,2,1.65,3.38,1.65.98,0,1.87-.34,2.59-.88-1.18-.69-2.53-1.09-3.97-1.07-.69,0-1.35.12-2,.3Z" fill="#362b48"/>
        </g>
      </g>
      <path id="m-2" data-name="m" d="M68.27,255.36v-38.34h3.47v-5.23c0-2.88,2.35-5.23,5.23-5.23h17.3c2.87,0,5.2,2.33,5.2,5.2v5.26h3.47v38.34h-34.66ZM78.67,217.01h13.86v-3.49h-13.86v3.49ZM63.07,255.36c-2.87,0-5.2-2.33-5.2-5.2v-27.95c0-2.87,2.33-5.2,5.2-5.2h1.73v38.34h-1.73ZM106.4,255.36v-38.34h1.73c2.87,0,5.2,2.33,5.2,5.2v27.95c0,2.87-2.33,5.2-5.2,5.2h-1.73ZM83.88,244.9h3.46c.96,0,1.73-.78,1.73-1.73v-5.24h5.2c.96,0,1.73-.78,1.73-1.73v-3.5c0-.96-.78-1.74-1.74-1.74h-5.19v-5.23c0-.96-.78-1.74-1.74-1.74h-3.46c-.96,0-1.73.78-1.73,1.73v5.24h-5.2c-.96,0-1.73.78-1.73,1.73v3.5c0,.96.78,1.74,1.74,1.74h5.19v5.23c0,.96.78,1.74,1.74,1.74Z" fill="#7b4dff"/>
      <path id="m-3" data-name="m" d="M120.11,322.31c8.03,0,14.54-6.51,14.54-14.54v-126.01c0-8.03-6.51-14.54-14.54-14.54H52.26c-8.03,0-14.54,6.51-14.54,14.54v126.01c0,8.03,6.51,14.54,14.54,14.54h67.85ZM119.76,311.32H52.59c-1.05,0-1.9-.85-1.9-1.9v-129.29c0-1.05.86-1.9,1.9-1.9h67.16c1.06,0,1.92.86,1.92,1.92v129.26c0,1.06-.86,1.92-1.92,1.92ZM84.93,302.85c6.35.79,11.67-4.52,10.87-10.87-.54-4.3-4.05-7.82-8.36-8.36-6.35-.79-11.67,4.52-10.87,10.87.54,4.3,4.05,7.82,8.36,8.36Z" fill="#7b4dff"/>
      <line x1="123.76" y1="247.49" x2="449.57" y2="247.49" fill="none" stroke="#7b4dff" stroke-dasharray="0 11.27" stroke-linecap="round" stroke-linejoin="round" stroke-width="5.64"/>
      <g>
        <path id="m-4" data-name="m" d="M1065.7,322.99c8.03,0,14.54-6.51,14.54-14.54v-126.01c0-8.03-6.51-14.54-14.54-14.54h-67.85c-8.03,0-14.54,6.51-14.54,14.54v126.01c0,8.03,6.51,14.54,14.54,14.54h67.85ZM1065.34,312h-67.16c-1.05,0-1.9-.85-1.9-1.9v-129.29c0-1.05.86-1.9,1.9-1.9h67.16c1.06,0,1.92.86,1.92,1.92v129.26c0,1.06-.86,1.92-1.92,1.92ZM1030.51,303.53c6.35.79,11.67-4.52,10.87-10.87-.54-4.3-4.05-7.82-8.36-8.36-6.35-.79-11.67,4.52-10.87,10.87.54,4.3,4.05,7.82,8.36,8.36Z" fill="#7b4dff"/>
        <path id="c" d="M1048.69,264.97c.64,0,1.24-.5,1.24-1.24v-5.35h3.3c3.63,0,6.59-2.96,6.59-6.59v-16.48c0-3.63-2.96-6.59-6.59-6.59h-9.89v-9.89c0-3.63-2.96-6.59-6.59-6.59h-29.66c-3.63,0-6.59,2.96-6.59,6.59v16.48c0,3.63,2.96,6.59,6.59,6.59h3.3v5.35c0,.73.6,1.24,1.24,1.24.25,0,.5-.07.73-.25l7.92-4.48v8.02c0,3.63,2.96,6.59,6.59,6.59h9.89l11.21,6.34c.23.16.48.25.73.25ZM1015.33,240.88v-3.92h-8.24c-.91,0-1.65-.74-1.65-1.65v-16.48c0-.91.74-1.65,1.65-1.65h29.66c.91,0,1.65.74,1.65,1.65v16.48c0,.91-.74,1.65-1.65,1.65h-14.48l-1.13.64-5.81,3.28ZM1044.99,257.36l-5.81-3.28-1.13-.64h-11.18c-.91,0-1.65-.74-1.65-1.65v-9.89h11.53c3.63,0,6.59-2.96,6.59-6.59v-1.65h9.89c.91,0,1.65.74,1.65,1.65v16.48c0,.91-.74,1.65-1.65,1.65h-8.24v3.92Z" fill="#7b4dff"/>
        <line x1="669.75" y1="248.17" x2="989.87" y2="248.17" fill="none" stroke="#7b4dff" stroke-dasharray="0 11.57" stroke-linecap="round" stroke-linejoin="round" stroke-width="5.79"/>
      </g>
    </g>
  </g>
</svg>