<svg viewBox="0 0 200 200" xmlns="http://www.w3.org/2000/svg">
  <!-- Background circle with gradient -->
  <defs>
    <linearGradient id="bgGradient" x1="0%" y1="0%" x2="100%" y2="100%">
      <stop offset="0%" style="stop-color:#4F46E5;stop-opacity:1" />
      <stop offset="100%" style="stop-color:#7C3AED;stop-opacity:1" />
    </linearGradient>
    <linearGradient id="cloudGradient" x1="0%" y1="0%" x2="100%" y2="100%">
      <stop offset="0%" style="stop-color:#FFFFFF;stop-opacity:0.9" />
      <stop offset="100%" style="stop-color:#F1F5F9;stop-opacity:0.8" />
    </linearGradient>
    <linearGradient id="crossGradient" x1="0%" y1="0%" x2="100%" y2="100%">
      <stop offset="0%" style="stop-color:#10B981;stop-opacity:1" />
      <stop offset="100%" style="stop-color:#059669;stop-opacity:1" />
    </linearGradient>
    <!-- Drop shadow filter -->
    <filter id="dropshadow" x="-50%" y="-50%" width="200%" height="200%">
      <feDropShadow dx="0" dy="4" stdDeviation="8" flood-color="#000000" flood-opacity="0.15"/>
    </filter>
  </defs>

  <!-- Main background circle -->
  <circle cx="100" cy="100" r="95" fill="url(#bgGradient)" filter="url(#dropshadow)"/>

  <!-- Cloud shape for data storage -->
  <path d="M60 110
           Q50 100, 60 90
           Q70 80, 85 85
           Q95 75, 110 85
           Q125 80, 135 90
           Q145 85, 150 95
           Q155 105, 145 115
           Q140 125, 125 120
           L75 120
           Q60 125, 60 110 Z"
        fill="url(#cloudGradient)"
        stroke="#E2E8F0"
        stroke-width="1"/>

  <!-- Medical cross symbol -->
  <g transform="translate(100, 100)">
    <!-- Vertical bar of cross -->
    <rect x="-4" y="-20" width="8" height="40" rx="2" fill="url(#crossGradient)"/>
    <!-- Horizontal bar of cross -->
    <rect x="-20" y="-4" width="40" height="8" rx="2" fill="url(#crossGradient)"/>
  </g>

  <!-- Security/lock elements -->
  <g transform="translate(130, 75)">
    <!-- Lock body -->
    <rect x="-6" y="2" width="12" height="10" rx="2" fill="#1F2937" opacity="0.7"/>
    <!-- Lock shackle -->
    <path d="M-4 2 Q-4 -2, 0 -2 Q4 -2, 4 2" stroke="#1F2937" stroke-width="2" fill="none" opacity="0.7"/>
  </g>

  <!-- Data/connectivity dots -->
  <circle cx="75" cy="65" r="3" fill="#FFFFFF" opacity="0.8"/>
  <circle cx="125" cy="65" r="3" fill="#FFFFFF" opacity="0.8"/>
  <circle cx="65" cy="135" r="3" fill="#FFFFFF" opacity="0.8"/>
  <circle cx="135" cy="135" r="3" fill="#FFFFFF" opacity="0.8"/>

  <!-- Connecting lines (subtle) -->
  <line x1="78" y1="68" x2="95" y2="85" stroke="#FFFFFF" stroke-width="1" opacity="0.4"/>
  <line x1="122" y1="68" x2="105" y2="85" stroke="#FFFFFF" stroke-width="1" opacity="0.4"/>
  <line x1="68" y1="132" x2="95" y2="115" stroke="#FFFFFF" stroke-width="1" opacity="0.4"/>
  <line x1="132" y1="132" x2="105" y2="115" stroke="#FFFFFF" stroke-width="1" opacity="0.4"/>

  <!-- Subtle highlight on top -->
  <ellipse cx="100" cy="40" rx="50" ry="10" fill="#FFFFFF" opacity="0.1"/>
</svg>