<svg width="500pt" height="892.813" style="isolation:isolate" viewBox="0.588 0 500 669.61" xmlns="http://www.w3.org/2000/svg" class="w-48 h-48 fill-current"><path d="M319.32 372.11c-28.861 13.939-84.306 113.21-48.898 127.05 31.836 12.446 40.597 70.995 28.598 102.4-12 31.409-25.508 27.902-21.218 7.053s-1.617-58.873-47.255-81.405q-45.638-22.533-31.805-95.682c18.845-84.524 108.94-75.096 125.63-65.863q13.214-11.471 45.508-.412 82.916 37.602 83.88 103.16.964 65.562 40.494 84.845 15.426 12.533-6.749 13.498c-22.175.964-61.705-46.279-66.526-83.881q-4.821-37.601-101.24-58.812-8.827-36.149-.428-51.957zm-188.03-6.856q-82.916 37.602-83.88 103.16-.964 65.562-40.494 84.845-15.426 12.533 6.749 13.498c22.175.964 61.705-46.279 66.526-83.881q4.821-37.601 101.24-58.812 20.247-82.916-50.136-58.813z" fill="#f79e9e" fill-rule="evenodd" class="light-color-fill"></path><path d="M152.17 312.54q-83.979-4.067-73.785-69.818c6.023-38.853 2.626-84.508-9.889-121.66C55.628 82.857 33.12 53.64 1.3 50.046c-1.283-.14-1.219 1.796 3.445 5.202 42.478 33.455 54.466 79.151 29.732 137.73-41.506 98.303-43.004 227.48 50.789 219.62 17.83-1.492 35.767-4.255 50.558-3.518q-12.518 29.403-29.669 54.738c-42.422 62.669-15.185 170.17 7.714 196.68 22.898 26.514 11.087-11.811 8.677-26.996-2.411-15.185-1.138-120.17 46.279-149.44 35.245-21.76 44.286-58.48 58.397-82.493q21.109-16.57 45.827 1.153l.014.009c13.743 24.008 23.049 59.915 57.737 81.331 47.417 29.275 48.689 134.26 46.279 149.44s-14.221 53.51 8.677 26.996 50.135-134.02 7.713-196.68q-17.15-25.335-29.668-54.738c14.791-.737 32.728 2.026 50.558 3.518 93.793 7.851 92.295-121.32 50.789-219.62-24.734-58.581-12.747-104.28 29.732-137.73 4.664-3.406 4.727-5.342 3.445-5.202-31.82 3.594-54.329 32.811-67.197 71.016-12.514 37.155-15.911 82.81-9.888 121.66q9.849 63.526-68.21 69.472 72.08-182.71 29.931-255.59c-43.241-74.772-206.33-76.167-260.32 0q-52.667 74.3 29.527 255.94z" fill="#f05252" class="dark-color-fill"></path><path d="M276.91 316.68c0-23.812 27.656-43.145 61.722-43.145 34.065 0 61.721 19.333 61.721 43.145 0 23.813-27.656 43.146-61.721 43.146-34.066 0-61.722-19.333-61.722-43.146zm-175.47 0c0-23.812 27.657-43.145 61.722-43.145s61.722 19.333 61.722 43.145c0 23.813-27.657 43.146-61.722 43.146s-61.722-19.333-61.722-43.146z" fill="#f79e9e" fill-rule="evenodd" class="light-color-fill"></path><path d="M300.56 327.08c2.092-6.366 10.637-35.7 38.348-35.016 27.275.673 35.942 27.13 37.65 31.71 1.707 4.58 1.735 10.393-.872 13.101-2.736 2.842-6.981 2.645-9.761-1.959-4.801-7.953-5.982-24.648-27.017-24.487-19.868.153-20.865 17.088-24.839 24.487-2.678 4.986-6.88 7.583-10.72 5.877-3.84-1.707-4.881-7.346-2.789-13.713zm-175.47 0c2.091-6.366 10.637-35.7 38.347-35.016 27.275.673 35.943 27.13 37.65 31.71 1.708 4.58 1.736 10.393-.871 13.101-2.736 2.842-6.982 2.645-9.762-1.959-4.801-7.953-5.981-24.648-27.017-24.487-19.868.153-20.865 17.088-24.839 24.487-2.678 4.986-6.88 7.583-10.72 5.877-3.84-1.707-4.88-7.346-2.788-13.713z" fill="#f05252" fill-rule="evenodd" class="dark-color-fill"></path></svg>
