<?xml version="1.0" encoding="UTF-8"?>
<svg width="49px" height="49px" viewBox="0 0 49 49" version="1.1" xmlns="http://www.w3.org/2000/svg" xmlns:xlink="http://www.w3.org/1999/xlink">
    <title>W3C - cgbg-logo</title>
    <g id="All-pages" stroke="none" stroke-width="1" fill="none" fill-rule="evenodd">
        <g id="Community" transform="translate(-1037, -564)" fill-rule="nonzero">
            <g id="W3C---cgbg-logo" transform="translate(1037, 564)">
                <path d="M22.3353414,21.6032064 C22.3353414,15.7114228 22.9257028,10.4088176 22.9257028,10.4088176 L19.2359438,6.97194389 C19.2359438,6.97194389 24.8443775,5.10621242 28.435743,6.87374749 C29.813253,10.3597194 35.6184739,10.0651303 35.6184739,10.0651303 C35.6184739,10.0651303 39.8985944,12.3236473 41.4728916,16.6933868 C39.3574297,16.006012 33.060241,14.2875752 33.060241,14.2875752 C33.060241,14.2875752 26.812249,16.2024048 22.3353414,21.6032064 Z" id="Path" fill="#FFFFFF"></path>
                <ellipse id="Oval" fill="#FFFFFF" cx="34.4869478" cy="4.71342685" rx="5.21485944" ry="3.58416834"></ellipse>
                <path d="M23.4176707,25.3837675 C27.5993976,28.7224449 29.9608434,31.3737475 32.6174699,34.8106212 C32.7158635,36.7254509 32.2238956,39.0330661 31.5351406,41.5370741 C35.9628514,40.1623246 38.9638554,36.5781563 38.9638554,36.5781563 C38.9638554,36.5781563 37.4879518,30.8827655 42.8995984,29.4589178 C44.1295181,26.1693387 43.4899598,21.4068136 42.7028112,19.7865731 C40.8333333,21.3086172 39.8002008,22.9779559 37.4879518,25.3837675 C33.6014056,25.3837675 23.4176707,25.3837675 23.4176707,25.3837675 Z" id="Path" fill="#FFFFFF"></path>
                <ellipse id="Oval" fill="#FFFFFF" cx="44.5722892" cy="34.9088176" rx="4.42771084" ry="4.41883768"></ellipse>
                <path d="M19.875502,25.8256513 C19.3343373,28.4769539 19.1375502,32.748497 20.564257,36.7254509 C22.0893574,39.7695391 26.812249,42.6172345 27.6485944,42.5681363 C28.4849398,42.5190381 22.7781124,43.9428858 19.1375502,42.2735471 C18.3504016,40.5551102 16.3333333,38.1983968 12.6435743,38.8366733 C10.6757028,37.1673347 8.65863454,34.8106212 7.6746988,31.5701403 C9.49497992,32.1593186 10.9708835,33.1412826 13.7259036,33.2885772 C16.1365462,31.0791583 19.875502,25.8256513 19.875502,25.8256513 Z" id="Path" fill="#FFFFFF"></path>
                <path d="M14.0210843,40.3587174 C16.2349398,40.3587174 18.0552209,42.2735471 18.0552209,44.6793587 C18.0552209,47.0851703 16.2349398,49 14.0210843,49 C11.8072289,49 9.98694779,47.0851703 9.98694779,44.6793587 C9.98694779,42.3226453 11.7580321,40.3587174 14.0210843,40.3587174 Z" id="Path" fill="#FFFFFF"></path>
                <path d="M19.2359438,22.5851703 L13.9718876,14.4348697 C14.3654618,10.997996 17.1204819,7.46292585 17.1204819,7.46292585 C11.8564257,9.32865731 9.49497992,13.4529058 9.49497992,13.4529058 C9.88855422,17.7735471 6.54317269,18.7064128 6.54317269,18.7064128 C5.21485944,22.9779559 6.24799197,27.3476954 6.24799197,27.3476954 C7.72389558,23.5180361 9.34738956,22.3396794 9.34738956,22.3396794 L19.2359438,22.5851703 Z" id="Path" fill="#FFFFFF"></path>
                <ellipse id="Oval" fill="#FFFFFF" cx="4.18172691" cy="14.0911824" rx="4.08333333" ry="3.73146293"></ellipse>
                <path d="M22.2369478,20.4739479 C22.2369478,14.5821643 22.8273092,9.27955912 22.8273092,9.27955912 L19.1375502,5.84268537 C19.1375502,5.84268537 24.7459839,3.97695391 28.3373494,5.74448898 C29.7148594,9.23046092 35.5200803,8.93587174 35.5200803,8.93587174 C35.5200803,8.93587174 39.8002008,11.1943888 41.374498,15.5641283 C39.2590361,14.8767535 32.9618474,13.1583166 32.9618474,13.1583166 C32.9618474,13.1583166 26.7138554,15.0240481 22.2369478,20.4739479 Z" id="Path" fill="#799D42"></path>
                <ellipse id="Oval" fill="#799D42" cx="34.3885542" cy="3.58416834" rx="5.21485944" ry="3.58416834"></ellipse>
                <path d="M23.2700803,24.254509 C27.4518072,27.5931864 29.8624498,30.244489 32.4698795,33.6813627 C32.5682731,35.5961924 32.0763052,37.9038076 31.3875502,40.4078156 C35.815261,39.0330661 38.8162651,35.4488978 38.8162651,35.4488978 C38.8162651,35.4488978 37.3403614,29.753507 42.752008,28.3296593 C43.9819277,25.0400802 43.3423695,20.2775551 42.5552209,18.6573146 C40.685743,20.1793587 39.6526104,21.8486974 37.3403614,24.254509 C33.4538153,24.2054108 23.2700803,24.254509 23.2700803,24.254509 Z" id="Path" fill="#B33F1B"></path>
                <ellipse id="Oval" fill="#B33F1B" cx="44.4738956" cy="33.7795591" rx="4.42771084" ry="4.41883768"></ellipse>
                <path d="M19.7279116,24.6963928 C19.186747,27.3476954 18.9899598,31.6192385 20.4166667,35.5961924 C21.9417671,38.6402806 26.6646586,41.487976 27.501004,41.4388778 C28.3373494,41.3897796 22.6305221,42.8136273 18.9899598,41.1442886 C18.2028112,39.4258517 16.185743,37.0691383 12.4959839,37.7074148 C10.5281124,36.0380762 8.51104418,33.6813627 7.52710843,30.4408818 C9.34738956,31.0300601 10.8232932,32.012024 13.5783133,32.1593186 C16.0381526,29.9498998 19.7279116,24.6963928 19.7279116,24.6963928 Z" id="Path" fill="#F16431"></path>
                <ellipse id="Oval" fill="#F16431" cx="13.873494" cy="43.5501002" rx="4.03413655" ry="4.32064128"></ellipse>
                <path d="M19.1375502,21.4559118 L13.873494,13.256513 C14.2670683,9.81963928 17.0220884,6.28456914 17.0220884,6.28456914 C11.7580321,8.1503006 9.39658635,12.2745491 9.39658635,12.2745491 C9.79016064,16.5951904 6.44477912,17.5280561 6.44477912,17.5280561 C5.11646586,21.7995992 6.14959839,26.1693387 6.14959839,26.1693387 C7.62550201,22.3396794 9.24899598,21.1613226 9.24899598,21.1613226 L19.1375502,21.4559118 Z" id="Path" fill="#008EC1"></path>
                <ellipse id="Oval" fill="#008EC1" cx="4.08333333" cy="12.9128257" rx="4.08333333" ry="3.73146293"></ellipse>
            </g>
        </g>
    </g>
</svg>