<?xml version="1.0" encoding="UTF-8"?>
<svg width="63px" height="63px" viewBox="0 0 63 63" version="1.1" xmlns="http://www.w3.org/2000/svg" xmlns:xlink="http://www.w3.org/1999/xlink">
    <title>icons8-app</title>
    <g id="All-pages" stroke="none" stroke-width="1" fill="none" fill-rule="evenodd">
        <g id="Home" transform="translate(-885, -620)" fill="#000000" fill-rule="nonzero">
            <g id="icons8-app" transform="translate(885, 620)">
                <path d="M48,0 L15,0 C6.729,0 0,6.729 0,15 L0,48 C0,56.271 6.729,63 15,63 L48,63 C56.271,63 63,56.271 63,48 L63,15 C63,6.729 56.271,0 48,0 Z M42.477,37.098 C40.977,39.519 38.3655,41.079 35.511,41.22 L30.2085,48.6735 C29.9235,49.0755 29.4645,49.3035 28.9875,49.3035 C28.86,49.3035 28.731,49.287 28.6035,49.254 C28.0005,49.095 27.558,48.576 27.495,47.955 L26.9505,42.5595 C24.174,43.6905 21.2175,43.671 18.5265,42.474 C15.756,41.241 13.6065,38.862 12.627,35.943 C10.704,30.198 13.425,24.18 18.846,21.9585 C21.1395,17.772 26.442,14.9985 32.271,14.9985 C37.098,14.9985 41.538,16.8375 44.2755,19.9425 C48.2055,20.853 51,24.321 51,28.3965 C51,33.135 47.1945,37.0005 42.477,37.098 Z" id="Shape"></path>
            </g>
        </g>
    </g>
</svg>